<?xml version="1.0" encoding="utf-8"?>
<!-- Generator: Adobe Illustrator 24.0.1, SVG Export Plug-In . SVG Version: 6.00 Build 0)  -->
<svg version="1.1" id="Layer_1" xmlns="http://www.w3.org/2000/svg" xmlns:xlink="http://www.w3.org/1999/xlink" x="0px" y="0px"
	 viewBox="0 0 32 32" style="enable-background:new 0 0 32 32;" xml:space="preserve">
<style type="text/css">
	.st0{fill:#525252;}
</style>
<title>Attribute</title>
<desc>Created with Sketch.</desc>
<path class="st0" d="M15,1H1v14l16,16l14-14L15,1z M2,14.6V2h12.6l15,15L17,29.6L2,14.6z"/>
<path class="st0" d="M7,4C5.3,4,4,5.3,4,7s1.3,3,3,3s3-1.3,3-3S8.7,4,7,4z M7,9C5.9,9,5,8.1,5,7s0.9-2,2-2s2,0.9,2,2S8.1,9,7,9z"/>
<g>
	<g transform="translate(7.000000, 7.000000)">
		<rect x="12.2" y="-0.9" transform="matrix(0.7071 -0.7071 0.7071 0.7071 -0.6251 10.7842)" class="st0" width="1" height="14.1"/>
		<rect x="8.5" y="4.9" transform="matrix(0.7071 -0.7071 0.7071 0.7071 -4.7335 9.4423)" class="st0" width="1" height="11"/>
		<rect x="6.1" y="7.2" transform="matrix(0.7071 -0.7071 0.7071 0.7071 -6.7084 8.2101)" class="st0" width="1" height="10"/>
		<rect x="-0.1" y="4.4" transform="matrix(0.7071 -0.7071 0.7071 0.7071 -2.135 4.7152)" class="st0" width="9.5" height="1"/>
	</g>
	<rect x="17.7" y="9.8" transform="matrix(0.7071 -0.7071 0.7071 0.7071 -5.5117 17.321)" class="st0" width="1" height="11"/>
</g>
</svg>
