<svg id="Layer_1" data-name="Layer 1" xmlns="http://www.w3.org/2000/svg" xmlns:xlink="http://www.w3.org/1999/xlink" viewBox="0 0 32 32"><defs><clipPath id="clip-path"><rect x="23" y="23" width="9" height="9" fill="none"/></clipPath><clipPath id="clip-path-3"><rect width="9" height="9" fill="none"/></clipPath></defs><title>Auto</title><polygon points="0 23.5 12.8 15 9 22 17 23.5 4.2 32 8 25 0 23.5" fill="#666"/><path d="M26.1,23.3,21,16.5V3H8.7a3.9,3.9,0,0,1,0,3H18V17.5l5.7,7.6A4.3,4.3,0,0,1,26.1,23.3Z" fill="#30a0fb"/><g id="Artwork_10" data-name="Artwork 10"><g clip-path="url(#clip-path)"><g clip-path="url(#clip-path)"><path d="M27.5,24A3.5,3.5,0,1,1,24,27.5,3.54,3.54,0,0,1,27.5,24m0-1A4.5,4.5,0,1,0,32,27.5,4.48,4.48,0,0,0,27.5,23" fill="#666"/></g></g></g><g id="Artwork_10-2" data-name="Artwork 10"><g clip-path="url(#clip-path-3)"><g clip-path="url(#clip-path-3)"><path d="M4.5,1A3.54,3.54,0,0,1,8,4.5,3.54,3.54,0,0,1,4.5,8,3.54,3.54,0,0,1,1,4.5,3.54,3.54,0,0,1,4.5,1m0-1A4.5,4.5,0,1,0,9,4.5,4.48,4.48,0,0,0,4.5,0" fill="#666"/></g></g></g></svg>