<?xml version="1.0" encoding="utf-8"?>
<!-- Generator: Adobe Illustrator 24.0.1, SVG Export Plug-In . SVG Version: 6.00 Build 0)  -->
<svg version="1.1" id="Layer_1" xmlns="http://www.w3.org/2000/svg" xmlns:xlink="http://www.w3.org/1999/xlink" x="0px" y="0px"
	 viewBox="0 0 32 32" style="enable-background:new 0 0 32 32;" xml:space="preserve">
<style type="text/css">
	.st0{fill-rule:evenodd;clip-rule:evenodd;fill:#666666;}
	.st1{opacity:0.4;fill-rule:evenodd;clip-rule:evenodd;fill:#F3F3F3;enable-background:new    ;}
	.st2{fill-rule:evenodd;clip-rule:evenodd;fill:#F3F3F3;}
</style>
<title>BGA</title>
<desc>Created with Sketch.</desc>
<g>
	<polygon class="st0" points="0,32 32,32 32,0 0,0 	"/>
	<path class="st1" d="M0,32h32V0H0V32z M1,31h30V1H1V31z"/>
	<g transform="translate(10.500000, 10.000000)">
		<path class="st2" d="M1.7,3.3C1,3.3,0.4,2.7,0.4,2S1,0.6,1.7,0.6S3.1,1.2,3.1,2S2.4,3.3,1.7,3.3"/>
		<path class="st2" d="M5.5,3.3C4.7,3.3,4.1,2.7,4.1,2s0.6-1.4,1.4-1.4S6.9,1.2,6.9,2S6.2,3.3,5.5,3.3"/>
		<path class="st2" d="M9.2,3.3C8.5,3.3,7.9,2.7,7.9,2s0.6-1.4,1.4-1.4s1.4,0.6,1.4,1.4S9.9,3.3,9.2,3.3"/>
		<path class="st2" d="M1.7,7.3C1,7.3,0.4,6.6,0.4,5.9S1,4.5,1.7,4.5s1.4,0.6,1.4,1.4S2.4,7.3,1.7,7.3"/>
		<path class="st2" d="M5.5,7.1c-0.8,0-1.4-0.6-1.4-1.4s0.6-1.4,1.4-1.4S6.9,5,6.9,5.7S6.2,7.1,5.5,7.1"/>
		<path class="st2" d="M9.2,7.3c-0.8,0-1.4-0.6-1.4-1.4s0.6-1.4,1.4-1.4s1.4,0.6,1.4,1.4S9.9,7.3,9.2,7.3"/>
		<path class="st2" d="M1.7,11C1,11,0.4,10.4,0.4,9.6c0-0.8,0.6-1.4,1.4-1.4s1.4,0.6,1.4,1.4C3.1,10.4,2.4,11,1.7,11"/>
		<path class="st2" d="M5.5,11c-0.8,0-1.4-0.6-1.4-1.4c0-0.8,0.6-1.4,1.4-1.4s1.4,0.6,1.4,1.4C6.9,10.4,6.2,11,5.5,11"/>
		<path class="st2" d="M9.2,11c-0.8,0-1.4-0.6-1.4-1.4c0-0.8,0.6-1.4,1.4-1.4s1.4,0.6,1.4,1.4C10.6,10.4,9.9,11,9.2,11"/>
	</g>
	<g transform="translate(3.000000, 3.000000)">
		<path class="st2" d="M1.7,2.9c-0.8,0-1.4-0.6-1.4-1.4s0.6-1.4,1.4-1.4S3,0.8,3,1.5S2.4,2.9,1.7,2.9"/>
		<path class="st2" d="M5.5,2.9c-0.8,0-1.4-0.6-1.4-1.4s0.6-1.4,1.4-1.4s1.3,0.7,1.3,1.4S6.2,2.9,5.5,2.9"/>
		<path class="st2" d="M9.3,2.9c-0.8,0-1.4-0.6-1.4-1.4s0.6-1.4,1.4-1.4s1.4,0.6,1.4,1.4S10,2.9,9.3,2.9"/>
		<path class="st2" d="M13.1,2.9c-0.8,0-1.4-0.6-1.4-1.4s0.6-1.4,1.4-1.4s1.4,0.6,1.4,1.4S13.8,2.9,13.1,2.9"/>
		<path class="st2" d="M16.9,2.9c-0.8,0-1.4-0.6-1.4-1.4s0.6-1.4,1.4-1.4c0.8,0,1.4,0.6,1.4,1.4S17.6,2.9,16.9,2.9"/>
		<path class="st2" d="M20.7,2.9c-0.8,0-1.4-0.6-1.4-1.4s0.6-1.4,1.4-1.4c0.8,0,1.4,0.6,1.4,1.4S21.4,2.9,20.7,2.9"/>
		<path class="st2" d="M24.5,2.9c-0.8,0-1.4-0.6-1.4-1.4s0.6-1.4,1.4-1.4c0.8,0,1.4,0.6,1.4,1.4S25.2,2.9,24.5,2.9"/>
		<path class="st2" d="M1.7,6.7c-0.8,0-1.4-0.6-1.4-1.4S0.9,4,1.7,4S3,4.6,3,5.3S2.4,6.7,1.7,6.7"/>
		<path class="st2" d="M24.5,6.7c-0.8,0-1.4-0.6-1.4-1.4S23.8,4,24.5,4c0.8,0,1.4,0.6,1.4,1.4S25.2,6.7,24.5,6.7"/>
		<path class="st2" d="M1.7,10.5c-0.8,0-1.4-0.6-1.4-1.4s0.6-1.4,1.4-1.4S3,8.4,3,9.1S2.4,10.5,1.7,10.5"/>
		<path class="st2" d="M24.5,10.5c-0.8,0-1.4-0.6-1.4-1.4s0.6-1.4,1.4-1.4c0.8,0,1.4,0.6,1.4,1.4S25.2,10.5,24.5,10.5"/>
		<path class="st2" d="M1.7,14.3c-0.8,0-1.4-0.6-1.4-1.4s0.6-1.4,1.4-1.4S3,12.2,3,13S2.4,14.3,1.7,14.3"/>
		<path class="st2" d="M24.5,14.3c-0.8,0-1.4-0.6-1.4-1.4s0.6-1.4,1.4-1.4c0.8,0,1.4,0.6,1.4,1.4S25.2,14.3,24.5,14.3"/>
		<path class="st2" d="M1.7,18.1c-0.8,0-1.4-0.6-1.4-1.4c0-0.8,0.6-1.4,1.4-1.4S3,16,3,16.8C3,17.5,2.4,18.1,1.7,18.1"/>
		<path class="st2" d="M24.5,18.1c-0.8,0-1.4-0.6-1.4-1.4c0-0.8,0.6-1.4,1.4-1.4c0.8,0,1.4,0.6,1.4,1.4
			C25.9,17.5,25.2,18.1,24.5,18.1"/>
		<path class="st2" d="M1.7,21.9c-0.8,0-1.4-0.6-1.4-1.4c0-0.8,0.6-1.4,1.4-1.4S3,19.8,3,20.6C3,21.3,2.4,21.9,1.7,21.9"/>
		<path class="st2" d="M24.5,21.9c-0.8,0-1.4-0.6-1.4-1.4c0-0.8,0.6-1.4,1.4-1.4c0.8,0,1.4,0.6,1.4,1.4
			C25.9,21.3,25.2,21.9,24.5,21.9"/>
		<path class="st2" d="M1.7,25.8c-0.8,0-1.4-0.6-1.4-1.4c0-0.8,0.6-1.4,1.4-1.4S3,23.6,3,24.4C3,25.1,2.4,25.8,1.7,25.8"/>
		<path class="st2" d="M5.5,25.8c-0.8,0-1.4-0.6-1.4-1.4c0-0.8,0.6-1.4,1.4-1.4s1.4,0.6,1.4,1.4C6.9,25.1,6.2,25.8,5.5,25.8"/>
		<path class="st2" d="M9.3,25.8c-0.8,0-1.4-0.6-1.4-1.4c0-0.8,0.6-1.4,1.4-1.4s1.4,0.6,1.4,1.4C10.7,25.1,10,25.8,9.3,25.8"/>
		<path class="st2" d="M13.1,25.8c-0.8,0-1.4-0.6-1.4-1.4c0-0.8,0.6-1.4,1.4-1.4s1.4,0.6,1.4,1.4C14.5,25.1,13.8,25.8,13.1,25.8"/>
		<path class="st2" d="M16.9,25.8c-0.8,0-1.4-0.6-1.4-1.4c0-0.8,0.6-1.4,1.4-1.4c0.8,0,1.4,0.6,1.4,1.4
			C18.3,25.1,17.6,25.8,16.9,25.8"/>
		<path class="st2" d="M20.7,25.8c-0.8,0-1.4-0.6-1.4-1.4c0-0.8,0.6-1.4,1.4-1.4c0.8,0,1.4,0.6,1.4,1.4
			C22.1,25.1,21.4,25.8,20.7,25.8"/>
		<path class="st2" d="M24.5,25.8c-0.8,0-1.4-0.6-1.4-1.4c0-0.8,0.6-1.4,1.4-1.4c0.8,0,1.4,0.6,1.4,1.4
			C25.9,25.1,25.2,25.8,24.5,25.8"/>
	</g>
</g>
</svg>
