<?xml version="1.0" encoding="utf-8"?>
<!-- Generator: Adobe Illustrator 24.0.1, SVG Export Plug-In . SVG Version: 6.00 Build 0)  -->
<svg version="1.1" id="Layer_1" xmlns="http://www.w3.org/2000/svg" xmlns:xlink="http://www.w3.org/1999/xlink" x="0px" y="0px"
	 viewBox="0 0 32 32" style="enable-background:new 0 0 32 32;" xml:space="preserve">
<style type="text/css">
	.st0{fill:#78AFE1;fill-opacity:0.5;}
	.st1{fill:none;stroke:#DE011A;stroke-linecap:round;stroke-linejoin:round;stroke-miterlimit:10;}
	.st2{fill:none;stroke:#999999;stroke-linecap:round;stroke-linejoin:round;stroke-miterlimit:10;}
	.st3{fill:#D9D9D9;stroke:#999999;stroke-linecap:round;stroke-linejoin:round;stroke-miterlimit:10;}
	.st4{clip-path:url(#SVGID_2_);}
	.st5{clip-path:url(#SVGID_4_);}
	.st6{opacity:0.8;clip-path:url(#SVGID_6_);}
	.st7{clip-path:url(#SVGID_8_);}
	.st8{clip-path:url(#SVGID_4_);fill:#FFFFFF;}
</style>
<rect x="0.5" y="21" class="st0" width="31" height="5"/>
<rect x="0.5" y="11" class="st0" width="31" height="5"/>
<title>Net</title>
<desc>Created with Sketch.</desc>
<title>Net</title>
<desc>Created with Sketch.</desc>
<title>Net</title>
<desc>Created with Sketch.</desc>
<title>Net</title>
<desc>Created with Sketch.</desc>
<path class="st1" d="M32,1.9"/>
<path class="st2" d="M1.2,1h29.6c0.4,0,0.7,0.3,0.7,0.7v27.6c0,0.4-0.3,0.7-0.7,0.7H1.2c-0.4,0-0.7-0.3-0.7-0.7V1.7
	C0.5,1.3,0.8,1,1.2,1z M0.5,5.8h31"/>
<line class="st2" x1="0.5" y1="11" x2="31.5" y2="11"/>
<path class="st2" d="M31.5,14"/>
<path class="st2" d="M0.5,14"/>
<line class="st2" x1="0.5" y1="16" x2="31.5" y2="16"/>
<line class="st2" x1="0.5" y1="21" x2="31.5" y2="21"/>
<line class="st2" x1="0.5" y1="26" x2="31.5" y2="26"/>
<line class="st2" x1="11" y1="1" x2="11" y2="30"/>
<line class="st2" x1="21" y1="1" x2="21" y2="30"/>
<rect x="0.5" y="1" class="st3" width="31" height="4.8"/>
<g id="Artwork_35_1_">
	<g>
		<defs>
			<rect id="SVGID_1_" x="20" y="19.2" width="12" height="12"/>
		</defs>
		<clipPath id="SVGID_2_">
			<use xlink:href="#SVGID_1_"  style="overflow:visible;"/>
		</clipPath>
		<g class="st4">
			<defs>
				<rect id="SVGID_3_" x="20" y="19.2" width="12" height="12"/>
			</defs>
			<clipPath id="SVGID_4_">
				<use xlink:href="#SVGID_3_"  style="overflow:visible;"/>
			</clipPath>
			<g class="st5">
				<defs>
					<rect id="SVGID_5_" x="20" y="19.2" width="12" height="12"/>
				</defs>
				<clipPath id="SVGID_6_">
					<use xlink:href="#SVGID_5_"  style="overflow:visible;"/>
				</clipPath>
				<g class="st6">
					<g>
						<defs>
							<rect id="SVGID_7_" x="20" y="19.2" width="12" height="12"/>
						</defs>
						<clipPath id="SVGID_8_">
							<use xlink:href="#SVGID_7_"  style="overflow:visible;"/>
						</clipPath>
						<path class="st7" d="M32,25.2c0,3.3-2.7,6-6,6s-6-2.7-6-6s2.7-6,6-6S32,21.9,32,25.2"/>
					</g>
				</g>
			</g>
			<polygon class="st8" points="30,24.2 27,24.2 27,21.2 25,21.2 25,24.2 22,24.2 22,26.2 25,26.2 25,29.2 27,29.2 27,26.2 30,26.2 
							"/>
		</g>
	</g>
</g>
</svg>
