<svg id="Layer_1" data-name="Layer 1" xmlns="http://www.w3.org/2000/svg" viewBox="0 0 32 32"><title>Cam</title><polygon points="19.82 31.82 19.82 22.82 28.82 22.82 19.82 31.82" fill="#666"/><polygon points="19.82 30.82 18.82 30.82 15.82 30.82 5.83 30.82 5.83 0.82 27.82 0.82 27.82 19.82 27.82 21.82 27.82 22.82 28.82 22.82 28.82 -0.18 4.83 -0.18 4.83 31.82 19.82 31.82 19.82 30.82" fill="#666"/><rect x="3.15" y="2.65" width="25" height="17" stroke-width="0.75" stroke="#525252" stroke-linecap="round" stroke-linejoin="round" fill="#525252"/><path d="M22.65,3.7h-2l-.5,7h-2.5V8.33a.25.25,0,0,0-.25-.25.27.27,0,0,0-.17.06l-2.67,2.29a.25.25,0,0,1-.35,0,.27.27,0,0,1-.06-.17V8.33a.25.25,0,0,0-.25-.25.27.27,0,0,0-.17.06l-2.67,2.29a.25.25,0,0,1-.35,0,.27.27,0,0,1-.06-.17V8.34a.25.25,0,0,0-.25-.25.27.27,0,0,0-.17.06L8.15,10V17.7h15V10.22Z" fill="#f3f3f3"/><rect x="9.82" y="13.21" width="2.99" height="1.79" fill="#666"/><rect x="14.01" y="13.21" width="2.99" height="1.79" fill="#666"/><rect x="18.2" y="13.21" width="2.99" height="1.79" fill="#666"/></svg>