<?xml version="1.0" encoding="utf-8"?>
<!-- Generator: Adobe Illustrator 24.0.1, SVG Export Plug-In . SVG Version: 6.00 Build 0)  -->
<svg version="1.1" id="Layer_1" xmlns="http://www.w3.org/2000/svg" xmlns:xlink="http://www.w3.org/1999/xlink" x="0px" y="0px"
	 viewBox="0 0 32 32" style="enable-background:new 0 0 32 32;" xml:space="preserve">
<style type="text/css">
	.st0{fill-rule:evenodd;clip-rule:evenodd;fill:#525252;}
	.st1{fill-rule:evenodd;clip-rule:evenodd;fill:#BBBBBB;}
	.st2{fill:#525252;}
	.st3{fill:#F3F3F3;}
</style>
<title>Change</title>
<desc>Created with Sketch.</desc>
<g>
	<path class="st0" d="M25.3,10.3l4-4l0.4,0.3c0.9,0.9,1.4,2.1,1.4,3.4c-0.2,1.8-1,3.4-2.3,4.6c-2.1,2.1-5.7,3-8.2,1.7
		c-0.2-0.2-0.6-0.1-0.8,0.1c-0.3,0.3-2.8,2.9-6.7,7.2c-1.5,1.6-3.1,3.3-4.7,5c-0.6,0.6-1.1,1.1-1.5,1.6c-0.5,0.5-0.5,0.5-0.6,0.6
		C5.5,31.6,4.6,32,3.7,32s-1.9-0.4-2.5-1.1C0.4,30.3,0,29.3,0,28.4c0-1,0.4-1.9,1.1-2.6c0.1-0.1,0.1-0.1,0.6-0.6
		c0.5-0.5,1-1,1.6-1.5C5,22.1,6.7,20.5,8.3,19c4.3-4,6.9-6.6,7.2-6.8c0.2-0.2,0.3-0.5,0.1-0.9c-1.1-2.8-0.4-6,1.7-8.1
		C18.5,2,20.1,1.2,21.9,1c1.3,0,2.5,0.5,3.4,1.3l0.4,0.4l-4,4l0.6,3.1L25.3,10.3z"/>
	<path class="st1" d="M25.7,11.4l-4.3-0.8l-0.8-4.3l3.6-3.6C23.6,2.2,22.8,2,22,2c-1.5,0.2-3,0.9-4,2c-1.9,1.8-2.5,4.6-1.5,6.9
		c0.4,0.7,0.3,1.5-0.3,2c-0.2,0.2-2.8,2.7-7.2,6.8c-1.6,1.5-3.3,3.1-5,4.7C3.5,25,2.9,25.5,2.4,26c-0.5,0.5-0.5,0.5-0.6,0.6
		C1.3,27,1,27.7,1,28.4s0.3,1.4,0.8,1.8C2.3,30.7,3,31,3.7,31s1.4-0.3,1.8-0.8c0.1-0.1,0.1-0.1,0.6-0.6c0.5-0.5,1-1,1.5-1.6
		c1.6-1.7,3.2-3.4,4.7-5c4-4.3,6.5-6.9,6.8-7.2c0.5-0.6,1.4-0.7,2-0.3c2,1,5.2,0.3,7-1.5c1.1-1,1.8-2.5,2-4c0-0.8-0.2-1.6-0.7-2.3
		L25.7,11.4z"/>
	<path class="st2" d="M4.2,27.9c-0.2-0.2-0.6-0.2-0.8,0s-0.2,0.6,0,0.8c0.2,0.2,0.6,0.2,0.8,0C4.4,28.5,4.4,28.1,4.2,27.9z
		 M2.6,29.4c-0.6-0.6-0.6-1.6,0-2.3c0.6-0.6,1.6-0.6,2.3,0s0.6,1.6,0,2.3C4.2,30,3.2,30,2.6,29.4z"/>
	<path class="st3" d="M4.2,27.9c-0.2-0.2-0.6-0.2-0.8,0s-0.2,0.6,0,0.8c0.2,0.2,0.6,0.2,0.8,0C4.4,28.5,4.4,28.1,4.2,27.9z"/>
</g>
</svg>
