<?xml version="1.0" encoding="utf-8"?>
<!-- Generator: Adobe Illustrator 24.0.1, SVG Export Plug-In . SVG Version: 6.00 Build 0)  -->
<svg version="1.1" id="Layer_1" xmlns="http://www.w3.org/2000/svg" xmlns:xlink="http://www.w3.org/1999/xlink" x="0px" y="0px"
	 viewBox="0 0 32 32" style="enable-background:new 0 0 32 32;" xml:space="preserve">
<style type="text/css">
	.st0{fill:none;stroke:#DE011A;stroke-linecap:round;stroke-linejoin:round;stroke-miterlimit:10;}
	.st1{fill:none;stroke:#78AFE1;stroke-linecap:round;stroke-linejoin:round;stroke-miterlimit:10;}
	.st2{fill:none;stroke:#999999;stroke-linecap:round;stroke-linejoin:round;stroke-miterlimit:10;}
	.st3{fill:#78AFE1;}
	.st4{fill:none;stroke:#999999;stroke-linecap:round;stroke-linejoin:round;stroke-miterlimit:10;stroke-opacity:0.5;}
</style>
<title>Net</title>
<desc>Created with Sketch.</desc>
<title>Net</title>
<desc>Created with Sketch.</desc>
<title>Net</title>
<desc>Created with Sketch.</desc>
<title>Net</title>
<desc>Created with Sketch.</desc>
<path class="st0" d="M32,1.9"/>
<line class="st1" x1="2.5" y1="6.5" x2="11.5" y2="6.5"/>
<line class="st2" x1="2.5" y1="9.5" x2="11.5" y2="9.5"/>
<line class="st1" x1="2.5" y1="12.5" x2="11.5" y2="12.5"/>
<line class="st2" x1="2.5" y1="15.5" x2="11.5" y2="15.5"/>
<line class="st2" x1="2.5" y1="18.5" x2="11.5" y2="18.5"/>
<line class="st2" x1="2.5" y1="21.5" x2="11.5" y2="21.5"/>
<line class="st1" x1="2.5" y1="24.5" x2="11.5" y2="24.5"/>
<line class="st1" x1="2.5" y1="27.5" x2="11.5" y2="27.5"/>
<polygon class="st3" points="18,15 14,13 14,17 "/>
<polygon class="st3" points="14,19 18,17 18,21 "/>
<line class="st1" x1="20.5" y1="12.5" x2="29.5" y2="12.5"/>
<line class="st1" x1="20.5" y1="15.5" x2="29.5" y2="15.5"/>
<line class="st1" x1="20.5" y1="18.5" x2="29.5" y2="18.5"/>
<line class="st1" x1="20.5" y1="21.5" x2="29.5" y2="21.5"/>
<path class="st4" d="M1.2,1h29.6c0.4,0,0.7,0.3,0.7,0.7v27.6c0,0.4-0.3,0.7-0.7,0.7H1.2c-0.4,0-0.7-0.3-0.7-0.7V1.7
	C0.5,1.3,0.8,1,1.2,1z M0.5,4.8h31 M16,1v3.8"/>
</svg>
