<?xml version="1.0" encoding="UTF-8"?>
<svg width="32px" height="32px" viewBox="0 0 32 32" version="1.1" xmlns="http://www.w3.org/2000/svg" xmlns:xlink="http://www.w3.org/1999/xlink">
    <!-- Generator: Sketch 54.1 (76490) - https://sketchapp.com -->
    <title>03-low-density/general/ColumnMenu-32</title>
    <desc>Created with Sketch.</desc>
    <defs>
        <path d="M6.5,0 L27.5,0 C27.7761424,-5.07265313e-17 28,0.223857625 28,0.5 L28,3.5 C28,3.77614237 27.7761424,4 27.5,4 L6.5,4 C6.22385763,4 6,3.77614237 6,3.5 L6,0.5 C6,0.223857625 6.22385763,5.07265313e-17 6.5,0 Z M0.5,0 L3.5,0 C3.77614237,-5.07265313e-17 4,0.223857625 4,0.5 L4,3.5 C4,3.77614237 3.77614237,4 3.5,4 L0.5,4 C0.223857625,4 3.38176876e-17,3.77614237 0,3.5 L0,0.5 C-3.38176876e-17,0.223857625 0.223857625,5.07265313e-17 0.5,0 Z M6.5,10 L27.5,10 C27.7761424,10 28,10.2238576 28,10.5 L28,13.5 C28,13.7761424 27.7761424,14 27.5,14 L6.5,14 C6.22385763,14 6,13.7761424 6,13.5 L6,10.5 C6,10.2238576 6.22385763,10 6.5,10 Z M0.5,10 L3.5,10 C3.77614237,10 4,10.2238576 4,10.5 L4,13.5 C4,13.7761424 3.77614237,14 3.5,14 L0.5,14 C0.223857625,14 3.38176876e-17,13.7761424 0,13.5 L0,10.5 C-3.38176876e-17,10.2238576 0.223857625,10 0.5,10 Z M6.5,20 L27.5,20 C27.7761424,20 28,20.2238576 28,20.5 L28,23.5 C28,23.7761424 27.7761424,24 27.5,24 L6.5,24 C6.22385763,24 6,23.7761424 6,23.5 L6,20.5 C6,20.2238576 6.22385763,20 6.5,20 Z M0.5,20 L3.5,20 C3.77614237,20 4,20.2238576 4,20.5 L4,23.5 C4,23.7761424 3.77614237,24 3.5,24 L0.5,24 C0.223857625,24 3.38176876e-17,23.7761424 0,23.5 L0,20.5 C-3.38176876e-17,20.2238576 0.223857625,20 0.5,20 Z" id="path-1"></path>
    </defs>
    <g id="03-low-density/general/ColumnMenu-32" stroke="none" stroke-width="1" fill="none" fill-rule="evenodd">
        <g id="icon" transform="translate(2.000000, 4.000000)">
            <use id="Mask" fill="#666666" fill-rule="nonzero" xlink:href="#path-1"></use>
        </g>
    </g>
</svg>
