<svg id="Layer_1" data-name="Layer 1" xmlns="http://www.w3.org/2000/svg" xmlns:xlink="http://www.w3.org/1999/xlink" viewBox="0 0 32 32"><defs><clipPath id="clip-path"><rect x="0.1" y="16.9" width="15" height="15" fill="none"/></clipPath></defs><title>DeleteSpice</title><polygon points="21 32 21 23 30 23 21 32" fill="#666"/><polygon points="21 31 20 31 17 31 7 31 7 1 29 1 29 20 29 22 29 23 30 23 30 0 6 0 6 32 21 32 21 31" fill="#666"/><line x1="23" y1="14.5" x2="13" y2="14.5" fill="none" stroke="#d98448" stroke-miterlimit="10"/><rect x="4.7" y="2.5" width="24.5" height="17" stroke-width="0.5" stroke="#00bfbf" stroke-linecap="round" stroke-linejoin="round" fill="#00bfbf"/><path d="M22.1,17.4c-2,0-3.5-2.9-5.3-6.2-1.3-2.4-3-5.6-4.2-5.6-1.4,0-3.1,3.1-3.8,5.3l-1.2-.3c.4-1,2.2-5.9,5-5.9,2,0,3.5,2.9,5.3,6.2,1.3,2.3,3,5.6,4.2,5.6,1.4,0,2.6-3,3.2-5.3l1.3.1C25.2,17.1,22.6,17.4,22.1,17.4Z" fill="#00bfbf" stroke="#fff" stroke-miterlimit="10" stroke-width="2"/><g id="Artwork_13" data-name="Artwork 13"><g clip-path="url(#clip-path)"><polygon points="12.1 16.9 7.6 21.4 3.1 16.9 0.1 19.9 4.6 24.4 0.1 28.9 3.1 31.9 7.6 27.4 12.1 31.9 15.1 28.9 10.6 24.4 15.1 19.9 12.1 16.9" fill="#f33"/></g></g></svg>