<?xml version="1.0" encoding="UTF-8"?>
<svg width="32px" height="32px" viewBox="0 0 32 32" version="1.1" xmlns="http://www.w3.org/2000/svg" xmlns:xlink="http://www.w3.org/1999/xlink">
    <!-- Generator: Sketch 54.1 (76490) - https://sketchapp.com -->
    <title>03-low-density/filter-query/trash-32</title>
    <desc>Created with Sketch.</desc>
    <defs>
        <path d="M15.4,3.3 L13.2,3.3 L13.2,1.243 C13.2315773,0.598750076 12.7433083,0.047006106 12.1,0 L4.4,0 C3.76736177,0.0681058105 3.29066345,0.606774911 3.3,1.243 L3.3,3.3 L1.1,3.3 C0.492486775,3.3 0,3.79248678 0,4.4 L0,6.6 C0,7.20751322 0.492486775,7.7 1.1,7.7 L1.1,20.9 C1.1,21.5075132 1.59248678,22 2.2,22 L14.3,22 C14.9075132,22 15.4,21.5075132 15.4,20.9 L15.4,7.7 C16.0075132,7.7 16.5,7.20751322 16.5,6.6 L16.5,4.4 C16.5,3.79248678 16.0075132,3.3 15.4,3.3 Z M12.1,1.1 L12.1,3.3 L11,3.3 L11,2.2 L5.5,2.2 L5.5,3.3 L4.4,3.3 L4.4,1.1 L12.1,1.1 Z M14.3,20.9 L2.2,20.9 L2.2,7.7 L14.3,7.7 L14.3,20.9 Z M15.4,6.6 L1.1,6.6 L1.1,4.4 L15.4,4.4 L15.4,6.6 Z" id="path-1"></path>
    </defs>
    <g id="03-low-density/filter-query/trash-32" stroke="none" stroke-width="1" fill="none" fill-rule="evenodd">
        <g id="icon" transform="translate(8.000000, 5.000000)">
            <mask id="mask-2" fill="white">
                <use xlink:href="#path-1"></use>
            </mask>
            <use id="Mask" fill="#2C3E53" fill-rule="nonzero" xlink:href="#path-1"></use>
        </g>
    </g>
</svg>