<?xml version="1.0" encoding="utf-8"?>
<!-- Generator: Adobe Illustrator 24.0.1, SVG Export Plug-In . SVG Version: 6.00 Build 0)  -->
<svg version="1.1" id="Layer_1" xmlns="http://www.w3.org/2000/svg" xmlns:xlink="http://www.w3.org/1999/xlink" x="0px" y="0px"
	 viewBox="0 0 32 32" style="enable-background:new 0 0 32 32;" xml:space="preserve">
<style type="text/css">
	.st0{fill:#525252;}
</style>
<title>Delete</title>
<desc>Created with Sketch.</desc>
<g>
	<rect x="10" y="13" class="st0" width="2" height="12"/>
	<rect x="15" y="13" class="st0" width="2" height="12"/>
	<rect x="20" y="13" class="st0" width="2" height="12"/>
	<path class="st0" d="M25,5h-3l-1.6-3.1C20.2,1.4,19.6,1,19,1h-6c-0.6,0-1.2,0.4-1.4,0.9L10,5H7C5.3,5,4,6.3,4,8v1h2v20
		c0,1.1,0.9,2,2,2h16c1.1,0,2-0.9,2-2V9h2V8C28,6.3,26.7,5,25,5z M13,3h6c0.6,0,1,2,1,2h-8C12,5,12.4,3,13,3z M25,29
		c0,0.6-0.4,1-1,1H8c-0.6,0-1-0.4-1-1V9h18V29z M5,8c0-1.1,0.9-2,2-2h18c1.1,0,2,0.9,2,2H5z"/>
</g>
</svg>
