<svg id="Layer_1" data-name="Layer 1" xmlns="http://www.w3.org/2000/svg" xmlns:xlink="http://www.w3.org/1999/xlink" viewBox="0 0 32 32"><defs><clipPath id="clip-path"><rect x="23" y="4" width="9" height="9" fill="none"/></clipPath><clipPath id="clip-path-3"><rect x="23" y="19" width="9" height="9" fill="none"/></clipPath></defs><title>DifferentialPairRoute</title><g id="DiffPairs"><g id="Line-4-Copy"><polygon points="18.85 15 7.07 15 4.57 10 3 10 3 7 6.43 7 8.93 12 17.15 12 20.15 7 23.5 7 23.5 10 21.85 10 18.85 15" fill="#30a0fb"/></g><g id="Line-4-Copy-2"><polygon points="23.5 25 20.15 25 17.15 20 8.93 20 6.43 25 3 25 3 22 4.57 22 7.07 17 18.85 17 21.85 22 23.5 22 23.5 25" fill="#30a0fb"/></g><g id="Rectangle"><rect y="4.5" width="3" height="8" fill="#ff4164"/></g><g id="Rectangle-Copy"><rect y="19.5" width="3" height="8" fill="#ff4164"/></g></g><g id="Artwork_10" data-name="Artwork 10"><g clip-path="url(#clip-path)"><g clip-path="url(#clip-path)"><path d="M27.5,5A3.54,3.54,0,0,1,31,8.5a3.5,3.5,0,0,1-7,0A3.54,3.54,0,0,1,27.5,5m0-1A4.5,4.5,0,1,0,32,8.5,4.48,4.48,0,0,0,27.5,4" fill="#666"/></g></g></g><g id="Artwork_10-2" data-name="Artwork 10"><g clip-path="url(#clip-path-3)"><g clip-path="url(#clip-path-3)"><path d="M27.5,20A3.5,3.5,0,1,1,24,23.5,3.54,3.54,0,0,1,27.5,20m0-1A4.5,4.5,0,1,0,32,23.5,4.48,4.48,0,0,0,27.5,19" fill="#666"/></g></g></g></svg>