<?xml version="1.0" encoding="UTF-8"?>
<svg width="32px" height="32px" viewBox="0 0 32 32" version="1.1" xmlns="http://www.w3.org/2000/svg" xmlns:xlink="http://www.w3.org/1999/xlink">
    <!-- Generator: Sketch 54.1 (76490) - https://sketchapp.com -->
    <title>03-low-density/filter-query/edit-32</title>
    <desc>Created with Sketch.</desc>
    <defs>
        <path d="M19.9733333,4.21666667 L16.6611111,1.01444444 C16.1228999,0.481622525 15.255989,0.481622525 14.7177778,1.01444444 L2.09222222,14.1044444 L0.344444444,19.5555556 C0.246666667,19.8244444 -0.0344444444,20.7777778 0.503333333,21.1933333 C0.676519257,21.3416371 0.898758974,21.4200746 1.12666667,21.4133333 C1.44509018,21.3960279 1.75495058,21.3039072 2.03111111,21.1444444 L7.37222222,19.2622222 L19.9977778,6.11111111 C20.4923114,5.57268765 20.4815948,4.74215083 19.9733333,4.21666667 L19.9733333,4.21666667 Z M6.7,18.1622222 L1.59111111,19.9588889 L1.50555556,19.9588889 L1.44444444,19.9588889 L1.44444444,19.8488889 L3.11888889,14.6911111 L12.75,4.88888889 L16.2211111,8.31111111 L6.7,18.1622222 Z M19.1177778,5.31666667 L17.0766667,7.43111111 L13.6055556,3.96 L15.5977778,1.89444444 C15.6592525,1.8354654 15.7563031,1.8354654 15.8177778,1.89444444 L19.1177778,5.08444444 C19.1499447,5.11449216 19.1682052,5.15653764 19.1682052,5.20055556 C19.1682052,5.24457348 19.1499447,5.28661895 19.1177778,5.31666667 L19.1177778,5.31666667 Z" id="path-1"></path>
    </defs>
    <g id="03-low-density/filter-query/edit-32" stroke="none" stroke-width="1" fill="none" fill-rule="evenodd">
        <g id="icon" transform="translate(6.000000, 5.000000)">
            <mask id="mask-2" fill="white">
                <use xlink:href="#path-1"></use>
            </mask>
            <use id="Mask" fill="#2C3E53" fill-rule="nonzero" xlink:href="#path-1"></use>
        </g>
    </g>
</svg>