<svg id="Layer_1" data-name="Layer 1" xmlns="http://www.w3.org/2000/svg" viewBox="0 0 32 32"><title>Prj</title><polygon points="19 32 19 23 28 23 19 32" fill="#666"/><polygon points="19 31 18 31 15 31 5 31 5 1 27 1 27 20 27 22 27 23 28 23 28 0 4 0 4 32 19 32 19 31" fill="#666"/><rect x="2.08" y="1.99" width="25" height="17" stroke-width="0.75" stroke="#525252" stroke-linecap="round" stroke-linejoin="round" fill="#525252"/><line x1="19.83" y1="14.6" x2="11.83" y2="14.6" fill="none" stroke="#fff" stroke-miterlimit="10" stroke-width="3"/><polygon points="20.23 6.4 11.1 6.4 5.03 6.4 5.03 16.9 20.23 16.9 20.23 13.65 20.23 13.65 20.23 6.4" fill="none" stroke="#fff" stroke-linecap="round" stroke-linejoin="round" stroke-width="2"/><polygon points="25.13 3.65 14.23 3.65 11.1 6.4 20.23 6.4 20.23 13.65 25.13 13.65 25.13 3.65" fill="none" stroke="#fff" stroke-linecap="round" stroke-linejoin="round" stroke-width="2"/></svg>