<svg id="Layer_1" data-name="Layer 1" xmlns="http://www.w3.org/2000/svg" xmlns:xlink="http://www.w3.org/1999/xlink" viewBox="0 0 32 32"><defs><clipPath id="clip-path"><rect x="4.75" y="0.5" width="9" height="9" fill="none"/></clipPath><clipPath id="clip-path-4"><rect x="22.75" y="18.5" width="9" height="9" fill="none"/></clipPath></defs><title>FanoutDevice</title><path d="M18.45,19.4l2-2,3.2,3.2a3.76,3.76,0,0,1,1.4-1.4L21.85,16l2.2-2.2-1.9-1.9-5.6,5.6Z" fill="#008de9"/><path d="M18.45,8.2l-2,2L13.25,7a3.76,3.76,0,0,1-1.4,1.4l3.2,3.2-2.2,2.2,1.9,1.9,5.6-5.6Z" fill="#008de9"/><polygon points="0.25 23.5 13.05 15 9.25 22 17.25 23.5 4.45 32 8.25 25 0.25 23.5" fill="#666"/><g id="Artwork_9" data-name="Artwork 9"><g clip-path="url(#clip-path)"><g clip-path="url(#clip-path)"><circle cx="9.25" cy="5" r="3.5" fill="none" stroke="#f0f0f0" stroke-miterlimit="10"/></g><g clip-path="url(#clip-path)"><path d="M9.25,1.5a3.5,3.5,0,0,1,0,7A3.42,3.42,0,0,1,5.75,5a3.48,3.48,0,0,1,3.5-3.5m0-1A4.5,4.5,0,1,0,13.75,5,4.48,4.48,0,0,0,9.25.5" fill="#666"/></g></g></g><g id="Artwork_9-2" data-name="Artwork 9"><g clip-path="url(#clip-path-4)"><g clip-path="url(#clip-path-4)"><circle cx="27.25" cy="23" r="3.5" fill="none" stroke="#f0f0f0" stroke-miterlimit="10"/></g><g clip-path="url(#clip-path-4)"><path d="M27.25,19.5a3.5,3.5,0,0,1,0,7,3.42,3.42,0,0,1-3.5-3.5,3.48,3.48,0,0,1,3.5-3.5m0-1a4.5,4.5,0,1,0,4.5,4.5,4.48,4.48,0,0,0-4.5-4.5" fill="#666"/></g></g></g></svg>