<svg id="Layer_1" data-name="Layer 1" xmlns="http://www.w3.org/2000/svg" xmlns:xlink="http://www.w3.org/1999/xlink" viewBox="0 0 32 32"><defs><clipPath id="clip-path"><rect x="13.5" y="14.5" width="9" height="9" fill="none"/></clipPath><clipPath id="clip-path-4"><rect x="6.5" y="3.5" width="9" height="9" fill="none"/></clipPath></defs><title>FanoutIn</title><g id="FanoutIn"><path id="Line-3" d="M26.83,19h-4" fill="none" stroke="#008de9" stroke-linecap="square" stroke-width="3"/><path id="Line-4" d="M26.83,8h-11" fill="none" stroke="#008de9" stroke-linecap="square" stroke-width="3"/><path id="Line" d="M28.33,1.49v26" fill="none" stroke="#666" stroke-linecap="square" stroke-width="3"/><path id="Line-2" d="M28.33,29.49h-26" fill="none" stroke="#666" stroke-linecap="square" stroke-width="3"/></g><g id="Artwork_9" data-name="Artwork 9"><g clip-path="url(#clip-path)"><g clip-path="url(#clip-path)"><circle cx="18" cy="19" r="3.5" fill="none" stroke="#f0f0f0" stroke-miterlimit="10"/></g><g clip-path="url(#clip-path)"><path d="M18,15.5a3.5,3.5,0,0,1,0,7A3.42,3.42,0,0,1,14.5,19,3.48,3.48,0,0,1,18,15.5m0-1A4.5,4.5,0,1,0,22.5,19,4.48,4.48,0,0,0,18,14.5" fill="#666"/></g></g></g><g id="Artwork_9-2" data-name="Artwork 9"><g clip-path="url(#clip-path-4)"><g clip-path="url(#clip-path-4)"><circle cx="11" cy="8" r="3.5" fill="none" stroke="#f0f0f0" stroke-miterlimit="10"/></g><g clip-path="url(#clip-path-4)"><path d="M11,4.5a3.5,3.5,0,0,1,0,7A3.42,3.42,0,0,1,7.5,8,3.48,3.48,0,0,1,11,4.5m0-1A4.5,4.5,0,1,0,15.5,8,4.48,4.48,0,0,0,11,3.5" fill="#666"/></g></g></g></svg>