<svg id="Layer_1" data-name="Layer 1" xmlns="http://www.w3.org/2000/svg" xmlns:xlink="http://www.w3.org/1999/xlink" viewBox="0 0 32 32"><defs><clipPath id="clip-path"><rect x="22.4" y="21.12" width="9" height="9" fill="none"/></clipPath><clipPath id="clip-path-4"><rect x="0.9" y="0.62" width="9" height="9" fill="none"/></clipPath></defs><title>FanoutSignal</title><path d="M14.26,2.63,12.13,4.76l3.41,3.4L17.66,6" fill="#999"/><path d="M24.46,12.84,22.34,15l3.4,3.41,2.13-2.13" fill="#999"/><path d="M19.36,7.74,17.24,9.86l3.4,3.4,2.12-2.12" fill="#999"/><g id="Group-2-Copy"><path id="Shape" d="M8.9,6.12h4.6a3,3,0,0,1-.2-1,3.55,3.55,0,0,1,.2-1H8.9a3,3,0,0,1,.2,1A3,3,0,0,1,8.9,6.12Z" fill="#30a0fb"/></g><polygon id="Shape-2" data-name="Shape" points="-0.1 24.13 11.9 16.13 8.4 22.73 15.9 24.13 3.9 32.13 7.4 25.52 -0.1 24.13" fill="#666"/><g id="Group-2-Copy-2" data-name="Group-2-Copy"><path id="Shape-3" data-name="Shape" d="M25.9,17.52V22a2.6,2.6,0,0,1,2,0v-4.5a2.6,2.6,0,0,1-2,0Z" fill="#30a0fb"/></g><path d="M11.9,6.12v3h3v-8h-3v3" fill="#30a0fb"/><path d="M27.9,19.12h3v-3h-8v3h3" fill="#30a0fb"/><g id="Artwork_9" data-name="Artwork 9"><g clip-path="url(#clip-path)"><g clip-path="url(#clip-path)"><path d="M26.9,29.62a4,4,0,1,1,4-4A4,4,0,0,1,26.9,29.62Zm0-7a3,3,0,1,0,3,3A3,3,0,0,0,26.9,22.62Z" fill="#f0f0f0"/></g><g clip-path="url(#clip-path)"><path d="M26.9,22.12a3.5,3.5,0,0,1,0,7,3.42,3.42,0,0,1-3.5-3.5,3.48,3.48,0,0,1,3.5-3.5m0-1a4.5,4.5,0,1,0,4.5,4.5,4.48,4.48,0,0,0-4.5-4.5" fill="#666"/></g></g></g><g id="Artwork_9-2" data-name="Artwork 9"><g clip-path="url(#clip-path-4)"><g clip-path="url(#clip-path-4)"><path d="M5.4,9.12a4,4,0,1,1,4-4A4,4,0,0,1,5.4,9.12Zm0-7a3,3,0,1,0,3,3A3,3,0,0,0,5.4,2.12Z" fill="#f0f0f0"/></g><g clip-path="url(#clip-path-4)"><path d="M5.4,1.62a3.5,3.5,0,0,1,0,7,3.42,3.42,0,0,1-3.5-3.5,3.48,3.48,0,0,1,3.5-3.5m0-1a4.5,4.5,0,1,0,4.5,4.5A4.48,4.48,0,0,0,5.4.62" fill="#666"/></g></g></g></svg>