<svg id="Layer_1" data-name="Layer 1" xmlns="http://www.w3.org/2000/svg" xmlns:xlink="http://www.w3.org/1999/xlink" viewBox="0 0 32 32"><defs><clipPath id="clip-path"><rect x="14.5" y="16" width="9" height="9" fill="none"/></clipPath><clipPath id="clip-path-4"><rect x="21.5" y="5.5" width="9" height="9" fill="none"/></clipPath></defs><title>FanoutOut</title><path id="Line-3" d="M13.63,20.87h-4" fill="none" stroke="#008de9" stroke-linecap="square" stroke-width="3"/><path id="Line-4" d="M20.63,9.87h-11" fill="none" stroke="#008de9" stroke-linecap="square" stroke-width="3"/><path id="Line" d="M8.13,3.37v26" fill="none" stroke="#666" stroke-linecap="square" stroke-width="3"/><path id="Line-2" d="M8.13,29.37h-6" fill="none" stroke="#666" stroke-linecap="square" stroke-width="3"/><g id="Artwork_9" data-name="Artwork 9"><g clip-path="url(#clip-path)"><g clip-path="url(#clip-path)"><path d="M19,24.5a4,4,0,1,1,4-4A4,4,0,0,1,19,24.5Zm0-7a3,3,0,1,0,3,3A3,3,0,0,0,19,17.5Z" fill="#f0f0f0"/></g><g clip-path="url(#clip-path)"><path d="M19,17a3.5,3.5,0,0,1,0,7,3.42,3.42,0,0,1-3.5-3.5A3.48,3.48,0,0,1,19,17m0-1a4.5,4.5,0,1,0,4.5,4.5A4.48,4.48,0,0,0,19,16" fill="#666"/></g></g></g><g id="Artwork_9-2" data-name="Artwork 9"><g clip-path="url(#clip-path-4)"><g clip-path="url(#clip-path-4)"><path d="M26,14a4,4,0,1,1,4-4A4,4,0,0,1,26,14Zm0-7a3,3,0,1,0,3,3A3,3,0,0,0,26,7Z" fill="#f0f0f0"/></g><g clip-path="url(#clip-path-4)"><path d="M26,6.5a3.5,3.5,0,0,1,0,7A3.42,3.42,0,0,1,22.5,10,3.48,3.48,0,0,1,26,6.5m0-1A4.5,4.5,0,1,0,30.5,10,4.48,4.48,0,0,0,26,5.5" fill="#666"/></g></g></g></svg>