<svg id="Layer_1" data-name="Layer 1" xmlns="http://www.w3.org/2000/svg" xmlns:xlink="http://www.w3.org/1999/xlink" viewBox="0 0 32 32"><defs><clipPath id="clip-path"><rect x="20.5" y="7.5" width="9" height="9" fill="none"/></clipPath><clipPath id="clip-path-4"><rect x="14.5" y="13" width="9" height="9" fill="none"/></clipPath></defs><title>FanoutAllowViolations</title><path id="Line-3" d="M14.25,17.65h-5" fill="none" stroke="#008de9" stroke-linecap="square" stroke-width="3"/><path id="Line-4" d="M19.75,12.65H9.25" fill="none" stroke="#008de9" stroke-linecap="square" stroke-width="3"/><path id="Line" d="M7.75,3.15v26" fill="none" stroke="#666" stroke-linecap="square" stroke-width="3"/><path id="Line-2" d="M7.75,29.15h-6" fill="none" stroke="#666" stroke-linecap="square" stroke-width="3"/><g id="Artwork_9" data-name="Artwork 9"><g clip-path="url(#clip-path)"><g clip-path="url(#clip-path)"><circle cx="25" cy="12" r="3.5" fill="none" stroke="#f0f0f0" stroke-miterlimit="10"/></g><g clip-path="url(#clip-path)"><path d="M25,8.5a3.5,3.5,0,0,1,0,7A3.42,3.42,0,0,1,21.5,12,3.48,3.48,0,0,1,25,8.5m0-1A4.5,4.5,0,1,0,29.5,12,4.48,4.48,0,0,0,25,7.5" fill="#666"/></g></g></g><g id="Artwork_9-2" data-name="Artwork 9"><g clip-path="url(#clip-path-4)"><g clip-path="url(#clip-path-4)"><circle cx="19" cy="17.5" r="3.5" fill="none" stroke="#f0f0f0" stroke-miterlimit="10"/></g><g clip-path="url(#clip-path-4)"><path d="M19,14a3.5,3.5,0,0,1,0,7,3.42,3.42,0,0,1-3.5-3.5A3.48,3.48,0,0,1,19,14m0-1a4.5,4.5,0,1,0,4.5,4.5A4.48,4.48,0,0,0,19,13" fill="#666"/></g></g></g><rect id="Rectangle" x="13.25" y="6.65" width="17" height="17" fill="none" stroke="#e52d2d"/><path id="Line-5" d="M13.25,6.65l17,17" fill="none" stroke="#e52d2d" stroke-linecap="round"/><path id="Line-5-Copy" d="M30.25,6.65l-17,17" fill="none" stroke="#e52d2d" stroke-linecap="round"/></svg>