<svg id="Layer_1" data-name="Layer 1" xmlns="http://www.w3.org/2000/svg" xmlns:xlink="http://www.w3.org/1999/xlink" viewBox="0 0 32 32"><defs><clipPath id="clip-path"><rect x="23" y="6" width="9" height="9" fill="none"/></clipPath><clipPath id="clip-path-4"><rect y="16" width="9" height="9" fill="none"/></clipPath></defs><title>FanoutAlternate</title><g id="FanoutAlternate"><path id="Line-3" d="M15.5,20.5h-6" fill="none" stroke="#008de9" stroke-linecap="square" stroke-width="3"/><path id="Line-4" d="M22.5,10.5h-5" fill="none" stroke="#008de9" stroke-linecap="square" stroke-width="3"/><path id="Line" d="M16.5,3.5v26" fill="none" stroke="#666" stroke-linecap="square" stroke-width="3"/><path id="Line-2" d="M16.5,29.5H1.5" fill="none" stroke="#666" stroke-linecap="square" stroke-width="3"/></g><g id="Artwork_9" data-name="Artwork 9"><g clip-path="url(#clip-path)"><g clip-path="url(#clip-path)"><circle cx="27.5" cy="10.5" r="3.5" fill="none" stroke="#f0f0f0" stroke-miterlimit="10"/></g><g clip-path="url(#clip-path)"><path d="M27.5,7a3.5,3.5,0,0,1,0,7A3.42,3.42,0,0,1,24,10.5,3.48,3.48,0,0,1,27.5,7m0-1A4.5,4.5,0,1,0,32,10.5,4.48,4.48,0,0,0,27.5,6" fill="#666"/></g></g></g><g id="Artwork_9-2" data-name="Artwork 9"><g clip-path="url(#clip-path-4)"><g clip-path="url(#clip-path-4)"><circle cx="4.5" cy="20.5" r="3.5" fill="none" stroke="#f0f0f0" stroke-miterlimit="10"/></g><g clip-path="url(#clip-path-4)"><path d="M4.5,17a3.5,3.5,0,0,1,0,7A3.42,3.42,0,0,1,1,20.5,3.48,3.48,0,0,1,4.5,17m0-1A4.5,4.5,0,1,0,9,20.5,4.48,4.48,0,0,0,4.5,16" fill="#666"/></g></g></g></svg>