<?xml version="1.0" encoding="UTF-8"?>
<svg width="32px" height="32px" viewBox="0 0 32 32" version="1.1" xmlns="http://www.w3.org/2000/svg" xmlns:xlink="http://www.w3.org/1999/xlink">
    <!-- Generator: Sketch 53.2 (72643) - https://sketchapp.com -->
    <title>03-low-density/general/Filter-32</title>
    <desc>Created with Sketch.</desc>
    <g id="03-low-density/general/Filter-32" stroke="none" stroke-width="1" fill="none" fill-rule="evenodd">
        <path d="M12.4827853,16.588627 L0.924148689,9.03889326 L0.936152906,9.03894598 C0.341121811,8.65534008 5.76372054e-07,8.01138669 5.76372102e-07,7.07632518 C5.76372102e-07,7.07518639 -7.20464927e-07,6.47718012 5.76371879e-07,6.47604133 L0.00737541471,4.70976178 C0.0876033003,4.2071473 0.285366562,3.8111093 0.600665201,3.52164778 C0.91596384,3.23218627 1.31240522,3.05830367 1.78998934,3 L29.5103262,3 C30.6148957,3 31.4827853,3.82024999 31.4827853,4.92481949 L31.4827853,6.83847324 C31.4827853,7.81212032 31.09976,8.80956906 30.208615,9.24696001 L18.9827853,16.5865363 L18.9827853,26.4760413 C18.9827853,27.5806108 18.0873548,28.4760413 16.9827853,28.4760413 L14.4827853,28.4760413 C13.3782158,28.4760413 12.4827853,27.5806108 12.4827853,26.4760413 L12.4827853,16.588627 Z" id="Combined-Shape" fill="#666666"></path>
    </g>
</svg>