<svg id="Layer_1" data-name="Layer 1" xmlns="http://www.w3.org/2000/svg" viewBox="0 0 32 32"><title>Ipc</title><polygon points="19.75 31.49 19.75 22.49 28.75 22.49 19.75 31.49" fill="#666"/><polygon points="19.75 30.49 18.75 30.49 15.75 30.49 5.75 30.49 5.75 0.49 27.75 0.49 27.75 19.49 27.75 21.49 27.75 22.49 28.75 22.49 28.75 -0.51 4.75 -0.51 4.75 31.49 19.75 31.49 19.75 30.49" fill="#666"/><line x1="21.75" y1="13.99" x2="11.75" y2="13.99" fill="none" stroke="#d98448" stroke-miterlimit="10"/><rect x="3.25" y="1.99" width="25" height="17" stroke-width="0.5" stroke="#24b252" stroke-linecap="round" stroke-linejoin="round" fill="#24b252"/><path d="M14.19,6.05V3.68h-6V5.62a6.15,6.15,0,0,0,1.49,1v4h.37L11.2,17.9l1.14-7.22h.35V6.91h.6C13.89,6.81,14.33,6.48,14.19,6.05Z" fill="#fff"/><path d="M22.22,3.68V6.22l.25.28L19.38,10l.24.28L14.3,17.76v.14L21,11.71l.12.14,1.73-2h0V9.74L24.7,7.62h1.73c.5-.28.87-.7.75-1.12V3.68Z" fill="#fff"/></svg>