<?xml version="1.0" encoding="utf-8"?>
<!-- Generator: Adobe Illustrator 24.0.1, SVG Export Plug-In . SVG Version: 6.00 Build 0)  -->
<svg version="1.1" id="Layer_1" xmlns="http://www.w3.org/2000/svg" xmlns:xlink="http://www.w3.org/1999/xlink" x="0px" y="0px"
	 viewBox="0 0 32 32" style="enable-background:new 0 0 32 32;" xml:space="preserve">
<style type="text/css">
	.st0{fill:#666666;}
	.st1{fill:#999999;}
	.st2{fill:#F3F3F3;}
	.st3{fill:#62CFD9;}
	.st4{opacity:0.1;fill:none;stroke:#000000;stroke-width:0.999;stroke-miterlimit:10;enable-background:new    ;}
</style>
<title>Lbr</title>
<desc>Created with Sketch.</desc>
<g>
	<path class="st0" d="M4,4v24h4V0C5.8,0,4,1.8,4,4z"/>
	<rect x="8" class="st1" width="20" height="25"/>
	<rect x="8" y="31" class="st0" width="20" height="1"/>
	<circle class="st0" cx="8" cy="28" r="4"/>
	<rect x="8" y="24" class="st0" width="20" height="1"/>
	<path class="st0" d="M23.3,30v-4H28v-1H8c-1.7,0-3,1.3-3,3s1.3,3,3,3h20v-1H23.3z"/>
	<path class="st2" d="M27,28c0-1.1,0.4-2,1-2H8c-1.1,0-2,0.9-2,2s0.9,2,2,2h20C27.4,30,27,29.1,27,28z"/>
</g>
<rect x="8" class="st3" width="20" height="24"/>
<rect x="8.5" y="0.5" class="st4" width="19" height="23"/>
</svg>
