<?xml version="1.0" encoding="utf-8"?>
<!-- Generator: Adobe Illustrator 24.0.1, SVG Export Plug-In . SVG Version: 6.00 Build 0)  -->
<svg version="1.1" id="Layer_1" xmlns="http://www.w3.org/2000/svg" xmlns:xlink="http://www.w3.org/1999/xlink" x="0px" y="0px"
	 viewBox="0 0 32 32" style="enable-background:new 0 0 32 32;" xml:space="preserve">
<style type="text/css">
	.st0{fill-rule:evenodd;clip-rule:evenodd;fill:#D8D8D8;}
	.st1{fill-rule:evenodd;clip-rule:evenodd;fill:#F3F3F3;}
	.st2{fill:none;stroke:#333333;}
	.st3{fill:#333333;}
</style>
<title>Lock</title>
<desc>Created with Sketch.</desc>
<g>
	<path class="st0" d="M23,13h4v18H5V13h4V8c0-2,0.8-3.7,2.1-5c1.3-1.2,3-2,4.9-2s3.6,0.8,4.9,2C22.2,4.3,23,6,23,8V13z M19,13V8
		c0-1.7-1.3-3-3-3s-3,1.3-3,3v5H19z"/>
	<g>
		<path id="path-1" class="st1" d="M23,13V8c0-2-0.8-3.7-2.1-5c-1.3-1.2-3-2-4.9-2s-3.6,0.8-4.9,2C9.8,4.3,9,6,9,8v5H5v18h22V13H23z
			 M19,13h-6V8c0-1.7,1.3-3,3-3s3,1.3,3,3V13z"/>
		<path class="st2" d="M5.5,13.5v17h21v-17h-4V8c0-1.8-0.7-3.4-1.9-4.6c-1.3-1.2-2.9-1.9-4.6-1.9s-3.3,0.7-4.5,1.9
			c-1.3,1.3-2,2.9-2,4.6v5.5H5.5z M19.5,13.5h-7V8c0-2,1.5-3.5,3.5-3.5S19.5,6,19.5,8V13.5z"/>
	</g>
	<rect x="15" y="19" class="st3" width="2" height="6"/>
</g>
</svg>
