<?xml version="1.0" encoding="utf-8"?>
<!-- Generator: Adobe Illustrator 24.0.1, SVG Export Plug-In . SVG Version: 6.00 Build 0)  -->
<svg version="1.1" id="Layer_1" xmlns="http://www.w3.org/2000/svg" xmlns:xlink="http://www.w3.org/1999/xlink" x="0px" y="0px"
	 viewBox="0 0 32 32" style="enable-background:new 0 0 32 32;" xml:space="preserve">
<style type="text/css">
	.st0{fill:#666666;stroke:#666666;}
	.st1{fill:#F3F3F3;stroke:#333333;}
	.st2{fill:#333333;}
</style>
<path class="st0" d="M1.5,13v17h21.3V13h-4.3V7.3c0-1.9-0.7-3.5-2-4.7C14.4,0.7,11.6,0,8.8,1.2C8.4,1.3,8,1.6,7.6,1.9
	C5.7,3.3,4.7,5.2,4.7,7.3V13H1.5z"/>
<title>lock</title>
<desc>Created with Sketch.</desc>
<title>lock</title>
<desc>Created with Sketch.</desc>
<g>
	<g transform="translate(5.000000, 1.000000)">
		<path class="st1" d="M4.3,12.9v17h21v-17h-4V7.4c0-1.8-0.7-3.4-1.9-4.6c-1.3-1.2-2.9-1.9-4.6-1.9s-3.3,0.7-4.5,1.9
			c-1.3,1.3-2,2.9-2,4.6v5.5H4.3z M18.3,12.9h-7V7.4c0-2,1.5-3.5,3.5-3.5s3.5,1.5,3.5,3.5V12.9z"/>
		<rect x="13.8" y="17.9" class="st2" width="2" height="6"/>
	</g>
</g>
</svg>
