<?xml version="1.0" encoding="utf-8"?>
<!-- Generator: Adobe Illustrator 24.0.1, SVG Export Plug-In . SVG Version: 6.00 Build 0)  -->
<svg version="1.1" id="Layer_1" xmlns="http://www.w3.org/2000/svg" xmlns:xlink="http://www.w3.org/1999/xlink" x="0px" y="0px"
	 viewBox="0 0 32 32" style="enable-background:new 0 0 32 32;" xml:space="preserve">
<style type="text/css">
	.st0{enable-background:new    ;}
	.st1{fill:#6E6E6E;}
	.st2{fill:#898989;}
	.st3{fill:#8A8A8A;}
	.st4{opacity:0.1;}
	.st5{fill:#F3F3F3;stroke:#333333;stroke-width:0.8;}
	.st6{fill:#333333;}
</style>
<g>
	<g>
		<g class="st0">
			<g>
				<polygon class="st1" points="16.3,25.7 0.7,19.7 0.7,17.8 16.3,23.9 				"/>
			</g>
			<g>
				<polygon class="st2" points="30.4,20.5 16.3,25.7 16.3,23.9 30.5,18.6 				"/>
			</g>
			<g>
				<polygon class="st3" points="30.5,18.6 16.3,23.9 0.7,17.8 14.8,12.6 				"/>
			</g>
		</g>
	</g>
</g>
<title>lock-layer</title>
<desc>Created with Sketch.</desc>
<g class="st4">
	<polygon points="9.8,14.9 15,13 21.8,15.7 17,17.6 	"/>
	<path d="M15,13.5l5.7,2.2L17,17.2l-6-2.3L15,13.5 M15,12.6l-6.3,2.3L17,18l5.9-2.3L15,12.6L15,12.6z"/>
</g>
<g>
	<g>
		<g class="st0">
			<g>
				<polygon class="st1" points="16.1,16.3 0.5,10.2 0.5,8.4 16.1,14.4 				"/>
			</g>
			<g>
				<polygon class="st2" points="30.3,11 16.1,16.3 16.1,14.4 30.3,9.2 				"/>
			</g>
			<g>
				<polygon class="st3" points="30.3,9.2 16.1,14.4 0.5,8.4 14.6,3.2 				"/>
			</g>
		</g>
	</g>
</g>
<g>
	<g transform="translate(12.000000, 6.000000)">
		<path class="st5" d="M1.3,11.2v13.4h17V11.2H15V6.8c0-1.4-0.6-2.7-1.6-3.7c-1-0.9-2.3-1.5-3.7-1.5S7.1,2.2,6.1,3.2
			c-1,1-1.6,2.3-1.6,3.7v4.3H1.3z M12.6,11.2H6.9V6.8c0-1.6,1.2-2.8,2.8-2.8s2.8,1.2,2.8,2.8V11.2z"/>
		<rect x="9" y="15.5" class="st6" width="1.6" height="4.7"/>
	</g>
</g>
</svg>
