<svg id="Layer_1" data-name="Layer 1" xmlns="http://www.w3.org/2000/svg" xmlns:xlink="http://www.w3.org/1999/xlink" viewBox="0 0 32 32"><defs><clipPath id="clip-path"><rect x="20" y="0.5" width="11" height="11" fill="none"/></clipPath><clipPath id="clip-path-2"><rect x="23" y="23" width="9" height="9" fill="none"/></clipPath><clipPath id="clip-path-5"><rect width="9" height="9" fill="none"/></clipPath></defs><title>LoopRemove</title><rect x="11" y="3" width="3" height="3" fill="#30a0fb"/><rect x="16" y="3" width="3" height="3" fill="#30a0fb"/><rect x="26" y="18" width="3" height="3" fill="#30a0fb"/><rect x="26" y="13" width="3" height="3" fill="#30a0fb"/><path d="M23.3,26H14.6L6,17.4V8.7a3.9,3.9,0,0,1-3,0v9.9L13.3,29h10a3.9,3.9,0,0,1,0-3Z" fill="#30a0fb"/><g id="Artwork_13" data-name="Artwork 13"><g clip-path="url(#clip-path)"><polygon points="28.8 0.5 25.5 3.8 22.2 0.5 20 2.7 23.3 6 20 9.3 22.2 11.5 25.5 8.2 28.8 11.5 31 9.3 27.7 6 31 2.7 28.8 0.5" fill="#f33"/></g></g><g id="Artwork_9" data-name="Artwork 9"><g clip-path="url(#clip-path-2)"><g clip-path="url(#clip-path-2)"><circle cx="27.5" cy="27.5" r="3.5" fill="none" stroke="#f0f0f0" stroke-miterlimit="10" stroke-width="1"/></g><g clip-path="url(#clip-path-2)"><path d="M27.5,24a3.5,3.5,0,0,1,0,7A3.42,3.42,0,0,1,24,27.5,3.48,3.48,0,0,1,27.5,24m0-1A4.5,4.5,0,1,0,32,27.5,4.48,4.48,0,0,0,27.5,23" fill="#666"/></g></g></g><g id="Artwork_9-2" data-name="Artwork 9"><g clip-path="url(#clip-path-5)"><g clip-path="url(#clip-path-5)"><circle cx="4.5" cy="4.5" r="3.5" fill="none" stroke="#f0f0f0" stroke-miterlimit="10" stroke-width="1"/></g><g clip-path="url(#clip-path-5)"><path d="M4.5,1a3.5,3.5,0,0,1,0,7A3.42,3.42,0,0,1,1,4.5,3.48,3.48,0,0,1,4.5,1m0-1A4.5,4.5,0,1,0,9,4.5,4.48,4.48,0,0,0,4.5,0" fill="#666"/></g></g></g></svg>