<svg id="Layer_1" data-name="Layer 1" xmlns="http://www.w3.org/2000/svg" xmlns:xlink="http://www.w3.org/1999/xlink" viewBox="0 0 200 200"><defs><clipPath id="clip-path"><rect x="131.9" y="131.9" width="68" height="68" fill="none"/></clipPath><clipPath id="clip-path-4"><rect x="-0.1" y="-0.1" width="68" height="68" fill="none"/></clipPath></defs><title>LoopKeep</title><g id="_01-high-density-route-LoopRemoveOff-16" data-name=" 01-high-density-route-LoopRemoveOff-16"><path id="Shape" d="M64.6,37.6H108l54.4,53.79v51a29,29,0,0,1,9.39-1.8c3.4,0,6.4,3.6,9.4,4.8V83.59L115.79,18.8H54.6c1,3,11.8,6,11.8,9.4A29.07,29.07,0,0,1,64.6,37.6Z" fill="#30a0fb" stroke="#30a0fb" stroke-miterlimit="20" stroke-width="2"/><path id="Shape1" d="M141.39,162.38H90.79L37.6,108.59v-44a29.07,29.07,0,0,1-9.4,1.8c-3.4,0-6.4-10.6-9.4-11.8v61.8L83,181.18h62.4c-1-3-5.8-6-5.8-9.4A37.24,37.24,0,0,1,141.39,162.38Z" fill="#30a0fb" stroke="#30a0fb" stroke-miterlimit="20" stroke-width="2"/></g><g id="Artwork_9" data-name="Artwork 9"><g clip-path="url(#clip-path)"><g clip-path="url(#clip-path)"><circle cx="165.9" cy="165.9" r="26.4" fill="none" stroke="#f0f0f0" stroke-miterlimit="10" stroke-width="7.56"/></g><g clip-path="url(#clip-path)"><path d="M165.9,139.5a26.4,26.4,0,0,1,0,52.8c-15.1,0-26.4-11.3-26.4-26.4a26.25,26.25,0,0,1,26.4-26.4m0-7.6a34,34,0,1,0,34,34,33.84,33.84,0,0,0-34-34" fill="#666"/></g></g></g><g id="Artwork_9-2" data-name="Artwork 9"><g clip-path="url(#clip-path-4)"><g clip-path="url(#clip-path-4)"><circle cx="33.9" cy="33.9" r="26.4" fill="none" stroke="#f0f0f0" stroke-miterlimit="10" stroke-width="7.56"/></g><g clip-path="url(#clip-path-4)"><path d="M33.8,7.4a26.4,26.4,0,0,1,0,52.8C18.7,60.2,7.4,49,7.4,33.9A26.27,26.27,0,0,1,33.8,7.4m0-7.5a34,34,0,1,0,34,34,33.84,33.84,0,0,0-34-34" fill="#666"/></g></g></g></svg>