<?xml version="1.0" encoding="UTF-8"?>
<svg width="32px" height="32px" viewBox="0 0 32 32" version="1.1" xmlns="http://www.w3.org/2000/svg" xmlns:xlink="http://www.w3.org/1999/xlink">
    <!-- Generator: Sketch 57.1 (83088) - https://sketch.com -->
    <title>03-low-density/file/ManagedFolder</title>
    <desc>Created with Sketch.</desc>
    <defs>
        <path d="M3.72,7.05 L3.72,7.06 L4.37,7.06 C6.73605263,7.15736842 7.9359903,8.35448753 7.99750638,11.7775539 L8,12.06 L8,15.56 L1,15.56 C0.487164161,15.56 0.0644928393,15.1739598 0.00672773133,14.6766211 L-8.17124146e-14,14.56 L-8.17124146e-14,11.75 C0.07,8.4 1.39,7.16 3.72,7.05 Z M11.34,8.52 L11.87,8.52 C13.8093939,8.59757576 14.8084757,9.59665748 14.8672452,12.3925904 L14.87,12.66 L14.87,14.56 C14.87,15.0728358 14.4839598,15.4955072 13.9866211,15.5532723 L13.87,15.56 L9,15.56 L9,13.66 C9,12.56 8.69,10.13 8.69,10.13 C9.13990971,9.17257078 10.0974132,8.56482026 11.1443948,8.55540063 L11.33,8.56 L11.34,8.52 L11.87,8.52 Z M11.56,2.68 C12.9250089,2.77597909 13.9709335,3.93223332 13.93,5.3 C13.93,6.65 12.9,8.13 11.56,8.13 C10.8670373,8.08220874 10.2232419,7.75488104 9.77634234,7.22312718 C9.32944282,6.69137333 9.11780775,6.00084703 9.19,5.31 C9.13467593,4.64194375 9.35777987,3.9807077 9.80652952,3.48272812 C10.2552792,2.98474855 10.8898087,2.69426481 11.56,2.68 Z M4,1.99840144e-13 C5.6498628,0.117311551 6.91249738,1.51680513 6.86,3.17 C6.86,4.8 5.62,6.56 4,6.56 C2.38,6.56 1.14,5.14 1.14,3.17 C1.0736083,2.36427548 1.34308185,1.56692471 1.8846418,0.966664208 C2.42620175,0.366403704 3.19171488,0.0165839193 4,1.99840144e-13 Z" id="path-1"></path>
    </defs>
    <g id="03-low-density/file/ManagedFolder" stroke="none" stroke-width="1" fill="none" fill-rule="evenodd">
        <polygon id="Shape" fill="#F3F3F3" fill-rule="nonzero" opacity="0.1" points="14 6 10 2 0 2 0 4.56 0 5.83 0 27 0 28 15 28 19 28 20.97 28 31 28 32 28 32 27 32 14.59 32 14 32 6 15 6"></polygon>
        <polygon id="Shape" fill="#F3F3F3" fill-rule="nonzero" points="14 7 10 3 0 3 0 29 32 29 32 7"></polygon>
        <path d="M14,7 L14,7 L10,3 L0,3 L0,29 L32,29 L32,7 L14,7 Z M1,4 L9.59,4 L13.3,7.71 L13.3,7.71 L12,9 L1,9 L1,4 Z M31,28 L1,28 L1,10 L12.36,10 L14.36,8 L31,8 L31,28 Z" id="Shape" fill="#666666" fill-rule="nonzero"></path>
        <g id="hig-icons/-info-dense/permission-group-16" transform="translate(9.000000, 11.000000)">
            <g id="icon">
                <mask id="mask-2" fill="white">
                    <use xlink:href="#path-1"></use>
                </mask>
                <use id="Mask" fill="#666666" fill-rule="nonzero" xlink:href="#path-1"></use>
            </g>
        </g>
    </g>
</svg>
