<svg id="Layer_1" data-name="Layer 1" xmlns="http://www.w3.org/2000/svg" viewBox="0 0 32 32"><title>Mdl</title><polygon points="19.75 32 19.75 23 28.75 23 19.75 32" fill="#666"/><polygon points="19.75 31 18.75 31 15.75 31 5.75 31 5.75 1 27.75 1 27.75 20 27.75 22 27.75 23 28.75 23 28.75 0 4.75 0 4.75 32 19.75 32 19.75 31" fill="#666"/><line x1="21.75" y1="14.5" x2="11.75" y2="14.5" fill="none" stroke="#d98448" stroke-miterlimit="10"/><rect x="3.25" y="2.5" width="25" height="17" stroke-width="0.5" stroke="#00bfbf" stroke-linecap="round" stroke-linejoin="round" fill="#00bfbf"/><path d="M20.74,16.14c-1.91,0-3.3-2.3-4.95-5-1.22-1.93-2.78-4.5-3.91-4.5-1.3,0-2.86,2.52-3.56,4.23l-1.13-.26c.35-.81,2.09-4.77,4.69-4.77,1.91,0,3.3,2.3,4.95,5,1.22,1.87,2.78,4.5,3.91,4.5,1.3,0,2.43-2.41,3-4.23l1.22.1C23.69,15.87,21.26,16.14,20.74,16.14Z" fill="#fff" stroke="#fff" stroke-miterlimit="10" stroke-width="2"/></svg>