<svg id="Layer_1" data-name="Layer 1" xmlns="http://www.w3.org/2000/svg" viewBox="0 0 32 32"><title>Meander</title><path d="M10.3,26.1C9.9,27.4,9.2,28,8.1,28S6.3,27.4,6,26.1a8.2,8.2,0,0,1-.2-2.2V14.7H0v2.2H3.7v6.9A9.88,9.88,0,0,0,4,26.7a4.12,4.12,0,0,0,4.2,3.5c2.2,0,3.6-1.4,4.3-3.5a10.62,10.62,0,0,0,.4-1.9V23.7s-.1-5-.2-14.8a1.76,1.76,0,0,1,.1-.6,5.73,5.73,0,0,1,.4-1.4,2.62,2.62,0,0,1,2.7-1.8,2.67,2.67,0,0,1,2.7,1.7A6.47,6.47,0,0,1,19,8.1a1.21,1.21,0,0,0,.1.5V23.3a15.05,15.05,0,0,0,.3,3.1c.5,2.1,1.8,3.5,4,3.5s3.4-1.4,4-3.5a12.86,12.86,0,0,0,.4-1.9,4,4,0,0,0,0-1.1V16.6H32V14.5H25.5v8.9a11.21,11.21,0,0,1-.3,2.4c-.4,1.3-1,1.9-2,1.9s-1.6-.6-2-1.9a9.81,9.81,0,0,1-.2-2.2V8.8A7.11,7.11,0,0,0,20.3,6a5,5,0,0,0-4.7-3A4.7,4.7,0,0,0,11,6.1,6.83,6.83,0,0,0,10.4,9l.2,14.8A6.34,6.34,0,0,1,10.3,26.1Z" fill="#30a0fb"/></svg>