<svg id="Layer_1" data-name="Layer 1" xmlns="http://www.w3.org/2000/svg" viewBox="0 0 32 32"><title>MiterRound</title><polygon points="30 2 2 2 2 30 9 30 9 32 0 32 0 0 32 0 32 9 30 9 30 2" fill="#666"/><path d="M12.4,32.5H10.5c0-11.6,10.4-22,22-22v1.9C22,12.4,12.4,22,12.4,32.5Z" fill="#30a0fb"/><path d="M12.65,32.75h-2.4V32.5c0-11.64,10.61-22.25,22.25-22.25h.25v2.4H32.5c-10.39,0-19.85,9.46-19.85,19.85Zm-1.9-.5h1.4c.15-10.47,9.63-19.95,20.1-20.1v-1.4C21.05,10.9,10.9,21.05,10.75,32.25Z" fill="#30a0fb"/></svg>