<?xml version="1.0" encoding="UTF-8"?>
<svg width="32px" height="32px" viewBox="0 0 32 32" version="1.1" xmlns="http://www.w3.org/2000/svg" xmlns:xlink="http://www.w3.org/1999/xlink">
    <!-- Generator: Sketch 54.1 (76490) - https://sketchapp.com -->
    <title>03-low-density/general/MoreMenu-32</title>
    <desc>Created with Sketch.</desc>
    <defs>
        <path d="M27,6 C25.3431458,6 24,4.65685425 24,3 C24,1.34314575 25.3431458,0 27,0 C28.6568542,0 30,1.34314575 30,3 C30,4.65685425 28.6568542,6 27,6 Z M15,6 C13.3431458,6 12,4.65685425 12,3 C12,1.34314575 13.3431458,0 15,0 C16.6568542,0 18,1.34314575 18,3 C18,4.65685425 16.6568542,6 15,6 Z M3,6 C1.34314575,6 0,4.65685425 0,3 C0,1.34314575 1.34314575,0 3,0 C4.65685425,0 6,1.34314575 6,3 C6,4.65685425 4.65685425,6 3,6 Z" id="path-1"></path>
    </defs>
    <g id="03-low-density/general/MoreMenu-32" stroke="none" stroke-width="1" fill="none" fill-rule="evenodd">
        <g id="icon" transform="translate(1.000000, 13.000000)">
            <use id="Mask" fill="#666666" fill-rule="nonzero" xlink:href="#path-1"></use>
        </g>
    </g>
</svg>