<svg id="Layer_1" data-name="Layer 1" xmlns="http://www.w3.org/2000/svg" xmlns:xlink="http://www.w3.org/1999/xlink" viewBox="0 0 32 32"><defs><clipPath id="clip-path"><rect x="23" width="9" height="9" fill="none"/></clipPath><clipPath id="clip-path-3"><rect x="23" y="11.5" width="9" height="9" fill="none"/></clipPath><clipPath id="clip-path-5"><rect x="23" y="23" width="9" height="9" fill="none"/></clipPath></defs><title>MultiWireRoute</title><g id="MultiRoute"><g id="Group"><g id="Shape"><path d="M0,8H11l5-5h8a3.9,3.9,0,0,0,0,3H18l-5,5H0Z" fill="#30a0fb"/></g><g id="Shape-Copy-2"><path d="M0,24H11l5,5h8a3.9,3.9,0,0,1,0-3H18l-5-5H0Z" fill="#30a0fb"/></g><g id="Shape-Copy"><path d="M0,14.5H24a3.9,3.9,0,0,0,0,3H0Z" fill="#30a0fb"/></g></g></g><g id="Artwork_10" data-name="Artwork 10"><g clip-path="url(#clip-path)"><g clip-path="url(#clip-path)"><path d="M27.5,1A3.54,3.54,0,0,1,31,4.5a3.5,3.5,0,0,1-7,0A3.54,3.54,0,0,1,27.5,1m0-1A4.5,4.5,0,1,0,32,4.5,4.48,4.48,0,0,0,27.5,0" fill="#666"/></g></g></g><g id="Artwork_10-2" data-name="Artwork 10"><g clip-path="url(#clip-path-3)"><g clip-path="url(#clip-path-3)"><path d="M27.5,12.5A3.5,3.5,0,1,1,24,16a3.54,3.54,0,0,1,3.5-3.5m0-1A4.5,4.5,0,1,0,32,16a4.48,4.48,0,0,0-4.5-4.5" fill="#666"/></g></g></g><g id="Artwork_10-3" data-name="Artwork 10"><g clip-path="url(#clip-path-5)"><g clip-path="url(#clip-path-5)"><path d="M27.5,24A3.5,3.5,0,1,1,24,27.5,3.54,3.54,0,0,1,27.5,24m0-1A4.5,4.5,0,1,0,32,27.5,4.48,4.48,0,0,0,27.5,23" fill="#666"/></g></g></g></svg>