<?xml version="1.0" encoding="UTF-8"?>
<svg width="128px" height="128px" viewBox="0 0 128 128" version="1.1" xmlns="http://www.w3.org/2000/svg" xmlns:xlink="http://www.w3.org/1999/xlink">
    <!-- Generator: Sketch 58 (84663) - https://sketch.com -->
    <title>Octagonal Pad</title>
    <desc>Created with Sketch.</desc>
    <g id="Octagonal-Pad" stroke="none" stroke-width="1" fill="none" fill-rule="evenodd">
        <path d="M61.9472222,25.5 L30.0527778,25.5 L7.5,48.0527778 L7.5,79.9472222 L30.0527778,102.5 L61.9472222,102.5 L84.5,79.9472222 L84.5,48.0527778 L61.9472222,25.5 Z M45.0417236,53.1206709 C50.5209696,53.1206709 54.9627762,57.5624775 54.9627762,63.0417236 C54.9627762,68.5209696 50.5209696,72.9627762 45.0417236,72.9627762 C39.5624775,72.9627762 35.1206709,68.5209696 35.1206709,63.0417236 C35.1206709,57.5624775 39.5624775,53.1206709 45.0417236,53.1206709 Z" id="Combined-Shape" stroke="#999999" stroke-width="3" fill="#FAA21B"></path>
        <path d="M101.5,64.5 L123.5,64.5" id="Path-12" stroke="#979797"></path>
        <g id="Group-3" transform="translate(95.000000, 64.000000) rotate(-90.000000) translate(-95.000000, -64.000000) translate(57.000000, 61.000000)" fill="#0696D7" stroke="#0696D7">
            <polygon id="Path-2" points="0.5 3 5.5 0 5.5 6"></polygon>
            <polygon id="Path-2" transform="translate(73.500000, 3.000000) scale(-1, 1) translate(-73.500000, -3.000000) " points="71 3 76 0 76 6"></polygon>
            <path d="M4,3 L72,3" id="Path-3" stroke-width="2"></path>
        </g>
        <path d="M103,23.5 L68,23.5" id="Path-9" stroke="#EC4A41"></path>
        <path d="M102.911765,104.5 L68.0882353,104.5" id="Path-9-Copy" stroke="#EC4A41"></path>
        <path d="M52.5,126 L52.5,75" id="Path-9" stroke="#EC4A41"></path>
        <path d="M37.5,126 L37.5,75" id="Path-8" stroke="#EC4A41"></path>
        <g id="Group-2" transform="translate(55.000000, 115.000000)" fill="#0696D7" stroke="#0696D7">
            <polygon id="Path-2" points="0 3 5 0 5 6"></polygon>
            <path d="M4,3 L16,3" id="Path-3" stroke-width="2"></path>
        </g>
        <g id="Group-2" transform="translate(19.000000, 115.000000)" fill="#0696D7" stroke="#0696D7">
            <polygon id="Path-2" transform="translate(13.500000, 3.000000) scale(-1, 1) translate(-13.500000, -3.000000) " points="11 3 16 0 16 6"></polygon>
            <path d="M0,3 L12,3" id="Path-3" stroke-width="2"></path>
        </g>
        <path d="M75,118.5 L123,118.5 L75,118.5 Z" id="Path-11" stroke="#979797"></path>
    </g>
</svg>