<?xml version="1.0" encoding="UTF-8"?>
<svg width="128px" height="128px" viewBox="0 0 128 128" version="1.1" xmlns="http://www.w3.org/2000/svg" xmlns:xlink="http://www.w3.org/1999/xlink">
    <!-- Generator: Sketch 61 (89581) - https://sketch.com -->
    <title>Offset Elliptical Pad</title>
    <desc>Created with Sketch.</desc>
    <g id="Offset-Elliptical-Pad" stroke="none" stroke-width="1" fill="none" fill-rule="evenodd">
        <path d="M78,36.5 L34,36.5 C18.2598846,36.5 5.5,49.2598846 5.5,65 C5.5,80.7401154 18.2598846,93.5 34,93.5 L78,93.5 C93.7401154,93.5 106.5,80.7401154 106.5,65 C106.5,49.2598846 93.7401154,36.5 78,36.5 Z M41,55.5 C46.2467051,55.5 50.5,59.7532949 50.5,65 C50.5,70.2467051 46.2467051,74.5 41,74.5 C35.7532949,74.5 31.5,70.2467051 31.5,65 C31.5,59.7532949 35.7532949,55.5 41,55.5 Z" id="Combined-Shape" stroke="#999999" stroke-width="3" fill="#FAA21B"></path>
        <g id="Group-3" transform="translate(115.000000, 64.500000) rotate(-90.000000) translate(-115.000000, -64.500000) translate(86.500000, 61.500000)" fill="#0696D7" stroke="#0696D7">
            <polygon id="Path-2" points="0.5 3 5.5 0 5.5 6"></polygon>
            <polygon id="Path-2" transform="translate(54.500000, 3.000000) scale(-1, 1) translate(-54.500000, -3.000000) " points="52 3 57 0 57 6"></polygon>
            <line x1="4" y1="3" x2="52" y2="3" id="Path-3" stroke-width="2"></line>
        </g>
        <line x1="118" y1="64.5" x2="123.5" y2="64.5" id="Path-12" stroke="#979797"></line>
        <line x1="48.5" y1="105" x2="48.5" y2="75" id="Path-9" stroke="#EC4A41"></line>
        <line x1="33.5" y1="105" x2="33.5" y2="75" id="Path-8" stroke="#EC4A41"></line>
        <g id="Group-2" transform="translate(51.000000, 96.000000)" fill="#0696D7" stroke="#0696D7">
            <polygon id="Path-2" points="0 3 5 0 5 6"></polygon>
            <line x1="4" y1="3" x2="16" y2="3" id="Path-3" stroke-width="2"></line>
        </g>
        <g id="Group-2" transform="translate(15.000000, 96.000000)" fill="#0696D7" stroke="#0696D7">
            <polygon id="Path-2" transform="translate(13.500000, 3.000000) scale(-1, 1) translate(-13.500000, -3.000000) " points="11 3 16 0 16 6"></polygon>
            <line x1="0" y1="3" x2="12" y2="3" id="Path-3" stroke-width="2"></line>
        </g>
        <polyline id="Path-6" stroke="#979797" points="124 118.5 41 118.5 41 105"></polyline>
        <line x1="123.5" y1="94.5" x2="88.5" y2="94.5" id="Path-9-Copy" stroke="#EC4A41"></line>
        <line x1="124" y1="35" x2="89" y2="35" id="Path-9-Copy-3" stroke="#EC4A41"></line>
    </g>
</svg>