<?xml version="1.0" encoding="utf-8"?>
<!-- Generator: Adobe Illustrator 24.0.1, SVG Export Plug-In . SVG Version: 6.00 Build 0)  -->
<svg version="1.1" id="Layer_1" xmlns="http://www.w3.org/2000/svg" xmlns:xlink="http://www.w3.org/1999/xlink" x="0px" y="0px"
	 viewBox="0 0 32 32" style="enable-background:new 0 0 32 32;" xml:space="preserve">
<style type="text/css">
	.st0{fill:#30A0FB;}
	.st1{fill:#333333;}
	.st2{opacity:0.2;}
	.st3{opacity:0.8;}
	.st4{fill:#525252;}
	.st5{fill:none;stroke:#525252;stroke-miterlimit:10;}
	.st6{fill:none;stroke:#525252;stroke-miterlimit:10;stroke-dasharray:3.7385,3.7385;}
	.st7{fill:none;stroke:#525252;stroke-miterlimit:10;stroke-dasharray:3.7385,3.7385,3.7385,3.7385;}
</style>
<rect y="23" class="st0" width="32" height="4"/>
<title>Optimize</title>
<desc>Created with Sketch.</desc>
<polygon class="st1" points="14,15.2 7,10.2 7,14.2 0,14.2 0,16.2 7,16.2 7,20.2 "/>
<polygon class="st1" points="32,14.2 25,14.2 25,10.2 18,15.2 25,20.2 25,16.2 32,16.2 "/>
<rect x="10.5" y="23" class="st2" width="11" height="4"/>
<g class="st3">
	<line class="st4" x1="16" y1="-0.2" x2="16" y2="32"/>
	<g>
		<line class="st5" x1="16" y1="-0.2" x2="16" y2="2.8"/>
		<line class="st6" x1="16" y1="6.6" x2="16" y2="12.2"/>
		<line class="st7" x1="16" y1="14" x2="16" y2="27.1"/>
		<line class="st5" x1="16" y1="29" x2="16" y2="32"/>
	</g>
</g>
<rect y="3" class="st2" width="11" height="4"/>
<polyline class="st2" points="21,3 32,3 32,7 21,7 "/>
</svg>
