<svg id="Layer_1" data-name="Layer 1" xmlns="http://www.w3.org/2000/svg" xmlns:xlink="http://www.w3.org/1999/xlink" viewBox="0 0 200 200"><defs><clipPath id="clip-path"><rect x="8" y="13" width="184" height="110" fill="none"/></clipPath><clipPath id="clip-path-3"><rect x="43" y="20" width="40" height="7" fill="none"/></clipPath><clipPath id="clip-path-4"><rect x="129.39" y="130.01" width="70" height="70" fill="none"/></clipPath></defs><title>Package3DAdd</title><line x1="138.79" y1="139.51" x2="137.17" y2="123.09" fill="none" stroke="#fc6" stroke-linecap="round" stroke-linejoin="round"/><line x1="173.42" y1="139.16" x2="169.47" y2="123.19" fill="none" stroke="#fc6" stroke-linecap="round" stroke-linejoin="round"/><line x1="27.5" y1="139.28" x2="30.68" y2="123.03" fill="none" stroke="#fc6" stroke-linecap="round" stroke-linejoin="round"/><polygon points="199.9 137.5 173.26 137.5 161.28 87.5 186.34 87.5 199.9 137.5" fill="#ffdf6a" stroke="#fc6" stroke-linecap="round" stroke-linejoin="round"/><polygon points="133.15 87.5 155.81 87.5 163.91 139.5 138.84 139.5 133.15 87.5" fill="#ffdf6a" stroke="#fc6" stroke-linecap="round" stroke-linejoin="round"/><polygon points="105.19 87.5 125.41 87.5 129.5 137.5 104.5 137.5 105.19 87.5" fill="#ffdf6a" stroke="#fc6" stroke-linecap="round" stroke-linejoin="round"/><polygon points="94.81 87.5 74.59 87.5 70.44 137.5 95.5 137.5 94.81 87.5" fill="#ffdf6a" stroke="#fc6" stroke-linecap="round" stroke-linejoin="round"/><polygon points="65.91 87.5 43.25 87.5 35.15 137.5 60.22 137.5 65.91 87.5" fill="#ffdf6a" stroke="#fc6" stroke-linecap="round" stroke-linejoin="round"/><polygon points="0.45 137.5 27.09 137.5 39.08 87.5 14.01 87.5 0.45 137.5" fill="#ffdf6a" stroke="#fc6" stroke-linecap="round" stroke-linejoin="round"/><g opacity="0.9"><g clip-path="url(#clip-path)"><g style="isolation:isolate"><g clip-path="url(#clip-path)"><polygon points="10.23 122 13.27 92 187.72 92 190.76 122 10.23 122"/><polygon points="9.32 115.12 12.44 85.28 14.32 92.42 11.32 122.06 9.32 115.12"/><polygon points="189.68 122.06 186.68 92.42 188.56 85.28 191.68 115.12 189.68 122.06"/><polygon points="8.83 115 11.96 85 189.04 85 192.17 115 8.83 115"/><polygon points="192.5 115 190.49 122 10.51 122 8.49 115 192.5 115"/><path d="M8.26,115H192.73l-2.28,8H10.55Zm182.23,7,2-7H8.49l2,7H190"/><polygon points="7.81 115 10.98 85 190.02 85 193.19 115 7.81 115"/><polygon points="162.2 44.03 159.78 12.57 189.58 84.8 192.73 114.65 162.2 44.03"/><polygon points="8.27 114.65 11.42 84.8 41.22 12.57 38.8 44.03 8.27 114.65"/><polygon points="39.71 44 42.09 13 158.91 13 161.29 44 39.71 44"/><polygon points="162.53 44 193.24 115 7.76 115 38.46 44 162.53 44"/></g></g></g></g><polygon points="193.86 122 7.32 122 3.1 109 197.13 109 193.86 122" fill="#333"/><polygon points="193.86 122 7.32 122 3.1 109 197.13 109 193.86 122" fill="none" stroke="#000" stroke-linecap="round" stroke-linejoin="round" stroke-width="2"/><polygon points="195.3 79 5.79 78.41 3.1 109 197.13 109 195.3 79" fill="#666"/><polygon points="195.3 79 5.79 78.41 3.1 109 197.13 109 195.3 79" fill="none" stroke="#000" stroke-linecap="round" stroke-linejoin="round" stroke-width="2"/><polygon points="163.6 12 37.28 12 5.61 78 195.47 78.59 163.6 12" fill="#999"/><polygon points="163.6 12 37.28 12 5.61 78 195.47 78.59 163.6 12" fill="none" stroke="#000" stroke-linecap="round" stroke-linejoin="round" stroke-width="2"/><g opacity="0.7"><g clip-path="url(#clip-path-3)"><path d="M82.5,23c0,1.93-9,3.5-20,3.5s-20-1.57-20-3.5,9-3.5,20-3.5,20,1.57,20,3.5" fill="#333"/></g></g><ellipse cx="62.5" cy="23" rx="20" ry="3.5" fill="none" stroke="#000" stroke-miterlimit="10"/><rect x="8" y="89" width="17" height="39" fill="#d9d9d9"/><rect x="8" y="89" width="17" height="39" fill="none" stroke="#bbb" stroke-miterlimit="10" stroke-width="2"/><rect x="41" y="89" width="17" height="39" fill="#d9d9d9"/><rect x="41" y="89" width="17" height="39" fill="none" stroke="#bbb" stroke-miterlimit="10" stroke-width="2"/><rect x="75" y="89" width="17" height="39" fill="#d9d9d9"/><rect x="75" y="89" width="17" height="39" fill="none" stroke="#bbb" stroke-miterlimit="10" stroke-width="2"/><rect x="108" y="89" width="17" height="39" fill="#d9d9d9"/><rect x="108" y="89" width="17" height="39" fill="none" stroke="#bbb" stroke-miterlimit="10" stroke-width="2"/><rect x="141" y="89" width="17" height="39" fill="#d9d9d9"/><rect x="141" y="89" width="17" height="39" fill="none" stroke="#bbb" stroke-miterlimit="10" stroke-width="2"/><rect x="175" y="89" width="17" height="39" fill="#d9d9d9"/><rect x="175" y="89" width="17" height="39" fill="none" stroke="#bbb" stroke-miterlimit="10" stroke-width="2"/><rect x="0.5" y="137.5" width="27" height="2" stroke-width="0.8" stroke="#fc6" stroke-linecap="round" stroke-linejoin="round" fill="#fc6"/><polygon points="60.5 139.5 35.22 139.5 35.15 137.5 60.5 137.5 60.5 139.5" fill="#fc6" stroke="#fc6" stroke-linecap="round" stroke-linejoin="round"/><polygon points="95.55 139.5 70.55 139.5 70.5 137.5 95.5 137.5 95.55 139.5" fill="#fc6" stroke="#fc6" stroke-linecap="round" stroke-linejoin="round"/><rect x="104.5" y="137.5" width="25" height="2" fill="#fc6" stroke="#fc6" stroke-linecap="round" stroke-linejoin="round"/><rect x="139.5" y="137.5" width="24" height="2" fill="#fc6" stroke="#fc6" stroke-linecap="round" stroke-linejoin="round"/><polygon points="199.52 139.5 173.81 139.36 173.58 137.5 199.5 137.64 199.52 139.5" fill="#fc6" stroke="#fc6" stroke-linecap="round" stroke-linejoin="round" stroke-width="0.81"/><line x1="60.28" y1="139.88" x2="61.9" y2="123.46" fill="none" stroke="#fc6" stroke-miterlimit="10"/><circle cx="164.39" cy="165.01" r="35" fill="#333"/><g id="Artwork_35" data-name="Artwork 35"><g clip-path="url(#clip-path-4)"><g clip-path="url(#clip-path-4)"><polygon points="187.39 159.01 170.39 159.01 170.39 141.01 158.39 141.01 158.39 159.01 140.39 159.01 140.39 171.01 158.39 171.01 158.39 189.01 169.39 189.01 169.39 171.01 187.39 171.01 187.39 159.01" fill="#fff"/></g></g></g></svg>