<svg id="Layer_1" data-name="Layer 1" xmlns="http://www.w3.org/2000/svg" xmlns:xlink="http://www.w3.org/1999/xlink" viewBox="0 0 200 200"><defs><clipPath id="clip-path"><rect x="8" y="23" width="184" height="110" fill="none"/></clipPath><clipPath id="clip-path-3"><rect x="43" y="30" width="40" height="7" fill="none"/></clipPath></defs><title>Pkg</title><line x1="138.79" y1="149.51" x2="137.17" y2="133.09" fill="none" stroke="#fc6" stroke-linecap="round" stroke-linejoin="round"/><line x1="173.42" y1="149.16" x2="169.47" y2="133.19" fill="none" stroke="#fc6" stroke-linecap="round" stroke-linejoin="round"/><line x1="27.5" y1="149.28" x2="30.68" y2="133.03" fill="none" stroke="#fc6" stroke-linecap="round" stroke-linejoin="round"/><polygon points="199.9 147.5 173.26 147.5 161.28 97.5 186.34 97.5 199.9 147.5" fill="#ffdf6a" stroke="#fc6" stroke-linecap="round" stroke-linejoin="round"/><polygon points="133.15 97.5 155.81 97.5 163.91 149.5 138.84 149.5 133.15 97.5" fill="#ffdf6a" stroke="#fc6" stroke-linecap="round" stroke-linejoin="round"/><polygon points="105.19 97.5 125.41 97.5 129.5 147.5 104.5 147.5 105.19 97.5" fill="#ffdf6a" stroke="#fc6" stroke-linecap="round" stroke-linejoin="round"/><polygon points="94.81 97.5 74.59 97.5 70.44 147.5 95.5 147.5 94.81 97.5" fill="#ffdf6a" stroke="#fc6" stroke-linecap="round" stroke-linejoin="round"/><polygon points="65.91 97.5 43.25 97.5 35.15 147.5 60.22 147.5 65.91 97.5" fill="#ffdf6a" stroke="#fc6" stroke-linecap="round" stroke-linejoin="round"/><polygon points="0.45 147.5 27.09 147.5 39.08 97.5 14.01 97.5 0.45 147.5" fill="#ffdf6a" stroke="#fc6" stroke-linecap="round" stroke-linejoin="round"/><g opacity="0.9"><g clip-path="url(#clip-path)"><g style="isolation:isolate"><g clip-path="url(#clip-path)"><polygon points="10.23 132 13.27 102 187.72 102 190.76 132 10.23 132"/><polygon points="9.32 125.12 12.44 95.28 14.32 102.42 11.32 132.06 9.32 125.12"/><polygon points="189.68 132.06 186.68 102.42 188.56 95.28 191.68 125.12 189.68 132.06"/><polygon points="8.83 125 11.96 95 189.04 95 192.17 125 8.83 125"/><polygon points="192.5 125 190.49 132 10.51 132 8.49 125 192.5 125"/><path d="M8.26,125H192.73l-2.28,8H10.55Zm182.23,7,2-7H8.49l2,7H190"/><polygon points="7.81 125 10.98 95 190.02 95 193.19 125 7.81 125"/><polygon points="162.2 54.03 159.78 22.57 189.58 94.8 192.73 124.65 162.2 54.03"/><polygon points="8.27 124.65 11.42 94.8 41.22 22.57 38.8 54.03 8.27 124.65"/><polygon points="39.71 54 42.09 23 158.91 23 161.29 54 39.71 54"/><polygon points="162.53 54 193.24 125 7.76 125 38.46 54 162.53 54"/></g></g></g></g><polygon points="193.86 132 7.32 132 3.1 119 197.13 119 193.86 132" fill="#333"/><polygon points="193.86 132 7.32 132 3.1 119 197.13 119 193.86 132" fill="none" stroke="#000" stroke-linecap="round" stroke-linejoin="round" stroke-width="2"/><polygon points="195.3 89 5.79 88.41 3.1 119 197.13 119 195.3 89" fill="#666"/><polygon points="195.3 89 5.79 88.41 3.1 119 197.13 119 195.3 89" fill="none" stroke="#000" stroke-linecap="round" stroke-linejoin="round" stroke-width="2"/><polygon points="163.6 22 37.28 22 5.61 88 195.47 88.59 163.6 22" fill="#999"/><polygon points="163.6 22 37.28 22 5.61 88 195.47 88.59 163.6 22" fill="none" stroke="#000" stroke-linecap="round" stroke-linejoin="round" stroke-width="2"/><g opacity="0.7"><g clip-path="url(#clip-path-3)"><path d="M82.5,33c0,1.93-9,3.5-20,3.5s-20-1.57-20-3.5,9-3.5,20-3.5,20,1.57,20,3.5" fill="#333"/></g></g><ellipse cx="62.5" cy="33" rx="20" ry="3.5" fill="none" stroke="#000" stroke-miterlimit="10"/><rect x="8" y="99" width="17" height="39" fill="#d9d9d9"/><rect x="8" y="99" width="17" height="39" fill="none" stroke="#bbb" stroke-miterlimit="10" stroke-width="2"/><rect x="41" y="99" width="17" height="39" fill="#d9d9d9"/><rect x="41" y="99" width="17" height="39" fill="none" stroke="#bbb" stroke-miterlimit="10" stroke-width="2"/><rect x="75" y="99" width="17" height="39" fill="#d9d9d9"/><rect x="75" y="99" width="17" height="39" fill="none" stroke="#bbb" stroke-miterlimit="10" stroke-width="2"/><rect x="108" y="99" width="17" height="39" fill="#d9d9d9"/><rect x="108" y="99" width="17" height="39" fill="none" stroke="#bbb" stroke-miterlimit="10" stroke-width="2"/><rect x="141" y="99" width="17" height="39" fill="#d9d9d9"/><rect x="141" y="99" width="17" height="39" fill="none" stroke="#bbb" stroke-miterlimit="10" stroke-width="2"/><rect x="175" y="99" width="17" height="39" fill="#d9d9d9"/><rect x="175" y="99" width="17" height="39" fill="none" stroke="#bbb" stroke-miterlimit="10" stroke-width="2"/><rect x="0.5" y="147.5" width="27" height="2" stroke-width="0.8" stroke="#fc6" stroke-linecap="round" stroke-linejoin="round" fill="#fc6"/><polygon points="60.5 149.5 35.22 149.5 35.15 147.5 60.5 147.5 60.5 149.5" fill="#fc6" stroke="#fc6" stroke-linecap="round" stroke-linejoin="round"/><polygon points="95.55 149.5 70.55 149.5 70.5 147.5 95.5 147.5 95.55 149.5" fill="#fc6" stroke="#fc6" stroke-linecap="round" stroke-linejoin="round"/><rect x="104.5" y="147.5" width="25" height="2" fill="#fc6" stroke="#fc6" stroke-linecap="round" stroke-linejoin="round"/><rect x="139.5" y="147.5" width="24" height="2" fill="#fc6" stroke="#fc6" stroke-linecap="round" stroke-linejoin="round"/><polygon points="199.52 149.5 173.81 149.36 173.58 147.5 199.5 147.64 199.52 149.5" fill="#fc6" stroke="#fc6" stroke-linecap="round" stroke-linejoin="round" stroke-width="0.81"/><line x1="60.28" y1="149.88" x2="61.9" y2="133.46" fill="none" stroke="#fc6" stroke-miterlimit="10"/></svg>