<?xml version="1.0" encoding="utf-8"?>
<!-- Generator: Adobe Illustrator 24.0.1, SVG Export Plug-In . SVG Version: 6.00 Build 0)  -->
<svg version="1.1" id="Layer_1" xmlns="http://www.w3.org/2000/svg" xmlns:xlink="http://www.w3.org/1999/xlink" x="0px" y="0px"
	 viewBox="0 0 32 32" style="enable-background:new 0 0 32 32;" xml:space="preserve">
<style type="text/css">
	.st0{fill:#525252;}
	.st1{fill:#FF4164;}
	.st2{fill:none;stroke:#525252;stroke-width:3;stroke-miterlimit:10;}
</style>
<title>SmdArray</title>
<desc>Created with Sketch.</desc>
<g id="SmdArray">
	<path id="Shape_1_" class="st0" d="M6,0H0v1h6c1.7,0,3,1.3,3,3v9c0,1.7-1.3,3-3,3H0v1h6c2.2,0,4-1.8,4-4V4C10,1.8,8.2,0,6,0z"/>
	<path id="Shape_2_" class="st0" d="M19.6,11.9c0.1-2.4-8.7-1.9-9.7-1.9H9V6c0,0,13,0.1,13,2.9v7.2c0,3.9,0,15.9,0,15.9h-2
		L19.6,11.9z"/>
	<g id="Group" transform="translate(9.000000, 26.000000)">
		<rect id="Rectangle-path" x="1" y="-6" class="st1" width="22" height="4"/>
	</g>
</g>
<line class="st2" x1="3.5" y1="0" x2="3.5" y2="17"/>
</svg>
