<?xml version="1.0" encoding="utf-8"?>
<!-- Generator: Adobe Illustrator 24.0.1, SVG Export Plug-In . SVG Version: 6.00 Build 0)  -->
<svg version="1.1" id="Layer_1" xmlns="http://www.w3.org/2000/svg" xmlns:xlink="http://www.w3.org/1999/xlink" x="0px" y="0px"
	 viewBox="0 0 32 32" style="enable-background:new 0 0 32 32;" xml:space="preserve">
<style type="text/css">
	.st0{fill:#FF4164;stroke:#FF4164;stroke-miterlimit:10;}
	.st1{fill:#525252;}
</style>
<title>SmdArray</title>
<desc>Created with Sketch.</desc>
<g id="SmdArray">
	<g id="Group" transform="translate(9.000000, 26.000000)">
		<rect id="Rectangle-path" x="0.5" y="0.5" class="st0" width="22" height="4"/>
	</g>
	<path id="Shape_1_" class="st1" d="M4,1H0v1h4c1.7,0,3,1.3,3,3v11c0,1.7-1.3,3-3,3H0v1h4c2.2,0,4-1.8,4-4V5C8,2.8,6.2,1,4,1z"/>
	<path id="Shape_2_" class="st1" d="M18.8,26c-2.2,0-4.4-1.8-4.8-3.9l-1.3-6.2c-0.5-2.2-1.7-3.9-2.7-3.9H8V9c0,0,1.4,0,3.1,0
		s3.5,1.8,3.9,3.9l1.3,6.2c0.5,2.2,2.6,3.9,4.8,3.9H27v3H18.8z"/>
	<polyline id="Shape-Copy-2" class="st1" points="16,8 28,0 24.5,6.6 32,8 20,16 23.5,9.4 	"/>
</g>
</svg>
