<?xml version="1.0" encoding="utf-8"?>
<!-- Generator: Adobe Illustrator 24.0.1, SVG Export Plug-In . SVG Version: 6.00 Build 0)  -->
<svg version="1.1" id="Layer_1" xmlns="http://www.w3.org/2000/svg" xmlns:xlink="http://www.w3.org/1999/xlink" x="0px" y="0px"
	 viewBox="0 0 32 32" style="enable-background:new 0 0 32 32;" xml:space="preserve">
<style type="text/css">
	.st0{fill:#525252;}
	.st1{fill-rule:evenodd;clip-rule:evenodd;fill:#525252;}
</style>
<title>PaintRoller</title>
<desc>Created with Sketch.</desc>
<g id="PaintRoller">
	<path id="Combined-Shape" class="st0" d="M15.2,9c6.9,0,10.6,0,11,0c0.4,0,0.7-0.4,0.8-1c0-4.2,0-6.5,0-7c0-0.5-0.3-0.8-0.8-1
		C9.7,0,1.2,0,0.8,0S0.2,0.3,0,1c0,4.2,0,6.5,0,7c0,0.7,0.8,1,0.8,1S4.2,9,11,9H15.2z M1,7V2c0-0.6,0.4-1,1-1h23c0.6,0,1,0.4,1,1v5
		c0,0.6-0.4,1-1,1H2C1.4,8,1,7.6,1,7z"/>
	<path id="Path-14" class="st1" d="M26,3h3c1.7,0,3,1.3,3,3v7.1c0,1.1-0.6,2.2-1.7,2.7l-14.1,4.1C16.1,20,15.9,20,15.8,20H12v-1.4
		c0-0.4,0.2-0.7,0.6-0.9l15.9-4.4c0.3-0.2,0.6-0.5,0.6-0.9V7c0-0.6-0.4-1-1-1h-2V3z"/>
	<rect id="Rectangle-2-Copy-3" x="12" y="19" class="st1" width="4" height="13"/>
</g>
</svg>
