<?xml version="1.0" encoding="utf-8"?>
<!-- Generator: Adobe Illustrator 24.0.1, SVG Export Plug-In . SVG Version: 6.00 Build 0)  -->
<svg version="1.1" id="Layer_1" xmlns="http://www.w3.org/2000/svg" xmlns:xlink="http://www.w3.org/1999/xlink" x="0px" y="0px"
	 viewBox="0 0 32 32" style="enable-background:new 0 0 32 32;" xml:space="preserve">
<style type="text/css">
	.st0{fill:#333333;}
	.st1{fill:#999999;}
	.st2{fill-rule:evenodd;clip-rule:evenodd;fill:#333333;}
</style>
<title>Paste</title>
<desc>Created with Sketch.</desc>
<g>
	<path class="st0" d="M17.5,2H16V0.5C16,0.2,15.8,0,15.5,0h-3C12.2,0,12,0.2,12,0.5V2h-1.5C10,2,9.6,2.2,9.3,2.6S8.9,3.5,9.1,4h9.8
		c0.2-0.5,0.1-1-0.2-1.4S18,2,17.5,2z"/>
	<polygon class="st1" points="20,3 20,5 8,5 8,3 3,3 3,28 10,28 10,9 25,9 25,3 	"/>
	<path class="st0" d="M22,10H11v22h18V17L22,10z M28,31H12V11h10v6h6V31z"/>
	<path class="st2" d="M3,27V4V3h5v1H4v23h6v1H3V27z"/>
	<path class="st2" d="M25,4v5h-1V4h-4V3h5V4z"/>
</g>
</svg>
