<svg id="Layer_1" data-name="Layer 1" xmlns="http://www.w3.org/2000/svg" xmlns:xlink="http://www.w3.org/1999/xlink" viewBox="0 0 32 32"><defs><clipPath id="clip-path"><rect x="18" y="18" width="14" height="14" fill="none"/></clipPath></defs><title>Pin</title><g id="Path-12"><path d="M20,5V1H13V30h7" fill="#f3f3f3" fill-rule="evenodd"/></g><g id="Path-10"><path d="M20,32H12V0h8Zm-7-1h6V1H13Z" fill="#333"/></g><g id="Path-11-Copy-2"><path d="M.05,12H12V8H0Z" fill="#00bfbf"/></g><g id="Artwork_35" data-name="Artwork 35"><g clip-path="url(#clip-path)"><g clip-path="url(#clip-path)"><g clip-path="url(#clip-path)"><g opacity="0.8"><g clip-path="url(#clip-path)"><path d="M32,25a7,7,0,1,1-7-7,7,7,0,0,1,7,7"/></g></g></g><polygon points="29.67 23.83 26.17 23.83 26.17 20.33 23.83 20.33 23.83 23.83 20.33 23.83 20.33 26.17 23.83 26.17 23.83 29.67 26.17 29.67 26.17 26.17 29.67 26.17 29.67 23.83" fill="#fff"/></g></g></g></svg>