<svg id="Layer_1" data-name="Layer 1" xmlns="http://www.w3.org/2000/svg" viewBox="0 0 32 32"><title>PinFunctionDot</title><path d="M26.79,15a5.09,5.09,0,0,0-.4-1,5.49,5.49,0,0,0-9.78,0,5.09,5.09,0,0,0-.4,1H14v3h2.21a5.09,5.09,0,0,0,.4,1,5.49,5.49,0,0,0,9.78,0,5.09,5.09,0,0,0,.4-1H31V15Zm-1.55,4a4.5,4.5,0,0,1-7.48,0,4.18,4.18,0,0,1-.48-1,4.16,4.16,0,0,1,0-3,4.6,4.6,0,0,1,.48-1,4.5,4.5,0,0,1,7.48,0,4.18,4.18,0,0,1,.48,1,4.16,4.16,0,0,1,0,3A4.18,4.18,0,0,1,25.24,19Z" fill="#00bfbf"/><polygon points="27.82 18 27.82 18 27.82 18 27.82 18" fill="#999"/><polygon points="27.82 15 27.82 15 27.82 15 27.82 15" fill="#999"/><path d="M17.85,11.12Z" fill="#666"/><path d="M19.55,10.3h0Z" fill="#666"/><path d="M21.5,13A3.5,3.5,0,1,1,18,16.5,3.5,3.5,0,0,1,21.5,13Zm0-1A4.5,4.5,0,1,0,26,16.5,4.49,4.49,0,0,0,21.5,12Z" fill="#00bfbf"/><rect x="1" y="1" width="12" height="30" fill="#f3f3f3"/><path d="M27.5,14a6.5,6.5,0,0,0-12,0H14V0H0V32H14V19h1.5a6.5,6.5,0,0,0,12,0H32V14ZM13,31H1V1H13ZM31,18H26.79a5.09,5.09,0,0,1-.4,1,5.49,5.49,0,0,1-9.78,0,5.09,5.09,0,0,1-.4-1H14V15h2.21a5.09,5.09,0,0,1,.4-1,5.49,5.49,0,0,1,9.78,0,5.09,5.09,0,0,1,.4,1H31Z" fill="#00bfbf"/><rect x="0.5" y="0.5" width="13" height="31" fill="#f3f3f3"/><path d="M13,1V31H1V1H13m1-1H0V32H14V0Z" fill="#333"/></svg>