<svg id="Layer_1" data-name="Layer 1" xmlns="http://www.w3.org/2000/svg" viewBox="0 0 32 32"><title>PinVisiblePad</title><rect x="14" y="25" width="17" height="3" fill="#999"/><rect x="1" y="1" width="12" height="30" fill="#f3f3f3"/><path d="M32,24H14V0H0V32H14V29H32ZM13,31H1V1H13Zm18-3H14V25H31Z" fill="#333"/><path d="M24,20V10H22.48a4.37,4.37,0,0,1-1.16,1.88,3.89,3.89,0,0,1-1.32,1V15a5.21,5.21,0,0,0,2.12-1.64V20H20v2h6V20Z" fill="#666"/><g id="Path-11-Copy-2"><path d="M32,24H14v5H32Z" fill="#00bfbf"/></g></svg>