<svg id="Layer_1" data-name="Layer 1" xmlns="http://www.w3.org/2000/svg" xmlns:xlink="http://www.w3.org/1999/xlink" viewBox="0 0 32 32"><defs><clipPath id="clip-path"><rect x="18" y="18" width="14" height="14" fill="none"/></clipPath></defs><title>PlacePins</title><g id="Path-12"><path d="M26.32,5V1h-7V31h7" fill="#f3f3f3" fill-rule="evenodd"/></g><g id="Path-10"><path d="M26.32,32h-8V0h8Zm-7-1h6V1h-6Z" fill="#333"/></g><g id="Path-11-Copy-2"><path d="M5.37,6h13V2h-13Z" fill="#00bfbf"/></g><g id="Rectangle-Copy-2"><rect x="5.32" y="10" width="13" height="4" fill="#00bfbf"/><path d="M5.82,13.5h12v-3h-12Z" fill="#00bfbf"/></g><g id="Rectangle-Copy-2-2"><rect x="5.32" y="18" width="13" height="4" fill="#00bfbf"/><path d="M5.82,21.5h12v-3h-12Z" fill="#00bfbf"/></g><g id="Rectangle-Copy-2-3"><rect x="5.32" y="26" width="13" height="4" fill="#00bfbf"/><path d="M5.82,29.5h12v-3h-12Z" fill="#00bfbf"/></g><g id="Shape"><polyline points="0 24 12 16 8.47 22.59 16 24 4 32 7.53 25.41" fill="#666"/></g><g id="Artwork_35" data-name="Artwork 35"><g clip-path="url(#clip-path)"><g clip-path="url(#clip-path)"><g clip-path="url(#clip-path)"><g opacity="0.8"><g clip-path="url(#clip-path)"><path d="M32,25a7,7,0,1,1-7-7,7,7,0,0,1,7,7"/></g></g></g><polygon points="29.67 23.83 26.17 23.83 26.17 20.33 23.83 20.33 23.83 23.83 20.33 23.83 20.33 26.17 23.83 26.17 23.83 29.67 26.17 29.67 26.17 26.17 29.67 26.17 29.67 23.83" fill="#fff"/></g></g></g></svg>