<?xml version="1.0" encoding="UTF-8"?>
<svg width="32px" height="32px" viewBox="0 0 32 32" version="1.1" xmlns="http://www.w3.org/2000/svg" xmlns:xlink="http://www.w3.org/1999/xlink">
    <!-- Generator: Sketch 54.1 (76490) - https://sketchapp.com -->
    <title>03-low-density/filter-query/plus-32</title>
    <desc>Created with Sketch.</desc>
    <g id="03-low-density/filter-query/plus-32" stroke="none" stroke-width="1" fill="none" fill-rule="evenodd">
        <path d="M14.5,4.5 L17.5,4.5 C18.0522847,4.5 18.5,4.94771525 18.5,5.5 L18.5,13 L26,13 C26.5522847,13 27,13.4477153 27,14 L27,17 C27,17.5522847 26.5522847,18 26,18 L18.5,18 L18.5,25.5 C18.5,26.0522847 18.0522847,26.5 17.5,26.5 L14.5,26.5 C13.9477153,26.5 13.5,26.0522847 13.5,25.5 L13.5,18 L6,18 C5.44771525,18 5,17.5522847 5,17 L5,14 C5,13.4477153 5.44771525,13 6,13 L13.5,13 L13.5,5.5 C13.5,4.94771525 13.9477153,4.5 14.5,4.5 Z" id="Path-20" stroke="#333333" stroke-width="1.25"></path>
    </g>
</svg>