<svg id="Layer_1" data-name="Layer 1" xmlns="http://www.w3.org/2000/svg" viewBox="0 0 32 32"><title>Pnp</title><polygon points="19.75 32 19.75 23 28.75 23 19.75 32" fill="#666"/><polygon points="19.75 31 18.75 31 15.75 31 5.75 31 5.75 1 27.75 1 27.75 20 27.75 22 27.75 23 28.75 23 28.75 0 4.75 0 4.75 32 19.75 32 19.75 31" fill="#666"/><line x1="21.75" y1="14.5" x2="11.75" y2="14.5" fill="none" stroke="#d98448" stroke-miterlimit="10"/><rect x="3.25" y="2.5" width="25" height="17" stroke-width="0.5" stroke="#24b252" stroke-linecap="round" stroke-linejoin="round" fill="#24b252"/><path d="M13.75,2.5V4.3a4.06,4.06,0,0,0,1,.9V9h.4l.5,2.8h.1l.6-2.8h.4V6.8h0V5.5h.4c.4-.2.7-.5.6-.8V2.5Z" fill="#fff"/><polyline points="21.15 13 23.25 13 23.95 16.3 26.15 16.3" fill="none" stroke="#fff" stroke-linecap="round" stroke-linejoin="round" stroke-width="2"/><polyline points="10.15 13 8.15 13 7.45 16.3 5.15 16.3" fill="none" stroke="#fff" stroke-linecap="round" stroke-linejoin="round" stroke-width="2"/><path d="M21.65,15H9.85a.58.58,0,0,1-.6-.6V12.1a1.11,1.11,0,0,1,1.1-1.1h10.9a1.11,1.11,0,0,1,1.1,1.1v2.3A.86.86,0,0,1,21.65,15Z" fill="#fff"/><rect x="15.25" y="10.7" width="1" height="0.5" fill="#fff"/></svg>