<svg id="Layer_1" data-name="Layer 1" xmlns="http://www.w3.org/2000/svg" viewBox="0 0 32 32"><title>PositionBottomLeft</title><rect x="4.8" y="4.8" width="22" height="22" fill="none" stroke="#999" stroke-width="2"/><rect id="path-1" x="1.8" y="1.8" width="6.5" height="6.5" fill="#d9d9d9"/><rect x="2.6" y="2.6" width="4.9" height="4.9" fill="none" stroke="#999" stroke-width="1.6"/><rect id="path-2" x="23.8" y="1.8" width="6.4" height="6.4" fill="#d9d9d9"/><rect x="24.55" y="2.55" width="4.9" height="4.9" fill="none" stroke="#999" stroke-width="1.5"/><rect id="path-3" x="12.8" y="1.8" width="6.4" height="6.4" fill="#d9d9d9"/><rect x="13.55" y="2.55" width="4.9" height="4.9" fill="none" stroke="#999" stroke-width="1.5"/><rect id="path-4" x="1.8" y="23.8" width="6.4" height="6.4" fill="#67b1e6"/><rect x="2.55" y="24.55" width="4.9" height="4.9" fill="none" stroke="#67b1e6" stroke-width="1.5"/><rect id="path-5" x="23.8" y="23.8" width="6.4" height="6.4" fill="#d9d9d9"/><rect x="24.55" y="24.55" width="4.9" height="4.9" fill="none" stroke="#999" stroke-width="1.5"/><rect id="path-6" x="12.8" y="23.8" width="6.4" height="6.4" fill="#d9d9d9"/><rect x="13.55" y="24.55" width="4.9" height="4.9" fill="none" stroke="#999" stroke-width="1.5"/><rect id="path-7" x="1.8" y="12.8" width="6.4" height="6.4" fill="#d9d9d9"/><rect x="2.6" y="13.6" width="4.8" height="4.8" fill="none" stroke="#999" stroke-width="1.6"/><rect id="path-8" x="23.8" y="12.8" width="6.4" height="6.4" fill="#d9d9d9"/><rect x="24.55" y="13.55" width="4.9" height="4.9" fill="none" stroke="#999" stroke-width="1.5"/><rect id="path-9" x="12.8" y="12.8" width="6.4" height="6.4" fill="#d9d9d9"/><rect x="13.55" y="13.55" width="4.9" height="4.9" fill="none" stroke="#999" stroke-width="1.5"/></svg>