<?xml version="1.0" encoding="utf-8"?>
<!-- Generator: Adobe Illustrator 24.0.1, SVG Export Plug-In . SVG Version: 6.00 Build 0)  -->
<svg version="1.1" id="Layer_1" xmlns="http://www.w3.org/2000/svg" xmlns:xlink="http://www.w3.org/1999/xlink" x="0px" y="0px"
	 viewBox="0 0 32 32" style="enable-background:new 0 0 32 32;" xml:space="preserve">
<style type="text/css">
	.st0{fill:#525252;}
	.st1{fill:#D9D9D9;}
	.st2{fill:#999999;}
</style>
<title>Print</title>
<desc>Created with Sketch.</desc>
<g>
	<path class="st0" d="M30.9,6h-1.1H26V0H6v6H2.3H0v2v16v1.1V26h6v6h20v-6h6v-0.9V24V6H30.9z M7,1h18v11H7V1z M25,31H7V20h18V31z
		 M31,25h-4v-6h-0.7H5.7H5v6H1V7h4v6h1h20h1V7h4V25z"/>
	<rect x="8" y="20" class="st1" width="16" height="10"/>
	<polygon class="st2" points="1,16 1,18 1,19 1,25 5,25 5,19 27,19 27,25 31,25 31,19 31,16 	"/>
</g>
</svg>
