<?xml version="1.0" encoding="utf-8"?>
<!-- Generator: Adobe Illustrator 24.0.1, SVG Export Plug-In . SVG Version: 6.00 Build 0)  -->
<svg version="1.1" id="Layer_1" xmlns="http://www.w3.org/2000/svg" xmlns:xlink="http://www.w3.org/1999/xlink" x="0px" y="0px"
	 viewBox="0 0 32 32" style="enable-background:new 0 0 32 32;" xml:space="preserve">
<style type="text/css">
	.st0{fill:#666666;}
	.st1{fill:#30A0FB;}
</style>
<title>QuickRouteMultiAirwire</title>
<desc>Created with Sketch.</desc>
<g>
	<polygon class="st0" points="0,23.5 12.8,15 9,22 17,23.5 4.2,32 8,25 	"/>
	<polygon class="st1" points="22,22 22,10 0,10 0,13 19,13 19,23 26.3,32 30.1,32 	"/>
	<polygon class="st1" points="27,18.4 27,5 0,5 0,8 24,8 24,19.6 32,29 32,24.3 	"/>
	<polygon class="st1" points="32,8 32,0 0,0 0,3 29,3 29,16.6 32,20 32,15.4 	"/>
</g>
</svg>
