<?xml version="1.0" encoding="utf-8"?>
<!-- Generator: Adobe Illustrator 24.0.1, SVG Export Plug-In . SVG Version: 6.00 Build 0)  -->
<svg version="1.1" id="Layer_1" xmlns="http://www.w3.org/2000/svg" xmlns:xlink="http://www.w3.org/1999/xlink" x="0px" y="0px"
	 viewBox="0 0 32 32" style="enable-background:new 0 0 32 32;" xml:space="preserve">
<style type="text/css">
	.st0{fill:#666666;}
	.st1{fill:#30A0FB;}
</style>
<title>QuickRouteSmooth</title>
<desc>Created with Sketch.</desc>
<g>
	<polygon class="st0" points="14.5,18.3 15.8,21.8 19.7,23.5 15.8,24.3 14.5,28.7 13.1,24.3 9.3,23.5 13.1,21.8 	"/>
	<polygon class="st0" points="7.5,7 9.2,11.4 14,13.5 9.2,14.5 7.5,20 5.7,14.5 1,13.5 5.7,11.4 	"/>
	<polygon class="st0" points="4.5,22.9 5.4,25.3 8.1,26.5 5.4,27.1 4.5,30.1 3.5,27.1 0.9,26.5 3.5,25.3 	"/>
	<polygon class="st1" points="30.6,32 18,16.5 18,5 0,5 0,2 21,2 21,15.5 32,29 32,32 	"/>
</g>
</svg>
