<svg id="Layer_1" data-name="Layer 1" xmlns="http://www.w3.org/2000/svg" xmlns:xlink="http://www.w3.org/1999/xlink" viewBox="0 0 40 40"><defs><clipPath id="clip-path"><rect x="28.59" y="28.59" width="11.19" height="11.19" fill="none"/></clipPath><clipPath id="clip-path-4"><rect width="11.19" height="11.19" fill="none"/></clipPath></defs><title>Ripup</title><polygon points="27.35 15.16 24.61 12.43 20.51 16.53 16.41 12.43 13.67 15.16 17.77 19.27 13.67 23.37 16.41 26.1 20.51 22 24.61 26.1 27.35 23.37 23.24 19.27 27.35 15.16" fill="#f33"/><path d="M10.81,3.73a5,5,0,0,1,.38,1.86,5,5,0,0,1-.38,1.87h7.84v5.22l1.86,1.86,1.86-1.86V3.73Z" fill="#30a0fb"/><path d="M29.88,31.57c.62-1.12,1.9-1.6,3-2.22l-4.21-4.48-2.64,2.49" fill="#30a0fb"/><g id="Artwork_9" data-name="Artwork 9"><g clip-path="url(#clip-path)"><g clip-path="url(#clip-path)"><path d="M34.18,39A4.85,4.85,0,1,1,39,34.18,4.85,4.85,0,0,1,34.18,39Zm0-8.7A3.85,3.85,0,1,0,38,34.18,3.86,3.86,0,0,0,34.18,30.33Z" fill="#f0f0f0"/></g><g clip-path="url(#clip-path)"><path d="M34.18,29.83a4.35,4.35,0,0,1,0,8.7,4.25,4.25,0,0,1-4.35-4.35,4.33,4.33,0,0,1,4.35-4.35m0-1.24a5.6,5.6,0,1,0,5.6,5.59,5.57,5.57,0,0,0-5.6-5.59" fill="#666"/></g></g></g><g id="Artwork_9-2" data-name="Artwork 9"><g clip-path="url(#clip-path-4)"><g clip-path="url(#clip-path-4)"><path d="M5.59,10.44a4.85,4.85,0,1,1,4.85-4.85A4.85,4.85,0,0,1,5.59,10.44Zm0-8.7A3.85,3.85,0,1,0,9.44,5.59,3.86,3.86,0,0,0,5.59,1.74Z" fill="#f0f0f0"/></g><g clip-path="url(#clip-path-4)"><path d="M5.59,1.24A4.32,4.32,0,0,1,9.94,5.59,4.31,4.31,0,0,1,5.59,9.94,4.25,4.25,0,0,1,1.24,5.59,4.33,4.33,0,0,1,5.59,1.24M5.59,0a5.6,5.6,0,1,0,5.6,5.59A5.57,5.57,0,0,0,5.59,0" fill="#666"/></g></g></g></svg>