<svg id="Layer_1" data-name="Layer 1" xmlns="http://www.w3.org/2000/svg" viewBox="0 0 40 40"><title>RipupElementToElement</title><path d="M4,4V0H7V4h4V8H7v4H4V8H0V4Z" fill="#666"/><path d="M32,32V28h4v4h4v4H36v4H32V36H28V32Z" fill="#666"/><polygon points="16.55 26.76 13.24 23.45 8.27 28.42 3.31 23.45 0 26.76 4.96 31.73 0 36.69 3.31 40 8.27 35.04 13.24 40 16.55 36.69 11.58 31.73 16.55 26.76" fill="#f33"/><polygon points="25.66 8 13 8 13 4 26.69 4 36 12.93 36 26 32 26 32 14.28 25.66 8" fill="#30a0fb"/></svg>