<svg id="Layer_1" data-name="Layer 1" xmlns="http://www.w3.org/2000/svg" xmlns:xlink="http://www.w3.org/1999/xlink" viewBox="0 0 40 40"><defs><clipPath id="clip-path"><rect x="15.02" y="7.9" width="17.81" height="17.81" fill="none"/></clipPath></defs><title>RipupConnectedCopperOnLayer</title><path d="M26.32,5.88A13.26,13.26,0,0,0,22,5.73h-.31V4.64H0V0H26.32Z" fill="#ff4164"/><path d="M30.19,26,40,38v2H35.66l-10-12.29h.16A15,15,0,0,0,30.19,26Z" fill="#ff4164"/><g id="Artwork_9" data-name="Artwork 9"><g clip-path="url(#clip-path)"><g clip-path="url(#clip-path)"><path d="M23.84,24.48a7.61,7.61,0,1,1,7.61-7.6A7.61,7.61,0,0,1,23.84,24.48Zm0-13.93a6.33,6.33,0,1,0,6.33,6.33A6.34,6.34,0,0,0,23.84,10.55Z" fill="#f0f0f0"/></g><g clip-path="url(#clip-path)"><path d="M23.84,9.91a7,7,0,1,1,0,13.93,6.71,6.71,0,0,1-6.81-7,6.91,6.91,0,0,1,6.81-7m0-2A8.72,8.72,0,0,0,15,16.72a8.83,8.83,0,1,0,17.65,0A8.72,8.72,0,0,0,23.84,7.9" fill="#666"/></g></g></g><polygon points="15.02 27.87 12.02 24.87 7.52 29.37 3.02 24.87 0.02 27.87 4.52 32.37 0.02 36.87 3.02 39.87 7.52 35.37 12.02 39.87 15.02 36.87 10.52 32.37 15.02 27.87" fill="#f33"/></svg>