<svg id="Layer_1" data-name="Layer 1" xmlns="http://www.w3.org/2000/svg" xmlns:xlink="http://www.w3.org/1999/xlink" viewBox="0 0 40 40"><defs><clipPath id="clip-path"><rect x="22.84" y="22.61" width="17.16" height="17.16" fill="none"/></clipPath></defs><title>RipupConnectedPath</title><path d="M26.72,21.87a12,12,0,0,0-3.59,2.53L20.9,21.87V4.7H0V.22H25.37V20.37Z" fill="#30a0fb"/><polygon points="16.42 26.74 13.13 23.45 8.21 28.38 3.28 23.45 0 26.74 4.92 31.66 0 36.59 3.28 39.87 8.21 34.95 13.13 39.87 16.42 36.59 11.49 31.66 16.42 26.74" fill="#f33"/><g id="Artwork_9" data-name="Artwork 9"><g clip-path="url(#clip-path)"><g clip-path="url(#clip-path)"><path d="M31.34,38.47a7.35,7.35,0,1,1,7.36-7.35A7.36,7.36,0,0,1,31.34,38.47Zm0-13.43a6.08,6.08,0,1,0,6.08,6.08A6.09,6.09,0,0,0,31.34,25Z" fill="#f0f0f0"/></g><g clip-path="url(#clip-path)"><path d="M31.34,24.55a6.72,6.72,0,1,1,0,13.44,6.51,6.51,0,0,1-6.71-6.72,6.69,6.69,0,0,1,6.71-6.72m0-1.94a8.51,8.51,0,1,0,8.51,8.51,8.41,8.41,0,0,0-8.51-8.51" fill="#666"/></g></g></g></svg>