<svg id="Layer_1" data-name="Layer 1" xmlns="http://www.w3.org/2000/svg" xmlns:xlink="http://www.w3.org/1999/xlink" viewBox="0 0 40 40"><defs><clipPath id="clip-path"><rect x="1" width="14.3" height="14.3" fill="none"/></clipPath></defs><title>RipupSignal</title><path d="M6.11,15.75a9,9,0,0,0,3.7.13h.13v9.45L16.33,33h4.59l1.66,1.66-2.17,2.17H14.92L6.11,26.22ZM32.54,36.69l-2.17-2.17L32,32.86h7.28v3.83Z" fill="#30a0fb"/><polygon points="31.65 31.71 29.61 29.67 26.54 32.73 23.48 29.67 21.43 31.71 24.5 34.78 21.43 37.84 23.48 39.88 26.54 36.82 29.61 39.88 31.65 37.84 28.59 34.78 31.65 31.71" fill="#f33" fill-rule="evenodd"/><path d="M16.58,4.85H21.3l1.92,1.92L21.3,8.68H16.83a10.17,10.17,0,0,0,0-2.81A9.55,9.55,0,0,0,16.58,4.85Zm15.32,0h7.41V8.68H31.9L30,6.77Z" fill="#30a0fb"/><polygon points="31.64 3.58 29.6 1.53 26.54 4.6 23.47 1.53 21.43 3.58 24.5 6.64 21.43 9.7 23.47 11.75 26.54 8.68 29.6 11.75 31.64 9.7 28.58 6.64 31.64 3.58" fill="#f33"/><g id="Artwork_9" data-name="Artwork 9"><g clip-path="url(#clip-path)"><g clip-path="url(#clip-path)"><path d="M8.15,13.39a6.24,6.24,0,1,1,6.24-6.24A6.25,6.25,0,0,1,8.15,13.39Zm0-11.23a5,5,0,1,0,5,5A5,5,0,0,0,8.15,2.16Z" fill="#f0f0f0"/></g><g clip-path="url(#clip-path)"><path d="M8.15,1.53a5.62,5.62,0,0,1,0,11.24A5.51,5.51,0,0,1,2.53,7.15,5.59,5.59,0,0,1,8.15,1.53M8.15,0A7.15,7.15,0,1,0,15.3,7.15,7.14,7.14,0,0,0,8.15,0" fill="#666"/></g></g></g></svg>