<svg id="Layer_1" data-name="Layer 1" xmlns="http://www.w3.org/2000/svg" xmlns:xlink="http://www.w3.org/1999/xlink" viewBox="0 0 40 40"><defs><clipPath id="clip-path"><rect x="16.67" y="8.02" width="17.39" height="17.39" fill="none"/></clipPath></defs><title>RipupTracesVias</title><path d="M27.71,6.2a13.2,13.2,0,0,0-4.23-.15h-.3V4.54H2V0H27.71Z" fill="#30a0fb"/><path d="M31.19,25.71l7.72,10.44-3.63,2.72L26.65,27.38A5.64,5.64,0,0,0,28,27.21,8.38,8.38,0,0,0,31.19,25.71Z" fill="#ff4164"/><g id="Artwork_9" data-name="Artwork 9"><g clip-path="url(#clip-path)"><g clip-path="url(#clip-path)"><path d="M25.29,24.08a7.45,7.45,0,1,1,7.45-7.44A7.45,7.45,0,0,1,25.29,24.08Zm0-13.61a6.17,6.17,0,1,0,6.17,6.17A6.18,6.18,0,0,0,25.29,10.47Z" fill="#f0f0f0"/></g><g clip-path="url(#clip-path)"><path d="M25.29,9.83a6.81,6.81,0,1,1,0,13.61,6.47,6.47,0,0,1-6.65-6.8,6.75,6.75,0,0,1,6.65-6.81m0-1.81a8.52,8.52,0,0,0-8.62,8.62,8.62,8.62,0,1,0,17.24,0A8.52,8.52,0,0,0,25.29,8" fill="#666"/></g></g></g><polygon points="17.01 26.6 13.7 23.3 8.74 28.26 3.77 23.3 0.47 26.6 5.43 31.57 0.47 36.53 3.77 39.84 8.74 34.88 13.7 39.84 17.01 36.53 12.05 31.57 17.01 26.6" fill="#f33"/></svg>