<svg id="Layer_1" data-name="Layer 1" xmlns="http://www.w3.org/2000/svg" xmlns:xlink="http://www.w3.org/1999/xlink" viewBox="0 0 32 32"><defs><clipPath id="clip-path"><rect x="22.75" y="23" width="9" height="9" fill="none"/></clipPath><clipPath id="clip-path-4"><rect x="0.25" width="9" height="9" fill="none"/></clipPath></defs><title>Route</title><path d="M26.15,23.3l-5.1-6.8V3H8.75a4,4,0,0,1,.3,1.5A4,4,0,0,1,8.75,6h9.3V17.5l5.7,7.6A4,4,0,0,1,26.15,23.3Z" fill="#30a0fb"/><g id="Artwork_9" data-name="Artwork 9"><g clip-path="url(#clip-path)"><g clip-path="url(#clip-path)"><path d="M27.25,31.5a4,4,0,1,1,4-4A4,4,0,0,1,27.25,31.5Zm0-7a3,3,0,1,0,3,3A3,3,0,0,0,27.25,24.5Z" fill="#f0f0f0"/></g><g clip-path="url(#clip-path)"><path d="M27.25,24a3.5,3.5,0,0,1,0,7,3.42,3.42,0,0,1-3.5-3.5,3.48,3.48,0,0,1,3.5-3.5m0-1a4.5,4.5,0,1,0,4.5,4.5,4.48,4.48,0,0,0-4.5-4.5" fill="#666"/></g></g></g><g id="Artwork_9-2" data-name="Artwork 9"><g clip-path="url(#clip-path-4)"><g clip-path="url(#clip-path-4)"><path d="M4.75,8.5a4,4,0,1,1,4-4A4,4,0,0,1,4.75,8.5Zm0-7a3,3,0,1,0,3,3A3,3,0,0,0,4.75,1.5Z" fill="#f0f0f0"/></g><g clip-path="url(#clip-path-4)"><path d="M4.75,1a3.5,3.5,0,0,1,0,7,3.42,3.42,0,0,1-3.5-3.5A3.48,3.48,0,0,1,4.75,1m0-1a4.5,4.5,0,1,0,4.5,4.5A4.48,4.48,0,0,0,4.75,0" fill="#666"/></g></g></g></svg>