<?xml version="1.0" encoding="utf-8"?>
<!-- Generator: Adobe Illustrator 24.0.1, SVG Export Plug-In . SVG Version: 6.00 Build 0)  -->
<svg version="1.1" id="Layer_1" xmlns="http://www.w3.org/2000/svg" xmlns:xlink="http://www.w3.org/1999/xlink" x="0px" y="0px"
	 viewBox="0 0 32 32" style="enable-background:new 0 0 32 32;" xml:space="preserve">
<style type="text/css">
	.st0{fill:#666666;}
	.st1{fill-rule:evenodd;clip-rule:evenodd;fill:#666666;}
</style>
<title>Show</title>
<desc>Created with Sketch.</desc>
<g>
	<g>
		<path class="st0" d="M27.7,10.2c-6.4-7.1-17.3-6.9-23.5,0c-0.1,0.2-0.3,0.4-0.5,0.6c-0.4,0.5-0.7,1-1,1.5
			c-0.3,0.4-0.5,0.8-0.7,1.2c-0.6,1-0.9,1.9-0.9,2.7c0,0.7,0.3,1.5,0.8,2.5C2,19,2.2,19.4,2.5,19.8c0.3,0.5,0.6,1,0.9,1.4
			c0.2,0.3,0.3,0.5,0.4,0.6c6.7,7.8,17.7,7.8,24.6-0.5c0.4-0.4,0.9-1.2,1.3-1.9c0.7-1.2,1.1-2.3,1-3.3
			C30.7,14.5,28.9,11.6,27.7,10.2z M9.4,16.3c0-3.6,2.9-6.5,6.5-6.5s6.5,2.9,6.5,6.5s-2.9,6.5-6.5,6.5S9.4,19.9,9.4,16.3z"/>
	</g>
	<circle class="st1" cx="15.9" cy="16.3" r="4"/>
</g>
</svg>
