<svg id="Layer_1" data-name="Layer 1" xmlns="http://www.w3.org/2000/svg" xmlns:xlink="http://www.w3.org/1999/xlink" viewBox="0 0 32 32"><defs><clipPath id="clip-path"><rect x="22" y="1" width="9" height="9" fill="none"/></clipPath><clipPath id="clip-path-4"><rect x="22" y="23" width="9" height="9" fill="none"/></clipPath><clipPath id="clip-path-7"><rect y="1" width="9" height="9" fill="none"/></clipPath></defs><title>Signal</title><rect x="25" y="20.5" width="3" height="4" fill="#30a0fb"/><rect x="25" y="14.5" width="3" height="4" fill="#30a0fb"/><rect x="25" y="8.5" width="3" height="4" fill="#30a0fb"/><rect x="7.5" y="4" width="4" height="3" fill="#30a0fb"/><rect x="13.5" y="4" width="4" height="3" fill="#30a0fb"/><rect x="19.5" y="4" width="4" height="3" fill="#30a0fb"/><g id="Artwork_9" data-name="Artwork 9"><g clip-path="url(#clip-path)"><g clip-path="url(#clip-path)"><path d="M26.5,9.5a4,4,0,1,1,4-4A4,4,0,0,1,26.5,9.5Zm0-7a3,3,0,1,0,3,3A3,3,0,0,0,26.5,2.5Z" fill="#f0f0f0"/></g><g clip-path="url(#clip-path)"><path d="M26.5,2a3.5,3.5,0,0,1,0,7A3.42,3.42,0,0,1,23,5.5,3.48,3.48,0,0,1,26.5,2m0-1A4.5,4.5,0,1,0,31,5.5,4.48,4.48,0,0,0,26.5,1" fill="#666"/></g></g></g><g id="Artwork_9-2" data-name="Artwork 9"><g clip-path="url(#clip-path-4)"><g clip-path="url(#clip-path-4)"><path d="M26.5,31.5a4,4,0,1,1,4-4A4,4,0,0,1,26.5,31.5Zm0-7a3,3,0,1,0,3,3A3,3,0,0,0,26.5,24.5Z" fill="#f0f0f0"/></g><g clip-path="url(#clip-path-4)"><path d="M26.5,24a3.5,3.5,0,0,1,0,7A3.42,3.42,0,0,1,23,27.5,3.48,3.48,0,0,1,26.5,24m0-1A4.5,4.5,0,1,0,31,27.5,4.48,4.48,0,0,0,26.5,23" fill="#666"/></g></g></g><g id="Artwork_9-3" data-name="Artwork 9"><g clip-path="url(#clip-path-7)"><g clip-path="url(#clip-path-7)"><path d="M4.5,9.5a4,4,0,1,1,4-4A4,4,0,0,1,4.5,9.5Zm0-7a3,3,0,1,0,3,3A3,3,0,0,0,4.5,2.5Z" fill="#f0f0f0"/></g><g clip-path="url(#clip-path-7)"><path d="M4.5,2a3.5,3.5,0,0,1,0,7A3.42,3.42,0,0,1,1,5.5,3.48,3.48,0,0,1,4.5,2m0-1A4.5,4.5,0,1,0,9,5.5,4.48,4.48,0,0,0,4.5,1" fill="#666"/></g></g></g></svg>