<?xml version="1.0" encoding="utf-8"?>
<!-- Generator: Adobe Illustrator 23.0.3, SVG Export Plug-In . SVG Version: 6.00 Build 0)  -->
<svg version="1.1" id="Layer_1" xmlns="http://www.w3.org/2000/svg" xmlns:xlink="http://www.w3.org/1999/xlink" x="0px" y="0px"
	 viewBox="0 0 32 32" style="enable-background:new 0 0 32 32;" xml:space="preserve">
<style type="text/css">
	.st0{fill:#F3F3F3;}
	.st1{fill:#BBBBBB;}
	.st2{fill:#333333;}
</style>
<title>SimCurrentProbe</title>
<desc>Created with Sketch.</desc>
<g>
	<path class="st0" d="M28,11.4c0-6-4.6-10.9-10.5-11.4v6.6c2,0.5,3.5,2.2,3.5,4.4c0,2.5-2,4.5-4.5,4.5s-4.5-2-4.5-4.5
		c0-2.1,1.5-3.9,3.5-4.4V0C9.6,0.5,5,5.4,5,11.4c0,3.4,1.5,6.4,3.8,8.5l-2.3,12h20l-2.3-12C26.5,17.8,28,14.8,28,11.4z"/>
	<polygon class="st1" points="19.1,19.9 13.1,19.9 10.1,30.9 22.1,30.9 	"/>
	<path class="st2" d="M18.5,1.1C23.3,2.1,27,6.4,27,11.4c0,2.9-1.3,5.8-3.5,7.8l-0.4,0.4l0.1,0.5l2.1,10.8H7.7l2.1-10.8l0.1-0.5
		l-0.4-0.4c-2.2-2-3.5-4.8-3.5-7.8c0-5,3.7-9.4,8.5-10.3v4.7C12.4,6.6,11,8.6,11,10.9c0,3,2.5,5.5,5.5,5.5S22,14,22,10.9
		c0-2.3-1.4-4.3-3.5-5.1L18.5,1.1L18.5,1.1z M17.5,0v6.6c2,0.5,3.5,2.2,3.5,4.4c0,2.5-2,4.5-4.5,4.5s-4.5-2-4.5-4.5
		c0-2.1,1.5-3.9,3.5-4.4V0C9.6,0.5,5,5.4,5,11.4c0,3.4,1.5,6.4,3.8,8.5l-2.3,12h20l-2.3-12c2.3-2.1,3.8-5.1,3.8-8.5
		C28,5.4,23.4,0.5,17.5,0z"/>
</g>
</svg>
