<?xml version="1.0" encoding="utf-8"?>
<!-- Generator: Adobe Illustrator 23.0.3, SVG Export Plug-In . SVG Version: 6.00 Build 0)  -->
<svg version="1.1" id="Layer_1" xmlns="http://www.w3.org/2000/svg" xmlns:xlink="http://www.w3.org/1999/xlink" x="0px" y="0px"
	 viewBox="0 0 32 32" style="enable-background:new 0 0 32 32;" xml:space="preserve">
<style type="text/css">
	.st0{fill:none;stroke:#666666;stroke-width:1.0278;stroke-miterlimit:10;}
	.st1{fill:none;stroke:#999999;stroke-miterlimit:10;}
	.st2{fill:none;stroke:#999999;stroke-width:1.0212;stroke-miterlimit:10;}
	.st3{fill:none;stroke:#666666;stroke-width:1.0212;stroke-miterlimit:10;}
	.st4{fill:#00BFBF;stroke:#A6F8FF;stroke-width:0.521;stroke-miterlimit:10;}
	.st5{fill:#666666;}
	.st6{fill:#333333;}
	.st7{fill:#F3F3F3;}
	.st8{fill-rule:evenodd;clip-rule:evenodd;fill:#666666;}
</style>
<polygon class="st0" points="23.5,5.2 19.8,0.5 0.5,0.5 0.5,29.5 23.5,29.5 "/>
<title>SimAddModelGry</title>
<desc>Created with Sketch.</desc>
<line class="st1" x1="3" y1="8.5" x2="21" y2="8.5"/>
<line class="st2" x1="3" y1="11.5" x2="16" y2="11.5"/>
<line class="st2" x1="3" y1="14.5" x2="16" y2="14.5"/>
<line class="st2" x1="3" y1="17.5" x2="18" y2="17.5"/>
<line class="st2" x1="3" y1="20.5" x2="13" y2="20.5"/>
<line class="st3" x1="19.8" y1="0.5" x2="23.5" y2="5.2"/>
<polyline class="st3" points="23,5.5 18.5,5.5 18.5,1 "/>
<path class="st4" d="M17.2,21.3c-2.2,0-3.8-4.3-5.7-9.3C10.1,8.4,8.3,3.6,7,3.6c-1.5,0-3.3,4.7-4.1,7.9L1.6,11C2,9.5,4,2.1,7,2.1
	c2.2,0,3.8,4.3,5.7,9.3c1.4,3.5,3.2,8.4,4.5,8.4c1.5,0,2.8-4.5,3.4-7.9l1.4,0.2C20.6,20.8,17.8,21.3,17.2,21.3z"/>
<title>SimSourceDigital</title>
<desc>Created with Sketch.</desc>
<g id="SimSourceDigital">
	<path id="Shape" class="st5" d="M31.8,25.9v-2.3h-2c-0.1-0.6-0.4-1.2-0.7-1.7l1.4-1.4l-1.6-1.6l-1.4,1.4c-0.5-0.3-1.1-0.6-1.7-0.7
		v-2h-2.3v2c-0.6,0.1-1.2,0.4-1.7,0.7l-1.4-1.4l-1.6,1.6l1.4,1.4c-0.3,0.5-0.6,1.1-0.7,1.7h-2v2.3h2c0.1,0.6,0.4,1.2,0.7,1.7
		L18.8,29l1.6,1.6l1.4-1.4c0.5,0.3,1.1,0.6,1.7,0.7v2h2.3v-2c0.6-0.1,1.2-0.4,1.7-0.7l1.4,1.4l1.6-1.6l-1.4-1.4
		c0.3-0.5,0.6-1.1,0.7-1.7L31.8,25.9L31.8,25.9z"/>
	<path class="st5" d="M29.4,25.8l0.1-0.4h1.9v-1.4h-1.9l-0.1-0.4c-0.1-0.5-0.3-1.1-0.6-1.5l-0.2-0.3l1.3-1.3l-1-1l-1.3,1.3l-0.3-0.2
		c-0.5-0.3-1-0.5-1.5-0.6L25.4,20v-1.9H24V20l-0.4,0.1c-0.5,0.1-1.1,0.3-1.5,0.6l-0.3,0.2l-1.3-1.3l-1,1l1.3,1.3l-0.2,0.3
		c-0.3,0.5-0.5,1-0.6,1.5l-0.1,0.4H18v1.4h1.9l0.1,0.4c0.1,0.5,0.3,1.1,0.6,1.5l0.2,0.3L19.5,29l1,1l1.3-1.3l0.3,0.2
		c0.5,0.3,1,0.5,1.5,0.6l0.4,0.1v1.9h1.4v-1.9l0.4-0.1c0.5-0.1,1.1-0.3,1.5-0.6l0.3-0.2l1.3,1.3l1-1l-1.3-1.3l0.2-0.3
		C29.1,26.9,29.3,26.4,29.4,25.8"/>
	<path class="st6" d="M31.8,23.6h-2c-0.1-0.6-0.4-1.2-0.7-1.7l1.4-1.4l-1.6-1.6l-1.4,1.4c-0.5-0.3-1.1-0.6-1.7-0.7v-2h-2.3v2
		c-0.6,0.1-1.2,0.4-1.7,0.7l-1.4-1.4l-1.6,1.6l1.4,1.4c-0.3,0.5-0.6,1.1-0.7,1.7h-2v2.3h2c0.1,0.6,0.4,1.2,0.7,1.7L18.8,29l1.6,1.6
		l1.4-1.4c0.5,0.3,1.1,0.6,1.7,0.7v2h2.3v-2c0.6-0.1,1.2-0.4,1.7-0.7l1.4,1.4l1.6-1.6l-1.4-1.4c0.3-0.5,0.6-1.1,0.7-1.7h2V23.6z"/>
	<path class="st7" d="M29.4,25.8l0.1-0.4h1.9v-1.4h-1.9l-0.1-0.4c-0.1-0.5-0.3-1.1-0.6-1.5l-0.2-0.3l1.3-1.3l-1-1l-1.3,1.3l-0.3-0.2
		c-0.5-0.3-1-0.5-1.5-0.6L25.4,20v-1.9H24V20l-0.4,0.1c-0.5,0.1-1.1,0.3-1.5,0.6l-0.3,0.2l-1.3-1.3l-1,1l1.3,1.3l-0.2,0.3
		c-0.3,0.5-0.5,1-0.6,1.5l-0.1,0.4H18v1.4h1.9l0.1,0.4c0.1,0.5,0.3,1.1,0.6,1.5l0.2,0.3L19.5,29l1,1l1.3-1.3l0.3,0.2
		c0.5,0.3,1,0.5,1.5,0.6l0.4,0.1v1.9h1.4v-1.9l0.4-0.1c0.5-0.1,1.1-0.3,1.5-0.6l0.3-0.2l1.3,1.3l1-1l-1.3-1.3l0.2-0.3
		C29.1,26.9,29.3,26.4,29.4,25.8"/>
	<circle id="Oval" class="st8" cx="24.7" cy="24.8" r="3.9"/>
</g>
</svg>
