<?xml version="1.0" encoding="utf-8"?>
<!-- Generator: Adobe Illustrator 24.0.1, SVG Export Plug-In . SVG Version: 6.00 Build 0)  -->
<svg version="1.1" id="Layer_1" xmlns="http://www.w3.org/2000/svg" xmlns:xlink="http://www.w3.org/1999/xlink" x="0px" y="0px"
	 viewBox="0 0 32 32" style="enable-background:new 0 0 32 32;" xml:space="preserve">
<style type="text/css">
	.st0{fill:#666666;}
	.st1{fill:none;stroke:#D98448;stroke-miterlimit:10;}
	.st2{fill:#00BFBF;stroke:#00BFBF;stroke-width:0.5;stroke-linecap:round;stroke-linejoin:round;stroke-miterlimit:10;}
	.st3{fill:#00BFBF;stroke:#FFFFFF;stroke-width:2;stroke-miterlimit:10;}
</style>
<title>Scr</title>
<desc>Created with Sketch.</desc>
<g>
	
		<g transform="translate(18.000000, 16.000000) rotate(90.000000) translate(-18.000000, -16.000000) translate(2.000000, 4.000000)">
		<polygon class="st0" points="32,9 23,9 23,0 		"/>
		<polygon class="st0" points="31,9 31,10 31,13 31,23 1,23 1,1 20,1 22,1 23,1 23,0 0,0 0,24 32,24 32,9 		"/>
	</g>
</g>
<line class="st1" x1="23" y1="14.5" x2="13" y2="14.5"/>
<rect x="4.7" y="2.5" class="st2" width="24.5" height="17"/>
<path class="st3" d="M22.1,17.4c-2,0-3.5-2.9-5.3-6.2c-1.3-2.4-3-5.6-4.2-5.6c-1.4,0-3.1,3.1-3.8,5.3l-1.2-0.3c0.4-1,2.2-5.9,5-5.9
	c2,0,3.5,2.9,5.3,6.2c1.3,2.3,3,5.6,4.2,5.6c1.4,0,2.6-3,3.2-5.3l1.3,0.1C25.2,17.1,22.6,17.4,22.1,17.4z"/>
</svg>
