<?xml version="1.0" encoding="utf-8"?>
<!-- Generator: Adobe Illustrator 23.0.3, SVG Export Plug-In . SVG Version: 6.00 Build 0)  -->
<svg version="1.1" id="Layer_1" xmlns="http://www.w3.org/2000/svg" xmlns:xlink="http://www.w3.org/1999/xlink" x="0px" y="0px"
	 viewBox="0 0 32 32" style="enable-background:new 0 0 32 32;" xml:space="preserve">
<style type="text/css">
	.st0{fill:#666666;}
	.st1{fill:#333333;}
	.st2{fill:#F3F3F3;}
	.st3{fill-rule:evenodd;clip-rule:evenodd;fill:#666666;}
	.st4{fill:#00BFBF;stroke:#A6F8FF;stroke-width:0.5698;stroke-miterlimit:10;}
</style>
<title>SimSourceAnalog</title>
<desc>Created with Sketch.</desc>
<g id="SimSourceAnalog">
	<path id="Shape" class="st0" d="M31,18v-5h-4.3c-0.3-1.3-0.8-2.6-1.5-3.7l3-3l-3.5-3.5l-3,3c-1.1-0.7-2.3-1.2-3.7-1.5V0h-5v4.3
		c-1.3,0.3-2.6,0.8-3.7,1.5l-3-3L2.8,6.3l3,3c-0.7,1.1-1.2,2.3-1.5,3.7H0v5h4.3c0.3,1.3,0.8,2.6,1.5,3.7l-3,3l3.5,3.5l3-3
		c1.1,0.7,2.3,1.2,3.7,1.5V31h5v-4.3c1.3-0.3,2.6-0.8,3.7-1.5l3,3l3.5-3.5l-3-3c0.7-1.1,1.2-2.3,1.5-3.7L31,18L31,18z"/>
	<path class="st0" d="M25.7,17.8l0.2-0.8H30v-3h-4.1l-0.2-0.8c-0.3-1.2-0.7-2.3-1.4-3.3l-0.4-0.7l2.9-2.9l-2.1-2.1l-2.9,2.9
		l-0.7-0.4c-1-0.7-2.2-1.1-3.3-1.4L17,5.1V1h-3v4.1l-0.8,0.2C12,5.5,10.9,6,9.9,6.6L9.2,7.1L6.3,4.2L4.2,6.3l2.9,2.9L6.6,9.9
		c-0.7,1-1.1,2.2-1.4,3.3L5.1,14H1v3h4.1l0.2,0.8C5.5,19,6,20.1,6.6,21.1l0.4,0.7l-2.9,2.9l2.1,2.1l2.9-2.9l0.7,0.4
		c1,0.7,2.2,1.1,3.3,1.4l0.8,0.2V30h3v-4.1l0.8-0.2c1.2-0.3,2.3-0.7,3.3-1.4l0.7-0.4l2.9,2.9l2.1-2.1l-2.9-2.9l0.4-0.7
		C25,20.1,25.5,19,25.7,17.8"/>
	<path class="st1" d="M31,13h-4.3c-0.3-1.3-0.8-2.6-1.5-3.7l3-3l-3.5-3.5l-3,3c-1.1-0.7-2.3-1.2-3.7-1.5V0h-5v4.3
		c-1.3,0.3-2.6,0.8-3.7,1.5l-3-3L2.8,6.3l3,3c-0.7,1.1-1.2,2.3-1.5,3.7H0v5h4.3c0.3,1.3,0.8,2.6,1.5,3.7l-3,3l3.5,3.5l3-3
		c1.1,0.7,2.3,1.2,3.7,1.5V31h5v-4.3c1.3-0.3,2.6-0.8,3.7-1.5l3,3l3.5-3.5l-3-3c0.7-1.1,1.2-2.3,1.5-3.7H31V13z"/>
	<path class="st2" d="M25.7,17.8l0.2-0.8H30v-3h-4.1l-0.2-0.8c-0.3-1.2-0.7-2.3-1.4-3.3l-0.4-0.7l2.9-2.9l-2.1-2.1l-2.9,2.9
		l-0.7-0.4c-1-0.7-2.2-1.1-3.3-1.4L17,5.1V1h-3v4.1l-0.8,0.2C12,5.5,10.9,6,9.9,6.6L9.2,7.1L6.3,4.2L4.2,6.3l2.9,2.9L6.6,9.9
		c-0.7,1-1.1,2.2-1.4,3.3L5.1,14H1v3h4.1l0.2,0.8C5.5,19,6,20.1,6.6,21.1l0.4,0.7l-2.9,2.9l2.1,2.1l2.9-2.9l0.7,0.4
		c1,0.7,2.2,1.1,3.3,1.4l0.8,0.2V30h3v-4.1l0.8-0.2c1.2-0.3,2.3-0.7,3.3-1.4l0.7-0.4l2.9,2.9l2.1-2.1l-2.9-2.9l0.4-0.7
		C25,20.1,25.5,19,25.7,17.8"/>
	<circle id="Oval" class="st3" cx="15.5" cy="15.5" r="8.5"/>
	<path class="st4" d="M17.9,21.2c-1.8,0-2.4-2.5-3.1-5.5c-0.3-1.4-0.9-4-1.5-4.2c-1,0-1.9,1.6-2.6,4.5L9,15.6
		c0.3-1.4,1.3-5.8,4.3-5.8c1.8,0,2.4,2.5,3.1,5.5c0.3,1.4,0.9,4,1.5,4.2c1.3,0,1.8-2.7,2-4.4l1.7,0.2C21.4,16.8,20.9,21.2,17.9,21.2
		z"/>
</g>
</svg>
