<?xml version="1.0" encoding="utf-8"?>
<!-- Generator: Adobe Illustrator 24.0.1, SVG Export Plug-In . SVG Version: 6.00 Build 0)  -->
<svg version="1.1" id="Layer_1" xmlns="http://www.w3.org/2000/svg" xmlns:xlink="http://www.w3.org/1999/xlink" x="0px" y="0px"
	 viewBox="0 0 200 200" style="enable-background:new 0 0 200 200;" xml:space="preserve">
<style type="text/css">
	.st0{enable-background:new    ;}
	.st1{fill:#C3C3C3;}
	.st2{fill:#C4C4C4;}
	.st3{fill:#9C9C9C;}
	.st4{opacity:0.3;}
	.st5{fill:#E53A5A;}
	.st6{fill:#E63B5A;}
	.st7{fill:#B72F48;}
</style>
<g>
	<g>
		<g class="st0">
			<g>
				<polygon class="st1" points="81.9,117.8 6.7,143 6.7,141.6 81.9,116.5 				"/>
			</g>
			<g>
				<polygon class="st2" points="191.7,159.5 116.4,187 6.7,143 81.9,117.8 				"/>
			</g>
			<g>
				<polygon class="st2" points="191.8,158.1 116.4,185.7 6.7,141.6 81.9,116.5 				"/>
			</g>
			<g>
				<polygon class="st1" points="191.7,159.5 116.4,187 116.4,185.7 191.8,158.1 				"/>
			</g>
			<g>
				<path class="st3" d="M5.7,143.9l0-4.1l111.8,44.8l-0.1,4.2L5.7,143.9z M116.4,185.7l-109.7-44l0,1.3L116.4,187L116.4,185.7"/>
			</g>
			<g>
				<polygon class="st3" points="116.4,187 6.7,143 6.7,141.6 116.4,185.7 				"/>
			</g>
			<g>
				<polygon class="st2" points="192.9,157.2 117.5,184.7 5.7,139.9 80.9,114.7 				"/>
			</g>
			<g>
				<polygon class="st1" points="192.8,161.3 117.4,188.9 117.5,184.7 192.9,157.2 				"/>
			</g>
		</g>
	</g>
</g>
<polygon class="st4" points="118.8,165.1 34,130.6 81,114.4 168.8,148 "/>
<g>
	<g>
		<g class="st0">
			<g>
				<polygon class="st1" points="81.9,82.8 6.7,108 6.7,106.6 81.9,81.5 				"/>
			</g>
			<g>
				<polygon class="st2" points="191.7,124.5 116.4,152.1 6.7,108 81.9,82.8 				"/>
			</g>
			<g>
				<polygon class="st2" points="191.8,123.2 116.4,150.7 6.7,106.6 81.9,81.5 				"/>
			</g>
			<g>
				<polygon class="st1" points="191.7,124.5 116.4,152.1 116.4,150.7 191.8,123.2 				"/>
			</g>
			<g>
				<path class="st3" d="M5.7,109l0-4.1l111.8,44.8l-0.1,4.2L5.7,109z M116.4,150.7l-109.7-44l0,1.3l109.7,44.1L116.4,150.7"/>
			</g>
			<g>
				<polygon class="st3" points="116.4,152.1 6.7,108 6.7,106.6 116.4,150.7 				"/>
			</g>
			<g>
				<polygon class="st2" points="192.9,122.2 117.5,149.7 5.7,104.9 80.9,79.7 				"/>
			</g>
			<g>
				<polygon class="st1" points="192.8,126.3 117.4,153.9 117.5,149.7 192.9,122.2 				"/>
			</g>
		</g>
	</g>
</g>
<polygon class="st4" points="118.8,130.1 34,95.6 81,79.4 168.8,113 "/>
<g>
	<g>
		<g class="st0">
			<g>
				<polygon class="st1" points="81.9,49.8 6.7,75 6.7,73.6 81.9,48.5 				"/>
			</g>
			<g>
				<polygon class="st2" points="191.7,91.5 116.4,119.1 6.7,75 81.9,49.8 				"/>
			</g>
			<g>
				<polygon class="st2" points="191.8,90.1 116.4,117.7 6.7,73.6 81.9,48.5 				"/>
			</g>
			<g>
				<polygon class="st1" points="191.7,91.5 116.4,119.1 116.4,117.7 191.8,90.1 				"/>
			</g>
			<g>
				<path class="st3" d="M5.7,75.9l0-4.1l111.8,44.8l-0.1,4.2L5.7,75.9z M116.4,117.7L6.7,73.6l0,1.3l109.7,44.1L116.4,117.7"/>
			</g>
			<g>
				<polygon class="st3" points="116.4,119.1 6.7,75 6.7,73.6 116.4,117.7 				"/>
			</g>
			<g>
				<polygon class="st2" points="192.9,89.2 117.5,116.7 5.7,71.9 80.9,46.8 				"/>
			</g>
			<g>
				<polygon class="st1" points="192.8,93.3 117.4,120.9 117.5,116.7 192.9,89.2 				"/>
			</g>
		</g>
	</g>
</g>
<polygon class="st4" points="118.8,97.1 34,62.6 81,46.4 168.8,80 "/>
<g>
	<g>
		<g class="st0">
			<g>
				<polygon class="st5" points="81.9,14.8 6.7,40 6.7,38.6 81.9,13.5 				"/>
			</g>
			<g>
				<polygon class="st6" points="191.7,56.5 116.4,84.1 6.7,40 81.9,14.8 				"/>
			</g>
			<g>
				<polygon class="st6" points="191.8,55.1 116.4,82.7 6.7,38.6 81.9,13.5 				"/>
			</g>
			<g>
				<polygon class="st7" points="116.4,84.1 6.7,40 6.7,38.6 116.4,82.7 				"/>
			</g>
			<g>
				<polygon class="st5" points="191.7,56.5 116.4,84.1 116.4,82.7 191.8,55.1 				"/>
			</g>
			<g>
				<polygon class="st6" points="192.9,54.2 117.5,81.7 5.7,36.9 80.9,11.7 				"/>
			</g>
			<g>
				<polygon class="st5" points="192.8,58.3 117.4,85.9 117.5,81.7 192.9,54.2 				"/>
			</g>
			<g>
				<path class="st7" d="M5.7,40.9l0-4.1l111.8,44.8l-0.1,4.2L5.7,40.9z M116.4,82.7L6.7,38.6l0,1.3l109.7,44.1L116.4,82.7"/>
			</g>
		</g>
	</g>
</g>
</svg>
