<svg id="Layer_1" data-name="Layer 1" xmlns="http://www.w3.org/2000/svg" viewBox="0 0 32 32"><title>Ulp</title><polygon points="19.9 32 19.9 23 28.9 23 19.9 32" fill="#666"/><polygon points="19.9 31 18.9 31 15.9 31 5.9 31 5.9 1 27.9 1 27.9 20 27.9 22 27.9 23 28.9 23 28.9 0 4.9 0 4.9 32 19.9 32 19.9 31" fill="#666"/><line x1="21.9" y1="14.5" x2="11.9" y2="14.5" fill="none" stroke="#d98448" stroke-miterlimit="10"/><rect x="3.1" y="3.5" width="24.5" height="14" stroke-width="0.5" stroke="#d98448" stroke-linecap="round" stroke-linejoin="round" fill="#d98448"/><line x1="8.4" y1="10.5" x2="23.4" y2="10.5" fill="none" stroke="#fff" stroke-miterlimit="10"/><line x1="8.4" y1="7.5" x2="20.9" y2="7.5" fill="none" stroke="#fff" stroke-miterlimit="10"/><line x1="8.4" y1="13.5" x2="23.4" y2="13.5" fill="none" stroke="#fff" stroke-miterlimit="10"/><path d="M6.9,14h0a1.56,1.56,0,0,1-.2-2.1l.2-.4-2-1,2-.9-.3-.5A1.68,1.68,0,0,1,6.9,7h0" fill="none" stroke="#fff" stroke-linecap="round" stroke-linejoin="round"/><path d="M24.9,14h0a1.56,1.56,0,0,0,.2-2.1l-.2-.4,2-1-2-.9.3-.5A1.68,1.68,0,0,0,24.9,7h0" fill="none" stroke="#fff" stroke-linecap="round" stroke-linejoin="round"/></svg>