<?xml version="1.0" encoding="UTF-8" standalone="no"?>
<svg width="32px" height="32px" viewBox="0 0 32 32" version="1.1" xmlns="http://www.w3.org/2000/svg" xmlns:xlink="http://www.w3.org/1999/xlink">
    <!-- Generator: Sketch 50.2 (55047) - http://www.bohemiancoding.com/sketch -->
    <title>unlock</title>
    <desc>Created with Sketch.</desc>
    <defs></defs>
    <g stroke="none" stroke-width="1" fill="none" fill-rule="evenodd">
        <polygon fill="#D8D8D8" points="5 13 5 31 27 31 27 13"></polygon>
        <path d="M5.5,13.5 L5.5,30.5 L26.5,30.5 L26.5,13.5 L5.5,13.5 Z" stroke="#333333" fill="#F3F3F3" fill-rule="nonzero"></path>
        <rect fill="#333333" fill-rule="nonzero" x="15" y="19" width="2" height="6"></rect>
        <path d="M29,6 C29,3.23857625 26.7614237,1 24,1 C21.2385763,1 19,3.23857625 19,6 L19,13 L21,13 L21,6 L29,6 Z M19,14 L18,14 L18,6 C18,2.6862915 20.6862915,0 24,0 C27.3137085,0 30,2.6862915 30,6 C30,6.30251216 30,6.86555367 29.7845484,7 L26.4364578,7 C26.3079998,7 26.2166252,6.96408254 26.1623342,6.89224762 C26.1080431,6.8204127 26.0539317,6.52299682 26,6 L22,6 L22,7 L22,14 L21,14 L21,13 L19,13 L19,14 Z M22,6 C22,4.8954305 22.8954305,4 24,4 C25.1045695,4 26,4.8954305 26,6 L27,6 C27,4.34314575 25.6568542,3 24,3 C22.3431458,3 21,4.34314575 21,6 L22,6 Z" fill="#333333" fill-rule="nonzero"></path>
    </g>
</svg>