<?xml version="1.0" encoding="utf-8"?>
<!-- Generator: Adobe Illustrator 24.0.1, SVG Export Plug-In . SVG Version: 6.00 Build 0)  -->
<svg version="1.1" id="Layer_1" xmlns="http://www.w3.org/2000/svg" xmlns:xlink="http://www.w3.org/1999/xlink" x="0px" y="0px"
	 viewBox="0 0 32 32" style="enable-background:new 0 0 32 32;" xml:space="preserve">
<style type="text/css">
	.st0{fill:#525252;stroke:#525252;}
	.st1{fill:#F3F3F3;stroke:#333333;}
	.st2{fill:#333333;}
</style>
<path class="st0" d="M13.5,12.5V7.1c0-2,1-3.8,2.7-5.2c0.4-0.3,0.7-0.5,1.1-0.7c2.6-1.1,5.3-0.5,7.2,1.3c1.2,1.2,1.9,2.8,1.9,4.5
	v5.4l-3,0l0-5.6c0-2-1.5-3.5-3.5-3.5s-3.5,1.5-3.5,3.6v5.6h3v17h-20v-17H13.5z"/>
<title>lock</title>
<desc>Created with Sketch.</desc>
<title>lock</title>
<desc>Created with Sketch.</desc>
<g>
	<path class="st1" d="M18.5,14.5V9c0-1.8,0.8-3.5,2.2-4.8c0.7-0.6,1.4-1.1,2.3-1.4c2.4-0.8,4.8-0.1,6.6,1.6c1.2,1.2,1.9,2.8,1.9,4.6
		v5.5l-3,0l0-5.7c0-2.1-1.5-3.6-3.5-3.6s-3.5,1.5-3.5,3.6v5.7h3v17h-21v-17H18.5z"/>
	<g>
		<g transform="translate(5.000000, 1.000000)">
			<rect x="8" y="19" class="st2" width="2" height="6"/>
		</g>
	</g>
</g>
</svg>
