<?xml version="1.0" encoding="utf-8"?>
<!-- Generator: Adobe Illustrator 24.0.1, SVG Export Plug-In . SVG Version: 6.00 Build 0)  -->
<svg version="1.1" id="Layer_1" xmlns="http://www.w3.org/2000/svg" xmlns:xlink="http://www.w3.org/1999/xlink" x="0px" y="0px"
	 viewBox="0 0 200 200" style="enable-background:new 0 0 200 200;" xml:space="preserve">
<style type="text/css">
	.st0{fill:#30A0FB;}
	.st1{fill:#666666;}
	.st2{fill:#666666;stroke:#666666;stroke-width:0.65;stroke-miterlimit:10;}
	.st3{fill:#999999;}
	.st4{fill:#F0F0F0;stroke:#F0F0F0;stroke-width:1.3;stroke-miterlimit:10;}
	.st5{fill:#666666;stroke:#666666;stroke-width:1.3;stroke-miterlimit:10;}
	.st6{fill:#FF4164;}
</style>
<ellipse class="st0" cx="98" cy="167.6" rx="78" ry="27.5"/>
<ellipse class="st1" cx="98" cy="167.6" rx="22.1" ry="7.8"/>
<path class="st2" d="M97.5,111c-12.8,0-22.8,3.8-22.8,8.6v47.8c0,4.8,10,8.6,22.8,8.6s22.8-3.8,22.8-8.6v-47.8
	C120.3,114.7,110.3,111,97.5,111z M119,164.5c-3.1-3.3-11.4-5.7-21.4-5.7s-18.4,2.3-21.4,5.7v-0.2c3.1-3.3,11.4-5.7,21.4-5.7
	s18.4,2.3,21.4,5.7V164.5z"/>
<ellipse class="st3" cx="98" cy="120.8" rx="57.2" ry="22.1"/>
<ellipse class="st4" cx="98" cy="120.8" rx="22.1" ry="7.8"/>
<ellipse class="st1" cx="98" cy="80.5" rx="22.1" ry="7.8"/>
<path class="st5" d="M97.5,64.6c-12.8,0-22.8,3.8-22.8,8.6l0.8,47.5c0,4.8,9.2,8.8,22,8.8s22.8-3.8,22.8-8.6V73.1
	C120.3,68.3,110.3,64.6,97.5,64.6z M119,118.1c-3.1-3.3-11.4-5.7-21.4-5.7s-18.4,2.3-21.4,5.7v-0.2c3.1-3.3,11.4-5.7,21.4-5.7
	s18.4,2.3,21.4,5.7V118.1z"/>
<g>
	<ellipse class="st3" cx="98" cy="80.5" rx="57.2" ry="22.1"/>
	<path class="st5" d="M97.5,23.4c-12.8,0-22.8,3.8-22.8,8.6l0.8,50.1c0,4.8,9.2,6.3,21.9,6.3s22.8-3.8,22.8-8.6V32
		C120.3,27.2,110.3,23.4,97.5,23.4z M119,77c-3.1-3.3-11.4-5.7-21.4-5.7S79.1,73.6,76.1,77v-0.2c3.1-3.3,11.4-5.7,21.4-5.7
		s18.4,2.3,21.4,5.7V77z"/>
	<ellipse class="st6" cx="98" cy="32.4" rx="78" ry="27.5"/>
	<ellipse class="st1" cx="97.5" cy="32.4" rx="22.1" ry="7.8"/>
</g>
</svg>
