<svg id="Layer_1" data-name="Layer 1" xmlns="http://www.w3.org/2000/svg" xmlns:xlink="http://www.w3.org/1999/xlink" viewBox="0 0 32 32"><defs><clipPath id="clip-path"><rect x="23" y="23" width="9" height="9" fill="none"/></clipPath><clipPath id="clip-path-4"><rect x="18" y="11.5" width="9" height="9" fill="none"/></clipPath><clipPath id="clip-path-7"><rect x="12.5" width="9" height="9" fill="none"/></clipPath></defs><title>ViaPatternAngleRight</title><g id="ViaPatternAngleLeft"><g id="Group"><path id="Line-4" d="M22.5,27.5H8.5" fill="none" stroke="#30a0fb" stroke-linecap="square" stroke-width="3"/><path id="Line-4-Copy" d="M17.5,16H7.5" fill="none" stroke="#30a0fb" stroke-linecap="square" stroke-width="3"/><path id="Line-4-Copy-2" d="M12.5,4.5h-9" fill="none" stroke="#30a0fb" stroke-linecap="square" stroke-width="3"/><path id="Line-2" d="M4,16H3" fill="none" stroke="#ff4164" stroke-linecap="square" stroke-width="7"/><path id="Line-2-Copy-2" d="M4,27.5H3" fill="none" stroke="#ff4164" stroke-linecap="square" stroke-width="7"/><path id="Line-2-Copy" d="M4,4.5H3" fill="none" stroke="#ff4164" stroke-linecap="square" stroke-width="7"/></g></g><g id="Artwork_9" data-name="Artwork 9"><g clip-path="url(#clip-path)"><g clip-path="url(#clip-path)"><path d="M27.5,31.5a4,4,0,1,1,4-4A4,4,0,0,1,27.5,31.5Zm0-7a3,3,0,1,0,3,3A3,3,0,0,0,27.5,24.5Z" fill="#f0f0f0"/></g><g clip-path="url(#clip-path)"><path d="M27.5,24a3.5,3.5,0,0,1,0,7A3.42,3.42,0,0,1,24,27.5,3.48,3.48,0,0,1,27.5,24m0-1A4.5,4.5,0,1,0,32,27.5,4.48,4.48,0,0,0,27.5,23" fill="#666"/></g></g></g><g id="Artwork_9-2" data-name="Artwork 9"><g clip-path="url(#clip-path-4)"><g clip-path="url(#clip-path-4)"><path d="M22.5,20a4,4,0,1,1,4-4A4,4,0,0,1,22.5,20Zm0-7a3,3,0,1,0,3,3A3,3,0,0,0,22.5,13Z" fill="#f0f0f0"/></g><g clip-path="url(#clip-path-4)"><path d="M22.5,12.5a3.5,3.5,0,0,1,0,7A3.42,3.42,0,0,1,19,16a3.48,3.48,0,0,1,3.5-3.5m0-1A4.5,4.5,0,1,0,27,16a4.48,4.48,0,0,0-4.5-4.5" fill="#666"/></g></g></g><g id="Artwork_9-3" data-name="Artwork 9"><g clip-path="url(#clip-path-7)"><g clip-path="url(#clip-path-7)"><path d="M17,8.5a4,4,0,1,1,4-4A4,4,0,0,1,17,8.5Zm0-7a3,3,0,1,0,3,3A3,3,0,0,0,17,1.5Z" fill="#f0f0f0"/></g><g clip-path="url(#clip-path-7)"><path d="M17,1a3.5,3.5,0,0,1,0,7,3.42,3.42,0,0,1-3.5-3.5A3.48,3.48,0,0,1,17,1m0-1a4.5,4.5,0,1,0,4.5,4.5A4.48,4.48,0,0,0,17,0" fill="#666"/></g></g></g></svg>