<svg id="Layer_1" data-name="Layer 1" xmlns="http://www.w3.org/2000/svg" xmlns:xlink="http://www.w3.org/1999/xlink" viewBox="0 0 32 32"><defs><clipPath id="clip-path"><rect y="1.8" width="19.2" height="19.2" fill="none"/></clipPath></defs><title>WalkaroundObstacles</title><polygon points="3 32 0 32 0 26 16.4 26 25 17.4 25 0 28 0 28 18.6 17.6 29 3 29 3 32" fill="#30a0fb"/><g id="Artwork_9" data-name="Artwork 9"><g clip-path="url(#clip-path)"><g clip-path="url(#clip-path)"><path d="M9.6,20a8.57,8.57,0,1,1,8.57-8.57A8.59,8.59,0,0,1,9.6,20Zm0-15A6.43,6.43,0,1,0,16,11.4,6.43,6.43,0,0,0,9.6,5Z" fill="#f0f0f0"/></g><g clip-path="url(#clip-path)"><path d="M9.6,3.9a7.43,7.43,0,0,1,7.5,7.5,7.43,7.43,0,0,1-7.5,7.5,7.31,7.31,0,0,1-7.5-7.5A7.43,7.43,0,0,1,9.6,3.9m0-2.1a9.6,9.6,0,1,0,9.6,9.6A9.6,9.6,0,0,0,9.6,1.8" fill="#666"/></g></g></g></svg>