<?xml version="1.0" encoding="utf-8"?>
<!-- Generator: Adobe Illustrator 24.0.1, SVG Export Plug-In . SVG Version: 6.00 Build 0)  -->
<svg version="1.1" id="Layer_1" xmlns="http://www.w3.org/2000/svg" xmlns:xlink="http://www.w3.org/1999/xlink" x="0px" y="0px"
	 viewBox="0 0 32 32" style="enable-background:new 0 0 32 32;" xml:space="preserve">
<style type="text/css">
	.st0{fill:#585858;}
	.st1{fill:#78AFE1;}
	.st2{fill:none;stroke:#525252;stroke-miterlimit:10;}
</style>
<title>ZoomRedraw</title>
<desc>Created with Sketch.</desc>
<g>
	<path class="st0" d="M30.6,28.5l-7.3-7.3c-0.6,0.8-1.3,1.5-2.1,2.1l7.3,7.3c0,0,1.1,0.9,2.1-0.1S30.6,28.5,30.6,28.5z"/>
</g>
<g>
	<polygon class="st1" points="4.2,11.9 7,16.3 9.7,11.9 	"/>
	<path class="st1" d="M13,19.8v-1.1c3.2,0,5.7-2.6,5.7-5.7S16.1,7.3,13,7.3S7.2,9.8,7.2,13H6.2c0-3.8,3-6.8,6.8-6.8s6.8,3,6.8,6.8
		S16.7,19.8,13,19.8z"/>
</g>
<path class="st2" d="M17.7,3.1C21.4,4.8,24,8.6,24,13c0,6.1-4.9,11-11,11S2,19.1,2,13S6.9,2,13,2C14.7,2,16.3,2.4,17.7,3.1"/>
</svg>
