<?xml version="1.0" encoding="UTF-8" standalone="no"?>
<svg width="200px" height="150px" viewBox="0 0 200 150" version="1.1" xmlns="http://www.w3.org/2000/svg" xmlns:xlink="http://www.w3.org/1999/xlink">
    <!-- Generator: Sketch 49.3 (51167) - http://www.bohemiancoding.com/sketch -->
    <title>Axial</title>
    <desc>Created with Sketch.</desc>
    <defs></defs>
    <g stroke="none" stroke-width="1" fill="none" fill-rule="evenodd">
        <path d="M69.2542231,75.5134651 L69.2514356,75.5134651 C69.2514356,71.0793815 72.846828,67.4846565 77.2811215,67.4846565 L88.4191892,67.4846565 L88.4191892,70.4846565 L77.2811215,70.4846565 C74.5035576,70.4846565 72.2514356,72.7363604 72.2514356,75.5134651 L72.2486481,75.5134651 C72.2504974,75.5439626 72.2514356,75.5747062 72.2514356,75.6056689 L72.2514356,103.379927 C72.2514356,104.208354 71.5798627,104.879927 70.7514356,104.879927 C69.9230084,104.879927 69.2514356,104.208354 69.2514356,103.379927 L69.2514356,75.6056689 C69.2514356,75.5747062 69.2523737,75.5439626 69.2542231,75.5134651 Z" stroke="#979797" fill="#D8D8D8" fill-rule="nonzero"></path>
        <path d="M163.183911,75.5134651 L163.181123,75.5134651 C163.181123,71.0793815 166.776515,67.4846565 171.210809,67.4846565 L182.348877,67.4846565 L182.348877,70.4846565 L171.210809,70.4846565 C168.433245,70.4846565 166.181123,72.7363604 166.181123,75.5134651 L166.178336,75.5134651 C166.180185,75.5439626 166.181123,75.5747062 166.181123,75.6056689 L166.181123,103.379927 C166.181123,104.208354 165.50955,104.879927 164.681123,104.879927 C163.852696,104.879927 163.181123,104.208354 163.181123,103.379927 L163.181123,75.6056689 C163.181123,75.5747062 163.182061,75.5439626 163.183911,75.5134651 Z" stroke="#979797" fill="#D8D8D8" fill-rule="nonzero" transform="translate(172.765000, 86.182292) scale(-1, 1) translate(-172.765000, -86.182292) "></path>
        <rect stroke="#979797" fill="#585858" x="88.1811231" y="52.1822917" width="75" height="34"></rect>
        <rect fill="#252424" opacity="0.151002799" x="88.6781934" y="52.7820638" width="73.9794922" height="5.01464844"></rect>
        <rect fill="#252424" opacity="0.151002799" x="88.6781934" y="80.5179036" width="73.9794922" height="5.01464844"></rect>
        <circle stroke="#979797" fill="#585858" cx="34.6511233" cy="69.1822917" r="17"></circle>
        <path d="M33.0338138,69.4245057 C33.0338138,68.5250519 33.7579079,67.7959006 34.6511233,67.7959006 C35.5443387,67.7959006 36.2684329,68.5250519 36.2684329,69.4245057 L36.2684329,103.251322 C36.2684329,104.150776 35.5443387,104.879927 34.6511233,104.879927 C33.7579079,104.879927 33.0338138,104.150776 33.0338138,103.251322 L33.0338138,69.4245057 Z" stroke="#979797" fill="#D8D8D8" fill-rule="nonzero"></path>
    </g>
</svg>