<?xml version="1.0" encoding="UTF-8"?>
<svg width="290px" height="175px" viewBox="0 0 290 175" version="1.1" xmlns="http://www.w3.org/2000/svg" xmlns:xlink="http://www.w3.org/1999/xlink">
    <!-- Generator: Sketch 61 (89581) - https://sketch.com -->
    <title>Axial-Labeled</title>
    <desc>Created with Sketch.</desc>
    <g id="Axial-Labeled" stroke="none" stroke-width="1" fill="none" fill-rule="evenodd">
        <g id="Axial" transform="translate(22.138021, -4.646484)">
            <path d="M108.633566,82.9129846 L108.633566,86.598844 L94.9491154,86.598844 C91.5365454,86.598844 88.7695437,89.365332 88.7695437,92.7773377 C88.7683885,92.8147228 88.7695437,92.852537 88.7695437,92.8906211 L88.7695437,127.014624 C88.7695437,128.032446 87.944436,128.857554 86.926614,128.857554 C85.908792,128.857554 85.0836843,128.032446 85.0836843,127.014624 L85.0836843,92.8906211 L85.0876843,92.7769846 L85.0836843,92.7773377 C85.0836843,87.3295349 89.5010546,82.9129846 94.9491154,82.9129846 L108.633566,82.9129846 Z" id="Combined-Shape" stroke="#979797" stroke-width="1" fill="#D8D8D8" fill-rule="nonzero"></path>
            <path d="M224.037439,82.9129846 L224.037439,86.598844 L210.352989,86.598844 C206.940418,86.598844 204.173417,89.365332 204.173417,92.7773377 C204.172262,92.8147228 204.173417,92.852537 204.173417,92.8906211 L204.173417,127.014624 C204.173417,128.032446 203.348309,128.857554 202.330487,128.857554 C201.312665,128.857554 200.487557,128.032446 200.487557,127.014624 L200.487557,92.8906211 L200.491557,92.7769846 L200.487557,92.7773377 C200.487557,87.3295349 204.904928,82.9129846 210.352989,82.9129846 L224.037439,82.9129846 Z" id="Combined-Shape-Copy" stroke="#979797" stroke-width="1" fill="#D8D8D8" fill-rule="nonzero" transform="translate(212.262498, 105.885269) scale(-1, 1) translate(-212.262498, -105.885269) "></path>
            <rect id="Rectangle-13" stroke="#979797" stroke-width="1" fill="#585858" fill-rule="evenodd" x="108.341073" y="64.1121963" width="92.1464844" height="41.7730729"></rect>
            <polygon id="Rectangle-13-Copy" fill="#252424" fill-rule="evenodd" opacity="0.151002799" points="108.951783 64.8490882 199.844452 64.8490882 199.844452 71.0101846 108.951783 71.0101846"></polygon>
            <polygon id="Rectangle-13-Copy-2" fill="#252424" fill-rule="evenodd" opacity="0.151002799" points="108.951783 98.92589 199.844452 98.92589 199.844452 105.086986 108.951783 105.086986"></polygon>
            <circle id="Oval-6" stroke="#979797" stroke-width="1" fill="#585858" fill-rule="evenodd" cx="42.5730559" cy="84.9987328" r="20.8865365"></circle>
            <path d="M40.5859974,85.2963217 C40.5859974,84.191235 41.4756338,83.2953852 42.5730559,83.2953852 C43.670478,83.2953852 44.5601145,84.191235 44.5601145,85.2963217 L44.5601145,126.856617 C44.5601145,127.961704 43.670478,128.857554 42.5730559,128.857554 C41.4756338,128.857554 40.5859974,127.961704 40.5859974,126.856617 L40.5859974,85.2963217 Z" id="Path-6" stroke="#979797" stroke-width="1" fill="#D8D8D8" fill-rule="nonzero"></path>
        </g>
        <polygon id="E" fill="#8D9EB0" points="68.5751438 41.6339322 63.2684987 41.6339322 63.2684987 45.3654601 68.1626131 45.3654601 68.1626131 47.1843455 63.2684987 47.1843455 63.2684987 51.1033873 68.5751438 51.1033873 68.5751438 52.9410242 60.9058228 52.9410242 60.9058228 39.8150468 68.5751438 39.8150468"></polygon>
        <path d="M265.512694,92.5 L264.425113,89.0497431 L259.887275,89.0497431 L258.893451,92.5 L256.512024,92.5 L260.524823,79.3740226 L263.731311,79.3740226 L267.950376,92.5 L265.512694,92.5 Z M262.118691,81.0241455 L260.412314,87.1558521 L263.862571,87.1558521 L262.118691,81.0241455 Z" id="A" fill="#8D9EB0"></path>
        <path d="M42.711853,42.0403451 C42.711853,41.7610674 42.9437866,41.534668 43.211853,41.534668 L43.211853,41.534668 C43.4879954,41.534668 43.711853,41.7581883 43.711853,42.0403451 L43.711853,68.7974071 C43.711853,69.0766849 43.4799194,69.3030843 43.211853,69.3030843 L43.211853,69.3030843 C42.9357107,69.3030843 42.711853,69.079564 42.711853,68.7974071 L42.711853,42.0403451 Z" id="Rectangle-93" fill="#8D9EB0"></path>
        <path d="M85.4104004,42.0403451 C85.4104004,41.7610674 85.642334,41.534668 85.9104004,41.534668 L85.9104004,41.534668 C86.1865428,41.534668 86.4104004,41.7581883 86.4104004,42.0403451 L86.4104004,68.7974071 C86.4104004,69.0766849 86.1784668,69.3030843 85.9104004,69.3030843 L85.9104004,69.3030843 C85.634258,69.3030843 85.4104004,69.079564 85.4104004,68.7974071 L85.4104004,42.0403451 Z" id="Rectangle-93-Copy-2" fill="#8D9EB0"></path>
        <g id="Group-6" transform="translate(43.905823, 43.378035)" fill="#8D9EB0">
            <g id="triangle" transform="translate(3.085449, 3.453524) scale(-1, 1) translate(-3.085449, -3.453524) translate(0.085449, 0.953524)">
                <path d="M2.88775351,-0.425866237 C2.98755721,-0.684554916 3.15206769,-0.677565105 3.24917468,-0.425866237 L5.40050076,5.1503168 C5.50030446,5.40900548 5.36527212,5.61871408 5.08097484,5.61871408 L1.05595335,5.61871408 C0.779680363,5.61871408 0.639320451,5.40201566 0.736427439,5.1503168 L2.88775351,-0.425866237 Z" id="Triangle-1" transform="translate(3.069450, 2.500722) rotate(90.000000) translate(-3.069450, -2.500722) "></path>
            </g>
            <path d="M2.93804755,3.34948644 C2.93804755,3.06974686 3.16308732,2.84297312 3.4304766,2.84297312 L15.4110744,2.84297312 C15.6830354,2.84297312 15.9035034,3.05781302 15.9035034,3.34948644 L15.9035034,3.26275897 C15.9035034,3.54249855 15.6784637,3.76927229 15.4110744,3.76927229 L3.4304766,3.76927229 C3.15851555,3.76927229 2.93804755,3.5544324 2.93804755,3.26275897 L2.93804755,3.34948644 Z" id="Rectangle-144"></path>
        </g>
        <g id="Group-6" transform="translate(76.910400, 46.378035) scale(-1, 1) translate(-76.910400, -46.378035) translate(68.910400, 43.378035)" fill="#8D9EB0">
            <g id="triangle" transform="translate(3.085449, 3.453524) scale(-1, 1) translate(-3.085449, -3.453524) translate(0.085449, 0.953524)">
                <path d="M2.88775351,-0.425866237 C2.98755721,-0.684554916 3.15206769,-0.677565105 3.24917468,-0.425866237 L5.40050076,5.1503168 C5.50030446,5.40900548 5.36527212,5.61871408 5.08097484,5.61871408 L1.05595335,5.61871408 C0.779680363,5.61871408 0.639320451,5.40201566 0.736427439,5.1503168 L2.88775351,-0.425866237 Z" id="Triangle-1" transform="translate(3.069450, 2.500722) rotate(90.000000) translate(-3.069450, -2.500722) "></path>
            </g>
            <path d="M2.93804755,3.34948644 C2.93804755,3.06974686 3.1636869,2.84297312 3.43178859,2.84297312 L15.4443065,2.84297312 C15.7169922,2.84297312 15.9380476,3.05781302 15.9380476,3.34948644 L15.9380476,3.26275897 C15.9380476,3.54249855 15.7124082,3.76927229 15.4443065,3.76927229 L3.43178859,3.76927229 C3.15910295,3.76927229 2.93804755,3.5544324 2.93804755,3.26275897 L2.93804755,3.34948644 Z" id="Rectangle-144"></path>
        </g>
        <g id="Group" transform="translate(131.000000, 43.378035)" fill="#8D9EB0">
            <g id="triangle" transform="translate(3.832124, 3.275391) scale(-1, 1) translate(-3.832124, -3.275391) translate(0.832124, 0.775391)">
                <path d="M2.88775351,-0.425866237 C2.98755721,-0.684554916 3.15206769,-0.677565105 3.24917468,-0.425866237 L5.40050076,5.1503168 C5.50030446,5.40900548 5.36527212,5.61871408 5.08097484,5.61871408 L1.05595335,5.61871408 C0.779680363,5.61871408 0.639320451,5.40201566 0.736427439,5.1503168 L2.88775351,-0.425866237 Z" id="Triangle-1" transform="translate(3.069450, 2.500722) rotate(90.000000) translate(-3.069450, -2.500722) "></path>
            </g>
            <path d="M3.68472202,3.1713527 C3.68472202,2.89161312 3.913073,2.66483938 4.17682373,2.66483938 L36.1926203,2.66483938 C36.4644006,2.66483938 36.684722,2.87967927 36.684722,3.1713527 L36.684722,3.08462522 C36.684722,3.36436481 36.456371,3.59113855 36.1926203,3.59113855 L4.17682373,3.59113855 C3.90504346,3.59113855 3.68472202,3.37629865 3.68472202,3.08462522 L3.68472202,3.1713527 Z" id="Rectangle-144"></path>
        </g>
        <g id="Group" transform="translate(203.500000, 46.378035) scale(-1, 1) translate(-203.500000, -46.378035) translate(185.000000, 43.378035)" fill="#8D9EB0">
            <g id="triangle" transform="translate(3.832124, 3.275391) scale(-1, 1) translate(-3.832124, -3.275391) translate(0.832124, 0.775391)">
                <path d="M2.88775351,-0.425866237 C2.98755721,-0.684554916 3.15206769,-0.677565105 3.24917468,-0.425866237 L5.40050076,5.1503168 C5.50030446,5.40900548 5.36527212,5.61871408 5.08097484,5.61871408 L1.05595335,5.61871408 C0.779680363,5.61871408 0.639320451,5.40201566 0.736427439,5.1503168 L2.88775351,-0.425866237 Z" id="Triangle-1" transform="translate(3.069450, 2.500722) rotate(90.000000) translate(-3.069450, -2.500722) "></path>
            </g>
            <path d="M3.68472202,3.1713527 C3.68472202,2.89161312 3.91480949,2.66483938 4.1805659,2.66483938 L36.4398251,2.66483938 C36.7136721,2.66483938 36.9356689,2.87967927 36.9356689,3.1713527 L36.9356689,3.08462522 C36.9356689,3.36436481 36.7055815,3.59113855 36.4398251,3.59113855 L4.1805659,3.59113855 C3.90671889,3.59113855 3.68472202,3.37629865 3.68472202,3.08462522 L3.68472202,3.1713527 Z" id="Rectangle-144"></path>
        </g>
        <path d="M177.200466,41.005354 C180.763232,41.005354 182.544614,43.1055104 182.544614,46.2557449 L182.544614,48.5809181 C182.544614,51.9936722 180.519463,54.1313314 176.731681,54.1313314 L172.906397,54.1313314 L172.906397,41.005354 L177.200466,41.005354 Z M180.181938,48.6184209 L180.181938,46.1994907 C180.181938,44.0618316 179.169363,42.8242394 177.087958,42.8242394 L175.269073,42.8242394 L175.269073,52.3124459 L176.750433,52.3124459 C179.038103,52.3124459 180.181938,51.1123566 180.181938,48.6184209 Z" id="D" fill="#8D9EB0"></path>
        <path d="M130,42.1227855 C130,41.8456998 130.231934,41.6210775 130.5,41.6210775 L130.5,41.6210775 C130.776142,41.6210775 131,41.841752 131,42.1227855 L131,56.729843 C131,57.0069287 130.768066,57.2315511 130.5,57.2315511 L130.5,57.2315511 C130.223858,57.2315511 130,57.0108765 130,56.729843 L130,42.1227855 Z" id="Rectangle-93" fill="#8D9EB0"></path>
        <path d="M222.335327,42.1227855 C222.335327,41.8456998 222.567261,41.6210775 222.835327,41.6210775 L222.835327,41.6210775 C223.11147,41.6210775 223.335327,41.841752 223.335327,42.1227855 L223.335327,56.729843 C223.335327,57.0069287 223.103394,57.2315511 222.835327,57.2315511 L222.835327,57.2315511 C222.559185,57.2315511 222.335327,57.0108765 222.335327,56.729843 L222.335327,42.1227855 Z" id="Rectangle-93-Copy-3" fill="#8D9EB0"></path>
        <path d="M85.973779,130.402851 C88.2614494,130.402851 89.7615611,132.240488 89.7615611,135.128203 L89.7615611,136.140778 C89.7615611,138.897233 87.9801784,140.884881 85.6925081,140.884881 C84.6236785,140.884881 83.7611142,140.491102 83.0673126,139.778549 L82.8797986,140.641113 L81.0609132,140.641113 L81.0609132,126.76508 L83.3860863,126.76508 L83.3860863,131.434178 C84.0236338,130.777879 84.886198,130.402851 85.973779,130.402851 Z M87.4363879,136.215784 L87.4363879,135.053197 C87.4363879,133.103052 86.780089,132.165482 85.5049941,132.165482 C84.6049271,132.165482 83.892374,132.596764 83.3860863,133.234312 L83.3860863,138.297189 C83.892374,138.840979 84.5299215,139.141002 85.2987287,139.141002 C86.5925751,139.141002 87.4363879,138.128426 87.4363879,136.215784 Z" id="b" fill="#8D9EB0"></path>
        <path d="M61.7812785,124.341541 C61.7812785,124.064455 62.013212,123.839832 62.2812785,123.839832 L62.2812785,123.839832 C62.5574208,123.839832 62.7812785,124.060507 62.7812785,124.341541 L62.7812785,138.948598 C62.7812785,139.225684 62.5493449,139.450306 62.2812785,139.450306 L62.2812785,139.450306 C62.0051361,139.450306 61.7812785,139.229632 61.7812785,138.948598 L61.7812785,124.341541 Z" id="Rectangle-93" fill="#8D9EB0"></path>
        <path d="M66.7492498,124.465841 C66.7492498,124.188756 66.9811834,123.964133 67.2492498,123.964133 L67.2492498,123.964133 C67.5253922,123.964133 67.7492498,124.184808 67.7492498,124.465841 L67.7492498,139.072899 C67.7492498,139.349984 67.5173162,139.574607 67.2492498,139.574607 L67.2492498,139.574607 C66.9731074,139.574607 66.7492498,139.353932 66.7492498,139.072899 L66.7492498,124.465841 Z" id="Rectangle-93-Copy-3" fill="#8D9EB0"></path>
        <path d="M224.085693,59.4712969 C224.085693,59.1951545 224.313793,58.9712969 224.591349,58.9712969 L265.975545,58.9712969 C266.254811,58.9712969 266.481201,59.2032305 266.481201,59.4712969 L266.481201,59.4712969 C266.481201,59.7474393 266.253102,59.9712969 265.975545,59.9712969 L224.591349,59.9712969 C224.312083,59.9712969 224.085693,59.7393633 224.085693,59.4712969 L224.085693,59.4712969 Z" id="Rectangle-132-Copy" fill="#8D9EB0"></path>
        <path d="M257.481201,112 C257.481201,111.723858 257.703674,111.5 257.990867,111.5 L265.971535,111.5 C266.253016,111.5 266.481201,111.731934 266.481201,112 L266.481201,112 C266.481201,112.276142 266.258728,112.5 265.971535,112.5 L257.990867,112.5 C257.709386,112.5 257.481201,112.268066 257.481201,112 L257.481201,112 Z" id="Rectangle-132-Copy" fill="#8D9EB0"></path>
        <g id="Group-2" transform="translate(262.861979, 102.500000) scale(1, -1) translate(-262.861979, -102.500000) translate(259.861979, 94.500000)" fill="#8D9EB0">
            <g id="triangle" transform="translate(2.525734, 3.950073) rotate(-90.000000) translate(-2.525734, -3.950073) translate(-0.474266, 1.450073)">
                <path d="M2.88775351,-0.425866237 C2.98755721,-0.684554916 3.15206769,-0.677565105 3.24917468,-0.425866237 L5.40050076,5.1503168 C5.50030446,5.40900548 5.36527212,5.61871408 5.08097484,5.61871408 L1.05595335,5.61871408 C0.779680363,5.61871408 0.639320451,5.40201566 0.736427439,5.1503168 L2.88775351,-0.425866237 Z" id="Triangle-1" transform="translate(3.069450, 2.500722) rotate(90.000000) translate(-3.069450, -2.500722) "></path>
            </g>
            <path d="M2.0257342,4.45042056 C2.0257342,4.17408637 2.2576678,3.95007324 2.5257342,3.95007324 L2.5257342,3.95007324 C2.80187658,3.95007324 3.0257342,4.17907381 3.0257342,4.45042056 L3.0257342,15.4497259 C3.0257342,15.7260601 2.79380061,15.9500732 2.5257342,15.9500732 L2.5257342,15.9500732 C2.24959183,15.9500732 2.0257342,15.7210727 2.0257342,15.4497259 L2.0257342,4.45042056 Z" id="Rectangle-134"></path>
        </g>
        <g id="Group-2" transform="translate(259.861979, 61.217407)" fill="#8D9EB0">
            <g id="triangle" transform="translate(2.525734, 3.427124) rotate(-90.000000) translate(-2.525734, -3.427124) translate(-0.474266, 0.927124)">
                <path d="M2.88775351,-0.425866237 C2.98755721,-0.684554916 3.15206769,-0.677565105 3.24917468,-0.425866237 L5.40050076,5.1503168 C5.50030446,5.40900548 5.36527212,5.61871408 5.08097484,5.61871408 L1.05595335,5.61871408 C0.779680363,5.61871408 0.639320451,5.40201566 0.736427439,5.1503168 L2.88775351,-0.425866237 Z" id="Triangle-1" transform="translate(3.069450, 2.500722) rotate(90.000000) translate(-3.069450, -2.500722) "></path>
            </g>
            <path d="M2.0257342,3.92747134 C2.0257342,3.65113715 2.2576678,3.42712402 2.5257342,3.42712402 L2.5257342,3.42712402 C2.80187658,3.42712402 3.0257342,3.65612459 3.0257342,3.92747134 L3.0257342,14.9267767 C3.0257342,15.2031109 2.79380061,15.427124 2.5257342,15.427124 L2.5257342,15.427124 C2.24959183,15.427124 2.0257342,15.1981235 2.0257342,14.9267767 L2.0257342,3.92747134 Z" id="Rectangle-134"></path>
        </g>
        <g id="Group-17" transform="translate(67.411237, 132.708274)" fill="#8D9EB0">
            <g id="triangle" transform="translate(3.933594, 2.500000) scale(-1, 1) translate(-3.933594, -2.500000) translate(0.933594, 0.000000)">
                <path d="M2.88775351,-0.425866237 C2.98755721,-0.684554916 3.15206769,-0.677565105 3.24917468,-0.425866237 L5.40050076,5.1503168 C5.50030446,5.40900548 5.36527212,5.61871408 5.08097484,5.61871408 L1.05595335,5.61871408 C0.779680363,5.61871408 0.639320451,5.40201566 0.736427439,5.1503168 L2.88775351,-0.425866237 Z" id="Triangle-1" transform="translate(3.069450, 2.500722) rotate(90.000000) translate(-3.069450, -2.500722) "></path>
            </g>
            <rect id="Rectangle-144" x="3.93359375" y="2" width="9" height="1" rx="0.5"></rect>
        </g>
        <g id="Group-18" transform="translate(47.790082, 132.583973)" fill="#8D9EB0">
            <g id="triangle" transform="translate(9.933594, 2.500000) scale(-1, 1) rotate(180.000000) translate(-9.933594, -2.500000) translate(6.933594, 0.000000)">
                <path d="M2.88775351,-0.425866237 C2.98755721,-0.684554916 3.15206769,-0.677565105 3.24917468,-0.425866237 L5.40050076,5.1503168 C5.50030446,5.40900548 5.36527212,5.61871408 5.08097484,5.61871408 L1.05595335,5.61871408 C0.779680363,5.61871408 0.639320451,5.40201566 0.736427439,5.1503168 L2.88775351,-0.425866237 Z" id="Triangle-1" transform="translate(3.069450, 2.500722) rotate(90.000000) translate(-3.069450, -2.500722) "></path>
            </g>
            <path d="M9.44311523,3 L1.47920477,3 C1.20832097,3 0.988726259,2.76806641 0.988726259,2.5 C0.988726259,2.5 1.0024159,2 1.47920477,2 L9.44311523,2 C9.71399904,2 9.93359375,2.23193359 9.93359375,2.5 C9.93359375,2.77614237 9.71853638,3 9.44311523,3 Z" id="Rectangle-144"></path>
        </g>
        <path d="M181.775653,135.856612 C181.775653,136.269142 181.738151,136.681673 181.700648,136.981695 L175.268919,136.981695 C175.306422,138.894338 176.187737,139.738151 177.912866,139.738151 C179.000447,139.738151 179.806757,139.344371 180.575564,138.913089 L181.400626,140.300693 C180.556813,140.93824 179.206712,141.482031 177.762855,141.482031 C174.725128,141.482031 173,139.475631 173,136.77543 L173,135.744103 C173,133.043902 174.687626,131 177.462832,131 C180.181785,131 181.775653,132.687626 181.775653,135.856612 Z M179.694248,135.462832 L179.694248,135.369075 C179.694248,133.643947 178.925441,132.706377 177.481584,132.706377 C176.056478,132.706377 175.306422,133.643947 175.268919,135.462832 L179.694248,135.462832 Z" id="e" fill="#8D9EB0"></path>
        <path d="M108.37645,126.501708 C108.37645,126.224622 108.608384,126 108.87645,126 L108.87645,126 C109.152592,126 109.37645,126.220675 109.37645,126.501708 L109.37645,141.108766 C109.37645,141.385851 109.144516,141.610474 108.87645,141.610474 L108.87645,141.610474 C108.600308,141.610474 108.37645,141.389799 108.37645,141.108766 L108.37645,126.501708 Z" id="Rectangle-93-Copy" fill="#8D9EB0"></path>
        <path d="M244.658813,126.501708 C244.658813,126.224622 244.890747,126 245.158813,126 L245.158813,126 C245.434956,126 245.658813,126.220675 245.658813,126.501708 L245.658813,141.108766 C245.658813,141.385851 245.42688,141.610474 245.158813,141.610474 L245.158813,141.610474 C244.882671,141.610474 244.658813,141.389799 244.658813,141.108766 L244.658813,126.501708 Z" id="Rectangle-93-Copy-6" fill="#8D9EB0"></path>
        <g id="Group-3" transform="translate(186.000000, 134.000000)" fill="#8D9EB0">
            <g id="Group-18-Copy" transform="translate(50.000000, 0.000000)">
                <g id="triangle" transform="translate(4.665405, 2.500000) scale(-1, 1) rotate(180.000000) translate(-4.665405, -2.500000) translate(0.665405, 0.000000)">
                    <path d="M3.88775351,-0.425866237 C3.98755721,-0.684554916 4.15206769,-0.677565105 4.24917468,-0.425866237 L6.40050076,5.1503168 C6.50030446,5.40900548 6.36527212,5.61871408 6.08097484,5.61871408 L2.05595335,5.61871408 C1.77968036,5.61871408 1.63932045,5.40201566 1.73642744,5.1503168 L3.88775351,-0.425866237 Z" id="Triangle-1" transform="translate(4.069450, 2.500722) rotate(90.000000) translate(-4.069450, -2.500722) "></path>
                </g>
            </g>
            <rect id="Rectangle-144" x="0" y="2" width="53" height="1" rx="0.5"></rect>
        </g>
        <g id="Group-3" transform="translate(138.500000, 136.500000) scale(-1, 1) translate(-138.500000, -136.500000) translate(109.000000, 134.000000)" fill="#8D9EB0">
            <g id="Group-18-Copy" transform="translate(50.000000, 0.000000)">
                <g id="triangle" transform="translate(4.665405, 2.500000) scale(-1, 1) rotate(180.000000) translate(-4.665405, -2.500000) translate(0.665405, 0.000000)">
                    <path d="M3.88775351,-0.425866237 C3.98755721,-0.684554916 4.15206769,-0.677565105 4.24917468,-0.425866237 L6.40050076,5.1503168 C6.50030446,5.40900548 6.36527212,5.61871408 6.08097484,5.61871408 L2.05595335,5.61871408 C1.77968036,5.61871408 1.63932045,5.40201566 1.73642744,5.1503168 L3.88775351,-0.425866237 Z" id="Triangle-1" transform="translate(4.069450, 2.500722) rotate(90.000000) translate(-4.069450, -2.500722) "></path>
                </g>
            </g>
            <rect id="Rectangle-144" x="0" y="2" width="53" height="1" rx="0.5"></rect>
        </g>
        <line x1="43.5" y1="115.5" x2="252.5" y2="115.5" id="Line-5" stroke="#979797" stroke-width="7" stroke-linecap="square"></line>
    </g>
</svg>