<?xml version="1.0" encoding="UTF-8" standalone="no"?>
<svg width="200px" height="150px" viewBox="0 0 200 150" version="1.1" xmlns="http://www.w3.org/2000/svg" xmlns:xlink="http://www.w3.org/1999/xlink">
    <!-- Generator: Sketch 48.2 (47327) - http://www.bohemiancoding.com/sketch -->
    <title>BGA</title>
    <desc>Created with Sketch.</desc>
    <defs>
        <path d="M3.90823292,10.8682617 C6.0585838,10.8682617 7.80178761,12.6114655 7.80178761,14.7618164 C7.80178761,16.9121673 6.0585838,18.6553711 3.90823292,18.6553711 L0.0105570274,18.6553711 L0.0105570274,10.8682617 L3.90823292,10.8682617 Z" id="path-1"></path>
        <path d="M3.90823292,0.353027344 C6.0585838,0.353027344 7.80178761,2.09623115 7.80178761,4.24658203 C7.80178761,6.39693291 6.0585838,8.14013672 3.90823292,8.14013672 L0.0105570274,8.14013672 L0.0105570274,0.353027344 L3.90823292,0.353027344 Z" id="path-2"></path>
        <path d="M3.90823292,21.3834961 C6.0585838,21.3834961 7.80178761,23.1266999 7.80178761,25.2770508 C7.80178761,27.4274017 6.0585838,29.1706055 3.90823292,29.1706055 L0.0105570274,29.1706055 L0.0105570274,21.3834961 L3.90823292,21.3834961 Z" id="path-3"></path>
        <path d="M3.90823292,31.8987305 C6.0585838,31.8987305 7.80178761,33.6419343 7.80178761,35.7922852 C7.80178761,37.942636 6.0585838,39.6858398 3.90823292,39.6858398 L0.0105570274,39.6858398 L0.0105570274,31.8987305 L3.90823292,31.8987305 Z" id="path-4"></path>
        <path d="M3.90823292,42.4139648 C6.0585838,42.4139648 7.80178761,44.1571687 7.80178761,46.3075195 C7.80178761,48.4578704 6.0585838,50.2010742 3.90823292,50.2010742 L0.0105570274,50.2010742 L0.0105570274,42.4139648 L3.90823292,42.4139648 Z" id="path-5"></path>
        <path d="M3.90823292,0.140136719 C6.0585838,0.140136719 7.80178761,1.88334053 7.80178761,4.03369141 C7.80178761,6.18404228 6.0585838,7.92724609 3.90823292,7.92724609 L0.0105570274,7.92724609 L0.0105570274,0.140136719 L3.90823292,0.140136719 Z" id="path-6"></path>
        <rect id="path-7" x="0" y="3.28881836" width="3" height="79.4223633"></rect>
        <circle id="path-8" cx="4" cy="4" r="4"></circle>
        <circle id="path-9" cx="16.0654297" cy="4" r="4"></circle>
        <circle id="path-10" cx="28.0654297" cy="4" r="4"></circle>
        <circle id="path-11" cx="40.0654297" cy="4" r="4"></circle>
        <circle id="path-12" cx="52.0654297" cy="4" r="4"></circle>
        <circle id="path-13" cx="64" cy="4" r="4"></circle>
        <circle id="path-14" cx="4" cy="4" r="4"></circle>
        <circle id="path-15" cx="16.0654297" cy="4" r="4"></circle>
        <circle id="path-16" cx="28.0654297" cy="4" r="4"></circle>
        <circle id="path-17" cx="40.0654297" cy="4" r="4"></circle>
        <circle id="path-18" cx="52.0654297" cy="4" r="4"></circle>
        <circle id="path-19" cx="64" cy="4" r="4"></circle>
        <circle id="path-20" cx="4" cy="4" r="4"></circle>
        <circle id="path-21" cx="16.0654297" cy="4" r="4"></circle>
        <circle id="path-22" cx="28.0654297" cy="4" r="4"></circle>
        <circle id="path-23" cx="40.0654297" cy="4" r="4"></circle>
        <circle id="path-24" cx="52.0654297" cy="4" r="4"></circle>
        <circle id="path-25" cx="64" cy="4" r="4"></circle>
        <circle id="path-26" cx="4" cy="4" r="4"></circle>
        <circle id="path-27" cx="16.0654297" cy="4" r="4"></circle>
        <circle id="path-28" cx="28.0654297" cy="4" r="4"></circle>
        <circle id="path-29" cx="40.0654297" cy="4" r="4"></circle>
        <circle id="path-30" cx="52.0654297" cy="4" r="4"></circle>
        <circle id="path-31" cx="64" cy="4" r="4"></circle>
        <circle id="path-32" cx="4" cy="4" r="4"></circle>
        <circle id="path-33" cx="16.0654297" cy="4" r="4"></circle>
        <circle id="path-34" cx="28.0654297" cy="4" r="4"></circle>
        <circle id="path-35" cx="40.0654297" cy="4" r="4"></circle>
        <circle id="path-36" cx="52.0654297" cy="4" r="4"></circle>
        <circle id="path-37" cx="64" cy="4" r="4"></circle>
        <circle id="path-38" cx="4" cy="4" r="4"></circle>
        <circle id="path-39" cx="16.0654297" cy="4" r="4"></circle>
        <circle id="path-40" cx="28.0654297" cy="4" r="4"></circle>
        <circle id="path-41" cx="40.0654297" cy="4" r="4"></circle>
        <circle id="path-42" cx="52.0654297" cy="4" r="4"></circle>
        <circle id="path-43" cx="64" cy="4" r="4"></circle>
    </defs>
    <g stroke="none" stroke-width="1" fill="none" fill-rule="evenodd">
        <g>
            <g transform="translate(28.000000, 32.000000)">
                <g transform="translate(12.000000, 13.500000)">
                    <g transform="translate(0.000000, 0.748047)">
                        <g>
                            <use fill="#ECECEC" fill-rule="evenodd" xlink:href="#path-1"></use>
                            <path stroke="#979797" stroke-width="1" d="M0.510557027,11.3682617 L0.510557027,18.1553711 L3.90823292,18.1553711 C5.78244142,18.1553711 7.30178761,16.6360249 7.30178761,14.7618164 C7.30178761,12.8876079 5.78244142,11.3682617 3.90823292,11.3682617 L0.510557027,11.3682617 Z"></path>
                        </g>
                        <g>
                            <use fill="#ECECEC" fill-rule="evenodd" xlink:href="#path-2"></use>
                            <path stroke="#979797" stroke-width="1" d="M0.510557027,0.853027344 L0.510557027,7.64013672 L3.90823292,7.64013672 C5.78244142,7.64013672 7.30178761,6.12079053 7.30178761,4.24658203 C7.30178761,2.37237353 5.78244142,0.853027344 3.90823292,0.853027344 L0.510557027,0.853027344 Z"></path>
                        </g>
                        <g>
                            <use fill="#ECECEC" fill-rule="evenodd" xlink:href="#path-3"></use>
                            <path stroke="#979797" stroke-width="1" d="M0.510557027,21.8834961 L0.510557027,28.6706055 L3.90823292,28.6706055 C5.78244142,28.6706055 7.30178761,27.1512593 7.30178761,25.2770508 C7.30178761,23.4028423 5.78244142,21.8834961 3.90823292,21.8834961 L0.510557027,21.8834961 Z"></path>
                        </g>
                        <g>
                            <use fill="#ECECEC" fill-rule="evenodd" xlink:href="#path-4"></use>
                            <path stroke="#979797" stroke-width="1" d="M0.510557027,32.3987305 L0.510557027,39.1858398 L3.90823292,39.1858398 C5.78244142,39.1858398 7.30178761,37.6664937 7.30178761,35.7922852 C7.30178761,33.9180767 5.78244142,32.3987305 3.90823292,32.3987305 L0.510557027,32.3987305 Z"></path>
                        </g>
                        <g>
                            <use fill="#ECECEC" fill-rule="evenodd" xlink:href="#path-5"></use>
                            <path stroke="#979797" stroke-width="1" d="M0.510557027,42.9139648 L0.510557027,49.7010742 L3.90823292,49.7010742 C5.78244142,49.7010742 7.30178761,48.181728 7.30178761,46.3075195 C7.30178761,44.433311 5.78244142,42.9139648 3.90823292,42.9139648 L0.510557027,42.9139648 Z"></path>
                        </g>
                        <g transform="translate(0.000000, 52.929199)">
                            <g>
                                <use fill="#ECECEC" fill-rule="evenodd" xlink:href="#path-6"></use>
                                <path stroke="#979797" stroke-width="1" d="M0.510557027,0.640136719 L0.510557027,7.42724609 L3.90823292,7.42724609 C5.78244142,7.42724609 7.30178761,5.90789991 7.30178761,4.03369141 C7.30178761,2.1594829 5.78244142,0.640136719 3.90823292,0.640136719 L0.510557027,0.640136719 Z"></path>
                            </g>
                        </g>
                    </g>
                </g>
                <g transform="translate(12.000000, 25.977051)"></g>
                <g transform="translate(12.000000, 36.977051)"></g>
                <g transform="translate(12.000000, 47.977051)"></g>
                <g>
                    <use fill="#585858" fill-rule="evenodd" xlink:href="#path-7"></use>
                    <rect stroke="#505050" stroke-width="1" x="0.5" y="3.78881836" width="2" height="78.4223633"></rect>
                </g>
                <g transform="translate(2.000000, 0.000000)">
                    <rect stroke="#619B43" fill="#76BD52" x="0.21875" y="1" width="11" height="84" rx="1"></rect>
                    <rect stroke="#327336" fill="#3C8941" x="0.21875" y="0.541992188" width="11" height="84.4580078" rx="1"></rect>
                </g>
                <path d="M57.2467405,2.43066406 L142.266602,2.43066406 C142.818886,2.43066406 143.266602,2.87837931 143.266602,3.43066406 L143.266602,85.4306641 C143.266602,85.9829488 142.818886,86.4306641 142.266602,86.4306641 L57.2467405,86.4306641 C56.6944557,86.4306641 56.2467405,85.9829488 56.2467405,85.4306641 L56.2467405,3.43066406 C56.2467405,2.87837931 56.6944557,2.43066406 57.2467405,2.43066406 Z" stroke="#327336" fill="#3C8941"></path>
                <g transform="translate(65.756671, 14.477051)">
                    <g transform="translate(0.000000, 0.958984)">
                        <g>
                            <use fill="#ECECEC" fill-rule="evenodd" xlink:href="#path-8"></use>
                            <circle stroke="#979797" stroke-width="1" cx="4" cy="4" r="3.5"></circle>
                        </g>
                        <g>
                            <use fill="#ECECEC" fill-rule="evenodd" xlink:href="#path-9"></use>
                            <circle stroke="#979797" stroke-width="1" cx="16.0654297" cy="4" r="3.5"></circle>
                        </g>
                        <g>
                            <use fill="#ECECEC" fill-rule="evenodd" xlink:href="#path-10"></use>
                            <circle stroke="#979797" stroke-width="1" cx="28.0654297" cy="4" r="3.5"></circle>
                        </g>
                        <g>
                            <use fill="#ECECEC" fill-rule="evenodd" xlink:href="#path-11"></use>
                            <circle stroke="#979797" stroke-width="1" cx="40.0654297" cy="4" r="3.5"></circle>
                        </g>
                        <g>
                            <use fill="#ECECEC" fill-rule="evenodd" xlink:href="#path-12"></use>
                            <circle stroke="#979797" stroke-width="1" cx="52.0654297" cy="4" r="3.5"></circle>
                        </g>
                        <g>
                            <use fill="#ECECEC" fill-rule="evenodd" xlink:href="#path-13"></use>
                            <circle stroke="#979797" stroke-width="1" cx="64" cy="4" r="3.5"></circle>
                        </g>
                    </g>
                    <g transform="translate(0.000000, 11.167188)">
                        <g>
                            <use fill="#ECECEC" fill-rule="evenodd" xlink:href="#path-14"></use>
                            <circle stroke="#979797" stroke-width="1" cx="4" cy="4" r="3.5"></circle>
                        </g>
                        <g>
                            <use fill="#ECECEC" fill-rule="evenodd" xlink:href="#path-15"></use>
                            <circle stroke="#979797" stroke-width="1" cx="16.0654297" cy="4" r="3.5"></circle>
                        </g>
                        <g>
                            <use fill="#ECECEC" fill-rule="evenodd" xlink:href="#path-16"></use>
                            <circle stroke="#979797" stroke-width="1" cx="28.0654297" cy="4" r="3.5"></circle>
                        </g>
                        <g>
                            <use fill="#ECECEC" fill-rule="evenodd" xlink:href="#path-17"></use>
                            <circle stroke="#979797" stroke-width="1" cx="40.0654297" cy="4" r="3.5"></circle>
                        </g>
                        <g>
                            <use fill="#ECECEC" fill-rule="evenodd" xlink:href="#path-18"></use>
                            <circle stroke="#979797" stroke-width="1" cx="52.0654297" cy="4" r="3.5"></circle>
                        </g>
                        <g>
                            <use fill="#ECECEC" fill-rule="evenodd" xlink:href="#path-19"></use>
                            <circle stroke="#979797" stroke-width="1" cx="64" cy="4" r="3.5"></circle>
                        </g>
                    </g>
                    <g transform="translate(0.000000, 21.375391)">
                        <g>
                            <use fill="#ECECEC" fill-rule="evenodd" xlink:href="#path-20"></use>
                            <circle stroke="#979797" stroke-width="1" cx="4" cy="4" r="3.5"></circle>
                        </g>
                        <g>
                            <use fill="#ECECEC" fill-rule="evenodd" xlink:href="#path-21"></use>
                            <circle stroke="#979797" stroke-width="1" cx="16.0654297" cy="4" r="3.5"></circle>
                        </g>
                        <g>
                            <use fill="#ECECEC" fill-rule="evenodd" xlink:href="#path-22"></use>
                            <circle stroke="#979797" stroke-width="1" cx="28.0654297" cy="4" r="3.5"></circle>
                        </g>
                        <g>
                            <use fill="#ECECEC" fill-rule="evenodd" xlink:href="#path-23"></use>
                            <circle stroke="#979797" stroke-width="1" cx="40.0654297" cy="4" r="3.5"></circle>
                        </g>
                        <g>
                            <use fill="#ECECEC" fill-rule="evenodd" xlink:href="#path-24"></use>
                            <circle stroke="#979797" stroke-width="1" cx="52.0654297" cy="4" r="3.5"></circle>
                        </g>
                        <g>
                            <use fill="#ECECEC" fill-rule="evenodd" xlink:href="#path-25"></use>
                            <circle stroke="#979797" stroke-width="1" cx="64" cy="4" r="3.5"></circle>
                        </g>
                    </g>
                    <g transform="translate(0.000000, 31.583594)">
                        <g>
                            <use fill="#ECECEC" fill-rule="evenodd" xlink:href="#path-26"></use>
                            <circle stroke="#979797" stroke-width="1" cx="4" cy="4" r="3.5"></circle>
                        </g>
                        <g>
                            <use fill="#ECECEC" fill-rule="evenodd" xlink:href="#path-27"></use>
                            <circle stroke="#979797" stroke-width="1" cx="16.0654297" cy="4" r="3.5"></circle>
                        </g>
                        <g>
                            <use fill="#ECECEC" fill-rule="evenodd" xlink:href="#path-28"></use>
                            <circle stroke="#979797" stroke-width="1" cx="28.0654297" cy="4" r="3.5"></circle>
                        </g>
                        <g>
                            <use fill="#ECECEC" fill-rule="evenodd" xlink:href="#path-29"></use>
                            <circle stroke="#979797" stroke-width="1" cx="40.0654297" cy="4" r="3.5"></circle>
                        </g>
                        <g>
                            <use fill="#ECECEC" fill-rule="evenodd" xlink:href="#path-30"></use>
                            <circle stroke="#979797" stroke-width="1" cx="52.0654297" cy="4" r="3.5"></circle>
                        </g>
                        <g>
                            <use fill="#ECECEC" fill-rule="evenodd" xlink:href="#path-31"></use>
                            <circle stroke="#979797" stroke-width="1" cx="64" cy="4" r="3.5"></circle>
                        </g>
                    </g>
                    <g transform="translate(0.000000, 41.791797)">
                        <g>
                            <use fill="#ECECEC" fill-rule="evenodd" xlink:href="#path-32"></use>
                            <circle stroke="#979797" stroke-width="1" cx="4" cy="4" r="3.5"></circle>
                        </g>
                        <g>
                            <use fill="#ECECEC" fill-rule="evenodd" xlink:href="#path-33"></use>
                            <circle stroke="#979797" stroke-width="1" cx="16.0654297" cy="4" r="3.5"></circle>
                        </g>
                        <g>
                            <use fill="#ECECEC" fill-rule="evenodd" xlink:href="#path-34"></use>
                            <circle stroke="#979797" stroke-width="1" cx="28.0654297" cy="4" r="3.5"></circle>
                        </g>
                        <g>
                            <use fill="#ECECEC" fill-rule="evenodd" xlink:href="#path-35"></use>
                            <circle stroke="#979797" stroke-width="1" cx="40.0654297" cy="4" r="3.5"></circle>
                        </g>
                        <g>
                            <use fill="#ECECEC" fill-rule="evenodd" xlink:href="#path-36"></use>
                            <circle stroke="#979797" stroke-width="1" cx="52.0654297" cy="4" r="3.5"></circle>
                        </g>
                        <g>
                            <use fill="#ECECEC" fill-rule="evenodd" xlink:href="#path-37"></use>
                            <circle stroke="#979797" stroke-width="1" cx="64" cy="4" r="3.5"></circle>
                        </g>
                    </g>
                    <g transform="translate(0.000000, 52.000000)">
                        <g>
                            <use fill="#ECECEC" fill-rule="evenodd" xlink:href="#path-38"></use>
                            <circle stroke="#979797" stroke-width="1" cx="4" cy="4" r="3.5"></circle>
                        </g>
                        <g>
                            <use fill="#ECECEC" fill-rule="evenodd" xlink:href="#path-39"></use>
                            <circle stroke="#979797" stroke-width="1" cx="16.0654297" cy="4" r="3.5"></circle>
                        </g>
                        <g>
                            <use fill="#ECECEC" fill-rule="evenodd" xlink:href="#path-40"></use>
                            <circle stroke="#979797" stroke-width="1" cx="28.0654297" cy="4" r="3.5"></circle>
                        </g>
                        <g>
                            <use fill="#ECECEC" fill-rule="evenodd" xlink:href="#path-41"></use>
                            <circle stroke="#979797" stroke-width="1" cx="40.0654297" cy="4" r="3.5"></circle>
                        </g>
                        <g>
                            <use fill="#ECECEC" fill-rule="evenodd" xlink:href="#path-42"></use>
                            <circle stroke="#979797" stroke-width="1" cx="52.0654297" cy="4" r="3.5"></circle>
                        </g>
                        <g>
                            <use fill="#ECECEC" fill-rule="evenodd" xlink:href="#path-43"></use>
                            <circle stroke="#979797" stroke-width="1" cx="64" cy="4" r="3.5"></circle>
                        </g>
                    </g>
                </g>
            </g>
        </g>
    </g>
</svg>