<?xml version="1.0" encoding="UTF-8" standalone="no"?>
<svg width="290px" height="175px" viewBox="0 0 290 175" version="1.1" xmlns="http://www.w3.org/2000/svg" xmlns:xlink="http://www.w3.org/1999/xlink" >
    <!-- Generator: Sketch 48.2 (47327) - http://www.bohemiancoding.com/sketch -->
    <title>BGA-Labeled</title>
    <desc>Created with Sketch.</desc>
    <defs>
        <path d="M4.96345581,13.8389199 C7.69440143,13.8389199 9.90827027,16.0585994 9.90827027,18.7967129 C9.90827027,21.5348263 7.69440143,23.7545059 4.96345581,23.7545059 L0.0134074249,23.7545059 L0.0134074249,13.8389199 L4.96345581,13.8389199 Z" id="path-1"></path>
        <path d="M4.96345581,0.449521484 C7.69440143,0.449521484 9.90827027,2.669201 9.90827027,5.40731445 C9.90827027,8.1454279 7.69440143,10.3651074 4.96345581,10.3651074 L0.0134074249,10.3651074 L0.0134074249,0.449521484 L4.96345581,0.449521484 Z" id="path-2"></path>
        <path d="M4.96345581,27.2283184 C7.69440143,27.2283184 9.90827027,29.4479979 9.90827027,32.1861113 C9.90827027,34.9242248 7.69440143,37.1439043 4.96345581,37.1439043 L0.0134074249,37.1439043 L0.0134074249,27.2283184 L4.96345581,27.2283184 Z" id="path-3"></path>
        <path d="M4.96345581,40.6177168 C7.69440143,40.6177168 9.90827027,42.8373963 9.90827027,45.5755098 C9.90827027,48.3136232 7.69440143,50.5333027 4.96345581,50.5333027 L0.0134074249,50.5333027 L0.0134074249,40.6177168 L4.96345581,40.6177168 Z" id="path-4"></path>
        <path d="M4.96345581,54.0071152 C7.69440143,54.0071152 9.90827027,56.2267948 9.90827027,58.9649082 C9.90827027,61.7030217 7.69440143,63.9227012 4.96345581,63.9227012 L0.0134074249,63.9227012 L0.0134074249,54.0071152 L4.96345581,54.0071152 Z" id="path-5"></path>
        <path d="M4.96345581,0.178440755 C7.69440143,0.178440755 9.90827027,2.39812027 9.90827027,5.13623372 C9.90827027,7.87434717 7.69440143,10.0940267 4.96345581,10.0940267 L0.0134074249,10.0940267 L0.0134074249,0.178440755 L4.96345581,0.178440755 Z" id="path-6"></path>
        <rect id="path-7" x="0" y="4.18776204" width="3.81" height="101.131143"></rect>
        <ellipse id="path-8" cx="5.08" cy="5.09333333" rx="5.08" ry="5.09333333"></ellipse>
        <ellipse id="path-9" cx="20.4030957" cy="5.09333333" rx="5.08" ry="5.09333333"></ellipse>
        <ellipse id="path-10" cx="35.6430957" cy="5.09333333" rx="5.08" ry="5.09333333"></ellipse>
        <ellipse id="path-11" cx="50.8830957" cy="5.09333333" rx="5.08" ry="5.09333333"></ellipse>
        <ellipse id="path-12" cx="66.1230957" cy="5.09333333" rx="5.08" ry="5.09333333"></ellipse>
        <ellipse id="path-13" cx="81.28" cy="5.09333333" rx="5.08" ry="5.09333333"></ellipse>
        <ellipse id="path-14" cx="5.08" cy="5.09333333" rx="5.08" ry="5.09333333"></ellipse>
        <ellipse id="path-15" cx="20.4030957" cy="5.09333333" rx="5.08" ry="5.09333333"></ellipse>
        <ellipse id="path-16" cx="35.6430957" cy="5.09333333" rx="5.08" ry="5.09333333"></ellipse>
        <ellipse id="path-17" cx="50.8830957" cy="5.09333333" rx="5.08" ry="5.09333333"></ellipse>
        <ellipse id="path-18" cx="66.1230957" cy="5.09333333" rx="5.08" ry="5.09333333"></ellipse>
        <ellipse id="path-19" cx="81.28" cy="5.09333333" rx="5.08" ry="5.09333333"></ellipse>
        <ellipse id="path-20" cx="5.08" cy="5.09333333" rx="5.08" ry="5.09333333"></ellipse>
        <ellipse id="path-21" cx="20.4030957" cy="5.09333333" rx="5.08" ry="5.09333333"></ellipse>
        <ellipse id="path-22" cx="35.6430957" cy="5.09333333" rx="5.08" ry="5.09333333"></ellipse>
        <ellipse id="path-23" cx="50.8830957" cy="5.09333333" rx="5.08" ry="5.09333333"></ellipse>
        <ellipse id="path-24" cx="66.1230957" cy="5.09333333" rx="5.08" ry="5.09333333"></ellipse>
        <ellipse id="path-25" cx="81.28" cy="5.09333333" rx="5.08" ry="5.09333333"></ellipse>
        <ellipse id="path-26" cx="5.08" cy="5.09333333" rx="5.08" ry="5.09333333"></ellipse>
        <ellipse id="path-27" cx="20.4030957" cy="5.09333333" rx="5.08" ry="5.09333333"></ellipse>
        <ellipse id="path-28" cx="35.6430957" cy="5.09333333" rx="5.08" ry="5.09333333"></ellipse>
        <ellipse id="path-29" cx="50.8830957" cy="5.09333333" rx="5.08" ry="5.09333333"></ellipse>
        <ellipse id="path-30" cx="66.1230957" cy="5.09333333" rx="5.08" ry="5.09333333"></ellipse>
        <ellipse id="path-31" cx="81.28" cy="5.09333333" rx="5.08" ry="5.09333333"></ellipse>
        <ellipse id="path-32" cx="5.08" cy="5.09333333" rx="5.08" ry="5.09333333"></ellipse>
        <ellipse id="path-33" cx="20.4030957" cy="5.09333333" rx="5.08" ry="5.09333333"></ellipse>
        <ellipse id="path-34" cx="35.6430957" cy="5.09333333" rx="5.08" ry="5.09333333"></ellipse>
        <ellipse id="path-35" cx="50.8830957" cy="5.09333333" rx="5.08" ry="5.09333333"></ellipse>
        <ellipse id="path-36" cx="66.1230957" cy="5.09333333" rx="5.08" ry="5.09333333"></ellipse>
        <ellipse id="path-37" cx="81.28" cy="5.09333333" rx="5.08" ry="5.09333333"></ellipse>
        <ellipse id="path-38" cx="5.08" cy="5.09333333" rx="5.08" ry="5.09333333"></ellipse>
        <ellipse id="path-39" cx="20.4030957" cy="5.09333333" rx="5.08" ry="5.09333333"></ellipse>
        <ellipse id="path-40" cx="35.6430957" cy="5.09333333" rx="5.08" ry="5.09333333"></ellipse>
        <ellipse id="path-41" cx="50.8830957" cy="5.09333333" rx="5.08" ry="5.09333333"></ellipse>
        <ellipse id="path-42" cx="66.1230957" cy="5.09333333" rx="5.08" ry="5.09333333"></ellipse>
        <ellipse id="path-43" cx="81.28" cy="5.09333333" rx="5.08" ry="5.09333333"></ellipse>
    </defs>
    <g stroke="none" stroke-width="1" fill="none" fill-rule="evenodd">
        <g>
            <g transform="translate(17.853516, -7.859863)">
                <g transform="translate(35.560000, 40.746667)">
                    <g transform="translate(15.240000, 17.190000)">
                        <g transform="translate(0.000000, 0.952513)">
                            <g>
                                <use fill="#ECECEC" fill-rule="evenodd" xlink:href="#path-1"></use>
                                <path stroke="#979797" stroke-width="1" d="M0.513407425,14.3389199 L0.513407425,23.2545059 L4.96345581,23.2545059 C7.41796523,23.2545059 9.40827027,21.2589769 9.40827027,18.7967129 C9.40827027,16.3344489 7.41796523,14.3389199 4.96345581,14.3389199 L0.513407425,14.3389199 Z"></path>
                            </g>
                            <g>
                                <use fill="#ECECEC" fill-rule="evenodd" xlink:href="#path-2"></use>
                                <path stroke="#979797" stroke-width="1" d="M0.513407425,0.949521484 L0.513407425,9.86510742 L4.96345581,9.86510742 C7.41796523,9.86510742 9.40827027,7.86957849 9.40827027,5.40731445 C9.40827027,2.94505041 7.41796523,0.949521484 4.96345581,0.949521484 L0.513407425,0.949521484 Z"></path>
                            </g>
                            <g>
                                <use fill="#ECECEC" fill-rule="evenodd" xlink:href="#path-3"></use>
                                <path stroke="#979797" stroke-width="1" d="M0.513407425,27.7283184 L0.513407425,36.6439043 L4.96345581,36.6439043 C7.41796523,36.6439043 9.40827027,34.6483754 9.40827027,32.1861113 C9.40827027,29.7238473 7.41796523,27.7283184 4.96345581,27.7283184 L0.513407425,27.7283184 Z"></path>
                            </g>
                            <g>
                                <use fill="#ECECEC" fill-rule="evenodd" xlink:href="#path-4"></use>
                                <path stroke="#979797" stroke-width="1" d="M0.513407425,41.1177168 L0.513407425,50.0333027 L4.96345581,50.0333027 C7.41796523,50.0333027 9.40827027,48.0377738 9.40827027,45.5755098 C9.40827027,43.1132457 7.41796523,41.1177168 4.96345581,41.1177168 L0.513407425,41.1177168 Z"></path>
                            </g>
                            <g>
                                <use fill="#ECECEC" fill-rule="evenodd" xlink:href="#path-5"></use>
                                <path stroke="#979797" stroke-width="1" d="M0.513407425,54.5071152 L0.513407425,63.4227012 L4.96345581,63.4227012 C7.41796523,63.4227012 9.40827027,61.4271722 9.40827027,58.9649082 C9.40827027,56.5026442 7.41796523,54.5071152 4.96345581,54.5071152 L0.513407425,54.5071152 Z"></path>
                            </g>
                            <g transform="translate(0.000000, 67.396514)">
                                <g>
                                    <use fill="#ECECEC" fill-rule="evenodd" xlink:href="#path-6"></use>
                                    <path stroke="#979797" stroke-width="1" d="M0.513407425,0.678440755 L0.513407425,9.59402669 L4.96345581,9.59402669 C7.41796523,9.59402669 9.40827027,7.59849776 9.40827027,5.13623372 C9.40827027,2.67396968 7.41796523,0.678440755 4.96345581,0.678440755 L0.513407425,0.678440755 Z"></path>
                                </g>
                            </g>
                        </g>
                    </g>
                    <g transform="translate(15.240000, 33.077445)"></g>
                    <g transform="translate(15.240000, 47.084111)"></g>
                    <g transform="translate(15.240000, 61.090778)"></g>
                    <g>
                        <use fill="#585858" fill-rule="evenodd" xlink:href="#path-7"></use>
                        <rect stroke="#505050" stroke-width="1" x="0.5" y="4.68776204" width="2.81" height="100.131143"></rect>
                    </g>
                    <g transform="translate(2.540000, 0.000000)">
                        <rect stroke="#619B43" fill="#76BD52" x="0.2778125" y="1.27333333" width="13.97" height="106.96" rx="1"></rect>
                        <rect stroke="#327336" fill="#3C8941" x="0.2778125" y="0.690136719" width="13.97" height="107.543197" rx="1"></rect>
                    </g>
                    <path d="M72.4333604,3.09504557 L180.948584,3.09504557 C181.500869,3.09504557 181.948584,3.54276082 181.948584,4.09504557 L181.948584,109.055046 C181.948584,109.60733 181.500869,110.055046 180.948584,110.055046 L72.4333604,110.055046 C71.8810757,110.055046 71.4333604,109.60733 71.4333604,109.055046 L71.4333604,4.09504557 C71.4333604,3.54276082 71.8810757,3.09504557 72.4333604,3.09504557 Z" stroke="#327336" fill="#3C8941"></path>
                    <g transform="translate(83.510972, 18.434111)">
                        <g transform="translate(0.000000, 1.221107)">
                            <g>
                                <use fill="#ECECEC" fill-rule="evenodd" xlink:href="#path-8"></use>
                                <ellipse stroke="#979797" stroke-width="1" cx="5.08" cy="5.09333333" rx="4.58" ry="4.59333333"></ellipse>
                            </g>
                            <g>
                                <use fill="#ECECEC" fill-rule="evenodd" xlink:href="#path-9"></use>
                                <ellipse stroke="#979797" stroke-width="1" cx="20.4030957" cy="5.09333333" rx="4.58" ry="4.59333333"></ellipse>
                            </g>
                            <g>
                                <use fill="#ECECEC" fill-rule="evenodd" xlink:href="#path-10"></use>
                                <ellipse stroke="#979797" stroke-width="1" cx="35.6430957" cy="5.09333333" rx="4.58" ry="4.59333333"></ellipse>
                            </g>
                            <g>
                                <use fill="#ECECEC" fill-rule="evenodd" xlink:href="#path-11"></use>
                                <ellipse stroke="#979797" stroke-width="1" cx="50.8830957" cy="5.09333333" rx="4.58" ry="4.59333333"></ellipse>
                            </g>
                            <g>
                                <use fill="#ECECEC" fill-rule="evenodd" xlink:href="#path-12"></use>
                                <ellipse stroke="#979797" stroke-width="1" cx="66.1230957" cy="5.09333333" rx="4.58" ry="4.59333333"></ellipse>
                            </g>
                            <g>
                                <use fill="#ECECEC" fill-rule="evenodd" xlink:href="#path-13"></use>
                                <ellipse stroke="#979797" stroke-width="1" cx="81.28" cy="5.09333333" rx="4.58" ry="4.59333333"></ellipse>
                            </g>
                        </g>
                        <g transform="translate(0.000000, 14.219552)">
                            <g>
                                <use fill="#ECECEC" fill-rule="evenodd" xlink:href="#path-14"></use>
                                <ellipse stroke="#979797" stroke-width="1" cx="5.08" cy="5.09333333" rx="4.58" ry="4.59333333"></ellipse>
                            </g>
                            <g>
                                <use fill="#ECECEC" fill-rule="evenodd" xlink:href="#path-15"></use>
                                <ellipse stroke="#979797" stroke-width="1" cx="20.4030957" cy="5.09333333" rx="4.58" ry="4.59333333"></ellipse>
                            </g>
                            <g>
                                <use fill="#ECECEC" fill-rule="evenodd" xlink:href="#path-16"></use>
                                <ellipse stroke="#979797" stroke-width="1" cx="35.6430957" cy="5.09333333" rx="4.58" ry="4.59333333"></ellipse>
                            </g>
                            <g>
                                <use fill="#ECECEC" fill-rule="evenodd" xlink:href="#path-17"></use>
                                <ellipse stroke="#979797" stroke-width="1" cx="50.8830957" cy="5.09333333" rx="4.58" ry="4.59333333"></ellipse>
                            </g>
                            <g>
                                <use fill="#ECECEC" fill-rule="evenodd" xlink:href="#path-18"></use>
                                <ellipse stroke="#979797" stroke-width="1" cx="66.1230957" cy="5.09333333" rx="4.58" ry="4.59333333"></ellipse>
                            </g>
                            <g>
                                <use fill="#ECECEC" fill-rule="evenodd" xlink:href="#path-19"></use>
                                <ellipse stroke="#979797" stroke-width="1" cx="81.28" cy="5.09333333" rx="4.58" ry="4.59333333"></ellipse>
                            </g>
                        </g>
                        <g transform="translate(0.000000, 27.217997)">
                            <g>
                                <use fill="#ECECEC" fill-rule="evenodd" xlink:href="#path-20"></use>
                                <ellipse stroke="#979797" stroke-width="1" cx="5.08" cy="5.09333333" rx="4.58" ry="4.59333333"></ellipse>
                            </g>
                            <g>
                                <use fill="#ECECEC" fill-rule="evenodd" xlink:href="#path-21"></use>
                                <ellipse stroke="#979797" stroke-width="1" cx="20.4030957" cy="5.09333333" rx="4.58" ry="4.59333333"></ellipse>
                            </g>
                            <g>
                                <use fill="#ECECEC" fill-rule="evenodd" xlink:href="#path-22"></use>
                                <ellipse stroke="#979797" stroke-width="1" cx="35.6430957" cy="5.09333333" rx="4.58" ry="4.59333333"></ellipse>
                            </g>
                            <g>
                                <use fill="#ECECEC" fill-rule="evenodd" xlink:href="#path-23"></use>
                                <ellipse stroke="#979797" stroke-width="1" cx="50.8830957" cy="5.09333333" rx="4.58" ry="4.59333333"></ellipse>
                            </g>
                            <g>
                                <use fill="#ECECEC" fill-rule="evenodd" xlink:href="#path-24"></use>
                                <ellipse stroke="#979797" stroke-width="1" cx="66.1230957" cy="5.09333333" rx="4.58" ry="4.59333333"></ellipse>
                            </g>
                            <g>
                                <use fill="#ECECEC" fill-rule="evenodd" xlink:href="#path-25"></use>
                                <ellipse stroke="#979797" stroke-width="1" cx="81.28" cy="5.09333333" rx="4.58" ry="4.59333333"></ellipse>
                            </g>
                        </g>
                        <g transform="translate(0.000000, 40.216443)">
                            <g>
                                <use fill="#ECECEC" fill-rule="evenodd" xlink:href="#path-26"></use>
                                <ellipse stroke="#979797" stroke-width="1" cx="5.08" cy="5.09333333" rx="4.58" ry="4.59333333"></ellipse>
                            </g>
                            <g>
                                <use fill="#ECECEC" fill-rule="evenodd" xlink:href="#path-27"></use>
                                <ellipse stroke="#979797" stroke-width="1" cx="20.4030957" cy="5.09333333" rx="4.58" ry="4.59333333"></ellipse>
                            </g>
                            <g>
                                <use fill="#ECECEC" fill-rule="evenodd" xlink:href="#path-28"></use>
                                <ellipse stroke="#979797" stroke-width="1" cx="35.6430957" cy="5.09333333" rx="4.58" ry="4.59333333"></ellipse>
                            </g>
                            <g>
                                <use fill="#ECECEC" fill-rule="evenodd" xlink:href="#path-29"></use>
                                <ellipse stroke="#979797" stroke-width="1" cx="50.8830957" cy="5.09333333" rx="4.58" ry="4.59333333"></ellipse>
                            </g>
                            <g>
                                <use fill="#ECECEC" fill-rule="evenodd" xlink:href="#path-30"></use>
                                <ellipse stroke="#979797" stroke-width="1" cx="66.1230957" cy="5.09333333" rx="4.58" ry="4.59333333"></ellipse>
                            </g>
                            <g>
                                <use fill="#ECECEC" fill-rule="evenodd" xlink:href="#path-31"></use>
                                <ellipse stroke="#979797" stroke-width="1" cx="81.28" cy="5.09333333" rx="4.58" ry="4.59333333"></ellipse>
                            </g>
                        </g>
                        <g transform="translate(0.000000, 53.214888)">
                            <g>
                                <use fill="#ECECEC" fill-rule="evenodd" xlink:href="#path-32"></use>
                                <ellipse stroke="#979797" stroke-width="1" cx="5.08" cy="5.09333333" rx="4.58" ry="4.59333333"></ellipse>
                            </g>
                            <g>
                                <use fill="#ECECEC" fill-rule="evenodd" xlink:href="#path-33"></use>
                                <ellipse stroke="#979797" stroke-width="1" cx="20.4030957" cy="5.09333333" rx="4.58" ry="4.59333333"></ellipse>
                            </g>
                            <g>
                                <use fill="#ECECEC" fill-rule="evenodd" xlink:href="#path-34"></use>
                                <ellipse stroke="#979797" stroke-width="1" cx="35.6430957" cy="5.09333333" rx="4.58" ry="4.59333333"></ellipse>
                            </g>
                            <g>
                                <use fill="#ECECEC" fill-rule="evenodd" xlink:href="#path-35"></use>
                                <ellipse stroke="#979797" stroke-width="1" cx="50.8830957" cy="5.09333333" rx="4.58" ry="4.59333333"></ellipse>
                            </g>
                            <g>
                                <use fill="#ECECEC" fill-rule="evenodd" xlink:href="#path-36"></use>
                                <ellipse stroke="#979797" stroke-width="1" cx="66.1230957" cy="5.09333333" rx="4.58" ry="4.59333333"></ellipse>
                            </g>
                            <g>
                                <use fill="#ECECEC" fill-rule="evenodd" xlink:href="#path-37"></use>
                                <ellipse stroke="#979797" stroke-width="1" cx="81.28" cy="5.09333333" rx="4.58" ry="4.59333333"></ellipse>
                            </g>
                        </g>
                        <g transform="translate(0.000000, 66.213333)">
                            <g>
                                <use fill="#ECECEC" fill-rule="evenodd" xlink:href="#path-38"></use>
                                <ellipse stroke="#979797" stroke-width="1" cx="5.08" cy="5.09333333" rx="4.58" ry="4.59333333"></ellipse>
                            </g>
                            <g>
                                <use fill="#ECECEC" fill-rule="evenodd" xlink:href="#path-39"></use>
                                <ellipse stroke="#979797" stroke-width="1" cx="20.4030957" cy="5.09333333" rx="4.58" ry="4.59333333"></ellipse>
                            </g>
                            <g>
                                <use fill="#ECECEC" fill-rule="evenodd" xlink:href="#path-40"></use>
                                <ellipse stroke="#979797" stroke-width="1" cx="35.6430957" cy="5.09333333" rx="4.58" ry="4.59333333"></ellipse>
                            </g>
                            <g>
                                <use fill="#ECECEC" fill-rule="evenodd" xlink:href="#path-41"></use>
                                <ellipse stroke="#979797" stroke-width="1" cx="50.8830957" cy="5.09333333" rx="4.58" ry="4.59333333"></ellipse>
                            </g>
                            <g>
                                <use fill="#ECECEC" fill-rule="evenodd" xlink:href="#path-42"></use>
                                <ellipse stroke="#979797" stroke-width="1" cx="66.1230957" cy="5.09333333" rx="4.58" ry="4.59333333"></ellipse>
                            </g>
                            <g>
                                <use fill="#ECECEC" fill-rule="evenodd" xlink:href="#path-43"></use>
                                <ellipse stroke="#979797" stroke-width="1" cx="81.28" cy="5.09333333" rx="4.58" ry="4.59333333"></ellipse>
                            </g>
                        </g>
                    </g>
                </g>
            </g>
            <g transform="translate(79.110263, 12.732044)" fill="#8D9EB0">
                <g transform="translate(3.073701, 2.573701) scale(-1, 1) translate(-3.073701, -2.573701) translate(0.073701, 0.073701)">
                    <path d="M2.88775351,-0.425866237 C2.98755721,-0.684554916 3.15206769,-0.677565105 3.24917468,-0.425866237 L5.40050076,5.1503168 C5.50030446,5.40900548 5.36527212,5.61871408 5.08097484,5.61871408 L1.05595335,5.61871408 C0.779680363,5.61871408 0.639320451,5.40201566 0.736427439,5.1503168 L2.88775351,-0.425866237 Z" transform="translate(3.069450, 2.500722) rotate(90.000000) translate(-3.069450, -2.500722) "></path>
                </g>
                <rect x="5.85259834" y="1.92629917" width="3.70519667" height="1" rx="0.5"></rect>
            </g>
            <g transform="translate(159.110263, 148.676769)" fill="#8D9EB0">
                <g transform="translate(3.073701, 2.573701) scale(-1, 1) translate(-3.073701, -2.573701) translate(0.073701, 0.073701)">
                    <path d="M2.88775351,-0.425866237 C2.98755721,-0.684554916 3.15206769,-0.677565105 3.24917468,-0.425866237 L5.40050076,5.1503168 C5.50030446,5.40900548 5.36527212,5.61871408 5.08097484,5.61871408 L1.05595335,5.61871408 C0.779680363,5.61871408 0.639320451,5.40201566 0.736427439,5.1503168 L2.88775351,-0.425866237 Z" transform="translate(3.069450, 2.500722) rotate(90.000000) translate(-3.069450, -2.500722) "></path>
                </g>
                <rect x="5.85259834" y="1.92629917" width="3.70519667" height="1" rx="0.5"></rect>
            </g>
            <g transform="translate(126.620028, 18.610551)" fill="#8D9EB0">
                <g transform="translate(3.000000, 6.500000) scale(-1, 1) translate(-3.000000, -6.500000) translate(0.000000, 4.000000)">
                    <path d="M2.88775351,-0.425866237 C2.98755721,-0.684554916 3.15206769,-0.677565105 3.24917468,-0.425866237 L5.40050076,5.1503168 C5.50030446,5.40900548 5.36527212,5.61871408 5.08097484,5.61871408 L1.05595335,5.61871408 C0.779680363,5.61871408 0.639320451,5.40201566 0.736427439,5.1503168 L2.88775351,-0.425866237 Z" transform="translate(3.069450, 2.500722) rotate(90.000000) translate(-3.069450, -2.500722) "></path>
                </g>
                <rect x="2.85259834" y="5.88944875" width="48.7508841" height="1" rx="0.5"></rect>
                <g transform="translate(80.695312, 7.000000) scale(-1, 1) translate(-80.695312, -7.000000) translate(53.195312, 0.000000)">
                    <g transform="translate(3.026855, 6.500000) scale(-1, 1) translate(-3.026855, -6.500000) translate(0.026855, 4.000000)">
                        <path d="M2.88775351,-0.425866237 C2.98755721,-0.684554916 3.15206769,-0.677565105 3.24917468,-0.425866237 L5.40050076,5.1503168 C5.50030446,5.40900548 5.36527212,5.61871408 5.08097484,5.61871408 L1.05595335,5.61871408 C0.779680363,5.61871408 0.639320451,5.40201566 0.736427439,5.1503168 L2.88775351,-0.425866237 Z" transform="translate(3.069450, 2.500722) rotate(90.000000) translate(-3.069450, -2.500722) "></path>
                    </g>
                    <rect x="2.8794538" y="5.88944875" width="40.830052" height="1" rx="0.5"></rect>
                    <polygon transform="translate(50.377018, 6.954967) scale(-1, 1) translate(-50.377018, -6.954967) " points="54.2116785 2.21086368 48.9050334 2.21086368 48.9050334 5.94239154 53.7991478 5.94239154 53.7991478 7.76127698 48.9050334 7.76127698 48.9050334 11.6803188 54.2116785 11.6803188 54.2116785 13.5179556 46.5423575 13.5179556 46.5423575 0.391978244 54.2116785 0.391978244"></polygon>
                </g>
            </g>
            <path d="M69.4064529,22.25 L68.3188719,18.7997431 L63.781034,18.7997431 L62.78721,22.25 L60.4057827,22.25 L64.4185815,9.12402261 L67.6250702,9.12402261 L71.8441344,22.25 L69.4064529,22.25 Z M66.0124501,10.7741455 L64.3060731,16.9058521 L67.75633,16.9058521 L66.0124501,10.7741455 Z" fill="#8D9EB0"></path>
            <path d="M99.5254859,139.761738 C101.813156,139.761738 103.313268,141.599374 103.313268,144.487089 L103.313268,145.499665 C103.313268,148.25612 101.531885,150.243768 99.244215,150.243768 C98.1753854,150.243768 97.3128211,149.849989 96.6190195,149.137436 L96.4315055,150 L94.6126201,150 L94.6126201,136.123967 L96.9377932,136.123967 L96.9377932,140.793064 C97.5753407,140.136766 98.4379049,139.761738 99.5254859,139.761738 Z M100.988095,145.57467 L100.988095,144.412084 C100.988095,142.461939 100.331796,141.524369 99.056701,141.524369 C98.156634,141.524369 97.4440809,141.955651 96.9377932,142.593198 L96.9377932,147.656075 C97.4440809,148.199866 98.0816284,148.499888 98.8504356,148.499888 C100.144282,148.499888 100.988095,147.487313 100.988095,145.57467 Z" fill="#8D9EB0"></path>
            <path d="M153.775653,152.53338 C153.775653,152.945911 153.738151,153.358442 153.700648,153.658464 L147.268919,153.658464 C147.306422,155.571107 148.187737,156.414919 149.912866,156.414919 C151.000447,156.414919 151.806757,156.02114 152.575564,155.589858 L153.400626,156.977461 C152.556813,157.615009 151.206712,158.158799 149.762855,158.158799 C146.725128,158.158799 145,156.1524 145,153.452199 L145,152.420872 C145,149.720671 146.687626,147.676769 149.462832,147.676769 C152.181785,147.676769 153.775653,149.364394 153.775653,152.53338 Z M151.694248,152.139601 L151.694248,152.045844 C151.694248,150.320716 150.925441,149.383146 149.481584,149.383146 C148.056478,149.383146 147.306422,150.320716 147.268919,152.139601 L151.694248,152.139601 Z" fill="#8D9EB0"></path>
            <path d="M78.8891602,12.5008632 C78.8891602,12.2242441 79.1210938,12 79.3891602,12 L79.3891602,12 C79.6653025,12 79.8891602,12.226096 79.8891602,12.5008632 L79.8891602,49.9991368 C79.8891602,50.2757559 79.6572266,50.5 79.3891602,50.5 L79.3891602,50.5 C79.1130178,50.5 78.8891602,50.273904 78.8891602,49.9991368 L78.8891602,12.5008632 Z" fill="#8D9EB0"></path>
            <rect fill="#8D9EB0" x="52.8029785" y="12" width="1" height="30.7491455" rx="0.5"></rect>
            <rect fill="#8D9EB0" x="124.447632" y="22.6962891" width="1" height="13" rx="0.5"></rect>
            <rect fill="#8D9EB0" x="234.994751" y="22.6962891" width="1" height="12.7655335" rx="0.5"></rect>
            <g transform="translate(44.802979, 12.621493)" fill="#8D9EB0">
                <g transform="translate(6.000000, 2.500000) scale(-1, 1) rotate(180.000000) translate(-6.000000, -2.500000) translate(3.000000, 0.000000)">
                    <path d="M2.88775351,-0.425866237 C2.98755721,-0.684554916 3.15206769,-0.677565105 3.24917468,-0.425866237 L5.40050076,5.1503168 C5.50030446,5.40900548 5.36527212,5.61871408 5.08097484,5.61871408 L1.05595335,5.61871408 C0.779680363,5.61871408 0.639320451,5.40201566 0.736427439,5.1503168 L2.88775351,-0.425866237 Z" transform="translate(3.069450, 2.500722) rotate(90.000000) translate(-3.069450, -2.500722) "></path>
                </g>
                <path d="M4,2.5 C4,2.77614237 3.78494263,3 3.50952148,3 L0.490478516,3 C0.219594711,3 0,2.76806641 0,2.5 L0,2.5 C0,2.22385763 0.215057373,2 0.490478516,2 L3.50952148,2 C3.78040529,2 4,2.23193359 4,2.5 L4,2.5"></path>
            </g>
            <g transform="translate(131.673096, 149.176769)" fill="#8D9EB0">
                <g transform="translate(6.000000, 2.500000) scale(-1, 1) rotate(180.000000) translate(-6.000000, -2.500000) translate(3.000000, 0.000000)">
                    <path d="M2.88775351,-0.425866237 C2.98755721,-0.684554916 3.15206769,-0.677565105 3.24917468,-0.425866237 L5.40050076,5.1503168 C5.50030446,5.40900548 5.36527212,5.61871408 5.08097484,5.61871408 L1.05595335,5.61871408 C0.779680363,5.61871408 0.639320451,5.40201566 0.736427439,5.1503168 L2.88775351,-0.425866237 Z" transform="translate(3.069450, 2.500722) rotate(90.000000) translate(-3.069450, -2.500722) "></path>
                </g>
                <path d="M4,2.5 C4,2.77614237 3.78494263,3 3.50952148,3 L0.490478516,3 C0.219594711,3 0,2.76806641 0,2.5 L0,2.5 C0,2.22385763 0.215057373,2 0.490478516,2 L3.50952148,2 C3.78040529,2 4,2.23193359 4,2.5 L4,2.5"></path>
            </g>
            <g transform="translate(102.077148, 32.000000)" fill="#8D9EB0">
                <path d="M6.45776102,0.902486292 L8.78293416,0.902486292 L8.78293416,14.7785195 L6.96404872,14.7785195 L6.72028057,13.6909385 C6.0639817,14.4972486 5.20141747,15.0222877 3.98257672,15.0222877 C1.65740358,15.0222877 0.0260321035,13.1658995 0.0260321035,10.3156872 L0.0260321035,9.26560903 C0.0260321035,6.52790517 1.67615498,4.54025717 4.09508509,4.54025717 C5.0701577,4.54025717 5.82021355,4.84027951 6.45776102,5.42157279 L6.45776102,0.902486292 Z M4.39510743,13.2784078 C5.31392585,13.2784078 5.93272193,12.8283743 6.45776102,12.1158213 L6.45776102,7.12794985 C6.04523031,6.67791634 5.35142864,6.30288842 4.48886442,6.30288842 C3.15751528,6.30288842 2.35120524,7.31546382 2.35120524,9.20935484 L2.35120524,10.35319 C2.35120524,12.340838 3.13876388,13.2784078 4.39510743,13.2784078 Z"></path>
                <path d="M55,97.694175 C55,97.4154248 55.2319336,97.1894531 55.5,97.1894531 L55.5,97.1894531 C55.7761424,97.1894531 56,97.4180997 56,97.694175 L56,123.132973 C56,123.411724 55.7680664,123.637695 55.5,123.637695 L55.5,123.637695 C55.2238576,123.637695 55,123.409049 55,123.132973 L55,97.694175 Z"></path>
                <rect x="39.8029785" y="97.1894531" width="1" height="26.4482422" rx="0.5"></rect>
            </g>
            <rect fill="#8D9EB0" x="112.555036" y="57" width="23.5709407" height="1" rx="0.5"></rect>
            <rect fill="#8D9EB0" x="112.555036" y="70" width="23.5709407" height="1" rx="0.5"></rect>
            <rect fill="#8D9EB0" x="80" y="119.076172" width="11" height="1" rx="0.5"></rect>
            <rect fill="#8D9EB0" x="80" y="128.022705" width="11" height="1" rx="0.5"></rect>
            <g transform="translate(116.000000, 48.500000) scale(-1, 1) translate(-116.000000, -48.500000) translate(112.000000, 41.000000)" fill="#8D9EB0">
                <g transform="translate(2.184082, 13.000000) rotate(90.000000) translate(-2.184082, -13.000000) translate(-0.815918, 10.500000)">
                    <path d="M2.88775351,-0.425866237 C2.98755721,-0.684554916 3.15206769,-0.677565105 3.24917468,-0.425866237 L5.40050076,5.1503168 C5.50030446,5.40900548 5.36527212,5.61871408 5.08097484,5.61871408 L1.05595335,5.61871408 C0.779680363,5.61871408 0.639320451,5.40201566 0.736427439,5.1503168 L2.88775351,-0.425866237 Z" transform="translate(3.069450, 2.500722) rotate(90.000000) translate(-3.069450, -2.500722) "></path>
                </g>
                <rect x="1.68408203" y="0" width="1" height="12.0095215" rx="0.5"></rect>
                <rect x="1.68408203" y="0" width="6" height="1" rx="0.5"></rect>
            </g>
            <g transform="translate(88.000000, 137.500000) scale(1, -1) translate(-88.000000, -137.500000) translate(84.000000, 130.000000)" fill="#8D9EB0">
                <g transform="translate(2.184082, 13.000000) rotate(90.000000) translate(-2.184082, -13.000000) translate(-0.815918, 10.500000)">
                    <path d="M2.88775351,-0.425866237 C2.98755721,-0.684554916 3.15206769,-0.677565105 3.24917468,-0.425866237 L5.40050076,5.1503168 C5.50030446,5.40900548 5.36527212,5.61871408 5.08097484,5.61871408 L1.05595335,5.61871408 C0.779680363,5.61871408 0.639320451,5.40201566 0.736427439,5.1503168 L2.88775351,-0.425866237 Z" transform="translate(3.069450, 2.500722) rotate(90.000000) translate(-3.069450, -2.500722) "></path>
                </g>
                <rect x="1.68408203" y="0" width="1" height="12.0095215" rx="0.5"></rect>
                <rect x="1.68408203" y="0" width="6" height="1" rx="0.5"></rect>
            </g>
            <g transform="translate(115.174024, 71.000000)" fill="#8D9EB0">
                <g transform="translate(2.184082, 2.484497) rotate(-90.000000) translate(-2.184082, -2.484497) translate(-0.815918, -0.015503)">
                    <path d="M2.88775351,-0.425866237 C2.98755721,-0.684554916 3.15206769,-0.677565105 3.24917468,-0.425866237 L5.40050076,5.1503168 C5.50030446,5.40900548 5.36527212,5.61871408 5.08097484,5.61871408 L1.05595335,5.61871408 C0.779680363,5.61871408 0.639320451,5.40201566 0.736427439,5.1503168 L2.88775351,-0.425866237 Z" transform="translate(3.069450, 2.500722) rotate(90.000000) translate(-3.069450, -2.500722) "></path>
                </g>
                <rect x="1.68408203" y="2.48449707" width="1" height="8.01550293" rx="0.5"></rect>
            </g>
            <g transform="translate(236.634766, 35.000000)" fill="#8D9EB0">
                <rect x="0" y="0" width="13" height="1" rx="0.5"></rect>
                <rect x="0" y="107" width="13" height="1" rx="0.5"></rect>
                <g transform="translate(2.500000, 0.500000)">
                    <g transform="translate(4.184082, 3.484497) rotate(-90.000000) translate(-4.184082, -3.484497) translate(1.184082, 0.984497)">
                        <path d="M2.88775351,-0.425866237 C2.98755721,-0.684554916 3.15206769,-0.677565105 3.24917468,-0.425866237 L5.40050076,5.1503168 C5.50030446,5.40900548 5.36527212,5.61871408 5.08097484,5.61871408 L1.05595335,5.61871408 C0.779680363,5.61871408 0.639320451,5.40201566 0.736427439,5.1503168 L2.88775351,-0.425866237 Z" transform="translate(3.069450, 2.500722) rotate(90.000000) translate(-3.069450, -2.500722) "></path>
                    </g>
                    <rect x="3.68408203" y="3.48449707" width="1" height="37.119751" rx="0.5"></rect>
                    <path d="M5.28347417,45.3740226 C8.84623946,45.3740226 10.6276221,47.474179 10.6276221,50.6244136 L10.6276221,52.9495867 C10.6276221,56.3623408 8.60247131,58.5 4.81468926,58.5 L0.989404421,58.5 L0.989404421,45.3740226 L5.28347417,45.3740226 Z M8.26494617,52.9870895 L8.26494617,50.5681594 C8.26494617,48.4305002 7.25237077,47.1929081 5.17096579,47.1929081 L3.35208035,47.1929081 L3.35208035,56.6811146 L4.83344066,56.6811146 C7.121111,56.6811146 8.26494617,55.4810252 8.26494617,52.9870895 Z"></path>
                </g>
                <g transform="translate(6.500000, 85.000000) scale(1, -1) translate(-6.500000, -85.000000) translate(4.500000, 65.000000)">
                    <g transform="translate(2.184082, 2.484497) rotate(-90.000000) translate(-2.184082, -2.484497) translate(-0.815918, -0.015503)">
                        <path d="M2.88775351,-0.425866237 C2.98755721,-0.684554916 3.15206769,-0.677565105 3.24917468,-0.425866237 L5.40050076,5.1503168 C5.50030446,5.40900548 5.36527212,5.61871408 5.08097484,5.61871408 L1.05595335,5.61871408 C0.779680363,5.61871408 0.639320451,5.40201566 0.736427439,5.1503168 L2.88775351,-0.425866237 Z" transform="translate(3.069450, 2.500722) rotate(90.000000) translate(-3.069450, -2.500722) "></path>
                    </g>
                    <rect x="1.68408203" y="2.48449707" width="1" height="37.119751" rx="0.5"></rect>
                </g>
            </g>
            <g transform="translate(86.000000, 113.576172) scale(1, -1) translate(-86.000000, -113.576172) translate(84.000000, 108.076172)" fill="#8D9EB0">
                <g transform="translate(2.184082, 2.484497) rotate(-90.000000) translate(-2.184082, -2.484497) translate(-0.815918, -0.015503)">
                    <path d="M2.88775351,-0.425866237 C2.98755721,-0.684554916 3.15206769,-0.677565105 3.24917468,-0.425866237 L5.40050076,5.1503168 C5.50030446,5.40900548 5.36527212,5.61871408 5.08097484,5.61871408 L1.05595335,5.61871408 C0.779680363,5.61871408 0.639320451,5.40201566 0.736427439,5.1503168 L2.88775351,-0.425866237 Z" transform="translate(3.069450, 2.500722) rotate(90.000000) translate(-3.069450, -2.500722) "></path>
                </g>
                <rect x="1.68408203" y="2.48449707" width="1" height="8.01550293" rx="0.5"></rect>
            </g>
        </g>
    </g>
</svg>
