<?xml version="1.0" encoding="UTF-8" standalone="no"?>
<svg width="290px" height="175px" viewBox="0 0 290 175" version="1.1" xmlns="http://www.w3.org/2000/svg" xmlns:xlink="http://www.w3.org/1999/xlink" >
    <!-- Generator: Sketch 48.2 (47327) - http://www.bohemiancoding.com/sketch -->
    <title>CFP-Labeled</title>
    <desc>Created with Sketch.</desc>
    <defs>
        <polygon id="path-1" points="1.35074257 0 12.5580136 0 12.5580136 29.9363057 1.35074257 29.9363057"></polygon>
        <polygon id="path-2" points="19.6899134 0 30.8971844 0 30.8971844 29.9363057 19.6899134 29.9363057"></polygon>
        <rect id="path-3" x="37.0102413" y="0" width="11.207271" height="29.9363057"></rect>
        <rect id="path-4" x="55.3494121" y="0" width="11.207271" height="29.9363057"></rect>
        <rect id="path-5" x="72.6697401" y="0" width="11.207271" height="29.9363057"></rect>
        <rect id="path-6" x="89.9900681" y="0" width="11.207271" height="29.9363057"></rect>
        <polygon id="path-7" points="1.35074257 0 12.5580136 0 12.5580136 29.9363057 1.35074257 29.9363057"></polygon>
        <polygon id="path-8" points="19.6899134 0 30.8971844 0 30.8971844 29.9363057 19.6899134 29.9363057"></polygon>
        <rect id="path-9" x="37.0102413" y="0" width="11.207271" height="29.9363057"></rect>
        <rect id="path-10" x="55.3494121" y="0" width="11.207271" height="29.9363057"></rect>
        <rect id="path-11" x="72.6697401" y="0" width="11.207271" height="29.9363057"></rect>
        <rect id="path-12" x="89.9900681" y="0" width="11.207271" height="29.9363057"></rect>
        <rect id="path-13" x="0" y="24.1773151" width="115.216729" height="58.7671301" rx="1"></rect>
        <path d="M2.17506889,23.4405058 C1.34738113,23.4405058 0.676407629,24.1148356 0.676407629,24.939745 L0.676407629,81.985943 C0.676407629,82.8139499 1.35646462,83.4851822 2.17506889,83.4851822 L26.68899,83.4851822 C27.5166777,83.4851822 28.1876512,82.8108523 28.1876512,81.985943 L28.1876512,24.939745 C28.1876512,24.111738 27.5075942,23.4405058 26.68899,23.4405058 L2.17506889,23.4405058 Z" id="path-14"></path>
        <rect id="path-15" x="12.9025215" y="24.711892" width="3.05652847" height="57.4895838"></rect>
    </defs>
    <g stroke="none" stroke-width="1" fill="none" fill-rule="evenodd">
        <g>
            <g transform="translate(239.000000, 6.000000)" fill="#8D9EB0">
                <polygon points="20.0110159 12.0873576 25.3364124 12.0873576 25.3364124 14 17.64834 14 17.64834 0.874022613 20.0110159 0.874022613"></polygon>
                <rect x="0.179443359" y="23.8714931" width="13" height="1" rx="0.5"></rect>
                <rect x="0.179443359" y="36.3529384" width="13" height="1" rx="0.5"></rect>
                <g transform="translate(7.179443, 7.871493)">
                    <g transform="translate(2.184082, 13.000000) rotate(90.000000) translate(-2.184082, -13.000000) translate(-0.815918, 10.500000)">
                        <path d="M2.88775351,-0.425866237 C2.98755721,-0.684554916 3.15206769,-0.677565105 3.24917468,-0.425866237 L5.40050076,5.1503168 C5.50030446,5.40900548 5.36527212,5.61871408 5.08097484,5.61871408 L1.05595335,5.61871408 C0.779680363,5.61871408 0.639320451,5.40201566 0.736427439,5.1503168 L2.88775351,-0.425866237 Z" transform="translate(3.069450, 2.500722) rotate(90.000000) translate(-3.069450, -2.500722) "></path>
                    </g>
                    <rect x="1.68408203" y="0" width="1" height="12.0095215" rx="0.5"></rect>
                    <rect x="1.68408203" y="0" width="6" height="1" rx="0.5"></rect>
                </g>
                <rect x="8.86352539" y="39.8374355" width="1" height="8.01550293" rx="0.5"></rect>
                <g transform="translate(6.179443, 36.352938)">
                    <g transform="translate(3.184082, 3.484497) rotate(-90.000000) translate(-3.184082, -3.484497) translate(0.184082, 0.984497)">
                        <path d="M2.88775351,-0.425866237 C2.98755721,-0.684554916 3.15206769,-0.677565105 3.24917468,-0.425866237 L5.40050076,5.1503168 C5.50030446,5.40900548 5.36527212,5.61871408 5.08097484,5.61871408 L1.05595335,5.61871408 C0.779680363,5.61871408 0.639320451,5.40201566 0.736427439,5.1503168 L2.88775351,-0.425866237 Z" transform="translate(3.069450, 2.500722) rotate(90.000000) translate(-3.069450, -2.500722) "></path>
                    </g>
                </g>
            </g>
            <g transform="translate(1.005208, -17.809570)">
                <g transform="translate(37.400000, 47.600000)">
                    <g>
                        <g transform="translate(0.114989, 0.942311)">
                            <g transform="translate(6.608365, 0.000000)">
                                <g>
                                    <use fill="#D8D8D8" fill-rule="evenodd" xlink:href="#path-1"></use>
                                    <path stroke="#979797" stroke-width="1" d="M1.85074257,0.5 L1.85074257,29.4363057 L12.0580136,29.4363057 L12.0580136,0.5 L1.85074257,0.5 Z"></path>
                                </g>
                                <g>
                                    <use fill="#D8D8D8" fill-rule="evenodd" xlink:href="#path-2"></use>
                                    <path stroke="#979797" stroke-width="1" d="M20.1899134,0.5 L20.1899134,29.4363057 L30.3971844,29.4363057 L30.3971844,0.5 L20.1899134,0.5 Z"></path>
                                </g>
                                <g>
                                    <use fill="#D8D8D8" fill-rule="evenodd" xlink:href="#path-3"></use>
                                    <rect stroke="#979797" stroke-width="1" x="37.5102413" y="0.5" width="10.207271" height="28.9363057"></rect>
                                </g>
                                <g>
                                    <use fill="#D8D8D8" fill-rule="evenodd" xlink:href="#path-4"></use>
                                    <rect stroke="#979797" stroke-width="1" x="55.8494121" y="0.5" width="10.207271" height="28.9363057"></rect>
                                </g>
                                <g>
                                    <use fill="#D8D8D8" fill-rule="evenodd" xlink:href="#path-5"></use>
                                    <rect stroke="#979797" stroke-width="1" x="73.1697401" y="0.5" width="10.207271" height="28.9363057"></rect>
                                </g>
                                <g>
                                    <use fill="#D8D8D8" fill-rule="evenodd" xlink:href="#path-6"></use>
                                    <rect stroke="#979797" stroke-width="1" x="90.4900681" y="0.5" width="10.207271" height="28.9363057"></rect>
                                </g>
                                <polygon fill="#FFFFFF" points="2.77445281 11.1538288 11.1903029 11.1538288 11.1903029 13.1771437 2.77445281 13.1771437"></polygon>
                                <polygon fill="#FFFFFF" points="21.0740231 11.1538288 29.4898732 11.1538288 29.4898732 13.1771437 21.0740231 13.1771437"></polygon>
                                <polygon fill="#FFFFFF" points="38.427856 11.1538288 46.8437061 11.1538288 46.8437061 13.1771437 38.427856 13.1771437"></polygon>
                                <polygon fill="#FFFFFF" points="56.7220602 11.1538288 65.1379103 11.1538288 65.1379103 13.1771437 56.7220602 13.1771437"></polygon>
                                <polygon fill="#FFFFFF" points="74.1140231 11.1538288 82.5298732 11.1538288 82.5298732 13.1771437 74.1140231 13.1771437"></polygon>
                                <polygon fill="#FFFFFF" points="91.3748337 11.1538288 99.7906838 11.1538288 99.7906838 13.1771437 91.3748337 13.1771437"></polygon>
                            </g>
                            <g transform="translate(57.608365, 90.081038) scale(1, -1) translate(-57.608365, -90.081038) translate(6.608365, 74.441038)">
                                <g>
                                    <use fill="#D8D8D8" fill-rule="evenodd" xlink:href="#path-7"></use>
                                    <path stroke="#979797" stroke-width="1" d="M1.85074257,0.5 L1.85074257,29.4363057 L12.0580136,29.4363057 L12.0580136,0.5 L1.85074257,0.5 Z"></path>
                                </g>
                                <g>
                                    <use fill="#D8D8D8" fill-rule="evenodd" xlink:href="#path-8"></use>
                                    <path stroke="#979797" stroke-width="1" d="M20.1899134,0.5 L20.1899134,29.4363057 L30.3971844,29.4363057 L30.3971844,0.5 L20.1899134,0.5 Z"></path>
                                </g>
                                <g>
                                    <use fill="#D8D8D8" fill-rule="evenodd" xlink:href="#path-9"></use>
                                    <rect stroke="#979797" stroke-width="1" x="37.5102413" y="0.5" width="10.207271" height="28.9363057"></rect>
                                </g>
                                <g>
                                    <use fill="#D8D8D8" fill-rule="evenodd" xlink:href="#path-10"></use>
                                    <rect stroke="#979797" stroke-width="1" x="55.8494121" y="0.5" width="10.207271" height="28.9363057"></rect>
                                </g>
                                <g>
                                    <use fill="#D8D8D8" fill-rule="evenodd" xlink:href="#path-11"></use>
                                    <rect stroke="#979797" stroke-width="1" x="73.1697401" y="0.5" width="10.207271" height="28.9363057"></rect>
                                </g>
                                <g>
                                    <use fill="#D8D8D8" fill-rule="evenodd" xlink:href="#path-12"></use>
                                    <rect stroke="#979797" stroke-width="1" x="90.4900681" y="0.5" width="10.207271" height="28.9363057"></rect>
                                </g>
                                <polygon fill="#FFFFFF" points="2.77445281 11.1538288 11.1903029 11.1538288 11.1903029 13.1771437 2.77445281 13.1771437"></polygon>
                                <polygon fill="#FFFFFF" points="21.0740231 11.1538288 29.4898732 11.1538288 29.4898732 13.1771437 21.0740231 13.1771437"></polygon>
                                <polygon fill="#FFFFFF" points="38.427856 11.1538288 46.8437061 11.1538288 46.8437061 13.1771437 38.427856 13.1771437"></polygon>
                                <polygon fill="#FFFFFF" points="56.7220602 11.1538288 65.1379103 11.1538288 65.1379103 13.1771437 56.7220602 13.1771437"></polygon>
                                <polygon fill="#FFFFFF" points="74.1140231 11.1538288 82.5298732 11.1538288 82.5298732 13.1771437 74.1140231 13.1771437"></polygon>
                                <polygon fill="#FFFFFF" points="91.3748337 11.1538288 99.7906838 11.1538288 99.7906838 13.1771437 91.3748337 13.1771437"></polygon>
                            </g>
                            <g>
                                <use fill="#585858" fill-rule="evenodd" xlink:href="#path-13"></use>
                                <rect stroke="#505050" stroke-width="1" x="0.5" y="24.6773151" width="114.216729" height="57.7671301" rx="1"></rect>
                            </g>
                            <circle stroke="#979797" fill="#D8D8D8" cx="8.72501067" cy="72.1138606" r="2.68746094"></circle>
                        </g>
                    </g>
                    <g transform="translate(163.200000, 0.000000)">
                        <path d="M16.3228769,14.9301172 L34.4074597,13.1503773 C34.8705049,12.8612461 35.1542438,12.337602 35.1542438,11.7721766 L35.1542438,2.15436052 C35.1542438,1.26864453 34.4700166,0.550629855 33.6259795,0.550629855 C32.7819425,0.550629855 32.0977153,1.26864453 32.0977153,2.15436052 L32.0977153,10.8456723 L14.0131324,12.6989558 C13.5500872,12.9880869 13.2663484,13.511731 13.2663484,14.0771564 L13.2663484,33.1378287 C13.2663484,34.0235447 13.9505756,34.7415594 14.7946126,34.7415594 C15.6386497,34.7415594 16.3228769,34.0235447 16.3228769,33.1378287 L16.3228769,14.9301172 Z" stroke="#979797" fill="#D8D8D8" fill-rule="nonzero" stroke-linecap="round" stroke-linejoin="round"></path>
                        <path d="M16.3228769,88.1695703 L34.4074597,86.3898304 C34.8705049,86.1006992 35.1542438,85.5770552 35.1542438,85.0116297 L35.1542438,75.3938136 C35.1542438,74.5080977 34.4700166,73.790083 33.6259795,73.790083 C32.7819425,73.790083 32.0977153,74.5080977 32.0977153,75.3938136 L32.0977153,84.0851255 L14.0131324,85.9384089 C13.5500872,86.22754 13.2663484,86.7511841 13.2663484,87.3166096 L13.2663484,106.377282 C13.2663484,107.262998 13.9505756,107.981013 14.7946126,107.981013 C15.6386497,107.981013 16.3228769,107.262998 16.3228769,106.377282 L16.3228769,88.1695703 Z" stroke="#979797" fill="#D8D8D8" fill-rule="nonzero" stroke-linecap="round" stroke-linejoin="round" transform="translate(24.210296, 90.885548) scale(1, -1) translate(-24.210296, -90.885548) "></path>
                        <g>
                            <use fill="#585858" fill-rule="evenodd" xlink:href="#path-14"></use>
                            <path stroke="#505050" stroke-width="1" d="M2.17506889,23.9405058 C1.62479438,23.9405058 1.17640763,24.3897056 1.17640763,24.939745 L1.17640763,81.985943 C1.17640763,82.5342569 1.62904623,82.9851822 2.17506889,82.9851822 L26.68899,82.9851822 C27.2392645,82.9851822 27.6876512,82.5359823 27.6876512,81.985943 L27.6876512,24.939745 C27.6876512,24.391431 27.2350126,23.9405058 26.68899,23.9405058 L2.17506889,23.9405058 Z"></path>
                        </g>
                        <g>
                            <use fill="#505050" fill-rule="evenodd" xlink:href="#path-15"></use>
                            <rect stroke="#505050" stroke-width="1" x="12.4025215" y="24.211892" width="4.05652847" height="58.4895838"></rect>
                        </g>
                    </g>
                </g>
            </g>
            <g transform="translate(202.000000, 10.000000)" fill="#8D9EB0">
                <path d="M20.5365798,13.25 L19.4489988,9.79974309 L14.9111609,9.79974309 L13.9173369,13.25 L11.5359096,13.25 L15.5487084,0.124022613 L18.7551972,0.124022613 L22.9742613,13.25 L20.5365798,13.25 Z M17.1425771,1.77414548 L15.4362,7.90585206 L18.886457,7.90585206 L17.1425771,1.77414548 Z"></path>
                <path d="M33.7976074,4.50642003 C33.7976074,4.22673197 34.029541,4 34.2976074,4 L34.2976074,4 C34.5737498,4 34.7976074,4.21516464 34.7976074,4.50642003 L34.7976074,18.7142831 C34.7976074,18.9939712 34.5656738,19.2207031 34.2976074,19.2207031 L34.2976074,19.2207031 C34.021465,19.2207031 33.7976074,19.0055385 33.7976074,18.7142831 L33.7976074,4.50642003 Z"></path>
                <rect x="0.241088867" y="4" width="1" height="39" rx="0.5"></rect>
                <g transform="translate(1.271484, 5.121493)">
                    <g transform="translate(2.000000, 1.500000) scale(-1, 1) translate(-2.000000, -1.500000) translate(-1.000000, -1.000000)">
                        <path d="M2.88775351,-0.425866237 C2.98755721,-0.684554916 3.15206769,-0.677565105 3.24917468,-0.425866237 L5.40050076,5.1503168 C5.50030446,5.40900548 5.36527212,5.61871408 5.08097484,5.61871408 L1.05595335,5.61871408 C0.779680363,5.61871408 0.639320451,5.40201566 0.736427439,5.1503168 L2.88775351,-0.425866237 Z" transform="translate(3.069450, 2.500722) rotate(90.000000) translate(-3.069450, -2.500722) "></path>
                    </g>
                    <rect x="1.85259834" y="0.889448752" width="8.44802768" height="1" rx="0.5"></rect>
                </g>
                <g transform="translate(28.115878, 6.621493) scale(-1, 1) translate(-28.115878, -6.621493) translate(22.615878, 5.121493)">
                    <g transform="translate(2.000000, 1.500000) scale(-1, 1) translate(-2.000000, -1.500000) translate(-1.000000, -1.000000)">
                        <path d="M2.88775351,-0.425866237 C2.98755721,-0.684554916 3.15206769,-0.677565105 3.24917468,-0.425866237 L5.40050076,5.1503168 C5.50030446,5.40900548 5.36527212,5.61871408 5.08097484,5.61871408 L1.05595335,5.61871408 C0.779680363,5.61871408 0.639320451,5.40201566 0.736427439,5.1503168 L2.88775351,-0.425866237 Z" transform="translate(3.069450, 2.500722) rotate(90.000000) translate(-3.069450, -2.500722) "></path>
                    </g>
                    <rect x="1.85259834" y="0.889448752" width="8.44802768" height="1" rx="0.5"></rect>
                </g>
            </g>
            <g transform="translate(219.000000, 114.000000)" fill="#8D9EB0">
                <path d="M37.9613845,46.1285069 L36.8738035,42.67825 L32.3359656,42.67825 L31.3421416,46.1285069 L28.9607143,46.1285069 L32.9735131,33.0025295 L36.1800019,33.0025295 L40.399066,46.1285069 L37.9613845,46.1285069 Z M34.5673818,34.6526524 L32.8610047,40.7843589 L36.3112616,40.7843589 L34.5673818,34.6526524 Z M46.7745408,44.3471242 L49.0809625,44.3471242 L49.0809625,46.1285069 L41.8054207,46.1285069 L41.8054207,44.3471242 L44.4868704,44.3471242 L44.4868704,35.5527194 L42.2179515,36.6778032 L41.3553872,35.1401887 L45.0306609,33.0025295 L46.7745408,33.0025295 L46.7745408,44.3471242 Z"></path>
                <path d="M16.7976074,26.2245597 C16.7976074,25.9448716 17.029541,25.7181396 17.2976074,25.7181396 L17.2976074,25.7181396 C17.5737498,25.7181396 17.7976074,25.9333043 17.7976074,26.2245597 L17.7976074,40.4324227 C17.7976074,40.7121108 17.5656738,40.9388428 17.2976074,40.9388428 L17.2976074,40.9388428 C17.021465,40.9388428 16.7976074,40.7236781 16.7976074,40.4324227 L16.7976074,26.2245597 Z"></path>
                <rect x="10.1158779" y="0" width="1" height="40.9388428" rx="0.5"></rect>
                <g transform="translate(18.797607, 38.000000)">
                    <g transform="translate(2.000000, 1.500000) scale(-1, 1) translate(-2.000000, -1.500000) translate(-1.000000, -1.000000)">
                        <path d="M2.88775351,-0.425866237 C2.98755721,-0.684554916 3.15206769,-0.677565105 3.24917468,-0.425866237 L5.40050076,5.1503168 C5.50030446,5.40900548 5.36527212,5.61871408 5.08097484,5.61871408 L1.05595335,5.61871408 C0.779680363,5.61871408 0.639320451,5.40201566 0.736427439,5.1503168 L2.88775351,-0.425866237 Z" transform="translate(3.069450, 2.500722) rotate(90.000000) translate(-3.069450, -2.500722) "></path>
                    </g>
                    <rect x="2" y="1" width="6.15527344" height="1" rx="0.5"></rect>
                </g>
                <g transform="translate(0.615878, 36.938843)">
                    <g transform="translate(6.000000, 2.500000) scale(-1, 1) rotate(180.000000) translate(-6.000000, -2.500000) translate(3.000000, 0.000000)">
                        <path d="M2.88775351,-0.425866237 C2.98755721,-0.684554916 3.15206769,-0.677565105 3.24917468,-0.425866237 L5.40050076,5.1503168 C5.50030446,5.40900548 5.36527212,5.61871408 5.08097484,5.61871408 L1.05595335,5.61871408 C0.779680363,5.61871408 0.639320451,5.40201566 0.736427439,5.1503168 L2.88775351,-0.425866237 Z" transform="translate(3.069450, 2.500722) rotate(90.000000) translate(-3.069450, -2.500722) "></path>
                    </g>
                    <path d="M4,2.5 C4,2.77614237 3.78494263,3 3.50952148,3 L0.490478516,3 C0.219594711,3 0,2.76806641 0,2.5 L0,2.5 C0,2.22385763 0.215057373,2 0.490478516,2 L3.50952148,2 C3.78040529,2 4,2.23193359 4,2.5 L4,2.5"></path>
                </g>
            </g>
            <g transform="translate(38.000000, 8.000000)" fill="#8D9EB0">
                <g transform="translate(90.048828, 8.121493) scale(-1, 1) translate(-90.048828, -8.121493) translate(65.548828, 5.621493)">
                    <g transform="translate(3.026855, 2.500000) scale(-1, 1) translate(-3.026855, -2.500000) translate(0.026855, 0.000000)">
                        <path d="M2.88775351,-0.425866237 C2.98755721,-0.684554916 3.15206769,-0.677565105 3.24917468,-0.425866237 L5.40050076,5.1503168 C5.50030446,5.40900548 5.36527212,5.61871408 5.08097484,5.61871408 L1.05595335,5.61871408 C0.779680363,5.61871408 0.639320451,5.40201566 0.736427439,5.1503168 L2.88775351,-0.425866237 Z" transform="translate(3.069450, 2.500722) rotate(90.000000) translate(-3.069450, -2.500722) "></path>
                    </g>
                    <rect x="2.8794538" y="1.88944875" width="46" height="1" rx="0.5"></rect>
                </g>
                <g transform="translate(2.000000, 5.621493)">
                    <g transform="translate(3.026855, 2.500000) scale(-1, 1) translate(-3.026855, -2.500000) translate(0.026855, 0.000000)">
                        <path d="M2.88775351,-0.425866237 C2.98755721,-0.684554916 3.15206769,-0.677565105 3.24917468,-0.425866237 L5.40050076,5.1503168 C5.50030446,5.40900548 5.36527212,5.61871408 5.08097484,5.61871408 L1.05595335,5.61871408 C0.779680363,5.61871408 0.639320451,5.40201566 0.736427439,5.1503168 L2.88775351,-0.425866237 Z" transform="translate(3.069450, 2.500722) rotate(90.000000) translate(-3.069450, -2.500722) "></path>
                    </g>
                    <rect x="2.8794538" y="1.88944875" width="45.7854632" height="1" rx="0.5"></rect>
                </g>
                <path d="M58.0266382,0.874022613 C61.5894035,0.874022613 63.3707862,2.97417899 63.3707862,6.12441357 L63.3707862,8.4495867 C63.3707862,11.8623408 61.3456354,14 57.5578533,14 L53.7325685,14 L53.7325685,0.874022613 L58.0266382,0.874022613 Z M61.0081102,8.4870895 L61.0081102,6.06815938 C61.0081102,3.9305002 59.9955348,2.69290805 57.9141299,2.69290805 L56.0952444,2.69290805 L56.0952444,12.1811146 L57.5766047,12.1811146 C59.8642751,12.1811146 61.0081102,10.9810252 61.0081102,8.4870895 Z"></path>
                <rect x="0.962860988" y="4.13256836" width="1" height="41.1447754" rx="0.5"></rect>
                <rect x="115" y="4.13256836" width="1" height="41.1447754" rx="0.5"></rect>
            </g>
            <g transform="translate(14.000000, 30.000000)" fill="#8D9EB0">
                <path d="M12.4093358,49.0311649 L7.1026907,49.0311649 L7.1026907,52.7626927 L11.9968051,52.7626927 L11.9968051,54.5815782 L7.1026907,54.5815782 L7.1026907,58.50062 L12.4093358,58.50062 L12.4093358,60.3382568 L4.74001477,60.3382568 L4.74001477,47.2122794 L12.4093358,47.2122794 L12.4093358,49.0311649 Z M19.7786346,58.5568742 L22.0850563,58.5568742 L22.0850563,60.3382568 L14.8095146,60.3382568 L14.8095146,58.5568742 L17.4909642,58.5568742 L17.4909642,49.7624693 L15.2220453,50.8875531 L14.3594811,49.3499386 L18.0347547,47.2122794 L19.7786346,47.2122794 L19.7786346,58.5568742 Z"></path>
                <g transform="translate(0.064453, 0.000000)">
                    <polygon points="160.409336 48.1024539 155.102691 48.1024539 155.102691 51.8339818 159.996805 51.8339818 159.996805 53.6528672 155.102691 53.6528672 155.102691 57.5719091 160.409336 57.5719091 160.409336 59.4095459 152.740015 59.4095459 152.740015 46.2835685 160.409336 46.2835685"></polygon>
                    <rect x="134.769287" y="0.687744141" width="30.3537598" height="1" rx="0.5"></rect>
                    <rect x="0.0311279297" y="24.6594238" width="22.7556152" height="1" rx="0.5"></rect>
                    <rect x="0.0311279297" y="81.9191895" width="22.7556152" height="1" rx="0.5"></rect>
                    <rect x="134.769287" y="106.409546" width="30.3537598" height="1" rx="0.5"></rect>
                    <g transform="translate(154.271118, 1.687744)">
                        <g transform="translate(2.184082, 2.484497) rotate(-90.000000) translate(-2.184082, -2.484497) translate(-0.815918, -0.015503)">
                            <path d="M2.88775351,-0.425866237 C2.98755721,-0.684554916 3.15206769,-0.677565105 3.24917468,-0.425866237 L5.40050076,5.1503168 C5.50030446,5.40900548 5.36527212,5.61871408 5.08097484,5.61871408 L1.05595335,5.61871408 C0.779680363,5.61871408 0.639320451,5.40201566 0.736427439,5.1503168 L2.88775351,-0.425866237 Z" transform="translate(3.069450, 2.500722) rotate(90.000000) translate(-3.069450, -2.500722) "></path>
                        </g>
                        <rect x="1.68408203" y="2.48449707" width="1" height="40.6478271" rx="0.5"></rect>
                    </g>
                    <g transform="translate(9.698608, 26.659424)">
                        <g transform="translate(3.184082, 3.484497) rotate(-90.000000) translate(-3.184082, -3.484497) translate(0.184082, 0.984497)">
                            <path d="M2.88775351,-0.425866237 C2.98755721,-0.684554916 3.15206769,-0.677565105 3.24917468,-0.425866237 L5.40050076,5.1503168 C5.50030446,5.40900548 5.36527212,5.61871408 5.08097484,5.61871408 L1.05595335,5.61871408 C0.779680363,5.61871408 0.639320451,5.40201566 0.736427439,5.1503168 L2.88775351,-0.425866237 Z" transform="translate(3.069450, 2.500722) rotate(90.000000) translate(-3.069450, -2.500722) "></path>
                        </g>
                        <rect x="2.68408203" y="1.48449707" width="1" height="11.0802002" rx="0.5"></rect>
                    </g>
                    <g transform="translate(12.698608, 74.419189) scale(1, -1) translate(-12.698608, -74.419189) translate(9.698608, 67.919189)">
                        <g transform="translate(3.184082, 3.484497) rotate(-90.000000) translate(-3.184082, -3.484497) translate(0.184082, 0.984497)">
                            <path d="M2.88775351,-0.425866237 C2.98755721,-0.684554916 3.15206769,-0.677565105 3.24917468,-0.425866237 L5.40050076,5.1503168 C5.50030446,5.40900548 5.36527212,5.61871408 5.08097484,5.61871408 L1.05595335,5.61871408 C0.779680363,5.61871408 0.639320451,5.40201566 0.736427439,5.1503168 L2.88775351,-0.425866237 Z" transform="translate(3.069450, 2.500722) rotate(90.000000) translate(-3.069450, -2.500722) "></path>
                        </g>
                        <rect x="2.68408203" y="1.48449707" width="1" height="11.0802002" rx="0.5"></rect>
                    </g>
                    <g transform="translate(156.271118, 83.409546) scale(1, -1) translate(-156.271118, -83.409546) translate(154.271118, 60.409546)">
                        <g transform="translate(2.184082, 2.484497) rotate(-90.000000) translate(-2.184082, -2.484497) translate(-0.815918, -0.015503)">
                            <path d="M2.88775351,-0.425866237 C2.98755721,-0.684554916 3.15206769,-0.677565105 3.24917468,-0.425866237 L5.40050076,5.1503168 C5.50030446,5.40900548 5.36527212,5.61871408 5.08097484,5.61871408 L1.05595335,5.61871408 C0.779680363,5.61871408 0.639320451,5.40201566 0.736427439,5.1503168 L2.88775351,-0.425866237 Z" transform="translate(3.069450, 2.500722) rotate(90.000000) translate(-3.069450, -2.500722) "></path>
                        </g>
                        <rect x="1.68408203" y="2.48449707" width="1" height="42.8438721" rx="0.5"></rect>
                    </g>
                </g>
            </g>
            <g transform="translate(38.000000, 139.000000)" fill="#8D9EB0">
                <path d="M36.628025,9.95099108 C38.9156953,9.95099108 40.415807,11.7886279 40.415807,14.6763429 L40.415807,15.6889183 C40.415807,18.4453736 38.6344244,20.4330216 36.346754,20.4330216 C35.2779244,20.4330216 34.4153602,20.0392423 33.7215585,19.3266892 L33.5340446,20.1892534 L31.7151591,20.1892534 L31.7151591,6.3132202 L34.0403323,6.3132202 L34.0403323,10.9823179 C34.6778798,10.326019 35.540444,9.95099108 36.628025,9.95099108 Z M38.0906339,15.7639239 L38.0906339,14.6013374 C38.0906339,12.6511921 37.434335,11.7136223 36.1592401,11.7136223 C35.259173,11.7136223 34.54662,12.1449044 34.0403323,12.7824519 L34.0403323,17.8453289 C34.54662,18.3891194 35.1841675,18.6891417 35.9529747,18.6891417 C37.246821,18.6891417 38.0906339,17.6765663 38.0906339,15.7639239 Z"></path>
                <path d="M20.5488281,0.973415422 C20.5488281,0.694916972 20.7807617,0.469149371 21.0488281,0.469149371 L21.0488281,0.469149371 C21.3249705,0.469149371 21.5488281,0.691703394 21.5488281,0.973415422 L21.5488281,14.1334293 C21.5488281,14.4119277 21.3168945,14.6376953 21.0488281,14.6376953 L21.0488281,14.6376953 C20.7726858,14.6376953 20.5488281,14.4151413 20.5488281,14.1334293 L20.5488281,0.973415422 Z"></path>
                <rect x="9.46801758" y="0.469149371" width="1" height="14.1685459" rx="0.5"></rect>
                <g transform="translate(20.675781, 9.560747)">
                    <g transform="translate(4.000000, 2.500000) scale(-1, 1) translate(-4.000000, -2.500000) translate(1.000000, 0.000000)">
                        <path d="M2.88775351,-0.425866237 C2.98755721,-0.684554916 3.15206769,-0.677565105 3.24917468,-0.425866237 L5.40050076,5.1503168 C5.50030446,5.40900548 5.36527212,5.61871408 5.08097484,5.61871408 L1.05595335,5.61871408 C0.779680363,5.61871408 0.639320451,5.40201566 0.736427439,5.1503168 L2.88775351,-0.425866237 Z" transform="translate(3.069450, 2.500722) rotate(90.000000) translate(-3.069450, -2.500722) "></path>
                    </g>
                    <rect x="6" y="2" width="4" height="1" rx="0.5"></rect>
                </g>
                <g transform="translate(0.468018, 9.560747)">
                    <g transform="translate(6.000000, 2.500000) scale(-1, 1) rotate(180.000000) translate(-6.000000, -2.500000) translate(3.000000, 0.000000)">
                        <path d="M2.88775351,-0.425866237 C2.98755721,-0.684554916 3.15206769,-0.677565105 3.24917468,-0.425866237 L5.40050076,5.1503168 C5.50030446,5.40900548 5.36527212,5.61871408 5.08097484,5.61871408 L1.05595335,5.61871408 C0.779680363,5.61871408 0.639320451,5.40201566 0.736427439,5.1503168 L2.88775351,-0.425866237 Z" transform="translate(3.069450, 2.500722) rotate(90.000000) translate(-3.069450, -2.500722) "></path>
                    </g>
                    <path d="M4,2.5 C4,2.77614237 3.78494263,3 3.50952148,3 L0.490478516,3 C0.219594711,3 0,2.76806641 0,2.5 L0,2.5 C0,2.22385763 0.215057373,2 0.490478516,2 L3.50952148,2 C3.78040529,2 4,2.23193359 4,2.5 L4,2.5"></path>
                </g>
                <path d="M99.5966663,14.8076027 C99.5966663,15.2201334 99.5591636,15.6326641 99.5216608,15.9326865 L93.0899318,15.9326865 C93.1274346,17.8453289 94.0087503,18.6891417 95.7338787,18.6891417 C96.8214597,18.6891417 97.6277697,18.2953624 98.396577,17.8640803 L99.2216384,19.2516836 C98.3778256,19.8892311 97.0277251,20.4330216 95.5838675,20.4330216 C92.5461413,20.4330216 90.8210129,18.4266222 90.8210129,15.7264211 L90.8210129,14.6950943 C90.8210129,11.9948933 92.5086386,9.95099108 95.2838452,9.95099108 C98.0027977,9.95099108 99.5966663,11.6386167 99.5966663,14.8076027 Z M97.5152614,14.4138234 L97.5152614,14.3200664 C97.5152614,12.594938 96.7464541,11.6573681 95.3025966,11.6573681 C93.8774905,11.6573681 93.1274346,12.594938 93.0899318,14.4138234 L97.5152614,14.4138234 Z"></path>
                <path d="M103,0.973415422 C103,0.694916972 103.231934,0.469149371 103.5,0.469149371 L103.5,0.469149371 C103.776142,0.469149371 104,0.691703394 104,0.973415422 L104,14.1334293 C104,14.4119277 103.768066,14.6376953 103.5,14.6376953 L103.5,14.6376953 C103.223858,14.6376953 103,14.4151413 103,14.1334293 L103,0.973415422 Z"></path>
                <rect x="86.4846191" y="0.469149371" width="1" height="14.1685459" rx="0.5"></rect>
                <g transform="translate(103.126953, 9.560747)">
                    <g transform="translate(4.000000, 2.500000) scale(-1, 1) translate(-4.000000, -2.500000) translate(1.000000, 0.000000)">
                        <path d="M2.88775351,-0.425866237 C2.98755721,-0.684554916 3.15206769,-0.677565105 3.24917468,-0.425866237 L5.40050076,5.1503168 C5.50030446,5.40900548 5.36527212,5.61871408 5.08097484,5.61871408 L1.05595335,5.61871408 C0.779680363,5.61871408 0.639320451,5.40201566 0.736427439,5.1503168 L2.88775351,-0.425866237 Z" transform="translate(3.069450, 2.500722) rotate(90.000000) translate(-3.069450, -2.500722) "></path>
                    </g>
                    <rect x="6" y="2" width="4" height="1" rx="0.5"></rect>
                </g>
                <g transform="translate(77.484619, 9.560747)">
                    <g transform="translate(6.000000, 2.500000) scale(-1, 1) rotate(180.000000) translate(-6.000000, -2.500000) translate(3.000000, 0.000000)">
                        <path d="M2.88775351,-0.425866237 C2.98755721,-0.684554916 3.15206769,-0.677565105 3.24917468,-0.425866237 L5.40050076,5.1503168 C5.50030446,5.40900548 5.36527212,5.61871408 5.08097484,5.61871408 L1.05595335,5.61871408 C0.779680363,5.61871408 0.639320451,5.40201566 0.736427439,5.1503168 L2.88775351,-0.425866237 Z" transform="translate(3.069450, 2.500722) rotate(90.000000) translate(-3.069450, -2.500722) "></path>
                    </g>
                    <path d="M4,2.5 C4,2.77614237 3.78494263,3 3.50952148,3 L0.490478516,3 C0.219594711,3 0,2.76806641 0,2.5 L0,2.5 C0,2.22385763 0.215057373,2 0.490478516,2 L3.50952148,2 C3.78040529,2 4,2.23193359 4,2.5 L4,2.5"></path>
                </g>
            </g>
        </g>
    </g>
</svg>
