<?xml version="1.0" encoding="UTF-8"?>
<svg width="290px" height="175px" viewBox="0 0 290 175" version="1.1" xmlns="http://www.w3.org/2000/svg" xmlns:xlink="http://www.w3.org/1999/xlink">
    <!-- Generator: Sketch 64 (93537) - https://sketch.com -->
    <title>Chip-LED-Labeled</title>
    <desc>Created with Sketch.</desc>
    <g id="Chip-LED-Labeled" stroke="none" stroke-width="1" fill="none" fill-rule="evenodd">
        <g id="Group-8" transform="translate(36.000000, 119.000000)" fill="#8D9EB0">
            <polygon id="L" points="21.855957 25.7109871 27.1813535 25.7109871 27.1813535 27.6236295 19.493281 27.6236295 19.493281 14.4976521 21.855957 14.4976521"></polygon>
            <path d="M32.4628906,0.985955505 C32.4628906,0.707457055 32.6948242,0.481689453 32.9628906,0.481689453 L32.9628906,0.481689453 C33.239033,0.481689453 33.4628906,0.704243476 33.4628906,0.985955505 L33.4628906,14.1459693 C33.4628906,14.4244678 33.230957,14.6502354 32.9628906,14.6502354 L32.9628906,14.6502354 C32.6867483,14.6502354 32.4628906,14.4276814 32.4628906,14.1459693 L32.4628906,0.985955505 Z" id="Rectangle-93"></path>
            <path d="M9.33921858,0.985955505 C9.33921858,0.707457055 9.57115217,0.481689453 9.83921858,0.481689453 L9.83921858,0.481689453 C10.115361,0.481689453 10.3392186,0.704243476 10.3392186,0.985955505 L10.3392186,14.1459693 C10.3392186,14.4244678 10.107285,14.6502354 9.83921858,14.6502354 L9.83921858,14.6502354 C9.56307621,14.6502354 9.33921858,14.4276814 9.33921858,14.1459693 L9.33921858,0.985955505 Z" id="Rectangle-93"></path>
            <g id="left-arrow" transform="translate(32.589844, 9.646285)">
                <g id="triangle" transform="translate(4.000000, 2.500000) scale(-1, 1) translate(-4.000000, -2.500000) translate(1.000000, 0.000000)">
                    <path d="M2.88775351,-0.425866237 C2.98755721,-0.684554916 3.15206769,-0.677565105 3.24917468,-0.425866237 L5.40050076,5.1503168 C5.50030446,5.40900548 5.36527212,5.61871408 5.08097484,5.61871408 L1.05595335,5.61871408 C0.779680363,5.61871408 0.639320451,5.40201566 0.736427439,5.1503168 L2.88775351,-0.425866237 Z" id="Triangle-1" transform="translate(3.069450, 2.500722) rotate(90.000000) translate(-3.069450, -2.500722) "></path>
                </g>
                <rect id="Rectangle-144" x="6" y="2" width="4" height="1" rx="0.5"></rect>
            </g>
            <g id="Group-3" transform="translate(0.378662, 9.500289)">
                <g id="triangle" transform="translate(6.000000, 2.500000) scale(-1, 1) rotate(180.000000) translate(-6.000000, -2.500000) translate(3.000000, 0.000000)">
                    <path d="M2.88775351,-0.425866237 C2.98755721,-0.684554916 3.15206769,-0.677565105 3.24917468,-0.425866237 L5.40050076,5.1503168 C5.50030446,5.40900548 5.36527212,5.61871408 5.08097484,5.61871408 L1.05595335,5.61871408 C0.779680363,5.61871408 0.639320451,5.40201566 0.736427439,5.1503168 L2.88775351,-0.425866237 Z" id="Triangle-1" transform="translate(3.069450, 2.500722) rotate(90.000000) translate(-3.069450, -2.500722) "></path>
                </g>
                <path d="M4,2.5 C4,2.77614237 3.78494263,3 3.50952148,3 L0.490478516,3 C0.219594711,3 0,2.76806641 0,2.5 L0,2.5 C0,2.22385763 0.215057373,2 0.490478516,2 L3.50952148,2 C3.78040529,2 4,2.23193359 4,2.5 L4,2.5" id="Rectangle-144"></path>
            </g>
        </g>
        <g id="Chip-LED" transform="translate(40.000000, 12.132568)">
            <g id="Group-2" stroke-width="1" transform="translate(5.000000, 43.000000)">
                <g id="Group" fill="#D8D8D8" stroke="#FFFFFF">
                    <rect id="Rectangle-445" x="1.16015625" y="1.19140625" width="115.679688" height="61.6171875" rx="2"></rect>
                </g>
                <path d="M24,1.5 L96,1.5 L96,62.5 L24,62.5 C24,62.5 24,82.1666667 24,62 L24,1.5 Z" id="Rectangle-445" fill="#585858"></path>
                <rect id="Rectangle-445" fill-opacity="0.493662587" fill="#CE2621" x="24" y="1.5" width="72" height="61"></rect>
                <g id="Group-3" transform="translate(24.000000, 1.500000)" fill="#CE2621">
                    <polygon id="Path-23" fill-opacity="0.49885271" points="4.5 3.5 67.5 3.5 67.5 56.5 4.5 56.5"></polygon>
                    <polygon id="Path-24" fill-opacity="0.748688811" points="72 0 67.5 3.5 67.5 56.5 72 61"></polygon>
                    <polygon id="Path-25" fill-opacity="0.751502404" points="0 61 4.5 56.5 67.5 56.5 72 61"></polygon>
                    <rect id="Rectangle-Copy" x="23" y="25.5" width="25" height="10"></rect>
                </g>
            </g>
            <polygon id="Rectangle" fill-opacity="0.500437063" fill="#CE2621" points="134 47.6388889 164 46 164 105 134.652174 103.361111"></polygon>
            <rect id="Rectangle" fill="#CE2621" x="159" y="70" width="4" height="10"></rect>
            <rect id="Rectangle-445" stroke="#FFFFFF" stroke-width="1" fill="#D8D8D8" x="163.5" y="44.5" width="29" height="61.6171875" rx="2"></rect>
        </g>
        <g id="Group-9" transform="translate(173.000000, 37.000000)" fill="#8D9EB0">
            <path d="M33.2819412,13.6105347 L32.1943602,10.1602778 L27.6565223,10.1602778 L26.6626983,13.6105347 L24.2812709,13.6105347 L28.2940697,0.484557281 L31.5005585,0.484557281 L35.7196227,13.6105347 L33.2819412,13.6105347 Z M29.8879384,2.13468015 L28.1815614,8.26638673 L31.6318183,8.26638673 L29.8879384,2.13468015 Z" id="A"></path>
            <path d="M58.6794434,1.24044323 C58.6794434,0.969578913 58.911377,0.75 59.1794434,0.75 L59.1794434,0.75 C59.4555857,0.75 59.6794434,0.964942813 59.6794434,1.24044323 L59.6794434,17.2595568 C59.6794434,17.5304211 59.4475098,17.75 59.1794434,17.75 L59.1794434,17.75 C58.903301,17.75 58.6794434,17.5350572 58.6794434,17.2595568 L58.6794434,1.24044323 Z" id="Rectangle-93"></path>
            <path d="M0.622924805,1.25403339 C0.622924805,0.975663436 0.854858398,0.75 1.1229248,0.75 L1.1229248,0.75 C1.39906718,0.75 1.6229248,0.97089887 1.6229248,1.25403339 L1.6229248,17.7170359 C1.6229248,17.9954059 1.39099121,18.2210693 1.1229248,18.2210693 L1.1229248,18.2210693 C0.84678243,18.2210693 0.622924805,18.0001705 0.622924805,17.7170359 L0.622924805,1.25403339 Z" id="Rectangle-93"></path>
            <g id="left-arrow" transform="translate(0.653320, 0.871493)">
                <g id="triangle" transform="translate(3.000000, 2.500000) scale(-1, 1) translate(-3.000000, -2.500000) ">
                    <path d="M2.88775351,-0.425866237 C2.98755721,-0.684554916 3.15206769,-0.677565105 3.24917468,-0.425866237 L5.40050076,5.1503168 C5.50030446,5.40900548 5.36527212,5.61871408 5.08097484,5.61871408 L1.05595335,5.61871408 C0.779680363,5.61871408 0.639320451,5.40201566 0.736427439,5.1503168 L2.88775351,-0.425866237 Z" id="Triangle-1" transform="translate(3.069450, 2.500722) rotate(90.000000) translate(-3.069450, -2.500722) "></path>
                </g>
                <path d="M2.85259834,2.39596207 C2.85259834,2.11622249 3.06754115,1.88944875 3.34304157,1.88944875 L19.3621551,1.88944875 C19.6330194,1.88944875 19.8525983,2.10428865 19.8525983,2.39596207 L19.8525983,2.3092346 C19.8525983,2.58897418 19.6376555,2.81574792 19.3621551,2.81574792 L3.34304157,2.81574792 C3.07217725,2.81574792 2.85259834,2.60090803 2.85259834,2.3092346 L2.85259834,2.39596207 Z" id="Rectangle-144"></path>
            </g>
            <g id="left-arrow-copy" transform="translate(49.179443, 3.371493) scale(-1, 1) translate(-49.179443, -3.371493) translate(38.679443, 0.871493)">
                <g id="triangle" transform="translate(3.000000, 2.500000) scale(-1, 1) translate(-3.000000, -2.500000) ">
                    <path d="M2.88775351,-0.425866237 C2.98755721,-0.684554916 3.15206769,-0.677565105 3.24917468,-0.425866237 L5.40050076,5.1503168 C5.50030446,5.40900548 5.36527212,5.61871408 5.08097484,5.61871408 L1.05595335,5.61871408 C0.779680363,5.61871408 0.639320451,5.40201566 0.736427439,5.1503168 L2.88775351,-0.425866237 Z" id="Triangle-1" transform="translate(3.069450, 2.500722) rotate(90.000000) translate(-3.069450, -2.500722) "></path>
                </g>
                <path d="M2.85259834,2.39596207 C2.85259834,2.11622249 3.08018484,1.88944875 3.35280806,1.88944875 L20.3523886,1.88944875 C20.6286468,1.88944875 20.8525983,2.10428865 20.8525983,2.39596207 L20.8525983,2.3092346 C20.8525983,2.58897418 20.6250118,2.81574792 20.3523886,2.81574792 L3.35280806,2.81574792 C3.07654986,2.81574792 2.85259834,2.60090803 2.85259834,2.3092346 L2.85259834,2.39596207 Z" id="Rectangle-144"></path>
            </g>
        </g>
        <g id="Group-2" transform="translate(45.000000, 37.000000)" fill="#8D9EB0">
            <g id="Group-3" transform="translate(0.962861, 1.000000)">
                <g id="triangle" transform="translate(3.026855, 2.500000) scale(-1, 1) translate(-3.026855, -2.500000) translate(0.026855, 0.000000)">
                    <path d="M2.88775351,-0.425866237 C2.98755721,-0.684554916 3.15206769,-0.677565105 3.24917468,-0.425866237 L5.40050076,5.1503168 C5.50030446,5.40900548 5.36527212,5.61871408 5.08097484,5.61871408 L1.05595335,5.61871408 C0.779680363,5.61871408 0.639320451,5.40201566 0.736427439,5.1503168 L2.88775351,-0.425866237 Z" id="Triangle-1" transform="translate(3.069450, 2.500722) rotate(90.000000) translate(-3.069450, -2.500722) "></path>
                </g>
                <path d="M2.8794538,2.39596207 C2.8794538,2.11622249 3.09814174,1.88944875 3.37976866,1.88944875 L46.928914,1.88944875 C47.2052303,1.88944875 47.4292289,2.10428865 47.4292289,2.39596207 L47.4292289,2.3092346 C47.4292289,2.58897418 47.2105409,2.81574792 46.928914,2.81574792 L3.37976866,2.81574792 C3.1034524,2.81574792 2.8794538,2.60090803 2.8794538,2.3092346 L2.8794538,2.39596207 Z" id="Rectangle-144"></path>
            </g>
            <g id="Group-3" transform="translate(92.000000, 3.500000) scale(-1, 1) translate(-92.000000, -3.500000) translate(67.000000, 1.000000)">
                <g id="triangle" transform="translate(3.026855, 2.500000) scale(-1, 1) translate(-3.026855, -2.500000) translate(0.026855, 0.000000)">
                    <path d="M2.88775351,-0.425866237 C2.98755721,-0.684554916 3.15206769,-0.677565105 3.24917468,-0.425866237 L5.40050076,5.1503168 C5.50030446,5.40900548 5.36527212,5.61871408 5.08097484,5.61871408 L1.05595335,5.61871408 C0.779680363,5.61871408 0.639320451,5.40201566 0.736427439,5.1503168 L2.88775351,-0.425866237 Z" id="Triangle-1" transform="translate(3.069450, 2.500722) rotate(90.000000) translate(-3.069450, -2.500722) "></path>
                </g>
                <path d="M2.8794538,2.39596207 C2.8794538,2.11622249 3.10818339,1.88944875 3.37121474,1.88944875 L48.9830926,1.88944875 C49.2546846,1.88944875 49.4748535,2.10428865 49.4748535,2.39596207 L49.4748535,2.3092346 C49.4748535,2.58897418 49.2461239,2.81574792 48.9830926,2.81574792 L3.37121474,2.81574792 C3.09962268,2.81574792 2.8794538,2.60090803 2.8794538,2.3092346 L2.8794538,2.39596207 Z" id="Rectangle-144"></path>
            </g>
            <path d="M57.7629664,0.484557281 C61.3257316,0.484557281 63.1071143,2.58471366 63.1071143,5.73494824 L63.1071143,8.06012137 C63.1071143,11.4728755 61.0819635,13.6105347 57.2941814,13.6105347 L53.4688966,13.6105347 L53.4688966,0.484557281 L57.7629664,0.484557281 Z M60.7444384,8.09762417 L60.7444384,5.67869405 C60.7444384,3.54103487 59.731863,2.30344272 57.650458,2.30344272 L55.8315725,2.30344272 L55.8315725,11.7916492 L57.3129328,11.7916492 C59.6006032,11.7916492 60.7444384,10.5915599 60.7444384,8.09762417 Z" id="D"></path>
            <path d="M1.00230452,1.60958385 C1.00230452,1.33871954 1.23423811,1.11914062 1.50230452,1.11914062 L1.50230452,1.11914062 C1.77844689,1.11914062 2.00230452,1.33408344 2.00230452,1.60958385 L2.00230452,17.6286974 C2.00230452,17.8995617 1.77037092,18.1191406 1.50230452,18.1191406 L1.50230452,18.1191406 C1.22616214,18.1191406 1.00230452,17.9041978 1.00230452,17.6286974 L1.00230452,1.60958385 Z" id="Rectangle-93"></path>
            <path d="M116,1.60958385 C116,1.33871954 116.231934,1.11914062 116.5,1.11914062 L116.5,1.11914062 C116.776142,1.11914062 117,1.33408344 117,1.60958385 L117,17.6286974 C117,17.8995617 116.768066,18.1191406 116.5,18.1191406 L116.5,18.1191406 C116.223858,18.1191406 116,17.9041978 116,17.6286974 L116,1.60958385 Z" id="Rectangle-93-Copy-3"></path>
        </g>
        <g id="Group-6" transform="translate(234.000000, 55.000000)" fill="#8D9EB0">
            <polygon id="E" points="17.5314062 26.3505008 12.224761 26.3505008 12.224761 30.0820287 17.1188754 30.0820287 17.1188754 31.9009141 12.224761 31.9009141 12.224761 35.8199559 17.5314062 35.8199559 17.5314062 37.6575928 9.86208508 37.6575928 9.86208508 24.5316154 17.5314062 24.5316154"></polygon>
            <g id="Group-4" transform="translate(0.500000, 0.329379)">
                <path d="M0.0311279297,1.15942383 C0.0311279297,0.883281453 0.256348247,0.659423828 0.527573934,0.659423828 L22.2902972,0.659423828 C22.5644767,0.659423828 22.7867432,0.891357422 22.7867432,1.15942383 L22.7867432,1.15942383 C22.7867432,1.4355662 22.5615228,1.65942383 22.2902972,1.65942383 L0.527573934,1.65942383 C0.253394377,1.65942383 0.0311279297,1.42749023 0.0311279297,1.15942383 L0.0311279297,1.15942383 Z" id="Rectangle-132-Copy"></path>
                <path d="M0.0311279297,62.5637207 C0.0311279297,62.2875783 0.256348247,62.0637207 0.527573934,62.0637207 L22.2902972,62.0637207 C22.5644767,62.0637207 22.7867432,62.2956543 22.7867432,62.5637207 L22.7867432,62.5637207 C22.7867432,62.8398631 22.5615228,63.0637207 22.2902972,63.0637207 L0.527573934,63.0637207 C0.253394377,63.0637207 0.0311279297,62.8317871 0.0311279297,62.5637207 L0.0311279297,62.5637207 Z" id="Rectangle-132-Copy-2"></path>
                <g id="Group" transform="translate(10.698608, 1.659424)">
                    <g id="triangle" transform="translate(2.184082, 2.484497) rotate(-90.000000) translate(-2.184082, -2.484497) translate(-0.815918, -0.015503)">
                        <path d="M2.88775351,-0.425866237 C2.98755721,-0.684554916 3.15206769,-0.677565105 3.24917468,-0.425866237 L5.40050076,5.1503168 C5.50030446,5.40900548 5.36527212,5.61871408 5.08097484,5.61871408 L1.05595335,5.61871408 C0.779680363,5.61871408 0.639320451,5.40201566 0.736427439,5.1503168 L2.88775351,-0.425866237 Z" id="Triangle-1" transform="translate(3.069450, 2.500722) rotate(90.000000) translate(-3.069450, -2.500722) "></path>
                    </g>
                    <path d="M1.68408203,2.98938234 C1.68408203,2.71054191 1.91601562,2.48449707 2.18408203,2.48449707 L2.18408203,2.48449707 C2.46022441,2.48449707 2.68408203,2.7159228 2.68408203,2.98938234 L2.68408203,13.059812 C2.68408203,13.3386524 2.45214844,13.5646973 2.18408203,13.5646973 L2.18408203,13.5646973 C1.90793966,13.5646973 1.68408203,13.3332715 1.68408203,13.059812 L1.68408203,2.98938234 Z" id="Rectangle-134"></path>
                </g>
                <g id="Group-Copy" transform="translate(12.698608, 55.063721) scale(1, -1) translate(-12.698608, -55.063721) translate(10.698608, 48.063721)">
                    <g id="triangle" transform="translate(2.184082, 2.484497) rotate(-90.000000) translate(-2.184082, -2.484497) translate(-0.815918, -0.015503)">
                        <path d="M2.88775351,-0.425866237 C2.98755721,-0.684554916 3.15206769,-0.677565105 3.24917468,-0.425866237 L5.40050076,5.1503168 C5.50030446,5.40900548 5.36527212,5.61871408 5.08097484,5.61871408 L1.05595335,5.61871408 C0.779680363,5.61871408 0.639320451,5.40201566 0.736427439,5.1503168 L2.88775351,-0.425866237 Z" id="Triangle-1" transform="translate(3.069450, 2.500722) rotate(90.000000) translate(-3.069450, -2.500722) "></path>
                    </g>
                    <path d="M1.68408203,2.98938234 C1.68408203,2.71054191 1.91601562,2.48449707 2.18408203,2.48449707 L2.18408203,2.48449707 C2.46022441,2.48449707 2.68408203,2.7159228 2.68408203,2.98938234 L2.68408203,13.059812 C2.68408203,13.3386524 2.45214844,13.5646973 2.18408203,13.5646973 L2.18408203,13.5646973 C1.90793966,13.5646973 1.68408203,13.3332715 1.68408203,13.059812 L1.68408203,2.98938234 Z" id="Rectangle-134"></path>
                </g>
            </g>
        </g>
        <g id="Group-5" transform="translate(130.000000, 119.000000)" fill="#8D9EB0">
            <g id="Group-7">
                <path d="M17.3315725,25.7787693 L22.6569691,25.7787693 L22.6569691,27.6914117 L14.9688966,27.6914117 L14.9688966,14.5654343 L17.3315725,14.5654343 L17.3315725,25.7787693 Z M28.9386868,25.9100291 L31.2451086,25.9100291 L31.2451086,27.6914117 L23.9695668,27.6914117 L23.9695668,25.9100291 L26.6510165,25.9100291 L26.6510165,17.1156242 L24.3820975,18.240708 L23.5195333,16.7030935 L27.194807,14.5654343 L28.9386868,14.5654343 L28.9386868,25.9100291 Z" id="L1"></path>
                <path d="M32,0.89646667 C32,0.61796822 32.2319336,0.392200619 32.5,0.392200619 L32.5,0.392200619 C32.7761424,0.392200619 33,0.614754641 33,0.89646667 L33,14.0564805 C33,14.334979 32.7680664,14.5607466 32.5,14.5607466 L32.5,14.5607466 C32.2238576,14.5607466 32,14.3381925 32,14.0564805 L32,0.89646667 Z" id="Rectangle-93"></path>
                <path d="M101.912842,1.50426605 C101.912842,1.2257676 102.144775,1 102.412842,1 L102.412842,1 C102.688984,1 102.912842,1.22255402 102.912842,1.50426605 L102.912842,14.6642799 C102.912842,14.9427783 102.680908,15.1685459 102.412842,15.1685459 L102.412842,15.1685459 C102.136699,15.1685459 101.912842,14.9459919 101.912842,14.6642799 L101.912842,1.50426605 Z" id="Rectangle-93-Copy"></path>
                <path d="M9.0871582,0.973415422 C9.0871582,0.694916972 9.3190918,0.469149371 9.5871582,0.469149371 L9.5871582,0.469149371 C9.86330058,0.469149371 10.0871582,0.691703394 10.0871582,0.973415422 L10.0871582,14.1334293 C10.0871582,14.4119277 9.85522461,14.6376953 9.5871582,14.6376953 L9.5871582,14.6376953 C9.31101583,14.6376953 9.0871582,14.4151413 9.0871582,14.1334293 L9.0871582,0.973415422 Z" id="Rectangle-93"></path>
                <path d="M73,1.5812148 C73,1.30271635 73.2319336,1.07694875 73.5,1.07694875 L73.5,1.07694875 C73.7761424,1.07694875 74,1.29950277 74,1.5812148 L74,14.7412286 C74,15.0197271 73.7680664,15.2454947 73.5,15.2454947 L73.5,15.2454947 C73.2238576,15.2454947 73,15.0229407 73,14.7412286 L73,1.5812148 Z" id="Rectangle-93-Copy-2"></path>
                <g id="left-arrow" transform="translate(32.126953, 9.483798)">
                    <g id="triangle" transform="translate(4.000000, 2.500000) scale(-1, 1) translate(-4.000000, -2.500000) translate(1.000000, 0.000000)">
                        <path d="M2.88775351,-0.425866237 C2.98755721,-0.684554916 3.15206769,-0.677565105 3.24917468,-0.425866237 L5.40050076,5.1503168 C5.50030446,5.40900548 5.36527212,5.61871408 5.08097484,5.61871408 L1.05595335,5.61871408 C0.779680363,5.61871408 0.639320451,5.40201566 0.736427439,5.1503168 L2.88775351,-0.425866237 Z" id="Triangle-1" transform="translate(3.069450, 2.500722) rotate(90.000000) translate(-3.069450, -2.500722) "></path>
                    </g>
                    <rect id="Rectangle-144" x="6" y="2" width="4" height="1" rx="0.5"></rect>
                </g>
                <g id="left-arrow-copy-2" transform="translate(102.039795, 10.091597)">
                    <g id="triangle" transform="translate(4.000000, 2.500000) scale(-1, 1) translate(-4.000000, -2.500000) ">
                        <path d="M3.88775351,-0.425866237 C3.98755721,-0.684554916 4.15206769,-0.677565105 4.24917468,-0.425866237 L6.40050076,5.1503168 C6.50030446,5.40900548 6.36527212,5.61871408 6.08097484,5.61871408 L2.05595335,5.61871408 C1.77968036,5.61871408 1.63932045,5.40201566 1.73642744,5.1503168 L3.88775351,-0.425866237 Z" id="Triangle-1" transform="translate(4.069450, 2.500722) rotate(90.000000) translate(-4.069450, -2.500722) "></path>
                    </g>
                    <rect id="Rectangle-144" x="6" y="2" width="4" height="1" rx="0.5"></rect>
                </g>
                <g id="Group-3" transform="translate(0.087158, 9.560747)">
                    <g id="triangle" transform="translate(38.000000, 3.000000) scale(-1, 1) rotate(180.000000) translate(-38.000000, -3.000000) translate(2.000000, 0.000000)">
                        <path d="M3.88775351,0.574133763 C3.98755721,0.315445084 4.15206769,0.322434895 4.24917468,0.574133763 L6.40050076,6.1503168 C6.50030446,6.40900548 6.36527212,6.61871408 6.08097484,6.61871408 L2.05595335,6.61871408 C1.77968036,6.61871408 1.63932045,6.40201566 1.73642744,6.1503168 L3.88775351,0.574133763 Z" id="Triangle-1" transform="translate(4.069450, 3.500722) rotate(90.000000) translate(-4.069450, -3.500722) "></path>
                        <path d="M67.8005953,-0.0336656184 C67.900399,-0.292354297 68.0649095,-0.285364486 68.1620165,-0.0336656184 L70.3133426,5.54251742 C70.4131463,5.80120609 70.2781139,6.0109147 69.9938166,6.0109147 L65.9687951,6.0109147 C65.6925222,6.0109147 65.5521622,5.79421628 65.6492692,5.54251742 L67.8005953,-0.0336656184 Z" id="Triangle-1-Copy" transform="translate(67.982292, 2.892922) rotate(90.000000) translate(-67.982292, -2.892922) "></path>
                    </g>
                    <path d="M4,2.5 C4,2.77614237 3.78494263,3 3.50952148,3 L0.490478516,3 C0.219594711,3 0,2.76806641 0,2.5 L0,2.5 C0,2.22385763 0.215057373,2 0.490478516,2 L3.50952148,2 C3.78040529,2 4,2.23193359 4,2.5 L4,2.5" id="Rectangle-144"></path>
                    <path d="M67.9128418,3.10779938 C67.9128418,3.38394176 67.6977844,3.60779938 67.4223633,3.60779938 L64.4033203,3.60779938 C64.1324365,3.60779938 63.9128418,3.37586579 63.9128418,3.10779938 L63.9128418,3.10779938 C63.9128418,2.83165701 64.1278992,2.60779938 64.4033203,2.60779938 L67.4223633,2.60779938 C67.6932471,2.60779938 67.9128418,2.83973298 67.9128418,3.10779938 L67.9128418,3.10779938" id="Rectangle-144-Copy"></path>
                </g>
            </g>
        </g>
        <path d="M217.00067,146.125977 L215.913089,142.67572 L211.375251,142.67572 L210.381427,146.125977 L208,146.125977 L212.012799,133 L215.219288,133 L219.438352,146.125977 L217.00067,146.125977 Z M213.606667,134.650123 L211.90029,140.781829 L215.350547,140.781829 L213.606667,134.650123 Z M225.813826,144.344595 L228.120248,144.344595 L228.120248,146.125977 L220.844706,146.125977 L220.844706,144.344595 L223.526156,144.344595 L223.526156,135.55019 L221.257237,136.675274 L220.394673,135.137659 L224.069947,133 L225.813826,133 L225.813826,144.344595 Z" id="A1" fill="#8D9EB0"></path>
    </g>
</svg>