<?xml version="1.0" encoding="UTF-8"?>
<svg width="290px" height="175px" viewBox="0 0 290 175" version="1.1" xmlns="http://www.w3.org/2000/svg" xmlns:xlink="http://www.w3.org/1999/xlink">
    <!-- Generator: Sketch 53.2 (72643) - https://sketchapp.com -->
    <title>ChipArray-2side-Convex-Labeled</title>
    <desc>Created with Sketch.</desc>
    <g id="ChipArray-2side-Convex-Labeled" stroke="none" stroke-width="1" fill="none" fill-rule="evenodd">
        <rect fill="none" x="0" y="0" width="290" height="175"></rect>
        <g id="ChipArray-2side-Convex" transform="translate(27.842448, 2.374023)">
            <g id="Group-12" transform="translate(46.215000, 29.333333)">
                <g id="Group-6" transform="translate(123.435000, 59.253333) rotate(90.000000) translate(-123.435000, -59.253333) translate(64.350000, 47.520000)" stroke="#979797">
                    <path d="M2.1594426,0.552292633 C1.82851664,0.552292633 1.72774036,0.57175343 1.62487658,0.626765584 C1.54904785,0.66731923 1.4925266,0.723840484 1.45197295,0.79966921 C1.3969608,0.902532994 1.3775,1.00330927 1.3775,1.33423523 L1.3775,21.5014826 C1.3775,21.8324085 1.3969608,21.9331848 1.45197295,22.0360486 C1.4925266,22.1118773 1.54904785,22.1683986 1.62487658,22.2089522 C1.72774036,22.2639644 1.82851664,22.2834252 2.1594426,22.2834252 L116.595557,22.2834252 C116.926483,22.2834252 117.02726,22.2639644 117.130123,22.2089522 C117.205952,22.1683986 117.262473,22.1118773 117.303027,22.0360486 C117.358039,21.9331848 117.3775,21.8324085 117.3775,21.5014826 L117.3775,1.33423523 C117.3775,1.00330927 117.358039,0.902532994 117.303027,0.79966921 C117.262473,0.723840484 117.205952,0.66731923 117.130123,0.626765584 C117.02726,0.57175343 116.926483,0.552292633 116.595557,0.552292633 L2.1594426,0.552292633 Z" id="Rectangle-4" fill="#D8D8D8"></path>
                    <g id="Group" transform="translate(21.060000, 0.000000)" fill="#585858">
                        <rect id="Rectangle" x="0.844936523" y="1.17333333" width="11.2368124" height="20.9278199"></rect>
                        <rect id="Rectangle-Copy" x="23.183291" y="0.953948962" width="11.2368124" height="20.9278199"></rect>
                        <polygon id="Rectangle-Copy-2" points="45.5216455 0.953948962 56.7584579 0.953948962 56.7584579 21.8817688 45.5216455 21.8817688"></polygon>
                        <polygon id="Rectangle-Copy-3" points="67.86 0.953948962 79.0968124 0.953948962 79.0968124 21.8817688 67.86 21.8817688"></polygon>
                    </g>
                </g>
                <g id="Group-5" transform="translate(23.985000, 59.253333) rotate(90.000000) translate(-23.985000, -59.253333) translate(-35.100000, 35.786667)">
                    <g id="Group-2">
                        <g id="Group-4">
                            <g id="Group-3" fill="#D8D8D8" stroke="#979797">
                                <g id="Group-11" transform="translate(97.695000, 1.173333)">
                                    <path d="M0.5,0.5 L0.5,11.0092716 L19.1741282,11.0092716 L19.1741282,0.5 L0.5,0.5 Z" id="Rectangle-2-Copy"></path>
                                    <path d="M0.5,34.5266667 L0.5,45.0359383 L19.1741282,45.0359383 L19.1741282,34.5266667 L0.5,34.5266667 Z" id="Rectangle-2-Copy"></path>
                                </g>
                                <g id="Group-10">
                                    <path d="M1.07295847,1.32209083 L1.07295847,11.8313624 L19.7470867,11.8313624 L19.7470867,1.32209083 L1.07295847,1.32209083 Z" id="Rectangle-2"></path>
                                    <path d="M1.07295847,35.3441271 L1.07295847,45.8533987 L19.7470867,45.8533987 L19.7470867,35.3441271 L1.07295847,35.3441271 Z" id="Rectangle-2"></path>
                                </g>
                                <g id="Group-9" transform="translate(75.465000, 0.000000)">
                                    <path d="M1.18903452,1.32209083 L1.18903452,11.8313624 L11.5557349,11.8313624 L11.5557349,1.32209083 L1.18903452,1.32209083 Z" id="Rectangle-2-Copy-3"></path>
                                    <path d="M1.18903452,35.3441271 L1.18903452,45.8533987 L11.5557349,45.8533987 L11.5557349,35.3441271 L1.18903452,35.3441271 Z" id="Rectangle-2-Copy-3"></path>
                                </g>
                                <g id="Group-8" transform="translate(31.005000, 0.000000)">
                                    <path d="M1.01235512,1.32209083 L1.01235512,11.8313624 L11.3790555,11.8313624 L11.3790555,1.32209083 L1.01235512,1.32209083 Z" id="Rectangle-2-Copy-2"></path>
                                    <path d="M1.01235512,35.3441271 L1.01235512,45.8533987 L11.3790555,45.8533987 L11.3790555,35.3441271 L1.01235512,35.3441271 Z" id="Rectangle-2-Copy-2"></path>
                                </g>
                                <g id="Group-7" transform="translate(53.235000, 0.000000)">
                                    <path d="M1.01235512,1.32209083 L1.01235512,11.8313624 L11.3790555,11.8313624 L11.3790555,1.32209083 L1.01235512,1.32209083 Z" id="Rectangle-2-Copy-5"></path>
                                    <path d="M1.01235512,35.3441271 L1.01235512,45.8533987 L11.3790555,45.8533987 L11.3790555,35.3441271 L1.01235512,35.3441271 Z" id="Rectangle-2-Copy-4"></path>
                                </g>
                            </g>
                            <g id="Group-3-Copy" transform="translate(97.110000, 34.022036)"></g>
                        </g>
                    </g>
                    <path d="M1.08476681,11.06 L1.07319176,35.8733333 L116.869128,35.8733333 L116.869128,11.06 L1.08476681,11.06 Z" id="Rectangle-5" stroke="#505050" fill="#585858"></path>
                </g>
            </g>
        </g>
        <g id="Group-8" transform="translate(121.000000, 32.742188)" fill="#8D9EB0">
            <g id="Group-3" transform="translate(15.936523, 26.017548) rotate(90.000000) translate(-15.936523, -26.017548) translate(-9.063477, 23.517548)">
                <g id="triangle" transform="translate(3.026855, 2.500000) scale(-1, 1) translate(-3.026855, -2.500000) translate(0.026855, 0.000000)">
                    <path d="M2.88775351,-0.425866237 C2.98755721,-0.684554916 3.15206769,-0.677565105 3.24917468,-0.425866237 L5.40050076,5.1503168 C5.50030446,5.40900548 5.36527212,5.61871408 5.08097484,5.61871408 L1.05595335,5.61871408 C0.779680363,5.61871408 0.639320451,5.40201566 0.736427439,5.1503168 L2.88775351,-0.425866237 Z" id="Triangle-1" transform="translate(3.069450, 2.500722) rotate(90.000000) translate(-3.069450, -2.500722) "></path>
                </g>
                <path d="M2.8794538,2.39596207 C2.8794538,2.11622249 3.10591068,1.88944875 3.38181973,1.88944875 L48.5095045,1.88944875 C48.7869536,1.88944875 49.0118705,2.10428865 49.0118705,2.39596207 L49.0118705,2.3092346 C49.0118705,2.58897418 48.7854136,2.81574792 48.5095045,2.81574792 L3.38181973,2.81574792 C3.10437069,2.81574792 2.8794538,2.60090803 2.8794538,2.3092346 L2.8794538,2.39596207 Z" id="Rectangle-144"></path>
            </g>
            <g id="Group-3" transform="translate(9.436523, 92.470703) scale(1, -1) rotate(90.000000) translate(-9.436523, -92.470703) translate(-15.563477, 83.470703)">
                <g id="triangle" transform="translate(4.026855, 2.500000) scale(-1, 1) translate(-4.026855, -2.500000) translate(1.026855, 0.000000)">
                    <path d="M2.88775351,-0.425866237 C2.98755721,-0.684554916 3.15206769,-0.677565105 3.24917468,-0.425866237 L5.40050076,5.1503168 C5.50030446,5.40900548 5.36527212,5.61871408 5.08097484,5.61871408 L1.05595335,5.61871408 C0.779680363,5.61871408 0.639320451,5.40201566 0.736427439,5.1503168 L2.88775351,-0.425866237 Z" id="Triangle-1" transform="translate(3.069450, 2.500722) rotate(90.000000) translate(-3.069450, -2.500722) "></path>
                </g>
                <path d="M3.8794538,2.39596207 C3.8794538,2.11622249 4.10526067,1.88944875 4.38037776,1.88944875 L49.3785298,1.88944875 C49.6551825,1.88944875 49.8794538,2.10428865 49.8794538,2.39596207 L49.8794538,2.3092346 C49.8794538,2.58897418 49.6536469,2.81574792 49.3785298,2.81574792 L4.38037776,2.81574792 C4.1037251,2.81574792 3.8794538,2.60090803 3.8794538,2.3092346 L3.8794538,2.39596207 Z" id="Rectangle-144"></path>
                <path d="M0.416015625,0.609583855 C0.416015625,0.338719538 0.647949219,0.119140625 0.916015625,0.119140625 L0.916015625,0.119140625 C1.192158,0.119140625 1.41601562,0.334083438 1.41601562,0.609583855 L1.41601562,16.6286974 C1.41601562,16.8995617 1.18408203,17.1191406 0.916015625,17.1191406 L0.916015625,17.1191406 C0.63987325,17.1191406 0.416015625,16.9041978 0.416015625,16.6286974 L0.416015625,0.609583855 Z" id="Rectangle-93-Copy-3"></path>
            </g>
            <path d="M15.8639384,52.5834152 C19.4267037,52.5834152 21.2080863,54.6835716 21.2080863,57.8338061 L21.2080863,60.1589793 C21.2080863,63.5717334 19.1829355,65.7093926 15.3951535,65.7093926 L11.5698686,65.7093926 L11.5698686,52.5834152 L15.8639384,52.5834152 Z M18.8454104,60.1964821 L18.8454104,57.777552 C18.8454104,55.6398928 17.832835,54.4023006 15.75143,54.4023006 L13.9325446,54.4023006 L13.9325446,63.8905071 L15.4139049,63.8905071 C17.7015752,63.8905071 18.8454104,62.6904178 18.8454104,60.1964821 Z" id="D"></path>
            <path d="M9.31738281,-7.45256475 C9.31738281,-7.72342907 9.54931641,-7.94300798 9.81738281,-7.94300798 L9.81738281,-7.94300798 C10.0935252,-7.94300798 10.3173828,-7.72806517 10.3173828,-7.45256475 L10.3173828,8.56654879 C10.3173828,8.8374131 10.0854492,9.05699202 9.81738281,9.05699202 L9.81738281,9.05699202 C9.54124044,9.05699202 9.31738281,8.8420492 9.31738281,8.56654879 L9.31738281,-7.45256475 Z" id="Rectangle-93" transform="translate(9.817383, 0.556992) rotate(90.000000) translate(-9.817383, -0.556992) "></path>
        </g>
        <g id="Group-5" transform="translate(74.000000, 10.742188)" fill="#8D9EB0">
            <polygon id="E" points="27.7173506 2.43903394 22.4107054 2.43903394 22.4107054 6.17056179 27.3048198 6.17056179 27.3048198 7.98944723 22.4107054 7.98944723 22.4107054 11.9084891 27.7173506 11.9084891 27.7173506 13.7461259 20.0480295 13.7461259 20.0480295 0.620148497 27.7173506 0.620148497"></polygon>
            <g id="Group-4-Copy" transform="translate(23.668246, 11.002930) rotate(270.000000) translate(-23.668246, -11.002930) translate(15.168246, -12.497070)">
                <path d="M0.0311279297,1.15942383 C0.0311279297,0.883281453 0.252594154,0.659423828 0.526492817,0.659423828 L16.0876429,0.659423828 C16.3612254,0.659423828 16.5830078,0.891357422 16.5830078,1.15942383 L16.5830078,1.15942383 C16.5830078,1.4355662 16.3615416,1.65942383 16.0876429,1.65942383 L0.526492817,1.65942383 C0.252910344,1.65942383 0.0311279297,1.42749023 0.0311279297,1.15942383 L0.0311279297,1.15942383 Z" id="Rectangle-132-Copy"></path>
                <path d="M0.0311279297,45.7810059 C0.0311279297,45.5048635 0.252594154,45.2810059 0.526492817,45.2810059 L16.0876429,45.2810059 C16.3612254,45.2810059 16.5830078,45.5129395 16.5830078,45.7810059 L16.5830078,45.7810059 C16.5830078,46.0571482 16.3615416,46.2810059 16.0876429,46.2810059 L0.526492817,46.2810059 C0.252910344,46.2810059 0.0311279297,46.0490723 0.0311279297,45.7810059 L0.0311279297,45.7810059 Z" id="Rectangle-132-Copy-2"></path>
                <g id="Group" transform="translate(10.422241, 1.973877)">
                    <g id="triangle" transform="translate(2.184082, 2.484497) rotate(-90.000000) translate(-2.184082, -2.484497) translate(-0.815918, -0.015503)">
                        <path d="M2.88775351,-0.425866237 C2.98755721,-0.684554916 3.15206769,-0.677565105 3.24917468,-0.425866237 L5.40050076,5.1503168 C5.50030446,5.40900548 5.36527212,5.61871408 5.08097484,5.61871408 L1.05595335,5.61871408 C0.779680363,5.61871408 0.639320451,5.40201566 0.736427439,5.1503168 L2.88775351,-0.425866237 Z" id="Triangle-1" transform="translate(3.069450, 2.500722) rotate(90.000000) translate(-3.069450, -2.500722) "></path>
                    </g>
                    <path d="M1.68408203,2.98779436 C1.68408203,2.70983094 1.91601562,2.48449707 2.18408203,2.48449707 L2.18408203,2.48449707 C2.46022441,2.48449707 2.68408203,2.70419029 2.68408203,2.98779436 L2.68408203,10.8687399 C2.68408203,11.1467033 2.45214844,11.3720372 2.18408203,11.3720372 L2.18408203,11.3720372 C1.90793966,11.3720372 1.68408203,11.1523439 1.68408203,10.8687399 L1.68408203,2.98779436 Z" id="Rectangle-134"></path>
                </g>
                <g id="Group-Copy" transform="translate(12.422241, 38.130615) scale(1, -1) translate(-12.422241, -38.130615) translate(10.422241, 32.130615)">
                    <g id="triangle" transform="translate(2.184082, 2.484497) rotate(-90.000000) translate(-2.184082, -2.484497) translate(-0.815918, -0.015503)">
                        <path d="M2.88775351,-0.425866237 C2.98755721,-0.684554916 3.15206769,-0.677565105 3.24917468,-0.425866237 L5.40050076,5.1503168 C5.50030446,5.40900548 5.36527212,5.61871408 5.08097484,5.61871408 L1.05595335,5.61871408 C0.779680363,5.61871408 0.639320451,5.40201566 0.736427439,5.1503168 L2.88775351,-0.425866237 Z" id="Triangle-1" transform="translate(3.069450, 2.500722) rotate(90.000000) translate(-3.069450, -2.500722) "></path>
                    </g>
                    <path d="M1.68408203,2.99416292 C1.68408203,2.71268224 1.91601562,2.48449707 2.18408203,2.48449707 L2.18408203,2.48449707 C2.46022441,2.48449707 2.68408203,2.70697021 2.68408203,2.99416292 L2.68408203,10.9748312 C2.68408203,11.2563119 2.45214844,11.4844971 2.18408203,11.4844971 L2.18408203,11.4844971 C1.90793966,11.4844971 1.68408203,11.2620239 1.68408203,10.9748312 L1.68408203,2.99416292 Z" id="Rectangle-134"></path>
                </g>
            </g>
        </g>
        <g id="Group-7" transform="translate(63.000000, 51.500000) rotate(90.000000) translate(-63.000000, -51.500000) translate(34.500000, 40.500000)" fill="#8D9EB0">
            <path d="M43.5960425,10.6177945 C45.8837129,10.6177945 47.3838246,12.4554313 47.3838246,15.3431464 L47.3838246,16.3557218 C47.3838246,19.112177 45.6024419,21.099825 43.3147716,21.099825 C42.245942,21.099825 41.3833778,20.7060457 40.6895761,19.9934926 L40.5020622,20.8560569 L38.6831767,20.8560569 L38.6831767,6.98002364 L41.0083499,6.98002364 L41.0083499,11.6491213 C41.6458973,10.9928224 42.5084616,10.6177945 43.5960425,10.6177945 Z M45.0586515,16.4307274 L45.0586515,15.2681408 C45.0586515,13.3179956 44.4023526,12.3804258 43.1272576,12.3804258 C42.2271906,12.3804258 41.5146376,12.8117079 41.0083499,13.4492553 L41.0083499,18.5121323 C41.5146376,19.0559228 42.152185,19.3559452 42.9209923,19.3559452 C44.2148386,19.3559452 45.0586515,18.3433698 45.0586515,16.4307274 Z M54.453101,19.0746742 L56.7595227,19.0746742 L56.7595227,20.8560569 L49.483981,20.8560569 L49.483981,19.0746742 L52.1654306,19.0746742 L52.1654306,10.2802694 L49.8965117,11.4053532 L49.0339475,9.86773866 L52.7092211,7.73007949 L54.453101,7.73007949 L54.453101,19.0746742 Z" id="b1" transform="translate(47.721350, 14.039924) rotate(270.000000) translate(-47.721350, -14.039924) "></path>
            <path d="M28,0.513576555 C28,0.235078105 28.2319336,0.00931050362 28.5,0.00931050362 L28.5,0.00931050362 C28.7761424,0.00931050362 29,0.231864526 29,0.513576555 L29,13.6735904 C29,13.9520888 28.7680664,14.1778564 28.5,14.1778564 L28.5,14.1778564 C28.2238576,14.1778564 28,13.9553024 28,13.6735904 L28,0.513576555 Z" id="Rectangle-93"></path>
            <path d="M9.0871582,0.513576555 C9.0871582,0.235078105 9.3190918,0.00931050362 9.5871582,0.00931050362 L9.5871582,0.00931050362 C9.86330058,0.00931050362 10.0871582,0.231864526 10.0871582,0.513576555 L10.0871582,13.6735904 C10.0871582,13.9520888 9.85522461,14.1778564 9.5871582,14.1778564 L9.5871582,14.1778564 C9.31101583,14.1778564 9.0871582,13.9553024 9.0871582,13.6735904 L9.0871582,0.513576555 Z" id="Rectangle-93"></path>
            <g id="left-arrow" transform="translate(28.126953, 9.137407)">
                <g id="triangle" transform="translate(4.000000, 2.500000) scale(-1, 1) translate(-4.000000, -2.500000) translate(1.000000, 0.000000)">
                    <path d="M2.88775351,-0.425866237 C2.98755721,-0.684554916 3.15206769,-0.677565105 3.24917468,-0.425866237 L5.40050076,5.1503168 C5.50030446,5.40900548 5.36527212,5.61871408 5.08097484,5.61871408 L1.05595335,5.61871408 C0.779680363,5.61871408 0.639320451,5.40201566 0.736427439,5.1503168 L2.88775351,-0.425866237 Z" id="Triangle-1" transform="translate(3.069450, 2.500722) rotate(90.000000) translate(-3.069450, -2.500722) "></path>
                </g>
                <rect id="Rectangle-144" x="6" y="2" width="4" height="1" rx="0.5"></rect>
            </g>
            <g id="Group-3" transform="translate(0.087158, 9.137407)">
                <g id="triangle" transform="translate(6.000000, 2.500000) scale(-1, 1) rotate(180.000000) translate(-6.000000, -2.500000) translate(3.000000, 0.000000)">
                    <path d="M2.88775351,-0.425866237 C2.98755721,-0.684554916 3.15206769,-0.677565105 3.24917468,-0.425866237 L5.40050076,5.1503168 C5.50030446,5.40900548 5.36527212,5.61871408 5.08097484,5.61871408 L1.05595335,5.61871408 C0.779680363,5.61871408 0.639320451,5.40201566 0.736427439,5.1503168 L2.88775351,-0.425866237 Z" id="Triangle-1" transform="translate(3.069450, 2.500722) rotate(90.000000) translate(-3.069450, -2.500722) "></path>
                </g>
                <path d="M4,2.5 C4,2.77614237 3.78494263,3 3.50952148,3 L0.490478516,3 C0.219594711,3 0,2.76806641 0,2.5 L0,2.5 C0,2.22385763 0.215057373,2 0.490478516,2 L3.50952148,2 C3.78040529,2 4,2.23193359 4,2.5 L4,2.5" id="Rectangle-144"></path>
            </g>
        </g>
        <g id="Group-6" transform="translate(65.500000, 121.742188) rotate(90.000000) translate(-65.500000, -121.742188) translate(42.500000, 113.242188)" fill="#8D9EB0">
            <path d="M38.8926438,8.77364514 C41.1803141,8.77364514 42.6804258,10.611282 42.6804258,13.498997 L42.6804258,14.5115724 C42.6804258,17.2680277 40.8990432,19.2556757 38.6113728,19.2556757 C37.5425432,19.2556757 36.679979,18.8618963 35.9861773,18.1493433 L35.7986634,19.0119075 L33.9797779,19.0119075 L33.9797779,5.13587427 L36.3049511,5.13587427 L36.3049511,9.80497194 C36.9424986,9.14867307 37.8050628,8.77364514 38.8926438,8.77364514 Z M40.3552527,14.586578 L40.3552527,13.4239914 C40.3552527,11.4738462 39.6989538,10.5362764 38.4238589,10.5362764 C37.5237918,10.5362764 36.8112388,10.9675585 36.3049511,11.605106 L36.3049511,16.667983 C36.8112388,17.2117735 37.4487863,17.5117958 38.2175935,17.5117958 C39.5114398,17.5117958 40.3552527,16.4992204 40.3552527,14.586578 Z" id="b" transform="translate(38.330102, 12.195775) rotate(270.000000) translate(-38.330102, -12.195775) "></path>
            <path d="M20.3632812,0.669427184 C20.3632812,0.390928734 20.5952148,0.165161133 20.8632812,0.165161133 L20.8632812,0.165161133 C21.1394236,0.165161133 21.3632812,0.387715156 21.3632812,0.669427184 L21.3632812,13.829441 C21.3632812,14.1079395 21.1313477,14.3337071 20.8632812,14.3337071 L20.8632812,14.3337071 C20.5871389,14.3337071 20.3632812,14.1111531 20.3632812,13.829441 L20.3632812,0.669427184 Z" id="Rectangle-93"></path>
            <path d="M9.23960921,0.669427184 C9.23960921,0.390928734 9.4715428,0.165161133 9.73960921,0.165161133 L9.73960921,0.165161133 C10.0157516,0.165161133 10.2396092,0.387715156 10.2396092,0.669427184 L10.2396092,13.829441 C10.2396092,14.1079395 10.0076756,14.3337071 9.73960921,14.3337071 L9.73960921,14.3337071 C9.46346683,14.3337071 9.23960921,14.1111531 9.23960921,13.829441 L9.23960921,0.669427184 Z" id="Rectangle-93"></path>
            <g id="left-arrow" transform="translate(20.490234, 9.293257)">
                <g id="triangle" transform="translate(4.000000, 2.500000) scale(-1, 1) translate(-4.000000, -2.500000) translate(1.000000, 0.000000)">
                    <path d="M2.88775351,-0.425866237 C2.98755721,-0.684554916 3.15206769,-0.677565105 3.24917468,-0.425866237 L5.40050076,5.1503168 C5.50030446,5.40900548 5.36527212,5.61871408 5.08097484,5.61871408 L1.05595335,5.61871408 C0.779680363,5.61871408 0.639320451,5.40201566 0.736427439,5.1503168 L2.88775351,-0.425866237 Z" id="Triangle-1" transform="translate(3.069450, 2.500722) rotate(90.000000) translate(-3.069450, -2.500722) "></path>
                </g>
                <rect id="Rectangle-144" x="6" y="2" width="4" height="1" rx="0.5"></rect>
            </g>
            <g id="Group-3" transform="translate(0.279053, 9.293257)">
                <g id="triangle" transform="translate(6.000000, 2.500000) scale(-1, 1) rotate(180.000000) translate(-6.000000, -2.500000) translate(3.000000, 0.000000)">
                    <path d="M2.88775351,-0.425866237 C2.98755721,-0.684554916 3.15206769,-0.677565105 3.24917468,-0.425866237 L5.40050076,5.1503168 C5.50030446,5.40900548 5.36527212,5.61871408 5.08097484,5.61871408 L1.05595335,5.61871408 C0.779680363,5.61871408 0.639320451,5.40201566 0.736427439,5.1503168 L2.88775351,-0.425866237 Z" id="Triangle-1" transform="translate(3.069450, 2.500722) rotate(90.000000) translate(-3.069450, -2.500722) "></path>
                </g>
                <path d="M4,2.5 C4,2.77614237 3.78494263,3 3.50952148,3 L0.490478516,3 C0.219594711,3 0,2.76806641 0,2.5 L0,2.5 C0,2.22385763 0.215057373,2 0.490478516,2 L3.50952148,2 C3.78040529,2 4,2.23193359 4,2.5 L4,2.5" id="Rectangle-144"></path>
            </g>
        </g>
        <g id="Group-19" transform="translate(174.000000, 83.242188) rotate(270.000000) translate(-174.000000, -83.242188) translate(151.500000, 73.242188)" fill="#8D9EB0">
            <path d="M28.2658558,4.47595425 C28.2658558,4.88848497 28.228353,5.30101569 28.1908502,5.60103803 L21.7591213,5.60103803 C21.7966241,7.51368045 22.6779397,8.35749328 24.4030682,8.35749328 C25.4906491,8.35749328 26.2969592,7.96371396 27.0657664,7.53243184 L27.8908279,8.92003517 C27.047015,9.55758264 25.6969145,10.1013731 24.253057,10.1013731 C21.2153308,10.1013731 19.4902023,8.09497373 19.4902023,5.39477267 L19.4902023,4.36344587 C19.4902023,1.66324481 21.177828,-0.380657382 23.9530347,-0.380657382 C26.6719871,-0.380657382 28.2658558,1.30696828 28.2658558,4.47595425 Z M26.1844508,4.08217493 L26.1844508,3.98841795 C26.1844508,2.26328949 25.4156436,1.32571968 23.9717861,1.32571968 C22.5466799,1.32571968 21.7966241,2.26328949 21.7591213,4.08217493 L26.1844508,4.08217493 Z" id="e" transform="translate(23.878029, 4.860358) rotate(90.000000) translate(-23.878029, -4.860358) "></path>
            <path d="M34.0715332,2.48751354 C34.0715332,2.21664923 34.3034668,1.99707031 34.5715332,1.99707031 L34.5715332,1.99707031 C34.8476756,1.99707031 35.0715332,2.21201313 35.0715332,2.48751354 L35.0715332,18.5066271 C35.0715332,18.7774914 34.8395996,18.9970703 34.5715332,18.9970703 L34.5715332,18.9970703 C34.2953908,18.9970703 34.0715332,18.7821275 34.0715332,18.5066271 L34.0715332,2.48751354 Z" id="Rectangle-93"></path>
            <path d="M12.4715576,2.5011037 C12.4715576,2.22273375 12.7034912,1.99707031 12.9715576,1.99707031 L12.9715576,1.99707031 C13.2477,1.99707031 13.4715576,2.21796918 13.4715576,2.5011037 L13.4715576,18.9641063 C13.4715576,19.2424762 13.239624,19.4681396 12.9715576,19.4681396 L12.9715576,19.4681396 C12.6954152,19.4681396 12.4715576,19.2472408 12.4715576,18.9641063 L12.4715576,2.5011037 Z" id="Rectangle-93"></path>
            <g id="left-arrow" transform="translate(35.263184, 2.118563)">
                <g id="triangle" transform="translate(3.000000, 2.500000) scale(-1, 1) translate(-3.000000, -2.500000) ">
                    <path d="M2.88775351,-0.425866237 C2.98755721,-0.684554916 3.15206769,-0.677565105 3.24917468,-0.425866237 L5.40050076,5.1503168 C5.50030446,5.40900548 5.36527212,5.61871408 5.08097484,5.61871408 L1.05595335,5.61871408 C0.779680363,5.61871408 0.639320451,5.40201566 0.736427439,5.1503168 L2.88775351,-0.425866237 Z" id="Triangle-1" transform="translate(3.069450, 2.500722) rotate(90.000000) translate(-3.069450, -2.500722) "></path>
                </g>
                <path d="M2.85259834,2.39596207 C2.85259834,2.11622249 3.08339515,1.88944875 3.35303417,1.88944875 L10.3521625,1.88944875 C10.6285456,1.88944875 10.8525983,2.10428865 10.8525983,2.39596207 L10.8525983,2.3092346 C10.8525983,2.58897418 10.6218015,2.81574792 10.3521625,2.81574792 L3.35303417,2.81574792 C3.07665109,2.81574792 2.85259834,2.60090803 2.85259834,2.3092346 L2.85259834,2.39596207 Z" id="Rectangle-144"></path>
            </g>
            <g id="left-arrow-copy" transform="translate(6.967041, 4.618563) scale(-1, 1) translate(-6.967041, -4.618563) translate(0.967041, 2.118563)">
                <g id="triangle" transform="translate(3.000000, 2.500000) scale(-1, 1) translate(-3.000000, -2.500000) ">
                    <path d="M2.88775351,-0.425866237 C2.98755721,-0.684554916 3.15206769,-0.677565105 3.24917468,-0.425866237 L5.40050076,5.1503168 C5.50030446,5.40900548 5.36527212,5.61871408 5.08097484,5.61871408 L1.05595335,5.61871408 C0.779680363,5.61871408 0.639320451,5.40201566 0.736427439,5.1503168 L2.88775351,-0.425866237 Z" id="Triangle-1" transform="translate(3.069450, 2.500722) rotate(90.000000) translate(-3.069450, -2.500722) "></path>
                </g>
                <path d="M2.85259834,2.39596207 C2.85259834,2.11622249 3.07615392,1.88944875 3.35039772,1.88944875 L10.7127719,1.88944875 C10.9876989,1.88944875 11.2105713,2.10428865 11.2105713,2.39596207 L11.2105713,2.3092346 C11.2105713,2.58897418 10.9870157,2.81574792 10.7127719,2.81574792 L3.35039772,2.81574792 C3.07547071,2.81574792 2.85259834,2.60090803 2.85259834,2.3092346 L2.85259834,2.39596207 Z" id="Rectangle-144"></path>
            </g>
        </g>
        <g id="Group-2" transform="translate(171.000000, 12.742188)" fill="#8D9EB0">
            <g id="Group-4" transform="translate(26.470337, 9.500000) rotate(270.000000) translate(-26.470337, -9.500000) translate(17.970337, -16.500000)">
                <path d="M0.0311279297,15.1594238 C0.0311279297,14.8832815 0.252594154,14.6594238 0.526492817,14.6594238 L16.0876429,14.6594238 C16.3612254,14.6594238 16.5830078,14.8913574 16.5830078,15.1594238 L16.5830078,15.1594238 C16.5830078,15.4355662 16.3615416,15.6594238 16.0876429,15.6594238 L0.526492817,15.6594238 C0.252910344,15.6594238 0.0311279297,15.4274902 0.0311279297,15.1594238 L0.0311279297,15.1594238 Z" id="Rectangle-132-Copy"></path>
                <path d="M0.0311279297,36.7810059 C0.0311279297,36.5048635 0.252594154,36.2810059 0.526492817,36.2810059 L16.0876429,36.2810059 C16.3612254,36.2810059 16.5830078,36.5129395 16.5830078,36.7810059 L16.5830078,36.7810059 C16.5830078,37.0571482 16.3615416,37.2810059 16.0876429,37.2810059 L0.526492817,37.2810059 C0.252910344,37.2810059 0.0311279297,37.0490723 0.0311279297,36.7810059 L0.0311279297,36.7810059 Z" id="Rectangle-132-Copy-2"></path>
                <g id="Group" transform="translate(10.698608, 37.888916)">
                    <g id="triangle" transform="translate(2.184082, 2.484497) rotate(-90.000000) translate(-2.184082, -2.484497) translate(-0.815918, -0.015503)">
                        <path d="M2.88775351,-0.425866237 C2.98755721,-0.684554916 3.15206769,-0.677565105 3.24917468,-0.425866237 L5.40050076,5.1503168 C5.50030446,5.40900548 5.36527212,5.61871408 5.08097484,5.61871408 L1.05595335,5.61871408 C0.779680363,5.61871408 0.639320451,5.40201566 0.736427439,5.1503168 L2.88775351,-0.425866237 Z" id="Triangle-1" transform="translate(3.069450, 2.500722) rotate(90.000000) translate(-3.069450, -2.500722) "></path>
                    </g>
                    <path d="M1.68408203,2.98938234 C1.68408203,2.71054191 1.91601562,2.48449707 2.18408203,2.48449707 L2.18408203,2.48449707 C2.46022441,2.48449707 2.68408203,2.7159228 2.68408203,2.98938234 L2.68408203,13.059812 C2.68408203,13.3386524 2.45214844,13.5646973 2.18408203,13.5646973 L2.18408203,13.5646973 C1.90793966,13.5646973 1.68408203,13.3332715 1.68408203,13.059812 L1.68408203,2.98938234 Z" id="Rectangle-134"></path>
                </g>
                <g id="Group-Copy" transform="translate(12.698608, 7.214600) scale(1, -1) translate(-12.698608, -7.214600) translate(10.698608, 0.214600)">
                    <g id="triangle" transform="translate(2.184082, 2.484497) rotate(-90.000000) translate(-2.184082, -2.484497) translate(-0.815918, -0.015503)">
                        <path d="M2.88775351,-0.425866237 C2.98755721,-0.684554916 3.15206769,-0.677565105 3.24917468,-0.425866237 L5.40050076,5.1503168 C5.50030446,5.40900548 5.36527212,5.61871408 5.08097484,5.61871408 L1.05595335,5.61871408 C0.779680363,5.61871408 0.639320451,5.40201566 0.736427439,5.1503168 L2.88775351,-0.425866237 Z" id="Triangle-1" transform="translate(3.069450, 2.500722) rotate(90.000000) translate(-3.069450, -2.500722) "></path>
                    </g>
                    <path d="M1.68408203,2.98938234 C1.68408203,2.71054191 1.91601562,2.48449707 2.18408203,2.48449707 L2.18408203,2.48449707 C2.46022441,2.48449707 2.68408203,2.7159228 2.68408203,2.98938234 L2.68408203,13.059812 C2.68408203,13.3386524 2.45214844,13.5646973 2.18408203,13.5646973 L2.18408203,13.5646973 C1.90793966,13.5646973 1.68408203,13.3332715 1.68408203,13.059812 L1.68408203,2.98938234 Z" id="Rectangle-134"></path>
                </g>
            </g>
            <path d="M29.6663406,14 L28.5787596,10.5497431 L24.0409217,10.5497431 L23.0470977,14 L20.6656704,14 L24.6784692,0.874022613 L27.8849579,0.874022613 L32.1040221,14 L29.6663406,14 Z M26.2723378,2.52414548 L24.5659608,8.65585206 L28.0162177,8.65585206 L26.2723378,2.52414548 Z" id="A"></path>
        </g>
        <g id="Group-7" transform="translate(64.896484, 148.628906)" fill="#8D9EB0">
            <polygon id="L1" points="33.6753225 17.7309177 39.0007191 17.7309177 39.0007191 19.6435602 31.3126466 19.6435602 31.3126466 6.51758277 33.6753225 6.51758277"></polygon>
            <path d="M20,0.89646667 C20,0.61796822 20.2319336,0.392200619 20.5,0.392200619 L20.5,0.392200619 C20.7761424,0.392200619 21,0.614754641 21,0.89646667 L21,14.0564805 C21,14.334979 20.7680664,14.5607466 20.5,14.5607466 L20.5,14.5607466 C20.2238576,14.5607466 20,14.3381925 20,14.0564805 L20,0.89646667 Z" id="Rectangle-93"></path>
            <path d="M9.0871582,0.973415422 C9.0871582,0.694916972 9.3190918,0.469149371 9.5871582,0.469149371 L9.5871582,0.469149371 C9.86330058,0.469149371 10.0871582,0.691703394 10.0871582,0.973415422 L10.0871582,14.1334293 C10.0871582,14.4119277 9.85522461,14.6376953 9.5871582,14.6376953 L9.5871582,14.6376953 C9.31101583,14.6376953 9.0871582,14.4151413 9.0871582,14.1334293 L9.0871582,0.973415422 Z" id="Rectangle-93"></path>
            <g id="left-arrow" transform="translate(20.126953, 9.483798)">
                <g id="triangle" transform="translate(4.000000, 2.500000) scale(-1, 1) translate(-4.000000, -2.500000) translate(1.000000, 0.000000)">
                    <path d="M2.88775351,-0.425866237 C2.98755721,-0.684554916 3.15206769,-0.677565105 3.24917468,-0.425866237 L5.40050076,5.1503168 C5.50030446,5.40900548 5.36527212,5.61871408 5.08097484,5.61871408 L1.05595335,5.61871408 C0.779680363,5.61871408 0.639320451,5.40201566 0.736427439,5.1503168 L2.88775351,-0.425866237 Z" id="Triangle-1" transform="translate(3.069450, 2.500722) rotate(90.000000) translate(-3.069450, -2.500722) "></path>
                </g>
                <rect id="Rectangle-144" x="6" y="2" width="4" height="1" rx="0.5"></rect>
            </g>
            <g id="Group-3" transform="translate(0.087158, 9.560747)">
                <g id="triangle" transform="translate(6.000000, 2.500000) scale(-1, 1) rotate(180.000000) translate(-6.000000, -2.500000) translate(3.000000, 0.000000)">
                    <path d="M2.88775351,-0.425866237 C2.98755721,-0.684554916 3.15206769,-0.677565105 3.24917468,-0.425866237 L5.40050076,5.1503168 C5.50030446,5.40900548 5.36527212,5.61871408 5.08097484,5.61871408 L1.05595335,5.61871408 C0.779680363,5.61871408 0.639320451,5.40201566 0.736427439,5.1503168 L2.88775351,-0.425866237 Z" id="Triangle-1" transform="translate(3.069450, 2.500722) rotate(90.000000) translate(-3.069450, -2.500722) "></path>
                </g>
                <path d="M4,2.5 C4,2.77614237 3.78494263,3 3.50952148,3 L0.490478516,3 C0.219594711,3 0,2.76806641 0,2.5 L0,2.5 C0,2.22385763 0.215057373,2 0.490478516,2 L3.50952148,2 C3.78040529,2 4,2.23193359 4,2.5 L4,2.5" id="Rectangle-144"></path>
            </g>
        </g>
    </g>
</svg>
