<?xml version="1.0" encoding="UTF-8" standalone="no"?>
<svg width="200px" height="150px" viewBox="0 0 200 150" version="1.1" xmlns="http://www.w3.org/2000/svg" xmlns:xlink="http://www.w3.org/1999/xlink">
    <!-- Generator: Sketch 48.2 (47327) - http://www.bohemiancoding.com/sketch -->
    <title>ChipArray-2side-FlatConcave</title>
    <desc>Created with Sketch.</desc>
    <defs>
        <rect id="path-1" x="-35.1669929" y="37.1408982" width="95.2416999" height="22.7182036" rx="1"></rect>
    </defs>
    <g stroke="none" stroke-width="1" fill="none" fill-rule="evenodd">
        <g>
            <g transform="translate(33.000000, 27.000000)">
                <g transform="translate(110.000000, 0.000000)">
                    <g transform="translate(12.453857, 48.500000) rotate(90.000000) translate(-12.453857, -48.500000) ">
                        <use fill="#565656" fill-rule="evenodd" xlink:href="#path-1"></use>
                        <rect stroke="#505050" stroke-width="1" x="-34.6669929" y="37.6408982" width="94.2416999" height="21.7182036" rx="1"></rect>
                    </g>
                    <g transform="translate(12.475822, 47.902242) rotate(90.000000) translate(-12.475822, -47.902242) translate(-29.024178, 36.402242)">
                        <g transform="translate(0.671030, 0.421204)">
                            <g transform="translate(0.426728, 0.000000)">
                                <g transform="translate(0.878624, 0.000000)">
                                    <rect stroke="#979797" fill="#E7E7E7" x="0.286573177" y="0.64430304" width="11.2624167" height="20.9159167"></rect>
                                    <g transform="translate(0.422733, 0.422733)" stroke="#B1B1B1">
                                        <rect x="9.85508642" y="1.14190285" width="1" height="19"></rect>
                                        <rect x="0.855757053" y="1.20183229" width="1" height="18.9523913"></rect>
                                    </g>
                                </g>
                                <g transform="translate(23.378174, 0.000000)">
                                    <rect stroke="#979797" fill="#E7E7E7" x="0.286573177" y="0.64430304" width="11.2624167" height="20.9159167"></rect>
                                    <g transform="translate(0.422733, 0.422733)" stroke="#B1B1B1">
                                        <rect x="9.85508642" y="1.14190285" width="1" height="19"></rect>
                                        <rect x="0.855757053" y="1.20183229" width="1" height="18.9523913"></rect>
                                    </g>
                                </g>
                                <g transform="translate(45.886806, 0.000000)">
                                    <rect stroke="#979797" fill="#E7E7E7" x="0.286573177" y="0.64430304" width="11.2624167" height="20.9159167"></rect>
                                    <g transform="translate(0.422733, 0.422733)" stroke="#B1B1B1">
                                        <rect x="9.85508642" y="1.14190285" width="1" height="19"></rect>
                                        <rect x="0.855757053" y="1.20183229" width="1" height="18.9523913"></rect>
                                    </g>
                                </g>
                                <g transform="translate(68.457759, 0.000000)">
                                    <rect stroke="#979797" fill="#E7E7E7" x="0.286573177" y="0.64430304" width="11.2624167" height="20.9159167"></rect>
                                    <g transform="translate(0.422733, 0.422733)" stroke="#B1B1B1">
                                        <rect x="9.85508642" y="1.14190285" width="1" height="19"></rect>
                                        <rect x="0.855757053" y="1.20183229" width="1" height="18.9523913"></rect>
                                    </g>
                                </g>
                            </g>
                        </g>
                    </g>
                </g>
                <g>
                    <path d="M62.0063002,26.5908294 L72.0925086,26.5908294 C72.538268,26.5908294 72.6999111,26.6372422 72.8628741,26.7243957 C73.025837,26.8115493 73.1537313,26.9394435 73.2408849,27.1024065 C73.3280384,27.2653695 73.3744512,27.4270126 73.3744512,27.872772 L73.3744512,69.127228 C73.3744512,69.5729874 73.3280384,69.7346305 73.2408849,69.8975935 C73.1537313,70.0605565 73.025837,70.1884507 72.8628741,70.2756043 C72.6999111,70.3627578 72.538268,70.4091706 72.0925086,70.4091706 L62.2311505,70.4091706 C62.0915233,68.9680264 60.8768551,67.8414919 59.3990707,67.8414919 C57.9212863,67.8414919 56.706618,68.9680264 56.5669909,70.4091706 L39.2425692,70.4091706 C39.1025773,68.9684022 37.8880818,67.8422765 36.4105656,67.8422765 C34.9330493,67.8422765 33.7185538,68.9684022 33.5785619,70.4091706 L17.3810682,70.4091706 C17.2410763,68.9684022 16.0265808,67.8422765 14.5490646,67.8422765 C13.0715484,67.8422765 11.8570529,68.9684022 11.7170609,70.4091706 L-6.06885258,70.4091706 C-6.20847971,68.9680264 -7.42314792,67.8414919 -8.90093236,67.8414919 C-10.3787168,67.8414919 -11.593385,68.9680264 -11.7330121,70.4091706 L-20.5853061,70.4091706 C-21.0310655,70.4091706 -21.1927086,70.3627578 -21.3556715,70.2756043 C-21.5186345,70.1884507 -21.6465288,70.0605565 -21.7336823,69.8975935 C-21.8208359,69.7346305 -21.8672487,69.5729874 -21.8672487,69.127228 L-21.8672487,27.872772 C-21.8672487,27.4270126 -21.8208359,27.2653695 -21.7336823,27.1024065 C-21.6465288,26.9394435 -21.5186345,26.8115493 -21.3556715,26.7243957 C-21.1927086,26.6372422 -21.0310655,26.5908294 -20.5853061,26.5908294 L-11.5331716,26.5908294 C-11.5419214,26.6816913 -11.546398,26.7738021 -11.546398,26.8669586 C-11.546398,28.4384663 -10.2724393,29.7124249 -8.70093159,29.7124249 C-7.12942391,29.7124249 -5.85546522,28.4384663 -5.85546522,26.8669586 C-5.85546522,26.7738021 -5.85994181,26.6816913 -5.86869162,26.5908294 L11.1668292,26.5908294 C11.1580794,26.6816913 11.1536028,26.7738021 11.1536028,26.8669586 C11.1536028,28.4384663 12.4275615,29.7124249 13.9990692,29.7124249 C15.5705769,29.7124249 16.8445355,28.4384663 16.8445355,26.8669586 C16.8445355,26.7738021 16.8400589,26.6816913 16.8313091,26.5908294 L33.5785619,26.5908294 C33.5696564,26.6824831 33.5650992,26.7754102 33.5650992,26.8694016 C33.5650992,28.4409093 34.8390579,29.714868 36.4105656,29.714868 C37.9820733,29.714868 39.256032,28.4409093 39.256032,26.8694016 C39.256032,26.7754102 39.2514747,26.6824831 39.2425692,26.5908294 L56.3422929,26.5908294 C56.3333874,26.6824831 56.3288302,26.7754102 56.3288302,26.8694016 C56.3288302,28.4409093 57.6027889,29.714868 59.1742966,29.714868 C60.7458043,29.714868 62.019763,28.4409093 62.019763,26.8694016 C62.019763,26.7754102 62.0152058,26.6824831 62.0063002,26.5908294 Z" stroke="#505050" fill="#565656" transform="translate(25.753601, 48.500000) rotate(90.000000) translate(-25.753601, -48.500000) "></path>
                    <path d="M38.1113075,7.49969196 C38.1027008,7.59134572 38.0982965,7.68427278 38.0982965,7.77826423 C38.0982965,9.34977192 39.3295134,10.6237306 40.8482965,10.6237306 C42.3670795,10.6237306 43.5982965,9.34977192 43.5982965,7.77826423 C43.5982965,7.68427278 43.5938921,7.59134572 43.5852854,7.49969196 L46.5945275,7.49969196 L46.5945275,20.6361807 L35.5945275,20.6361807 L35.5945275,7.49969196 L38.1113075,7.49969196 Z" stroke="#979797" fill="#E7E7E7" transform="translate(41.094528, 14.067936) rotate(90.000000) translate(-41.094528, -14.067936) "></path>
                    <path d="M12.9898996,20.7591771 C12.8499077,19.3184087 11.6354122,18.192283 10.157896,18.192283 C8.68037975,18.192283 7.46588426,19.3184087 7.32589234,20.7591771 L4.72174224,20.7591771 L4.72174224,7.62268839 L16.1036077,7.62268839 L16.1036077,20.7591771 L12.9898996,20.7591771 Z" stroke="#979797" fill="#E7E7E7" transform="translate(10.412675, 14.190933) rotate(90.000000) translate(-10.412675, -14.190933) "></path>
                    <path d="M38.3080238,30.3117529 C38.2994171,30.4034066 38.2950128,30.4963337 38.2950128,30.5903252 C38.2950128,32.1618328 39.5262297,33.4357915 41.0450128,33.4357915 C42.5637958,33.4357915 43.7950128,32.1618328 43.7950128,30.5903252 C43.7950128,30.4963337 43.7906085,30.4034066 43.7820017,30.3117529 L46.5945275,30.3117529 L46.5945275,43.4482416 L35.5945275,43.4482416 L35.5945275,30.3117529 L38.3080238,30.3117529 Z" stroke="#979797" fill="#E7E7E7" transform="translate(41.094528, 36.879997) rotate(90.000000) translate(-41.094528, -36.879997) "></path>
                    <path d="M13.193445,43.7591771 C13.053453,42.3184087 11.8389575,41.192283 10.3614413,41.192283 C8.88392508,41.192283 7.66942958,42.3184087 7.52943766,43.7591771 L4.72174224,43.7591771 L4.72174224,30.6226884 L16.1036077,30.6226884 L16.1036077,43.7591771 L13.193445,43.7591771 Z" stroke="#979797" fill="#E7E7E7" transform="translate(10.412675, 37.190933) rotate(90.000000) translate(-10.412675, -37.190933) "></path>
                    <path d="M38.3080238,52.8185621 C38.2994171,52.9102158 38.2950128,53.0031429 38.2950128,53.0971344 C38.2950128,54.668642 39.5262297,55.9426007 41.0450128,55.9426007 C42.5637958,55.9426007 43.7950128,54.668642 43.7950128,53.0971344 C43.7950128,53.0031429 43.7906085,52.9102158 43.7820017,52.8185621 L46.5945275,52.8185621 L46.5945275,65.9550508 L35.5945275,65.9550508 L35.5945275,52.8185621 L38.3080238,52.8185621 Z" stroke="#979797" fill="#E7E7E7" transform="translate(41.094528, 59.386806) rotate(90.000000) translate(-41.094528, -59.386806) "></path>
                    <path d="M13.193445,65.7591771 C13.053453,64.3184087 11.8389575,63.192283 10.3614413,63.192283 C8.88392508,63.192283 7.66942958,64.3184087 7.52943766,65.7591771 L4.72174224,65.7591771 L4.72174224,52.6226884 L16.1036077,52.6226884 L16.1036077,65.7591771 L13.193445,65.7591771 Z" stroke="#979797" fill="#E7E7E7" transform="translate(10.412675, 59.190933) rotate(90.000000) translate(-10.412675, -59.190933) "></path>
                    <path d="M38.3080238,75.3895145 C38.2994171,75.4811683 38.2950128,75.5740953 38.2950128,75.6680868 C38.2950128,77.2395945 39.5262297,78.5135532 41.0450128,78.5135532 C42.5637958,78.5135532 43.7950128,77.2395945 43.7950128,75.6680868 C43.7950128,75.5740953 43.7906085,75.4811683 43.7820017,75.3895145 L46.5945275,75.3895145 L46.5945275,88.5260032 L35.5945275,88.5260032 L35.5945275,75.3895145 L38.3080238,75.3895145 Z" stroke="#979797" fill="#E7E7E7" transform="translate(41.094528, 81.957759) rotate(90.000000) translate(-41.094528, -81.957759) "></path>
                    <path d="M13.193445,88.7591771 C13.053453,87.3184087 11.8389575,86.192283 10.3614413,86.192283 C8.88392508,86.192283 7.66942958,87.3184087 7.52943766,88.7591771 L4.72174224,88.7591771 L4.72174224,75.6226884 L16.1036077,75.6226884 L16.1036077,88.7591771 L13.193445,88.7591771 Z" stroke="#979797" fill="#E7E7E7" transform="translate(10.412675, 82.190933) rotate(90.000000) translate(-10.412675, -82.190933) "></path>
                    <g transform="translate(3.844431, 48.500000) rotate(90.000000) translate(-3.844431, -48.500000) translate(-34.569365, 44.943167)"></g>
                </g>
                <g transform="translate(123.662772, 71.975098) rotate(90.000000) translate(-123.662772, -71.975098) translate(108.724073, 68.418265)"></g>
            </g>
        </g>
    </g>
</svg>