<?xml version="1.0" encoding="UTF-8" standalone="no"?>
<svg width="290px" height="175px" viewBox="0 0 290 175" version="1.1" xmlns="http://www.w3.org/2000/svg" xmlns:xlink="http://www.w3.org/1999/xlink" >
    <!-- Generator: Sketch 48.2 (47327) - http://www.bohemiancoding.com/sketch -->
    <title>ChipArray-2side-FlatConcave-Labeled</title>
    <desc>Created with Sketch.</desc>
    <defs>
        <rect id="path-1" x="-38.8595271" y="41.102594" width="105.242078" height="25.1414787" rx="1"></rect>
    </defs>
    <g stroke="none" stroke-width="1" fill="none" fill-rule="evenodd">
        <g>
            <g transform="translate(34.632812, 7.724609)">
                <g transform="translate(36.465000, 29.880000)">
                    <g transform="translate(121.550000, 0.000000)">
                        <g transform="translate(13.761512, 53.673333) rotate(90.000000) translate(-13.761512, -53.673333) ">
                            <use fill="#565656" fill-rule="evenodd" xlink:href="#path-1"></use>
                            <rect stroke="#505050" stroke-width="1" x="-38.3595271" y="41.602594" width="104.242078" height="24.1414787" rx="1"></rect>
                        </g>
                        <g transform="translate(13.785783, 53.011814) rotate(90.000000) translate(-13.785783, -53.011814) translate(-32.071717, 40.285148)">
                            <g transform="translate(0.741489, 0.466132)">
                                <g transform="translate(0.471534, 0.000000)">
                                    <g transform="translate(0.970880, 0.000000)">
                                        <rect stroke="#979797" fill="#E7E7E7" x="0.31666336" y="0.713028697" width="12.4449704" height="23.1469478"></rect>
                                        <g transform="translate(0.467120, 0.467825)" stroke="#B1B1B1">
                                            <rect x="10.8373705" y="1.21037249" width="1" height="21.1333333"></rect>
                                            <rect x="0.893111544" y="1.2766944" width="1" height="21.0806464"></rect>
                                        </g>
                                    </g>
                                    <g transform="translate(25.832882, 0.000000)">
                                        <rect stroke="#979797" fill="#E7E7E7" x="0.31666336" y="0.713028697" width="12.4449704" height="23.1469478"></rect>
                                        <g transform="translate(0.467120, 0.467825)" stroke="#B1B1B1">
                                            <rect x="10.8373705" y="1.21037249" width="1" height="21.1333333"></rect>
                                            <rect x="0.893111544" y="1.2766944" width="1" height="21.0806464"></rect>
                                        </g>
                                    </g>
                                    <g transform="translate(50.704921, 0.000000)">
                                        <rect stroke="#979797" fill="#E7E7E7" x="0.31666336" y="0.713028697" width="12.4449704" height="23.1469478"></rect>
                                        <g transform="translate(0.467120, 0.467825)" stroke="#B1B1B1">
                                            <rect x="10.8373705" y="1.21037249" width="1" height="21.1333333"></rect>
                                            <rect x="0.893111544" y="1.2766944" width="1" height="21.0806464"></rect>
                                        </g>
                                    </g>
                                    <g transform="translate(75.645824, 0.000000)">
                                        <rect stroke="#979797" fill="#E7E7E7" x="0.31666336" y="0.713028697" width="12.4449704" height="23.1469478"></rect>
                                        <g transform="translate(0.467120, 0.467825)" stroke="#B1B1B1">
                                            <rect x="10.8373705" y="1.21037249" width="1" height="21.1333333"></rect>
                                            <rect x="0.893111544" y="1.2766944" width="1" height="21.0806464"></rect>
                                        </g>
                                    </g>
                                </g>
                            </g>
                        </g>
                    </g>
                    <g>
                        <path d="M68.5169618,29.4271845 L79.796826,29.4271845 C80.2425854,29.4271845 80.4042285,29.4735973 80.5671914,29.5607508 C80.7301544,29.6479044 80.8580487,29.7757987 80.9452022,29.9387616 C81.0323558,30.1017246 81.0787686,30.2633677 81.0787686,30.7091271 L81.0787686,76.6375396 C81.0787686,77.0832989 81.0323558,77.2449421 80.9452022,77.407905 C80.8580487,77.570868 80.7301544,77.6987623 80.5671914,77.7859158 C80.4042285,77.8730694 80.2425854,77.9194822 79.796826,77.9194822 L68.7654213,77.9194822 C68.6111333,76.3246159 67.2689249,75.0779177 65.6359731,75.0779177 C64.0030213,75.0779177 62.6608129,76.3246159 62.506525,77.9194822 L43.363039,77.9194822 C43.2083479,76.3250317 41.8663304,75.078786 40.233675,75.078786 C38.6010195,75.078786 37.259002,76.3250317 37.1043109,77.9194822 L19.2060804,77.9194822 C19.0513893,76.3250317 17.7093718,75.078786 16.0767164,75.078786 C14.4440609,75.078786 13.1020434,76.3250317 12.9473523,77.9194822 L-6.7060821,77.9194822 C-6.86037008,76.3246159 -8.20257845,75.0779177 -9.83553026,75.0779177 C-11.4684821,75.0779177 -12.8106904,76.3246159 -12.9649784,77.9194822 L-22.8813672,77.9194822 C-23.3271266,77.9194822 -23.4887697,77.8730694 -23.6517327,77.7859158 C-23.8146956,77.6987623 -23.9425899,77.570868 -24.0297434,77.407905 C-24.116897,77.2449421 -24.1633098,77.0832989 -24.1633098,76.6375396 L-24.1633098,30.7091271 C-24.1633098,30.2633677 -24.116897,30.1017246 -24.0297434,29.9387616 C-23.9425899,29.7757987 -23.8146956,29.6479044 -23.6517327,29.5607508 C-23.4887697,29.4735973 -23.3271266,29.4271845 -22.8813672,29.4271845 L-12.7441546,29.4271845 C-12.7538231,29.5277383 -12.7587698,29.6296744 -12.7587698,29.7327675 C-12.7587698,31.4719027 -11.3510454,32.8817503 -9.61452941,32.8817503 C-7.87801342,32.8817503 -6.47028907,31.4719027 -6.47028907,29.7327675 C-6.47028907,29.6296744 -6.4752357,29.5277383 -6.48490424,29.4271845 L12.3393463,29.4271845 C12.3296777,29.5277383 12.3247311,29.6296744 12.3247311,29.7327675 C12.3247311,31.4719027 13.7324554,32.8817503 15.4689714,32.8817503 C17.2054874,32.8817503 18.6132118,31.4719027 18.6132118,29.7327675 C18.6132118,29.6296744 18.6082651,29.5277383 18.5985966,29.4271845 L37.1043109,29.4271845 C37.0944703,29.5286147 37.0894346,29.6314539 37.0894346,29.7354711 C37.0894346,31.4746063 38.497159,32.8844539 40.233675,32.8844539 C41.970191,32.8844539 43.3779153,31.4746063 43.3779153,29.7354711 C43.3779153,29.6314539 43.3728796,29.5286147 43.363039,29.4271845 L62.2582337,29.4271845 C62.2483931,29.5286147 62.2433574,29.6314539 62.2433574,29.7354711 C62.2433574,31.4746063 63.6510817,32.8844539 65.3875977,32.8844539 C67.1241137,32.8844539 68.5318381,31.4746063 68.5318381,29.7354711 C68.5318381,29.6314539 68.5268024,29.5286147 68.5169618,29.4271845 Z" stroke="#505050" fill="#565656" transform="translate(28.457729, 53.673333) rotate(90.000000) translate(-28.457729, -53.673333) "></path>
                        <path d="M42.1129948,8.2996591 C42.1034844,8.40108927 42.0986176,8.50392854 42.0986176,8.60794575 C42.0986176,10.3470809 43.4591123,11.7569285 45.1373676,11.7569285 C46.8156229,11.7569285 48.1761176,10.3470809 48.1761176,8.60794575 C48.1761176,8.50392854 48.1712508,8.40108927 48.1617404,8.2996591 L51.4869529,8.2996591 L51.4869529,22.8373733 L39.3319529,22.8373733 L39.3319529,8.2996591 L42.1129948,8.2996591 Z" stroke="#979797" fill="#E7E7E7" transform="translate(45.409453, 15.568516) rotate(90.000000) translate(-45.409453, -15.568516) "></path>
                        <path d="M14.3538391,22.9734893 C14.199148,21.3790389 12.8571305,20.1327932 11.2244751,20.1327932 C9.59181963,20.1327932 8.24980211,21.3790389 8.09511103,22.9734893 L5.21752517,22.9734893 L5.21752517,8.43577515 L17.7944866,8.43577515 L17.7944866,22.9734893 L14.3538391,22.9734893 Z" stroke="#979797" fill="#E7E7E7" transform="translate(11.506006, 15.704632) rotate(90.000000) translate(-11.506006, -15.704632) "></path>
                        <path d="M42.3303663,33.5450065 C42.3208559,33.6464367 42.3159891,33.749276 42.3159891,33.8532932 C42.3159891,35.5924283 43.6764838,37.002276 45.3547391,37.002276 C47.0329944,37.002276 48.3934891,35.5924283 48.3934891,33.8532932 C48.3934891,33.749276 48.3886223,33.6464367 48.3791119,33.5450065 L51.4869529,33.5450065 L51.4869529,48.0827207 L39.3319529,48.0827207 L39.3319529,33.5450065 L42.3303663,33.5450065 Z" stroke="#979797" fill="#E7E7E7" transform="translate(45.409453, 40.813864) rotate(90.000000) translate(-45.409453, -40.813864) "></path>
                        <path d="M14.5787567,48.4268227 C14.4240656,46.8323723 13.0820481,45.5861265 11.4493927,45.5861265 C9.81673721,45.5861265 8.47471969,46.8323723 8.32002862,48.4268227 L5.21752517,48.4268227 L5.21752517,33.8891085 L17.7944866,33.8891085 L17.7944866,48.4268227 L14.5787567,48.4268227 Z" stroke="#979797" fill="#E7E7E7" transform="translate(11.506006, 41.157966) rotate(90.000000) translate(-11.506006, -41.157966) "></path>
                        <path d="M42.3303663,58.452542 C42.3208559,58.5539722 42.3159891,58.6568115 42.3159891,58.7608287 C42.3159891,60.4999639 43.6764838,61.9098115 45.3547391,61.9098115 C47.0329944,61.9098115 48.3934891,60.4999639 48.3934891,58.7608287 C48.3934891,58.6568115 48.3886223,58.5539722 48.3791119,58.452542 L51.4869529,58.452542 L51.4869529,72.9902562 L39.3319529,72.9902562 L39.3319529,58.452542 L42.3303663,58.452542 Z" stroke="#979797" fill="#E7E7E7" transform="translate(45.409453, 65.721399) rotate(90.000000) translate(-45.409453, -65.721399) "></path>
                        <path d="M14.5787567,72.7734893 C14.4240656,71.1790389 13.0820481,69.9327932 11.4493927,69.9327932 C9.81673721,69.9327932 8.47471969,71.1790389 8.32002862,72.7734893 L5.21752517,72.7734893 L5.21752517,58.2357752 L17.7944866,58.2357752 L17.7944866,72.7734893 L14.5787567,72.7734893 Z" stroke="#979797" fill="#E7E7E7" transform="translate(11.506006, 65.504632) rotate(90.000000) translate(-11.506006, -65.504632) "></path>
                        <path d="M42.3303663,83.4310627 C42.3208559,83.5324929 42.3159891,83.6353322 42.3159891,83.7393494 C42.3159891,85.4784845 43.6764838,86.8883322 45.3547391,86.8883322 C47.0329944,86.8883322 48.3934891,85.4784845 48.3934891,83.7393494 C48.3934891,83.6353322 48.3886223,83.5324929 48.3791119,83.4310627 L51.4869529,83.4310627 L51.4869529,97.9687769 L39.3319529,97.9687769 L39.3319529,83.4310627 L42.3303663,83.4310627 Z" stroke="#979797" fill="#E7E7E7" transform="translate(45.409453, 90.699920) rotate(90.000000) translate(-45.409453, -90.699920) "></path>
                        <path d="M14.5787567,98.2268227 C14.4240656,96.6323723 13.0820481,95.3861265 11.4493927,95.3861265 C9.81673721,95.3861265 8.47471969,96.6323723 8.32002862,98.2268227 L5.21752517,98.2268227 L5.21752517,83.6891085 L17.7944866,83.6891085 L17.7944866,98.2268227 L14.5787567,98.2268227 Z" stroke="#979797" fill="#E7E7E7" transform="translate(11.506006, 90.957966) rotate(90.000000) translate(-11.506006, -90.957966) "></path>
                        <g transform="translate(4.248096, 53.673333) rotate(90.000000) translate(-4.248096, -53.673333) translate(-38.199149, 49.737105)"></g>
                    </g>
                    <g transform="translate(136.647363, 79.652441) rotate(90.000000) translate(-136.647363, -79.652441) translate(120.140101, 75.716213)"></g>
                </g>
            </g>
            <g transform="translate(220.000000, 36.000000)" fill="#8D9EB0">
                <path d="M15.4638231,35.2811775 C17.7514934,35.2811775 19.2516051,37.1188143 19.2516051,40.0065293 L19.2516051,41.0191047 C19.2516051,43.77556 17.4702225,45.763208 15.1825521,45.763208 C14.1137226,45.763208 13.2511583,45.3694287 12.5573567,44.6568756 L12.3698427,45.5194398 L10.5509573,45.5194398 L10.5509573,31.6434066 L12.8761304,31.6434066 L12.8761304,36.3125043 C13.5136779,35.6562054 14.3762421,35.2811775 15.4638231,35.2811775 Z M16.926432,41.0941103 L16.926432,39.9315237 C16.926432,37.9813785 16.2701331,37.0438087 14.9950382,37.0438087 C14.0949712,37.0438087 13.3824181,37.4750908 12.8761304,38.1126383 L12.8761304,43.1755153 C13.3824181,43.7193058 14.0199656,44.0193281 14.7887728,44.0193281 C16.0826192,44.0193281 16.926432,43.0067527 16.926432,41.0941103 Z"></path>
                <g transform="translate(9.330078, 16.703307) rotate(270.000000) translate(-9.330078, -16.703307) translate(-6.669922, 7.703307)">
                    <path d="M20.8937988,0.82247448 C20.8937988,0.551610163 21.1257324,0.33203125 21.3937988,0.33203125 L21.3937988,0.33203125 C21.6699412,0.33203125 21.8937988,0.546974063 21.8937988,0.82247448 L21.8937988,16.841588 C21.8937988,17.1124523 21.6618652,17.3320312 21.3937988,17.3320312 L21.3937988,17.3320312 C21.1176565,17.3320312 20.8937988,17.1170884 20.8937988,16.841588 L20.8937988,0.82247448 Z"></path>
                    <rect x="9.29382324" y="0.33203125" width="1" height="17.4710693" rx="0.5"></rect>
                    <g transform="translate(23.085449, 13.453524)">
                        <g transform="translate(2.000000, 1.500000) scale(-1, 1) translate(-2.000000, -1.500000) translate(-1.000000, -1.000000)">
                            <path d="M2.88775351,-0.425866237 C2.98755721,-0.684554916 3.15206769,-0.677565105 3.24917468,-0.425866237 L5.40050076,5.1503168 C5.50030446,5.40900548 5.36527212,5.61871408 5.08097484,5.61871408 L1.05595335,5.61871408 C0.779680363,5.61871408 0.639320451,5.40201566 0.736427439,5.1503168 L2.88775351,-0.425866237 Z" transform="translate(3.069450, 2.500722) rotate(90.000000) translate(-3.069450, -2.500722) "></path>
                        </g>
                        <rect x="1.85259834" y="0.889448752" width="5.39496026" height="1" rx="0.5"></rect>
                    </g>
                    <g transform="translate(4.789307, 14.953524) scale(-1, 1) translate(-4.789307, -14.953524) translate(0.789307, 13.453524)">
                        <g transform="translate(2.000000, 1.500000) scale(-1, 1) translate(-2.000000, -1.500000) translate(-1.000000, -1.000000)">
                            <path d="M2.88775351,-0.425866237 C2.98755721,-0.684554916 3.15206769,-0.677565105 3.24917468,-0.425866237 L5.40050076,5.1503168 C5.50030446,5.40900548 5.36527212,5.61871408 5.08097484,5.61871408 L1.05595335,5.61871408 C0.779680363,5.61871408 0.639320451,5.40201566 0.736427439,5.1503168 L2.88775351,-0.425866237 Z" transform="translate(3.069450, 2.500722) rotate(90.000000) translate(-3.069450, -2.500722) "></path>
                        </g>
                        <rect x="1.85259834" y="0.889448752" width="5.39496026" height="1" rx="0.5"></rect>
                    </g>
                </g>
            </g>
            <g transform="translate(134.500000, 92.500000) rotate(90.000000) translate(-134.500000, -92.500000) translate(81.000000, 83.000000)" fill="#8D9EB0">
                <g transform="translate(0.339814, 2.775391)">
                    <g transform="translate(3.026855, 2.500000) scale(-1, 1) translate(-3.026855, -2.500000) translate(0.026855, 0.000000)">
                        <path d="M2.88775351,-0.425866237 C2.98755721,-0.684554916 3.15206769,-0.677565105 3.24917468,-0.425866237 L5.40050076,5.1503168 C5.50030446,5.40900548 5.36527212,5.61871408 5.08097484,5.61871408 L1.05595335,5.61871408 C0.779680363,5.61871408 0.639320451,5.40201566 0.736427439,5.1503168 L2.88775351,-0.425866237 Z" transform="translate(3.069450, 2.500722) rotate(90.000000) translate(-3.069450, -2.500722) "></path>
                    </g>
                    <rect x="2.8794538" y="1.88944875" width="42.83957" height="1" rx="0.5"></rect>
                </g>
                <g transform="translate(85.292969, 5.275391) scale(-1, 1) translate(-85.292969, -5.275391) translate(64.792969, 2.775391)">
                    <g transform="translate(3.026855, 2.500000) scale(-1, 1) translate(-3.026855, -2.500000) translate(0.026855, 0.000000)">
                        <path d="M2.88775351,-0.425866237 C2.98755721,-0.684554916 3.15206769,-0.677565105 3.24917468,-0.425866237 L5.40050076,5.1503168 C5.50030446,5.40900548 5.36527212,5.61871408 5.08097484,5.61871408 L1.05595335,5.61871408 C0.779680363,5.61871408 0.639320451,5.40201566 0.736427439,5.1503168 L2.88775351,-0.425866237 Z" transform="translate(3.069450, 2.500722) rotate(90.000000) translate(-3.069450, -2.500722) "></path>
                    </g>
                    <rect x="2.8794538" y="1.88944875" width="38.0679339" height="1" rx="0.5"></rect>
                </g>
                <path d="M55.0989039,-1.29669272 C58.6616691,-1.29669272 60.4430518,0.803463663 60.4430518,3.95369824 L60.4430518,6.27887137 C60.4430518,9.69162549 58.417901,11.8292847 54.6301189,11.8292847 L50.8048341,11.8292847 L50.8048341,-1.29669272 L55.0989039,-1.29669272 Z M58.0803759,6.31637417 L58.0803759,3.89744405 C58.0803759,1.75978487 57.0678005,0.522192719 54.9863955,0.522192719 L53.16751,0.522192719 L53.16751,10.0103992 L54.6488703,10.0103992 C56.9365407,10.0103992 58.0803759,8.81030987 58.0803759,6.31637417 Z" transform="translate(55.623943, 5.266296) rotate(270.000000) translate(-55.623943, -5.266296) "></path>
                <rect x="0.379257643" y="1.89453125" width="1" height="17" rx="0.5"></rect>
                <rect x="105.376953" y="1.89453125" width="1" height="17" rx="0.5"></rect>
            </g>
            <g transform="translate(100.000000, 26.500000) rotate(270.000000) translate(-100.000000, -26.500000) translate(91.500000, 1.500000)" fill="#8D9EB0">
                <rect x="0.0311279297" y="0.180908203" width="16.5518799" height="1" rx="0.5"></rect>
                <rect x="0.0311279297" y="48.2810059" width="16.5518799" height="1" rx="0.5"></rect>
                <g transform="translate(10.422241, 1.495361)">
                    <g transform="translate(2.184082, 2.484497) rotate(-90.000000) translate(-2.184082, -2.484497) translate(-0.815918, -0.015503)">
                        <path d="M2.88775351,-0.425866237 C2.98755721,-0.684554916 3.15206769,-0.677565105 3.24917468,-0.425866237 L5.40050076,5.1503168 C5.50030446,5.40900548 5.36527212,5.61871408 5.08097484,5.61871408 L1.05595335,5.61871408 C0.779680363,5.61871408 0.639320451,5.40201566 0.736427439,5.1503168 L2.88775351,-0.425866237 Z" transform="translate(3.069450, 2.500722) rotate(90.000000) translate(-3.069450, -2.500722) "></path>
                    </g>
                    <rect x="1.68408203" y="2.48449707" width="1" height="8.88754008" rx="0.5"></rect>
                </g>
                <g transform="translate(12.422241, 41.130615) scale(1, -1) translate(-12.422241, -41.130615) translate(10.422241, 35.130615)">
                    <g transform="translate(2.184082, 2.484497) rotate(-90.000000) translate(-2.184082, -2.484497) translate(-0.815918, -0.015503)">
                        <path d="M2.88775351,-0.425866237 C2.98755721,-0.684554916 3.15206769,-0.677565105 3.24917468,-0.425866237 L5.40050076,5.1503168 C5.50030446,5.40900548 5.36527212,5.61871408 5.08097484,5.61871408 L1.05595335,5.61871408 C0.779680363,5.61871408 0.639320451,5.40201566 0.736427439,5.1503168 L2.88775351,-0.425866237 Z" transform="translate(3.069450, 2.500722) rotate(90.000000) translate(-3.069450, -2.500722) "></path>
                    </g>
                    <rect x="1.68408203" y="2.48449707" width="1" height="9" rx="0.5"></rect>
                </g>
            </g>
            <polygon fill="#8D9EB0" points="103.482732 20.1929081 98.1760867 20.1929081 98.1760867 23.9244359 103.070201 23.9244359 103.070201 25.7433213 98.1760867 25.7433213 98.1760867 29.6623632 103.482732 29.6623632 103.482732 31.5 95.8134108 31.5 95.8134108 18.3740226 103.482732 18.3740226"></polygon>
            <g transform="translate(174.000000, 91.000000)" fill="#8D9EB0">
                <g transform="translate(9.500000, 23.699219) rotate(270.000000) translate(-9.500000, -23.699219) translate(-13.500000, 14.199219)">
                    <path d="M34.9564209,1.42989635 C34.9564209,1.15903204 35.1883545,0.939453125 35.4564209,0.939453125 L35.4564209,0.939453125 C35.7325633,0.939453125 35.9564209,1.15439594 35.9564209,1.42989635 L35.9564209,17.4490099 C35.9564209,17.7198742 35.7244873,17.9394531 35.4564209,17.9394531 L35.4564209,17.9394531 C35.1802785,17.9394531 34.9564209,17.7245103 34.9564209,17.4490099 L34.9564209,1.42989635 Z"></path>
                    <rect x="9.35644531" y="0.939453125" width="1" height="17.4710693" rx="0.5"></rect>
                    <g transform="translate(37.148071, 2.060946)">
                        <g transform="translate(2.000000, 1.500000) scale(-1, 1) translate(-2.000000, -1.500000) translate(-1.000000, -1.000000)">
                            <path d="M2.88775351,-0.425866237 C2.98755721,-0.684554916 3.15206769,-0.677565105 3.24917468,-0.425866237 L5.40050076,5.1503168 C5.50030446,5.40900548 5.36527212,5.61871408 5.08097484,5.61871408 L1.05595335,5.61871408 C0.779680363,5.61871408 0.639320451,5.40201566 0.736427439,5.1503168 L2.88775351,-0.425866237 Z" transform="translate(3.069450, 2.500722) rotate(90.000000) translate(-3.069450, -2.500722) "></path>
                        </g>
                        <rect x="1.85259834" y="0.889448752" width="5.39496026" height="1" rx="0.5"></rect>
                    </g>
                    <path d="M6.73968222,0.635080009 C6.83948592,0.37639133 7.00399641,0.383381141 7.10110339,0.635080009 L9.25242947,6.21126304 C9.35223317,6.46995172 9.21720084,6.67966033 8.93290355,6.67966033 L4.90788206,6.67966033 C4.63160907,6.67966033 4.49124916,6.46296191 4.58835615,6.21126304 L6.73968222,0.635080009 Z" transform="translate(6.921379, 3.561668) rotate(90.000000) translate(-6.921379, -3.561668) "></path>
                    <rect x="0.999330375" y="2.950395" width="5.39496026" height="1" rx="0.5"></rect>
                </g>
                <path d="M8.87699856,55.6155964 C8.87699856,56.0281271 8.83949576,56.4406578 8.80199297,56.7406802 L2.37026405,56.7406802 C2.40776684,58.6533226 3.28908247,59.4971354 5.01421093,59.4971354 C6.10179191,59.4971354 6.90810195,59.1033561 7.6769092,58.672074 L8.50197063,60.0596773 C7.6581578,60.6972248 6.30805727,61.2410153 4.86419976,61.2410153 C1.82647356,61.2410153 0.101345103,59.2346159 0.101345103,56.5344148 L0.101345103,55.503088 C0.101345103,52.8028869 1.78897077,50.7589847 4.56417742,50.7589847 C7.28312987,50.7589847 8.87699856,52.4466104 8.87699856,55.6155964 Z M6.79559357,55.2218171 L6.79559357,55.1280601 C6.79559357,53.4029316 6.02678632,52.4653618 4.58292881,52.4653618 C3.1578227,52.4653618 2.40776684,53.4029316 2.37026405,55.2218171 L6.79559357,55.2218171 Z"></path>
            </g>
            <g transform="translate(208.000000, 28.000000) rotate(270.000000) translate(-208.000000, -28.000000) translate(198.000000, 0.000000)" fill="#8D9EB0">
                <path d="M17.2952468,34.3626709 L16.2076658,30.912414 L11.6698279,30.912414 L10.6760039,34.3626709 L8.29457661,34.3626709 L12.3073754,21.2366935 L15.5138642,21.2366935 L19.7329283,34.3626709 L17.2952468,34.3626709 Z M13.9012441,22.8868164 L12.194867,29.018523 L15.6451239,29.018523 L13.9012441,22.8868164 Z" transform="translate(14.013752, 27.799682) rotate(90.000000) translate(-14.013752, -27.799682) "></path>
                <g transform="translate(0.772461, 0.085238)">
                    <rect x="0.0311279297" y="14.6594238" width="16.5518799" height="1" rx="0.5"></rect>
                    <rect x="0.0311279297" y="39.2810059" width="16.5518799" height="1" rx="0.5"></rect>
                    <g transform="translate(10.698608, 40.888916)">
                        <g transform="translate(2.184082, 2.484497) rotate(-90.000000) translate(-2.184082, -2.484497) translate(-0.815918, -0.015503)">
                            <path d="M2.88775351,-0.425866237 C2.98755721,-0.684554916 3.15206769,-0.677565105 3.24917468,-0.425866237 L5.40050076,5.1503168 C5.50030446,5.40900548 5.36527212,5.61871408 5.08097484,5.61871408 L1.05595335,5.61871408 C0.779680363,5.61871408 0.639320451,5.40201566 0.736427439,5.1503168 L2.88775351,-0.425866237 Z" transform="translate(3.069450, 2.500722) rotate(90.000000) translate(-3.069450, -2.500722) "></path>
                        </g>
                        <rect x="1.68408203" y="2.48449707" width="1" height="11.0802002" rx="0.5"></rect>
                    </g>
                    <g transform="translate(12.698608, 8.214600) scale(1, -1) translate(-12.698608, -8.214600) translate(9.698608, 0.214600)">
                        <g transform="translate(3.184082, 4.484497) rotate(-90.000000) translate(-3.184082, -4.484497) translate(-0.815918, 1.984497)">
                            <path d="M3.88775351,-0.425866237 C3.98755721,-0.684554916 4.15206769,-0.677565105 4.24917468,-0.425866237 L6.40050076,5.1503168 C6.50030446,5.40900548 6.36527212,5.61871408 6.08097484,5.61871408 L2.05595335,5.61871408 C1.77968036,5.61871408 1.63932045,5.40201566 1.73642744,5.1503168 L3.88775351,-0.425866237 Z" transform="translate(4.069450, 2.500722) rotate(90.000000) translate(-4.069450, -2.500722) "></path>
                        </g>
                        <rect x="2.68408203" y="4.48449707" width="1" height="11.0802002" rx="0.5"></rect>
                    </g>
                </g>
            </g>
            <g transform="translate(62.000000, 136.000000)" fill="#8D9EB0">
                <g transform="translate(20.500000, 13.500000) rotate(270.000000) translate(-20.500000, -13.500000) translate(7.500000, -7.000000)">
                    <rect x="0.0311279297" y="12.6594238" width="16.5518799" height="1" rx="0.5"></rect>
                    <rect x="0.0311279297" y="27.0483398" width="25.4864502" height="1" rx="0.5"></rect>
                    <g transform="translate(3.698608, 28.698120)">
                        <g transform="translate(2.184082, 2.484497) rotate(-90.000000) translate(-2.184082, -2.484497) translate(-0.815918, -0.015503)">
                            <path d="M2.88775351,-0.425866237 C2.98755721,-0.684554916 3.15206769,-0.677565105 3.24917468,-0.425866237 L5.40050076,5.1503168 C5.50030446,5.40900548 5.36527212,5.61871408 5.08097484,5.61871408 L1.05595335,5.61871408 C0.779680363,5.61871408 0.639320451,5.40201566 0.736427439,5.1503168 L2.88775351,-0.425866237 Z" transform="translate(3.069450, 2.500722) rotate(90.000000) translate(-3.069450, -2.500722) "></path>
                        </g>
                        <rect x="1.68408203" y="2.48449707" width="1" height="9" rx="0.5"></rect>
                    </g>
                    <g transform="translate(5.698608, 6.214600) scale(1, -1) translate(-5.698608, -6.214600) translate(3.698608, 0.214600)">
                        <g transform="translate(2.184082, 2.484497) rotate(-90.000000) translate(-2.184082, -2.484497) translate(-0.815918, -0.015503)">
                            <path d="M2.88775351,-0.425866237 C2.98755721,-0.684554916 3.15206769,-0.677565105 3.24917468,-0.425866237 L5.40050076,5.1503168 C5.50030446,5.40900548 5.36527212,5.61871408 5.08097484,5.61871408 L1.05595335,5.61871408 C0.779680363,5.61871408 0.639320451,5.40201566 0.736427439,5.1503168 L2.88775351,-0.425866237 Z" transform="translate(3.069450, 2.500722) rotate(90.000000) translate(-3.069450, -2.500722) "></path>
                        </g>
                        <rect x="1.68408203" y="2.48449707" width="1" height="9.15555074" rx="0.5"></rect>
                    </g>
                </g>
                <polygon points="44.5810665 26.0873576 49.906463 26.0873576 49.906463 28 42.2183906 28 42.2183906 14.8740226 44.5810665 14.8740226"></polygon>
            </g>
        </g>
    </g>
</svg>
