<?xml version="1.0" encoding="UTF-8" standalone="no"?>
<svg width="290px" height="175px" viewBox="0 0 290 175" version="1.1" xmlns="http://www.w3.org/2000/svg" xmlns:xlink="http://www.w3.org/1999/xlink" >
    <!-- Generator: Sketch 48.2 (47327) - http://www.bohemiancoding.com/sketch -->
    <title>Chip-Labeled</title>
    <desc>Created with Sketch.</desc>
    <defs>
        <rect id="path-1" x="155" y="44" width="30" height="62.6171875" rx="2"></rect>
        <rect id="path-2" x="0.66015625" y="0.69140625" width="116.679688" height="62.6171875" rx="2"></rect>
        <rect id="path-3" x="23.5810547" y="0.69140625" width="71.8378906" height="62.6171875"></rect>
    </defs>
    <g stroke="none" stroke-width="1" fill="none" fill-rule="evenodd">
        <g>
            <g transform="translate(46.000000, 119.000000)" fill="#8D9EB0">
                <polygon points="21.855957 25.7109871 27.1813535 25.7109871 27.1813535 27.6236295 19.493281 27.6236295 19.493281 14.4976521 21.855957 14.4976521"></polygon>
                <path d="M32.4628906,0.985955505 C32.4628906,0.707457055 32.6948242,0.481689453 32.9628906,0.481689453 L32.9628906,0.481689453 C33.239033,0.481689453 33.4628906,0.704243476 33.4628906,0.985955505 L33.4628906,14.1459693 C33.4628906,14.4244678 33.230957,14.6502354 32.9628906,14.6502354 L32.9628906,14.6502354 C32.6867483,14.6502354 32.4628906,14.4276814 32.4628906,14.1459693 L32.4628906,0.985955505 Z"></path>
                <rect x="9.33921858" y="0.481689453" width="1" height="14.1685459" rx="0.5"></rect>
                <g transform="translate(32.589844, 9.646285)">
                    <g transform="translate(4.000000, 2.500000) scale(-1, 1) translate(-4.000000, -2.500000) translate(1.000000, 0.000000)">
                        <path d="M2.88775351,-0.425866237 C2.98755721,-0.684554916 3.15206769,-0.677565105 3.24917468,-0.425866237 L5.40050076,5.1503168 C5.50030446,5.40900548 5.36527212,5.61871408 5.08097484,5.61871408 L1.05595335,5.61871408 C0.779680363,5.61871408 0.639320451,5.40201566 0.736427439,5.1503168 L2.88775351,-0.425866237 Z" transform="translate(3.069450, 2.500722) rotate(90.000000) translate(-3.069450, -2.500722) "></path>
                    </g>
                    <rect x="6" y="2" width="4" height="1" rx="0.5"></rect>
                </g>
                <g transform="translate(0.378662, 9.500289)">
                    <g transform="translate(6.000000, 2.500000) scale(-1, 1) rotate(180.000000) translate(-6.000000, -2.500000) translate(3.000000, 0.000000)">
                        <path d="M2.88775351,-0.425866237 C2.98755721,-0.684554916 3.15206769,-0.677565105 3.24917468,-0.425866237 L5.40050076,5.1503168 C5.50030446,5.40900548 5.36527212,5.61871408 5.08097484,5.61871408 L1.05595335,5.61871408 C0.779680363,5.61871408 0.639320451,5.40201566 0.736427439,5.1503168 L2.88775351,-0.425866237 Z" transform="translate(3.069450, 2.500722) rotate(90.000000) translate(-3.069450, -2.500722) "></path>
                    </g>
                    <path d="M4,2.5 C4,2.77614237 3.78494263,3 3.50952148,3 L0.490478516,3 C0.219594711,3 0,2.76806641 0,2.5 L0,2.5 C0,2.22385763 0.215057373,2 0.490478516,2 L3.50952148,2 C3.78040529,2 4,2.23193359 4,2.5 L4,2.5"></path>
                </g>
            </g>
            <g transform="translate(40.000000, 12.132568)">
                <g>
                    <use fill="#D8D8D8" fill-rule="evenodd" xlink:href="#path-1"></use>
                    <rect stroke="#FFFFFF" stroke-width="1" x="155.5" y="44.5" width="29" height="61.6171875" rx="2"></rect>
                </g>
                <g stroke-width="1" fill-rule="evenodd" transform="translate(15.000000, 43.000000)">
                    <g>
                        <g>
                            <use fill="#D8D8D8" fill-rule="evenodd" xlink:href="#path-2"></use>
                            <rect stroke="#FFFFFF" stroke-width="1" x="1.16015625" y="1.19140625" width="115.679688" height="61.6171875" rx="2"></rect>
                        </g>
                    </g>
                    <g>
                        <use fill="#585858" fill-rule="evenodd" xlink:href="#path-3"></use>
                        <rect stroke="#FFFFFF" stroke-width="1" x="24.0810547" y="1.19140625" width="70.8378906" height="61.6171875"></rect>
                    </g>
                </g>
            </g>
            <g transform="translate(195.000000, 37.000000)" fill="#8D9EB0">
                <path d="M20.2819412,13.6105347 L19.1943602,10.1602778 L14.6565223,10.1602778 L13.6626983,13.6105347 L11.2812709,13.6105347 L15.2940697,0.484557281 L18.5005585,0.484557281 L22.7196227,13.6105347 L20.2819412,13.6105347 Z M16.8879384,2.13468015 L15.1815614,8.26638673 L18.6318183,8.26638673 L16.8879384,2.13468015 Z"></path>
                <path d="M30.6794434,1.24044323 C30.6794434,0.969578913 30.911377,0.75 31.1794434,0.75 L31.1794434,0.75 C31.4555857,0.75 31.6794434,0.964942813 31.6794434,1.24044323 L31.6794434,17.2595568 C31.6794434,17.5304211 31.4475098,17.75 31.1794434,17.75 L31.1794434,17.75 C30.903301,17.75 30.6794434,17.5350572 30.6794434,17.2595568 L30.6794434,1.24044323 Z"></path>
                <rect x="0.622924805" y="0.75" width="1" height="17.4710693" rx="0.5"></rect>
                <g transform="translate(1.653320, 1.871493)">
                    <g transform="translate(2.000000, 1.500000) scale(-1, 1) translate(-2.000000, -1.500000) translate(-1.000000, -1.000000)">
                        <path d="M2.88775351,-0.425866237 C2.98755721,-0.684554916 3.15206769,-0.677565105 3.24917468,-0.425866237 L5.40050076,5.1503168 C5.50030446,5.40900548 5.36527212,5.61871408 5.08097484,5.61871408 L1.05595335,5.61871408 C0.779680363,5.61871408 0.639320451,5.40201566 0.736427439,5.1503168 L2.88775351,-0.425866237 Z" transform="translate(3.069450, 2.500722) rotate(90.000000) translate(-3.069450, -2.500722) "></path>
                    </g>
                    <rect x="1.85259834" y="0.889448752" width="5.39496026" height="1" rx="0.5"></rect>
                </g>
                <g transform="translate(27.179443, 3.371493) scale(-1, 1) translate(-27.179443, -3.371493) translate(22.679443, 0.871493)">
                    <g transform="translate(3.000000, 2.500000) scale(-1, 1) translate(-3.000000, -2.500000) ">
                        <path d="M2.88775351,-0.425866237 C2.98755721,-0.684554916 3.15206769,-0.677565105 3.24917468,-0.425866237 L5.40050076,5.1503168 C5.50030446,5.40900548 5.36527212,5.61871408 5.08097484,5.61871408 L1.05595335,5.61871408 C0.779680363,5.61871408 0.639320451,5.40201566 0.736427439,5.1503168 L2.88775351,-0.425866237 Z" transform="translate(3.069450, 2.500722) rotate(90.000000) translate(-3.069450, -2.500722) "></path>
                    </g>
                    <rect x="2.85259834" y="1.88944875" width="5.39496026" height="1" rx="0.5"></rect>
                </g>
            </g>
            <g transform="translate(54.000000, 37.000000)" fill="#8D9EB0">
                <g transform="translate(0.962861, 1.000000)">
                    <g transform="translate(3.026855, 2.500000) scale(-1, 1) translate(-3.026855, -2.500000) translate(0.026855, 0.000000)">
                        <path d="M2.88775351,-0.425866237 C2.98755721,-0.684554916 3.15206769,-0.677565105 3.24917468,-0.425866237 L5.40050076,5.1503168 C5.50030446,5.40900548 5.36527212,5.61871408 5.08097484,5.61871408 L1.05595335,5.61871408 C0.779680363,5.61871408 0.639320451,5.40201566 0.736427439,5.1503168 L2.88775351,-0.425866237 Z" transform="translate(3.069450, 2.500722) rotate(90.000000) translate(-3.069450, -2.500722) "></path>
                    </g>
                    <rect x="2.8794538" y="1.88944875" width="44.5497751" height="1" rx="0.5"></rect>
                </g>
                <g transform="translate(92.000000, 3.500000) scale(-1, 1) translate(-92.000000, -3.500000) translate(67.000000, 1.000000)">
                    <g transform="translate(3.026855, 2.500000) scale(-1, 1) translate(-3.026855, -2.500000) translate(0.026855, 0.000000)">
                        <path d="M2.88775351,-0.425866237 C2.98755721,-0.684554916 3.15206769,-0.677565105 3.24917468,-0.425866237 L5.40050076,5.1503168 C5.50030446,5.40900548 5.36527212,5.61871408 5.08097484,5.61871408 L1.05595335,5.61871408 C0.779680363,5.61871408 0.639320451,5.40201566 0.736427439,5.1503168 L2.88775351,-0.425866237 Z" transform="translate(3.069450, 2.500722) rotate(90.000000) translate(-3.069450, -2.500722) "></path>
                    </g>
                    <rect x="2.8794538" y="1.88944875" width="46.5953997" height="1" rx="0.5"></rect>
                </g>
                <path d="M57.7629664,0.484557281 C61.3257316,0.484557281 63.1071143,2.58471366 63.1071143,5.73494824 L63.1071143,8.06012137 C63.1071143,11.4728755 61.0819635,13.6105347 57.2941814,13.6105347 L53.4688966,13.6105347 L53.4688966,0.484557281 L57.7629664,0.484557281 Z M60.7444384,8.09762417 L60.7444384,5.67869405 C60.7444384,3.54103487 59.731863,2.30344272 57.650458,2.30344272 L55.8315725,2.30344272 L55.8315725,11.7916492 L57.3129328,11.7916492 C59.6006032,11.7916492 60.7444384,10.5915599 60.7444384,8.09762417 Z"></path>
                <rect x="1.00230452" y="1.11914062" width="1" height="17" rx="0.5"></rect>
                <rect x="116" y="1.11914062" width="1" height="17" rx="0.5"></rect>
            </g>
            <g transform="translate(225.000000, 55.000000)" fill="#8D9EB0">
                <polygon points="17.5314062 26.3505008 12.224761 26.3505008 12.224761 30.0820287 17.1188754 30.0820287 17.1188754 31.9009141 12.224761 31.9009141 12.224761 35.8199559 17.5314062 35.8199559 17.5314062 37.6575928 9.86208508 37.6575928 9.86208508 24.5316154 17.5314062 24.5316154"></polygon>
                <g transform="translate(0.500000, 0.329379)">
                    <rect x="0.0311279297" y="0.659423828" width="22.7556152" height="1" rx="0.5"></rect>
                    <rect x="0.0311279297" y="62.0637207" width="22.7556152" height="1" rx="0.5"></rect>
                    <g transform="translate(10.698608, 1.659424)">
                        <g transform="translate(2.184082, 2.484497) rotate(-90.000000) translate(-2.184082, -2.484497) translate(-0.815918, -0.015503)">
                            <path d="M2.88775351,-0.425866237 C2.98755721,-0.684554916 3.15206769,-0.677565105 3.24917468,-0.425866237 L5.40050076,5.1503168 C5.50030446,5.40900548 5.36527212,5.61871408 5.08097484,5.61871408 L1.05595335,5.61871408 C0.779680363,5.61871408 0.639320451,5.40201566 0.736427439,5.1503168 L2.88775351,-0.425866237 Z" transform="translate(3.069450, 2.500722) rotate(90.000000) translate(-3.069450, -2.500722) "></path>
                        </g>
                        <rect x="1.68408203" y="2.48449707" width="1" height="11.0802002" rx="0.5"></rect>
                    </g>
                    <g transform="translate(12.698608, 55.063721) scale(1, -1) translate(-12.698608, -55.063721) translate(10.698608, 48.063721)">
                        <g transform="translate(2.184082, 2.484497) rotate(-90.000000) translate(-2.184082, -2.484497) translate(-0.815918, -0.015503)">
                            <path d="M2.88775351,-0.425866237 C2.98755721,-0.684554916 3.15206769,-0.677565105 3.24917468,-0.425866237 L5.40050076,5.1503168 C5.50030446,5.40900548 5.36527212,5.61871408 5.08097484,5.61871408 L1.05595335,5.61871408 C0.779680363,5.61871408 0.639320451,5.40201566 0.736427439,5.1503168 L2.88775351,-0.425866237 Z" transform="translate(3.069450, 2.500722) rotate(90.000000) translate(-3.069450, -2.500722) "></path>
                        </g>
                        <rect x="1.68408203" y="2.48449707" width="1" height="11.0802002" rx="0.5"></rect>
                    </g>
                </g>
            </g>
            <g transform="translate(47.000000, 119.000000)" fill="#8D9EB0">
                <g transform="translate(94.000000, 0.000000)">
                    <path d="M17.3315725,25.7787693 L22.6569691,25.7787693 L22.6569691,27.6914117 L14.9688966,27.6914117 L14.9688966,14.5654343 L17.3315725,14.5654343 L17.3315725,25.7787693 Z M28.9386868,25.9100291 L31.2451086,25.9100291 L31.2451086,27.6914117 L23.9695668,27.6914117 L23.9695668,25.9100291 L26.6510165,25.9100291 L26.6510165,17.1156242 L24.3820975,18.240708 L23.5195333,16.7030935 L27.194807,14.5654343 L28.9386868,14.5654343 L28.9386868,25.9100291 Z"></path>
                    <path d="M32,0.89646667 C32,0.61796822 32.2319336,0.392200619 32.5,0.392200619 L32.5,0.392200619 C32.7761424,0.392200619 33,0.614754641 33,0.89646667 L33,14.0564805 C33,14.334979 32.7680664,14.5607466 32.5,14.5607466 L32.5,14.5607466 C32.2238576,14.5607466 32,14.3381925 32,14.0564805 L32,0.89646667 Z"></path>
                    <rect x="9.0871582" y="0.469149371" width="1" height="14.1685459" rx="0.5"></rect>
                    <g transform="translate(32.126953, 9.483798)">
                        <g transform="translate(4.000000, 2.500000) scale(-1, 1) translate(-4.000000, -2.500000) translate(1.000000, 0.000000)">
                            <path d="M2.88775351,-0.425866237 C2.98755721,-0.684554916 3.15206769,-0.677565105 3.24917468,-0.425866237 L5.40050076,5.1503168 C5.50030446,5.40900548 5.36527212,5.61871408 5.08097484,5.61871408 L1.05595335,5.61871408 C0.779680363,5.61871408 0.639320451,5.40201566 0.736427439,5.1503168 L2.88775351,-0.425866237 Z" transform="translate(3.069450, 2.500722) rotate(90.000000) translate(-3.069450, -2.500722) "></path>
                        </g>
                        <rect x="6" y="2" width="4" height="1" rx="0.5"></rect>
                    </g>
                    <g transform="translate(0.087158, 9.560747)">
                        <g transform="translate(6.000000, 2.500000) scale(-1, 1) rotate(180.000000) translate(-6.000000, -2.500000) translate(3.000000, 0.000000)">
                            <path d="M2.88775351,-0.425866237 C2.98755721,-0.684554916 3.15206769,-0.677565105 3.24917468,-0.425866237 L5.40050076,5.1503168 C5.50030446,5.40900548 5.36527212,5.61871408 5.08097484,5.61871408 L1.05595335,5.61871408 C0.779680363,5.61871408 0.639320451,5.40201566 0.736427439,5.1503168 L2.88775351,-0.425866237 Z" transform="translate(3.069450, 2.500722) rotate(90.000000) translate(-3.069450, -2.500722) "></path>
                        </g>
                        <path d="M4,2.5 C4,2.77614237 3.78494263,3 3.50952148,3 L0.490478516,3 C0.219594711,3 0,2.76806641 0,2.5 L0,2.5 C0,2.22385763 0.215057373,2 0.490478516,2 L3.50952148,2 C3.78040529,2 4,2.23193359 4,2.5 L4,2.5"></path>
                    </g>
                </g>
            </g>
        </g>
    </g>
</svg>
