<?xml version="1.0" encoding="UTF-8" standalone="no"?>
<svg width="290px" height="175px" viewBox="0 0 290 175" version="1.1" xmlns="http://www.w3.org/2000/svg" xmlns:xlink="http://www.w3.org/1999/xlink" >
    <!-- Generator: Sketch 48.2 (47327) - http://www.bohemiancoding.com/sketch -->
    <title>ChipArray-4side-FlatConcave-Labeled</title>
    <desc>Created with Sketch.</desc>
    <defs>
        <rect id="path-1" x="0.459305962" y="0.414229373" width="89.5778126" height="19.566328" rx="1"></rect>
    </defs>
    <g stroke="none" stroke-width="1" fill="none" fill-rule="evenodd">
        <g>
            <g transform="translate(84.000000, 133.000000)" fill="#8D9EB0">
                <path d="M36.7966549,8.94576407 C39.0843252,8.94576407 40.5844369,10.7834009 40.5844369,13.6711159 L40.5844369,14.6836913 C40.5844369,17.4401466 38.8030543,19.4277946 36.5153839,19.4277946 C35.4465544,19.4277946 34.5839901,19.0340153 33.8901885,18.3214622 L33.7026745,19.1840264 L31.8837891,19.1840264 L31.8837891,5.3079932 L34.2089622,5.3079932 L34.2089622,9.97709087 C34.8465097,9.320792 35.7090739,8.94576407 36.7966549,8.94576407 Z M38.2592638,14.7586969 L38.2592638,13.5961103 C38.2592638,11.6459651 37.6029649,10.7083953 36.32787,10.7083953 C35.427803,10.7083953 34.7152499,11.1396774 34.2089622,11.7772249 L34.2089622,16.8401019 C34.7152499,17.3838924 35.3527974,17.6839147 36.1216046,17.6839147 C37.415451,17.6839147 38.2592638,16.6713393 38.2592638,14.7586969 Z M47.6537133,17.4026438 L49.9601351,17.4026438 L49.9601351,19.1840264 L42.6845933,19.1840264 L42.6845933,17.4026438 L45.366043,17.4026438 L45.366043,8.60823894 L43.097124,9.73332271 L42.2345598,8.19570822 L45.9098335,6.05804905 L47.6537133,6.05804905 L47.6537133,17.4026438 Z"></path>
                <g transform="translate(15.624023, 8.256869) rotate(270.000000) translate(-15.624023, -8.256869) translate(8.124023, -7.243131)">
                    <rect x="0.827392578" y="8.65942383" width="13.7556152" height="1" rx="0.5"></rect>
                    <rect x="0.827392578" y="21.2810059" width="13.7556152" height="1" rx="0.5"></rect>
                    <g transform="translate(1.698608, 22.051758)">
                        <g transform="translate(2.184082, 2.484497) rotate(-90.000000) translate(-2.184082, -2.484497) translate(-0.815918, -0.015503)">
                            <path d="M2.88775351,-0.425866237 C2.98755721,-0.684554916 3.15206769,-0.677565105 3.24917468,-0.425866237 L5.40050076,5.1503168 C5.50030446,5.40900548 5.36527212,5.61871408 5.08097484,5.61871408 L1.05595335,5.61871408 C0.779680363,5.61871408 0.639320451,5.40201566 0.736427439,5.1503168 L2.88775351,-0.425866237 Z" transform="translate(3.069450, 2.500722) rotate(90.000000) translate(-3.069450, -2.500722) "></path>
                        </g>
                        <rect x="1.68408203" y="2.48449707" width="1" height="5" rx="0.5"></rect>
                    </g>
                    <g transform="translate(3.698608, 5.214600) scale(1, -1) translate(-3.698608, -5.214600) translate(0.698608, 0.214600)">
                        <g transform="translate(3.184082, 4.484497) rotate(-90.000000) translate(-3.184082, -4.484497) translate(-0.815918, 1.984497)">
                            <path d="M3.88775351,-0.425866237 C3.98755721,-0.684554916 4.15206769,-0.677565105 4.24917468,-0.425866237 L6.40050076,5.1503168 C6.50030446,5.40900548 6.36527212,5.61871408 6.08097484,5.61871408 L2.05595335,5.61871408 C1.77968036,5.61871408 1.63932045,5.40201566 1.73642744,5.1503168 L3.88775351,-0.425866237 Z" transform="translate(4.069450, 2.500722) rotate(90.000000) translate(-4.069450, -2.500722) "></path>
                        </g>
                        <rect x="2.68408203" y="4.48449707" width="1" height="4.93155171" rx="0.5"></rect>
                    </g>
                </g>
            </g>
            <g transform="translate(35.000000, 5.000000)">
                <g transform="translate(169.617500, 83.000000) rotate(90.000000) translate(-169.617500, -83.000000) translate(124.312500, 71.380000)">
                    <g>
                        <use fill="#585858" fill-rule="evenodd" xlink:href="#path-1"></use>
                        <rect stroke="#505050" stroke-width="1" x="0.959305962" y="0.914229373" width="88.5778126" height="18.566328" rx="1"></rect>
                    </g>
                    <g transform="translate(14.394395, 0.322057)">
                        <g transform="translate(0.291795, 0.119930)">
                            <g transform="translate(0.270651, 0.117362)">
                                <g>
                                    <rect stroke="#979797" fill="#D8D8D8" x="0.513159274" y="0.632292812" width="9.945" height="18.0140865"></rect>
                                    <g transform="translate(1.002383, 0.118680)" stroke="#B1B1B1">
                                        <rect x="8.5071366" y="1.57592714" width="1" height="15.8868746"></rect>
                                        <rect x="0.545399832" y="1.57592714" width="1" height="15.8868746"></rect>
                                    </g>
                                </g>
                            </g>
                        </g>
                        <g transform="translate(15.839159, 0.119930)">
                            <g transform="translate(0.913328, 0.117362)">
                                <g transform="translate(0.000000, 0.000000)">
                                    <rect stroke="#979797" fill="#D8D8D8" x="0.898116979" y="0.632292812" width="9.945" height="18.0140865"></rect>
                                    <g transform="translate(1.002383, 0.118680)" stroke="#B1B1B1">
                                        <rect x="8.93324683" y="1.57592714" width="1" height="15.8868746"></rect>
                                        <rect x="0.927401785" y="1.57592714" width="1" height="15.8868746"></rect>
                                    </g>
                                </g>
                            </g>
                        </g>
                        <g transform="translate(31.386524, 0.119930)">
                            <g transform="translate(0.913328, 0.117362)">
                                <g transform="translate(-0.000000, 0.000000)">
                                    <rect stroke="#979797" fill="#D8D8D8" x="0.820752295" y="0.632292812" width="9.945" height="18.0140865"></rect>
                                    <g transform="translate(1.002383, 0.118680)" stroke="#B1B1B1">
                                        <rect x="8.82075049" y="1.57592714" width="1" height="15.8868746"></rect>
                                        <rect x="0.864679007" y="1.57592714" width="1" height="15.8868746"></rect>
                                    </g>
                                </g>
                            </g>
                        </g>
                        <g transform="translate(48.038889, 0.119930)">
                            <g transform="translate(0.913328, 0.117362)">
                                <g>
                                    <rect stroke="#979797" fill="#D8D8D8" x="0.743387611" y="0.632292812" width="9.945" height="18.0140865"></rect>
                                    <g transform="translate(1.002383, 0.118680)" stroke="#B1B1B1">
                                        <rect x="8.73563635" y="1.57592714" width="1" height="15.8868746"></rect>
                                        <rect x="0.791569876" y="1.57592714" width="1" height="15.8868746"></rect>
                                    </g>
                                </g>
                            </g>
                        </g>
                    </g>
                </g>
                <g transform="translate(64.090000, 83.000000) rotate(90.000000) translate(-64.090000, -83.000000) translate(18.785000, 57.546667)">
                    <path d="M0.459305962,22.2055891 L0.459305962,1.34428545 C0.459305962,0.898526081 0.505718768,0.736882962 0.592872314,0.573919999 C0.680025861,0.410957036 0.807920148,0.283062749 0.970883111,0.195909203 C1.13384607,0.108755657 1.29548919,0.0623428512 1.74124856,0.0623428512 L17.3225592,0.0623428512 C17.3225592,1.86324038 18.7802764,3.32315628 20.5784618,3.32315628 C22.3766471,3.32315628 23.8343643,1.86324038 23.8343643,0.0623428512 L33.8777077,0.0623428512 C33.8777077,1.86324038 35.335425,3.32315628 37.1336103,3.32315628 C38.9317956,3.32315628 40.3895129,1.86324038 40.3895129,0.0623428512 L49.8404875,0.0623428512 C49.8404875,1.86324038 51.2982047,3.32315628 53.09639,3.32315628 C54.8945754,3.32315628 56.3522926,1.86324038 56.3522926,0.0623428512 L65.8032672,0.0623428512 C65.8032672,1.86324038 67.2609844,3.32315628 69.0591698,3.32315628 C70.8573551,3.32315628 72.3150723,1.86324038 72.3150723,0.0623428512 L88.755176,0.0623428512 C89.2009354,0.0623428512 89.3625785,0.108755657 89.5255414,0.195909203 C89.6885044,0.283062749 89.8163987,0.410957036 89.9035522,0.573919999 C89.9907058,0.736882962 90.0371186,0.898526081 90.0371186,1.34428545 L90.0371186,22.2055891 C88.2389333,22.2055891 86.781216,23.665505 86.781216,25.4664025 C86.781216,27.2673001 88.2389333,28.727216 90.0371186,28.727216 L90.0371186,49.5885196 C90.0371186,50.034279 89.9907058,50.1959221 89.9035522,50.3588851 C89.8163987,50.5218481 89.6885044,50.6497423 89.5255414,50.7368959 C89.3625785,50.8240494 89.2009354,50.8704622 88.755176,50.8704622 L72.3150723,50.8704622 C72.3150723,49.0695647 70.8573551,47.6096488 69.0591698,47.6096488 C67.2609844,47.6096488 65.8032672,49.0695647 65.8032672,50.8704622 L56.3522926,50.8704622 C56.3522926,49.0695647 54.8945754,47.6096488 53.09639,47.6096488 C51.2982047,47.6096488 49.8404875,49.0695647 49.8404875,50.8704622 L40.3895129,50.8704622 C40.3895129,49.0695647 38.9317956,47.6096488 37.1336103,47.6096488 C35.335425,47.6096488 33.8777077,49.0695647 33.8777077,50.8704622 L23.8343643,50.8704622 C23.8343643,49.0695647 22.3766471,47.6096488 20.5784618,47.6096488 C18.7802764,47.6096488 17.3225592,49.0695647 17.3225592,50.8704622 L1.74124856,50.8704622 C1.29548919,50.8704622 1.13384607,50.8240494 0.970883111,50.7368959 C0.807920148,50.6497423 0.680025861,50.5218481 0.592872314,50.3588851 C0.505718768,50.1959221 0.459305962,50.034279 0.459305962,49.5885196 L0.459305962,28.727216 C2.25749129,28.727216 3.71520852,27.2673001 3.71520852,25.4664025 C3.71520852,23.665505 2.25749129,22.2055891 0.459305962,22.2055891 Z" stroke="#505050" fill="#585858"></path>
                    <path d="M0.459305962,28.727216 C2.25749129,28.727216 3.71520852,27.2673001 3.71520852,25.4664025 C3.71520852,23.665505 2.25749129,22.2055891 0.459305962,22.2055891 L0.459305962,18.8297508 L12.8721762,18.8297508 L12.8721762,32.1030543 L0.459305962,32.1030543 L0.459305962,28.727216 Z" stroke="#979797" fill="#D8D8D8"></path>
                    <path d="M90.0371186,22.2055891 C88.2389333,22.2055891 86.781216,23.665505 86.781216,25.4664025 C86.781216,27.2673001 88.2389333,28.727216 90.0371186,28.727216 L90.0371186,32.1030543 L77.6242484,32.1030543 L77.6242484,18.8297508 L90.0371186,18.8297508 L90.0371186,22.2055891 Z" stroke="#979797" fill="#D8D8D8"></path>
                    <path d="M17.3225592,0.0623428512 C17.3225592,1.86324038 18.7802764,3.32315628 20.5784618,3.32315628 C22.3766471,3.32315628 23.8343643,1.86324038 23.8343643,0.0623428512 L25.6575281,0.0623428512 L25.6575281,10.9518275 L15.4993955,10.9518275 L15.4993955,0.0623428512 L17.3225592,0.0623428512 Z" stroke="#979797" fill="#D8D8D8"></path>
                    <path d="M23.8343643,50.8704622 C23.8343643,49.0695647 22.3766471,47.6096488 20.5784618,47.6096488 C18.7802764,47.6096488 17.3225592,49.0695647 17.3225592,50.8704622 L15.4993955,50.8704622 L15.4993955,39.9809776 L25.6575281,39.9809776 L25.6575281,50.8704622 L23.8343643,50.8704622 Z" stroke="#979797" fill="#D8D8D8"></path>
                    <path d="M33.8777077,0.0623428512 C33.8777077,1.86324038 35.335425,3.32315628 37.1336103,3.32315628 C38.9317956,3.32315628 40.3895129,1.86324038 40.3895129,0.0623428512 L42.2126766,0.0623428512 L42.2126766,10.9518275 L32.054544,10.9518275 L32.054544,0.0623428512 L33.8777077,0.0623428512 Z" stroke="#979797" fill="#D8D8D8"></path>
                    <path d="M40.3895129,50.8704622 C40.3895129,49.0695647 38.9317956,47.6096488 37.1336103,47.6096488 C35.335425,47.6096488 33.8777077,49.0695647 33.8777077,50.8704622 L32.054544,50.8704622 L32.054544,39.9809776 L42.2126766,39.9809776 L42.2126766,50.8704622 L40.3895129,50.8704622 Z" stroke="#979797" fill="#D8D8D8"></path>
                    <path d="M49.8404875,0.0623428512 C49.8404875,1.86324038 51.2982047,3.32315628 53.09639,3.32315628 C54.8945754,3.32315628 56.3522926,1.86324038 56.3522926,0.0623428512 L58.1754563,0.0623428512 L58.1754563,10.9518275 L48.0173238,10.9518275 L48.0173238,0.0623428512 L49.8404875,0.0623428512 Z" stroke="#979797" fill="#D8D8D8"></path>
                    <path d="M56.3522926,50.8704622 C56.3522926,49.0695647 54.8945754,47.6096488 53.09639,47.6096488 C51.2982047,47.6096488 49.8404875,49.0695647 49.8404875,50.8704622 L48.0173238,50.8704622 L48.0173238,39.9809776 L58.1754563,39.9809776 L58.1754563,50.8704622 L56.3522926,50.8704622 Z" stroke="#979797" fill="#D8D8D8"></path>
                    <path d="M65.8032672,0.0623428512 C65.8032672,1.86324038 67.2609844,3.32315628 69.0591698,3.32315628 C70.8573551,3.32315628 72.3150723,1.86324038 72.3150723,0.0623428512 L74.138236,0.0623428512 L74.138236,10.9518275 L63.9801035,10.9518275 L63.9801035,0.0623428512 L65.8032672,0.0623428512 Z" stroke="#979797" fill="#D8D8D8"></path>
                    <path d="M72.3150723,50.8704622 C72.3150723,49.0695647 70.8573551,47.6096488 69.0591698,47.6096488 C67.2609844,47.6096488 65.8032672,49.0695647 65.8032672,50.8704622 L63.9801035,50.8704622 L63.9801035,39.9809776 L74.138236,39.9809776 L74.138236,50.8704622 L72.3150723,50.8704622 Z" stroke="#979797" fill="#D8D8D8"></path>
                </g>
            </g>
            <g transform="translate(167.000000, 37.000000)" fill="#8D9EB0">
                <path d="M5.89752069,4.52968824 C8.18519103,4.52968824 9.68530273,6.36732507 9.68530273,9.2550401 L9.68530273,10.2676155 C9.68530273,13.0240707 7.90392009,15.0117187 5.61624974,15.0117187 C4.54742016,15.0117187 3.68485593,14.6179394 2.99105427,13.9053864 L2.8035403,14.7679506 L0.984654866,14.7679506 L0.984654866,0.89191736 L3.309828,0.89191736 L3.309828,5.56101503 C3.94737548,4.90471616 4.8099397,4.52968824 5.89752069,4.52968824 Z M7.3601296,10.3426211 L7.3601296,9.18003451 C7.3601296,7.2298893 6.70383073,6.29231949 5.42873578,6.29231949 C4.52866876,6.29231949 3.8161157,6.7236016 3.309828,7.36114907 L3.309828,12.4240261 C3.8161157,12.9678166 4.45366318,13.2678389 5.22247042,13.2678389 C6.51631677,13.2678389 7.3601296,12.2552635 7.3601296,10.3426211 Z"></path>
                <g transform="translate(18.685303, 23.105469) rotate(270.000000) translate(-18.685303, -23.105469) translate(2.185303, 14.105469)">
                    <path d="M16.8937988,3.48873825 C16.8937988,3.21477052 17.1257324,2.99267578 17.3937988,2.99267578 L17.3937988,2.99267578 C17.6699412,2.99267578 17.8937988,3.21903965 17.8937988,3.48873825 L17.8937988,16.9077073 C17.8937988,17.181675 17.6618652,17.4037697 17.3937988,17.4037697 L17.3937988,17.4037697 C17.1176565,17.4037697 16.8937988,17.1774059 16.8937988,16.9077073 L16.8937988,3.48873825 Z"></path>
                    <rect x="9.29382324" y="2.99267578" width="1" height="14.8104248" rx="0.5"></rect>
                    <g transform="translate(17.085449, 0.953524)">
                        <g transform="translate(4.000000, 5.500000) scale(-1, 1) translate(-4.000000, -5.500000) translate(-0.000000, 3.000000)">
                            <path d="M3.88775351,-0.425866237 C3.98755721,-0.684554916 4.15206769,-0.677565105 4.24917468,-0.425866237 L6.40050076,5.1503168 C6.50030446,5.40900548 6.36527212,5.61871408 6.08097484,5.61871408 L2.05595335,5.61871408 C1.77968036,5.61871408 1.63932045,5.40201566 1.73642744,5.1503168 L3.88775351,-0.425866237 Z" transform="translate(4.069450, 2.500722) rotate(90.000000) translate(-4.069450, -2.500722) "></path>
                        </g>
                        <rect x="3.85259834" y="4.88944875" width="10.1974801" height="1" rx="0.5"></rect>
                        <rect transform="translate(13.550078, 3.056807) rotate(90.000000) translate(-13.550078, -3.056807) " x="10.8525983" y="2.55680715" width="5.39496026" height="1" rx="0.5"></rect>
                    </g>
                    <g transform="translate(4.789307, 6.453524) scale(-1, 1) translate(-4.789307, -6.453524) translate(0.789307, 4.953524)">
                        <g transform="translate(2.000000, 1.500000) scale(-1, 1) translate(-2.000000, -1.500000) translate(-1.000000, -1.000000)">
                            <path d="M2.88775351,-0.425866237 C2.98755721,-0.684554916 3.15206769,-0.677565105 3.24917468,-0.425866237 L5.40050076,5.1503168 C5.50030446,5.40900548 5.36527212,5.61871408 5.08097484,5.61871408 L1.05595335,5.61871408 C0.779680363,5.61871408 0.639320451,5.40201566 0.736427439,5.1503168 L2.88775351,-0.425866237 Z" transform="translate(3.069450, 2.500722) rotate(90.000000) translate(-3.069450, -2.500722) "></path>
                        </g>
                        <rect x="1.85259834" y="0.889448752" width="5.39496026" height="1" rx="0.5"></rect>
                    </g>
                </g>
            </g>
            <g transform="translate(38.000000, 33.000000)" fill="#8D9EB0">
                <path d="M3.25647476,20.2570689 L8.5818713,20.2570689 L8.5818713,22.1697113 L0.893798828,22.1697113 L0.893798828,9.04373392 L3.25647476,9.04373392 L3.25647476,20.2570689 Z M14.863589,20.3883287 L17.1700108,20.3883287 L17.1700108,22.1697113 L9.89446904,22.1697113 L9.89446904,20.3883287 L12.5759187,20.3883287 L12.5759187,11.5939238 L10.3069998,12.7190076 L9.44443553,11.1813931 L13.1197092,9.04373392 L14.863589,9.04373392 L14.863589,20.3883287 Z"></path>
                <g transform="translate(38.000000, 16.606723) scale(1, -1) rotate(90.000000) translate(-38.000000, -16.606723) translate(22.000000, -1.393277)">
                    <path d="M21.6481934,21.4990768 C21.6481934,21.2234443 21.880127,21 22.1481934,21 L22.1481934,21 C22.4243357,21 22.6481934,21.2236826 22.6481934,21.4990768 L22.6481934,35.5009232 C22.6481934,35.7765557 22.4162598,36 22.1481934,36 L22.1481934,36 C21.872051,36 21.6481934,35.7763174 21.6481934,35.5009232 L21.6481934,21.4990768 Z"></path>
                    <rect x="9.24365234" y="0.463623047" width="1" height="35.536377" rx="0.5"></rect>
                    <g transform="translate(23.280273, 30.953524)">
                        <g transform="translate(2.000000, 1.500000) scale(-1, 1) translate(-2.000000, -1.500000) translate(-1.000000, -1.000000)">
                            <path d="M2.88775351,-0.425866237 C2.98755721,-0.684554916 3.15206769,-0.677565105 3.24917468,-0.425866237 L5.40050076,5.1503168 C5.50030446,5.40900548 5.36527212,5.61871408 5.08097484,5.61871408 L1.05595335,5.61871408 C0.779680363,5.61871408 0.639320451,5.40201566 0.736427439,5.1503168 L2.88775351,-0.425866237 Z" transform="translate(3.069450, 2.500722) rotate(90.000000) translate(-3.069450, -2.500722) "></path>
                        </g>
                        <rect x="1.85259834" y="0.889448752" width="5.39496026" height="1" rx="0.5"></rect>
                    </g>
                    <g transform="translate(4.288330, 32.453524) scale(-1, 1) translate(-4.288330, -32.453524) translate(0.288330, 30.953524)">
                        <g transform="translate(2.000000, 1.500000) scale(-1, 1) translate(-2.000000, -1.500000) translate(-1.000000, -1.000000)">
                            <path d="M2.88775351,-0.425866237 C2.98755721,-0.684554916 3.15206769,-0.677565105 3.24917468,-0.425866237 L5.40050076,5.1503168 C5.50030446,5.40900548 5.36527212,5.61871408 5.08097484,5.61871408 L1.05595335,5.61871408 C0.779680363,5.61871408 0.639320451,5.40201566 0.736427439,5.1503168 L2.88775351,-0.425866237 Z" transform="translate(3.069450, 2.500722) rotate(90.000000) translate(-3.069450, -2.500722) "></path>
                        </g>
                        <rect x="1.85259834" y="0.889448752" width="5.39496026" height="1" rx="0.5"></rect>
                    </g>
                </g>
            </g>
            <g transform="translate(125.000000, 43.000000)" fill="#8D9EB0">
                <path d="M14.2940697,40.4370113 C17.856835,40.4370113 19.6382177,42.5371677 19.6382177,45.6874023 L19.6382177,48.0125754 C19.6382177,51.4253295 17.6130669,53.5629887 13.8252848,53.5629887 L10,53.5629887 L10,40.4370113 L14.2940697,40.4370113 Z M17.2755418,48.0500782 L17.2755418,45.6311481 C17.2755418,43.4934889 16.2629664,42.2558967 14.1815614,42.2558967 L12.3626759,42.2558967 L12.3626759,51.7441033 L13.8440362,51.7441033 C16.1317066,51.7441033 17.2755418,50.5440139 17.2755418,48.0500782 Z"></path>
                <g transform="translate(9.000000, 45.500000) rotate(90.000000) translate(-9.000000, -45.500000) translate(-36.500000, 36.500000)">
                    <g transform="translate(0.339814, 0.775391)">
                        <g transform="translate(3.026855, 2.500000) scale(-1, 1) translate(-3.026855, -2.500000) translate(0.026855, 0.000000)">
                            <path d="M2.88775351,-0.425866237 C2.98755721,-0.684554916 3.15206769,-0.677565105 3.24917468,-0.425866237 L5.40050076,5.1503168 C5.50030446,5.40900548 5.36527212,5.61871408 5.08097484,5.61871408 L1.05595335,5.61871408 C0.779680363,5.61871408 0.639320451,5.40201566 0.736427439,5.1503168 L2.88775351,-0.425866237 Z" transform="translate(3.069450, 2.500722) rotate(90.000000) translate(-3.069450, -2.500722) "></path>
                        </g>
                        <rect x="2.8794538" y="1.88944875" width="35.2383737" height="1" rx="0.5"></rect>
                    </g>
                    <g transform="translate(72.292969, 3.275391) scale(-1, 1) translate(-72.292969, -3.275391) translate(54.792969, 0.775391)">
                        <g transform="translate(3.026855, 2.500000) scale(-1, 1) translate(-3.026855, -2.500000) translate(0.026855, 0.000000)">
                            <path d="M2.88775351,-0.425866237 C2.98755721,-0.684554916 3.15206769,-0.677565105 3.24917468,-0.425866237 L5.40050076,5.1503168 C5.50030446,5.40900548 5.36527212,5.61871408 5.08097484,5.61871408 L1.05595335,5.61871408 C0.779680363,5.61871408 0.639320451,5.40201566 0.736427439,5.1503168 L2.88775351,-0.425866237 Z" transform="translate(3.069450, 2.500722) rotate(90.000000) translate(-3.069450, -2.500722) "></path>
                        </g>
                        <rect x="2.8794538" y="1.88944875" width="31.8290423" height="1" rx="0.5"></rect>
                    </g>
                    <rect x="0.379257643" y="0.89453125" width="1" height="17" rx="0.5"></rect>
                    <rect x="89.3769531" y="0.89453125" width="1" height="17" rx="0.5"></rect>
                </g>
            </g>
            <g transform="translate(180.000000, 26.000000)" fill="#8D9EB0">
                <path d="M28.6060909,15.0629887 L27.5185099,11.6127318 L22.980672,11.6127318 L21.986848,15.0629887 L19.6054207,15.0629887 L23.6182195,1.93701131 L26.8247083,1.93701131 L31.0437724,15.0629887 L28.6060909,15.0629887 Z M25.2120882,3.58713418 L23.5057111,9.71884076 L26.955968,9.71884076 L25.2120882,3.58713418 Z"></path>
                <g transform="translate(24.736818, 8.500000) rotate(270.000000) translate(-24.736818, -8.500000) translate(16.236818, -16.000000)">
                    <rect x="0.0311279297" y="14.6594238" width="16.5518799" height="1" rx="0.5"></rect>
                    <rect x="0.0311279297" y="33.2810059" width="16.5518799" height="1" rx="0.5"></rect>
                    <g transform="translate(10.698608, 34.888916)">
                        <g transform="translate(2.184082, 2.484497) rotate(-90.000000) translate(-2.184082, -2.484497) translate(-0.815918, -0.015503)">
                            <path d="M2.88775351,-0.425866237 C2.98755721,-0.684554916 3.15206769,-0.677565105 3.24917468,-0.425866237 L5.40050076,5.1503168 C5.50030446,5.40900548 5.36527212,5.61871408 5.08097484,5.61871408 L1.05595335,5.61871408 C0.779680363,5.61871408 0.639320451,5.40201566 0.736427439,5.1503168 L2.88775351,-0.425866237 Z" transform="translate(3.069450, 2.500722) rotate(90.000000) translate(-3.069450, -2.500722) "></path>
                        </g>
                        <rect x="1.68408203" y="2.48449707" width="1" height="11.0802002" rx="0.5"></rect>
                    </g>
                    <g transform="translate(12.698608, 7.214600) scale(1, -1) translate(-12.698608, -7.214600) translate(10.698608, 0.214600)">
                        <g transform="translate(2.184082, 2.484497) rotate(-90.000000) translate(-2.184082, -2.484497) translate(-0.815918, -0.015503)">
                            <path d="M2.88775351,-0.425866237 C2.98755721,-0.684554916 3.15206769,-0.677565105 3.24917468,-0.425866237 L5.40050076,5.1503168 C5.50030446,5.40900548 5.36527212,5.61871408 5.08097484,5.61871408 L1.05595335,5.61871408 C0.779680363,5.61871408 0.639320451,5.40201566 0.736427439,5.1503168 L2.88775351,-0.425866237 Z" transform="translate(3.069450, 2.500722) rotate(90.000000) translate(-3.069450, -2.500722) "></path>
                        </g>
                        <rect x="1.68408203" y="2.48449707" width="1" height="11.0802002" rx="0.5"></rect>
                    </g>
                </g>
            </g>
            <g transform="translate(82.883789, 133.606723)"></g>
            <g transform="translate(73.000000, 22.000000)" fill="#8D9EB0">
                <g>
                    <polygon points="29.8346605 2.65966648 24.5280154 2.65966648 24.5280154 6.39119434 29.4221298 6.39119434 29.4221298 8.21007977 24.5280154 8.21007977 24.5280154 12.1291216 29.8346605 12.1291216 29.8346605 13.9667584 22.1653395 13.9667584 22.1653395 0.840781042 29.8346605 0.840781042"></polygon>
                    <g transform="translate(26.000000, 11.500000) rotate(270.000000) translate(-26.000000, -11.500000) translate(17.500000, -14.500000)">
                        <rect x="0.0311279297" y="0.180908203" width="16.5518799" height="1" rx="0.5"></rect>
                        <rect x="0.0311279297" y="50.2810059" width="16.5518799" height="1" rx="0.5"></rect>
                        <g transform="translate(9.422241, 0.495361)">
                            <g transform="translate(3.184082, 3.484497) rotate(-90.000000) translate(-3.184082, -3.484497) translate(0.184082, 0.984497)">
                                <path d="M2.88775351,-0.425866237 C2.98755721,-0.684554916 3.15206769,-0.677565105 3.24917468,-0.425866237 L5.40050076,5.1503168 C5.50030446,5.40900548 5.36527212,5.61871408 5.08097484,5.61871408 L1.05595335,5.61871408 C0.779680363,5.61871408 0.639320451,5.40201566 0.736427439,5.1503168 L2.88775351,-0.425866237 Z" transform="translate(3.069450, 2.500722) rotate(90.000000) translate(-3.069450, -2.500722) "></path>
                            </g>
                            <rect x="2.68408203" y="3.48449707" width="1" height="11.535001" rx="0.5"></rect>
                        </g>
                        <g transform="translate(12.422241, 41.630615) scale(1, -1) translate(-12.422241, -41.630615) translate(10.422241, 34.130615)">
                            <g transform="translate(2.184082, 2.484497) rotate(-90.000000) translate(-2.184082, -2.484497) translate(-0.815918, -0.015503)">
                                <path d="M2.88775351,-0.425866237 C2.98755721,-0.684554916 3.15206769,-0.677565105 3.24917468,-0.425866237 L5.40050076,5.1503168 C5.50030446,5.40900548 5.36527212,5.61871408 5.08097484,5.61871408 L1.05595335,5.61871408 C0.779680363,5.61871408 0.639320451,5.40201566 0.736427439,5.1503168 L2.88775351,-0.425866237 Z" transform="translate(3.069450, 2.500722) rotate(90.000000) translate(-3.069450, -2.500722) "></path>
                            </g>
                            <rect x="1.68408203" y="2.48449707" width="1" height="12" rx="0.5"></rect>
                        </g>
                    </g>
                </g>
            </g>
            <g transform="translate(55.000000, 118.000000)" fill="#8D9EB0">
                <polygon points="2.36267593 27.213335 7.68807247 27.213335 7.68807247 29.1259774 0 29.1259774 0 16 2.36267593 16"></polygon>
                <g transform="translate(19.500000, 21.000000) scale(-1, 1) rotate(270.000000) translate(-19.500000, -21.000000) translate(-1.000000, 3.000000)">
                    <g transform="translate(6.179443, 28.371493) scale(1, -1) translate(-6.179443, -28.371493) translate(2.179443, 20.871493)">
                        <g transform="translate(2.184082, 13.000000) rotate(90.000000) translate(-2.184082, -13.000000) translate(-0.815918, 10.500000)">
                            <path d="M2.88775351,-0.425866237 C2.98755721,-0.684554916 3.15206769,-0.677565105 3.24917468,-0.425866237 L5.40050076,5.1503168 C5.50030446,5.40900548 5.36527212,5.61871408 5.08097484,5.61871408 L1.05595335,5.61871408 C0.779680363,5.61871408 0.639320451,5.40201566 0.736427439,5.1503168 L2.88775351,-0.425866237 Z" transform="translate(3.069450, 2.500722) rotate(90.000000) translate(-3.069450, -2.500722) "></path>
                        </g>
                        <rect x="1.68408203" y="0" width="1" height="12.0095215" rx="0.5"></rect>
                        <rect x="1.68408203" y="0" width="6" height="1" rx="0.5"></rect>
                    </g>
                    <rect x="0.278320312" y="8.18704488" width="40.2885742" height="1" rx="0.5"></rect>
                    <g transform="translate(4.582397, 5.658480) scale(1, -1) translate(-4.582397, -5.658480) translate(1.582397, 0.658480)">
                        <g transform="translate(3.184082, 4.484497) rotate(-90.000000) translate(-3.184082, -4.484497) translate(-0.815918, 1.984497)">
                            <path d="M3.88775351,-0.425866237 C3.98755721,-0.684554916 4.15206769,-0.677565105 4.24917468,-0.425866237 L6.40050076,5.1503168 C6.50030446,5.40900548 6.36527212,5.61871408 6.08097484,5.61871408 L2.05595335,5.61871408 C1.77968036,5.61871408 1.63932045,5.40201566 1.73642744,5.1503168 L3.88775351,-0.425866237 Z" transform="translate(4.069450, 2.500722) rotate(90.000000) translate(-4.069450, -2.500722) "></path>
                        </g>
                        <rect x="2.68408203" y="4.48449707" width="1" height="4.93155171" rx="0.5"></rect>
                    </g>
                    <rect x="0.278320312" y="18.2568691" width="25.1884766" height="1" rx="0.5"></rect>
                </g>
            </g>
            <g transform="translate(178.000000, 84.000000)" fill="#8D9EB0">
                <g transform="translate(9.185303, 18.500000) rotate(270.000000) translate(-9.185303, -18.500000) translate(-8.814697, 11.000000)">
                    <path d="M25.2678223,0.499076843 C25.2678223,0.223444314 25.4997559,0 25.7678223,0 L25.7678223,0 C26.0439646,0 26.2678223,0.223682597 26.2678223,0.499076843 L26.2678223,14.5009232 C26.2678223,14.7765557 26.0358887,15 25.7678223,15 L25.7678223,15 C25.4916799,15 25.2678223,14.7763174 25.2678223,14.5009232 L25.2678223,0.499076843 Z"></path>
                    <rect x="9.17077637" y="0" width="1" height="15" rx="0.5"></rect>
                    <g transform="translate(27.459473, 1.953524)">
                        <g transform="translate(2.000000, 1.500000) scale(-1, 1) translate(-2.000000, -1.500000) translate(-1.000000, -1.000000)">
                            <path d="M2.88775351,-0.425866237 C2.98755721,-0.684554916 3.15206769,-0.677565105 3.24917468,-0.425866237 L5.40050076,5.1503168 C5.50030446,5.40900548 5.36527212,5.61871408 5.08097484,5.61871408 L1.05595335,5.61871408 C0.779680363,5.61871408 0.639320451,5.40201566 0.736427439,5.1503168 L2.88775351,-0.425866237 Z" transform="translate(3.069450, 2.500722) rotate(90.000000) translate(-3.069450, -2.500722) "></path>
                        </g>
                        <rect x="1.85259834" y="0.889448752" width="5.39496026" height="1" rx="0.5"></rect>
                    </g>
                    <g transform="translate(4.666260, 3.453524) scale(-1, 1) translate(-4.666260, -3.453524) translate(0.666260, 1.953524)">
                        <g transform="translate(2.000000, 1.500000) scale(-1, 1) translate(-2.000000, -1.500000) translate(-1.000000, -1.000000)">
                            <path d="M2.88775351,-0.425866237 C2.98755721,-0.684554916 3.15206769,-0.677565105 3.24917468,-0.425866237 L5.40050076,5.1503168 C5.50030446,5.40900548 5.36527212,5.61871408 5.08097484,5.61871408 L1.05595335,5.61871408 C0.779680363,5.61871408 0.639320451,5.40201566 0.736427439,5.1503168 L2.88775351,-0.425866237 Z" transform="translate(3.069450, 2.500722) rotate(90.000000) translate(-3.069450, -2.500722) "></path>
                        </g>
                        <rect x="1.85259834" y="0.889448752" width="5.39496026" height="1" rx="0.5"></rect>
                    </g>
                </g>
                <path d="M9.55955697,18.3745811 C9.55955697,18.7871118 9.52205418,19.1996426 9.48455138,19.4996649 L3.05282246,19.4996649 C3.09032526,21.4123073 3.97164088,22.2561201 5.69676934,22.2561201 C6.78435032,22.2561201 7.59066036,21.8623408 8.35946761,21.4310587 L9.18452904,22.818662 C8.34071621,23.4562095 6.99061568,24 5.54675817,24 C2.50903197,24 0.783903515,21.9936006 0.783903515,19.2933995 L0.783903515,18.2620727 C0.783903515,15.5618717 2.47152918,13.5179695 5.24673583,13.5179695 C7.96568829,13.5179695 9.55955697,15.2055952 9.55955697,18.3745811 Z M7.47815198,17.9808018 L7.47815198,17.8870448 C7.47815198,16.1619164 6.70934474,15.2243465 5.26548722,15.2243465 C3.84038111,15.2243465 3.09032526,16.1619164 3.05282246,17.9808018 L7.47815198,17.9808018 Z"></path>
            </g>
        </g>
    </g>
</svg>
