<?xml version="1.0" encoding="UTF-8"?>
<svg width="200px" height="150px" viewBox="0 0 200 150" version="1.1" xmlns="http://www.w3.org/2000/svg" xmlns:xlink="http://www.w3.org/1999/xlink">
    <!-- Generator: Sketch 53.2 (72643) - https://sketchapp.com -->
    <title>ChipArray-2side-Convex</title>
    <desc>Created with Sketch.</desc>
    <g id="ChipArray-2side-Convex" stroke="none" stroke-width="1" fill="none" fill-rule="evenodd">
        <g id="Group-12" transform="translate(39.500000, 25.000000)">
            <g id="Group-6" transform="translate(105.500000, 50.500000) rotate(90.000000) translate(-105.500000, -50.500000) translate(55.000000, 40.500000)" stroke="#979797">
                <path d="M2.0319426,0.544567585 C1.70101664,0.544567585 1.60024036,0.564028382 1.49737658,0.619040536 C1.42154785,0.659594182 1.3650266,0.716115436 1.32447295,0.791944162 C1.2694608,0.894807946 1.25,0.995584226 1.25,1.32651018 L1.25,18.1357493 C1.25,18.4666753 1.2694608,18.5674515 1.32447295,18.6703153 C1.3650266,18.7461441 1.42154785,18.8026653 1.49737658,18.843219 C1.60024036,18.8982311 1.70101664,18.9176919 2.0319426,18.9176919 L99.4680574,18.9176919 C99.7989834,18.9176919 99.8997596,18.8982311 100.002623,18.843219 C100.078452,18.8026653 100.134973,18.7461441 100.175527,18.6703153 C100.230539,18.5674515 100.25,18.4666753 100.25,18.1357493 L100.25,1.32651018 C100.25,0.995584226 100.230539,0.894807946 100.175527,0.791944162 C100.134973,0.716115436 100.078452,0.659594182 100.002623,0.619040536 C99.8997596,0.564028382 99.7989834,0.544567585 99.4680574,0.544567585 L2.0319426,0.544567585 Z" id="Rectangle-4" fill="#D8D8D8"></path>
                <g id="Group" transform="translate(18.000000, 0.000000)" fill="#585858">
                    <rect id="Rectangle" x="0.722167969" y="1" width="9.60411314" height="17.8362101"></rect>
                    <rect id="Rectangle-Copy" x="19.8147786" y="0.813024684" width="9.60411314" height="17.8362101"></rect>
                    <polygon id="Rectangle-Copy-2" points="38.9073893 0.813024684 48.5115025 0.813024684 48.5115025 18.6492348 38.9073893 18.6492348"></polygon>
                    <polygon id="Rectangle-Copy-3" points="58 0.813024684 67.6041131 0.813024684 67.6041131 18.6492348 58 18.6492348"></polygon>
                </g>
            </g>
            <g id="Group-5" transform="translate(20.500000, 50.500000) rotate(90.000000) translate(-20.500000, -50.500000) translate(-30.000000, 30.500000)">
                <g id="Group-2">
                    <g id="Group-4">
                        <g id="Group-3" fill="#D8D8D8" stroke="#979797">
                            <g id="Group-11" transform="translate(83.500000, 1.000000)">
                                <path d="M0.5,0.5 L0.5,9.30903829 L16.3154942,9.30903829 L16.3154942,0.5 L0.5,0.5 Z" id="Rectangle-2-Copy"></path>
                                <path d="M0.5,29.5 L0.5,38.3090383 L16.3154942,38.3090383 L16.3154942,29.5 L0.5,29.5 Z" id="Rectangle-2-Copy"></path>
                            </g>
                            <g id="Group-10">
                                <path d="M0.989708092,1.20064559 L0.989708092,10.0096839 L16.8052023,10.0096839 L16.8052023,1.20064559 L0.989708092,1.20064559 Z" id="Rectangle-2"></path>
                                <path d="M0.989708092,30.1966992 L0.989708092,39.0057375 L16.8052023,39.0057375 L16.8052023,30.1966992 L0.989708092,30.1966992 Z" id="Rectangle-2"></path>
                            </g>
                            <g id="Group-9" transform="translate(64.500000, 0.000000)">
                                <path d="M1.08891839,1.20064559 L1.08891839,10.0096839 L9.80404691,10.0096839 L9.80404691,1.20064559 L1.08891839,1.20064559 Z" id="Rectangle-2-Copy-3"></path>
                                <path d="M1.08891839,30.1966992 L1.08891839,39.0057375 L9.80404691,39.0057375 L9.80404691,30.1966992 L1.08891839,30.1966992 Z" id="Rectangle-2-Copy-3"></path>
                            </g>
                            <g id="Group-8" transform="translate(26.500000, 0.000000)">
                                <path d="M0.937910358,1.20064559 L0.937910358,10.0096839 L9.65303888,10.0096839 L9.65303888,1.20064559 L0.937910358,1.20064559 Z" id="Rectangle-2-Copy-2"></path>
                                <path d="M0.937910358,30.1966992 L0.937910358,39.0057375 L9.65303888,39.0057375 L9.65303888,30.1966992 L0.937910358,30.1966992 Z" id="Rectangle-2-Copy-2"></path>
                            </g>
                            <g id="Group-7" transform="translate(45.500000, 0.000000)">
                                <path d="M0.937910358,1.20064559 L0.937910358,10.0096839 L9.65303888,10.0096839 L9.65303888,1.20064559 L0.937910358,1.20064559 Z" id="Rectangle-2-Copy-5"></path>
                                <path d="M0.937910358,30.1966992 L0.937910358,39.0057375 L9.65303888,39.0057375 L9.65303888,30.1966992 L0.937910358,30.1966992 Z" id="Rectangle-2-Copy-4"></path>
                            </g>
                        </g>
                        <g id="Group-3-Copy" transform="translate(83.000000, 28.996054)"></g>
                    </g>
                </g>
                <path d="M0.999766148,9.5 L0.989942054,30.5 L99.8154942,30.5 L99.8154942,9.5 L0.999766148,9.5 Z" id="Rectangle-5" stroke="#505050" fill="#585858"></path>
            </g>
        </g>
    </g>
</svg>