<?xml version="1.0" encoding="UTF-8" standalone="no"?>
<svg width="200px" height="150px" viewBox="0 0 200 150" version="1.1" xmlns="http://www.w3.org/2000/svg" xmlns:xlink="http://www.w3.org/1999/xlink">
    <!-- Generator: Sketch 48.2 (47327) - http://www.bohemiancoding.com/sketch -->
    <title>ChipArray-4side-FlatConcave</title>
    <desc>Created with Sketch.</desc>
    <defs>
        <rect id="path-1" x="0.415661504" y="0.37430365" width="81.0658938" height="17.6804168" rx="1"></rect>
    </defs>
    <g stroke="none" stroke-width="1" fill="none" fill-rule="evenodd">
        <g>
            <g transform="translate(153.500000, 75.000000) rotate(90.000000) translate(-153.500000, -75.000000) translate(112.500000, 64.500000)">
                <g>
                    <use fill="#585858" fill-rule="evenodd" xlink:href="#path-1"></use>
                    <rect stroke="#505050" stroke-width="1" x="0.915661504" y="0.87430365" width="80.0658938" height="16.6804168" rx="1"></rect>
                </g>
                <g transform="translate(13.026602, 0.291016)">
                    <g transform="translate(0.264067, 0.108370)">
                        <g transform="translate(0.244933, 0.106050)">
                            <g>
                                <rect stroke="#979797" fill="#D8D8D8" x="0.464397533" y="0.571348926" width="9" height="16.277789"></rect>
                                <g transform="translate(0.907134, 0.107241)" stroke="#B1B1B1">
                                    <rect x="7.74627746" y="1.47222332" width="1" height="14.259224"></rect>
                                    <rect x="0.541085821" y="1.47222332" width="1" height="14.259224"></rect>
                                </g>
                            </g>
                        </g>
                    </g>
                    <g transform="translate(14.334081, 0.108370)">
                        <g transform="translate(0.826541, 0.106050)">
                            <g transform="translate(0.000000, 0.000000)">
                                <rect stroke="#979797" fill="#D8D8D8" x="0.812775546" y="0.571348926" width="9" height="16.277789"></rect>
                                <g transform="translate(0.907134, 0.107241)" stroke="#B1B1B1">
                                    <rect x="8.13189758" y="1.47222332" width="1" height="14.259224"></rect>
                                    <rect x="0.886788946" y="1.47222332" width="1" height="14.259224"></rect>
                                </g>
                            </g>
                        </g>
                    </g>
                    <g transform="translate(28.404094, 0.108370)">
                        <g transform="translate(0.826541, 0.106050)">
                            <g transform="translate(-0.000000, 0.000000)">
                                <rect stroke="#979797" fill="#D8D8D8" x="0.742762258" y="0.571348926" width="9" height="16.277789"></rect>
                                <g transform="translate(0.907134, 0.107241)" stroke="#B1B1B1">
                                    <rect x="8.03009094" y="1.47222332" width="1" height="14.259224"></rect>
                                    <rect x="0.830026251" y="1.47222332" width="1" height="14.259224"></rect>
                                </g>
                            </g>
                        </g>
                    </g>
                    <g transform="translate(43.474107, 0.108370)">
                        <g transform="translate(0.826541, 0.106050)">
                            <g>
                                <rect stroke="#979797" fill="#D8D8D8" x="0.67274897" y="0.571348926" width="9" height="16.277789"></rect>
                                <g transform="translate(0.907134, 0.107241)" stroke="#B1B1B1">
                                    <rect x="7.95306457" y="1.47222332" width="1" height="14.259224"></rect>
                                    <rect x="0.763864141" y="1.47222332" width="1" height="14.259224"></rect>
                                </g>
                            </g>
                        </g>
                    </g>
                </g>
            </g>
            <g transform="translate(58.000000, 75.000000) rotate(90.000000) translate(-58.000000, -75.000000) translate(17.000000, 52.000000)">
                <path d="M0.415661504,20.0652914 L0.415661504,1.3382765 C0.415661504,0.892517132 0.46207431,0.730874013 0.549227856,0.56791105 C0.636381403,0.404948087 0.76427569,0.2770538 0.927238653,0.189900254 C1.09020162,0.102746707 1.25184473,0.0563339017 1.6976041,0.0563339017 L15.6765242,0.0563339017 C15.6765242,1.68365094 16.9957253,3.00285206 18.6230423,3.00285206 C20.2503594,3.00285206 21.5695605,1.68365094 21.5695605,0.0563339017 L30.658559,0.0563339017 C30.658559,1.68365094 31.9777601,3.00285206 33.6050772,3.00285206 C35.2323942,3.00285206 36.5515953,1.68365094 36.5515953,0.0563339017 L45.1045135,0.0563339017 C45.1045135,1.68365094 46.4237147,3.00285206 48.0510317,3.00285206 C49.6783487,3.00285206 50.9975499,1.68365094 50.9975499,0.0563339017 L59.5504681,0.0563339017 C59.5504681,1.68365094 60.8696692,3.00285206 62.4969862,3.00285206 C64.1243033,3.00285206 65.4435044,1.68365094 65.4435044,0.0563339017 L80.1996127,0.0563339017 C80.6453721,0.0563339017 80.8070152,0.102746707 80.9699781,0.189900254 C81.1329411,0.2770538 81.2608354,0.404948087 81.3479889,0.56791105 C81.4351425,0.730874013 81.4815553,0.892517132 81.4815553,1.3382765 L81.4815553,20.0652914 C79.8542383,20.0652914 78.5350371,21.3844925 78.5350371,23.0118095 C78.5350371,24.6391266 79.8542383,25.9583277 81.4815553,25.9583277 L81.4815553,44.6853426 C81.4815553,45.1311019 81.4351425,45.292745 81.3479889,45.455708 C81.2608354,45.618671 81.1329411,45.7465653 80.9699781,45.8337188 C80.8070152,45.9208724 80.6453721,45.9672852 80.1996127,45.9672852 L65.4435044,45.9672852 C65.4435044,44.3399681 64.1243033,43.020767 62.4969862,43.020767 C60.8696692,43.020767 59.5504681,44.3399681 59.5504681,45.9672852 L50.9975499,45.9672852 C50.9975499,44.3399681 49.6783487,43.020767 48.0510317,43.020767 C46.4237147,43.020767 45.1045135,44.3399681 45.1045135,45.9672852 L36.5515953,45.9672852 C36.5515953,44.3399681 35.2323942,43.020767 33.6050772,43.020767 C31.9777601,43.020767 30.658559,44.3399681 30.658559,45.9672852 L21.5695605,45.9672852 C21.5695605,44.3399681 20.2503594,43.020767 18.6230423,43.020767 C16.9957253,43.020767 15.6765242,44.3399681 15.6765242,45.9672852 L1.6976041,45.9672852 C1.25184473,45.9672852 1.09020162,45.9208724 0.927238653,45.8337188 C0.76427569,45.7465653 0.636381403,45.618671 0.549227856,45.455708 C0.46207431,45.292745 0.415661504,45.1311019 0.415661504,44.6853426 L0.415661504,25.9583277 C2.04297855,25.9583277 3.36217966,24.6391266 3.36217966,23.0118095 C3.36217966,21.3844925 2.04297855,20.0652914 0.415661504,20.0652914 Z" stroke="#505050" fill="#585858"></path>
                <path d="M0.415661504,25.9583277 C2.04297855,25.9583277 3.36217966,24.6391266 3.36217966,23.0118095 C3.36217966,21.3844925 2.04297855,20.0652914 0.415661504,20.0652914 L0.415661504,17.0148351 L11.6490282,17.0148351 L11.6490282,29.008784 L0.415661504,29.008784 L0.415661504,25.9583277 Z" stroke="#979797" fill="#D8D8D8"></path>
                <path d="M81.4815553,20.0652914 C79.8542383,20.0652914 78.5350371,21.3844925 78.5350371,23.0118095 C78.5350371,24.6391266 79.8542383,25.9583277 81.4815553,25.9583277 L81.4815553,29.008784 L70.2481886,29.008784 L70.2481886,17.0148351 L81.4815553,17.0148351 L81.4815553,20.0652914 Z" stroke="#979797" fill="#D8D8D8"></path>
                <path d="M15.6765242,0.0563339017 C15.6765242,1.68365094 16.9957253,3.00285206 18.6230423,3.00285206 C20.2503594,3.00285206 21.5695605,1.68365094 21.5695605,0.0563339017 L23.2194824,0.0563339017 L23.2194824,9.89622968 L14.0266023,9.89622968 L14.0266023,0.0563339017 L15.6765242,0.0563339017 Z" stroke="#979797" fill="#D8D8D8"></path>
                <path d="M21.5695605,45.9672852 C21.5695605,44.3399681 20.2503594,43.020767 18.6230423,43.020767 C16.9957253,43.020767 15.6765242,44.3399681 15.6765242,45.9672852 L14.0266023,45.9672852 L14.0266023,36.1273894 L23.2194824,36.1273894 L23.2194824,45.9672852 L21.5695605,45.9672852 Z" stroke="#979797" fill="#D8D8D8"></path>
                <path d="M30.658559,0.0563339017 C30.658559,1.68365094 31.9777601,3.00285206 33.6050772,3.00285206 C35.2323942,3.00285206 36.5515953,1.68365094 36.5515953,0.0563339017 L38.2015173,0.0563339017 L38.2015173,9.89622968 L29.0086371,9.89622968 L29.0086371,0.0563339017 L30.658559,0.0563339017 Z" stroke="#979797" fill="#D8D8D8"></path>
                <path d="M36.5515953,45.9672852 C36.5515953,44.3399681 35.2323942,43.020767 33.6050772,43.020767 C31.9777601,43.020767 30.658559,44.3399681 30.658559,45.9672852 L29.0086371,45.9672852 L29.0086371,36.1273894 L38.2015173,36.1273894 L38.2015173,45.9672852 L36.5515953,45.9672852 Z" stroke="#979797" fill="#D8D8D8"></path>
                <path d="M45.1045135,0.0563339017 C45.1045135,1.68365094 46.4237147,3.00285206 48.0510317,3.00285206 C49.6783487,3.00285206 50.9975499,1.68365094 50.9975499,0.0563339017 L52.6474718,0.0563339017 L52.6474718,9.89622968 L43.4545916,9.89622968 L43.4545916,0.0563339017 L45.1045135,0.0563339017 Z" stroke="#979797" fill="#D8D8D8"></path>
                <path d="M50.9975499,45.9672852 C50.9975499,44.3399681 49.6783487,43.020767 48.0510317,43.020767 C46.4237147,43.020767 45.1045135,44.3399681 45.1045135,45.9672852 L43.4545916,45.9672852 L43.4545916,36.1273894 L52.6474718,36.1273894 L52.6474718,45.9672852 L50.9975499,45.9672852 Z" stroke="#979797" fill="#D8D8D8"></path>
                <path d="M59.5504681,0.0563339017 C59.5504681,1.68365094 60.8696692,3.00285206 62.4969862,3.00285206 C64.1243033,3.00285206 65.4435044,1.68365094 65.4435044,0.0563339017 L67.0934263,0.0563339017 L67.0934263,9.89622968 L57.9005461,9.89622968 L57.9005461,0.0563339017 L59.5504681,0.0563339017 Z" stroke="#979797" fill="#D8D8D8"></path>
                <path d="M65.4435044,45.9672852 C65.4435044,44.3399681 64.1243033,43.020767 62.4969862,43.020767 C60.8696692,43.020767 59.5504681,44.3399681 59.5504681,45.9672852 L57.9005461,45.9672852 L57.9005461,36.1273894 L67.0934263,36.1273894 L67.0934263,45.9672852 L65.4435044,45.9672852 Z" stroke="#979797" fill="#D8D8D8"></path>
            </g>
        </g>
    </g>
</svg>