<?xml version="1.0" encoding="UTF-8" standalone="no"?>
<svg width="200px" height="150px" viewBox="0 0 200 150" version="1.1" xmlns="http://www.w3.org/2000/svg" xmlns:xlink="http://www.w3.org/1999/xlink">
    <!-- Generator: Sketch 48.2 (47327) - http://www.bohemiancoding.com/sketch -->
    <title>CQFP</title>
    <desc>Created with Sketch.</desc>
    <defs>
        <polyline id="path-1" points="8 22 1.77635684e-15 22 1.77635684e-15 0 8 0 8 22"></polyline>
        <polyline id="path-2" points="8 22 1.77635684e-15 22 1.77635684e-15 0 8 0 8 22"></polyline>
        <polyline id="path-3" points="8 22 1.77635684e-15 22 1.77635684e-15 0 8 0 8 22"></polyline>
        <polyline id="path-4" points="8 22 1.77635684e-15 22 1.77635684e-15 0 8 0 8 22"></polyline>
        <polyline id="path-5" points="8 22 1.77635684e-15 22 1.77635684e-15 0 8 0 8 22"></polyline>
        <polyline id="path-6" points="8 22 1.77635684e-15 22 1.77635684e-15 0 8 0 8 22"></polyline>
        <polyline id="path-7" points="8 22 1.77635684e-15 22 1.77635684e-15 0 8 0 8 22"></polyline>
        <polyline id="path-8" points="8 22 1.77635684e-15 22 1.77635684e-15 0 8 0 8 22"></polyline>
        <polyline id="path-9" points="8 22 1.77635684e-15 22 1.77635684e-15 0 8 0 8 22"></polyline>
        <polyline id="path-10" points="8 22 1.77635684e-15 22 1.77635684e-15 0 8 0 8 22"></polyline>
        <polyline id="path-11" points="8 22 1.77635684e-15 22 1.77635684e-15 0 8 0 8 22"></polyline>
        <polyline id="path-12" points="72 22 64 22 64 -7.10542736e-15 72 -7.10542736e-15 72 22"></polyline>
        <polyline id="path-13" points="8 22 1.77635684e-15 22 1.77635684e-15 -7.10542736e-15 8 -7.10542736e-15 8 22"></polyline>
        <polyline id="path-14" points="8 22 1.77635684e-15 22 1.77635684e-15 -1.42108547e-14 8 -1.42108547e-14 8 22"></polyline>
        <polyline id="path-15" points="8 22 1.77635684e-15 22 1.77635684e-15 -1.42108547e-14 8 -1.42108547e-14 8 22"></polyline>
        <polyline id="path-16" points="8 22 1.77635684e-15 22 1.77635684e-15 -2.27373675e-13 8 -2.27373675e-13 8 22"></polyline>
        <polyline id="path-17" points="8 22 -5.32907052e-15 22 -5.32907052e-15 -7.10542736e-15 8 -7.10542736e-15 8 22"></polyline>
        <polyline id="path-18" points="8 22 -1.59872116e-14 22 -1.59872116e-14 -1.42108547e-14 8 -1.42108547e-14 8 22"></polyline>
        <polyline id="path-19" points="8 22 1.77635684e-15 22 1.77635684e-15 -1.42108547e-14 8 -1.42108547e-14 8 22"></polyline>
        <polyline id="path-20" points="8 22 1.77635684e-15 22 1.77635684e-15 0 8 0 8 22"></polyline>
        <rect id="path-21" x="21.9072266" y="21" width="85" height="62" rx="1"></rect>
        <path d="M1.95312189,21.0033569 C1.13008989,21.0033569 0.462890625,21.6785153 0.462890625,22.5052292 L0.462890625,81.5014846 C0.462890625,82.3309458 1.13037041,83.0033569 1.95312189,83.0033569 L25.9751008,83.0033569 C26.7981328,83.0033569 27.465332,82.3281986 27.465332,81.5014846 L27.465332,22.5052292 C27.465332,21.6757681 26.7978522,21.0033569 25.9751008,21.0033569 L1.95312189,21.0033569 Z" id="path-22"></path>
        <polyline id="path-23" points="8 18 0 18 0 0 8 0 8 18"></polyline>
        <polyline id="path-24" points="8 18 0 18 0 0 8 0 8 18"></polyline>
        <polyline id="path-25" points="8 18 0 18 0 0 8 0 8 18"></polyline>
        <polyline id="path-26" points="8 18 8.8817842e-15 18 8.8817842e-15 -7.10542736e-15 8 -7.10542736e-15 8 18"></polyline>
    </defs>
    <g stroke="none" stroke-width="1" fill="none" fill-rule="evenodd">
        <g>
            <g transform="translate(4.000000, 23.000000)">
                <g transform="translate(53.907227, 82.000000)">
                    <g>
                        <use fill="#D8D8D8" fill-rule="evenodd" xlink:href="#path-1"></use>
                        <path stroke="#979797" stroke-width="1" d="M7.5,21.5 L7.5,0.5 L0.5,0.5 L0.5,21.5 L7.5,21.5 Z"></path>
                    </g>
                    <rect fill="#979797" transform="translate(4.000000, 14.500000) rotate(180.000000) translate(-4.000000, -14.500000) " x="1.687539e-14" y="14" width="8" height="1"></rect>
                </g>
                <g transform="translate(66.907227, 82.000000)">
                    <g>
                        <use fill="#D8D8D8" fill-rule="evenodd" xlink:href="#path-2"></use>
                        <path stroke="#979797" stroke-width="1" d="M7.5,21.5 L7.5,0.5 L0.5,0.5 L0.5,21.5 L7.5,21.5 Z"></path>
                    </g>
                    <rect fill="#979797" transform="translate(4.000000, 14.500000) rotate(180.000000) translate(-4.000000, -14.500000) " x="1.687539e-14" y="14" width="8" height="1"></rect>
                </g>
                <g transform="translate(79.907227, 82.000000)">
                    <g>
                        <use fill="#D8D8D8" fill-rule="evenodd" xlink:href="#path-3"></use>
                        <path stroke="#979797" stroke-width="1" d="M7.5,21.5 L7.5,0.5 L0.5,0.5 L0.5,21.5 L7.5,21.5 Z"></path>
                    </g>
                    <rect fill="#979797" transform="translate(4.000000, 14.500000) rotate(180.000000) translate(-4.000000, -14.500000) " x="1.687539e-14" y="14" width="8" height="1"></rect>
                </g>
                <g transform="translate(92.907227, 82.000000)">
                    <g>
                        <use fill="#D8D8D8" fill-rule="evenodd" xlink:href="#path-4"></use>
                        <path stroke="#979797" stroke-width="1" d="M7.5,21.5 L7.5,0.5 L0.5,0.5 L0.5,21.5 L7.5,21.5 Z"></path>
                    </g>
                    <rect fill="#979797" transform="translate(4.000000, 14.500000) rotate(180.000000) translate(-4.000000, -14.500000) " x="1.687539e-14" y="14" width="8" height="1"></rect>
                </g>
                <g transform="translate(40.907227, 82.000000)">
                    <g>
                        <use fill="#D8D8D8" fill-rule="evenodd" xlink:href="#path-5"></use>
                        <path stroke="#979797" stroke-width="1" d="M7.5,21.5 L7.5,0.5 L0.5,0.5 L0.5,21.5 L7.5,21.5 Z"></path>
                    </g>
                    <rect fill="#979797" transform="translate(4.000000, 14.500000) rotate(180.000000) translate(-4.000000, -14.500000) " x="1.687539e-14" y="14" width="8" height="1"></rect>
                </g>
                <g transform="translate(27.907227, 82.000000)">
                    <g>
                        <use fill="#D8D8D8" fill-rule="evenodd" xlink:href="#path-6"></use>
                        <path stroke="#979797" stroke-width="1" d="M7.5,21.5 L7.5,0.5 L0.5,0.5 L0.5,21.5 L7.5,21.5 Z"></path>
                    </g>
                    <rect fill="#979797" transform="translate(4.000000, 14.500000) rotate(180.000000) translate(-4.000000, -14.500000) " x="1.687539e-14" y="14" width="8" height="1"></rect>
                    <rect fill="#FFFFFF" transform="translate(4.000000, 14.500000) rotate(180.000000) translate(-4.000000, -14.500000) " x="1" y="14" width="6" height="1"></rect>
                    <rect fill="#FFFFFF" transform="translate(17.012451, 14.500000) rotate(180.000000) translate(-17.012451, -14.500000) " x="14.0124512" y="14" width="6" height="1"></rect>
                    <rect fill="#FFFFFF" transform="translate(29.954346, 14.500000) rotate(180.000000) translate(-29.954346, -14.500000) " x="26.9543457" y="14" width="6" height="1"></rect>
                    <rect fill="#FFFFFF" transform="translate(43.000000, 14.500000) rotate(180.000000) translate(-43.000000, -14.500000) " x="40" y="14" width="6" height="1"></rect>
                    <rect fill="#FFFFFF" transform="translate(56.000000, 14.500000) rotate(180.000000) translate(-56.000000, -14.500000) " x="53" y="14" width="6" height="1"></rect>
                    <rect fill="#FFFFFF" transform="translate(69.000000, 14.500000) rotate(180.000000) translate(-69.000000, -14.500000) " x="66" y="14" width="6" height="1"></rect>
                </g>
                <g transform="translate(57.907227, 11.000000) rotate(-180.000000) translate(-57.907227, -11.000000) translate(53.907227, 0.000000)">
                    <g>
                        <use fill="#D8D8D8" fill-rule="evenodd" xlink:href="#path-7"></use>
                        <path stroke="#979797" stroke-width="1" d="M7.5,21.5 L7.5,0.5 L0.5,0.5 L0.5,21.5 L7.5,21.5 Z"></path>
                    </g>
                </g>
                <g transform="translate(70.907227, 11.000000) rotate(-180.000000) translate(-70.907227, -11.000000) translate(66.907227, 0.000000)">
                    <g>
                        <use fill="#D8D8D8" fill-rule="evenodd" xlink:href="#path-8"></use>
                        <path stroke="#979797" stroke-width="1" d="M7.5,21.5 L7.5,0.5 L0.5,0.5 L0.5,21.5 L7.5,21.5 Z"></path>
                    </g>
                </g>
                <g transform="translate(83.907227, 11.000000) rotate(-180.000000) translate(-83.907227, -11.000000) translate(79.907227, 0.000000)">
                    <g>
                        <use fill="#D8D8D8" fill-rule="evenodd" xlink:href="#path-9"></use>
                        <path stroke="#979797" stroke-width="1" d="M7.5,21.5 L7.5,0.5 L0.5,0.5 L0.5,21.5 L7.5,21.5 Z"></path>
                    </g>
                </g>
                <g transform="translate(96.907227, 11.000000) rotate(-180.000000) translate(-96.907227, -11.000000) translate(92.907227, 0.000000)">
                    <g>
                        <use fill="#D8D8D8" fill-rule="evenodd" xlink:href="#path-10"></use>
                        <path stroke="#979797" stroke-width="1" d="M7.5,21.5 L7.5,0.5 L0.5,0.5 L0.5,21.5 L7.5,21.5 Z"></path>
                    </g>
                </g>
                <g transform="translate(44.907227, 11.000000) rotate(-180.000000) translate(-44.907227, -11.000000) translate(40.907227, 0.000000)">
                    <g>
                        <use fill="#D8D8D8" fill-rule="evenodd" xlink:href="#path-11"></use>
                        <path stroke="#979797" stroke-width="1" d="M7.5,21.5 L7.5,0.5 L0.5,0.5 L0.5,21.5 L7.5,21.5 Z"></path>
                    </g>
                </g>
                <g transform="translate(63.907227, 11.000000) rotate(-180.000000) translate(-63.907227, -11.000000) translate(27.907227, 0.000000)">
                    <g>
                        <use fill="#D8D8D8" fill-rule="evenodd" xlink:href="#path-12"></use>
                        <path stroke="#979797" stroke-width="1" d="M71.5,21.5 L71.5,0.5 L64.5,0.5 L64.5,21.5 L71.5,21.5 Z"></path>
                    </g>
                    <rect fill="#FFFFFF" transform="translate(68.000000, 14.500000) rotate(180.000000) translate(-68.000000, -14.500000) " x="65" y="14" width="6" height="1"></rect>
                    <rect fill="#FFFFFF" transform="translate(54.987549, 14.500000) rotate(180.000000) translate(-54.987549, -14.500000) " x="51.9875488" y="14" width="6" height="1"></rect>
                    <rect fill="#FFFFFF" transform="translate(42.045654, 14.500000) rotate(180.000000) translate(-42.045654, -14.500000) " x="39.0456543" y="14" width="6" height="1"></rect>
                    <rect fill="#FFFFFF" transform="translate(29.000000, 14.500000) rotate(180.000000) translate(-29.000000, -14.500000) " x="26" y="14" width="6" height="1"></rect>
                    <rect fill="#FFFFFF" transform="translate(16.000000, 14.500000) rotate(180.000000) translate(-16.000000, -14.500000) " x="13" y="14" width="6" height="1"></rect>
                    <rect fill="#FFFFFF" transform="translate(3.000000, 14.500000) rotate(180.000000) translate(-3.000000, -14.500000) " x="1.687539e-14" y="14" width="6" height="1"></rect>
                </g>
                <g transform="translate(11.907227, 72.000000) rotate(-270.000000) translate(-11.907227, -72.000000) translate(7.907227, 61.000000)">
                    <g>
                        <use fill="#D8D8D8" fill-rule="evenodd" xlink:href="#path-13"></use>
                        <path stroke="#979797" stroke-width="1" d="M7.5,21.5 L7.5,0.5 L0.5,0.5 L0.5,21.5 L7.5,21.5 Z"></path>
                    </g>
                    <rect fill="#979797" transform="translate(4.000000, 14.500000) rotate(180.000000) translate(-4.000000, -14.500000) " x="1.687539e-14" y="14" width="8" height="1"></rect>
                    <rect fill="#FFFFFF" transform="translate(4.000000, 14.500000) rotate(180.000000) translate(-4.000000, -14.500000) " x="1.00390625" y="14" width="5.9921875" height="1"></rect>
                </g>
                <g transform="translate(11.907227, 59.000000) rotate(-270.000000) translate(-11.907227, -59.000000) translate(7.907227, 48.000000)">
                    <g>
                        <use fill="#D8D8D8" fill-rule="evenodd" xlink:href="#path-14"></use>
                        <path stroke="#979797" stroke-width="1" d="M7.5,21.5 L7.5,0.5 L0.5,0.5 L0.5,21.5 L7.5,21.5 Z"></path>
                    </g>
                    <rect fill="#979797" transform="translate(4.000000, 14.500000) rotate(180.000000) translate(-4.000000, -14.500000) " x="1.687539e-14" y="14" width="8" height="1"></rect>
                    <rect fill="#FFFFFF" transform="translate(4.000000, 14.500000) rotate(180.000000) translate(-4.000000, -14.500000) " x="1.00390625" y="14" width="5.9921875" height="1"></rect>
                </g>
                <g transform="translate(11.907227, 46.000000) rotate(-270.000000) translate(-11.907227, -46.000000) translate(7.907227, 35.000000)">
                    <g>
                        <use fill="#D8D8D8" fill-rule="evenodd" xlink:href="#path-15"></use>
                        <path stroke="#979797" stroke-width="1" d="M7.5,21.5 L7.5,0.5 L0.5,0.5 L0.5,21.5 L7.5,21.5 Z"></path>
                    </g>
                    <rect fill="#979797" transform="translate(4.000000, 14.500000) rotate(180.000000) translate(-4.000000, -14.500000) " x="1.687539e-14" y="14" width="8" height="1"></rect>
                    <rect fill="#FFFFFF" transform="translate(4.000000, 14.500000) rotate(180.000000) translate(-4.000000, -14.500000) " x="1.00390625" y="14" width="5.9921875" height="1"></rect>
                </g>
                <g transform="translate(11.907227, 32.000000) rotate(-270.000000) translate(-11.907227, -32.000000) translate(7.907227, 21.000000)">
                    <g>
                        <use fill="#D8D8D8" fill-rule="evenodd" xlink:href="#path-16"></use>
                        <path stroke="#979797" stroke-width="1" d="M7.5,21.5 L7.5,0.5 L0.5,0.5 L0.5,21.5 L7.5,21.5 Z"></path>
                    </g>
                    <rect fill="#979797" transform="translate(4.000000, 14.500000) rotate(180.000000) translate(-4.000000, -14.500000) " x="1.687539e-14" y="14" width="8" height="1"></rect>
                    <rect fill="#FFFFFF" transform="translate(4.000000, 14.500000) rotate(180.000000) translate(-4.000000, -14.500000) " x="1.00390625" y="14" width="5.9921875" height="1"></rect>
                </g>
                <g transform="translate(116.907227, 52.000000) rotate(-180.000000) translate(-116.907227, -52.000000) translate(105.907227, 28.000000)">
                    <g transform="translate(11.000000, 44.000000) rotate(-270.000000) translate(-11.000000, -44.000000) translate(7.000000, 33.000000)">
                        <g>
                            <use fill="#D8D8D8" fill-rule="evenodd" xlink:href="#path-17"></use>
                            <path stroke="#979797" stroke-width="1" d="M7.5,21.5 L7.5,0.5 L0.5,0.5 L0.5,21.5 L7.5,21.5 Z"></path>
                        </g>
                        <rect fill="#FFFFFF" transform="translate(4.000000, 14.500000) rotate(180.000000) translate(-4.000000, -14.500000) " x="1.00390625" y="14" width="5.9921875" height="1"></rect>
                    </g>
                    <g transform="translate(11.000000, 31.000000) rotate(-270.000000) translate(-11.000000, -31.000000) translate(7.000000, 20.000000)">
                        <g>
                            <use fill="#D8D8D8" fill-rule="evenodd" xlink:href="#path-18"></use>
                            <path stroke="#979797" stroke-width="1" d="M7.5,21.5 L7.5,0.5 L0.5,0.5 L0.5,21.5 L7.5,21.5 Z"></path>
                        </g>
                        <rect fill="#FFFFFF" transform="translate(4.000000, 14.500000) rotate(180.000000) translate(-4.000000, -14.500000) " x="1.00390625" y="14" width="5.9921875" height="1"></rect>
                    </g>
                    <g transform="translate(11.000000, 18.000000) rotate(-270.000000) translate(-11.000000, -18.000000) translate(7.000000, 7.000000)">
                        <g>
                            <use fill="#D8D8D8" fill-rule="evenodd" xlink:href="#path-19"></use>
                            <path stroke="#979797" stroke-width="1" d="M7.5,21.5 L7.5,0.5 L0.5,0.5 L0.5,21.5 L7.5,21.5 Z"></path>
                        </g>
                        <rect fill="#FFFFFF" transform="translate(4.000000, 14.500000) rotate(180.000000) translate(-4.000000, -14.500000) " x="1.00390625" y="14" width="5.9921875" height="1"></rect>
                    </g>
                    <g transform="translate(11.000000, 4.000000) rotate(-270.000000) translate(-11.000000, -4.000000) translate(7.000000, -7.000000)">
                        <g>
                            <use fill="#D8D8D8" fill-rule="evenodd" xlink:href="#path-20"></use>
                            <path stroke="#979797" stroke-width="1" d="M7.5,21.5 L7.5,0.5 L0.5,0.5 L0.5,21.5 L7.5,21.5 Z"></path>
                        </g>
                        <rect fill="#FFFFFF" transform="translate(4.000000, 14.500000) rotate(180.000000) translate(-4.000000, -14.500000) " x="1.00390625" y="14" width="5.9921875" height="1"></rect>
                    </g>
                </g>
                <g>
                    <use fill="#585858" fill-rule="evenodd" xlink:href="#path-21"></use>
                    <rect stroke="#505050" stroke-width="3" x="23.4072266" y="22.5" width="82" height="59" rx="1"></rect>
                </g>
            </g>
            <g transform="translate(166.000000, 23.000000)">
                <path d="M11.9628906,86.9957199 C11.9628906,87.5245732 12.2413819,88.0143475 12.6958634,88.2847774 L25.9489746,98.3812866 L25.9489746,102 C25.9489746,102.828427 26.6205475,103.5 27.4489746,103.5 C28.2774017,103.5 28.9489746,102.828427 28.9489746,102 L28.9489746,97.5 C28.9489746,96.9711467 28.6704833,96.4813724 28.2160018,96.2109425 L14.9628906,86.1501389 L14.9628906,78.0100021 C14.9628906,77.181575 14.2913177,76.5100021 13.4628906,76.5100021 C12.6344635,76.5100021 11.9628906,77.181575 11.9628906,78.0100021 L11.9628906,86.9957199 Z" stroke="#979797" fill="#D8D8D8" fill-rule="nonzero"></path>
                <path d="M11.9628906,11.024292 C11.9628906,11.5531452 12.2413819,12.0429196 12.6958634,12.3133495 L25.9938965,22.3649902 L25.9938965,25.9837036 C25.9938965,26.8121307 26.6654694,27.4837036 27.4938965,27.4837036 C28.3223236,27.4837036 28.9938965,26.8121307 28.9938965,25.9837036 L28.9938965,21.4837036 C28.9938965,20.9548504 28.7154052,20.465076 28.2609237,20.1946461 L14.9628906,10.1787109 L14.9628906,2.03857422 C14.9628906,1.21014709 14.2913177,0.538574219 13.4628906,0.538574219 C12.6344635,0.538574219 11.9628906,1.21014709 11.9628906,2.03857422 L11.9628906,11.024292 Z" stroke="#979797" fill="#D8D8D8" fill-rule="nonzero" transform="translate(20.478394, 14.011139) scale(1, -1) translate(-20.478394, -14.011139) "></path>
                <g>
                    <use fill="#585858" fill-rule="evenodd" xlink:href="#path-22"></use>
                    <path stroke="#505050" stroke-width="1" d="M1.95312189,21.5033569 C1.40818985,21.5033569 0.962890625,21.9527017 0.962890625,22.5052292 L0.962890625,81.5014846 C0.962890625,82.0555585 1.40727589,82.5033569 1.95312189,82.5033569 L25.9751008,82.5033569 C26.5200328,82.5033569 26.965332,82.0540122 26.965332,81.5014846 L26.965332,22.5052292 C26.965332,21.9511553 26.5209468,21.5033569 25.9751008,21.5033569 L1.95312189,21.5033569 Z"></path>
                </g>
                <g transform="translate(20.462891, 72.000000) rotate(-270.000000) translate(-20.462891, -72.000000) translate(16.462891, 63.000000)">
                    <g>
                        <use fill="#D8D8D8" fill-rule="evenodd" xlink:href="#path-23"></use>
                        <path stroke="#979797" stroke-width="1" d="M7.5,17.5 L7.5,0.5 L0.5,0.5 L0.5,17.5 L7.5,17.5 Z"></path>
                    </g>
                    <rect fill="#FFFFFF" transform="translate(4.000000, 3.500000) rotate(180.000000) translate(-4.000000, -3.500000) " x="1" y="3" width="6" height="1"></rect>
                </g>
                <g transform="translate(20.462891, 59.000000) rotate(-270.000000) translate(-20.462891, -59.000000) translate(16.462891, 50.000000)">
                    <g>
                        <use fill="#D8D8D8" fill-rule="evenodd" xlink:href="#path-24"></use>
                        <path stroke="#979797" stroke-width="1" d="M7.5,17.5 L7.5,0.5 L0.5,0.5 L0.5,17.5 L7.5,17.5 Z"></path>
                    </g>
                    <rect fill="#FFFFFF" transform="translate(4.000000, 3.500000) rotate(180.000000) translate(-4.000000, -3.500000) " x="1" y="3" width="6" height="1"></rect>
                </g>
                <g transform="translate(20.462891, 46.000000) rotate(-270.000000) translate(-20.462891, -46.000000) translate(16.462891, 37.000000)">
                    <g>
                        <use fill="#D8D8D8" fill-rule="evenodd" xlink:href="#path-25"></use>
                        <path stroke="#979797" stroke-width="1" d="M7.5,17.5 L7.5,0.5 L0.5,0.5 L0.5,17.5 L7.5,17.5 Z"></path>
                    </g>
                    <rect fill="#FFFFFF" transform="translate(4.000000, 3.500000) rotate(180.000000) translate(-4.000000, -3.500000) " x="1" y="3" width="6" height="1"></rect>
                </g>
                <g transform="translate(20.462891, 32.000000) rotate(-270.000000) translate(-20.462891, -32.000000) translate(16.462891, 23.000000)">
                    <g>
                        <use fill="#D8D8D8" fill-rule="evenodd" xlink:href="#path-26"></use>
                        <path stroke="#979797" stroke-width="1" d="M7.5,17.5 L7.5,0.5 L0.5,0.5 L0.5,17.5 L7.5,17.5 Z"></path>
                    </g>
                    <rect fill="#FFFFFF" transform="translate(4.000000, 3.500000) rotate(180.000000) translate(-4.000000, -3.500000) " x="1.0380249" y="3" width="5.9239502" height="1"></rect>
                </g>
            </g>
            <circle stroke="#979797" fill="#D8D8D8" cx="33.0799591" cy="54.4819196" r="1.97607422"></circle>
        </g>
    </g>
</svg>