<?xml version="1.0" encoding="UTF-8" standalone="no"?>
<svg width="290px" height="175px" viewBox="0 0 290 175" version="1.1" xmlns="http://www.w3.org/2000/svg" xmlns:xlink="http://www.w3.org/1999/xlink" >
    <!-- Generator: Sketch 48.2 (47327) - http://www.bohemiancoding.com/sketch -->
    <title>CQFP-Labeled</title>
    <desc>Created with Sketch.</desc>
    <defs>
        <polyline id="path-1" points="9.04 24.9333333 1.77635684e-15 24.9333333 1.77635684e-15 0 9.04 0 9.04 24.9333333"></polyline>
        <polyline id="path-2" points="9.04 24.9333333 1.77635684e-15 24.9333333 1.77635684e-15 0 9.04 0 9.04 24.9333333"></polyline>
        <polyline id="path-3" points="9.04 24.9333333 1.77635684e-15 24.9333333 1.77635684e-15 0 9.04 0 9.04 24.9333333"></polyline>
        <polyline id="path-4" points="9.04 24.9333333 1.77635684e-15 24.9333333 1.77635684e-15 0 9.04 0 9.04 24.9333333"></polyline>
        <polyline id="path-5" points="9.04 24.9333333 1.77635684e-15 24.9333333 1.77635684e-15 0 9.04 0 9.04 24.9333333"></polyline>
        <polyline id="path-6" points="9.04 24.9333333 1.77635684e-15 24.9333333 1.77635684e-15 0 9.04 0 9.04 24.9333333"></polyline>
        <polyline id="path-7" points="9.04 24.9333333 1.77635684e-15 24.9333333 1.77635684e-15 0 9.04 0 9.04 24.9333333"></polyline>
        <polyline id="path-8" points="9.04 24.9333333 1.77635684e-15 24.9333333 1.77635684e-15 0 9.04 0 9.04 24.9333333"></polyline>
        <polyline id="path-9" points="9.04 24.9333333 1.77635684e-15 24.9333333 1.77635684e-15 0 9.04 0 9.04 24.9333333"></polyline>
        <polyline id="path-10" points="9.04 24.9333333 1.77635684e-15 24.9333333 1.77635684e-15 0 9.04 0 9.04 24.9333333"></polyline>
        <polyline id="path-11" points="9.04 24.9333333 1.77635684e-15 24.9333333 1.77635684e-15 0 9.04 0 9.04 24.9333333"></polyline>
        <polyline id="path-12" points="81.36 24.9333333 72.32 24.9333333 72.32 -7.10542736e-15 81.36 -7.10542736e-15 81.36 24.9333333"></polyline>
        <polyline id="path-13" points="9.04 24.9333333 1.77635684e-15 24.9333333 1.77635684e-15 -7.10542736e-15 9.04 -7.10542736e-15 9.04 24.9333333"></polyline>
        <polyline id="path-14" points="9.04 24.9333333 1.77635684e-15 24.9333333 1.77635684e-15 -1.42108547e-14 9.04 -1.42108547e-14 9.04 24.9333333"></polyline>
        <polyline id="path-15" points="9.04 24.9333333 1.77635684e-15 24.9333333 1.77635684e-15 -1.42108547e-14 9.04 -1.42108547e-14 9.04 24.9333333"></polyline>
        <polyline id="path-16" points="9.04 24.9333333 1.77635684e-15 24.9333333 1.77635684e-15 -2.27373675e-13 9.04 -2.27373675e-13 9.04 24.9333333"></polyline>
        <polyline id="path-17" points="9.04 24.9333333 -5.32907052e-15 24.9333333 -5.32907052e-15 -7.10542736e-15 9.04 -7.10542736e-15 9.04 24.9333333"></polyline>
        <polyline id="path-18" points="9.04 24.9333333 -1.59872116e-14 24.9333333 -1.59872116e-14 -1.42108547e-14 9.04 -1.42108547e-14 9.04 24.9333333"></polyline>
        <polyline id="path-19" points="9.04 24.9333333 1.77635684e-15 24.9333333 1.77635684e-15 -1.42108547e-14 9.04 -1.42108547e-14 9.04 24.9333333"></polyline>
        <polyline id="path-20" points="9.04 24.9333333 1.77635684e-15 24.9333333 1.77635684e-15 0 9.04 0 9.04 24.9333333"></polyline>
        <rect id="path-21" x="24.755166" y="23.8" width="96.05" height="70.2666667" rx="1"></rect>
        <path d="M2.01541558,23.8038045 C1.19121389,23.8038045 0.523066406,24.4767254 0.523066406,25.3039315 L0.523066406,92.5703442 C0.523066406,93.3988415 1.18874549,94.0704712 2.01541558,94.0704712 L29.543476,94.0704712 C30.3676777,94.0704712 31.0358252,93.3975503 31.0358252,92.5703442 L31.0358252,25.3039315 C31.0358252,24.4754343 30.3701461,23.8038045 29.543476,23.8038045 L2.01541558,23.8038045 Z" id="path-22"></path>
        <polyline id="path-23" points="9.04 20.4 0 20.4 0 0 9.04 0 9.04 20.4"></polyline>
        <polyline id="path-24" points="9.04 20.4 0 20.4 0 0 9.04 0 9.04 20.4"></polyline>
        <polyline id="path-25" points="9.04 20.4 0 20.4 0 0 9.04 0 9.04 20.4"></polyline>
        <polyline id="path-26" points="9.04 20.4 8.8817842e-15 20.4 8.8817842e-15 -7.10542736e-15 9.04 -7.10542736e-15 9.04 20.4"></polyline>
    </defs>
    <g stroke="none" stroke-width="1" fill="none" fill-rule="evenodd">
        <g>
            <g transform="translate(28.300130, 2.260742)">
                <g transform="translate(4.520000, 26.066667)">
                    <g transform="translate(60.915166, 92.933333)">
                        <g>
                            <use fill="#D8D8D8" fill-rule="evenodd" xlink:href="#path-1"></use>
                            <path stroke="#979797" stroke-width="1" d="M8.54,24.4333333 L8.54,0.5 L0.5,0.5 L0.5,24.4333333 L8.54,24.4333333 Z"></path>
                        </g>
                        <rect fill="#979797" transform="translate(4.520000, 16.433333) rotate(180.000000) translate(-4.520000, -16.433333) " x="1.687539e-14" y="15.8666667" width="9.04" height="1.13333333"></rect>
                    </g>
                    <g transform="translate(75.605166, 92.933333)">
                        <g>
                            <use fill="#D8D8D8" fill-rule="evenodd" xlink:href="#path-2"></use>
                            <path stroke="#979797" stroke-width="1" d="M8.54,24.4333333 L8.54,0.5 L0.5,0.5 L0.5,24.4333333 L8.54,24.4333333 Z"></path>
                        </g>
                        <rect fill="#979797" transform="translate(4.520000, 16.433333) rotate(180.000000) translate(-4.520000, -16.433333) " x="1.687539e-14" y="15.8666667" width="9.04" height="1.13333333"></rect>
                    </g>
                    <g transform="translate(90.295166, 92.933333)">
                        <g>
                            <use fill="#D8D8D8" fill-rule="evenodd" xlink:href="#path-3"></use>
                            <path stroke="#979797" stroke-width="1" d="M8.54,24.4333333 L8.54,0.5 L0.5,0.5 L0.5,24.4333333 L8.54,24.4333333 Z"></path>
                        </g>
                        <rect fill="#979797" transform="translate(4.520000, 16.433333) rotate(180.000000) translate(-4.520000, -16.433333) " x="1.687539e-14" y="15.8666667" width="9.04" height="1.13333333"></rect>
                    </g>
                    <g transform="translate(104.985166, 92.933333)">
                        <g>
                            <use fill="#D8D8D8" fill-rule="evenodd" xlink:href="#path-4"></use>
                            <path stroke="#979797" stroke-width="1" d="M8.54,24.4333333 L8.54,0.5 L0.5,0.5 L0.5,24.4333333 L8.54,24.4333333 Z"></path>
                        </g>
                        <rect fill="#979797" transform="translate(4.520000, 16.433333) rotate(180.000000) translate(-4.520000, -16.433333) " x="1.687539e-14" y="15.8666667" width="9.04" height="1.13333333"></rect>
                    </g>
                    <g transform="translate(46.225166, 92.933333)">
                        <g>
                            <use fill="#D8D8D8" fill-rule="evenodd" xlink:href="#path-5"></use>
                            <path stroke="#979797" stroke-width="1" d="M8.54,24.4333333 L8.54,0.5 L0.5,0.5 L0.5,24.4333333 L8.54,24.4333333 Z"></path>
                        </g>
                        <rect fill="#979797" transform="translate(4.520000, 16.433333) rotate(180.000000) translate(-4.520000, -16.433333) " x="1.687539e-14" y="15.8666667" width="9.04" height="1.13333333"></rect>
                    </g>
                    <g transform="translate(31.535166, 92.933333)">
                        <g>
                            <use fill="#D8D8D8" fill-rule="evenodd" xlink:href="#path-6"></use>
                            <path stroke="#979797" stroke-width="1" d="M8.54,24.4333333 L8.54,0.5 L0.5,0.5 L0.5,24.4333333 L8.54,24.4333333 Z"></path>
                        </g>
                        <rect fill="#979797" transform="translate(4.520000, 16.433333) rotate(180.000000) translate(-4.520000, -16.433333) " x="1.687539e-14" y="15.8666667" width="9.04" height="1.13333333"></rect>
                        <rect fill="#FFFFFF" transform="translate(4.520000, 16.433333) rotate(180.000000) translate(-4.520000, -16.433333) " x="1.13" y="15.8666667" width="6.78" height="1.13333333"></rect>
                        <rect fill="#FFFFFF" transform="translate(19.224070, 16.433333) rotate(180.000000) translate(-19.224070, -16.433333) " x="15.8340698" y="15.8666667" width="6.78" height="1.13333333"></rect>
                        <rect fill="#FFFFFF" transform="translate(33.848411, 16.433333) rotate(180.000000) translate(-33.848411, -16.433333) " x="30.4584106" y="15.8666667" width="6.78" height="1.13333333"></rect>
                        <rect fill="#FFFFFF" transform="translate(48.590000, 16.433333) rotate(180.000000) translate(-48.590000, -16.433333) " x="45.2" y="15.8666667" width="6.78" height="1.13333333"></rect>
                        <rect fill="#FFFFFF" transform="translate(63.280000, 16.433333) rotate(180.000000) translate(-63.280000, -16.433333) " x="59.89" y="15.8666667" width="6.78" height="1.13333333"></rect>
                        <rect fill="#FFFFFF" transform="translate(77.970000, 16.433333) rotate(180.000000) translate(-77.970000, -16.433333) " x="74.58" y="15.8666667" width="6.78" height="1.13333333"></rect>
                    </g>
                    <g transform="translate(65.435166, 12.466667) rotate(-180.000000) translate(-65.435166, -12.466667) translate(60.915166, 0.000000)">
                        <g>
                            <use fill="#D8D8D8" fill-rule="evenodd" xlink:href="#path-7"></use>
                            <path stroke="#979797" stroke-width="1" d="M8.54,24.4333333 L8.54,0.5 L0.5,0.5 L0.5,24.4333333 L8.54,24.4333333 Z"></path>
                        </g>
                    </g>
                    <g transform="translate(80.125166, 12.466667) rotate(-180.000000) translate(-80.125166, -12.466667) translate(75.605166, 0.000000)">
                        <g>
                            <use fill="#D8D8D8" fill-rule="evenodd" xlink:href="#path-8"></use>
                            <path stroke="#979797" stroke-width="1" d="M8.54,24.4333333 L8.54,0.5 L0.5,0.5 L0.5,24.4333333 L8.54,24.4333333 Z"></path>
                        </g>
                    </g>
                    <g transform="translate(94.815166, 12.466667) rotate(-180.000000) translate(-94.815166, -12.466667) translate(90.295166, 0.000000)">
                        <g>
                            <use fill="#D8D8D8" fill-rule="evenodd" xlink:href="#path-9"></use>
                            <path stroke="#979797" stroke-width="1" d="M8.54,24.4333333 L8.54,0.5 L0.5,0.5 L0.5,24.4333333 L8.54,24.4333333 Z"></path>
                        </g>
                    </g>
                    <g transform="translate(109.505166, 12.466667) rotate(-180.000000) translate(-109.505166, -12.466667) translate(104.985166, 0.000000)">
                        <g>
                            <use fill="#D8D8D8" fill-rule="evenodd" xlink:href="#path-10"></use>
                            <path stroke="#979797" stroke-width="1" d="M8.54,24.4333333 L8.54,0.5 L0.5,0.5 L0.5,24.4333333 L8.54,24.4333333 Z"></path>
                        </g>
                    </g>
                    <g transform="translate(50.745166, 12.466667) rotate(-180.000000) translate(-50.745166, -12.466667) translate(46.225166, 0.000000)">
                        <g>
                            <use fill="#D8D8D8" fill-rule="evenodd" xlink:href="#path-11"></use>
                            <path stroke="#979797" stroke-width="1" d="M8.54,24.4333333 L8.54,0.5 L0.5,0.5 L0.5,24.4333333 L8.54,24.4333333 Z"></path>
                        </g>
                    </g>
                    <g transform="translate(72.215166, 12.466667) rotate(-180.000000) translate(-72.215166, -12.466667) translate(31.535166, 0.000000)">
                        <g>
                            <use fill="#D8D8D8" fill-rule="evenodd" xlink:href="#path-12"></use>
                            <path stroke="#979797" stroke-width="1" d="M80.86,24.4333333 L80.86,0.5 L72.82,0.5 L72.82,24.4333333 L80.86,24.4333333 Z"></path>
                        </g>
                        <rect fill="#FFFFFF" transform="translate(76.840000, 16.433333) rotate(180.000000) translate(-76.840000, -16.433333) " x="73.45" y="15.8666667" width="6.78" height="1.13333333"></rect>
                        <rect fill="#FFFFFF" transform="translate(62.135930, 16.433333) rotate(180.000000) translate(-62.135930, -16.433333) " x="58.7459302" y="15.8666667" width="6.78" height="1.13333333"></rect>
                        <rect fill="#FFFFFF" transform="translate(47.511589, 16.433333) rotate(180.000000) translate(-47.511589, -16.433333) " x="44.1215894" y="15.8666667" width="6.78" height="1.13333333"></rect>
                        <rect fill="#FFFFFF" transform="translate(32.770000, 16.433333) rotate(180.000000) translate(-32.770000, -16.433333) " x="29.38" y="15.8666667" width="6.78" height="1.13333333"></rect>
                        <rect fill="#FFFFFF" transform="translate(18.080000, 16.433333) rotate(180.000000) translate(-18.080000, -16.433333) " x="14.69" y="15.8666667" width="6.78" height="1.13333333"></rect>
                        <rect fill="#FFFFFF" transform="translate(3.390000, 16.433333) rotate(180.000000) translate(-3.390000, -16.433333) " x="1.687539e-14" y="15.8666667" width="6.78" height="1.13333333"></rect>
                    </g>
                    <g transform="translate(13.455166, 81.600000) rotate(-270.000000) translate(-13.455166, -81.600000) translate(8.935166, 69.133333)">
                        <g>
                            <use fill="#D8D8D8" fill-rule="evenodd" xlink:href="#path-13"></use>
                            <path stroke="#979797" stroke-width="1" d="M8.54,24.4333333 L8.54,0.5 L0.5,0.5 L0.5,24.4333333 L8.54,24.4333333 Z"></path>
                        </g>
                        <rect fill="#979797" transform="translate(4.520000, 16.433333) rotate(180.000000) translate(-4.520000, -16.433333) " x="1.687539e-14" y="15.8666667" width="9.04" height="1.13333333"></rect>
                        <rect fill="#FFFFFF" transform="translate(4.520000, 16.433333) rotate(180.000000) translate(-4.520000, -16.433333) " x="1.13441406" y="15.8666667" width="6.77117188" height="1.13333333"></rect>
                    </g>
                    <g transform="translate(13.455166, 66.866667) rotate(-270.000000) translate(-13.455166, -66.866667) translate(8.935166, 54.400000)">
                        <g>
                            <use fill="#D8D8D8" fill-rule="evenodd" xlink:href="#path-14"></use>
                            <path stroke="#979797" stroke-width="1" d="M8.54,24.4333333 L8.54,0.5 L0.5,0.5 L0.5,24.4333333 L8.54,24.4333333 Z"></path>
                        </g>
                        <rect fill="#979797" transform="translate(4.520000, 16.433333) rotate(180.000000) translate(-4.520000, -16.433333) " x="1.687539e-14" y="15.8666667" width="9.04" height="1.13333333"></rect>
                        <rect fill="#FFFFFF" transform="translate(4.520000, 16.433333) rotate(180.000000) translate(-4.520000, -16.433333) " x="1.13441406" y="15.8666667" width="6.77117188" height="1.13333333"></rect>
                    </g>
                    <g transform="translate(13.455166, 52.133333) rotate(-270.000000) translate(-13.455166, -52.133333) translate(8.935166, 39.666667)">
                        <g>
                            <use fill="#D8D8D8" fill-rule="evenodd" xlink:href="#path-15"></use>
                            <path stroke="#979797" stroke-width="1" d="M8.54,24.4333333 L8.54,0.5 L0.5,0.5 L0.5,24.4333333 L8.54,24.4333333 Z"></path>
                        </g>
                        <rect fill="#979797" transform="translate(4.520000, 16.433333) rotate(180.000000) translate(-4.520000, -16.433333) " x="1.687539e-14" y="15.8666667" width="9.04" height="1.13333333"></rect>
                        <rect fill="#FFFFFF" transform="translate(4.520000, 16.433333) rotate(180.000000) translate(-4.520000, -16.433333) " x="1.13441406" y="15.8666667" width="6.77117188" height="1.13333333"></rect>
                    </g>
                    <g transform="translate(13.455166, 36.266667) rotate(-270.000000) translate(-13.455166, -36.266667) translate(8.935166, 23.800000)">
                        <g>
                            <use fill="#D8D8D8" fill-rule="evenodd" xlink:href="#path-16"></use>
                            <path stroke="#979797" stroke-width="1" d="M8.54,24.4333333 L8.54,0.5 L0.5,0.5 L0.5,24.4333333 L8.54,24.4333333 Z"></path>
                        </g>
                        <rect fill="#979797" transform="translate(4.520000, 16.433333) rotate(180.000000) translate(-4.520000, -16.433333) " x="1.687539e-14" y="15.8666667" width="9.04" height="1.13333333"></rect>
                        <rect fill="#FFFFFF" transform="translate(4.520000, 16.433333) rotate(180.000000) translate(-4.520000, -16.433333) " x="1.13441406" y="15.8666667" width="6.77117188" height="1.13333333"></rect>
                    </g>
                    <g transform="translate(132.105166, 58.933333) rotate(-180.000000) translate(-132.105166, -58.933333) translate(119.675166, 31.733333)">
                        <g transform="translate(12.430000, 49.866667) rotate(-270.000000) translate(-12.430000, -49.866667) translate(7.910000, 37.400000)">
                            <g>
                                <use fill="#D8D8D8" fill-rule="evenodd" xlink:href="#path-17"></use>
                                <path stroke="#979797" stroke-width="1" d="M8.54,24.4333333 L8.54,0.5 L0.5,0.5 L0.5,24.4333333 L8.54,24.4333333 Z"></path>
                            </g>
                            <rect fill="#FFFFFF" transform="translate(4.520000, 16.433333) rotate(180.000000) translate(-4.520000, -16.433333) " x="1.13441406" y="15.8666667" width="6.77117188" height="1.13333333"></rect>
                        </g>
                        <g transform="translate(12.430000, 35.133333) rotate(-270.000000) translate(-12.430000, -35.133333) translate(7.910000, 22.666667)">
                            <g>
                                <use fill="#D8D8D8" fill-rule="evenodd" xlink:href="#path-18"></use>
                                <path stroke="#979797" stroke-width="1" d="M8.54,24.4333333 L8.54,0.5 L0.5,0.5 L0.5,24.4333333 L8.54,24.4333333 Z"></path>
                            </g>
                            <rect fill="#FFFFFF" transform="translate(4.520000, 16.433333) rotate(180.000000) translate(-4.520000, -16.433333) " x="1.13441406" y="15.8666667" width="6.77117188" height="1.13333333"></rect>
                        </g>
                        <g transform="translate(12.430000, 20.400000) rotate(-270.000000) translate(-12.430000, -20.400000) translate(7.910000, 7.933333)">
                            <g>
                                <use fill="#D8D8D8" fill-rule="evenodd" xlink:href="#path-19"></use>
                                <path stroke="#979797" stroke-width="1" d="M8.54,24.4333333 L8.54,0.5 L0.5,0.5 L0.5,24.4333333 L8.54,24.4333333 Z"></path>
                            </g>
                            <rect fill="#FFFFFF" transform="translate(4.520000, 16.433333) rotate(180.000000) translate(-4.520000, -16.433333) " x="1.13441406" y="15.8666667" width="6.77117188" height="1.13333333"></rect>
                        </g>
                        <g transform="translate(12.430000, 4.533333) rotate(-270.000000) translate(-12.430000, -4.533333) translate(7.910000, -7.933333)">
                            <g>
                                <use fill="#D8D8D8" fill-rule="evenodd" xlink:href="#path-20"></use>
                                <path stroke="#979797" stroke-width="1" d="M8.54,24.4333333 L8.54,0.5 L0.5,0.5 L0.5,24.4333333 L8.54,24.4333333 Z"></path>
                            </g>
                            <rect fill="#FFFFFF" transform="translate(4.520000, 16.433333) rotate(180.000000) translate(-4.520000, -16.433333) " x="1.13441406" y="15.8666667" width="6.77117188" height="1.13333333"></rect>
                        </g>
                    </g>
                    <g>
                        <use fill="#585858" fill-rule="evenodd" xlink:href="#path-21"></use>
                        <rect stroke="#505050" stroke-width="3" x="26.255166" y="25.3" width="93.05" height="67.2666667" rx="1"></rect>
                    </g>
                </g>
                <g transform="translate(187.580000, 26.066667)">
                    <path d="M13.5180664,98.5951492 C13.5180664,99.1945163 13.8327615,99.7495938 14.3463256,100.056081 L29.3223413,111.498792 L29.3223413,115.6 C29.3223413,116.538884 30.0812187,117.3 31.0173413,117.3 C31.953464,117.3 32.7123413,116.538884 32.7123413,115.6 L32.7123413,110.5 C32.7123413,109.900633 32.3976462,109.345555 31.8840821,109.039068 L16.9080664,97.636824 L16.9080664,88.4113358 C16.9080664,87.4724517 16.1491891,86.7113358 15.2130664,86.7113358 C14.2769438,86.7113358 13.5180664,87.4724517 13.5180664,88.4113358 L13.5180664,98.5951492 Z" stroke="#979797" fill="#D8D8D8" fill-rule="nonzero"></path>
                    <path d="M13.5180664,12.4941976 C13.5180664,13.0935646 13.8327615,13.6486422 14.3463256,13.9551294 L29.373103,25.3469889 L29.373103,29.4481974 C29.373103,30.3870815 30.1319804,31.1481974 31.068103,31.1481974 C32.0042257,31.1481974 32.763103,30.3870815 32.763103,29.4481974 L32.763103,24.3481974 C32.763103,23.7488304 32.4484079,23.1937528 31.9348438,22.8872656 L16.9080664,11.5358724 L16.9080664,2.31038411 C16.9080664,1.37150004 16.1491891,0.610384115 15.2130664,0.610384115 C14.2769438,0.610384115 13.5180664,1.37150004 13.5180664,2.31038411 L13.5180664,12.4941976 Z" stroke="#979797" fill="#D8D8D8" fill-rule="nonzero" transform="translate(23.140585, 15.879291) scale(1, -1) translate(-23.140585, -15.879291) "></path>
                    <g>
                        <use fill="#585858" fill-rule="evenodd" xlink:href="#path-22"></use>
                        <path stroke="#505050" stroke-width="1" d="M2.01541558,24.3038045 C1.46845004,24.3038045 1.02306641,24.7517756 1.02306641,25.3039315 L1.02306641,92.5703442 C1.02306641,93.1242643 1.46645265,93.5704712 2.01541558,93.5704712 L29.543476,93.5704712 C30.0904416,93.5704712 30.5358252,93.1225001 30.5358252,92.5703442 L30.5358252,25.3039315 C30.5358252,24.7500114 30.092439,24.3038045 29.543476,24.3038045 L2.01541558,24.3038045 Z"></path>
                    </g>
                    <g transform="translate(23.123066, 81.600000) rotate(-270.000000) translate(-23.123066, -81.600000) translate(18.603066, 71.400000)">
                        <g>
                            <use fill="#D8D8D8" fill-rule="evenodd" xlink:href="#path-23"></use>
                            <path stroke="#979797" stroke-width="1" d="M8.54,19.9 L8.54,0.5 L0.5,0.5 L0.5,19.9 L8.54,19.9 Z"></path>
                        </g>
                        <rect fill="#FFFFFF" transform="translate(4.520000, 3.966667) rotate(180.000000) translate(-4.520000, -3.966667) " x="1.13" y="3.4" width="6.78" height="1.13333333"></rect>
                    </g>
                    <g transform="translate(23.123066, 66.866667) rotate(-270.000000) translate(-23.123066, -66.866667) translate(18.603066, 56.666667)">
                        <g>
                            <use fill="#D8D8D8" fill-rule="evenodd" xlink:href="#path-24"></use>
                            <path stroke="#979797" stroke-width="1" d="M8.54,19.9 L8.54,0.5 L0.5,0.5 L0.5,19.9 L8.54,19.9 Z"></path>
                        </g>
                        <rect fill="#FFFFFF" transform="translate(4.520000, 3.966667) rotate(180.000000) translate(-4.520000, -3.966667) " x="1.13" y="3.4" width="6.78" height="1.13333333"></rect>
                    </g>
                    <g transform="translate(23.123066, 52.133333) rotate(-270.000000) translate(-23.123066, -52.133333) translate(18.603066, 41.933333)">
                        <g>
                            <use fill="#D8D8D8" fill-rule="evenodd" xlink:href="#path-25"></use>
                            <path stroke="#979797" stroke-width="1" d="M8.54,19.9 L8.54,0.5 L0.5,0.5 L0.5,19.9 L8.54,19.9 Z"></path>
                        </g>
                        <rect fill="#FFFFFF" transform="translate(4.520000, 3.966667) rotate(180.000000) translate(-4.520000, -3.966667) " x="1.13" y="3.4" width="6.78" height="1.13333333"></rect>
                    </g>
                    <g transform="translate(23.123066, 36.266667) rotate(-270.000000) translate(-23.123066, -36.266667) translate(18.603066, 26.066667)">
                        <g>
                            <use fill="#D8D8D8" fill-rule="evenodd" xlink:href="#path-26"></use>
                            <path stroke="#979797" stroke-width="1" d="M8.54,19.9 L8.54,0.5 L0.5,0.5 L0.5,19.9 L8.54,19.9 Z"></path>
                        </g>
                        <rect fill="#FFFFFF" transform="translate(4.520000, 3.966667) rotate(180.000000) translate(-4.520000, -3.966667) " x="1.17296814" y="3.4" width="6.69406372" height="1.13333333"></rect>
                    </g>
                </g>
                <ellipse stroke="#979797" fill="#D8D8D8" cx="37.3803538" cy="61.7461756" rx="2.23296387" ry="2.23955078"></ellipse>
            </g>
            <g transform="translate(9.000000, 7.000000)" fill="#8D9EB0">
                <g transform="translate(23.465454, 0.000000)">
                    <g transform="translate(1.339814, 4.775391)">
                        <g transform="translate(3.026855, 2.500000) scale(-1, 1) translate(-3.026855, -2.500000) translate(0.026855, 0.000000)">
                            <path d="M2.88775351,-0.425866237 C2.98755721,-0.684554916 3.15206769,-0.677565105 3.24917468,-0.425866237 L5.40050076,5.1503168 C5.50030446,5.40900548 5.36527212,5.61871408 5.08097484,5.61871408 L1.05595335,5.61871408 C0.779680363,5.61871408 0.639320451,5.40201566 0.736427439,5.1503168 L2.88775351,-0.425866237 Z" transform="translate(3.069450, 2.500722) rotate(90.000000) translate(-3.069450, -2.500722) "></path>
                        </g>
                        <rect x="2.8794538" y="1.88944875" width="61.2864717" height="1" rx="0.5"></rect>
                    </g>
                    <g transform="translate(105.792969, 7.775391) scale(-1, 1) translate(-105.792969, -7.775391) translate(67.792969, 0.775391)">
                        <g transform="translate(3.026855, 6.500000) scale(-1, 1) translate(-3.026855, -6.500000) translate(0.026855, 4.000000)">
                            <path d="M2.88775351,-0.425866237 C2.98755721,-0.684554916 3.15206769,-0.677565105 3.24917468,-0.425866237 L5.40050076,5.1503168 C5.50030446,5.40900548 5.36527212,5.61871408 5.08097484,5.61871408 L1.05595335,5.61871408 C0.779680363,5.61871408 0.639320451,5.40201566 0.736427439,5.1503168 L2.88775351,-0.425866237 Z" transform="translate(3.069450, 2.500722) rotate(90.000000) translate(-3.069450, -2.500722) "></path>
                        </g>
                        <rect x="2.8794538" y="5.88944875" width="61" height="1" rx="0.5"></rect>
                        <polygon transform="translate(71.509517, 7.237393) scale(-1, 1) translate(-71.509517, -7.237393) " points="75.3441778 2.49328993 70.0375326 2.49328993 70.0375326 6.22481779 74.9316471 6.22481779 74.9316471 8.04370323 70.0375326 8.04370323 70.0375326 11.962745 75.3441778 11.962745 75.3441778 13.8003819 67.6748567 13.8003819 67.6748567 0.674404492 75.3441778 0.674404492"></polygon>
                    </g>
                    <rect x="0.379257643" y="2.97902592" width="1" height="48.9155053" rx="0.5"></rect>
                    <rect x="143.376953" y="2.97902592" width="1" height="48.9155053" rx="0.5"></rect>
                </g>
                <g transform="translate(47.465454, 115.303833)">
                    <g transform="translate(1.339814, 31.775391)">
                        <g transform="translate(3.026855, 7.500000) scale(-1, 1) translate(-3.026855, -7.500000) translate(0.026855, 5.000000)">
                            <path d="M2.88775351,-0.425866237 C2.98755721,-0.684554916 3.15206769,-0.677565105 3.24917468,-0.425866237 L5.40050076,5.1503168 C5.50030446,5.40900548 5.36527212,5.61871408 5.08097484,5.61871408 L1.05595335,5.61871408 C0.779680363,5.61871408 0.639320451,5.40201566 0.736427439,5.1503168 L2.88775351,-0.425866237 Z" transform="translate(3.069450, 2.500722) rotate(90.000000) translate(-3.069450, -2.500722) "></path>
                        </g>
                        <rect x="2.8794538" y="6.88944875" width="29.7283127" height="1" rx="0.5"></rect>
                        <path d="M46.8329495,2.18945692 L41.5263043,2.18945692 L41.5263043,5.92098478 L46.4204187,5.92098478 L46.4204187,7.73987022 L41.5263043,7.73987022 L41.5263043,11.658912 L46.8329495,11.658912 L46.8329495,13.4965489 L39.1636284,13.4965489 L39.1636284,0.370571484 L46.8329495,0.370571484 L46.8329495,2.18945692 Z M54.2022482,11.7151662 L56.5086699,11.7151662 L56.5086699,13.4965489 L49.2331282,13.4965489 L49.2331282,11.7151662 L51.9145779,11.7151662 L51.9145779,2.92076138 L49.6456589,4.04584515 L48.7830947,2.50823066 L52.4583683,0.370571484 L54.2022482,0.370571484 L54.2022482,11.7151662 Z"></path>
                    </g>
                    <g transform="translate(78.839814, 39.275391) scale(-1, 1) translate(-78.839814, -39.275391) translate(62.339814, 36.775391)">
                        <g transform="translate(3.026855, 2.500000) scale(-1, 1) translate(-3.026855, -2.500000) translate(0.026855, 0.000000)">
                            <path d="M2.88775351,-0.425866237 C2.98755721,-0.684554916 3.15206769,-0.677565105 3.24917468,-0.425866237 L5.40050076,5.1503168 C5.50030446,5.40900548 5.36527212,5.61871408 5.08097484,5.61871408 L1.05595335,5.61871408 C0.779680363,5.61871408 0.639320451,5.40201566 0.736427439,5.1503168 L2.88775351,-0.425866237 Z" transform="translate(3.069450, 2.500722) rotate(90.000000) translate(-3.069450, -2.500722) "></path>
                        </g>
                        <rect x="2.8794538" y="1.88944875" width="29.7283127" height="1" rx="0.5"></rect>
                    </g>
                    <rect x="0.379257643" y="0.874316179" width="1" height="42.0202151" rx="0.5"></rect>
                    <rect x="95.3769531" y="0.874316179" width="1" height="42.0202151" rx="0.5"></rect>
                </g>
                <g transform="translate(0.000000, 44.000000)">
                    <g transform="translate(0.024787, 0.447266)">
                        <rect x="9.23733674" y="0.995361328" width="37.307525" height="1" rx="0.5"></rect>
                        <rect x="9.23733674" y="68.9200832" width="37.307525" height="1" rx="0.5"></rect>
                        <g transform="translate(9.422241, 4.209812)">
                            <g transform="translate(3.184082, 3.484497) rotate(-90.000000) translate(-3.184082, -3.484497) translate(0.184082, 0.984497)">
                                <path d="M2.88775351,-0.425866237 C2.98755721,-0.684554916 3.15206769,-0.677565105 3.24917468,-0.425866237 L5.40050076,5.1503168 C5.50030446,5.40900548 5.36527212,5.61871408 5.08097484,5.61871408 L1.05595335,5.61871408 C0.779680363,5.61871408 0.639320451,5.40201566 0.736427439,5.1503168 L2.88775351,-0.425866237 Z" transform="translate(3.069450, 2.500722) rotate(90.000000) translate(-3.069450, -2.500722) "></path>
                            </g>
                            <rect x="2.68408203" y="3.48449707" width="1" height="19.2492003" rx="0.5"></rect>
                        </g>
                        <g transform="translate(10.922241, 47.616479) scale(1, -1) translate(-10.922241, -47.616479) translate(0.422241, 28.116479)">
                            <g transform="translate(12.184082, 3.484497) rotate(-90.000000) translate(-12.184082, -3.484497) translate(9.184082, 0.984497)">
                                <path d="M2.88775351,-0.425866237 C2.98755721,-0.684554916 3.15206769,-0.677565105 3.24917468,-0.425866237 L5.40050076,5.1503168 C5.50030446,5.40900548 5.36527212,5.61871408 5.08097484,5.61871408 L1.05595335,5.61871408 C0.779680363,5.61871408 0.639320451,5.40201566 0.736427439,5.1503168 L2.88775351,-0.425866237 Z" transform="translate(3.069450, 2.500722) rotate(90.000000) translate(-3.069450, -2.500722) "></path>
                            </g>
                            <rect x="11.684082" y="3.48449707" width="1" height="19" rx="0.5"></rect>
                            <path d="M5.11732971,25.3560139 C8.680095,25.3560139 10.4614776,27.4561703 10.4614776,30.6064049 L10.4614776,32.931578 C10.4614776,36.3443322 8.43632685,38.4819913 4.6485448,38.4819913 L0.823259966,38.4819913 L0.823259966,25.3560139 L5.11732971,25.3560139 Z M8.09880172,32.9690808 L8.09880172,30.5501507 C8.09880172,28.4124915 7.08622632,27.1748994 5.00482133,27.1748994 L3.1859359,27.1748994 L3.1859359,36.6631059 L4.6672962,36.6631059 C6.95496655,36.6631059 8.09880172,35.4630165 8.09880172,32.9690808 Z M17.7932736,27.1373966 L20.0996953,27.1373966 L20.0996953,25.3560139 L12.8241536,25.3560139 L12.8241536,27.1373966 L15.5056032,27.1373966 L15.5056032,35.9318014 L13.2366843,34.8067177 L12.3741201,36.3443322 L16.0493937,38.4819913 L17.7932736,38.4819913 L17.7932736,27.1373966 Z"></path>
                        </g>
                    </g>
                </g>
                <g transform="translate(137.000000, 20.000000)">
                    <g transform="translate(0.970135, 0.447266)">
                        <rect x="0.35073504" y="0.995361328" width="50.9225458" height="1" rx="0.5"></rect>
                        <rect x="0.35073504" y="117.385272" width="50.9225458" height="1" rx="0.5"></rect>
                        <g transform="translate(40.371517, 2.677281)">
                            <g transform="translate(6.184082, 3.484497) rotate(-90.000000) translate(-6.184082, -3.484497) translate(3.184082, 0.984497)">
                                <path d="M2.88775351,-0.425866237 C2.98755721,-0.684554916 3.15206769,-0.677565105 3.24917468,-0.425866237 L5.40050076,5.1503168 C5.50030446,5.40900548 5.36527212,5.61871408 5.08097484,5.61871408 L1.05595335,5.61871408 C0.779680363,5.61871408 0.639320451,5.40201566 0.736427439,5.1503168 L2.88775351,-0.425866237 Z" transform="translate(3.069450, 2.500722) rotate(90.000000) translate(-3.069450, -2.500722) "></path>
                            </g>
                            <rect x="5.68408203" y="3.48449707" width="1" height="45.1800188" rx="0.5"></rect>
                            <path d="M5.22270578,50.5787607 C8.78547107,50.5787607 10.5668537,52.6789171 10.5668537,55.8291516 L10.5668537,58.1543248 C10.5668537,61.5670789 8.54170292,63.7047381 4.75392088,63.7047381 L0.928636038,63.7047381 L0.928636038,50.5787607 L5.22270578,50.5787607 Z M8.20417779,58.1918276 L8.20417779,55.7728975 C8.20417779,53.6352383 7.19160239,52.3976461 5.11019741,52.3976461 L3.29131197,52.3976461 L3.29131197,61.8858526 L4.77267227,61.8858526 C7.06034262,61.8858526 8.20417779,60.6857633 8.20417779,58.1918276 Z"></path>
                        </g>
                        <g transform="translate(46.371517, 92.322148) scale(1, -1) translate(-46.371517, -92.322148) translate(43.371517, 68.322148)">
                            <g transform="translate(3.184082, 3.484497) rotate(-90.000000) translate(-3.184082, -3.484497) translate(0.184082, 0.984497)">
                                <path d="M2.88775351,-0.425866237 C2.98755721,-0.684554916 3.15206769,-0.677565105 3.24917468,-0.425866237 L5.40050076,5.1503168 C5.50030446,5.40900548 5.36527212,5.61871408 5.08097484,5.61871408 L1.05595335,5.61871408 C0.779680363,5.61871408 0.639320451,5.40201566 0.736427439,5.1503168 L2.88775351,-0.425866237 Z" transform="translate(3.069450, 2.500722) rotate(90.000000) translate(-3.069450, -2.500722) "></path>
                            </g>
                            <rect x="2.68408203" y="3.48449707" width="1" height="43.9425616" rx="0.5"></rect>
                        </g>
                    </g>
                </g>
            </g>
            <g transform="translate(216.000000, 11.000000)" fill="#8D9EB0">
                <g>
                    <path d="M20.2819412,14.09729 L19.1943602,10.6470331 L14.6565223,10.6470331 L13.6626983,14.09729 L11.2812709,14.09729 L15.2940697,0.971312652 L18.5005585,0.971312652 L22.7196227,14.09729 L20.2819412,14.09729 Z M16.8879384,2.62143552 L15.1815614,8.7531421 L18.6318183,8.7531421 L16.8879384,2.62143552 Z"></path>
                    <path d="M31.8937988,7.32727316 C31.8937988,7.05032031 32.1257324,6.82580566 32.3937988,6.82580566 L32.3937988,6.82580566 C32.6699412,6.82580566 32.8937988,7.04385069 32.8937988,7.32727316 L32.8937988,15.9023022 C32.8937988,16.1792551 32.6618652,16.4037697 32.3937988,16.4037697 L32.3937988,16.4037697 C32.1176565,16.4037697 31.8937988,16.1857247 31.8937988,15.9023022 L31.8937988,7.32727316 Z"></path>
                    <rect x="0.293823242" y="6.82580566" width="1" height="33.0876465" rx="0.5"></rect>
                    <g transform="translate(1.085449, 6.953524)">
                        <g transform="translate(3.000000, 2.500000) scale(-1, 1) translate(-3.000000, -2.500000) ">
                            <path d="M2.88775351,-0.425866237 C2.98755721,-0.684554916 3.15206769,-0.677565105 3.24917468,-0.425866237 L5.40050076,5.1503168 C5.50030446,5.40900548 5.36527212,5.61871408 5.08097484,5.61871408 L1.05595335,5.61871408 C0.779680363,5.61871408 0.639320451,5.40201566 0.736427439,5.1503168 L2.88775351,-0.425866237 Z" transform="translate(3.069450, 2.500722) rotate(90.000000) translate(-3.069450, -2.500722) "></path>
                        </g>
                        <rect x="2.85259834" y="1.88944875" width="5.39496026" height="1" rx="0.5"></rect>
                    </g>
                    <g transform="translate(27.500000, 9.453524) scale(-1, 1) translate(-27.500000, -9.453524) translate(23.000000, 6.953524)">
                        <g transform="translate(3.000000, 2.500000) scale(-1, 1) translate(-3.000000, -2.500000) ">
                            <path d="M2.88775351,-0.425866237 C2.98755721,-0.684554916 3.15206769,-0.677565105 3.24917468,-0.425866237 L5.40050076,5.1503168 C5.50030446,5.40900548 5.36527212,5.61871408 5.08097484,5.61871408 L1.05595335,5.61871408 C0.779680363,5.61871408 0.639320451,5.40201566 0.736427439,5.1503168 L2.88775351,-0.425866237 Z" transform="translate(3.069450, 2.500722) rotate(90.000000) translate(-3.069450, -2.500722) "></path>
                        </g>
                        <rect x="2.85259834" y="1.88944875" width="5.39496026" height="1" rx="0.5"></rect>
                    </g>
                </g>
                <g transform="translate(21.000000, 112.000000)">
                    <path d="M28.0668533,44.2059433 L26.9792723,40.7556863 L22.4414344,40.7556863 L21.4476104,44.2059433 L19.0661831,44.2059433 L23.0789819,31.0799659 L26.2854706,31.0799659 L30.5045348,44.2059433 L28.0668533,44.2059433 Z M24.6728505,32.7300887 L22.9664735,38.8617953 L26.4167304,38.8617953 L24.6728505,32.7300887 Z M36.8800095,42.4245606 L39.1864312,42.4245606 L39.1864312,44.2059433 L31.9108895,44.2059433 L31.9108895,42.4245606 L34.5923392,42.4245606 L34.5923392,33.6301558 L32.3234202,34.7552395 L31.460856,33.217625 L35.1361297,31.0799659 L36.8800095,31.0799659 L36.8800095,42.4245606 Z"></path>
                    <path d="M10.8937988,28.4604656 C10.8937988,28.1845796 11.1257324,27.9609299 11.3937988,27.9609299 L11.3937988,27.9609299 C11.6699412,27.9609299 11.8937988,28.176317 11.8937988,28.4604656 L11.8937988,38.7480264 C11.8937988,39.0239124 11.6618652,39.2475621 11.3937988,39.2475621 L11.3937988,39.2475621 C11.1176565,39.2475621 10.8937988,39.032175 10.8937988,38.7480264 L10.8937988,28.4604656 Z"></path>
                    <rect x="9" y="0.303833008" width="1" height="38.9903423" rx="0.5"></rect>
                    <g transform="translate(11.399495, 35.362963)">
                        <g transform="translate(3.000000, 2.500000) scale(-1, 1) translate(-3.000000, -2.500000) ">
                            <path d="M2.88775351,-0.425866237 C2.98755721,-0.684554916 3.15206769,-0.677565105 3.24917468,-0.425866237 L5.40050076,5.1503168 C5.50030446,5.40900548 5.36527212,5.61871408 5.08097484,5.61871408 L1.05595335,5.61871408 C0.779680363,5.61871408 0.639320451,5.40201566 0.736427439,5.1503168 L2.88775351,-0.425866237 Z" transform="translate(3.069450, 2.500722) rotate(90.000000) translate(-3.069450, -2.500722) "></path>
                        </g>
                        <rect x="2.85259834" y="1.88944875" width="5.39496026" height="1" rx="0.5"></rect>
                    </g>
                    <g transform="translate(5.015706, 37.862963) scale(-1, 1) translate(-5.015706, -37.862963) translate(0.515706, 35.362963)">
                        <g transform="translate(3.000000, 2.500000) scale(-1, 1) translate(-3.000000, -2.500000) ">
                            <path d="M2.88775351,-0.425866237 C2.98755721,-0.684554916 3.15206769,-0.677565105 3.24917468,-0.425866237 L5.40050076,5.1503168 C5.50030446,5.40900548 5.36527212,5.61871408 5.08097484,5.61871408 L1.05595335,5.61871408 C0.779680363,5.61871408 0.639320451,5.40201566 0.736427439,5.1503168 L2.88775351,-0.425866237 Z" transform="translate(3.069450, 2.500722) rotate(90.000000) translate(-3.069450, -2.500722) "></path>
                        </g>
                        <rect x="2.85259834" y="1.88944875" width="5.39496026" height="1" rx="0.5"></rect>
                    </g>
                </g>
                <g transform="translate(33.000000, 0.000000)">
                    <g transform="translate(8.784912, 4.819735)">
                        <g transform="translate(3.184082, 9.000000) rotate(90.000000) translate(-3.184082, -9.000000) translate(0.184082, 6.500000)">
                            <path d="M2.88775351,-0.425866237 C2.98755721,-0.684554916 3.15206769,-0.677565105 3.24917468,-0.425866237 L5.40050076,5.1503168 C5.50030446,5.40900548 5.36527212,5.61871408 5.08097484,5.61871408 L1.05595335,5.61871408 C0.779680363,5.61871408 0.639320451,5.40201566 0.736427439,5.1503168 L2.88775351,-0.425866237 Z" transform="translate(3.069450, 2.500722) rotate(90.000000) translate(-3.069450, -2.500722) "></path>
                        </g>
                        <rect x="2.68408203" y="7.10542736e-15" width="1" height="8.00952148" rx="0.5"></rect>
                        <rect x="2.68408203" y="7.10542736e-15" width="6" height="1" rx="0.5"></rect>
                    </g>
                    <polygon points="22.1164846 12.1846476 27.4418812 12.1846476 27.4418812 14.09729 19.7538087 14.09729 19.7538087 0.971312652 22.1164846 0.971312652"></polygon>
                    <g transform="translate(0.883789, 16.606723)">
                        <rect x="0" y="0.528564453" width="15.0102539" height="1" rx="0.5"></rect>
                        <g transform="translate(8.102600, 9.000000)">
                            <g transform="translate(3.184082, 3.484497) rotate(-90.000000) translate(-3.184082, -3.484497) translate(0.184082, 0.984497)">
                                <path d="M2.88775351,-0.425866237 C2.98755721,-0.684554916 3.15206769,-0.677565105 3.24917468,-0.425866237 L5.40050076,5.1503168 C5.50030446,5.40900548 5.36527212,5.61871408 5.08097484,5.61871408 L1.05595335,5.61871408 C0.779680363,5.61871408 0.639320451,5.40201566 0.736427439,5.1503168 L2.88775351,-0.425866237 Z" transform="translate(3.069450, 2.500722) rotate(90.000000) translate(-3.069450, -2.500722) "></path>
                            </g>
                            <rect x="2.68408203" y="3.48449707" width="1" height="4.93155171" rx="0.5"></rect>
                        </g>
                        <rect x="0" y="8.59838867" width="15.0102539" height="1" rx="0.5"></rect>
                    </g>
                </g>
                <g transform="translate(34.000000, 43.000000)">
                    <g transform="translate(8.784912, 31.209628) scale(1, -1) translate(-8.784912, -31.209628) translate(5.784912, 27.209628)">
                        <g transform="translate(3.184082, 5.000000) rotate(90.000000) translate(-3.184082, -5.000000) translate(0.184082, 2.500000)">
                            <path d="M2.88775351,-0.425866237 C2.98755721,-0.684554916 3.15206769,-0.677565105 3.24917468,-0.425866237 L5.40050076,5.1503168 C5.50030446,5.40900548 5.36527212,5.61871408 5.08097484,5.61871408 L1.05595335,5.61871408 C0.779680363,5.61871408 0.639320451,5.40201566 0.736427439,5.1503168 L2.88775351,-0.425866237 Z" transform="translate(3.069450, 2.500722) rotate(90.000000) translate(-3.069450, -2.500722) "></path>
                        </g>
                        <rect x="2.68408203" y="0" width="1" height="5" rx="0.5"></rect>
                    </g>
                    <rect x="0.711181641" y="10.0021973" width="12.1992493" height="1" rx="0.5"></rect>
                    <rect x="0.711181641" y="26.3945312" width="12.1992493" height="1" rx="0.5"></rect>
                    <g transform="translate(10.486389, 5.557373) scale(1, -1) translate(-10.486389, -5.557373) translate(5.986389, 0.557373)">
                        <g transform="translate(3.184082, 3.484497) rotate(-90.000000) translate(-3.184082, -3.484497) translate(0.184082, 0.984497)">
                            <path d="M2.88775351,-0.425866237 C2.98755721,-0.684554916 3.15206769,-0.677565105 3.24917468,-0.425866237 L5.40050076,5.1503168 C5.50030446,5.40900548 5.36527212,5.61871408 5.08097484,5.61871408 L1.05595335,5.61871408 C0.779680363,5.61871408 0.639320451,5.40201566 0.736427439,5.1503168 L2.88775351,-0.425866237 Z" transform="translate(3.069450, 2.500722) rotate(90.000000) translate(-3.069450, -2.500722) "></path>
                        </g>
                        <rect x="2.68408203" y="3.48449707" width="1" height="5.9332247" rx="0.5"></rect>
                        <rect x="2.68408203" y="8.41772177" width="6" height="1" rx="0.5"></rect>
                    </g>
                </g>
                <g transform="translate(34.000000, 86.000000)">
                    <g transform="translate(10.284912, 23.262362) scale(1, -1) translate(-10.284912, -23.262362) translate(5.784912, 17.262362)">
                        <g transform="translate(3.184082, 9.000000) rotate(90.000000) translate(-3.184082, -9.000000) translate(0.184082, 6.500000)">
                            <path d="M2.88775351,-0.425866237 C2.98755721,-0.684554916 3.15206769,-0.677565105 3.24917468,-0.425866237 L5.40050076,5.1503168 C5.50030446,5.40900548 5.36527212,5.61871408 5.08097484,5.61871408 L1.05595335,5.61871408 C0.779680363,5.61871408 0.639320451,5.40201566 0.736427439,5.1503168 L2.88775351,-0.425866237 Z" transform="translate(3.069450, 2.500722) rotate(90.000000) translate(-3.069450, -2.500722) "></path>
                        </g>
                        <rect x="2.68408203" y="7.10542736e-15" width="1" height="8.00952148" rx="0.5"></rect>
                        <rect x="2.68408203" y="7.10542736e-15" width="6" height="1" rx="0.5"></rect>
                    </g>
                    <path d="M20.9047435,24.7274027 C23.1924139,24.7274027 24.6925256,26.5650396 24.6925256,29.4527546 L24.6925256,30.46533 C24.6925256,33.2217852 22.9111429,35.2094332 20.6234726,35.2094332 C19.554643,35.2094332 18.6920788,34.8156539 17.9982771,34.1031009 L17.8107632,34.9656651 L15.9918777,34.9656651 L15.9918777,21.0896318 L18.3170509,21.0896318 L18.3170509,25.7587295 C18.9545983,25.1024306 19.8171626,24.7274027 20.9047435,24.7274027 Z M22.3673525,30.5403356 L22.3673525,29.377749 C22.3673525,27.4276038 21.7110536,26.490034 20.4359586,26.490034 C19.5358916,26.490034 18.8233386,26.9213161 18.3170509,27.5588636 L18.3170509,32.6217405 C18.8233386,33.165531 19.460886,33.4655534 20.2296933,33.4655534 C21.5235396,33.4655534 22.3673525,32.452978 22.3673525,30.5403356 Z"></path>
                    <rect x="0.711181641" y="8.44482422" width="12.1992493" height="1" rx="0.5"></rect>
                    <rect x="0.711181641" y="16.4472656" width="12.1992493" height="1" rx="0.5"></rect>
                    <g transform="translate(8.986389, 4.500000) scale(1, -1) translate(-8.986389, -4.500000) translate(5.986389, 0.000000)">
                        <g transform="translate(3.184082, 3.484497) rotate(-90.000000) translate(-3.184082, -3.484497) translate(0.184082, 0.984497)">
                            <path d="M2.88775351,-0.425866237 C2.98755721,-0.684554916 3.15206769,-0.677565105 3.24917468,-0.425866237 L5.40050076,5.1503168 C5.50030446,5.40900548 5.36527212,5.61871408 5.08097484,5.61871408 L1.05595335,5.61871408 C0.779680363,5.61871408 0.639320451,5.40201566 0.736427439,5.1503168 L2.88775351,-0.425866237 Z" transform="translate(3.069450, 2.500722) rotate(90.000000) translate(-3.069450, -2.500722) "></path>
                        </g>
                        <rect x="2.68408203" y="3.48449707" width="1" height="4.93155171" rx="0.5"></rect>
                    </g>
                </g>
            </g>
            <path d="M275.785,56.5418452 C275.785,56.9598452 275.747,57.3778452 275.709,57.6818452 L269.192,57.6818452 C269.23,59.6198452 270.123,60.4748452 271.871,60.4748452 C272.973,60.4748452 273.79,60.0758452 274.569,59.6388452 L275.405,61.0448452 C274.55,61.6908452 273.182,62.2418452 271.719,62.2418452 C268.641,62.2418452 266.893,60.2088452 266.893,57.4728452 L266.893,56.4278452 C266.893,53.6918452 268.603,51.6208452 271.415,51.6208452 C274.17,51.6208452 275.785,53.3308452 275.785,56.5418452 Z M273.676,56.1428452 L273.676,56.0478452 C273.676,54.2998452 272.897,53.3498452 271.434,53.3498452 C269.99,53.3498452 269.23,54.2998452 269.192,56.1428452 L273.676,56.1428452 Z" fill="#8D9EB0"></path>
        </g>
    </g>
</svg>
