<?xml version="1.0" encoding="UTF-8"?>
<svg width="290px" height="175px" viewBox="0 0 290 175" version="1.1" xmlns="http://www.w3.org/2000/svg" xmlns:xlink="http://www.w3.org/1999/xlink">
    <!-- Generator: Sketch 52.5 (67469) - http://www.bohemiancoding.com/sketch -->
    <title>Crystal-HC49_PTH_Labeled</title>
    <desc>Created with Sketch.</desc>
    <defs>
        <linearGradient x1="100%" y1="50%" x2="0%" y2="50%" id="linearGradient-1">
            <stop stop-color="#6D6C6C" offset="0%"></stop>
            <stop stop-color="#F8F8F8" offset="49.6884032%"></stop>
            <stop stop-color="#6D6C6C" offset="100%"></stop>
        </linearGradient>
        <linearGradient x1="100%" y1="50%" x2="0%" y2="50%" id="linearGradient-2">
            <stop stop-color="#6D6C6C" offset="0%"></stop>
            <stop stop-color="#ECECEC" offset="39.0625%"></stop>
            <stop stop-color="#FFFFFF" offset="49.6884032%"></stop>
            <stop stop-color="#6D6C6C" offset="100%"></stop>
        </linearGradient>
    </defs>
    <g id="Crystal-HC49_PTH_Labeled" stroke="none" stroke-width="1" fill="none" fill-rule="evenodd">
        <rect fill="none" x="0" y="0" width="290" height="175"></rect>
        <g id="Group-5-Copy" transform="translate(17.000000, 46.000000)" fill="#6D6C6C">
            <g id="Group-6">
                <g id="Group-2">
                    <path d="M16,-3.11418015e-12 L57.0403611,-3.17612603e-12 C61.4586391,-3.17693765e-12 65.0403611,3.581722 65.0403611,8 L65.0403611,45.2779334 L72,45.2779334 C72.5522847,45.2779334 73,45.7256486 73,46.2779334 L73,51.6978667 C73,52.2501514 72.5522847,52.6978667 72,52.6978667 L1,52.6978667 C0.44771525,52.6978667 -1.09694983e-13,52.2501514 -1.13686838e-13,51.6978667 L-8.32667268e-14,46.1803279 C-8.33343622e-14,45.6280431 0.44771525,45.1803279 1,45.1803279 L8,45.1803279 L8,8 C8,3.581722 11.581722,-3.11277041e-12 16,-3.11750625e-12 Z" id="Rectangle-9"></path>
                </g>
            </g>
        </g>
        <g id="Group-5-Copy-2" transform="translate(146.000000, 46.000000)" fill="#6D6C6C">
            <g id="Group-6">
                <g id="Group-2">
                    <path d="M16,-8.89415429e-13 L109.040361,-9.05941988e-13 C113.458639,-9.06753613e-13 117.040361,3.581722 117.040361,8 L117.040361,45.1492323 L124,45.1492323 C124.552285,45.1492323 125,45.5969475 125,46.1492323 L125,51.6928311 C125,52.2451159 124.552285,52.6928311 124,52.6928311 L1,52.6928311 C0.44771525,52.6928311 1.13754473e-13,52.2451159 1.13686838e-13,51.6928311 L1.13686838e-13,46.05 C1.09694983e-13,45.4977153 0.44771525,45.05 1,45.05 L8,45.05 L8,8 C8,3.581722 11.581722,-8.69603227e-13 16,-8.70414851e-13 Z" id="Rectangle-9"></path>
                </g>
            </g>
        </g>
        <g id="Group" transform="translate(246.000000, 99.000000)"></g>
        <path d="M250.5,99.5236232 L246.5,99.5026309 L246.5,130.5 L250.5,130.5 L250.5,99.5236232 Z" id="Rectangle-7-Copy-2" stroke="#979797" fill="#D8D8D8"></path>
        <path d="M55.5,99.5236232 L51.5,99.5026309 L51.5,130.5 L55.5,130.5 L55.5,99.5236232 Z" id="Rectangle-7" stroke="#979797" fill="#D8D8D8"></path>
        <path d="M172.5,99.5236232 L168.5,99.5026309 L168.5,130.5 L172.5,130.5 L172.5,99.5236232 Z" id="Rectangle-7-Copy" stroke="#979797" fill="#D8D8D8"></path>
        <path d="M208.29407,22 C211.856835,22 213.638218,24.1001564 213.638218,27.250391 L213.638218,29.5755641 C213.638218,32.9883182 211.613067,35.1259774 207.825285,35.1259774 L204,35.1259774 L204,22 L208.29407,22 Z M211.275542,29.6130669 L211.275542,27.1941368 C211.275542,25.0564776 210.262966,23.8188854 208.181561,23.8188854 L206.362676,23.8188854 L206.362676,33.3070919 L207.844036,33.3070919 C210.131707,33.3070919 211.275542,32.1070026 211.275542,29.6130669 Z" id="D-Copy" fill="#8D9EB0"></path>
        <path d="M271,22.4965957 C271,22.2223335 271.231934,22 271.5,22 L271.5,22 C271.776142,22 272,22.2317429 272,22.4965957 L272,85.5034043 C272,85.7776665 271.768066,86 271.5,86 L271.5,86 C271.223858,86 271,85.7682571 271,85.5034043 L271,22.4965957 Z" id="Rectangle-93-Copy" fill="#8D9EB0"></path>
        <path d="M145,22.4965957 C145,22.2223335 145.231934,22 145.5,22 L145.5,22 C145.776142,22 146,22.2317429 146,22.4965957 L146,85.5034043 C146,85.7776665 145.768066,86 145.5,86 L145.5,86 C145.223858,86 145,85.7682571 145,85.5034043 L145,22.4965957 Z" id="Rectangle-93-Copy-2" fill="#8D9EB0"></path>
        <path d="M89,22.4965957 C89,22.2223335 89.2319336,22 89.5,22 L89.5,22 C89.7761424,22 90,22.2317429 90,22.4965957 L90,85.5034043 C90,85.7776665 89.7680664,86 89.5,86 L89.5,86 C89.2238576,86 89,85.7682571 89,85.5034043 L89,22.4965957 Z" id="Rectangle-93-Copy-4" fill="#8D9EB0"></path>
        <path d="M17,22.4965957 C17,22.2223335 17.2319336,22 17.5,22 L17.5,22 C17.7761424,22 18,22.2317429 18,22.4965957 L18,85.5034043 C18,85.7776665 17.7680664,86 17.5,86 L17.5,86 C17.2238576,86 17,85.7682571 17,85.5034043 L17,22.4965957 Z" id="Rectangle-93-Copy-3" fill="#8D9EB0"></path>
        <g id="left-arrow-copy" transform="translate(146.000000, 26.000000)" fill="#8D9EB0">
            <g id="triangle" transform="translate(3.000000, 2.500000) scale(-1, 1) translate(-3.000000, -2.500000) ">
                <path d="M2.88775351,-0.425866237 C2.98755721,-0.684554916 3.15206769,-0.677565105 3.24917468,-0.425866237 L5.40050076,5.1503168 C5.50030446,5.40900548 5.36527212,5.61871408 5.08097484,5.61871408 L1.05595335,5.61871408 C0.779680363,5.61871408 0.639320451,5.40201566 0.736427439,5.1503168 L2.88775351,-0.425866237 Z" id="Triangle-1" transform="translate(3.069450, 2.500722) rotate(90.000000) translate(-3.069450, -2.500722) "></path>
            </g>
            <path d="M5,2.39596207 C5,2.11622249 5.21400452,1.88944875 5.50658488,1.88944875 L52.4934151,1.88944875 C52.7731942,1.88944875 53,2.10428865 53,2.39596207 L53,2.3092346 C53,2.58897418 52.7859955,2.81574792 52.4934151,2.81574792 L5.50658488,2.81574792 C5.22680578,2.81574792 5,2.60090803 5,2.3092346 L5,2.39596207 Z" id="Rectangle-144"></path>
        </g>
        <g id="left-arrow-copy-3" transform="translate(17.000000, 26.000000)" fill="#8D9EB0">
            <g id="triangle" transform="translate(4.000000, 2.500000) scale(-1, 1) translate(-4.000000, -2.500000) ">
                <path d="M3.88775351,-0.425866237 C3.98755721,-0.684554916 4.15206769,-0.677565105 4.24917468,-0.425866237 L6.40050076,5.1503168 C6.50030446,5.40900548 6.36527212,5.61871408 6.08097484,5.61871408 L2.05595335,5.61871408 C1.77968036,5.61871408 1.63932045,5.40201566 1.73642744,5.1503168 L3.88775351,-0.425866237 Z" id="Triangle-1" transform="translate(4.069450, 2.500722) rotate(90.000000) translate(-4.069450, -2.500722) "></path>
            </g>
            <path d="M6,2.39596207 C6,2.11622249 6.22226536,1.88944875 6.50127411,1.88944875 L29.4987259,1.88944875 C29.7755719,1.88944875 30,2.10428865 30,2.39596207 L30,2.3092346 C30,2.58897418 29.7777346,2.81574792 29.4987259,2.81574792 L6.50127411,2.81574792 C6.22442806,2.81574792 6,2.60090803 6,2.3092346 L6,2.39596207 Z" id="Rectangle-144"></path>
        </g>
        <g id="left-arrow-copy-2" transform="translate(244.500000, 28.500000) scale(-1, 1) translate(-244.500000, -28.500000) translate(218.000000, 26.000000)" fill="#8D9EB0">
            <g id="triangle" transform="translate(3.000000, 2.500000) scale(-1, 1) translate(-3.000000, -2.500000) ">
                <path d="M2.88775351,-0.425866237 C2.98755721,-0.684554916 3.15206769,-0.677565105 3.24917468,-0.425866237 L5.40050076,5.1503168 C5.50030446,5.40900548 5.36527212,5.61871408 5.08097484,5.61871408 L1.05595335,5.61871408 C0.779680363,5.61871408 0.639320451,5.40201566 0.736427439,5.1503168 L2.88775351,-0.425866237 Z" id="Triangle-1" transform="translate(3.069450, 2.500722) rotate(90.000000) translate(-3.069450, -2.500722) "></path>
            </g>
            <path d="M5,2.39596207 C5,2.11622249 5.21400452,1.88944875 5.50658488,1.88944875 L52.4934151,1.88944875 C52.7731942,1.88944875 53,2.10428865 53,2.39596207 L53,2.3092346 C53,2.58897418 52.7859955,2.81574792 52.4934151,2.81574792 L5.50658488,2.81574792 C5.22680578,2.81574792 5,2.60090803 5,2.3092346 L5,2.39596207 Z" id="Rectangle-144"></path>
        </g>
        <g id="left-arrow-copy-4" transform="translate(75.000000, 28.500000) scale(-1, 1) translate(-75.000000, -28.500000) translate(60.000000, 26.000000)" fill="#8D9EB0">
            <g id="triangle" transform="translate(4.000000, 2.500000) scale(-1, 1) translate(-4.000000, -2.500000) ">
                <path d="M3.88775351,-0.425866237 C3.98755721,-0.684554916 4.15206769,-0.677565105 4.24917468,-0.425866237 L6.40050076,5.1503168 C6.50030446,5.40900548 6.36527212,5.61871408 6.08097484,5.61871408 L2.05595335,5.61871408 C1.77968036,5.61871408 1.63932045,5.40201566 1.73642744,5.1503168 L3.88775351,-0.425866237 Z" id="Triangle-1" transform="translate(4.069450, 2.500722) rotate(90.000000) translate(-4.069450, -2.500722) "></path>
            </g>
            <path d="M6,2.39596207 C6,2.11622249 6.22226536,1.88944875 6.50127411,1.88944875 L29.4987259,1.88944875 C29.7755719,1.88944875 30,2.10428865 30,2.39596207 L30,2.3092346 C30,2.58897418 29.7777346,2.81574792 29.4987259,2.81574792 L6.50127411,2.81574792 C6.22442806,2.81574792 6,2.60090803 6,2.3092346 L6,2.39596207 Z" id="Rectangle-144"></path>
        </g>
        <g id="Group-5" transform="translate(108.000000, 89.500000) scale(1, -1) translate(-108.000000, -89.500000) translate(105.000000, 81.000000)" fill="#8D9EB0">
            <g id="triangle" transform="translate(3.277118, 4.412196) rotate(-90.000000) translate(-3.277118, -4.412196) translate(-0.722882, 1.912196)">
                <path d="M3.88775351,-0.425866237 C3.98755721,-0.684554916 4.15206769,-0.677565105 4.24917468,-0.425866237 L6.40050076,5.1503168 C6.50030446,5.40900548 6.36527212,5.61871408 6.08097484,5.61871408 L2.05595335,5.61871408 C1.77968036,5.61871408 1.63932045,5.40201566 1.73642744,5.1503168 L3.88775351,-0.425866237 Z" id="Triangle-1" transform="translate(4.069450, 2.500722) rotate(90.000000) translate(-4.069450, -2.500722) "></path>
            </g>
            <path d="M2.77711804,4.91254375 C2.77711804,4.63620956 3.00905164,4.41219643 3.27711804,4.41219643 L3.27711804,4.41219643 C3.55326042,4.41219643 3.77711804,4.641197 3.77711804,4.91254375 L3.77711804,15.9118491 C3.77711804,16.1881833 3.54518445,16.4121964 3.27711804,16.4121964 L3.27711804,16.4121964 C3.00097567,16.4121964 2.77711804,16.1831959 2.77711804,15.9118491 L2.77711804,4.91254375 Z" id="Rectangle-134"></path>
        </g>
        <path d="M36.9128658,130.637771 C39.2005362,130.637771 40.7006479,132.475408 40.7006479,135.363123 L40.7006479,136.375698 C40.7006479,139.132153 38.9192652,141.119801 36.6315949,141.119801 C35.5627653,141.119801 34.7002011,140.726022 34.0063994,140.013469 L33.8188854,140.876033 L32,140.876033 L32,127 L34.3251731,127 L34.3251731,131.669098 C34.9627206,131.012799 35.8252848,130.637771 36.9128658,130.637771 Z M38.3754747,136.450704 L38.3754747,135.288117 C38.3754747,133.337972 37.7191759,132.400402 36.4440809,132.400402 C35.5440139,132.400402 34.8314608,132.831684 34.3251731,133.469232 L34.3251731,138.532109 C34.8314608,139.075899 35.4690083,139.375922 36.2378156,139.375922 C37.5316619,139.375922 38.3754747,138.363346 38.3754747,136.450704 Z" id="b" fill="#8D9EB0"></path>
        <path d="M213.775653,143.856612 C213.775653,144.269142 213.738151,144.681673 213.700648,144.981695 L207.268919,144.981695 C207.306422,146.894338 208.187737,147.738151 209.912866,147.738151 C211.000447,147.738151 211.806757,147.344371 212.575564,146.913089 L213.400626,148.300693 C212.556813,148.93824 211.206712,149.482031 209.762855,149.482031 C206.725128,149.482031 205,147.475631 205,144.77543 L205,143.744103 C205,141.043902 206.687626,139 209.462832,139 C212.181785,139 213.775653,140.687626 213.775653,143.856612 Z M211.694248,143.462832 L211.694248,143.369075 C211.694248,141.643947 210.925441,140.706377 209.481584,140.706377 C208.056478,140.706377 207.306422,141.643947 207.268919,143.462832 L211.694248,143.462832 Z" id="e" fill="#8D9EB0"></path>
        <g id="Group-4-Copy-3" transform="translate(79.000000, 44.000000)" fill="#8D9EB0">
            <path d="M0,1.5 C0,1.22385763 0.216426658,1 0.505401073,1 L33.3864447,1 C33.66557,1 33.8918458,1.23193359 33.8918458,1.5 L33.8918458,1.5 C33.8918458,1.77614237 33.6754191,2 33.3864447,2 L0.505401073,2 C0.226275768,2 0,1.76806641 0,1.5 L0,1.5 Z" id="Rectangle-132-Copy"></path>
            <path d="M17,53.5 C17,53.2238576 17.2149428,53 17.4904432,53 L33.5095568,53 C33.7804211,53 34,53.2319336 34,53.5 L34,53.5 C34,53.7761424 33.7850572,54 33.5095568,54 L17.4904432,54 C17.2195789,54 17,53.7680664 17,53.5 L17,53.5 Z" id="Rectangle-132-Copy-2"></path>
            <g id="Group" transform="translate(26.016614, 0.260951)">
                <g id="triangle" transform="translate(3.184082, 4.484497) rotate(-90.000000) translate(-3.184082, -4.484497) translate(-0.815918, 1.984497)">
                    <path d="M3.88775351,-0.425866237 C3.98755721,-0.684554916 4.15206769,-0.677565105 4.24917468,-0.425866237 L6.40050076,5.1503168 C6.50030446,5.40900548 6.36527212,5.61871408 6.08097484,5.61871408 L2.05595335,5.61871408 C1.77968036,5.61871408 1.63932045,5.40201566 1.73642744,5.1503168 L3.88775351,-0.425866237 Z" id="Triangle-1" transform="translate(4.069450, 2.500722) rotate(90.000000) translate(-4.069450, -2.500722) "></path>
                </g>
                <path d="M2.68408203,4.98484439 C2.68408203,4.70851019 2.91601562,4.48449707 3.18408203,4.48449707 L3.18408203,4.48449707 C3.46022441,4.48449707 3.68408203,4.71349764 3.68408203,4.98484439 L3.68408203,15.9841498 C3.68408203,16.2604839 3.45214844,16.4844971 3.18408203,16.4844971 L3.18408203,16.4844971 C2.90793966,16.4844971 2.68408203,16.2554965 2.68408203,15.9841498 L2.68408203,4.98484439 Z" id="Rectangle-134"></path>
            </g>
        </g>
        <g id="Group-2" transform="translate(102.000000, 65.000000)" fill="#8D9EB0">
            <path d="M9.57051537,13.5617065 L8.48293439,10.1114496 L3.94509649,10.1114496 L2.95127249,13.5617065 L0.569845163,13.5617065 L4.58264396,0.435729156 L7.78913273,0.435729156 L12.0081969,13.5617065 L9.57051537,13.5617065 Z M6.17651265,2.08585203 L4.47013559,8.21755861 L7.9203925,8.21755861 L6.17651265,2.08585203 Z" id="A"></path>
        </g>
        <g id="Group-4-Copy-2" transform="translate(53.500000, 136.000000) rotate(90.000000) translate(-53.500000, -136.000000) translate(48.500000, 123.500000)" fill="#8D9EB0">
            <path d="M0.664317104,9 L8.32205413,9 L9.67647516,9 C9.85515299,9 10,9.23193359 10,9.5 C10,9.77614237 9.85597211,10 9.67864739,10 L0.66294191,10 C0.485463765,10 0.341589302,9.76806641 0.341589302,9.5 C0.341589302,9.22385763 0.480105213,9 0.664317104,9 Z" id="Rectangle-132-Copy-5"></path>
            <path d="M0.66294191,15 L9.67864739,15 C9.85612554,15 10,15.2319336 10,15.5 C10,15.7761424 9.85597211,16 9.67864739,16 L0.66294191,16 C0.485463765,16 0.341589302,15.7680664 0.341589302,15.5 C0.341589302,15.2238576 0.485617195,15 0.66294191,15 Z" id="Rectangle-132-Copy-6"></path>
            <g id="Group-Copy-2" transform="translate(4.701569, 4.451172) scale(1, -1) translate(-4.701569, -4.451172) translate(2.701569, 0.451172)">
                <g id="triangle" transform="translate(1.915442, 2.484497) rotate(-90.000000) translate(-1.915442, -2.484497) translate(-1.084558, -0.015503)">
                    <path d="M2.88775351,-0.425866237 C2.98755721,-0.684554916 3.15206769,-0.677565105 3.24917468,-0.425866237 L5.40050076,5.1503168 C5.50030446,5.40900548 5.36527212,5.61871408 5.08097484,5.61871408 L1.05595335,5.61871408 C0.779680363,5.61871408 0.639320451,5.40201566 0.736427439,5.1503168 L2.88775351,-0.425866237 Z" id="Triangle-1" transform="translate(3.069450, 2.500722) rotate(90.000000) translate(-3.069450, -2.500722) "></path>
                </g>
                <path d="M1.41544212,2.97538253 C1.41544212,2.70427398 1.64737571,2.48449707 1.91544212,2.48449707 L1.91544212,2.48449707 C2.1915845,2.48449707 2.41544212,2.70921032 2.41544212,2.97538253 L2.41544212,6.92516333 C2.41544212,7.19627188 2.18350853,7.41604878 1.91544212,7.41604878 L1.91544212,7.41604878 C1.63929975,7.41604878 1.41544212,7.19133553 1.41544212,6.92516333 L1.41544212,2.97538253 Z" id="Rectangle-134"></path>
            </g>
            <g id="Group-Copy-2" transform="translate(2.617011, 16.451172)">
                <g id="triangle" transform="translate(2.184082, 2.484497) rotate(-90.000000) translate(-2.184082, -2.484497) translate(-0.815918, -0.015503)">
                    <path d="M2.88775351,-0.425866237 C2.98755721,-0.684554916 3.15206769,-0.677565105 3.24917468,-0.425866237 L5.40050076,5.1503168 C5.50030446,5.40900548 5.36527212,5.61871408 5.08097484,5.61871408 L1.05595335,5.61871408 C0.779680363,5.61871408 0.639320451,5.40201566 0.736427439,5.1503168 L2.88775351,-0.425866237 Z" id="Triangle-1" transform="translate(3.069450, 2.500722) rotate(90.000000) translate(-3.069450, -2.500722) "></path>
                </g>
                <path d="M1.68408203,2.97538253 C1.68408203,2.70427398 1.91601562,2.48449707 2.18408203,2.48449707 L2.18408203,2.48449707 C2.46022441,2.48449707 2.68408203,2.70921032 2.68408203,2.97538253 L2.68408203,6.92516333 C2.68408203,7.19627188 2.45214844,7.41604878 2.18408203,7.41604878 L2.18408203,7.41604878 C1.90793966,7.41604878 1.68408203,7.19133553 1.68408203,6.92516333 L1.68408203,2.97538253 Z" id="Rectangle-134"></path>
            </g>
        </g>
        <g id="Group-4-Copy" transform="translate(209.000000, 147.000000) rotate(90.000000) translate(-209.000000, -147.000000) translate(197.000000, 107.000000)" fill="#8D9EB0">
            <path d="M0,0.5 C0,0.223857625 0.22270586,1.02318154e-12 0.490194964,1.02318154e-12 L19.8305044,1.02318154e-12 L23.5053308,1.02318154e-12 C23.778529,1.02318154e-12 24,0.231933594 24,0.5 L24,0.5 C24,0.776142375 23.7777346,1 23.4987259,1 L0.501274109,1 C0.224428063,1 0,0.768066406 0,0.5 L0,0.5 Z" id="Rectangle-132-Copy-5"></path>
            <path d="M0,78.5 C0,78.2238576 0.222265363,78 0.501274109,78 L23.4987259,78 C23.7755719,78 24,78.2319336 24,78.5 L24,78.5 C24,78.7761424 23.7777346,79 23.4987259,79 L0.501274109,79 C0.224428063,79 0,78.7680664 0,78.5 L0,78.5 Z" id="Rectangle-132-Copy-6"></path>
            <g id="Group-Copy-2" transform="translate(9.701569, 62.951172) scale(1, -1) translate(-9.701569, -62.951172) translate(6.701569, 46.451172)">
                <g id="triangle" transform="translate(2.915442, 4.484497) rotate(-90.000000) translate(-2.915442, -4.484497) translate(-1.084558, 1.984497)">
                    <path d="M3.88775351,-0.425866237 C3.98755721,-0.684554916 4.15206769,-0.677565105 4.24917468,-0.425866237 L6.40050076,5.1503168 C6.50030446,5.40900548 6.36527212,5.61871408 6.08097484,5.61871408 L2.05595335,5.61871408 C1.77968036,5.61871408 1.63932045,5.40201566 1.73642744,5.1503168 L3.88775351,-0.425866237 Z" id="Triangle-1" transform="translate(4.069450, 2.500722) rotate(90.000000) translate(-4.069450, -2.500722) "></path>
                </g>
                <path d="M2.41544212,4.9943915 C2.41544212,4.71278458 2.64737571,4.48449707 2.91544212,4.48449707 L2.91544212,4.48449707 C3.1915845,4.48449707 3.41544212,4.70988148 3.41544212,4.9943915 L3.41544212,31.9746026 C3.41544212,32.2562096 3.18350853,32.4844971 2.91544212,32.4844971 L2.91544212,32.4844971 C2.63929975,32.4844971 2.41544212,32.2591127 2.41544212,31.9746026 L2.41544212,4.9943915 Z" id="Rectangle-134"></path>
            </g>
            <g id="Group-Copy-2" transform="translate(6.617011, 0.000000)">
                <g id="triangle" transform="translate(3.184082, 4.484497) rotate(-90.000000) translate(-3.184082, -4.484497) translate(-0.815918, 1.984497)">
                    <path d="M3.88775351,-0.425866237 C3.98755721,-0.684554916 4.15206769,-0.677565105 4.24917468,-0.425866237 L6.40050076,5.1503168 C6.50030446,5.40900548 6.36527212,5.61871408 6.08097484,5.61871408 L2.05595335,5.61871408 C1.77968036,5.61871408 1.63932045,5.40201566 1.73642744,5.1503168 L3.88775351,-0.425866237 Z" id="Triangle-1" transform="translate(4.069450, 2.500722) rotate(90.000000) translate(-4.069450, -2.500722) "></path>
                </g>
                <path d="M2.68408203,4.9943915 C2.68408203,4.71278458 2.91601562,4.48449707 3.18408203,4.48449707 L3.18408203,4.48449707 C3.46022441,4.48449707 3.68408203,4.70988148 3.68408203,4.9943915 L3.68408203,31.9746026 C3.68408203,32.2562096 3.45214844,32.4844971 3.18408203,32.4844971 L3.18408203,32.4844971 C2.90793966,32.4844971 2.68408203,32.2591127 2.68408203,31.9746026 L2.68408203,4.9943915 Z" id="Rectangle-134"></path>
            </g>
        </g>
        <path d="M34,47 L73,47 C77.418278,47 81,50.581722 81,55 L81,94 C81,96.209139 79.209139,98 77,98 L31,98 C28.2385763,98 26,95.7614237 26,93 L26,55 C26,50.581722 29.581722,47 34,47 Z" id="Rectangle-24-Copy" fill="url(#linearGradient-1)" opacity="0.758816964"></path>
        <path d="M163,47 L254,47 C258.418278,47 262,50.581722 262,55 L262,94 C262,96.209139 260.209139,98 258,98 L160,98 C157.238576,98 155,95.7614237 155,93 L155,55 C155,50.581722 158.581722,47 163,47 Z" id="Rectangle-24-Copy-2" fill="url(#linearGradient-2)" opacity="0.758816964"></path>
        <path d="M26.5,90.5 L81,90.5" id="Line-4" stroke="#6D6C6C" stroke-linecap="square" fill-rule="nonzero"></path>
        <path d="M154.5,90.5 L262.5,90.5" id="Line-4-Copy" stroke="#6D6C6C" stroke-linecap="square" fill-rule="nonzero"></path>
        <polygon id="E" fill="#8D9EB0" points="57.6693211 23.8188854 52.3626759 23.8188854 52.3626759 27.5504133 57.2567904 27.5504133 57.2567904 29.3692987 52.3626759 29.3692987 52.3626759 33.2883406 57.6693211 33.2883406 57.6693211 35.1259774 50 35.1259774 50 22 57.6693211 22"></polygon>
    </g>
</svg>
