<?xml version="1.0" encoding="UTF-8"?>
<svg width="290px" height="175px" viewBox="0 0 290 175" version="1.1" xmlns="http://www.w3.org/2000/svg" xmlns:xlink="http://www.w3.org/1999/xlink">
    <!-- Generator: Sketch 52.3 (67297) - http://www.bohemiancoding.com/sketch -->
    <title>Crystal-Labeled</title>
    <desc>Created with Sketch.</desc>
    <defs>
        <polygon id="path-1" points="0 0 28.2042515 0 28.2042515 3.22701538 0 3.22701538"></polygon>
        <mask id="mask-2" maskContentUnits="userSpaceOnUse" maskUnits="objectBoundingBox" x="0" y="0" width="28.2042515" height="3.22701538" fill="white">
            <use xlink:href="#path-1"></use>
        </mask>
        <polygon id="path-3" points="78.325 0 106.529252 0 106.529252 3.22701538 78.325 3.22701538"></polygon>
        <mask id="mask-4" maskContentUnits="userSpaceOnUse" maskUnits="objectBoundingBox" x="0" y="0" width="28.2042515" height="3.22701538" fill="white">
            <use xlink:href="#path-3"></use>
        </mask>
        <rect id="path-5" x="0" y="0" width="24.7386363" height="9.07641602"></rect>
        <mask id="mask-6" maskContentUnits="userSpaceOnUse" maskUnits="objectBoundingBox" x="0" y="0" width="24.7386363" height="9.07641602" fill="white">
            <use xlink:href="#path-5"></use>
        </mask>
        <rect id="path-7" x="81.0020022" y="0" width="24.7386363" height="9.07641602"></rect>
        <mask id="mask-8" maskContentUnits="userSpaceOnUse" maskUnits="objectBoundingBox" x="0" y="0" width="24.7386363" height="9.07641602" fill="white">
            <use xlink:href="#path-7"></use>
        </mask>
    </defs>
    <g id="Crystal-Labeled" stroke="none" stroke-width="1" fill="none" fill-rule="evenodd">
        <rect x="0" y="0" width="290" height="175"></rect>
        <g id="Crystal" transform="translate(19.447562, -7.732386)">
            <g id="Group-4" transform="translate(67.282476, 20.561719)">
                <g id="Group-6" transform="translate(0.000000, 1.062891)">
                    <path d="M9.44838511,34.135722 L96.9866623,34.135722 L96.9866623,6.06054688 C96.9866623,3.5752655 94.9719437,1.56054688 92.4866623,1.56054687 L13.9483851,1.56054687 C11.4631037,1.56054687 9.44838511,3.5752655 9.44838511,6.06054688 L9.44838511,34.135722 Z" id="Rectangle" stroke="#979797" fill="#D8D8D8"></path>
                    <g id="Group-5" transform="translate(0.000000, 1.200000)">
                        <path d="M4.36648295,30.9798828 L4.36648295,37.1787109 L102.068564,37.1787109 L102.068564,30.9798828 L4.36648295,30.9798828 Z" id="Rectangle" stroke="#979797" fill="#C7C2C2"></path>
                        <g id="Group-3" transform="translate(9.599402, 0.096631)"></g>
                        <path d="M10.2405643,10.1387604 C10.2311224,7.38913725 8.71783864,1.27705078 15.40653,1.08124048 C16.2613197,1.05621666 18.2046381,1.06020831 21.2364851,1.09321544 L21.2750901,30.5285156 L10.193697,30.5285156 C10.1802269,23.0937292 10.1958493,16.2971441 10.2405643,10.1387604 Z" id="Rectangle-Copy" fill="#A8A8A8" opacity="0.521222015"></path>
                        <path d="M85.3597819,10.1387604 C85.3503399,7.38913725 83.8370562,1.27705078 90.5257476,1.08124048 C91.3805373,1.05621666 93.3238556,1.06020831 96.3557026,1.09321544 L96.3943076,30.5285156 L85.3129145,30.5285156 C85.2994444,23.0937292 85.3150669,16.2971441 85.3597819,10.1387604 Z" id="Rectangle-Copy-2" fill="#A8A8A8" opacity="0.521222015" transform="translate(90.800428, 15.796785) scale(-1, 1) translate(-90.800428, -15.796785) "></path>
                        <path d="M1.705,36.5 L1.705,42.8959532 L104.867679,42.8959532 L104.867679,36.5 L1.705,36.5 Z" id="Rectangle-6" stroke="#979797" fill="#585858"></path>
                        <g id="Group" transform="translate(0.000000, 40.112138)" fill="#D8D8D8" stroke="#979797" stroke-dasharray="5,1">
                            <use id="Rectangle-7" mask="url(#mask-2)" xlink:href="#path-1"></use>
                            <use id="Rectangle-7-Copy" mask="url(#mask-4)" transform="translate(92.427126, 1.613508) scale(-1, 1) translate(-92.427126, -1.613508) " xlink:href="#path-3"></use>
                        </g>
                    </g>
                </g>
                <path d="M3.70553005,87.2841106 L3.70553005,125.776298 L104.868209,125.776298 L104.868209,87.2841106 L3.70553005,87.2841106 Z" id="Rectangle-8" stroke="#979797" stroke-width="3" fill="#D8D8D8"></path>
                <g id="Group-2" transform="translate(1.166379, 101.343681)" fill="#D8D8D8" stroke="#979797" stroke-dasharray="2,1" stroke-width="2">
                    <use id="Rectangle-2" mask="url(#mask-6)" xlink:href="#path-5"></use>
                    <use id="Rectangle-2-Copy" mask="url(#mask-8)" xlink:href="#path-7"></use>
                </g>
            </g>
        </g>
        <g id="Group-2-Copy" transform="translate(72.784912, 127.326815) scale(1, -1) translate(-72.784912, -127.326815) translate(70.784912, 123.826815)" fill="#8D9EB0">
            <g id="triangle" transform="translate(2.184082, 5.000000) rotate(90.000000) translate(-2.184082, -5.000000) translate(-0.815918, 2.500000)">
                <path d="M2.88775351,-0.425866237 C2.98755721,-0.684554916 3.15206769,-0.677565105 3.24917468,-0.425866237 L5.40050076,5.1503168 C5.50030446,5.40900548 5.36527212,5.61871408 5.08097484,5.61871408 L1.05595335,5.61871408 C0.779680363,5.61871408 0.639320451,5.40201566 0.736427439,5.1503168 L2.88775351,-0.425866237 Z" id="Triangle-1" transform="translate(3.069450, 2.500722) rotate(90.000000) translate(-3.069450, -2.500722) "></path>
            </g>
            <rect id="Rectangle-157" x="1.68408203" y="0" width="1" height="5" rx="0.5"></rect>
        </g>
        <polygon id="E" fill="#8D9EB0" points="218.755818 114.299415 213.449173 114.299415 213.449173 118.030943 218.343288 118.030943 218.343288 119.849828 213.449173 119.849828 213.449173 123.76887 218.755818 123.76887 218.755818 125.606507 211.086497 125.606507 211.086497 112.480529 218.755818 112.480529"></polygon>
        <rect id="Rectangle-93" fill="#8D9EB0" x="192.215088" y="59.5644531" width="1" height="15" rx="0.5"></rect>
        <g id="left-arrow" transform="translate(164.085449, 69.694553)" fill="#8D9EB0">
            <g id="triangle" transform="translate(4.000000, 2.500000) scale(-1, 1) translate(-4.000000, -2.500000) translate(0.000000, -0.000000)">
                <path d="M3.88775351,-0.425866237 C3.98755721,-0.684554916 4.15206769,-0.677565105 4.24917468,-0.425866237 L6.40050076,5.1503168 C6.50030446,5.40900548 6.36527212,5.61871408 6.08097484,5.61871408 L2.05595335,5.61871408 C1.77968036,5.61871408 1.63932045,5.40201566 1.73642744,5.1503168 L3.88775351,-0.425866237 Z" id="Triangle-1" transform="translate(4.069450, 2.500722) rotate(90.000000) translate(-4.069450, -2.500722) "></path>
            </g>
            <path d="M3.85259834,2.39596207 C3.85259834,2.11622249 4.08441303,1.88944875 4.35047309,1.88944875 L8.74968384,1.88944875 C9.02465248,1.88944875 9.24755859,2.10428865 9.24755859,2.39596207 L9.24755859,2.3092346 C9.24755859,2.58897418 9.0157439,2.81574792 8.74968384,2.81574792 L4.35047309,2.81574792 C4.07550445,2.81574792 3.85259834,2.60090803 3.85259834,2.3092346 L3.85259834,2.39596207 Z" id="Rectangle-144"></path>
        </g>
        <g id="left-arrow-copy" transform="translate(187.500000, 72.194553) scale(-1, 1) translate(-187.500000, -72.194553) translate(183.000000, 69.694553)" fill="#8D9EB0">
            <g id="triangle" transform="translate(3.000000, 2.500000) scale(-1, 1) translate(-3.000000, -2.500000) translate(0.000000, -0.000000)">
                <path d="M2.88775351,-0.425866237 C2.98755721,-0.684554916 3.15206769,-0.677565105 3.24917468,-0.425866237 L5.40050076,5.1503168 C5.50030446,5.40900548 5.36527212,5.61871408 5.08097484,5.61871408 L1.05595335,5.61871408 C0.779680363,5.61871408 0.639320451,5.40201566 0.736427439,5.1503168 L2.88775351,-0.425866237 Z" id="Triangle-1" transform="translate(3.069450, 2.500722) rotate(90.000000) translate(-3.069450, -2.500722) "></path>
            </g>
            <path d="M2.85259834,2.39596207 C2.85259834,2.11622249 3.08441303,1.88944875 3.35047309,1.88944875 L7.74968384,1.88944875 C8.02465248,1.88944875 8.24755859,2.10428865 8.24755859,2.39596207 L8.24755859,2.3092346 C8.24755859,2.58897418 8.0157439,2.81574792 7.74968384,2.81574792 L3.35047309,2.81574792 C3.07550445,2.81574792 2.85259834,2.60090803 2.85259834,2.3092346 L2.85259834,2.39596207 Z" id="Rectangle-144"></path>
        </g>
        <path d="M75.2711587,91.3494131 C77.5588291,91.3494131 79.0589408,93.1870499 79.0589408,96.074765 L79.0589408,97.0873404 C79.0589408,99.8437956 77.2775581,101.831444 74.9898878,101.831444 C73.9210582,101.831444 73.058494,101.437664 72.3646923,100.725111 L72.1771784,101.587675 L70.3582929,101.587675 L70.3582929,87.7116422 L72.683466,87.7116422 L72.683466,92.3807399 C73.3210135,91.724441 74.1835778,91.3494131 75.2711587,91.3494131 Z M76.7337676,97.1623459 L76.7337676,95.9997594 C76.7337676,94.0496142 76.0774688,93.1120443 74.8023738,93.1120443 C73.9023068,93.1120443 73.1897537,93.5433265 72.683466,94.1808739 L72.683466,99.2437509 C73.1897537,99.7875414 73.8273012,100.087564 74.5961085,100.087564 C75.8899548,100.087564 76.7337676,99.0749884 76.7337676,97.1623459 Z" id="b" fill="#8D9EB0"></path>
        <g id="Group-3" transform="translate(86.219896, 85.796006)" fill="#8D9EB0">
            <g id="triangle" transform="translate(2.026855, 1.500000) scale(-1, 1) translate(-2.026855, -1.500000) translate(-0.973145, -1.000000)">
                <path d="M2.88775351,-0.425866237 C2.98755721,-0.684554916 3.15206769,-0.677565105 3.24917468,-0.425866237 L5.40050076,5.1503168 C5.50030446,5.40900548 5.36527212,5.61871408 5.08097484,5.61871408 L1.05595335,5.61871408 C0.779680363,5.61871408 0.639320451,5.40201566 0.736427439,5.1503168 L2.88775351,-0.425866237 Z" id="Triangle-1" transform="translate(3.069450, 2.500722) rotate(90.000000) translate(-3.069450, -2.500722) "></path>
            </g>
            <path d="M1.8794538,1.39596207 C1.8794538,1.11622249 2.10655267,0.889448752 2.3832439,0.889448752 L47.6388622,0.889448752 C47.9170978,0.889448752 48.1426523,1.10428865 48.1426523,1.39596207 L48.1426523,1.3092346 C48.1426523,1.58897418 47.9155534,1.81574792 47.6388622,1.81574792 L2.3832439,1.81574792 C2.10500831,1.81574792 1.8794538,1.60090803 1.8794538,1.3092346 L1.8794538,1.39596207 Z" id="Rectangle-144"></path>
        </g>
        <g id="Group-3-Copy" transform="translate(92.219896, 150.871128)" fill="#8D9EB0">
            <g id="triangle" transform="translate(2.026855, 1.500000) scale(-1, 1) translate(-2.026855, -1.500000) translate(-0.973145, -1.000000)">
                <path d="M2.88775351,-0.425866237 C2.98755721,-0.684554916 3.15206769,-0.677565105 3.24917468,-0.425866237 L5.40050076,5.1503168 C5.50030446,5.40900548 5.36527212,5.61871408 5.08097484,5.61871408 L1.05595335,5.61871408 C0.779680363,5.61871408 0.639320451,5.40201566 0.736427439,5.1503168 L2.88775351,-0.425866237 Z" id="Triangle-1" transform="translate(3.069450, 2.500722) rotate(90.000000) translate(-3.069450, -2.500722) "></path>
            </g>
            <path d="M1.8794538,1.39596207 C1.8794538,1.11622249 2.10782743,0.889448752 2.38500672,0.889448752 L37.1366111,0.889448752 C37.4158202,0.889448752 37.642164,1.10428865 37.642164,1.39596207 L37.642164,1.3092346 C37.642164,1.58897418 37.4137904,1.81574792 37.1366111,1.81574792 L2.38500672,1.81574792 C2.10579755,1.81574792 1.8794538,1.60090803 1.8794538,1.3092346 L1.8794538,1.39596207 Z" id="Rectangle-144"></path>
        </g>
        <g id="Group-3-Copy" transform="translate(114.219896, 69.694553)" fill="#8D9EB0">
            <g id="triangle" transform="translate(4.026855, 2.500000) scale(-1, 1) translate(-4.026855, -2.500000) translate(0.026855, 0.000000)">
                <path d="M3.88775351,-0.425866237 C3.98755721,-0.684554916 4.15206769,-0.677565105 4.24917468,-0.425866237 L6.40050076,5.1503168 C6.50030446,5.40900548 6.36527212,5.61871408 6.08097484,5.61871408 L2.05595335,5.61871408 C1.77968036,5.61871408 1.63932045,5.40201566 1.73642744,5.1503168 L3.88775351,-0.425866237 Z" id="Triangle-1" transform="translate(4.069450, 2.500722) rotate(90.000000) translate(-4.069450, -2.500722) "></path>
            </g>
            <path d="M2.8794538,2.39596207 C2.8794538,2.11622249 3.10418133,1.88944875 3.36972609,1.88944875 L13.1486854,1.88944875 C13.4194553,1.88944875 13.6389577,2.10428865 13.6389577,2.39596207 L13.6389577,2.3092346 C13.6389577,2.58897418 13.4142301,2.81574792 13.1486854,2.81574792 L3.36972609,2.81574792 C3.09895618,2.81574792 2.8794538,2.60090803 2.8794538,2.3092346 L2.8794538,2.39596207 Z" id="Rectangle-144"></path>
        </g>
        <g id="Group-3-Copy" transform="translate(158.219896, 72.194553) scale(-1, 1) translate(-158.219896, -72.194553) translate(152.219896, 69.694553)" fill="#8D9EB0">
            <g id="triangle" transform="translate(3.026855, 2.500000) scale(-1, 1) translate(-3.026855, -2.500000) translate(0.026855, 0.000000)">
                <path d="M2.88775351,-0.425866237 C2.98755721,-0.684554916 3.15206769,-0.677565105 3.24917468,-0.425866237 L5.40050076,5.1503168 C5.50030446,5.40900548 5.36527212,5.61871408 5.08097484,5.61871408 L1.05595335,5.61871408 C0.779680363,5.61871408 0.639320451,5.40201566 0.736427439,5.1503168 L2.88775351,-0.425866237 Z" id="Triangle-1" transform="translate(3.069450, 2.500722) rotate(90.000000) translate(-3.069450, -2.500722) "></path>
            </g>
            <path d="M3.8794538,2.39596207 C3.8794538,2.11622249 4.1033124,1.88944875 4.38857653,1.88944875 L11.129835,1.88944875 C11.4110157,1.88944875 11.6389577,2.10428865 11.6389577,2.39596207 L11.6389577,2.3092346 C11.6389577,2.58897418 11.4150991,2.81574792 11.129835,2.81574792 L4.38857653,2.81574792 C4.10739581,2.81574792 3.8794538,2.60090803 3.8794538,2.3092346 L3.8794538,2.39596207 Z" id="Rectangle-144"></path>
        </g>
        <g id="Group-3" transform="translate(173.219896, 87.296006) scale(-1, 1) translate(-173.219896, -87.296006) translate(152.219896, 85.796006)" fill="#8D9EB0">
            <g id="triangle" transform="translate(2.026855, 1.500000) scale(-1, 1) translate(-2.026855, -1.500000) translate(-0.973145, -1.000000)">
                <path d="M2.88775351,-0.425866237 C2.98755721,-0.684554916 3.15206769,-0.677565105 3.24917468,-0.425866237 L5.40050076,5.1503168 C5.50030446,5.40900548 5.36527212,5.61871408 5.08097484,5.61871408 L1.05595335,5.61871408 C0.779680363,5.61871408 0.639320451,5.40201566 0.736427439,5.1503168 L2.88775351,-0.425866237 Z" id="Triangle-1" transform="translate(3.069450, 2.500722) rotate(90.000000) translate(-3.069450, -2.500722) "></path>
            </g>
            <path d="M1.8794538,1.39596207 C1.8794538,1.11622249 2.10526067,0.889448752 2.38037776,0.889448752 L47.3785298,0.889448752 C47.6551825,0.889448752 47.8794538,1.10428865 47.8794538,1.39596207 L47.8794538,1.3092346 C47.8794538,1.58897418 47.6536469,1.81574792 47.3785298,1.81574792 L2.38037776,1.81574792 C2.1037251,1.81574792 1.8794538,1.60090803 1.8794538,1.3092346 L1.8794538,1.39596207 Z" id="Rectangle-144"></path>
        </g>
        <g id="Group-3-Copy-2" transform="translate(172.719896, 152.371128) scale(-1, 1) translate(-172.719896, -152.371128) translate(153.219896, 149.871128)" fill="#8D9EB0">
            <g id="triangle" transform="translate(3.026855, 2.500000) scale(-1, 1) translate(-3.026855, -2.500000) translate(0.026855, 0.000000)">
                <path d="M2.88775351,-0.425866237 C2.98755721,-0.684554916 3.15206769,-0.677565105 3.24917468,-0.425866237 L5.40050076,5.1503168 C5.50030446,5.40900548 5.36527212,5.61871408 5.08097484,5.61871408 L1.05595335,5.61871408 C0.779680363,5.61871408 0.639320451,5.40201566 0.736427439,5.1503168 L2.88775351,-0.425866237 Z" id="Triangle-1" transform="translate(3.069450, 2.500722) rotate(90.000000) translate(-3.069450, -2.500722) "></path>
            </g>
            <path d="M2.8794538,2.39596207 C2.8794538,2.11622249 3.10934272,1.88944875 3.38836112,1.88944875 L38.3705465,1.88944875 C38.6516082,1.88944875 38.8794538,2.10428865 38.8794538,2.39596207 L38.8794538,2.3092346 C38.8794538,2.58897418 38.6495649,2.81574792 38.3705465,2.81574792 L3.38836112,2.81574792 C3.10729937,2.81574792 2.8794538,2.60090803 2.8794538,2.3092346 L2.8794538,2.39596207 Z" id="Rectangle-144"></path>
        </g>
        <path d="M140.501879,80.723923 C144.064644,80.723923 145.846027,82.8240794 145.846027,85.9743139 L145.846027,88.2994871 C145.846027,91.7122412 143.820876,93.8499004 140.033094,93.8499004 L136.207809,93.8499004 L136.207809,80.723923 L140.501879,80.723923 Z M143.483351,88.3369899 L143.483351,85.9180598 C143.483351,83.7804006 142.470775,82.5428084 140.38937,82.5428084 L138.570485,82.5428084 L138.570485,92.0310149 L140.051845,92.0310149 C142.339516,92.0310149 143.483351,90.8309256 143.483351,88.3369899 Z" id="D" fill="#8D9EB0"></path>
        <path d="M84.25934,81.293703 C84.25934,81.0166158 84.4912735,80.7919922 84.75934,80.7919922 L84.75934,80.7919922 C85.0354823,80.7919922 85.25934,81.0130125 85.25934,81.293703 L85.25934,112.230897 C85.25934,112.507985 85.0274064,112.732608 84.75934,112.732608 L84.75934,112.732608 C84.4831976,112.732608 84.25934,112.511588 84.25934,112.230897 L84.25934,81.293703 Z" id="Rectangle-93" fill="#8D9EB0"></path>
        <path d="M196.257035,81.293703 C196.257035,81.0166158 196.488969,80.7919922 196.757035,80.7919922 L196.757035,80.7919922 C197.033178,80.7919922 197.257035,81.0130125 197.257035,81.293703 L197.257035,112.230897 C197.257035,112.507985 197.025102,112.732608 196.757035,112.732608 L196.757035,112.732608 C196.480893,112.732608 196.257035,112.511588 196.257035,112.230897 L196.257035,81.293703 Z" id="Rectangle-93-Copy-3" fill="#8D9EB0"></path>
        <path d="M135.619781,64.0817931 C139.182546,64.0817931 140.963929,66.1819495 140.963929,69.3321841 L140.963929,71.6573572 C140.963929,75.0701114 138.938778,77.2077705 135.150996,77.2077705 L131.325711,77.2077705 L131.325711,64.0817931 L135.619781,64.0817931 Z M138.601253,71.69486 L138.601253,69.2759299 C138.601253,67.1382707 137.588678,65.9006786 135.507273,65.9006786 L133.688387,65.9006786 L133.688387,75.3888851 L135.169748,75.3888851 C137.457418,75.3888851 138.601253,74.1887957 138.601253,71.69486 Z M145.164242,75.2951281 L151.295948,75.2951281 L151.295948,77.2077705 L142.839069,77.2077705 L142.839069,75.8764214 C142.839069,73.5512483 143.964152,72.2761533 145.483016,71.2260751 L147.28315,69.988483 C148.464488,69.1821729 148.914521,68.6946366 148.914521,67.8320724 L148.914521,67.3820389 C148.914521,66.5944802 148.295725,65.6756618 146.739359,65.6756618 C145.614275,65.6756618 144.73296,66.013187 143.607876,66.8007456 L142.557798,65.3756395 C143.776639,64.4193183 145.14549,63.838025 146.88937,63.838025 C149.720831,63.838025 151.277197,65.5444021 151.277197,67.3070333 L151.277197,67.8883266 C151.277197,69.1821729 150.489638,70.3260081 148.464488,71.6386058 L147.02063,72.5761757 C145.558021,73.5324969 145.201745,74.3013041 145.164242,75.2951281 Z" id="D2" fill="#8D9EB0"></path>
        <path d="M137.001879,146.156915 C140.564644,146.156915 142.346027,148.257071 142.346027,151.407306 L142.346027,153.732479 C142.346027,157.145233 140.320876,159.282892 136.533094,159.282892 L132.707809,159.282892 L132.707809,146.156915 L137.001879,146.156915 Z M139.983351,153.769982 L139.983351,151.351052 C139.983351,149.213392 138.970775,147.9758 136.88937,147.9758 L135.070485,147.9758 L135.070485,157.464007 L136.551845,157.464007 C138.839516,157.464007 139.983351,156.263917 139.983351,153.769982 Z M149.677823,157.501509 L151.984244,157.501509 L151.984244,159.282892 L144.708703,159.282892 L144.708703,157.501509 L147.390152,157.501509 L147.390152,148.707105 L145.121233,149.832188 L144.258669,148.294574 L147.933943,146.156915 L149.677823,146.156915 L149.677823,157.501509 Z" id="D1" fill="#8D9EB0"></path>
        <g id="Group-5-Copy" transform="translate(89.272795, 140.718449)" fill="#8D9EB0">
            <path d="M0.379257643,0.883580974 C0.379257643,0.608364208 0.611191236,0.385256936 0.879257643,0.385256936 L0.879257643,0.385256936 C1.15540002,0.385256936 1.37925764,0.608602132 1.37925764,0.883580974 L1.37925764,14.8643069 C1.37925764,15.1395237 1.14732405,15.362631 0.879257643,15.362631 L0.879257643,15.362631 C0.603115268,15.362631 0.379257643,15.1392858 0.379257643,14.8643069 L0.379257643,0.883580974 Z" id="Rectangle-93"></path>
            <path d="M103.376953,0.883580974 C103.376953,0.608364208 103.608887,0.385256936 103.876953,0.385256936 L103.876953,0.385256936 C104.153095,0.385256936 104.376953,0.608602132 104.376953,0.883580974 L104.376953,14.8643069 C104.376953,15.1395237 104.14502,15.362631 103.876953,15.362631 L103.876953,15.362631 C103.600811,15.362631 103.376953,15.1392858 103.376953,14.8643069 L103.376953,0.883580974 Z" id="Rectangle-93-Copy-3"></path>
        </g>
        <path d="M114.652052,61.5124005 C114.652052,61.2371838 114.883986,61.0140765 115.152052,61.0140765 L115.152052,61.0140765 C115.428195,61.0140765 115.652052,61.2374217 115.652052,61.5124005 L115.652052,75.4931265 C115.652052,75.7683433 115.420119,75.9914505 115.152052,75.9914505 L115.152052,75.9914505 C114.87591,75.9914505 114.652052,75.7681053 114.652052,75.4931265 L114.652052,61.5124005 Z" id="Rectangle-93" fill="#8D9EB0"></path>
        <path d="M164.649748,61.5124005 C164.649748,61.2371838 164.881681,61.0140765 165.149748,61.0140765 L165.149748,61.0140765 C165.42589,61.0140765 165.649748,61.2374217 165.649748,61.5124005 L165.649748,75.4931265 C165.649748,75.7683433 165.417814,75.9914505 165.149748,75.9914505 L165.149748,75.9914505 C164.873605,75.9914505 164.649748,75.7681053 164.649748,75.4931265 L164.649748,61.5124005 Z" id="Rectangle-93-Copy-3" fill="#8D9EB0"></path>
        <g id="Group-4-Copy-3" transform="translate(191.664313, 97.981202)" fill="#8D9EB0">
            <path d="M0.981117192,1.42513553 C0.981117192,1.14899315 1.21056687,0.925135526 1.48761185,0.925135526 L27.0157614,0.925135526 C27.2954906,0.925135526 27.522256,1.15706912 27.522256,1.42513553 L27.522256,1.42513553 C27.522256,1.7012779 27.2928063,1.92513553 27.0157614,1.92513553 L1.48761185,1.92513553 C1.20788257,1.92513553 0.981117192,1.69320193 0.981117192,1.42513553 L0.981117192,1.42513553 Z" id="Rectangle-132-Copy"></path>
            <path d="M1.33568687,40.8852715 C1.33568687,40.6091292 1.56910342,40.3852715 1.82737078,40.3852715 L27.844003,40.3852715 C28.1155525,40.3852715 28.3356869,40.6172051 28.3356869,40.8852715 L28.3356869,40.8852715 C28.3356869,41.1614139 28.1022703,41.3852715 27.844003,41.3852715 L1.82737078,41.3852715 C1.55582125,41.3852715 1.33568687,41.153338 1.33568687,40.8852715 L1.33568687,40.8852715 Z" id="Rectangle-132-Copy-7"></path>
            <g id="Group" transform="translate(21.923689, 2.425136)">
                <g id="triangle" transform="translate(2.184082, 2.484497) rotate(-90.000000) translate(-2.184082, -2.484497) translate(-0.815918, -0.015503)">
                    <path d="M2.88775351,-0.425866237 C2.98755721,-0.684554916 3.15206769,-0.677565105 3.24917468,-0.425866237 L5.40050076,5.1503168 C5.50030446,5.40900548 5.36527212,5.61871408 5.08097484,5.61871408 L1.05595335,5.61871408 C0.779680363,5.61871408 0.639320451,5.40201566 0.736427439,5.1503168 L2.88775351,-0.425866237 Z" id="Triangle-1" transform="translate(3.069450, 2.500722) rotate(90.000000) translate(-3.069450, -2.500722) "></path>
                </g>
                <path d="M1.68408203,2.98485719 C1.68408203,2.70851593 1.91601562,2.48449707 2.18408203,2.48449707 L2.18408203,2.48449707 C2.46022441,2.48449707 2.68408203,2.71525897 2.68408203,2.98485719 L2.68408203,9.9829266 C2.68408203,10.2592679 2.45214844,10.4832867 2.18408203,10.4832867 L2.18408203,10.4832867 C1.90793966,10.4832867 1.68408203,10.2525248 1.68408203,9.9829266 L1.68408203,2.98485719 Z" id="Rectangle-134"></path>
            </g>
            <g id="Group-Copy" transform="translate(23.923689, 34.269693) scale(1, -1) translate(-23.923689, -34.269693) translate(21.923689, 28.769693)">
                <g id="triangle" transform="translate(2.184082, 2.484497) rotate(-90.000000) translate(-2.184082, -2.484497) translate(-0.815918, -0.015503)">
                    <path d="M2.88775351,-0.425866237 C2.98755721,-0.684554916 3.15206769,-0.677565105 3.24917468,-0.425866237 L5.40050076,5.1503168 C5.50030446,5.40900548 5.36527212,5.61871408 5.08097484,5.61871408 L1.05595335,5.61871408 C0.779680363,5.61871408 0.639320451,5.40201566 0.736427439,5.1503168 L2.88775351,-0.425866237 Z" id="Triangle-1" transform="translate(3.069450, 2.500722) rotate(90.000000) translate(-3.069450, -2.500722) "></path>
                </g>
                <path d="M1.68408203,2.9849329 C1.68408203,2.70854982 1.91601562,2.48449707 2.18408203,2.48449707 L2.18408203,2.48449707 C2.46022441,2.48449707 2.68408203,2.71529388 2.68408203,2.9849329 L2.68408203,9.98406124 C2.68408203,10.2604443 2.45214844,10.4844971 2.18408203,10.4844971 L2.18408203,10.4844971 C1.90793966,10.4844971 1.68408203,10.2537003 1.68408203,9.98406124 L1.68408203,2.9849329 Z" id="Rectangle-134"></path>
            </g>
        </g>
        <path d="M219.399542,45.1980105 L218.311961,41.7477536 L213.774123,41.7477536 L212.780299,45.1980105 L210.398872,45.1980105 L214.41167,32.0720331 L217.618159,32.0720331 L221.837223,45.1980105 L219.399542,45.1980105 Z M216.005539,33.722156 L214.299162,39.8538625 L217.749419,39.8538625 L216.005539,33.722156 Z" id="A" fill="#8D9EB0"></path>
        <polygon id="L" fill="#8D9EB0" points="177.949173 75.3976727 183.27457 75.3976727 183.27457 77.3103152 175.586497 77.3103152 175.586497 64.1843378 177.949173 64.1843378"></polygon>
        <g id="Group-4-Copy-3" transform="translate(182.664313, 13.981202)" fill="#8D9EB0">
            <path d="M0.594048684,1.3802283 C0.594048684,1.10408593 0.823479146,0.880228303 1.10194112,0.880228303 L36.0143636,0.880228303 C36.2948648,0.880228303 36.522256,1.1121619 36.522256,1.3802283 L36.522256,1.3802283 C36.522256,1.65637068 36.2928256,1.8802283 36.0143636,1.8802283 L1.10194112,1.8802283 C0.821439872,1.8802283 0.594048684,1.64829471 0.594048684,1.3802283 L0.594048684,1.3802283 Z" id="Rectangle-132-Copy"></path>
            <path d="M10.8458155,45.7431817 C10.8458155,45.4670393 11.074822,45.2431817 11.3513318,45.2431817 L36.8301706,45.2431817 C37.1093595,45.2431817 37.3356869,45.4751153 37.3356869,45.7431817 L37.3356869,45.7431817 C37.3356869,46.0193241 37.1066804,46.2431817 36.8301706,46.2431817 L11.3513318,46.2431817 C11.0721429,46.2431817 10.8458155,46.0112481 10.8458155,45.7431817 L10.8458155,45.7431817 Z" id="Rectangle-132-Copy-7"></path>
            <g id="Group" transform="translate(30.923689, 2.681193)">
                <g id="triangle" transform="translate(2.184082, 2.484497) rotate(-90.000000) translate(-2.184082, -2.484497) translate(-0.815918, -0.015503)">
                    <path d="M2.88775351,-0.425866237 C2.98755721,-0.684554916 3.15206769,-0.677565105 3.24917468,-0.425866237 L5.40050076,5.1503168 C5.50030446,5.40900548 5.36527212,5.61871408 5.08097484,5.61871408 L1.05595335,5.61871408 C0.779680363,5.61871408 0.639320451,5.40201566 0.736427439,5.1503168 L2.88775351,-0.425866237 Z" id="Triangle-1" transform="translate(3.069450, 2.500722) rotate(90.000000) translate(-3.069450, -2.500722) "></path>
                </g>
                <path d="M1.68408203,2.98485719 C1.68408203,2.70851593 1.91601562,2.48449707 2.18408203,2.48449707 L2.18408203,2.48449707 C2.46022441,2.48449707 2.68408203,2.71525897 2.68408203,2.98485719 L2.68408203,9.9829266 C2.68408203,10.2592679 2.45214844,10.4832867 2.18408203,10.4832867 L2.18408203,10.4832867 C1.90793966,10.4832867 1.68408203,10.2525248 1.68408203,9.9829266 L1.68408203,2.98485719 Z" id="Rectangle-134"></path>
            </g>
            <g id="Group-Copy" transform="translate(32.923689, 39.350662) scale(1, -1) translate(-32.923689, -39.350662) translate(29.923689, 33.350662)">
                <g id="triangle" transform="translate(3.184082, 3.484497) rotate(-90.000000) translate(-3.184082, -3.484497) translate(0.184082, 0.984497)">
                    <path d="M2.88775351,-0.425866237 C2.98755721,-0.684554916 3.15206769,-0.677565105 3.24917468,-0.425866237 L5.40050076,5.1503168 C5.50030446,5.40900548 5.36527212,5.61871408 5.08097484,5.61871408 L1.05595335,5.61871408 C0.779680363,5.61871408 0.639320451,5.40201566 0.736427439,5.1503168 L2.88775351,-0.425866237 Z" id="Triangle-1" transform="translate(3.069450, 2.500722) rotate(90.000000) translate(-3.069450, -2.500722) "></path>
                </g>
                <path d="M2.68408203,3.9849329 C2.68408203,3.70854982 2.91601562,3.48449707 3.18408203,3.48449707 L3.18408203,3.48449707 C3.46022441,3.48449707 3.68408203,3.71529388 3.68408203,3.9849329 L3.68408203,10.9840612 C3.68408203,11.2604443 3.45214844,11.4844971 3.18408203,11.4844971 L3.18408203,11.4844971 C2.90793966,11.4844971 2.68408203,11.2537003 2.68408203,10.9840612 L2.68408203,3.9849329 Z" id="Rectangle-134"></path>
            </g>
        </g>
        <path d="M69.7111816,114.509277 C69.7111816,114.233135 69.9439846,114.009277 70.2045159,114.009277 L81.4170966,114.009277 C81.6895576,114.009277 81.9104309,114.241211 81.9104309,114.509277 L81.9104309,114.509277 C81.9104309,114.78542 81.677628,115.009277 81.4170966,115.009277 L70.2045159,115.009277 C69.9320549,115.009277 69.7111816,114.777344 69.7111816,114.509277 L69.7111816,114.509277 Z" id="Rectangle-132-Copy-5" fill="#8D9EB0"></path>
        <path d="M69.7111816,122.511719 C69.7111816,122.235576 69.9439846,122.011719 70.2045159,122.011719 L81.4170966,122.011719 C81.6895576,122.011719 81.9104309,122.243652 81.9104309,122.511719 L81.9104309,122.511719 C81.9104309,122.787861 81.677628,123.011719 81.4170966,123.011719 L70.2045159,123.011719 C69.9320549,123.011719 69.7111816,122.779785 69.7111816,122.511719 L69.7111816,122.511719 Z" id="Rectangle-132-Copy-6" fill="#8D9EB0"></path>
        <g id="Group-Copy-2" transform="translate(72.986389, 109.564453) scale(1, -1) translate(-72.986389, -109.564453) translate(70.986389, 105.564453)" fill="#8D9EB0">
            <g id="triangle" transform="translate(2.184082, 2.484497) rotate(-90.000000) translate(-2.184082, -2.484497) translate(-0.815918, -0.015503)">
                <path d="M2.88775351,-0.425866237 C2.98755721,-0.684554916 3.15206769,-0.677565105 3.24917468,-0.425866237 L5.40050076,5.1503168 C5.50030446,5.40900548 5.36527212,5.61871408 5.08097484,5.61871408 L1.05595335,5.61871408 C0.779680363,5.61871408 0.639320451,5.40201566 0.736427439,5.1503168 L2.88775351,-0.425866237 Z" id="Triangle-1" transform="translate(3.069450, 2.500722) rotate(90.000000) translate(-3.069450, -2.500722) "></path>
            </g>
            <path d="M1.68408203,2.97538253 C1.68408203,2.70427398 1.91601562,2.48449707 2.18408203,2.48449707 L2.18408203,2.48449707 C2.46022441,2.48449707 2.68408203,2.70921032 2.68408203,2.97538253 L2.68408203,6.92516333 C2.68408203,7.19627188 2.45214844,7.41604878 2.18408203,7.41604878 L2.18408203,7.41604878 C1.90793966,7.41604878 1.68408203,7.19133553 1.68408203,6.92516333 L1.68408203,2.97538253 Z" id="Rectangle-134"></path>
        </g>
    </g>
</svg>
