<?xml version="1.0" encoding="UTF-8"?>
<svg width="200px" height="150px" viewBox="0 0 200 150" version="1.1" xmlns="http://www.w3.org/2000/svg" xmlns:xlink="http://www.w3.org/1999/xlink">
    <!-- Generator: Sketch 52.5 (67469) - http://www.bohemiancoding.com/sketch -->
    <title>Crystal-HC49_PTH</title>
    <desc>Created with Sketch.</desc>
    <defs>
        <linearGradient x1="100%" y1="50%" x2="0%" y2="50%" id="linearGradient-1">
            <stop stop-color="#6D6C6C" offset="0%"></stop>
            <stop stop-color="#F8F8F8" offset="49.6884032%"></stop>
            <stop stop-color="#6D6C6C" offset="100%"></stop>
        </linearGradient>
        <linearGradient x1="100%" y1="50%" x2="0%" y2="50%" id="linearGradient-2">
            <stop stop-color="#6D6C6C" offset="0%"></stop>
            <stop stop-color="#ECECEC" offset="39.0625%"></stop>
            <stop stop-color="#FFFFFF" offset="49.6884032%"></stop>
            <stop stop-color="#6D6C6C" offset="100%"></stop>
        </linearGradient>
    </defs>
    <g id="Crystal-HC49_PTH" stroke="none" stroke-width="1" fill="none" fill-rule="evenodd">
        <g id="Group-3" transform="translate(8.000000, 51.000000)">
            <g id="Group-5-Copy-3" fill="#6D6C6C">
                <g id="Group-6">
                    <g id="Group-2">
                        <path d="M14.4328767,-3.1206791e-12 L51.6036141,-3.17701421e-12 C55.5800643,-3.18127647e-12 58.8036141,3.2235498 58.8036141,7.2 L58.8036141,41.0164808 L65.1,41.0164808 C65.5970563,41.0164808 66,41.4194246 66,41.9164808 L66,46.8380675 C66,47.3351237 65.5970563,47.7380675 65.1,47.7380675 L0.9,47.7380675 C0.402943725,47.7380675 -1.14958234e-13,47.3351237 -1.15019105e-13,46.8380675 L-8.58202398e-14,41.8280617 C-8.58811116e-14,41.3310054 0.402943725,40.9280617 0.9,40.9280617 L7.23287671,40.9280617 L7.23287671,7.2 C7.23287671,3.2235498 10.4564265,-3.11855215e-12 14.4328767,-3.11928261e-12 Z" id="Rectangle-9"></path>
                    </g>
                </g>
            </g>
            <path d="M34.810274,48.4831754 L31.189726,48.4641372 L31.189726,76.55 L34.810274,76.55 L34.810274,48.4831754 Z" id="Rectangle-7-Copy-4" stroke="#979797" stroke-width="0.9" fill="#D8D8D8"></path>
            <path d="M15.3369863,0.905882353 L50.6630137,0.905882353 C54.6394639,0.905882353 57.8630137,4.12943215 57.8630137,8.10588235 L57.8630137,43.5058824 C57.8630137,45.4941075 56.2512388,47.1058824 54.2630137,47.1058824 L12.6369863,47.1058824 C10.1517049,47.1058824 8.1369863,45.0911637 8.1369863,42.6058824 L8.1369863,8.10588235 C8.1369863,4.12943215 11.3605361,0.905882353 15.3369863,0.905882353 Z" id="Rectangle-24-Copy-3" fill="url(#linearGradient-1)" opacity="0.758816964"></path>
            <path d="M8.5890411,40.3117647 L57.8630137,40.3117647" id="Line-4-Copy-2" stroke="#6D6C6C" stroke-width="0.9" stroke-linecap="square" fill-rule="nonzero"></path>
        </g>
        <g id="Group" transform="translate(82.000000, 51.000000)">
            <g id="Group-5-Copy-4" fill="#6D6C6C">
                <g id="Group-6">
                    <g id="Group-2">
                        <path d="M14.432,-8.91305243e-13 L98.6044864,-9.05941988e-13 C102.580937,-9.0667245e-13 105.804486,3.2235498 105.804486,7.2 L105.804486,40.8998928 L112.1,40.8998928 C112.597056,40.8998928 113,41.3028365 113,41.7998928 L113,46.8335058 C113,47.3305621 112.597056,47.7335058 112.1,47.7335058 L0.9,47.7335058 C0.402943725,47.7335058 1.16166669e-13,47.3305621 1.12132525e-13,46.8335058 L1.14575016e-13,41.71 C1.14514144e-13,41.2129437 0.402943725,40.81 0.9,40.81 L7.232,40.81 L7.232,7.2 C7.232,3.2235498 10.4555498,-8.71460746e-13 14.432,-8.72191208e-13 Z" id="Rectangle-9"></path>
                    </g>
                </g>
            </g>
            <path d="M23.958,48.4831751 L20.338,48.4641375 L20.338,76.55 L23.958,76.55 L23.958,48.4831751 Z" id="Rectangle-7-Copy-5" stroke="#979797" stroke-width="0.9" fill="#D8D8D8"></path>
            <path d="M15.336,0.905882353 L97.664,0.905882353 C101.64045,0.905882353 104.864,4.12943215 104.864,8.10588235 L104.864,43.5058824 C104.864,45.4941075 103.252225,47.1058824 101.264,47.1058824 L12.636,47.1058824 C10.1507186,47.1058824 8.136,45.0911637 8.136,42.6058824 L8.136,8.10588235 C8.136,4.12943215 11.3595498,0.905882353 15.336,0.905882353 Z" id="Rectangle-24-Copy-4" fill="url(#linearGradient-2)" opacity="0.758816964"></path>
            <path d="M7.684,40.3117647 L105.316,40.3117647" id="Line-4-Copy-3" stroke="#6D6C6C" stroke-width="0.9" stroke-linecap="square" fill-rule="nonzero"></path>
            <g id="Group-Copy" transform="translate(90.400000, 48.011765)"></g>
            <path d="M94.47,48.4831751 L90.85,48.4641375 L90.85,76.55 L94.47,76.55 L94.47,48.4831751 Z" id="Rectangle-7-Copy-3" stroke="#979797" stroke-width="0.9" fill="#D8D8D8"></path>
        </g>
    </g>
</svg>