<?xml version="1.0" encoding="UTF-8" standalone="no"?>
<svg width="290px" height="175px" viewBox="0 0 290 175" version="1.1" xmlns="http://www.w3.org/2000/svg" xmlns:xlink="http://www.w3.org/1999/xlink" >
    <!-- Generator: Sketch 48.2 (47327) - http://www.bohemiancoding.com/sketch -->
    <title>DFN-3-Labeled</title>
    <desc>Created with Sketch.</desc>
    <defs>
        <rect id="path-1" x="20.655" y="42.4666667" width="34.02" height="97.0666667" rx="2"></rect>
        <rect id="path-2" x="0.19340332" y="0" width="131.22" height="97.0666667" rx="2"></rect>
    </defs>
    <g stroke="none" stroke-width="1" fill="none" fill-rule="evenodd">
        <g>
            <g transform="translate(19.619952, 0.000000)">
                <g>
                    <use fill="#585858" fill-rule="evenodd" xlink:href="#path-1"></use>
                    <rect stroke="#505050" stroke-width="1" x="21.155" y="42.9666667" width="33.02" height="96.0666667" rx="2"></rect>
                </g>
                <g stroke-width="1" fill-rule="evenodd" transform="translate(92.340000, 42.466667)">
                    <g transform="translate(65.803403, 48.533333) scale(-1, 1) translate(-65.803403, -48.533333) ">
                        <use fill="#585858" fill-rule="evenodd" xlink:href="#path-2"></use>
                        <rect stroke="#505050" stroke-width="1" x="0.69340332" y="0.5" width="130.22" height="96.0666667" rx="2"></rect>
                    </g>
                    <rect fill="#D8D8D8" x="9.91340332" y="9.70666667" width="41.31" height="24.2666667"></rect>
                    <rect fill="#D8D8D8" x="9.91340332" y="63.0933333" width="41.31" height="24.2666667"></rect>
                    <rect fill="#D8D8D8" x="65.585083" y="9.70666667" width="56.1083203" height="77.6533333"></rect>
                </g>
            </g>
            <g transform="translate(40.285156, 11.000000)" fill="#8D9EB0">
                <path d="M19.9044997,20.1779175 L18.8169188,16.7276606 L14.2790809,16.7276606 L13.2852569,20.1779175 L10.9038295,20.1779175 L14.9166283,7.05194009 L18.1231171,7.05194009 L22.3421813,20.1779175 L19.9044997,20.1779175 Z M16.510497,8.70206296 L14.80412,14.8337695 L18.2543769,14.8337695 L16.510497,8.70206296 Z"></path>
                <path d="M31.8937988,12.8224745 C31.8937988,12.5516102 32.1257324,12.3320312 32.3937988,12.3320312 L32.3937988,12.3320312 C32.6699412,12.3320312 32.8937988,12.5469741 32.8937988,12.8224745 L32.8937988,28.841588 C32.8937988,29.1124523 32.6618652,29.3320312 32.3937988,29.3320312 L32.3937988,29.3320312 C32.1176565,29.3320312 31.8937988,29.1170884 31.8937988,28.841588 L31.8937988,12.8224745 Z"></path>
                <rect x="0.293823242" y="12.3320312" width="1" height="17.4710693" rx="0.5"></rect>
                <g transform="translate(2.085449, 13.453524)">
                    <g transform="translate(2.000000, 1.500000) scale(-1, 1) translate(-2.000000, -1.500000) translate(-1.000000, -1.000000)">
                        <path d="M2.88775351,-0.425866237 C2.98755721,-0.684554916 3.15206769,-0.677565105 3.24917468,-0.425866237 L5.40050076,5.1503168 C5.50030446,5.40900548 5.36527212,5.61871408 5.08097484,5.61871408 L1.05595335,5.61871408 C0.779680363,5.61871408 0.639320451,5.40201566 0.736427439,5.1503168 L2.88775351,-0.425866237 Z" transform="translate(3.069450, 2.500722) rotate(90.000000) translate(-3.069450, -2.500722) "></path>
                    </g>
                    <rect x="1.85259834" y="0.889448752" width="5.39496026" height="1" rx="0.5"></rect>
                </g>
                <g transform="translate(26.789307, 14.953524) scale(-1, 1) translate(-26.789307, -14.953524) translate(22.789307, 13.453524)">
                    <g transform="translate(2.000000, 1.500000) scale(-1, 1) translate(-2.000000, -1.500000) translate(-1.000000, -1.000000)">
                        <path d="M2.88775351,-0.425866237 C2.98755721,-0.684554916 3.15206769,-0.677565105 3.24917468,-0.425866237 L5.40050076,5.1503168 C5.50030446,5.40900548 5.36527212,5.61871408 5.08097484,5.61871408 L1.05595335,5.61871408 C0.779680363,5.61871408 0.639320451,5.40201566 0.736427439,5.1503168 L2.88775351,-0.425866237 Z" transform="translate(3.069450, 2.500722) rotate(90.000000) translate(-3.069450, -2.500722) "></path>
                    </g>
                    <rect x="1.85259834" y="0.889448752" width="5.39496026" height="1" rx="0.5"></rect>
                </g>
            </g>
            <g transform="translate(86.982422, 2.000000)" fill="#8D9EB0">
                <g transform="translate(12.719306, 95.484042)">
                    <g transform="translate(3.184082, 17.000000) rotate(90.000000) translate(-3.184082, -17.000000) translate(0.184082, 14.500000)">
                        <path d="M2.88775351,-0.425866237 C2.98755721,-0.684554916 3.15206769,-0.677565105 3.24917468,-0.425866237 L5.40050076,5.1503168 C5.50030446,5.40900548 5.36527212,5.61871408 5.08097484,5.61871408 L1.05595335,5.61871408 C0.779680363,5.61871408 0.639320451,5.40201566 0.736427439,5.1503168 L2.88775351,-0.425866237 Z" transform="translate(3.069450, 2.500722) rotate(90.000000) translate(-3.069450, -2.500722) "></path>
                    </g>
                </g>
                <g transform="translate(25.134766, 0.000000)">
                    <g transform="translate(2.219896, 12.231553)">
                        <g transform="translate(2.026855, 1.500000) scale(-1, 1) translate(-2.026855, -1.500000) translate(-0.973145, -1.000000)">
                            <path d="M2.88775351,-0.425866237 C2.98755721,-0.684554916 3.15206769,-0.677565105 3.24917468,-0.425866237 L5.40050076,5.1503168 C5.50030446,5.40900548 5.36527212,5.61871408 5.08097484,5.61871408 L1.05595335,5.61871408 C0.779680363,5.61871408 0.639320451,5.40201566 0.736427439,5.1503168 L2.88775351,-0.425866237 Z" transform="translate(3.069450, 2.500722) rotate(90.000000) translate(-3.069450, -2.500722) "></path>
                        </g>
                        <rect x="1.8794538" y="0.889448752" width="54.6417386" height="1" rx="0.5"></rect>
                    </g>
                    <g transform="translate(100.719896, 13.731553) scale(-1, 1) translate(-100.719896, -13.731553) translate(72.219896, 12.231553)">
                        <g transform="translate(2.026855, 1.500000) scale(-1, 1) translate(-2.026855, -1.500000) translate(-0.973145, -1.000000)">
                            <path d="M2.88775351,-0.425866237 C2.98755721,-0.684554916 3.15206769,-0.677565105 3.24917468,-0.425866237 L5.40050076,5.1503168 C5.50030446,5.40900548 5.36527212,5.61871408 5.08097484,5.61871408 L1.05595335,5.61871408 C0.779680363,5.61871408 0.639320451,5.40201566 0.736427439,5.1503168 L2.88775351,-0.425866237 Z" transform="translate(3.069450, 2.500722) rotate(90.000000) translate(-3.069450, -2.500722) "></path>
                        </g>
                        <rect x="1.8794538" y="0.889448752" width="55" height="1" rx="0.5"></rect>
                    </g>
                    <path d="M65.5018787,7.15946986 C69.064644,7.15946986 70.8460266,9.25962624 70.8460266,12.4098608 L70.8460266,14.735034 C70.8460266,18.1477881 68.8208758,20.2854473 65.0330938,20.2854473 L61.2078089,20.2854473 L61.2078089,7.15946986 L65.5018787,7.15946986 Z M68.4833507,14.7725367 L68.4833507,12.3536066 C68.4833507,10.2159475 67.4707753,8.9783553 65.3893703,8.9783553 L63.5704849,8.9783553 L63.5704849,18.4665618 L65.0518452,18.4665618 C67.3395155,18.4665618 68.4833507,17.2664725 68.4833507,14.7725367 Z"></path>
                    <rect x="0.259339956" y="9.53808594" width="1" height="30.9375" rx="0.5"></rect>
                    <rect x="130.257035" y="9.53808594" width="1" height="30.9375" rx="0.5"></rect>
                </g>
                <g transform="translate(34.000000, 130.000000)">
                    <g transform="translate(2.658861, 19.021030)">
                        <g transform="translate(2.026855, 1.500000) scale(-1, 1) translate(-2.026855, -1.500000) translate(-0.973145, -1.000000)">
                            <path d="M2.88775351,-0.425866237 C2.98755721,-0.684554916 3.15206769,-0.677565105 3.24917468,-0.425866237 L5.40050076,5.1503168 C5.50030446,5.40900548 5.36527212,5.61871408 5.08097484,5.61871408 L1.05595335,5.61871408 C0.779680363,5.61871408 0.639320451,5.40201566 0.736427439,5.1503168 L2.88775351,-0.425866237 Z" transform="translate(3.069450, 2.500722) rotate(90.000000) translate(-3.069450, -2.500722) "></path>
                        </g>
                        <rect x="1.8794538" y="0.889448752" width="10" height="1" rx="0.5"></rect>
                    </g>
                    <g transform="translate(33.658861, 20.521030) scale(-1, 1) translate(-33.658861, -20.521030) translate(27.658861, 19.021030)">
                        <g transform="translate(2.026855, 1.500000) scale(-1, 1) translate(-2.026855, -1.500000) translate(-0.973145, -1.000000)">
                            <path d="M2.88775351,-0.425866237 C2.98755721,-0.684554916 3.15206769,-0.677565105 3.24917468,-0.425866237 L5.40050076,5.1503168 C5.50030446,5.40900548 5.36527212,5.61871408 5.08097484,5.61871408 L1.05595335,5.61871408 C0.779680363,5.61871408 0.639320451,5.40201566 0.736427439,5.1503168 L2.88775351,-0.425866237 Z" transform="translate(3.069450, 2.500722) rotate(90.000000) translate(-3.069450, -2.500722) "></path>
                        </g>
                        <rect x="1.8794538" y="0.889448752" width="10.0278206" height="1" rx="0.5"></rect>
                    </g>
                    <polygon points="20.369923 25.1729841 25.6953196 25.1729841 25.6953196 27.0856265 18.0072471 27.0856265 18.0072471 13.9596491 20.369923 13.9596491"></polygon>
                    <rect x="0.666700825" y="0.629096849" width="1" height="23.4392625" rx="0.5"></rect>
                    <rect x="40.6643963" y="0.629096849" width="1" height="23.4392625" rx="0.5"></rect>
                </g>
                <g transform="translate(90.000000, 130.000000)">
                    <g transform="translate(2.019213, 19.021030)">
                        <g transform="translate(2.026855, 1.500000) scale(-1, 1) translate(-2.026855, -1.500000) translate(-0.973145, -1.000000)">
                            <path d="M2.88775351,-0.425866237 C2.98755721,-0.684554916 3.15206769,-0.677565105 3.24917468,-0.425866237 L5.40050076,5.1503168 C5.50030446,5.40900548 5.36527212,5.61871408 5.08097484,5.61871408 L1.05595335,5.61871408 C0.779680363,5.61871408 0.639320451,5.40201566 0.736427439,5.1503168 L2.88775351,-0.425866237 Z" transform="translate(3.069450, 2.500722) rotate(90.000000) translate(-3.069450, -2.500722) "></path>
                        </g>
                        <rect x="1.8794538" y="0.889448752" width="13.2721097" height="1" rx="0.5"></rect>
                    </g>
                    <g transform="translate(46.519213, 20.521030) scale(-1, 1) translate(-46.519213, -20.521030) translate(39.019213, 19.021030)">
                        <g transform="translate(2.026855, 1.500000) scale(-1, 1) translate(-2.026855, -1.500000) translate(-0.973145, -1.000000)">
                            <path d="M2.88775351,-0.425866237 C2.98755721,-0.684554916 3.15206769,-0.677565105 3.24917468,-0.425866237 L5.40050076,5.1503168 C5.50030446,5.40900548 5.36527212,5.61871408 5.08097484,5.61871408 L1.05595335,5.61871408 C0.779680363,5.61871408 0.639320451,5.40201566 0.736427439,5.1503168 L2.88775351,-0.425866237 Z" transform="translate(3.069450, 2.500722) rotate(90.000000) translate(-3.069450, -2.500722) "></path>
                        </g>
                        <rect x="1.8794538" y="0.889448752" width="13" height="1" rx="0.5"></rect>
                    </g>
                    <path d="M24.7300512,16.8473641 C27.0177215,16.8473641 28.5178332,18.685001 28.5178332,21.572716 L28.5178332,22.5852914 C28.5178332,25.3417467 26.7364506,27.3293947 24.4487802,27.3293947 C23.3799507,27.3293947 22.5173864,26.9356153 21.8235848,26.2230623 L21.6360708,27.0856265 L19.8171854,27.0856265 L19.8171854,13.2095933 L22.1423585,13.2095933 L22.1423585,17.8786909 C22.779906,17.2223921 23.6424702,16.8473641 24.7300512,16.8473641 Z M26.1926601,22.660297 L26.1926601,21.4977104 C26.1926601,19.5475652 25.5363612,18.6099954 24.2612663,18.6099954 C23.3611993,18.6099954 22.6486462,19.0412775 22.1423585,19.678825 L22.1423585,24.741702 C22.6486462,25.2854925 23.2861937,25.5855148 24.0550009,25.5855148 C25.3488473,25.5855148 26.1926601,24.5729394 26.1926601,22.660297 Z M35.5871096,25.3042439 L37.8935314,25.3042439 L37.8935314,27.0856265 L30.6179896,27.0856265 L30.6179896,25.3042439 L33.2994393,25.3042439 L33.2994393,16.509839 L31.0305203,17.6349228 L30.1679561,16.0973083 L33.8432298,13.9596491 L35.5871096,13.9596491 L35.5871096,25.3042439 Z"></path>
                    <rect x="0.0270523877" y="0.629096849" width="1" height="23.4392625" rx="0.5"></rect>
                    <rect x="55.0247479" y="0.629096849" width="1" height="23.4392625" rx="0.5"></rect>
                </g>
                <g transform="translate(158.076423, 40.666748)">
                    <rect x="0.162905011" y="0.548182401" width="35.6934543" height="1" rx="0.5"></rect>
                    <rect x="0.162905011" y="10.0589246" width="19.4188756" height="1" rx="0.5"></rect>
                    <rect x="0.162905011" y="87.4717664" width="19.4188756" height="1" rx="0.5"></rect>
                    <rect x="0.162905011" y="95.8276544" width="36.3105469" height="1" rx="0.5"></rect>
                    <g transform="translate(26.252942, 0.327845)">
                        <g transform="translate(3.184082, 3.484497) rotate(-90.000000) translate(-3.184082, -3.484497) translate(0.184082, 0.984497)">
                            <path d="M2.88775351,-0.425866237 C2.98755721,-0.684554916 3.15206769,-0.677565105 3.24917468,-0.425866237 L5.40050076,5.1503168 C5.50030446,5.40900548 5.36527212,5.61871408 5.08097484,5.61871408 L1.05595335,5.61871408 C0.779680363,5.61871408 0.639320451,5.40201566 0.736427439,5.1503168 L2.88775351,-0.425866237 Z" transform="translate(3.069450, 2.500722) rotate(90.000000) translate(-3.069450, -2.500722) "></path>
                        </g>
                        <rect x="2.68408203" y="3.48449707" width="1" height="34.2445418" rx="0.5"></rect>
                        <polygon points="8.13821768 43.101696 2.83157254 43.101696 2.83157254 46.8332238 7.72568696 46.8332238 7.72568696 48.6521093 2.83157254 48.6521093 2.83157254 52.5711511 8.13821768 52.5711511 8.13821768 54.4087879 0.468896608 54.4087879 0.468896608 41.2828105 8.13821768 41.2828105"></polygon>
                    </g>
                    <g transform="translate(29.252942, 76.105189) scale(1, -1) translate(-29.252942, -76.105189) translate(27.252942, 57.105189)">
                        <g transform="translate(2.184082, 2.484497) rotate(-90.000000) translate(-2.184082, -2.484497) translate(-0.815918, -0.015503)">
                            <path d="M2.88775351,-0.425866237 C2.98755721,-0.684554916 3.15206769,-0.677565105 3.24917468,-0.425866237 L5.40050076,5.1503168 C5.50030446,5.40900548 5.36527212,5.61871408 5.08097484,5.61871408 L1.05595335,5.61871408 C0.779680363,5.61871408 0.639320451,5.40201566 0.736427439,5.1503168 L2.88775351,-0.425866237 Z" transform="translate(3.069450, 2.500722) rotate(90.000000) translate(-3.069450, -2.500722) "></path>
                        </g>
                        <rect x="1.68408203" y="1.65323786" width="1" height="36.1687408" rx="0.5"></rect>
                    </g>
                    <g transform="translate(3.991345, 10.105189)">
                        <g transform="translate(6.184082, 3.484497) rotate(-90.000000) translate(-6.184082, -3.484497) translate(3.184082, 0.984497)">
                            <path d="M2.88775351,-0.425866237 C2.98755721,-0.684554916 3.15206769,-0.677565105 3.24917468,-0.425866237 L5.40050076,5.1503168 C5.50030446,5.40900548 5.36527212,5.61871408 5.08097484,5.61871408 L1.05595335,5.61871408 C0.779680363,5.61871408 0.639320451,5.40201566 0.736427439,5.1503168 L2.88775351,-0.425866237 Z" transform="translate(3.069450, 2.500722) rotate(90.000000) translate(-3.069450, -2.500722) "></path>
                        </g>
                        <rect x="5.68408203" y="2.64984345" width="1" height="24.5517894" rx="0.5"></rect>
                        <path d="M3.09316922,42.7188017 L8.41856576,42.7188017 L8.41856576,44.6314442 L0.730493288,44.6314442 L0.730493288,31.5054668 L3.09316922,31.5054668 L3.09316922,42.7188017 Z M14.7002835,42.8500615 L17.0067052,42.8500615 L17.0067052,44.6314442 L9.7311635,44.6314442 L9.7311635,42.8500615 L12.4126132,42.8500615 L12.4126132,34.0556567 L10.1436942,35.1807404 L9.28112999,33.643126 L12.9564037,31.5054668 L14.7002835,31.5054668 L14.7002835,42.8500615 Z"></path>
                    </g>
                    <g transform="translate(9.991345, 72.105189) scale(1, -1) translate(-9.991345, -72.105189) translate(7.991345, 57.105189)">
                        <g transform="translate(2.184082, 2.484497) rotate(-90.000000) translate(-2.184082, -2.484497) translate(-0.815918, -0.015503)">
                            <path d="M2.88775351,-0.425866237 C2.98755721,-0.684554916 3.15206769,-0.677565105 3.24917468,-0.425866237 L5.40050076,5.1503168 C5.50030446,5.40900548 5.36527212,5.61871408 5.08097484,5.61871408 L1.05595335,5.61871408 C0.779680363,5.61871408 0.639320451,5.40201566 0.736427439,5.1503168 L2.88775351,-0.425866237 Z" transform="translate(3.069450, 2.500722) rotate(90.000000) translate(-3.069450, -2.500722) "></path>
                        </g>
                        <rect x="1.68408203" y="2.48449707" width="1" height="26.8432967" rx="0.5"></rect>
                    </g>
                </g>
                <g transform="translate(9.000000, 62.000000)">
                    <g transform="translate(6.719306, 10.984042) scale(1, -1) translate(-6.719306, -10.984042) translate(4.719306, 1.484042)">
                        <g transform="translate(2.184082, 17.000000) rotate(90.000000) translate(-2.184082, -17.000000) translate(-0.815918, 14.500000)">
                            <path d="M2.88775351,-0.425866237 C2.98755721,-0.684554916 3.15206769,-0.677565105 3.24917468,-0.425866237 L5.40050076,5.1503168 C5.50030446,5.40900548 5.36527212,5.61871408 5.08097484,5.61871408 L1.05595335,5.61871408 C0.779680363,5.61871408 0.639320451,5.40201566 0.736427439,5.1503168 L2.88775351,-0.425866237 Z" transform="translate(3.069450, 2.500722) rotate(90.000000) translate(-3.069450, -2.500722) "></path>
                        </g>
                        <rect x="1.68408203" y="0.204623004" width="1" height="16.795377" rx="0.5"></rect>
                    </g>
                    <rect x="6.40338768" y="33.688665" width="1" height="16.795377" rx="0.5"></rect>
                    <path d="M13.1978079,26.6991888 C13.1978079,27.1117195 13.1603051,27.5242502 13.1228023,27.8242726 L6.69107342,27.8242726 C6.72857621,29.736915 7.60989184,30.5807278 9.3350203,30.5807278 C10.4226013,30.5807278 11.2289113,30.1869485 11.9977186,29.7556664 L12.82278,31.1432697 C11.9789672,31.7808172 10.6288666,32.3246077 9.18500913,32.3246077 C6.14728293,32.3246077 4.42215447,30.3182083 4.42215447,27.6180072 L4.42215447,26.5866804 C4.42215447,23.8864794 6.10978014,21.8425772 8.88498679,21.8425772 C11.6039392,21.8425772 13.1978079,23.5302028 13.1978079,26.6991888 Z M11.1164029,26.3054095 L11.1164029,26.2116525 C11.1164029,24.486524 10.3475957,23.5489542 8.90373818,23.5489542 C7.47863207,23.5489542 6.72857621,24.486524 6.69107342,26.3054095 L11.1164029,26.3054095 Z"></path>
                    <path d="M0.829101562,0.944824219 C0.829101562,0.668681844 1.05296931,0.444824219 1.33114438,0.444824219 L19.5987524,0.444824219 L23.0453767,0.444824219 C23.3214195,0.444824219 23.5451965,0.676757812 23.5451965,0.944824219 L23.5451965,0.944824219 C23.5451965,1.22096659 23.3203674,1.44482422 23.0496127,1.44482422 L1.32468538,1.44482422 C1.05098199,1.44482422 0.829101562,1.21289062 0.829101562,0.944824219 L0.829101562,0.944824219 Z"></path>
                    <rect x="0.829101562" y="53.4472656" width="22.716095" height="1" rx="0.5"></rect>
                </g>
                <g transform="translate(54.000000, 16.000000)">
                    <path d="M34.7617281,6.95238276 L37.0869012,6.95238276 L37.0869012,20.828416 L35.2680158,20.828416 L35.0242476,19.740835 C34.3679488,20.5471451 33.5053845,21.0721842 32.2865438,21.0721842 C29.9613706,21.0721842 28.3299992,19.2157959 28.3299992,16.3655837 L28.3299992,15.3155055 C28.3299992,12.5778016 29.980122,10.5901536 32.3990521,10.5901536 C33.3741248,10.5901536 34.1241806,10.890176 34.7617281,11.4714693 L34.7617281,6.95238276 Z M32.6990745,19.3283043 C33.6178929,19.3283043 34.236689,18.8782708 34.7617281,18.1657177 L34.7617281,13.1778463 C34.3491974,12.7278128 33.6553957,12.3527849 32.7928315,12.3527849 C31.4614823,12.3527849 30.6551723,13.3653603 30.6551723,15.2592513 L30.6551723,16.4030865 C30.6551723,18.3907345 31.4427309,19.3283043 32.6990745,19.3283043 Z"></path>
                    <g transform="translate(1.220215, 13.953524)">
                        <g transform="translate(2.000000, 1.500000) scale(-1, 1) translate(-2.000000, -1.500000) translate(-1.000000, -1.000000)">
                            <path d="M2.88775351,-0.425866237 C2.98755721,-0.684554916 3.15206769,-0.677565105 3.24917468,-0.425866237 L5.40050076,5.1503168 C5.50030446,5.40900548 5.36527212,5.61871408 5.08097484,5.61871408 L1.05595335,5.61871408 C0.779680363,5.61871408 0.639320451,5.40201566 0.736427439,5.1503168 L2.88775351,-0.425866237 Z" transform="translate(3.069450, 2.500722) rotate(90.000000) translate(-3.069450, -2.500722) "></path>
                        </g>
                        <rect x="1.85259834" y="0.889448752" width="24.5919817" height="1" rx="0.5"></rect>
                    </g>
                    <rect x="0.106019643" y="12.234375" width="1" height="20.2412109" rx="0.5"></rect>
                    <rect x="64.9097306" y="12.234375" width="1" height="20.2412109" rx="0.5"></rect>
                    <g transform="translate(50.924072, 15.453524) scale(-1, 1) translate(-50.924072, -15.453524) translate(37.924072, 13.953524)">
                        <g transform="translate(2.000000, 1.500000) scale(-1, 1) translate(-2.000000, -1.500000) translate(-1.000000, -1.000000)">
                            <path d="M2.88775351,-0.425866237 C2.98755721,-0.684554916 3.15206769,-0.677565105 3.24917468,-0.425866237 L5.40050076,5.1503168 C5.50030446,5.40900548 5.36527212,5.61871408 5.08097484,5.61871408 L1.05595335,5.61871408 C0.779680363,5.61871408 0.639320451,5.40201566 0.736427439,5.1503168 L2.88775351,-0.425866237 Z" transform="translate(3.069450, 2.500722) rotate(90.000000) translate(-3.069450, -2.500722) "></path>
                        </g>
                        <rect x="0.852598336" y="0.889448752" width="25" height="1" rx="0.5"></rect>
                    </g>
                </g>
                <g transform="translate(0.000000, 96.000000)">
                    <path d="M15.7967935,42.8806631 C18.0844638,42.8806631 19.5845755,44.7182999 19.5845755,47.606015 L19.5845755,48.6185904 C19.5845755,51.3750456 17.8031929,53.3626936 15.5155226,53.3626936 C14.446693,53.3626936 13.5841287,52.9689143 12.8903271,52.2563612 L12.7028131,53.1189255 L10.8839277,53.1189255 L10.8839277,39.2428922 L13.2091008,39.2428922 L13.2091008,43.9119899 C13.8466483,43.255691 14.7092125,42.8806631 15.7967935,42.8806631 Z M17.2594024,48.6935959 L17.2594024,47.5310094 C17.2594024,45.5808642 16.6031035,44.6432943 15.3280086,44.6432943 C14.4279416,44.6432943 13.7153885,45.0745765 13.2091008,45.7121239 L13.2091008,50.7750009 C13.7153885,51.3187914 14.352936,51.6188138 15.1217432,51.6188138 C16.4155896,51.6188138 17.2594024,50.6062384 17.2594024,48.6935959 Z"></path>
                    <path d="M0.0341796875,8.94482422 C0.0341796875,8.66868184 0.25706219,8.44482422 0.538413961,8.44482422 L27.7233617,8.44482422 L33.0488302,8.44482422 C33.3229657,8.44482422 33.5451965,8.67675781 33.5451965,8.94482422 L33.5451965,8.94482422 C33.5451965,9.22096659 33.3312018,9.44482422 33.0454744,9.44482422 L0.533901773,9.44482422 C0.257912886,9.44482422 0.0341796875,9.21289062 0.0341796875,8.94482422 L0.0341796875,8.94482422 Z"></path>
                    <rect x="0.0341796875" y="31.4472656" width="33.5110168" height="1" rx="0.5"></rect>
                    <g transform="translate(2.701569, 4.451172) scale(1, -1) translate(-2.701569, -4.451172) translate(0.701569, 0.451172)">
                        <g transform="translate(2.184082, 2.484497) rotate(-90.000000) translate(-2.184082, -2.484497) translate(-0.815918, -0.015503)">
                            <path d="M2.88775351,-0.425866237 C2.98755721,-0.684554916 3.15206769,-0.677565105 3.24917468,-0.425866237 L5.40050076,5.1503168 C5.50030446,5.40900548 5.36527212,5.61871408 5.08097484,5.61871408 L1.05595335,5.61871408 C0.779680363,5.61871408 0.639320451,5.40201566 0.736427439,5.1503168 L2.88775351,-0.425866237 Z" transform="translate(3.069450, 2.500722) rotate(90.000000) translate(-3.069450, -2.500722) "></path>
                        </g>
                        <rect x="1.68408203" y="2.48449707" width="1" height="4.93155171" rx="0.5"></rect>
                    </g>
                    <g transform="translate(4.672607, 38.817050) scale(1, -1) translate(-4.672607, -38.817050) translate(0.672607, 33.317050)">
                        <g transform="translate(2.184082, 9.000000) rotate(90.000000) translate(-2.184082, -9.000000) translate(-0.815918, 6.500000)">
                            <path d="M2.88775351,-0.425866237 C2.98755721,-0.684554916 3.15206769,-0.677565105 3.24917468,-0.425866237 L5.40050076,5.1503168 C5.50030446,5.40900548 5.36527212,5.61871408 5.08097484,5.61871408 L1.05595335,5.61871408 C0.779680363,5.61871408 0.639320451,5.40201566 0.736427439,5.1503168 L2.88775351,-0.425866237 Z" transform="translate(3.069450, 2.500722) rotate(90.000000) translate(-3.069450, -2.500722) "></path>
                        </g>
                        <rect x="1.68408203" y="7.10542736e-15" width="1" height="8.00952148" rx="0.5"></rect>
                        <rect x="1.68408203" y="7.10542736e-15" width="6" height="1" rx="0.5"></rect>
                    </g>
                </g>
            </g>
        </g>
    </g>
</svg>
