<?xml version="1.0" encoding="UTF-8" standalone="no"?>
<svg width="290px" height="175px" viewBox="0 0 290 175" version="1.1" xmlns="http://www.w3.org/2000/svg" xmlns:xlink="http://www.w3.org/1999/xlink" >
    <!-- Generator: Sketch 48.2 (47327) - http://www.bohemiancoding.com/sketch -->
    <title>DFN-2-Labeled</title>
    <desc>Created with Sketch.</desc>
    <defs>
        <rect id="path-1" x="0" y="0" width="34.02" height="97.0666667" rx="2"></rect>
        <rect id="path-2" x="0" y="0" width="131.22" height="97.0666667" rx="2"></rect>
    </defs>
    <g stroke="none" stroke-width="1" fill="none" fill-rule="evenodd">
        <g>
            <g transform="translate(16.166827, 4.060179)">
                <g transform="translate(20.655000, 42.466667)">
                    <g>
                        <use fill="#585858" fill-rule="evenodd" xlink:href="#path-1"></use>
                        <rect stroke="#505050" stroke-width="1" x="0.5" y="0.5" width="33.02" height="96.0666667" rx="2"></rect>
                    </g>
                    <g transform="translate(71.433457, 0.000000)">
                        <g transform="translate(65.610000, 48.533333) scale(-1, 1) translate(-65.610000, -48.533333) ">
                            <use fill="#585858" fill-rule="evenodd" xlink:href="#path-2"></use>
                            <rect stroke="#505050" stroke-width="1" x="0.5" y="0.5" width="130.22" height="96.0666667" rx="2"></rect>
                        </g>
                        <rect fill="#D8D8D8" x="9.72" y="9.70666667" width="41.31" height="77.6533333"></rect>
                        <rect fill="#D8D8D8" x="80.19" y="9.70666667" width="41.31" height="77.6533333"></rect>
                    </g>
                </g>
            </g>
            <g transform="translate(36.000000, 21.000000)" fill="#8D9EB0">
                <path d="M20.4337966,13.7599487 L19.3462156,10.3096918 L14.8083777,10.3096918 L13.8145537,13.7599487 L11.4331264,13.7599487 L15.4459252,0.633971343 L18.652414,0.633971343 L22.8714781,13.7599487 L20.4337966,13.7599487 Z M17.0397939,2.28409421 L15.3334168,8.41580079 L18.7836737,8.41580079 L17.0397939,2.28409421 Z"></path>
                <path d="M32.4230957,6.40450573 C32.4230957,6.13364141 32.6550293,5.9140625 32.9230957,5.9140625 L32.9230957,5.9140625 C33.1992381,5.9140625 33.4230957,6.12900531 33.4230957,6.40450573 L33.4230957,22.4236193 C33.4230957,22.6944836 33.1911621,22.9140625 32.9230957,22.9140625 L32.9230957,22.9140625 C32.6469533,22.9140625 32.4230957,22.6991197 32.4230957,22.4236193 L32.4230957,6.40450573 Z"></path>
                <rect x="0.823120117" y="5.9140625" width="1" height="17.4710693" rx="0.5"></rect>
                <g transform="translate(2.614746, 7.035556)">
                    <g transform="translate(2.000000, 1.500000) scale(-1, 1) translate(-2.000000, -1.500000) translate(-1.000000, -1.000000)">
                        <path d="M2.88775351,-0.425866237 C2.98755721,-0.684554916 3.15206769,-0.677565105 3.24917468,-0.425866237 L5.40050076,5.1503168 C5.50030446,5.40900548 5.36527212,5.61871408 5.08097484,5.61871408 L1.05595335,5.61871408 C0.779680363,5.61871408 0.639320451,5.40201566 0.736427439,5.1503168 L2.88775351,-0.425866237 Z" transform="translate(3.069450, 2.500722) rotate(90.000000) translate(-3.069450, -2.500722) "></path>
                    </g>
                    <rect x="1.85259834" y="0.889448752" width="5.39496026" height="1" rx="0.5"></rect>
                </g>
                <g transform="translate(27.318604, 8.535556) scale(-1, 1) translate(-27.318604, -8.535556) translate(23.318604, 7.035556)">
                    <g transform="translate(2.000000, 1.500000) scale(-1, 1) translate(-2.000000, -1.500000) translate(-1.000000, -1.000000)">
                        <path d="M2.88775351,-0.425866237 C2.98755721,-0.684554916 3.15206769,-0.677565105 3.24917468,-0.425866237 L5.40050076,5.1503168 C5.50030446,5.40900548 5.36527212,5.61871408 5.08097484,5.61871408 L1.05595335,5.61871408 C0.779680363,5.61871408 0.639320451,5.40201566 0.736427439,5.1503168 L2.88775351,-0.425866237 Z" transform="translate(3.069450, 2.500722) rotate(90.000000) translate(-3.069450, -2.500722) "></path>
                    </g>
                    <rect x="1.85259834" y="0.889448752" width="5.39496026" height="1" rx="0.5"></rect>
                </g>
            </g>
            <g transform="translate(96.891767, 12.000000)" fill="#8D9EB0">
                <g transform="translate(12.000000, 0.000000)">
                    <g transform="translate(2.749193, 5.813584)">
                        <g transform="translate(2.026855, 1.500000) scale(-1, 1) translate(-2.026855, -1.500000) translate(-0.973145, -1.000000)">
                            <path d="M2.88775351,-0.425866237 C2.98755721,-0.684554916 3.15206769,-0.677565105 3.24917468,-0.425866237 L5.40050076,5.1503168 C5.50030446,5.40900548 5.36527212,5.61871408 5.08097484,5.61871408 L1.05595335,5.61871408 C0.779680363,5.61871408 0.639320451,5.40201566 0.736427439,5.1503168 L2.88775351,-0.425866237 Z" transform="translate(3.069450, 2.500722) rotate(90.000000) translate(-3.069450, -2.500722) "></path>
                        </g>
                        <rect x="1.8794538" y="0.889448752" width="54.6417386" height="1" rx="0.5"></rect>
                    </g>
                    <g transform="translate(105.749193, 7.313584) scale(-1, 1) translate(-105.749193, -7.313584) translate(81.749193, 5.813584)">
                        <g transform="translate(2.026855, 1.500000) scale(-1, 1) translate(-2.026855, -1.500000) translate(-0.973145, -1.000000)">
                            <path d="M2.88775351,-0.425866237 C2.98755721,-0.684554916 3.15206769,-0.677565105 3.24917468,-0.425866237 L5.40050076,5.1503168 C5.50030446,5.40900548 5.36527212,5.61871408 5.08097484,5.61871408 L1.05595335,5.61871408 C0.779680363,5.61871408 0.639320451,5.40201566 0.736427439,5.1503168 L2.88775351,-0.425866237 Z" transform="translate(3.069450, 2.500722) rotate(90.000000) translate(-3.069450, -2.500722) "></path>
                        </g>
                        <rect x="1.8794538" y="0.889448752" width="55" height="1" rx="0.5"></rect>
                    </g>
                    <path d="M66.0311756,0.741501113 C69.5939408,0.741501113 71.3753235,2.84165749 71.3753235,5.99189207 L71.3753235,8.31706521 C71.3753235,11.7298193 69.3501727,13.8674785 65.5623906,13.8674785 L61.7371058,13.8674785 L61.7371058,0.741501113 L66.0311756,0.741501113 Z M69.0126476,8.354568 L69.0126476,5.93563788 C69.0126476,3.7979787 68.0000722,2.56038655 65.9186672,2.56038655 L64.0997817,2.56038655 L64.0997817,12.0485931 L65.581142,12.0485931 C67.8688124,12.0485931 69.0126476,10.8485037 69.0126476,8.354568 Z"></path>
                    <rect x="0.788636831" y="3.12011719" width="1" height="30.9375" rx="0.5"></rect>
                    <rect x="130.786332" y="3.12011719" width="1" height="30.9375" rx="0.5"></rect>
                </g>
                <g transform="translate(22.000000, 123.000000)">
                    <polygon points="20.7644543 25.7550153 26.0898508 25.7550153 26.0898508 27.6676578 18.4017783 27.6676578 18.4017783 14.5416804 20.7644543 14.5416804"></polygon>
                    <g transform="translate(2.053393, 18.603062)">
                        <g transform="translate(3.026855, 2.500000) scale(-1, 1) translate(-3.026855, -2.500000) translate(0.026855, -0.000000)">
                            <path d="M2.88775351,-0.425866237 C2.98755721,-0.684554916 3.15206769,-0.677565105 3.24917468,-0.425866237 L5.40050076,5.1503168 C5.50030446,5.40900548 5.36527212,5.61871408 5.08097484,5.61871408 L1.05595335,5.61871408 C0.779680363,5.61871408 0.639320451,5.40201566 0.736427439,5.1503168 L2.88775351,-0.425866237 Z" transform="translate(3.069450, 2.500722) rotate(90.000000) translate(-3.069450, -2.500722) "></path>
                        </g>
                        <rect x="2.8794538" y="1.88944875" width="10" height="1" rx="0.5"></rect>
                    </g>
                    <g transform="translate(0.681974, 0.825871)">
                        <rect x="0.379257643" y="0.385256936" width="1" height="23.4392625" rx="0.5"></rect>
                        <rect x="40.3769531" y="0.385256936" width="1" height="23.4392625" rx="0.5"></rect>
                        <path d="M37.2323161,17.3513241 C37.3321198,17.0926354 37.4966303,17.0996253 37.5937373,17.3513241 L39.7450634,22.9275072 C39.8448671,23.1861958 39.7098347,23.3959044 39.4255375,23.3959044 L35.400516,23.3959044 C35.124243,23.3959044 34.9838831,23.179206 35.0809901,22.9275072 L37.2323161,17.3513241 Z" transform="translate(37.414013, 20.277912) rotate(90.000000) translate(-37.414013, -20.277912) "></path>
                        <rect x="27.4641437" y="19.6666391" width="10.0278206" height="1" rx="0.5"></rect>
                    </g>
                </g>
                <g transform="translate(145.000000, 34.000000)">
                    <polygon points="17.8621131 44.6783211 12.5554679 44.6783211 12.5554679 48.409849 17.4495823 48.409849 17.4495823 50.2287344 12.5554679 50.2287344 12.5554679 54.1477762 17.8621131 54.1477762 17.8621131 55.9854131 10.192792 55.9854131 10.192792 42.8594357 17.8621131 42.8594357"></polygon>
                    <g transform="translate(0.470954, 0.248780)">
                        <rect x="0.944942635" y="0.548182401" width="16.9928755" height="1" rx="0.5"></rect>
                        <rect x="0.798050467" y="95.8276544" width="17.2866598" height="1" rx="0.5"></rect>
                        <g transform="translate(11.252942, 1.327845)">
                            <g transform="translate(2.184082, 2.484497) rotate(-90.000000) translate(-2.184082, -2.484497) translate(-0.815918, -0.015503)">
                                <path d="M2.88775351,-0.425866237 C2.98755721,-0.684554916 3.15206769,-0.677565105 3.24917468,-0.425866237 L5.40050076,5.1503168 C5.50030446,5.40900548 5.36527212,5.61871408 5.08097484,5.61871408 L1.05595335,5.61871408 C0.779680363,5.61871408 0.639320451,5.40201566 0.736427439,5.1503168 L2.88775351,-0.425866237 Z" transform="translate(3.069450, 2.500722) rotate(90.000000) translate(-3.069450, -2.500722) "></path>
                            </g>
                            <rect x="1.68408203" y="2.48449707" width="1" height="37.4407088" rx="0.5"></rect>
                        </g>
                        <g transform="translate(13.252942, 76.212075) scale(1, -1) translate(-13.252942, -76.212075) translate(11.252942, 56.212075)">
                            <g transform="translate(2.184082, 2.484497) rotate(-90.000000) translate(-2.184082, -2.484497) translate(-0.815918, -0.015503)">
                                <path d="M2.88775351,-0.425866237 C2.98755721,-0.684554916 3.15206769,-0.677565105 3.24917468,-0.425866237 L5.40050076,5.1503168 C5.50030446,5.40900548 5.36527212,5.61871408 5.08097484,5.61871408 L1.05595335,5.61871408 C0.779680363,5.61871408 0.639320451,5.40201566 0.736427439,5.1503168 L2.88775351,-0.425866237 Z" transform="translate(3.069450, 2.500722) rotate(90.000000) translate(-3.069450, -2.500722) "></path>
                            </g>
                            <rect x="1.68408203" y="2.48449707" width="1" height="37" rx="0.5"></rect>
                        </g>
                    </g>
                </g>
                <g transform="translate(0.000000, 44.000000)">
                    <g transform="translate(6.113837, 14.293612) scale(1, -1) translate(-6.113837, -14.293612) translate(4.113837, 1.293612)">
                        <g transform="translate(2.184082, 24.000000) rotate(90.000000) translate(-2.184082, -24.000000) translate(-0.815918, 21.500000)">
                            <path d="M2.88775351,-0.425866237 C2.98755721,-0.684554916 3.15206769,-0.677565105 3.24917468,-0.425866237 L5.40050076,5.1503168 C5.50030446,5.40900548 5.36527212,5.61871408 5.08097484,5.61871408 L1.05595335,5.61871408 C0.779680363,5.61871408 0.639320451,5.40201566 0.736427439,5.1503168 L2.88775351,-0.425866237 Z" transform="translate(3.069450, 2.500722) rotate(90.000000) translate(-3.069450, -2.500722) "></path>
                        </g>
                        <rect x="1.68408203" y="0.752474566" width="1" height="23.2475254" rx="0.5"></rect>
                    </g>
                    <path d="M6.6393228,33.4246084 C8.92699314,33.4246084 10.4271048,35.2622452 10.4271048,38.1499603 L10.4271048,39.1625357 C10.4271048,41.9189909 8.6457222,43.9066389 6.35805185,43.9066389 C5.28922227,43.9066389 4.42665804,43.5128596 3.73285638,42.8003065 L3.54534241,43.6628708 L1.72645697,43.6628708 L1.72645697,29.7868375 L4.05163011,29.7868375 L4.05163011,34.4559352 C4.68917759,33.7996363 5.55174181,33.4246084 6.6393228,33.4246084 Z M8.10193171,39.2375413 L8.10193171,38.0749547 C8.10193171,36.1248095 7.44563284,35.1872397 6.17053789,35.1872397 C5.27047087,35.1872397 4.55791781,35.6185218 4.05163011,36.2560692 L4.05163011,41.3189462 C4.55791781,41.8627367 5.19546528,42.1627591 5.96427253,42.1627591 C7.25811887,42.1627591 8.10193171,41.1501837 8.10193171,39.2375413 Z"></path>
                    <rect x="0.873046875" y="0.0268554688" width="20.5666809" height="1" rx="0.5"></rect>
                    <rect x="0.873046875" y="77.0292969" width="20.5666809" height="1" rx="0.5"></rect>
                    <g transform="translate(6.113837, 63.859375) scale(1, -1) translate(-6.113837, -63.859375) translate(4.113837, 50.859375)">
                        <g transform="translate(2.184082, 2.484497) rotate(-90.000000) translate(-2.184082, -2.484497) translate(-0.815918, -0.015503)">
                            <path d="M2.88775351,-0.425866237 C2.98755721,-0.684554916 3.15206769,-0.677565105 3.24917468,-0.425866237 L5.40050076,5.1503168 C5.50030446,5.40900548 5.36527212,5.61871408 5.08097484,5.61871408 L1.05595335,5.61871408 C0.779680363,5.61871408 0.639320451,5.40201566 0.736427439,5.1503168 L2.88775351,-0.425866237 Z" transform="translate(3.069450, 2.500722) rotate(90.000000) translate(-3.069450, -2.500722) "></path>
                        </g>
                        <rect x="1.68408203" y="2.48449707" width="1" height="23" rx="0.5"></rect>
                    </g>
                </g>
                <g transform="translate(42.000000, 20.000000)">
                    <path d="M40.4251783,5.02879652 C40.4251783,5.44132724 40.3876755,5.85385796 40.3501727,6.1538803 L33.9184438,6.1538803 C33.9559466,8.06652272 34.8372622,8.91033555 36.5623906,8.91033555 C37.6499716,8.91033555 38.4562817,8.51655623 39.2250889,8.08527411 L40.0501504,9.47287744 C39.2063375,10.1104249 37.856237,10.6542154 36.4123795,10.6542154 C33.3746533,10.6542154 31.6495248,8.647816 31.6495248,5.94761494 L31.6495248,4.91628814 C31.6495248,2.21608708 33.3371505,0.172184888 36.1123571,0.172184888 C38.8313096,0.172184888 40.4251783,1.85981055 40.4251783,5.02879652 Z M38.3437733,4.6350172 L38.3437733,4.54126022 C38.3437733,2.81613176 37.574966,1.87856195 36.1311085,1.87856195 C34.7060024,1.87856195 33.9559466,2.81613176 33.9184438,4.6350172 L38.3437733,4.6350172 Z"></path>
                    <g transform="translate(1.614746, 2.535556)">
                        <g transform="translate(3.000000, 2.500000) scale(-1, 1) translate(-3.000000, -2.500000) ">
                            <path d="M2.88775351,-0.425866237 C2.98755721,-0.684554916 3.15206769,-0.677565105 3.24917468,-0.425866237 L5.40050076,5.1503168 C5.50030446,5.40900548 5.36527212,5.61871408 5.08097484,5.61871408 L1.05595335,5.61871408 C0.779680363,5.61871408 0.639320451,5.40201566 0.736427439,5.1503168 L2.88775351,-0.425866237 Z" transform="translate(3.069450, 2.500722) rotate(90.000000) translate(-3.069450, -2.500722) "></path>
                        </g>
                        <rect x="2.85259834" y="1.88944875" width="25.3425921" height="1" rx="0.5"></rect>
                    </g>
                    <rect x="0.500550893" y="1.50292969" width="1" height="20.4912109" rx="0.5"></rect>
                    <rect x="71.3042618" y="1.50292969" width="1" height="20.4912109" rx="0.5"></rect>
                    <g transform="translate(56.818604, 5.035556) scale(-1, 1) translate(-56.818604, -5.035556) translate(43.318604, 3.535556)">
                        <g transform="translate(2.000000, 1.500000) scale(-1, 1) translate(-2.000000, -1.500000) translate(-1.000000, -1.000000)">
                            <path d="M2.88775351,-0.425866237 C2.98755721,-0.684554916 3.15206769,-0.677565105 3.24917468,-0.425866237 L5.40050076,5.1503168 C5.50030446,5.40900548 5.36527212,5.61871408 5.08097484,5.61871408 L1.05595335,5.61871408 C0.779680363,5.61871408 0.639320451,5.40201566 0.736427439,5.1503168 L2.88775351,-0.425866237 Z" transform="translate(3.069450, 2.500722) rotate(90.000000) translate(-3.069450, -2.500722) "></path>
                        </g>
                        <rect x="1.85259834" y="0.889448752" width="25" height="1" rx="0.5"></rect>
                    </g>
                </g>
            </g>
            <g transform="translate(74.553393, 156.103062) scale(-1, 1) translate(-74.553393, -156.103062) translate(70.053393, 153.603062)">
                <g transform="translate(4.026855, 2.500000) scale(-1, 1) translate(-4.026855, -2.500000) translate(0.026855, -0.000000)"></g>
            </g>
        </g>
    </g>
</svg>
