<?xml version="1.0" encoding="UTF-8" standalone="no"?>
<svg width="290px" height="175px" viewBox="0 0 290 175" version="1.1" xmlns="http://www.w3.org/2000/svg" xmlns:xlink="http://www.w3.org/1999/xlink" >
    <!-- Generator: Sketch 48.2 (47327) - http://www.bohemiancoding.com/sketch -->
    <title>DFN-4-Labeled</title>
    <desc>Created with Sketch.</desc>
    <defs>
        <rect id="path-1" x="20.655" y="42.4666667" width="34.02" height="97.0666667" rx="2"></rect>
        <rect id="path-2" x="0.289511719" y="0" width="131.22" height="97.0666667" rx="2"></rect>
    </defs>
    <g stroke="none" stroke-width="1" fill="none" fill-rule="evenodd">
        <g>
            <g transform="translate(12.818765, 4.000000)">
                <g>
                    <use fill="#585858" fill-rule="evenodd" xlink:href="#path-1"></use>
                    <rect stroke="#505050" stroke-width="1" x="21.155" y="42.9666667" width="33.02" height="96.0666667" rx="2"></rect>
                </g>
                <g stroke-width="1" fill-rule="evenodd" transform="translate(92.340000, 42.466667)">
                    <g transform="translate(65.899512, 48.533333) scale(-1, 1) translate(-65.899512, -48.533333) ">
                        <use fill="#585858" fill-rule="evenodd" xlink:href="#path-2"></use>
                        <rect stroke="#505050" stroke-width="1" x="0.789511719" y="0.5" width="130.22" height="96.0666667" rx="2"></rect>
                    </g>
                    <rect fill="#D8D8D8" x="10.0095117" y="9.70666667" width="41.31" height="24.2666667"></rect>
                    <rect fill="#D8D8D8" x="10.0095117" y="63.0933333" width="41.31" height="24.2666667"></rect>
                    <rect fill="#D8D8D8" x="80.4795117" y="9.70666667" width="41.31" height="24.2666667"></rect>
                    <rect fill="#D8D8D8" x="80.4795117" y="63.0933333" width="41.31" height="24.2666667"></rect>
                </g>
            </g>
            <g transform="translate(33.181235, 14.000000)" fill="#8D9EB0">
                <g transform="translate(0.134766, 0.515625)">
                    <path d="M19.9044997,20.1779175 L18.8169188,16.7276606 L14.2790809,16.7276606 L13.2852569,20.1779175 L10.9038295,20.1779175 L14.9166283,7.05194009 L18.1231171,7.05194009 L22.3421813,20.1779175 L19.9044997,20.1779175 Z M16.510497,8.70206296 L14.80412,14.8337695 L18.2543769,14.8337695 L16.510497,8.70206296 Z"></path>
                    <path d="M31.8937988,12.8224745 C31.8937988,12.5516102 32.1257324,12.3320312 32.3937988,12.3320312 L32.3937988,12.3320312 C32.6699412,12.3320312 32.8937988,12.5469741 32.8937988,12.8224745 L32.8937988,28.841588 C32.8937988,29.1124523 32.6618652,29.3320312 32.3937988,29.3320312 L32.3937988,29.3320312 C32.1176565,29.3320312 31.8937988,29.1170884 31.8937988,28.841588 L31.8937988,12.8224745 Z"></path>
                    <rect x="0.293823242" y="12.3320312" width="1" height="17.4710693" rx="0.5"></rect>
                    <g transform="translate(2.085449, 13.453524)">
                        <g transform="translate(2.000000, 1.500000) scale(-1, 1) translate(-2.000000, -1.500000) translate(-1.000000, -1.000000)">
                            <path d="M2.88775351,-0.425866237 C2.98755721,-0.684554916 3.15206769,-0.677565105 3.24917468,-0.425866237 L5.40050076,5.1503168 C5.50030446,5.40900548 5.36527212,5.61871408 5.08097484,5.61871408 L1.05595335,5.61871408 C0.779680363,5.61871408 0.639320451,5.40201566 0.736427439,5.1503168 L2.88775351,-0.425866237 Z" transform="translate(3.069450, 2.500722) rotate(90.000000) translate(-3.069450, -2.500722) "></path>
                        </g>
                        <rect x="1.85259834" y="0.889448752" width="5.39496026" height="1" rx="0.5"></rect>
                    </g>
                    <g transform="translate(26.789307, 14.953524) scale(-1, 1) translate(-26.789307, -14.953524) translate(22.789307, 13.453524)">
                        <g transform="translate(2.000000, 1.500000) scale(-1, 1) translate(-2.000000, -1.500000) translate(-1.000000, -1.000000)">
                            <path d="M2.88775351,-0.425866237 C2.98755721,-0.684554916 3.15206769,-0.677565105 3.24917468,-0.425866237 L5.40050076,5.1503168 C5.50030446,5.40900548 5.36527212,5.61871408 5.08097484,5.61871408 L1.05595335,5.61871408 C0.779680363,5.61871408 0.639320451,5.40201566 0.736427439,5.1503168 L2.88775351,-0.425866237 Z" transform="translate(3.069450, 2.500722) rotate(90.000000) translate(-3.069450, -2.500722) "></path>
                        </g>
                        <rect x="1.85259834" y="0.889448752" width="5.39496026" height="1" rx="0.5"></rect>
                    </g>
                </g>
            </g>
            <g transform="translate(87.181235, 5.000000)" fill="#8D9EB0">
                <polygon points="184.467582 85.6119149 179.160937 85.6119149 179.160937 89.3434427 184.055051 89.3434427 184.055051 91.1623282 179.160937 91.1623282 179.160937 95.08137 184.467582 95.08137 184.467582 96.9190068 176.798261 96.9190068 176.798261 83.7930294 184.467582 83.7930294"></polygon>
                <path d="M168.486333,89.5373561 C168.486333,89.9498868 168.44883,90.3624175 168.411328,90.6624399 L161.979599,90.6624399 C162.017102,92.5750823 162.898417,93.4188951 164.623546,93.4188951 C165.711127,93.4188951 166.517437,93.0251158 167.286244,92.5938337 L168.111305,93.981437 C167.267492,94.6189845 165.917392,95.162775 164.473534,95.162775 C161.435808,95.162775 159.71068,93.1563756 159.71068,90.4561745 L159.71068,89.4248477 C159.71068,86.7246466 161.398305,84.6807444 164.173512,84.6807444 C166.892465,84.6807444 168.486333,86.3683701 168.486333,89.5373561 Z M166.404928,89.1435768 L166.404928,89.0498198 C166.404928,87.3246913 165.636121,86.3871215 164.192263,86.3871215 C162.767157,86.3871215 162.017102,87.3246913 161.979599,89.1435768 L166.404928,89.1435768 Z"></path>
                <path d="M5.14249662,59.7146475 C7.43016697,59.7146475 8.93027867,61.5522843 8.93027867,64.4399993 L8.93027867,65.4525747 C8.93027867,68.20903 7.14889603,70.196678 4.86122568,70.196678 C3.79239609,70.196678 2.92983187,69.8028987 2.2360302,69.0903456 L2.04851624,69.9529098 L0.229630803,69.9529098 L0.229630803,56.0768766 L2.55480394,56.0768766 L2.55480394,60.7459743 C3.19235141,60.0896754 4.05491564,59.7146475 5.14249662,59.7146475 Z M6.60510553,65.5275803 L6.60510553,64.3649938 C6.60510553,62.4148485 5.94880666,61.4772787 4.67371172,61.4772787 C3.7736447,61.4772787 3.06109164,61.9085608 2.55480394,62.5461083 L2.55480394,67.6089853 C3.06109164,68.1527758 3.69863911,68.4527981 4.46744636,68.4527981 C5.7612927,68.4527981 6.60510553,67.4402227 6.60510553,65.5275803 Z"></path>
                <g transform="translate(30.204760, 148.536655)">
                    <g transform="translate(2.026855, 1.500000) scale(-1, 1) translate(-2.026855, -1.500000) translate(-0.973145, -1.000000)">
                        <path d="M2.88775351,-0.425866237 C2.98755721,-0.684554916 3.15206769,-0.677565105 3.24917468,-0.425866237 L5.40050076,5.1503168 C5.50030446,5.40900548 5.36527212,5.61871408 5.08097484,5.61871408 L1.05595335,5.61871408 C0.779680363,5.61871408 0.639320451,5.40201566 0.736427439,5.1503168 L2.88775351,-0.425866237 Z" transform="translate(3.069450, 2.500722) rotate(90.000000) translate(-3.069450, -2.500722) "></path>
                    </g>
                    <rect x="1.8794538" y="0.889448752" width="10" height="1" rx="0.5"></rect>
                </g>
                <g transform="translate(61.204760, 150.036655) scale(-1, 1) translate(-61.204760, -150.036655) translate(55.204760, 148.536655)">
                    <g transform="translate(2.026855, 1.500000) scale(-1, 1) translate(-2.026855, -1.500000) translate(-0.973145, -1.000000)">
                        <path d="M2.88775351,-0.425866237 C2.98755721,-0.684554916 3.15206769,-0.677565105 3.24917468,-0.425866237 L5.40050076,5.1503168 C5.50030446,5.40900548 5.36527212,5.61871408 5.08097484,5.61871408 L1.05595335,5.61871408 C0.779680363,5.61871408 0.639320451,5.40201566 0.736427439,5.1503168 L2.88775351,-0.425866237 Z" transform="translate(3.069450, 2.500722) rotate(90.000000) translate(-3.069450, -2.500722) "></path>
                    </g>
                    <rect x="1.8794538" y="0.889448752" width="10.0278206" height="1" rx="0.5"></rect>
                </g>
                <path d="M84.7617281,23.4680078 L87.0869012,23.4680078 L87.0869012,37.344041 L85.2680158,37.344041 L85.0242476,36.25646 C84.3679488,37.0627701 83.5053845,37.5878092 82.2865438,37.5878092 C79.9613706,37.5878092 78.3299992,35.7314209 78.3299992,32.8812087 L78.3299992,31.8311305 C78.3299992,29.0934266 79.980122,27.1057786 82.3990521,27.1057786 C83.3741248,27.1057786 84.1241806,27.405801 84.7617281,27.9870943 L84.7617281,23.4680078 Z M82.6990745,35.8439293 C83.6178929,35.8439293 84.236689,35.3938958 84.7617281,34.6813427 L84.7617281,29.6934713 C84.3491974,29.2434378 83.6553957,28.8684099 82.7928315,28.8684099 C81.4614823,28.8684099 80.6551723,29.8809853 80.6551723,31.7748763 L80.6551723,32.9187115 C80.6551723,34.9063595 81.4427309,35.8439293 82.6990745,35.8439293 Z"></path>
                <g transform="translate(47.220215, 30.469149)">
                    <g transform="translate(2.000000, 1.500000) scale(-1, 1) translate(-2.000000, -1.500000) translate(-1.000000, -1.000000)">
                        <path d="M2.88775351,-0.425866237 C2.98755721,-0.684554916 3.15206769,-0.677565105 3.24917468,-0.425866237 L5.40050076,5.1503168 C5.50030446,5.40900548 5.36527212,5.61871408 5.08097484,5.61871408 L1.05595335,5.61871408 C0.779680363,5.61871408 0.639320451,5.40201566 0.736427439,5.1503168 L2.88775351,-0.425866237 Z" transform="translate(3.069450, 2.500722) rotate(90.000000) translate(-3.069450, -2.500722) "></path>
                    </g>
                    <rect x="2.9518415" y="0.889448752" width="26.7037981" height="1" rx="0.5"></rect>
                </g>
                <rect x="46.1060196" y="28.75" width="1" height="20.2412109" rx="0.5"></rect>
                <rect x="118.909731" y="28.75" width="1" height="20.2412109" rx="0.5"></rect>
                <g transform="translate(18.134766, 0.515625)">
                    <g transform="translate(2.219896, 12.231553)">
                        <g transform="translate(2.026855, 1.500000) scale(-1, 1) translate(-2.026855, -1.500000) translate(-0.973145, -1.000000)">
                            <path d="M2.88775351,-0.425866237 C2.98755721,-0.684554916 3.15206769,-0.677565105 3.24917468,-0.425866237 L5.40050076,5.1503168 C5.50030446,5.40900548 5.36527212,5.61871408 5.08097484,5.61871408 L1.05595335,5.61871408 C0.779680363,5.61871408 0.639320451,5.40201566 0.736427439,5.1503168 L2.88775351,-0.425866237 Z" transform="translate(3.069450, 2.500722) rotate(90.000000) translate(-3.069450, -2.500722) "></path>
                        </g>
                        <rect x="1.8794538" y="0.889448752" width="54.6417386" height="1" rx="0.5"></rect>
                    </g>
                    <g transform="translate(100.219896, 13.731553) scale(-1, 1) translate(-100.219896, -13.731553) translate(71.219896, 12.231553)">
                        <g transform="translate(2.026855, 1.500000) scale(-1, 1) translate(-2.026855, -1.500000) translate(-0.973145, -1.000000)">
                            <path d="M2.88775351,-0.425866237 C2.98755721,-0.684554916 3.15206769,-0.677565105 3.24917468,-0.425866237 L5.40050076,5.1503168 C5.50030446,5.40900548 5.36527212,5.61871408 5.08097484,5.61871408 L1.05595335,5.61871408 C0.779680363,5.61871408 0.639320451,5.40201566 0.736427439,5.1503168 L2.88775351,-0.425866237 Z" transform="translate(3.069450, 2.500722) rotate(90.000000) translate(-3.069450, -2.500722) "></path>
                        </g>
                        <rect x="2.28318812" y="0.889448752" width="55" height="1" rx="0.5"></rect>
                    </g>
                    <path d="M65.5018787,7.15946986 C69.064644,7.15946986 70.8460266,9.25962624 70.8460266,12.4098608 L70.8460266,14.735034 C70.8460266,18.1477881 68.8208758,20.2854473 65.0330938,20.2854473 L61.2078089,20.2854473 L61.2078089,7.15946986 L65.5018787,7.15946986 Z M68.4833507,14.7725367 L68.4833507,12.3536066 C68.4833507,10.2159475 67.4707753,8.9783553 65.3893703,8.9783553 L63.5704849,8.9783553 L63.5704849,18.4665618 L65.0518452,18.4665618 C67.3395155,18.4665618 68.4833507,17.2664725 68.4833507,14.7725367 Z"></path>
                    <rect x="0.259339956" y="9.53808594" width="1" height="30.9375" rx="0.5"></rect>
                    <rect x="130.257035" y="9.53808594" width="1" height="30.9375" rx="0.5"></rect>
                </g>
                <polygon points="47.9158215 154.688609 53.241218 154.688609 53.241218 156.601252 45.5531455 156.601252 45.5531455 143.475274 47.9158215 143.475274"></polygon>
                <rect x="28.2125993" y="130.144722" width="1" height="23.4392625" rx="0.5"></rect>
                <rect x="68.2102947" y="130.144722" width="1" height="23.4392625" rx="0.5"></rect>
                <g transform="translate(140.076423, 41.182373)">
                    <rect x="10.162905" y="0.548182401" width="35.6934543" height="1" rx="0.5"></rect>
                    <rect x="0.162905011" y="21.0589246" width="28.6854772" height="1" rx="0.5"></rect>
                    <rect x="0.162905011" y="74.4717664" width="28.6854772" height="1" rx="0.5"></rect>
                    <rect x="10.162905" y="95.8276544" width="36.3105469" height="1" rx="0.5"></rect>
                    <g transform="translate(37.252942, 1.327845)">
                        <g transform="translate(2.184082, 2.484497) rotate(-90.000000) translate(-2.184082, -2.484497) translate(-0.815918, -0.015503)">
                            <path d="M2.88775351,-0.425866237 C2.98755721,-0.684554916 3.15206769,-0.677565105 3.24917468,-0.425866237 L5.40050076,5.1503168 C5.50030446,5.40900548 5.36527212,5.61871408 5.08097484,5.61871408 L1.05595335,5.61871408 C0.779680363,5.61871408 0.639320451,5.40201566 0.736427439,5.1503168 L2.88775351,-0.425866237 Z" transform="translate(3.069450, 2.500722) rotate(90.000000) translate(-3.069450, -2.500722) "></path>
                        </g>
                        <rect x="1.68408203" y="2.48449707" width="1" height="37.4407088" rx="0.5"></rect>
                    </g>
                    <g transform="translate(39.252942, 76.105189) scale(1, -1) translate(-39.252942, -76.105189) translate(37.252942, 57.105189)">
                        <g transform="translate(2.184082, 2.484497) rotate(-90.000000) translate(-2.184082, -2.484497) translate(-0.815918, -0.015503)">
                            <path d="M2.88775351,-0.425866237 C2.98755721,-0.684554916 3.15206769,-0.677565105 3.24917468,-0.425866237 L5.40050076,5.1503168 C5.50030446,5.40900548 5.36527212,5.61871408 5.08097484,5.61871408 L1.05595335,5.61871408 C0.779680363,5.61871408 0.639320451,5.40201566 0.736427439,5.1503168 L2.88775351,-0.425866237 Z" transform="translate(3.069450, 2.500722) rotate(90.000000) translate(-3.069450, -2.500722) "></path>
                        </g>
                        <rect x="1.68408203" y="1.65323786" width="1" height="36.1687408" rx="0.5"></rect>
                    </g>
                    <g transform="translate(21.991345, 22.115443)">
                        <g transform="translate(2.184082, 2.484497) rotate(-90.000000) translate(-2.184082, -2.484497) translate(-0.815918, -0.015503)">
                            <path d="M2.88775351,-0.425866237 C2.98755721,-0.684554916 3.15206769,-0.677565105 3.24917468,-0.425866237 L5.40050076,5.1503168 C5.50030446,5.40900548 5.36527212,5.61871408 5.08097484,5.61871408 L1.05595335,5.61871408 C0.779680363,5.61871408 0.639320451,5.40201566 0.736427439,5.1503168 L2.88775351,-0.425866237 Z" transform="translate(3.069450, 2.500722) rotate(90.000000) translate(-3.069450, -2.500722) "></path>
                        </g>
                        <rect x="1.68408203" y="2.48449707" width="1" height="16.8987167" rx="0.5"></rect>
                    </g>
                    <g transform="translate(23.991345, 64.800502) scale(1, -1) translate(-23.991345, -64.800502) translate(21.991345, 54.800502)">
                        <g transform="translate(2.184082, 2.484497) rotate(-90.000000) translate(-2.184082, -2.484497) translate(-0.815918, -0.015503)">
                            <path d="M2.88775351,-0.425866237 C2.98755721,-0.684554916 3.15206769,-0.677565105 3.24917468,-0.425866237 L5.40050076,5.1503168 C5.50030446,5.40900548 5.36527212,5.61871408 5.08097484,5.61871408 L1.05595335,5.61871408 C0.779680363,5.61871408 0.639320451,5.40201566 0.736427439,5.1503168 L2.88775351,-0.425866237 Z" transform="translate(3.069450, 2.500722) rotate(90.000000) translate(-3.069450, -2.500722) "></path>
                        </g>
                        <rect x="1.68408203" y="2.48449707" width="1" height="17" rx="0.5"></rect>
                    </g>
                </g>
                <path d="M0.0341796875,51.4604492 C0.0341796875,51.1843068 0.249592137,50.9604492 0.529658159,50.9604492 L21.7988361,50.9604492 L25.8677858,50.9604492 C26.1479125,50.9604492 26.375,51.1923828 26.375,51.4604492 L26.375,51.4604492 C26.375,51.7365916 26.1472821,51.9604492 25.8723281,51.9604492 L0.536851589,51.9604492 C0.259233564,51.9604492 0.0341796875,51.7285156 0.0341796875,51.4604492 L0.0341796875,51.4604492 Z"></path>
                <rect x="0.0341796875" y="74.9628906" width="26.3408203" height="1" rx="0.5"></rect>
                <g transform="translate(103.924072, 31.969149) scale(-1, 1) translate(-103.924072, -31.969149) translate(89.924072, 30.469149)">
                    <g transform="translate(2.000000, 1.500000) scale(-1, 1) translate(-2.000000, -1.500000) translate(-1.000000, -1.000000)">
                        <path d="M2.88775351,-0.425866237 C2.98755721,-0.684554916 3.15206769,-0.677565105 3.24917468,-0.425866237 L5.40050076,5.1503168 C5.50030446,5.40900548 5.36527212,5.61871408 5.08097484,5.61871408 L1.05595335,5.61871408 C0.779680363,5.61871408 0.639320451,5.40201566 0.736427439,5.1503168 L2.88775351,-0.425866237 Z" transform="translate(3.069450, 2.500722) rotate(90.000000) translate(-3.069450, -2.500722) "></path>
                    </g>
                    <rect x="2.85259834" y="0.889448752" width="25" height="1" rx="0.5"></rect>
                </g>
                <g transform="translate(4.701569, 46.966797) scale(1, -1) translate(-4.701569, -46.966797) translate(2.701569, 42.966797)">
                    <g transform="translate(1.915442, 2.484497) rotate(-90.000000) translate(-1.915442, -2.484497) translate(-1.084558, -0.015503)">
                        <path d="M2.88775351,-0.425866237 C2.98755721,-0.684554916 3.15206769,-0.677565105 3.24917468,-0.425866237 L5.40050076,5.1503168 C5.50030446,5.40900548 5.36527212,5.61871408 5.08097484,5.61871408 L1.05595335,5.61871408 C0.779680363,5.61871408 0.639320451,5.40201566 0.736427439,5.1503168 L2.88775351,-0.425866237 Z" transform="translate(3.069450, 2.500722) rotate(90.000000) translate(-3.069450, -2.500722) "></path>
                    </g>
                    <rect x="1.41544212" y="2.48449707" width="1" height="4.93155171" rx="0.5"></rect>
                </g>
                <g transform="translate(2.617011, 76.966797)">
                    <g transform="translate(2.184082, 2.484497) rotate(-90.000000) translate(-2.184082, -2.484497) translate(-0.815918, -0.015503)">
                        <path d="M2.88775351,-0.425866237 C2.98755721,-0.684554916 3.15206769,-0.677565105 3.24917468,-0.425866237 L5.40050076,5.1503168 C5.50030446,5.40900548 5.36527212,5.61871408 5.08097484,5.61871408 L1.05595335,5.61871408 C0.779680363,5.61871408 0.639320451,5.40201566 0.736427439,5.1503168 L2.88775351,-0.425866237 Z" transform="translate(3.069450, 2.500722) rotate(90.000000) translate(-3.069450, -2.500722) "></path>
                    </g>
                    <rect x="1.68408203" y="2.48449707" width="1" height="4.93155171" rx="0.5"></rect>
                </g>
            </g>
        </g>
    </g>
</svg>
