<?xml version="1.0" encoding="UTF-8" standalone="no"?>
<svg width="290px" height="175px" viewBox="0 0 290 175" version="1.1" xmlns="http://www.w3.org/2000/svg" xmlns:xlink="http://www.w3.org/1999/xlink" >
    <!-- Generator: Sketch 49.3 (51167) - http://www.bohemiancoding.com/sketch -->
    <title>DIP-labeled</title>
    <desc>Created with Sketch.</desc>
    <defs>
        <path d="M10.7276469,0.414479167 L42.8564844,0.414479167 C43.5320984,0.414479167 44.1243366,0.866144714 44.3030529,1.51769261 L47.4802419,13.1008004 L6.82845342,13.0974219 L9.26013211,1.60399522 C9.40683946,0.910577093 10.0188792,0.414479167 10.7276469,0.414479167 Z" id="path-1"></path>
        <path d="M89.1374831,12.2666667 L91.6186719,1.20902101 C91.7723455,0.524160491 92.3803886,0.0374348958 93.0822785,0.0374348958 L190.618555,0.0374348958 C191.322812,0.0374348958 191.932236,0.527375924 192.083532,1.21518868 L194.51449,12.2666667 L89.1374831,12.2666667 Z" id="path-2"></path>
    </defs>
    <g stroke="none" stroke-width="1" fill="none" fill-rule="evenodd">
        <g transform="translate(22.138021, -4.646484)">
            <g transform="translate(25.215000, 72.373333)">
                <path d="M7.67340596,12.10375 C8.35271621,12.10375 8.90340596,12.6529474 8.90340596,13.3304167 C8.90340596,14.007886 8.35271621,14.5570833 7.67340596,14.5570833 L4.13051005,14.5570833 C3.79085493,14.5570833 3.51551005,14.831682 3.51551005,15.1704167 L3.51551005,48.4539323 C3.51551005,49.1314016 2.96482029,49.680599 2.28551005,49.680599 C1.60619981,49.680599 1.05551005,49.1314016 1.05551005,48.4539323 L1.05551005,15.1704167 C1.05551005,13.4767434 2.43223445,12.10375 4.13051005,12.10375 L7.67340596,12.10375 Z" stroke="#979797" fill="#D8D8D8" fill-rule="nonzero"></path>
                <path d="M51.2645339,12.10375 C51.9438441,12.10375 52.4945339,12.6529474 52.4945339,13.3304167 C52.4945339,14.007886 51.9438441,14.5570833 51.2645339,14.5570833 L47.721638,14.5570833 C47.3819829,14.5570833 47.106638,14.831682 47.106638,15.1704167 L47.106638,48.4539323 C47.106638,49.1314016 46.5559482,49.680599 45.876638,49.680599 C45.1973277,49.680599 44.646638,49.1314016 44.646638,48.4539323 L44.646638,15.1704167 C44.646638,13.4767434 46.0233624,12.10375 47.721638,12.10375 L51.2645339,12.10375 Z" stroke="#979797" fill="#D8D8D8" fill-rule="nonzero" transform="translate(48.570586, 30.892174) scale(-1, 1) translate(-48.570586, -30.892174) "></path>
                <g>
                    <use fill="#585858" fill-rule="evenodd" xlink:href="#path-1"></use>
                    <path stroke="#505050" stroke-width="1" d="M7.44529629,12.5974731 L46.8246111,12.6007459 L43.8208634,1.64995479 C43.7017192,1.21558953 43.3068937,0.914479167 42.8564844,0.914479167 L10.7276469,0.914479167 C10.2551351,0.914479167 9.84710861,1.24521112 9.74930372,1.70748987 L7.44529629,12.5974731 Z"></path>
                </g>
                <path d="M10.7276469,13.0363281 L42.8566457,13.0363281 C43.5321839,13.0363281 44.1243754,13.4878944 44.3031602,14.1393449 L47.4802419,25.7158923 L6.82845342,25.7192708 L9.26013211,14.2258442 C9.40683946,13.5324261 10.0188792,13.0363281 10.7276469,13.0363281 Z" fill="#505050" transform="translate(27.154348, 19.377799) scale(1, -1) translate(-27.154348, -19.377799) "></path>
                <g>
                    <use fill="#585858" fill-rule="evenodd" xlink:href="#path-2"></use>
                    <path stroke="#505050" stroke-width="1" d="M89.7621092,11.7666667 L193.892553,11.7666667 L191.595207,1.32260408 C191.494343,0.864062248 191.088059,0.537434896 190.618555,0.537434896 L93.0822785,0.537434896 C92.6143519,0.537434896 92.2089898,0.861918626 92.1065408,1.31849231 L89.7621092,11.7666667 Z"></path>
                </g>
                <path d="M89.1374831,24.4958984 L91.6186719,13.4382528 C91.7723455,12.7533923 92.3803886,12.2666667 93.0822785,12.2666667 L190.618555,12.2666667 C191.322812,12.2666667 191.932236,12.7566077 192.083532,13.4444204 L194.51449,24.4958984 L89.1374831,24.4958984 Z" fill="#505050" transform="translate(142.055238, 18.381283) scale(1, -1) translate(-142.055238, -18.381283) "></path>
                <polygon stroke="#979797" fill="#D8D8D8" points="98.4591774 12.2666667 98.4591774 31.739401 99.9017849 31.739401 99.9017849 48.8048677 105.385808 48.8048677 105.385808 31.8951125 106.829672 31.8951125 106.829672 12.2666667"></polygon>
                <polygon stroke="#979797" fill="#D8D8D8" points="114.147283 12.2666667 114.147283 31.739401 115.58989 31.739401 115.58989 48.8048677 121.073913 48.8048677 121.073913 31.8951125 122.517777 31.8951125 122.517777 12.2666667"></polygon>
                <polygon stroke="#979797" fill="#D8D8D8" points="129.835388 12.2666667 129.835388 31.739401 131.277996 31.739401 131.277996 48.8048677 136.762019 48.8048677 136.762019 31.8951125 138.205882 31.8951125 138.205882 12.2666667"></polygon>
                <polygon stroke="#979797" fill="#D8D8D8" points="145.523494 12.2666667 145.523494 31.739401 146.966101 31.739401 146.966101 48.8048677 152.450124 48.8048677 152.450124 31.8951125 153.893988 31.8951125 153.893988 12.2666667"></polygon>
                <polygon stroke="#979797" fill="#D8D8D8" points="161.211599 12.2666667 161.211599 31.739401 162.654207 31.739401 162.654207 48.8048677 168.13823 48.8048677 168.13823 31.8951125 169.582093 31.8951125 169.582093 12.2666667"></polygon>
                <polygon stroke="#979797" fill="#D8D8D8" points="176.899705 12.2666667 176.899705 31.739401 178.342312 31.739401 178.342312 48.8048677 183.826335 48.8048677 183.826335 31.8951125 185.270199 31.8951125 185.270199 12.2666667"></polygon>
            </g>
        </g>
        <path d="M255.679442,90.9089355 L254.591861,87.4586786 L250.054023,87.4586786 L249.060199,90.9089355 L246.678772,90.9089355 L250.691571,77.7829582 L253.89806,77.7829582 L258.117124,90.9089355 L255.679442,90.9089355 Z M252.285439,79.433081 L250.579062,85.5647876 L254.029319,85.5647876 L252.285439,79.433081 Z" fill="#8D9EB0"></path>
        <rect fill="#8D9EB0" x="53.2103734" y="41.534668" width="1" height="36.4516602" rx="0.5"></rect>
        <rect fill="#8D9EB0" x="48.1874241" y="118.24707" width="1" height="19.6241585" rx="0.5"></rect>
        <rect fill="#8D9EB0" x="93.3417969" y="41.534668" width="1" height="36.4516602" rx="0.5"></rect>
        <rect fill="#8D9EB0" x="97.5078966" y="118.334338" width="1" height="19.6241585" rx="0.5"></rect>
        <g transform="translate(53.710373, 43.378035)" fill="#8D9EB0">
            <g transform="translate(3.085449, 3.453524) scale(-1, 1) translate(-3.085449, -3.453524) translate(0.085449, 0.953524)">
                <path d="M2.88775351,-0.425866237 C2.98755721,-0.684554916 3.15206769,-0.677565105 3.24917468,-0.425866237 L5.40050076,5.1503168 C5.50030446,5.40900548 5.36527212,5.61871408 5.08097484,5.61871408 L1.05595335,5.61871408 C0.779680363,5.61871408 0.639320451,5.40201566 0.736427439,5.1503168 L2.88775351,-0.425866237 Z" transform="translate(3.069450, 2.500722) rotate(90.000000) translate(-3.069450, -2.500722) "></path>
            </g>
            <rect x="2.93804755" y="2.84297312" width="7.6927656" height="1" rx="0.5"></rect>
        </g>
        <g transform="translate(49.533616, 131.878524)" fill="#8D9EB0">
            <g transform="translate(3.085449, 3.453524) scale(-1, 1) translate(-3.085449, -3.453524) translate(0.085449, 0.953524)">
                <path d="M2.88775351,-0.425866237 C2.98755721,-0.684554916 3.15206769,-0.677565105 3.24917468,-0.425866237 L5.40050076,5.1503168 C5.50030446,5.40900548 5.36527212,5.61871408 5.08097484,5.61871408 L1.05595335,5.61871408 C0.779680363,5.61871408 0.639320451,5.40201566 0.736427439,5.1503168 L2.88775351,-0.425866237 Z" transform="translate(3.069450, 2.500722) rotate(90.000000) translate(-3.069450, -2.500722) "></path>
            </g>
            <rect x="2.93804755" y="2.84297312" width="15.6539472" height="1" rx="0.5"></rect>
        </g>
        <g transform="translate(85.917725, 46.378035) scale(-1, 1) translate(-85.917725, -46.378035) translate(77.917725, 43.378035)" fill="#8D9EB0">
            <g transform="translate(3.085449, 3.453524) scale(-1, 1) translate(-3.085449, -3.453524) translate(0.085449, 0.953524)">
                <path d="M2.88775351,-0.425866237 C2.98755721,-0.684554916 3.15206769,-0.677565105 3.24917468,-0.425866237 L5.40050076,5.1503168 C5.50030446,5.40900548 5.36527212,5.61871408 5.08097484,5.61871408 L1.05595335,5.61871408 C0.779680363,5.61871408 0.639320451,5.40201566 0.736427439,5.1503168 L2.88775351,-0.425866237 Z" transform="translate(3.069450, 2.500722) rotate(90.000000) translate(-3.069450, -2.500722) "></path>
            </g>
            <rect x="2.93804755" y="2.84297312" width="8" height="1" rx="0.5"></rect>
        </g>
        <g transform="translate(92.186279, 134.851180) scale(-1, 1) translate(-92.186279, -134.851180) translate(86.686279, 131.851180)" fill="#8D9EB0">
            <g transform="translate(3.085449, 3.453524) scale(-1, 1) translate(-3.085449, -3.453524) translate(0.085449, 0.953524)">
                <path d="M2.88775351,-0.425866237 C2.98755721,-0.684554916 3.15206769,-0.677565105 3.24917468,-0.425866237 L5.40050076,5.1503168 C5.50030446,5.40900548 5.36527212,5.61871408 5.08097484,5.61871408 L1.05595335,5.61871408 C0.779680363,5.61871408 0.639320451,5.40201566 0.736427439,5.1503168 L2.88775351,-0.425866237 Z" transform="translate(3.069450, 2.500722) rotate(90.000000) translate(-3.069450, -2.500722) "></path>
            </g>
            <rect x="2.93804755" y="2.84297312" width="16" height="1" rx="0.5"></rect>
        </g>
        <g transform="translate(136.429688, 43.378035)" fill="#8D9EB0">
            <g transform="translate(3.832124, 3.275391) scale(-1, 1) translate(-3.832124, -3.275391) translate(0.832124, 0.775391)">
                <path d="M2.88775351,-0.425866237 C2.98755721,-0.684554916 3.15206769,-0.677565105 3.24917468,-0.425866237 L5.40050076,5.1503168 C5.50030446,5.40900548 5.36527212,5.61871408 5.08097484,5.61871408 L1.05595335,5.61871408 C0.779680363,5.61871408 0.639320451,5.40201566 0.736427439,5.1503168 L2.88775351,-0.425866237 Z" transform="translate(3.069450, 2.500722) rotate(90.000000) translate(-3.069450, -2.500722) "></path>
            </g>
            <rect x="3.68472202" y="2.66483938" width="40.915986" height="1" rx="0.5"></rect>
        </g>
        <g transform="translate(218.320312, 46.378035) scale(-1, 1) translate(-218.320312, -46.378035) translate(195.820312, 43.378035)" fill="#8D9EB0">
            <g transform="translate(3.832124, 3.275391) scale(-1, 1) translate(-3.832124, -3.275391) translate(0.832124, 0.775391)">
                <path d="M2.88775351,-0.425866237 C2.98755721,-0.684554916 3.15206769,-0.677565105 3.24917468,-0.425866237 L5.40050076,5.1503168 C5.50030446,5.40900548 5.36527212,5.61871408 5.08097484,5.61871408 L1.05595335,5.61871408 C0.779680363,5.61871408 0.639320451,5.40201566 0.736427439,5.1503168 L2.88775351,-0.425866237 Z" transform="translate(3.069450, 2.500722) rotate(90.000000) translate(-3.069450, -2.500722) "></path>
            </g>
            <rect x="3.68472202" y="2.66483938" width="41" height="1" rx="0.5"></rect>
        </g>
        <path d="M188.782498,41.005354 C192.345263,41.005354 194.126646,43.1055104 194.126646,46.2557449 L194.126646,48.5809181 C194.126646,51.9936722 192.101495,54.1313314 188.313713,54.1313314 L184.488428,54.1313314 L184.488428,41.005354 L188.782498,41.005354 Z M191.76397,48.6184209 L191.76397,46.1994907 C191.76397,44.0618316 190.751394,42.8242394 188.669989,42.8242394 L186.851104,42.8242394 L186.851104,52.3124459 L188.332464,52.3124459 C190.620134,52.3124459 191.76397,51.1123566 191.76397,48.6184209 Z" fill="#8D9EB0"></path>
        <rect fill="#8D9EB0" x="135.424316" y="41.6210775" width="1" height="35.7846843" rx="0.5"></rect>
        <rect fill="#8D9EB0" x="240.775757" y="41.6210775" width="1" height="35.7846843" rx="0.5"></rect>
        <path d="M171.912866,131.275279 C174.200536,131.275279 175.700648,133.112916 175.700648,136.000631 L175.700648,137.013207 C175.700648,139.769662 173.919265,141.75731 171.631595,141.75731 C170.562765,141.75731 169.700201,141.363531 169.006399,140.650977 L168.818885,141.513542 L167,141.513542 L167,127.637508 L169.325173,127.637508 L169.325173,132.306606 C169.962721,131.650307 170.825285,131.275279 171.912866,131.275279 Z M173.375475,137.088212 L173.375475,135.925626 C173.375475,133.97548 172.719176,133.037911 171.444081,133.037911 C170.544014,133.037911 169.831461,133.469193 169.325173,134.10674 L169.325173,139.169617 C169.831461,139.713408 170.469008,140.01343 171.237816,140.01343 C172.531662,140.01343 173.375475,139.000855 173.375475,137.088212 Z" fill="#8D9EB0"></path>
        <path d="M117.919154,130.243768 C115.05019,130.243768 113.381316,128.312374 113.381316,125.424659 L113.381316,124.580846 C113.381316,121.693131 115.012687,119.761738 117.956656,119.761738 C119.306757,119.761738 120.338084,120.19302 121.256902,121.074335 L120.15057,122.311928 C119.531774,121.768137 118.931729,121.524369 118.050413,121.524369 C116.587804,121.524369 115.706489,122.499441 115.706489,124.543344 L115.706489,125.462162 C115.706489,127.487313 116.53155,128.499888 118.031662,128.499888 C118.95048,128.499888 119.606779,128.12486 120.225575,127.693578 L121.181896,129.06243 C120.356835,129.756232 119.119243,130.243768 117.919154,130.243768 Z" fill="#8D9EB0"></path>
        <rect fill="#8D9EB0" x="95.9089207" y="118.429143" width="1" height="10.8301346" rx="0.5"></rect>
        <rect fill="#8D9EB0" x="99.1068726" y="118.429143" width="1" height="10.8301346" rx="0.5"></rect>
        <rect fill="#8D9EB0" x="234.60437" y="98.9614258" width="23.0456238" height="1" rx="0.5"></rect>
        <rect fill="#8D9EB0" x="233.039673" y="116" width="24.610321" height="1" rx="0.5"></rect>
        <rect fill="#8D9EB0" x="123.39714" y="98.9614258" width="19" height="1" rx="0.5"></rect>
        <path d="M239.577515,68.5688477 C239.577515,68.2927053 239.806018,68.0688477 240.079739,68.0688477 L257.14777,68.0688477 C257.425141,68.0688477 257.650143,68.3007812 257.650314,68.5688477 L257.650314,68.5688477 C257.650491,68.84499 257.422124,69.0688477 257.148393,69.0688477 L240.079756,69.0688477 C239.802376,69.0688477 239.577515,68.8369141 239.577515,68.5688477 L239.577515,68.5688477 Z" fill="#8D9EB0"></path>
        <path d="M123.39714,91.4089355 C123.39714,91.1327932 123.61933,90.9089355 123.892886,90.9089355 L137.801278,90.9089355 C138.075071,90.9089355 138.297146,91.1408691 138.297288,91.4089355 L138.297288,91.4089355 C138.297434,91.6850779 138.075355,91.9089355 137.801789,91.9089355 L123.892904,91.9089355 C123.619101,91.9089355 123.39714,91.677002 123.39714,91.4089355 L123.39714,91.4089355 Z" fill="#8D9EB0"></path>
        <g transform="translate(253.059245, 95.461426) scale(1, -1) translate(-253.059245, -95.461426) translate(250.059245, 89.961426)" fill="#8D9EB0">
            <g transform="translate(2.525734, 4.950073) rotate(-90.000000) translate(-2.525734, -4.950073) translate(-1.474266, 2.450073)">
                <path d="M3.88775351,-0.425866237 C3.98755721,-0.684554916 4.15206769,-0.677565105 4.24917468,-0.425866237 L6.40050076,5.1503168 C6.50030446,5.40900548 6.36527212,5.61871408 6.08097484,5.61871408 L2.05595335,5.61871408 C1.77968036,5.61871408 1.63932045,5.40201566 1.73642744,5.1503168 L3.88775351,-0.425866237 Z" transform="translate(4.069450, 2.500722) rotate(90.000000) translate(-4.069450, -2.500722) "></path>
            </g>
            <rect x="2.0257342" y="4.95007324" width="1" height="5.39001465" rx="0.5"></rect>
        </g>
        <g transform="translate(250.059245, 66.782958)" fill="#8D9EB0">
            <g transform="translate(2.525734, 20.450073) rotate(-90.000000) translate(-2.525734, -20.450073) translate(-16.974266, 17.950073)">
                <path d="M34.8877535,-0.425866237 C34.9875572,-0.684554916 35.1520677,-0.677565105 35.2491747,-0.425866237 L37.4005008,5.1503168 C37.5003045,5.40900548 37.3652721,5.61871408 37.0809748,5.61871408 L33.0559534,5.61871408 C32.7796804,5.61871408 32.6393205,5.40201566 32.7364274,5.1503168 L34.8877535,-0.425866237 Z" transform="translate(35.069450, 2.500722) rotate(90.000000) translate(-35.069450, -2.500722) "></path>
                <path d="M3.88775351,-0.425866237 C3.98755721,-0.684554916 4.15206769,-0.677565105 4.24917468,-0.425866237 L6.40050076,5.1503168 C6.50030446,5.40900548 6.36527212,5.61871408 6.08097484,5.61871408 L2.05595335,5.61871408 C1.77968036,5.61871408 1.63932045,5.40201566 1.73642744,5.1503168 L3.88775351,-0.425866237 Z" transform="translate(4.069450, 2.500722) rotate(90.000000) translate(-4.069450, -2.500722) "></path>
            </g>
            <rect x="2.0257342" y="4.95007324" width="1" height="5.39001465" rx="0.5"></rect>
        </g>
        <g transform="translate(127.614881, 84.922729) scale(1, -1) translate(-127.614881, -84.922729) translate(124.614881, 79.922729)" fill="#8D9EB0">
            <g transform="translate(2.525734, 3.950073) rotate(-90.000000) translate(-2.525734, -3.950073) translate(-0.474266, 1.450073)">
                <path d="M2.88775351,-0.425866237 C2.98755721,-0.684554916 3.15206769,-0.677565105 3.24917468,-0.425866237 L5.40050076,5.1503168 C5.50030446,5.40900548 5.36527212,5.61871408 5.08097484,5.61871408 L1.05595335,5.61871408 C0.779680363,5.61871408 0.639320451,5.40201566 0.736427439,5.1503168 L2.88775351,-0.425866237 Z" transform="translate(3.069450, 2.500722) rotate(90.000000) translate(-3.069450, -2.500722) "></path>
            </g>
            <rect x="2.0257342" y="3.95007324" width="1" height="5.39001465" rx="0.5"></rect>
        </g>
        <g transform="translate(124.847214, 99.538208)" fill="#8D9EB0">
            <g transform="translate(2.525734, 3.950073) rotate(-90.000000) translate(-2.525734, -3.950073) translate(-0.474266, 1.450073)">
                <path d="M2.88775351,-0.425866237 C2.98755721,-0.684554916 3.15206769,-0.677565105 3.24917468,-0.425866237 L5.40050076,5.1503168 C5.50030446,5.40900548 5.36527212,5.61871408 5.08097484,5.61871408 L1.05595335,5.61871408 C0.779680363,5.61871408 0.639320451,5.40201566 0.736427439,5.1503168 L2.88775351,-0.425866237 Z" transform="translate(3.069450, 2.500722) rotate(90.000000) translate(-3.069450, -2.500722) "></path>
            </g>
            <rect x="2.0257342" y="3.95007324" width="1" height="5.39001465" rx="0.5"></rect>
        </g>
        <g transform="translate(99.768860, 121.524237)" fill="#8D9EB0">
            <g transform="translate(3.933594, 2.500000) scale(-1, 1) translate(-3.933594, -2.500000) translate(0.933594, 0.000000)">
                <path d="M2.88775351,-0.425866237 C2.98755721,-0.684554916 3.15206769,-0.677565105 3.24917468,-0.425866237 L5.40050076,5.1503168 C5.50030446,5.40900548 5.36527212,5.61871408 5.08097484,5.61871408 L1.05595335,5.61871408 C0.779680363,5.61871408 0.639320451,5.40201566 0.736427439,5.1503168 L2.88775351,-0.425866237 Z" transform="translate(3.069450, 2.500722) rotate(90.000000) translate(-3.069450, -2.500722) "></path>
            </g>
            <rect x="3.93359375" y="2" width="9" height="1" rx="0.5"></rect>
        </g>
        <g transform="translate(81.917725, 121.399936)" fill="#8D9EB0">
            <g transform="translate(9.933594, 2.500000) scale(-1, 1) rotate(180.000000) translate(-9.933594, -2.500000) translate(6.933594, 0.000000)">
                <path d="M2.88775351,-0.425866237 C2.98755721,-0.684554916 3.15206769,-0.677565105 3.24917468,-0.425866237 L5.40050076,5.1503168 C5.50030446,5.40900548 5.36527212,5.61871408 5.08097484,5.61871408 L1.05595335,5.61871408 C0.779680363,5.61871408 0.639320451,5.40201566 0.736427439,5.1503168 L2.88775351,-0.425866237 Z" transform="translate(3.069450, 2.500722) rotate(90.000000) translate(-3.069450, -2.500722) "></path>
            </g>
            <path d="M9.44311523,3 L1.47920477,3 C1.20832097,3 0.988726259,2.76806641 0.988726259,2.5 C0.988726259,2.5 1.0024159,2 1.47920477,2 L9.44311523,2 C9.71399904,2 9.93359375,2.23193359 9.93359375,2.5 C9.93359375,2.77614237 9.71853638,3 9.44311523,3 Z"></path>
        </g>
        <rect fill="#8D9EB0" x="145.622788" y="118.365223" width="1" height="19.6241585" rx="0.5"></rect>
        <rect fill="#8D9EB0" x="211.474839" y="118.365223" width="1" height="19.6241585" rx="0.5"></rect>
        <rect fill="#8D9EB0" x="151.82074" y="118.365223" width="1" height="19.6241585" rx="0.5"></rect>
        <rect fill="#8D9EB0" x="227.21283" y="118.365223" width="1" height="19.6241585" rx="0.5"></rect>
        <g transform="translate(151.482727, 132.272998)" fill="#8D9EB0">
            <g transform="translate(4.933594, 2.500000) scale(-1, 1) translate(-4.933594, -2.500000) translate(0.933594, 0.000000)">
                <path d="M3.88775351,-0.425866237 C3.98755721,-0.684554916 4.15206769,-0.677565105 4.24917468,-0.425866237 L6.40050076,5.1503168 C6.50030446,5.40900548 6.36527212,5.61871408 6.08097484,5.61871408 L2.05595335,5.61871408 C1.77968036,5.61871408 1.63932045,5.40201566 1.73642744,5.1503168 L3.88775351,-0.425866237 Z" transform="translate(4.069450, 2.500722) rotate(90.000000) translate(-4.069450, -2.500722) "></path>
            </g>
            <rect x="4.93359375" y="2" width="9" height="1" rx="0.5"></rect>
        </g>
        <g transform="translate(226.874817, 132.272998)" fill="#8D9EB0">
            <g transform="translate(4.933594, 2.500000) scale(-1, 1) translate(-4.933594, -2.500000) translate(0.933594, 0.000000)">
                <path d="M3.88775351,-0.425866237 C3.98755721,-0.684554916 4.15206769,-0.677565105 4.24917468,-0.425866237 L6.40050076,5.1503168 C6.50030446,5.40900548 6.36527212,5.61871408 6.08097484,5.61871408 L2.05595335,5.61871408 C1.77968036,5.61871408 1.63932045,5.40201566 1.73642744,5.1503168 L3.88775351,-0.425866237 Z" transform="translate(4.069450, 2.500722) rotate(90.000000) translate(-4.069450, -2.500722) "></path>
            </g>
            <rect x="4.93359375" y="2" width="9" height="1" rx="0.5"></rect>
        </g>
        <g transform="translate(131.631592, 132.148697)" fill="#8D9EB0">
            <g transform="translate(9.933594, 2.500000) scale(-1, 1) rotate(180.000000) translate(-9.933594, -2.500000) translate(6.933594, 0.000000)">
                <path d="M2.88775351,-0.425866237 C2.98755721,-0.684554916 3.15206769,-0.677565105 3.24917468,-0.425866237 L5.40050076,5.1503168 C5.50030446,5.40900548 5.36527212,5.61871408 5.08097484,5.61871408 L1.05595335,5.61871408 C0.779680363,5.61871408 0.639320451,5.40201566 0.736427439,5.1503168 L2.88775351,-0.425866237 Z" transform="translate(3.069450, 2.500722) rotate(90.000000) translate(-3.069450, -2.500722) "></path>
            </g>
            <path d="M9.44311523,3 L1.47920477,3 C1.20832097,3 0.988726259,2.76806641 0.988726259,2.5 C0.988726259,2.5 1.0024159,2 1.47920477,2 L9.44311523,2 C9.71399904,2 9.93359375,2.23193359 9.93359375,2.5 C9.93359375,2.77614237 9.71853638,3 9.44311523,3 Z"></path>
        </g>
        <g transform="translate(197.483643, 132.148697)" fill="#8D9EB0">
            <g transform="translate(9.933594, 2.500000) scale(-1, 1) rotate(180.000000) translate(-9.933594, -2.500000) translate(6.933594, 0.000000)">
                <path d="M2.88775351,-0.425866237 C2.98755721,-0.684554916 3.15206769,-0.677565105 3.24917468,-0.425866237 L5.40050076,5.1503168 C5.50030446,5.40900548 5.36527212,5.61871408 5.08097484,5.61871408 L1.05595335,5.61871408 C0.779680363,5.61871408 0.639320451,5.40201566 0.736427439,5.1503168 L2.88775351,-0.425866237 Z" transform="translate(3.069450, 2.500722) rotate(90.000000) translate(-3.069450, -2.500722) "></path>
            </g>
            <path d="M9.44311523,3 L1.47920477,3 C1.20832097,3 0.988726259,2.76806641 0.988726259,2.5 C0.988726259,2.5 1.0024159,2 1.47920477,2 L9.44311523,2 C9.71399904,2 9.93359375,2.23193359 9.93359375,2.5 C9.93359375,2.77614237 9.71853638,3 9.44311523,3 Z"></path>
        </g>
        <path d="M73.1054075,42.1033416 L67.7987623,42.1033416 L67.7987623,45.8348695 L72.6928767,45.8348695 L72.6928767,47.6537549 L67.7987623,47.6537549 L67.7987623,51.5727967 L73.1054075,51.5727967 L73.1054075,53.4104336 L65.4360864,53.4104336 L65.4360864,40.2844562 L73.1054075,40.2844562 L73.1054075,42.1033416 Z M80.4747062,51.6290509 L82.7811279,51.6290509 L82.7811279,53.4104336 L75.5055862,53.4104336 L75.5055862,51.6290509 L78.1870358,51.6290509 L78.1870358,42.8346461 L75.9181169,43.9597298 L75.0555527,42.4221153 L78.7308263,40.2844562 L80.4747062,40.2844562 L80.4747062,51.6290509 Z" fill="#8D9EB0"></path>
        <polygon fill="#8D9EB0" points="77.9432677 130.920065 72.6366225 130.920065 72.6366225 134.651593 77.530737 134.651593 77.530737 136.470478 72.6366225 136.470478 72.6366225 140.38952 77.9432677 140.38952 77.9432677 142.227157 70.2739466 142.227157 70.2739466 129.10118 77.9432677 129.10118"></polygon>
        <path d="M250.780138,134.49412 C250.780138,134.906651 250.742635,135.319182 250.705132,135.619204 L244.273404,135.619204 C244.310906,137.531846 245.192222,138.375659 246.91735,138.375659 C248.004931,138.375659 248.811241,137.98188 249.580049,137.550598 L250.40511,138.938201 C249.561297,139.575749 248.211197,140.119539 246.767339,140.119539 C243.729613,140.119539 242.004485,138.11314 242.004485,135.412939 L242.004485,134.381612 C242.004485,131.681411 243.69211,129.637508 246.467317,129.637508 C249.186269,129.637508 250.780138,131.325134 250.780138,134.49412 Z M248.698733,134.100341 L248.698733,134.006584 C248.698733,132.281455 247.929926,131.343886 246.486068,131.343886 C245.060962,131.343886 244.310906,132.281455 244.273404,134.100341 L248.698733,134.100341 Z" fill="#8D9EB0"></path>
        <path d="M119.727636,78.746582 L118.640055,75.2963251 L114.102217,75.2963251 L113.108393,78.746582 L110.726966,78.746582 L114.739765,65.6206046 L117.946254,65.6206046 L122.165318,78.746582 L119.727636,78.746582 Z M116.333633,67.2707275 L114.627256,73.4024341 L118.077513,73.4024341 L116.333633,67.2707275 Z M128.540792,76.9651994 L130.847214,76.9651994 L130.847214,78.746582 L123.571672,78.746582 L123.571672,76.9651994 L126.253122,76.9651994 L126.253122,68.1707945 L123.984203,69.2958783 L123.121639,67.7582638 L126.796913,65.6206046 L128.540792,65.6206046 L128.540792,76.9651994 Z" fill="#8D9EB0"></path>
        <polygon fill="#8D9EB0" points="262.536583 112.174761 267.861979 112.174761 267.861979 114.087403 260.173907 114.087403 260.173907 100.961426 262.536583 100.961426"></polygon>
        <g transform="translate(252.397948, 108.500000) scale(1, -1) translate(-252.397948, -108.500000) translate(249.397948, 100.500000)" fill="#8D9EB0">
            <g transform="translate(3.170471, 3.091220) rotate(-90.000000) translate(-3.170471, -3.091220) translate(0.170471, 0.591220)">
                <path d="M2.88775351,-0.425866237 C2.98755721,-0.684554916 3.15206769,-0.677565105 3.24917468,-0.425866237 L5.40050076,5.1503168 C5.50030446,5.40900548 5.36527212,5.61871408 5.08097484,5.61871408 L1.05595335,5.61871408 C0.779680363,5.61871408 0.639320451,5.40201566 0.736427439,5.1503168 L2.88775351,-0.425866237 Z" transform="translate(3.069450, 2.500722) rotate(90.000000) translate(-3.069450, -2.500722) "></path>
            </g>
            <rect x="2.67047119" y="3.09121968" width="1" height="12.1004307" rx="0.5"></rect>
        </g>
    </g>
</svg>
