<?xml version="1.0" encoding="UTF-8" standalone="no"?>
<svg width="200px" height="150px" viewBox="0 0 200 150" version="1.1" xmlns="http://www.w3.org/2000/svg" xmlns:xlink="http://www.w3.org/1999/xlink">
    <!-- Generator: Sketch 49.3 (51167) - http://www.bohemiancoding.com/sketch -->
    <title>DIP</title>
    <desc>Created with Sketch.</desc>
    <defs>
        <path d="M8.9497,0.337890625 L34.6279381,0.337890625 C35.3039373,0.337890625 35.8964132,0.790061541 36.0747807,1.44210441 L38.6018227,10.6800003 L5.55158814,10.6772461 L7.482015,1.52821219 C7.62840551,0.834411387 8.24062333,0.337890625 8.9497,0.337890625 Z" id="path-1"></path>
        <path d="M72.4694985,10 L74.4380899,1.20295121 C74.591438,0.517684485 75.1996713,0.0305175781 75.9018864,0.0305175781 L154.748237,0.0305175781 C155.452813,0.0305175781 156.062424,0.520893641 156.213397,1.20910451 L158.141862,10 L72.4694985,10 Z" id="path-2"></path>
    </defs>
    <g stroke="none" stroke-width="1" fill="none" fill-rule="evenodd">
        <g transform="translate(20.500000, 59.000000)">
            <path d="M6.23854143,9.8671875 C6.79082618,9.8671875 7.23854143,10.3149028 7.23854143,10.8671875 C7.23854143,11.4194722 6.79082618,11.8671875 6.23854143,11.8671875 L3.35813825,11.8671875 C3.08199588,11.8671875 2.85813825,12.0910451 2.85813825,12.3671875 L2.85813825,39.5004883 C2.85813825,40.052773 2.410423,40.5004883 1.85813825,40.5004883 C1.3058535,40.5004883 0.858138254,40.052773 0.858138254,39.5004883 L0.858138254,12.3671875 C0.858138254,10.9864756 1.97742638,9.8671875 3.35813825,9.8671875 L6.23854143,9.8671875 Z" stroke="#979797" fill="#D8D8D8" fill-rule="nonzero"></path>
            <path d="M41.6784828,9.8671875 C42.2307676,9.8671875 42.6784828,10.3149028 42.6784828,10.8671875 C42.6784828,11.4194722 42.2307676,11.8671875 41.6784828,11.8671875 L38.7980797,11.8671875 C38.5219373,11.8671875 38.2980797,12.0910451 38.2980797,12.3671875 L38.2980797,39.5004883 C38.2980797,40.052773 37.8503644,40.5004883 37.2980797,40.5004883 C36.7457949,40.5004883 36.2980797,40.052773 36.2980797,39.5004883 L36.2980797,12.3671875 C36.2980797,10.9864756 37.4173678,9.8671875 38.7980797,9.8671875 L41.6784828,9.8671875 Z" stroke="#979797" fill="#D8D8D8" fill-rule="nonzero" transform="translate(39.488281, 25.183838) scale(-1, 1) translate(-39.488281, -25.183838) "></path>
            <g>
                <use fill="#585858" fill-rule="evenodd" xlink:href="#path-1"></use>
                <path stroke="#505050" stroke-width="1" d="M6.16808508,10.1772975 L37.9466617,10.1799457 L35.5924998,1.57403315 C35.4735882,1.1393379 35.0786042,0.837890625 34.6279381,0.837890625 L8.9497,0.837890625 C8.47698222,0.837890625 8.068837,1.16890447 7.97124333,1.63143833 L6.16808508,10.1772975 Z"></path>
            </g>
            <path d="M8.9497,10.6274414 L34.6280991,10.6274414 C35.3040227,10.6274414 35.896452,11.0795132 36.0748879,11.731459 L38.6018227,20.9640427 L5.55158814,20.9667969 L7.482015,11.817763 C7.62840551,11.1239622 8.24062333,10.6274414 8.9497,10.6274414 Z" fill="#505050" transform="translate(22.076705, 15.797119) scale(1, -1) translate(-22.076705, -15.797119) "></path>
            <g>
                <use fill="#585858" fill-rule="evenodd" xlink:href="#path-2"></use>
                <path stroke="#505050" stroke-width="1" d="M73.0937541,9.5 L157.520287,9.5 L155.725011,1.3162422 C155.624362,0.857434953 155.217955,0.530517578 154.748237,0.530517578 L75.9018864,0.530517578 C75.433743,0.530517578 75.0282541,0.855295516 74.9260221,1.31214 L73.0937541,9.5 Z"></path>
            </g>
            <path d="M72.4694985,19.9694824 L74.4380899,11.1724336 C74.591438,10.4871669 75.1996713,10 75.9018864,10 L154.748237,10 C155.452813,10 156.062424,10.4903761 156.213397,11.1785869 L158.141862,19.9694824 L72.4694985,19.9694824 Z" fill="#505050" transform="translate(115.492064, 14.984741) scale(1, -1) translate(-115.492064, -14.984741) "></path>
            <polygon stroke="#979797" fill="#D8D8D8" points="80.0481117 10 80.0481117 25.8745117 81.2209633 25.8745117 81.2209633 39.786577 85.6795186 39.786577 85.6795186 26.0014504 86.8533915 26.0014504 86.8533915 10"></polygon>
            <polygon stroke="#979797" fill="#D8D8D8" points="92.802669 10 92.802669 25.8745117 93.9755206 25.8745117 93.9755206 39.786577 98.4340759 39.786577 98.4340759 26.0014504 99.6079488 26.0014504 99.6079488 10"></polygon>
            <polygon stroke="#979797" fill="#D8D8D8" points="105.557226 10 105.557226 25.8745117 106.730078 25.8745117 106.730078 39.786577 111.188633 39.786577 111.188633 26.0014504 112.362506 26.0014504 112.362506 10"></polygon>
            <polygon stroke="#979797" fill="#D8D8D8" points="118.311784 10 118.311784 25.8745117 119.484635 25.8745117 119.484635 39.786577 123.94319 39.786577 123.94319 26.0014504 125.117063 26.0014504 125.117063 10"></polygon>
            <polygon stroke="#979797" fill="#D8D8D8" points="131.066341 10 131.066341 25.8745117 132.239192 25.8745117 132.239192 39.786577 136.697748 39.786577 136.697748 26.0014504 137.871621 26.0014504 137.871621 10"></polygon>
            <polygon stroke="#979797" fill="#D8D8D8" points="143.820898 10 143.820898 25.8745117 144.99375 25.8745117 144.99375 39.786577 149.452305 39.786577 149.452305 26.0014504 150.626178 26.0014504 150.626178 10"></polygon>
        </g>
    </g>
</svg>