<?xml version="1.0" encoding="UTF-8" standalone="no"?>
<svg width="290px" height="175px" viewBox="0 0 290 175" version="1.1" xmlns="http://www.w3.org/2000/svg" xmlns:xlink="http://www.w3.org/1999/xlink" >
    <!-- Generator: Sketch 48.2 (47327) - http://www.bohemiancoding.com/sketch -->
    <title>E-Cap-Labeled</title>
    <desc>Created with Sketch.</desc>
    <defs>
        <path d="M5,0 L52.105,0 C54.8664237,-5.07265313e-16 57.105,2.23857625 57.105,5 L57.105,60.6666667 L0,60.6666667 L0,5 C-3.38176876e-16,2.23857625 2.23857625,5.07265313e-16 5,0 Z" id="path-1"></path>
        <rect id="path-2" x="0" y="0.757148438" width="71.685" height="18.6561849"></rect>
        <rect id="path-3" x="58.1620586" y="0.757148438" width="13.5229414" height="18.6561849"></rect>
        <rect id="path-4" x="1.14601242" y="1.42161035" width="31.3274574" height="3.01970703"></rect>
        <rect id="path-5" x="55.3348006" y="1.42161035" width="31.3274574" height="3.01970703"></rect>
        <rect id="path-6" x="0.843618164" y="30.3333333" width="30.375" height="10.92"></rect>
        <rect id="path-7" x="55.0463818" y="30.3333333" width="30.375" height="10.92"></rect>
    </defs>
    <g stroke="none" stroke-width="1" fill="none" fill-rule="evenodd">
        <g>
            <g transform="translate(15.772295, -3.521853)">
                <g transform="translate(22.477500, 48.533333)">
                    <g transform="translate(16.031118, 0.000000)">
                        <g>
                            <use fill="#D8D8D8" fill-rule="evenodd" xlink:href="#path-1"></use>
                            <path stroke="#979797" stroke-width="1" d="M0.5,60.1666667 L56.605,60.1666667 L56.605,5 C56.605,2.51471863 54.5902814,0.5 52.105,0.5 L5,0.5 C2.51471863,0.5 0.5,2.51471863 0.5,5 L0.5,60.1666667 Z"></path>
                        </g>
                        <path d="M1.28208381,5.68601888 C1.21993965,4.29357271 2.63265419,1.36603535 5.59717293,1.06807772 C6.3947999,0.98790989 8.37673899,0.998322 11.5429902,1.09931405 L11.5790147,60.2104818 L1.2383493,60.2104818 C1.22577957,39.9247973 1.24035774,21.7499763 1.28208381,5.68601888 Z" fill="#A8A8A8" opacity="0.521222015"></path>
                        <path d="M45.7476429,5.68601888 C45.6854987,4.29357271 47.0982133,1.36603535 50.062732,1.06807772 C50.860359,0.98790989 52.8422981,0.998322 56.0085493,1.09931405 L56.0445738,60.2104818 L45.7039084,60.2104818 C45.6913387,39.9247973 45.7059168,21.7499763 45.7476429,5.68601888 Z" fill="#A8A8A8" opacity="0.521222015" transform="translate(50.872059, 30.612673) scale(-1, 1) translate(-50.872059, -30.612673) "></path>
                    </g>
                    <g transform="translate(8.741118, 59.453333)">
                        <g>
                            <use fill="#585858" fill-rule="evenodd" xlink:href="#path-2"></use>
                            <rect stroke="#979797" stroke-width="1" x="0.5" y="1.25714844" width="70.685" height="17.6561849"></rect>
                        </g>
                        <g>
                            <use fill="#767676" fill-rule="evenodd" xlink:href="#path-3"></use>
                            <rect stroke="#979797" stroke-width="1" x="58.6620586" y="1.25714844" width="12.5229414" height="17.6561849"></rect>
                        </g>
                    </g>
                    <g transform="translate(0.843618, 78.866667)">
                        <g transform="translate(16.809741, 2.931464) rotate(-4.000000) translate(-16.809741, -2.931464) ">
                            <use fill="#D8D8D8" fill-rule="evenodd" xlink:href="#path-4"></use>
                            <rect stroke="#979797" stroke-width="1" x="1.64601242" y="1.92161035" width="30.3274574" height="2.01970703"></rect>
                        </g>
                        <g transform="translate(70.998529, 2.931464) scale(-1, 1) rotate(-4.000000) translate(-70.998529, -2.931464) ">
                            <use fill="#D8D8D8" fill-rule="evenodd" xlink:href="#path-5"></use>
                            <rect stroke="#979797" stroke-width="1" x="55.8348006" y="1.92161035" width="30.3274574" height="2.01970703"></rect>
                        </g>
                    </g>
                    <g transform="translate(111.780000, 7.280000)">
                        <polygon stroke="#505050" fill="#585858" points="26.4856566 0.0156998698 80.8212305 0.0156998698 80.8212305 71.6023665 26.4856566 71.6023665 7.40928583 52.9953565 7.40928583 18.9124186"></polygon>
                        <g>
                            <use fill="#D8D8D8" fill-rule="evenodd" xlink:href="#path-6"></use>
                            <rect stroke="#979797" stroke-width="1" x="1.34361816" y="30.8333333" width="29.375" height="9.92"></rect>
                        </g>
                        <g>
                            <use fill="#D8D8D8" fill-rule="evenodd" xlink:href="#path-7"></use>
                            <rect stroke="#979797" stroke-width="1" x="55.5463818" y="30.8333333" width="29.375" height="9.92"></rect>
                        </g>
                    </g>
                </g>
            </g>
            <path d="M83.6706812,135.96112 C87.2334465,135.96112 89.0148291,138.061276 89.0148291,141.211511 L89.0148291,143.536684 C89.0148291,146.949438 86.9896783,149.087097 83.2018963,149.087097 L79.3766115,149.087097 L79.3766115,135.96112 L83.6706812,135.96112 Z M86.6521532,143.574187 L86.6521532,141.155257 C86.6521532,139.017597 85.6395778,137.780005 83.5581728,137.780005 L81.7392874,137.780005 L81.7392874,147.268212 L83.2206477,147.268212 C85.508318,147.268212 86.6521532,146.068122 86.6521532,143.574187 Z" fill="#8D9EB0"></path>
            <path d="M125.301025,130.783412 C125.301025,130.512548 125.532959,130.292969 125.801025,130.292969 L125.801025,130.292969 C126.077168,130.292969 126.301025,130.507912 126.301025,130.783412 L126.301025,146.802526 C126.301025,147.07339 126.069092,147.292969 125.801025,147.292969 L125.801025,147.292969 C125.524883,147.292969 125.301025,147.078026 125.301025,146.802526 L125.301025,130.783412 Z" fill="#8D9EB0"></path>
            <rect fill="#8D9EB0" x="40.7010498" y="130.292969" width="1" height="17.4710693" rx="0.5"></rect>
            <g transform="translate(42.492676, 142.081454)" fill="#8D9EB0">
                <g transform="translate(2.000000, 1.500000) scale(-1, 1) translate(-2.000000, -1.500000) translate(-1.000000, -1.000000)">
                    <path d="M2.88775351,-0.425866237 C2.98755721,-0.684554916 3.15206769,-0.677565105 3.24917468,-0.425866237 L5.40050076,5.1503168 C5.50030446,5.40900548 5.36527212,5.61871408 5.08097484,5.61871408 L1.05595335,5.61871408 C0.779680363,5.61871408 0.639320451,5.40201566 0.736427439,5.1503168 L2.88775351,-0.425866237 Z" transform="translate(3.069450, 2.500722) rotate(90.000000) translate(-3.069450, -2.500722) "></path>
                </g>
                <rect x="1.85259834" y="0.889448752" width="33.0381487" height="1" rx="0.5"></rect>
            </g>
            <g transform="translate(106.992676, 143.581454) scale(-1, 1) translate(-106.992676, -143.581454) translate(89.492676, 142.081454)" fill="#8D9EB0">
                <g transform="translate(2.000000, 1.500000) scale(-1, 1) translate(-2.000000, -1.500000) translate(-1.000000, -1.000000)">
                    <path d="M2.88775351,-0.425866237 C2.98755721,-0.684554916 3.15206769,-0.677565105 3.24917468,-0.425866237 L5.40050076,5.1503168 C5.50030446,5.40900548 5.36527212,5.61871408 5.08097484,5.61871408 L1.05595335,5.61871408 C0.779680363,5.61871408 0.639320451,5.40201566 0.736427439,5.1503168 L2.88775351,-0.425866237 Z" transform="translate(3.069450, 2.500722) rotate(90.000000) translate(-3.069450, -2.500722) "></path>
                </g>
                <rect x="1.85259834" y="0.889448752" width="33.0381487" height="1" rx="0.5"></rect>
            </g>
            <g transform="translate(33.000000, 113.000000) scale(1, -1) translate(-33.000000, -113.000000) translate(31.000000, 97.000000)" fill="#8D9EB0">
                <g transform="translate(2.277118, 2.412196) rotate(-90.000000) translate(-2.277118, -2.412196) translate(-0.722882, -0.087804)">
                    <path d="M2.88775351,-0.425866237 C2.98755721,-0.684554916 3.15206769,-0.677565105 3.24917468,-0.425866237 L5.40050076,5.1503168 C5.50030446,5.40900548 5.36527212,5.61871408 5.08097484,5.61871408 L1.05595335,5.61871408 C0.779680363,5.61871408 0.639320451,5.40201566 0.736427439,5.1503168 L2.88775351,-0.425866237 Z" transform="translate(3.069450, 2.500722) rotate(90.000000) translate(-3.069450, -2.500722) "></path>
                </g>
                <rect x="1.77711804" y="2.41219643" width="1" height="29" rx="0.5"></rect>
            </g>
            <path d="M249.32067,62.4024241 C251.608341,62.4024241 253.108452,64.240061 253.108452,67.127776 L253.108452,68.1403514 C253.108452,70.8968066 251.32707,72.8844547 249.039399,72.8844547 C247.97057,72.8844547 247.108006,72.4906753 246.414204,71.7781223 L246.22669,72.6406865 L244.407805,72.6406865 L244.407805,58.7646533 L246.732978,58.7646533 L246.732978,63.4337509 C247.370525,62.7774521 248.233089,62.4024241 249.32067,62.4024241 Z M250.783279,68.215357 L250.783279,67.0527704 C250.783279,65.1026252 250.12698,64.1650554 248.851885,64.1650554 C247.951818,64.1650554 247.239265,64.5963375 246.732978,65.233885 L246.732978,70.296762 C247.239265,70.8405525 247.876813,71.1405748 248.64562,71.1405748 C249.939466,71.1405748 250.783279,70.1279994 250.783279,68.215357 Z" fill="#8D9EB0"></path>
            <g transform="translate(158.657885, 142.021030)" fill="#8D9EB0">
                <g transform="translate(2.026855, 1.500000) scale(-1, 1) translate(-2.026855, -1.500000) translate(-0.973145, -1.000000)">
                    <path d="M2.88775351,-0.425866237 C2.98755721,-0.684554916 3.15206769,-0.677565105 3.24917468,-0.425866237 L5.40050076,5.1503168 C5.50030446,5.40900548 5.36527212,5.61871408 5.08097484,5.61871408 L1.05595335,5.61871408 C0.779680363,5.61871408 0.639320451,5.40201566 0.736427439,5.1503168 L2.88775351,-0.425866237 Z" transform="translate(3.069450, 2.500722) rotate(90.000000) translate(-3.069450, -2.500722) "></path>
                </g>
                <rect x="1.8794538" y="0.889448752" width="24.3601224" height="1" rx="0.5"></rect>
            </g>
            <g transform="translate(216.157885, 143.521030) scale(-1, 1) translate(-216.157885, -143.521030) translate(202.657885, 142.021030)" fill="#8D9EB0">
                <g transform="translate(2.026855, 1.500000) scale(-1, 1) translate(-2.026855, -1.500000) translate(-0.973145, -1.000000)">
                    <path d="M2.88775351,-0.425866237 C2.98755721,-0.684554916 3.15206769,-0.677565105 3.24917468,-0.425866237 L5.40050076,5.1503168 C5.50030446,5.40900548 5.36527212,5.61871408 5.08097484,5.61871408 L1.05595335,5.61871408 C0.779680363,5.61871408 0.639320451,5.40201566 0.736427439,5.1503168 L2.88775351,-0.425866237 Z" transform="translate(3.069450, 2.500722) rotate(90.000000) translate(-3.069450, -2.500722) "></path>
                </g>
                <rect x="1.8794538" y="0.889448752" width="24.2405891" height="1" rx="0.5"></rect>
            </g>
            <path d="M223.671801,23.8430636 C227.234566,23.8430636 229.015948,25.94322 229.015948,29.0934546 L229.015948,31.4186277 C229.015948,34.8313818 226.990798,36.969041 223.203016,36.969041 L219.377731,36.969041 L219.377731,23.8430636 L223.671801,23.8430636 Z M226.653273,31.4561305 L226.653273,29.0372004 C226.653273,26.8995412 225.640697,25.6619491 223.559292,25.6619491 L221.740407,25.6619491 L221.740407,35.1501556 L223.221767,35.1501556 C225.509437,35.1501556 226.653273,33.9500662 226.653273,31.4561305 Z M233.216261,35.0563986 L239.347968,35.0563986 L239.347968,36.969041 L230.891088,36.969041 L230.891088,35.6376919 C230.891088,33.3125187 232.016172,32.0374238 233.535035,30.9873456 L235.335169,29.7497534 C236.516507,28.9434434 236.966541,28.4559071 236.966541,27.5933429 L236.966541,27.1433094 C236.966541,26.3557507 236.347744,25.4369323 234.791379,25.4369323 C233.666295,25.4369323 232.784979,25.7744574 231.659895,26.5620161 L230.609817,25.13691 C231.828658,24.1805887 233.19751,23.5992955 234.94139,23.5992955 C237.772851,23.5992955 239.329216,25.3056725 239.329216,27.0683038 L239.329216,27.6495971 C239.329216,28.9434434 238.541658,30.0872786 236.516507,31.3998763 L235.072649,32.3374461 C233.610041,33.2937673 233.253764,34.0625746 233.216261,35.0563986 Z" fill="#8D9EB0"></path>
            <polygon fill="#8D9EB0" points="166.876149 35.1306173 172.201545 35.1306173 172.201545 37.0432598 164.513473 37.0432598 164.513473 23.9172824 166.876149 23.9172824"></polygon>
            <rect fill="#8D9EB0" x="205.067201" y="26.234375" width="1" height="55.3178711" rx="0.5"></rect>
            <rect fill="#8D9EB0" x="180.002748" y="26.234375" width="1" height="55.3178711" rx="0.5"></rect>
            <rect fill="#8D9EB0" x="151.170717" y="26.234375" width="1" height="55.3178711" rx="0.5"></rect>
            <path d="M189.951067,136.159844 C193.513833,136.159844 195.295215,138.260001 195.295215,141.410235 L195.295215,143.735409 C195.295215,147.148163 193.270065,149.285822 189.482283,149.285822 L185.656998,149.285822 L185.656998,136.159844 L189.951067,136.159844 Z M192.932539,143.772911 L192.932539,141.353981 C192.932539,139.216322 191.919964,137.97873 189.838559,137.97873 L188.019674,137.97873 L188.019674,147.466936 L189.501034,147.466936 C191.788704,147.466936 192.932539,146.266847 192.932539,143.772911 Z M202.627011,147.504439 L204.933433,147.504439 L204.933433,149.285822 L197.657891,149.285822 L197.657891,147.504439 L200.339341,147.504439 L200.339341,138.710034 L198.070422,139.835118 L197.207858,138.297504 L200.883131,136.159844 L202.627011,136.159844 L202.627011,147.504439 Z" fill="#8D9EB0"></path>
            <path d="M133.510638,80.2975397 C137.073403,80.2975397 138.854786,82.3976961 138.854786,85.5479307 L138.854786,87.8731038 C138.854786,91.285858 136.829635,93.4235171 133.041853,93.4235171 L129.216568,93.4235171 L129.216568,80.2975397 L133.510638,80.2975397 Z M136.49211,87.9106066 L136.49211,85.4916765 C136.49211,83.3540173 135.479534,82.1164252 133.398129,82.1164252 L131.579244,82.1164252 L131.579244,91.6046317 L133.060604,91.6046317 C135.348275,91.6046317 136.49211,90.4045423 136.49211,87.9106066 Z M146.186582,91.6421345 L148.493003,91.6421345 L148.493003,93.4235171 L141.217462,93.4235171 L141.217462,91.6421345 L143.898911,91.6421345 L143.898911,82.8477296 L141.629992,83.9728134 L140.767428,82.4351989 L144.442702,80.2975397 L146.186582,80.2975397 L146.186582,91.6421345 Z" fill="#8D9EB0"></path>
            <rect fill="#8D9EB0" x="156.767653" y="106.676758" width="1" height="42.3916016" rx="0.5"></rect>
            <rect fill="#8D9EB0" x="230.449553" y="125.629097" width="1" height="23.4392625" rx="0.5"></rect>
            <g transform="translate(29.076423, 44.666748)" fill="#8D9EB0">
                <rect x="0.668206399" y="0.548182401" width="22.8918458" height="1" rx="0.5"></rect>
                <rect x="0.668206399" y="84.8276544" width="10.3195801" height="1" rx="0.5"></rect>
                <g transform="translate(2.016614, 1.260951)">
                    <g transform="translate(2.184082, 2.484497) rotate(-90.000000) translate(-2.184082, -2.484497) translate(-0.815918, -0.015503)">
                        <path d="M2.88775351,-0.425866237 C2.98755721,-0.684554916 3.15206769,-0.677565105 3.24917468,-0.425866237 L5.40050076,5.1503168 C5.50030446,5.40900548 5.36527212,5.61871408 5.08097484,5.61871408 L1.05595335,5.61871408 C0.779680363,5.61871408 0.639320451,5.40201566 0.736427439,5.1503168 L2.88775351,-0.425866237 Z" transform="translate(3.069450, 2.500722) rotate(90.000000) translate(-3.069450, -2.500722) "></path>
                    </g>
                    <rect x="1.68408203" y="2.48449707" width="1" height="29.107701" rx="0.5"></rect>
                </g>
            </g>
            <g transform="translate(130.888923, 51.666748)" fill="#8D9EB0">
                <rect x="0.396722024" y="0.144373808" width="43.1494141" height="1" rx="0.5"></rect>
                <rect x="0.396722024" y="71.9275769" width="43.1494141" height="1" rx="0.5"></rect>
                <g transform="translate(6.016614, 1.260951)">
                    <g transform="translate(2.184082, 2.484497) rotate(-90.000000) translate(-2.184082, -2.484497) translate(-0.815918, -0.015503)">
                        <path d="M2.88775351,-0.425866237 C2.98755721,-0.684554916 3.15206769,-0.677565105 3.24917468,-0.425866237 L5.40050076,5.1503168 C5.50030446,5.40900548 5.36527212,5.61871408 5.08097484,5.61871408 L1.05595335,5.61871408 C0.779680363,5.61871408 0.639320451,5.40201566 0.736427439,5.1503168 L2.88775351,-0.425866237 Z" transform="translate(3.069450, 2.500722) rotate(90.000000) translate(-3.069450, -2.500722) "></path>
                    </g>
                    <rect x="1.68408203" y="2.48449707" width="1" height="23.3684432" rx="0.5"></rect>
                </g>
                <g transform="translate(8.016614, 58.374720) scale(1, -1) translate(-8.016614, -58.374720) translate(6.016614, 45.374720)">
                    <g transform="translate(2.184082, 2.484497) rotate(-90.000000) translate(-2.184082, -2.484497) translate(-0.815918, -0.015503)">
                        <path d="M2.88775351,-0.425866237 C2.98755721,-0.684554916 3.15206769,-0.677565105 3.24917468,-0.425866237 L5.40050076,5.1503168 C5.50030446,5.40900548 5.36527212,5.61871408 5.08097484,5.61871408 L1.05595335,5.61871408 C0.779680363,5.61871408 0.639320451,5.40201566 0.736427439,5.1503168 L2.88775351,-0.425866237 Z" transform="translate(3.069450, 2.500722) rotate(90.000000) translate(-3.069450, -2.500722) "></path>
                    </g>
                    <rect x="1.68408203" y="2.48449707" width="1" height="23.3684432" rx="0.5"></rect>
                </g>
            </g>
            <path d="M236.03418,82.9448242 C236.03418,82.6686818 236.248406,82.4448242 236.533304,82.4448242 L248.376603,82.4448242 L250.471323,82.4448242 C250.747662,82.4448242 250.97168,82.6767578 250.97168,82.9448242 L250.97168,82.9448242 C250.97168,83.2209666 250.748929,83.4448242 250.474682,83.4448242 L236.531177,83.4448242 C236.256693,83.4448242 236.03418,83.2128906 236.03418,82.9448242 L236.03418,82.9448242 Z" fill="#8D9EB0"></path>
            <rect fill="#8D9EB0" x="236.03418" y="92.4472656" width="14.9375" height="1" rx="0.5"></rect>
            <g transform="translate(27.407227, 73.960938)" fill="#8D9EB0">
                <path d="M9.57051537,20.5617065 L8.48293439,17.1114496 L3.94509649,17.1114496 L2.95127249,20.5617065 L0.569845163,20.5617065 L4.58264396,7.43572916 L7.78913273,7.43572916 L12.0081969,20.5617065 L9.57051537,20.5617065 Z M6.17651265,9.08585203 L4.47013559,15.2175586 L7.9203925,15.2175586 L6.17651265,9.08585203 Z"></path>
            </g>
            <g transform="translate(247.701569, 78.451172) scale(1, -1) translate(-247.701569, -78.451172) translate(245.701569, 74.451172)" fill="#8D9EB0">
                <g transform="translate(1.915442, 2.484497) rotate(-90.000000) translate(-1.915442, -2.484497) translate(-1.084558, -0.015503)">
                    <path d="M2.88775351,-0.425866237 C2.98755721,-0.684554916 3.15206769,-0.677565105 3.24917468,-0.425866237 L5.40050076,5.1503168 C5.50030446,5.40900548 5.36527212,5.61871408 5.08097484,5.61871408 L1.05595335,5.61871408 C0.779680363,5.61871408 0.639320451,5.40201566 0.736427439,5.1503168 L2.88775351,-0.425866237 Z" transform="translate(3.069450, 2.500722) rotate(90.000000) translate(-3.069450, -2.500722) "></path>
                </g>
                <rect x="1.41544212" y="2.48449707" width="1" height="4.93155171" rx="0.5"></rect>
            </g>
            <g transform="translate(245.617011, 94.451172)" fill="#8D9EB0">
                <g transform="translate(2.184082, 2.484497) rotate(-90.000000) translate(-2.184082, -2.484497) translate(-0.815918, -0.015503)">
                    <path d="M2.88775351,-0.425866237 C2.98755721,-0.684554916 3.15206769,-0.677565105 3.24917468,-0.425866237 L5.40050076,5.1503168 C5.50030446,5.40900548 5.36527212,5.61871408 5.08097484,5.61871408 L1.05595335,5.61871408 C0.779680363,5.61871408 0.639320451,5.40201566 0.736427439,5.1503168 L2.88775351,-0.425866237 Z" transform="translate(3.069450, 2.500722) rotate(90.000000) translate(-3.069450, -2.500722) "></path>
                </g>
                <rect x="1.68408203" y="2.48449707" width="1" height="4.93155171" rx="0.5"></rect>
            </g>
            <g transform="translate(153.038256, 27.411655)" fill="#8D9EB0">
                <g transform="translate(2.026855, 1.500000) scale(-1, 1) translate(-2.026855, -1.500000) translate(-0.973145, -1.000000)">
                    <path d="M2.88775351,-0.425866237 C2.98755721,-0.684554916 3.15206769,-0.677565105 3.24917468,-0.425866237 L5.40050076,5.1503168 C5.50030446,5.40900548 5.36527212,5.61871408 5.08097484,5.61871408 L1.05595335,5.61871408 C0.779680363,5.61871408 0.639320451,5.40201566 0.736427439,5.1503168 L2.88775351,-0.425866237 Z" transform="translate(3.069450, 2.500722) rotate(90.000000) translate(-3.069450, -2.500722) "></path>
                </g>
                <rect x="1.8794538" y="0.889448752" width="6.15211461" height="1" rx="0.5"></rect>
            </g>
            <g transform="translate(206.673021, 26.411655)" fill="#8D9EB0">
                <g transform="translate(3.026855, 2.500000) scale(-1, 1) translate(-3.026855, -2.500000) translate(0.026855, 0.000000)">
                    <path d="M2.88775351,-0.425866237 C2.98755721,-0.684554916 3.15206769,-0.677565105 3.24917468,-0.425866237 L5.40050076,5.1503168 C5.50030446,5.40900548 5.36527212,5.61871408 5.08097484,5.61871408 L1.05595335,5.61871408 C0.779680363,5.61871408 0.639320451,5.40201566 0.736427439,5.1503168 L2.88775351,-0.425866237 Z" transform="translate(3.069450, 2.500722) rotate(90.000000) translate(-3.069450, -2.500722) "></path>
                </g>
                <rect x="2.8794538" y="1.88944875" width="6.15211461" height="1" rx="0.5"></rect>
            </g>
            <g transform="translate(174.538256, 28.911655) scale(-1, 1) translate(-174.538256, -28.911655) translate(170.038256, 27.411655)" fill="#8D9EB0">
                <g transform="translate(2.026855, 1.500000) scale(-1, 1) translate(-2.026855, -1.500000) translate(-0.973145, -1.000000)">
                    <path d="M2.88775351,-0.425866237 C2.98755721,-0.684554916 3.15206769,-0.677565105 3.24917468,-0.425866237 L5.40050076,5.1503168 C5.50030446,5.40900548 5.36527212,5.61871408 5.08097484,5.61871408 L1.05595335,5.61871408 C0.779680363,5.61871408 0.639320451,5.40201566 0.736427439,5.1503168 L2.88775351,-0.425866237 Z" transform="translate(3.069450, 2.500722) rotate(90.000000) translate(-3.069450, -2.500722) "></path>
                </g>
                <rect x="1.8794538" y="0.889448752" width="6.15211461" height="1" rx="0.5"></rect>
            </g>
        </g>
    </g>
</svg>
