<?xml version="1.0" encoding="UTF-8" standalone="no"?>
<svg width="200px" height="150px" viewBox="0 0 200 150" version="1.1" xmlns="http://www.w3.org/2000/svg" xmlns:xlink="http://www.w3.org/1999/xlink">
    <!-- Generator: Sketch 48.2 (47327) - http://www.bohemiancoding.com/sketch -->
    <title>E-Cap</title>
    <desc>Created with Sketch.</desc>
    <defs>
        <path d="M5,0 L42,0 C44.7614237,-5.07265313e-16 47,2.23857625 47,5 L47,50 L0,50 L0,5 C-3.38176876e-16,2.23857625 2.23857625,5.07265313e-16 5,0 Z" id="path-1"></path>
        <rect id="path-2" x="0" y="0.624023438" width="59" height="15.3759766"></rect>
        <rect id="path-3" x="47.8700071" y="0.624023438" width="11.1299929" height="15.3759766"></rect>
        <rect id="path-4" x="0.943220098" y="1.17165688" width="25.7839156" height="2.48876953"></rect>
        <rect id="path-5" x="45.5430458" y="1.17165688" width="25.7839156" height="2.48876953"></rect>
        <rect id="path-6" x="0.694335938" y="25" width="25" height="9"></rect>
        <rect id="path-7" x="45.3056641" y="25" width="25" height="9"></rect>
    </defs>
    <g stroke="none" stroke-width="1" fill="none" fill-rule="evenodd">
        <g>
            <g transform="translate(18.500000, 40.000000)">
                <g transform="translate(13.194336, 0.000000)">
                    <g>
                        <use fill="#D8D8D8" fill-rule="evenodd" xlink:href="#path-1"></use>
                        <path stroke="#979797" stroke-width="1" d="M0.5,49.5 L46.5,49.5 L46.5,5 C46.5,2.51471863 44.4852814,0.5 42,0.5 L5,0.5 C2.51471863,0.5 0.5,2.51471863 0.5,5 L0.5,49.5 Z"></path>
                    </g>
                    <path d="M1.05521302,4.6862793 C1.00406556,3.53865883 2.16679358,1.12585331 4.60672669,0.880283837 C5.26320979,0.814211448 6.89443538,0.822792857 9.50040345,0.906028065 L9.53005323,49.6240234 L1.01921753,49.6240234 C1.00887207,32.9050527 1.02087057,17.9258047 1.05521302,4.6862793 Z" fill="#A8A8A8" opacity="0.521222015"></path>
                    <path d="M37.652381,4.6862793 C37.6012335,3.53865883 38.7639615,1.12585331 41.2038947,0.880283837 C41.8603778,0.814211448 43.4916033,0.822792857 46.0975714,0.906028065 L46.1272212,49.6240234 L37.6163855,49.6240234 C37.60604,32.9050527 37.6180385,17.9258047 37.652381,4.6862793 Z" fill="#A8A8A8" opacity="0.521222015" transform="translate(41.870007, 25.230225) scale(-1, 1) translate(-41.870007, -25.230225) "></path>
                </g>
                <g transform="translate(7.194336, 49.000000)">
                    <g>
                        <use fill="#585858" fill-rule="evenodd" xlink:href="#path-2"></use>
                        <rect stroke="#979797" stroke-width="1" x="0.5" y="1.12402344" width="58" height="14.3759766"></rect>
                    </g>
                    <g>
                        <use fill="#767676" fill-rule="evenodd" xlink:href="#path-3"></use>
                        <rect stroke="#979797" stroke-width="1" x="48.3700071" y="1.12402344" width="10.1299929" height="14.3759766"></rect>
                    </g>
                </g>
                <g transform="translate(0.694336, 65.000000)">
                    <g transform="translate(13.835178, 2.416042) rotate(-4.000000) translate(-13.835178, -2.416042) ">
                        <use fill="#D8D8D8" fill-rule="evenodd" xlink:href="#path-4"></use>
                        <rect stroke="#979797" stroke-width="1" x="1.4432201" y="1.67165688" width="24.7839156" height="1.48876953"></rect>
                    </g>
                    <g transform="translate(58.435004, 2.416042) scale(-1, 1) rotate(-4.000000) translate(-58.435004, -2.416042) ">
                        <use fill="#D8D8D8" fill-rule="evenodd" xlink:href="#path-5"></use>
                        <rect stroke="#979797" stroke-width="1" x="46.0430458" y="1.67165688" width="24.7839156" height="1.48876953"></rect>
                    </g>
                </g>
                <g transform="translate(92.000000, 6.000000)">
                    <polygon stroke="#505050" fill="#585858" points="21.7988943 0.0129394531 66.5195312 0.0129394531 66.5195312 59.0129395 21.7988943 59.0129395 6.09817764 43.6774916 6.09817764 15.5871582"></polygon>
                    <g>
                        <use fill="#D8D8D8" fill-rule="evenodd" xlink:href="#path-6"></use>
                        <rect stroke="#979797" stroke-width="1" x="1.19433594" y="25.5" width="24" height="8"></rect>
                    </g>
                    <g>
                        <use fill="#D8D8D8" fill-rule="evenodd" xlink:href="#path-7"></use>
                        <rect stroke="#979797" stroke-width="1" x="45.8056641" y="25.5" width="24" height="8"></rect>
                    </g>
                </g>
            </g>
        </g>
    </g>
</svg>