<?xml version="1.0" encoding="UTF-8"?>
<svg width="290px" height="175px" viewBox="0 0 290 175" version="1.1" xmlns="http://www.w3.org/2000/svg" xmlns:xlink="http://www.w3.org/1999/xlink">
    <!-- Generator: Sketch 50.2 (55047) - http://www.bohemiancoding.com/sketch -->
    <title>Header-Right-Angle-Labeled</title>
    <desc>Created with Sketch.</desc>
    <defs>
        <path d="M14.3315725,94.0873576 L19.6569691,94.0873576 L19.6569691,96 L11.9688966,96 L11.9688966,82.8740226 L14.3315725,82.8740226 L14.3315725,94.0873576 Z M24.9261114,96.2437682 C22.5071813,96.2437682 21.1758322,95.3624525 20.1820082,94.2373688 L21.5321087,92.9435224 C22.3384187,93.8060866 23.3697455,94.4436341 24.7948517,94.4436341 C26.2387092,94.4436341 27.4575499,93.8810922 27.4575499,92.3809805 L27.4575499,91.9121956 C27.4575499,90.2808241 25.7699243,89.9057962 24.7761003,89.9057962 L23.5572595,89.9057962 L23.5572595,88.2181705 L24.7761003,88.2181705 C25.7699243,88.2181705 27.0637706,87.861894 27.0637706,86.5305449 L27.0637706,86.0992628 C27.0637706,84.8429192 26.0136924,84.3928857 24.8136031,84.3928857 C23.5572595,84.3928857 22.5821869,84.9179248 21.6258657,85.7992404 L20.3695221,84.5428969 C21.4946059,83.4365645 22.919712,82.6302545 25.001117,82.6302545 C27.4200471,82.6302545 29.3514409,83.9053494 29.3514409,85.8367432 L29.3514409,86.5680477 C29.3514409,87.7493856 28.2263572,88.6682041 27.1012734,88.9307236 C28.2263572,89.1182376 29.8014745,90.1120616 29.8014745,91.7246817 L29.8014745,92.5684945 C29.8014745,94.6686509 27.7388209,96.2437682 24.9261114,96.2437682 Z" id="path-1"></path>
    </defs>
    <g id="Header-Right-Angle-Labeled" stroke="none" stroke-width="1" fill="none" fill-rule="evenodd">
        <g id="Header-Male-Right-Angle" transform="translate(22.138021, -4.646484)">
            <g id="Group" fill-rule="evenodd" transform="translate(126.690000, 65.013333)">
                <path d="M15.4855078,61.7106771 C15.4855078,62.726881 14.6594732,63.553597 13.6405078,63.553597 C12.6215424,63.553597 11.7955078,62.726881 11.7955078,61.7106771 L11.7955078,39.1826563 C11.7955078,38.1664523 12.6215424,37.3426562 13.6405078,37.3426562 C14.6594732,37.3426562 15.4855078,38.1664523 15.4855078,39.1826563 L15.4855078,61.7106771 Z" id="Path-14-Copy-5" stroke="#979797" fill="#D8D8D8" fill-rule="nonzero"></path>
                <path d="M36.4699805,61.7106771 C36.4699805,62.726881 35.6439458,63.5506771 34.6249805,63.5506771 C33.6060151,63.5506771 32.7799805,62.726881 32.7799805,61.7106771 L32.7799805,39.7558594 C32.7799805,38.7396554 33.6060151,37.9158594 34.6249805,37.9158594 C35.6439458,37.9158594 36.4699805,38.7396554 36.4699805,39.7558594 L36.4699805,61.7106771 Z" id="Path-14-Copy-4" stroke="#979797" fill="#D8D8D8" fill-rule="nonzero"></path>
                <path d="M57.3055078,61.7106771 C57.3055078,62.726881 56.4794732,63.5506771 55.4605078,63.5506771 C54.4415424,63.5506771 53.6155078,62.726881 53.6155078,61.7106771 L53.6155078,39.1826562 C53.6155078,38.1664523 54.4415424,37.3426562 55.4605078,37.3426562 C56.4794732,37.3426562 57.3055078,38.1664523 57.3055078,39.1826562 L57.3055078,61.7106771 Z" id="Path-14-Copy-7" stroke="#979797" fill="#D8D8D8" fill-rule="nonzero"></path>
                <path d="M78.2899805,61.7106771 C78.2899805,62.726881 77.4639458,63.5506771 76.4449805,63.5506771 C75.4260151,63.5506771 74.5999805,62.726881 74.5999805,61.7106771 L74.5999805,39.7558594 C74.5999805,38.7396554 75.4260151,37.9158594 76.4449805,37.9158594 C77.4639458,37.9158594 78.2899805,38.7396554 78.2899805,39.7558594 L78.2899805,61.7106771 Z" id="Path-14-Copy-6" stroke="#979797" fill="#D8D8D8" fill-rule="nonzero"></path>
                <rect id="Rectangle-18" stroke="#505050" fill="#585858" x="0.5" y="0.836614583" width="88.7047168" height="45.2821328"></rect>
                <rect id="Rectangle-19" stroke="#979797" fill="#D8D8D8" x="9.84" y="9.81333333" width="7.38" height="7.36"></rect>
                <rect id="Rectangle-19-Copy-4" stroke="#979797" fill="#D8D8D8" x="9.84" y="30.6457031" width="7.38" height="7.36"></rect>
                <rect id="Rectangle-19-Copy" stroke="#979797" fill="#D8D8D8" x="30.7269775" y="9.81333333" width="7.38" height="7.36"></rect>
                <rect id="Rectangle-19-Copy-5" stroke="#979797" fill="#D8D8D8" x="30.7269775" y="30.6457031" width="7.38" height="7.36"></rect>
                <rect id="Rectangle-19-Copy-2" stroke="#979797" fill="#D8D8D8" x="51.6139551" y="9.81333333" width="7.38" height="7.36"></rect>
                <rect id="Rectangle-19-Copy-6" stroke="#979797" fill="#D8D8D8" x="51.6139551" y="30.6457031" width="7.38" height="7.36"></rect>
                <rect id="Rectangle-19-Copy-3" stroke="#979797" fill="#D8D8D8" x="72.5009326" y="9.81333333" width="7.38" height="7.36"></rect>
                <rect id="Rectangle-19-Copy-7" stroke="#979797" fill="#D8D8D8" x="72.5009326" y="30.6457031" width="7.38" height="7.36"></rect>
            </g>
            <path d="M48.6108361,74.9750412 C49.6298014,74.9750412 50.4558361,75.7988373 50.4558361,76.8150412 C50.4558361,77.8312452 49.6298014,78.6550412 48.6108361,78.6550412 L19.9382713,78.6550412 C18.9193059,78.6550412 18.0932713,79.4788373 18.0932713,80.4950412 L18.0932713,128.56693 C18.0932713,129.583134 17.2672367,130.40693 16.2482713,130.40693 C15.2293059,130.40693 14.4032713,129.583134 14.4032713,128.56693 L14.4032713,80.4950412 C14.4032713,77.4464294 16.8813752,74.9750412 19.9382713,74.9750412 L48.6108361,74.9750412 Z" id="Path-15" stroke="#979797" fill="#D8D8D8" fill-rule="nonzero"></path>
            <path d="M47.27024,97.2456231 C48.2892054,97.2456231 49.11524,98.0694192 49.11524,99.0856231 C49.11524,100.101827 48.2892054,100.925623 47.27024,100.925623 L37.9612068,100.925623 C36.9422414,100.925623 36.1162068,101.749419 36.1162068,102.765623 L36.1162068,128.56693 C36.1162068,129.583134 35.2901721,130.40693 34.2712068,130.40693 C33.2522414,130.40693 32.4262068,129.583134 32.4262068,128.56693 L32.4262068,102.765623 C32.4262068,99.7170113 34.9043107,97.2456231 37.9612068,97.2456231 L47.27024,97.2456231 Z" id="Path-16" stroke="#979797" fill="#D8D8D8" fill-rule="nonzero"></path>
            <g id="Group-2" fill-rule="evenodd" transform="translate(76.837196, 88.913788) rotate(90.000000) translate(-76.837196, -88.913788) translate(52.852196, 55.180455)">
                <path d="M14.2555078,46.2132292 C14.2555078,47.2294331 13.4294732,48.0532292 12.4105078,48.0532292 C11.3915424,48.0532292 10.5655078,47.2294331 10.5655078,46.2132292 L10.5655078,2.94845116 C10.5655078,1.93224722 11.3915424,1.10845116 12.4105078,1.10845116 C13.4294732,1.10845116 14.2555078,1.93224722 14.2555078,2.94845116 L14.2555078,46.2132292 Z" id="Path-14" stroke="#979797" fill="#D8D8D8" fill-rule="nonzero"></path>
                <path d="M35.2399805,46.2132292 C35.2399805,47.2294331 34.4139458,48.0532292 33.3949805,48.0532292 C32.3760151,48.0532292 31.5499805,47.2294331 31.5499805,46.2132292 L31.5499805,2.94845116 C31.5499805,1.93224722 32.3760151,1.10845116 33.3949805,1.10845116 C34.4139458,1.10845116 35.2399805,1.93224722 35.2399805,2.94845116 L35.2399805,46.2132292 Z" id="Path-14-Copy" stroke="#979797" fill="#D8D8D8" fill-rule="nonzero"></path>
                <rect id="Rectangle-17" stroke="#505050" fill="#585858" x="0.857127829" y="45.8866667" width="45.4078994" height="19.8533333"></rect>
            </g>
        </g>
        <g id="Group" transform="translate(148.000000, 43.378035)" fill="#8D9EB0">
            <g id="triangle" transform="translate(3.832124, 3.275391) scale(-1, 1) translate(-3.832124, -3.275391) translate(0.832124, 0.775391)">
                <path d="M2.88775351,-0.425866237 C2.98755721,-0.684554916 3.15206769,-0.677565105 3.24917468,-0.425866237 L5.40050076,5.1503168 C5.50030446,5.40900548 5.36527212,5.61871408 5.08097484,5.61871408 L1.05595335,5.61871408 C0.779680363,5.61871408 0.639320451,5.40201566 0.736427439,5.1503168 L2.88775351,-0.425866237 Z" id="Triangle-1" transform="translate(3.069450, 2.500722) rotate(90.000000) translate(-3.069450, -2.500722) "></path>
            </g>
            <rect id="Rectangle-144" x="3.68472202" y="2.66483938" width="33.0591745" height="1" rx="0.5"></rect>
        </g>
        <g id="Group" transform="translate(215.474839, 46.378035) scale(-1, 1) translate(-215.474839, -46.378035) translate(192.974839, 43.378035)" fill="#8D9EB0">
            <g id="triangle" transform="translate(3.832124, 3.275391) scale(-1, 1) translate(-3.832124, -3.275391) translate(0.832124, 0.775391)">
                <path d="M2.88775351,-0.425866237 C2.98755721,-0.684554916 3.15206769,-0.677565105 3.24917468,-0.425866237 L5.40050076,5.1503168 C5.50030446,5.40900548 5.36527212,5.61871408 5.08097484,5.61871408 L1.05595335,5.61871408 C0.779680363,5.61871408 0.639320451,5.40201566 0.736427439,5.1503168 L2.88775351,-0.425866237 Z" id="Triangle-1" transform="translate(3.069450, 2.500722) rotate(90.000000) translate(-3.069450, -2.500722) "></path>
            </g>
            <rect id="Rectangle-144" x="3.68472202" y="2.66483938" width="33" height="1" rx="0.5"></rect>
        </g>
        <path d="M192.4498,40.0710754 C196.012565,40.0710754 197.793948,42.1712318 197.793948,45.3214663 L197.793948,47.6466395 C197.793948,51.0593936 195.768797,53.1970528 191.981015,53.1970528 L188.15573,53.1970528 L188.15573,40.0710754 L192.4498,40.0710754 Z M195.431272,47.6841423 L195.431272,45.2652122 C195.431272,43.127553 194.418696,41.8899608 192.337291,41.8899608 L190.518406,41.8899608 L190.518406,51.3781673 L191.999766,51.3781673 C194.287436,51.3781673 195.431272,50.178078 195.431272,47.6841423 Z" id="D" fill="#8D9EB0"></path>
        <rect id="Rectangle-93" fill="#8D9EB0" x="148" y="40.1363396" width="1" height="19.6241585" rx="0.5"></rect>
        <rect id="Rectangle-93-Copy-3" fill="#8D9EB0" x="237" y="40.1363396" width="1" height="19.6241585" rx="0.5"></rect>
        <path d="M246.641592,128.776873 C248.929263,128.776873 250.429374,130.61451 250.429374,133.502225 L250.429374,134.514801 C250.429374,137.271256 248.647992,139.258904 246.360321,139.258904 C245.291492,139.258904 244.428927,138.865125 243.735126,138.152572 L243.547612,139.015136 L241.728726,139.015136 L241.728726,125.139102 L244.053899,125.139102 L244.053899,129.8082 C244.691447,129.151901 245.554011,128.776873 246.641592,128.776873 Z M248.104201,134.589806 L248.104201,133.42722 C248.104201,131.477074 247.447902,130.539505 246.172807,130.539505 C245.27274,130.539505 244.560187,130.970787 244.053899,131.608334 L244.053899,136.671211 C244.560187,137.215002 245.197735,137.515024 245.966542,137.515024 C247.260388,137.515024 248.104201,136.502449 248.104201,134.589806 Z" id="b" fill="#8D9EB0"></path>
        <rect id="Rectangle-93" fill="#8D9EB0" x="222.670558" y="126.043815" width="1" height="11.4035291" rx="0.5"></rect>
        <rect id="Rectangle-93-Copy-3" fill="#8D9EB0" x="226.75645" y="126.043815" width="1" height="11.4035291" rx="0.5"></rect>
        <rect id="Rectangle-132-Copy" fill="#8D9EB0" x="238" y="106.167969" width="23.0456238" height="1" rx="0.5"></rect>
        <rect id="Rectangle-132-Copy-3" fill="#8D9EB0" x="10" y="125" width="26" height="1" rx="0.5"></rect>
        <path d="M238.045624,61.2166748 C238.045624,60.9405324 238.273259,60.7166748 238.547392,60.7166748 L260.543447,60.7166748 C260.820566,60.7166748 261.045405,60.9486084 261.045624,61.2166748 L261.045624,61.2166748 C261.045849,61.4928172 260.818388,61.7166748 260.544245,61.7166748 L238.54741,61.7166748 C238.270281,61.7166748 238.045624,61.4847412 238.045624,61.2166748 L238.045624,61.2166748 Z" id="Rectangle-132-Copy-2" fill="#8D9EB0"></path>
        <path d="M10,107.5 C10,107.223858 10.22581,107 10.5016283,107 L65.5430014,107 C65.820043,107 66.0450906,107.231934 66.0456233,107.5 L66.0456233,107.5 C66.0461721,107.776142 65.820799,108 65.544971,108 L10.5016461,108 C10.2245946,108 10,107.768066 10,107.5 L10,107.5 Z" id="Rectangle-132-Copy-4" fill="#8D9EB0"></path>
        <g id="Group-2" transform="translate(256.893905, 101.167969) scale(1, -1) translate(-256.893905, -101.167969) translate(253.893905, 96.167969)" fill="#8D9EB0">
            <g id="triangle" transform="translate(2.525734, 3.950073) rotate(-90.000000) translate(-2.525734, -3.950073) translate(-0.474266, 1.450073)">
                <path d="M2.88775351,-0.425866237 C2.98755721,-0.684554916 3.15206769,-0.677565105 3.24917468,-0.425866237 L5.40050076,5.1503168 C5.50030446,5.40900548 5.36527212,5.61871408 5.08097484,5.61871408 L1.05595335,5.61871408 C0.779680363,5.61871408 0.639320451,5.40201566 0.736427439,5.1503168 L2.88775351,-0.425866237 Z" id="Triangle-1" transform="translate(3.069450, 2.500722) rotate(90.000000) translate(-3.069450, -2.500722) "></path>
            </g>
            <rect id="Rectangle-134" x="2.0257342" y="3.95007324" width="1" height="9" rx="0.5"></rect>
        </g>
        <g id="Group-2-Copy" transform="translate(253.780138, 62.000000)" fill="#8D9EB0">
            <g id="triangle" transform="translate(2.525734, 3.950073) rotate(-90.000000) translate(-2.525734, -3.950073) translate(-0.474266, 1.450073)">
                <path d="M2.88775351,-0.425866237 C2.98755721,-0.684554916 3.15206769,-0.677565105 3.24917468,-0.425866237 L5.40050076,5.1503168 C5.50030446,5.40900548 5.36527212,5.61871408 5.08097484,5.61871408 L1.05595335,5.61871408 C0.779680363,5.61871408 0.639320451,5.40201566 0.736427439,5.1503168 L2.88775351,-0.425866237 Z" id="Triangle-1" transform="translate(3.069450, 2.500722) rotate(90.000000) translate(-3.069450, -2.500722) "></path>
            </g>
            <rect id="Rectangle-134" x="2.0257342" y="3.95007324" width="1" height="9.42480469" rx="0.5"></rect>
        </g>
        <g id="Group-17" transform="translate(227.418437, 130.198348)" fill="#8D9EB0">
            <g id="triangle" transform="translate(3.933594, 2.500000) scale(-1, 1) translate(-3.933594, -2.500000) translate(0.933594, 0.000000)">
                <path d="M2.88775351,-0.425866237 C2.98755721,-0.684554916 3.15206769,-0.677565105 3.24917468,-0.425866237 L5.40050076,5.1503168 C5.50030446,5.40900548 5.36527212,5.61871408 5.08097484,5.61871408 L1.05595335,5.61871408 C0.779680363,5.61871408 0.639320451,5.40201566 0.736427439,5.1503168 L2.88775351,-0.425866237 Z" id="Triangle-1" transform="translate(3.069450, 2.500722) rotate(90.000000) translate(-3.069450, -2.500722) "></path>
            </g>
            <rect id="Rectangle-144" x="3.93359375" y="2" width="9" height="1" rx="0.5"></rect>
        </g>
        <g id="Group-18" transform="translate(208.679362, 130.198348)" fill="#8D9EB0">
            <g id="triangle" transform="translate(9.933594, 2.500000) scale(-1, 1) rotate(180.000000) translate(-9.933594, -2.500000) translate(6.933594, 0.000000)">
                <path d="M2.88775351,-0.425866237 C2.98755721,-0.684554916 3.15206769,-0.677565105 3.24917468,-0.425866237 L5.40050076,5.1503168 C5.50030446,5.40900548 5.36527212,5.61871408 5.08097484,5.61871408 L1.05595335,5.61871408 C0.779680363,5.61871408 0.639320451,5.40201566 0.736427439,5.1503168 L2.88775351,-0.425866237 Z" id="Triangle-1" transform="translate(3.069450, 2.500722) rotate(90.000000) translate(-3.069450, -2.500722) "></path>
            </g>
            <path d="M9.44311523,3 L1.47920477,3 C1.20832097,3 0.988726259,2.76806641 0.988726259,2.5 C0.988726259,2.5 1.0024159,2 1.47920477,2 L9.44311523,2 C9.71399904,2 9.93359375,2.23193359 9.93359375,2.5 C9.93359375,2.77614237 9.71853638,3 9.44311523,3 Z" id="Rectangle-144"></path>
        </g>
        <rect id="Rectangle-93-Copy-5" fill="#8D9EB0" x="161.943822" y="125.375587" width="1" height="11.4035291" rx="0.5"></rect>
        <rect id="Rectangle-93-Copy-6" fill="#8D9EB0" x="182.933766" y="125.375587" width="1" height="11.4035291" rx="0.5"></rect>
        <rect id="Rectangle-93-Copy-5" fill="#8D9EB0" x="65.9438224" y="39.7367517" width="1" height="19.6241585" rx="0.5"></rect>
        <rect id="Rectangle-93-Copy-10" fill="#8D9EB0" x="65.9438224" y="108.574189" width="1" height="28.2049268" rx="0.5"></rect>
        <rect id="Rectangle-93-Copy-6" fill="#8D9EB0" x="86.9337664" y="39.7367517" width="1" height="19.6241585" rx="0.5"></rect>
        <rect id="Rectangle-93-Copy-9" fill="#8D9EB0" x="37.9438224" y="127.736752" width="1" height="33.6490988" rx="0.5"></rect>
        <rect id="Rectangle-93-Copy-8" fill="#8D9EB0" x="55.9337664" y="127.736752" width="1" height="33.6490988" rx="0.5"></rect>
        <rect id="Rectangle-93-Copy-7" fill="#8D9EB0" x="130.58591" y="39.7367517" width="1" height="30.2574803" rx="0.5"></rect>
        <g id="Group-17-Copy" transform="translate(182.784485, 130.198348)" fill="#8D9EB0">
            <g id="triangle" transform="translate(4.933594, 2.500000) scale(-1, 1) translate(-4.933594, -2.500000) translate(0.933594, 0.000000)">
                <path d="M3.88775351,-0.425866237 C3.98755721,-0.684554916 4.15206769,-0.677565105 4.24917468,-0.425866237 L6.40050076,5.1503168 C6.50030446,5.40900548 6.36527212,5.61871408 6.08097484,5.61871408 L2.05595335,5.61871408 C1.77968036,5.61871408 1.63932045,5.40201566 1.73642744,5.1503168 L3.88775351,-0.425866237 Z" id="Triangle-1" transform="translate(4.069450, 2.500722) rotate(90.000000) translate(-4.069450, -2.500722) "></path>
            </g>
            <rect id="Rectangle-144" x="4.93359375" y="2" width="9" height="1" rx="0.5"></rect>
        </g>
        <g id="Group-18-Copy" transform="translate(148.141357, 130.198348)" fill="#8D9EB0">
            <g id="triangle" transform="translate(9.933594, 2.500000) scale(-1, 1) rotate(180.000000) translate(-9.933594, -2.500000) translate(6.933594, 0.000000)">
                <path d="M2.88775351,-0.425866237 C2.98755721,-0.684554916 3.15206769,-0.677565105 3.24917468,-0.425866237 L5.40050076,5.1503168 C5.50030446,5.40900548 5.36527212,5.61871408 5.08097484,5.61871408 L1.05595335,5.61871408 C0.779680363,5.61871408 0.639320451,5.40201566 0.736427439,5.1503168 L2.88775351,-0.425866237 Z" id="Triangle-1" transform="translate(3.069450, 2.500722) rotate(90.000000) translate(-3.069450, -2.500722) "></path>
            </g>
            <path d="M9.44311523,3 L1.47920477,3 C1.20832097,3 0.988726259,2.76806641 0.988726259,2.5 C0.988726259,2.5 1.0024159,2 1.47920477,2 L9.44311523,2 C9.71399904,2 9.93359375,2.23193359 9.93359375,2.5 C9.93359375,2.77614237 9.71853638,3 9.44311523,3 Z" id="Rectangle-144"></path>
        </g>
        <g id="Group-17-Copy" transform="translate(86.784485, 44.378035)" fill="#8D9EB0">
            <g id="triangle" transform="translate(4.933594, 2.500000) scale(-1, 1) translate(-4.933594, -2.500000) translate(0.933594, 0.000000)">
                <path d="M3.88775351,-0.425866237 C3.98755721,-0.684554916 4.15206769,-0.677565105 4.24917468,-0.425866237 L6.40050076,5.1503168 C6.50030446,5.40900548 6.36527212,5.61871408 6.08097484,5.61871408 L2.05595335,5.61871408 C1.77968036,5.61871408 1.63932045,5.40201566 1.73642744,5.1503168 L3.88775351,-0.425866237 Z" id="Triangle-1" transform="translate(4.069450, 2.500722) rotate(90.000000) translate(-4.069450, -2.500722) "></path>
            </g>
            <rect id="Rectangle-144" x="4.93359375" y="2" width="9" height="1" rx="0.5"></rect>
        </g>
        <g id="Group-18-Copy" transform="translate(52.141357, 44.378035)" fill="#8D9EB0">
            <g id="triangle" transform="translate(9.933594, 2.500000) scale(-1, 1) rotate(180.000000) translate(-9.933594, -2.500000) translate(6.933594, 0.000000)">
                <path d="M2.88775351,-0.425866237 C2.98755721,-0.684554916 3.15206769,-0.677565105 3.24917468,-0.425866237 L5.40050076,5.1503168 C5.50030446,5.40900548 5.36527212,5.61871408 5.08097484,5.61871408 L1.05595335,5.61871408 C0.779680363,5.61871408 0.639320451,5.40201566 0.736427439,5.1503168 L2.88775351,-0.425866237 Z" id="Triangle-1" transform="translate(3.069450, 2.500722) rotate(90.000000) translate(-3.069450, -2.500722) "></path>
            </g>
            <path d="M9.44311523,3 L1.47920477,3 C1.20832097,3 0.988726259,2.76806641 0.988726259,2.5 C0.988726259,2.5 1.0024159,2 1.47920477,2 L9.44311523,2 C9.71399904,2 9.93359375,2.23193359 9.93359375,2.5 C9.93359375,2.77614237 9.71853638,3 9.44311523,3 Z" id="Rectangle-144"></path>
        </g>
        <g id="Group-18-Copy-2" transform="translate(118.000000, 44.378035)" fill="#8D9EB0">
            <g id="triangle" transform="translate(9.933594, 2.500000) scale(-1, 1) rotate(180.000000) translate(-9.933594, -2.500000) translate(6.933594, 0.000000)">
                <path d="M2.88775351,-0.425866237 C2.98755721,-0.684554916 3.15206769,-0.677565105 3.24917468,-0.425866237 L5.40050076,5.1503168 C5.50030446,5.40900548 5.36527212,5.61871408 5.08097484,5.61871408 L1.05595335,5.61871408 C0.779680363,5.61871408 0.639320451,5.40201566 0.736427439,5.1503168 L2.88775351,-0.425866237 Z" id="Triangle-1" transform="translate(3.069450, 2.500722) rotate(90.000000) translate(-3.069450, -2.500722) "></path>
            </g>
            <path d="M9.44311523,3 L1.47920477,3 C1.20832097,3 0.988726259,2.76806641 0.988726259,2.5 C0.988726259,2.5 1.0024159,2 1.47920477,2 L9.44311523,2 C9.71399904,2 9.93359375,2.23193359 9.93359375,2.5 C9.93359375,2.77614237 9.71853638,3 9.44311523,3 Z" id="Rectangle-144"></path>
        </g>
        <path d="M80.7756535,154.856612 C80.7756535,155.269142 80.7381507,155.681673 80.7006479,155.981695 L74.2689189,155.981695 C74.3064217,157.894338 75.1877374,158.738151 76.9128658,158.738151 C78.0004468,158.738151 78.8067568,158.344371 79.5755641,157.913089 L80.4006255,159.300693 C79.5568127,159.93824 78.2067122,160.482031 76.7628547,160.482031 C73.7251285,160.482031 72,158.475631 72,155.77543 L72,154.744103 C72,152.043902 73.6876257,150 76.4628323,150 C79.1817848,150 80.7756535,151.687626 80.7756535,154.856612 Z M78.6942485,154.462832 L78.6942485,154.369075 C78.6942485,152.643947 77.9254412,151.706377 76.4815837,151.706377 C75.0564776,151.706377 74.3064217,152.643947 74.2689189,154.462832 L78.6942485,154.462832 Z" id="e" fill="#8D9EB0"></path>
        <polygon id="E" fill="#8D9EB0" points="259.893905 79.6018436 254.58726 79.6018436 254.58726 83.3333715 259.481375 83.3333715 259.481375 85.1522569 254.58726 85.1522569 254.58726 89.0712987 259.893905 89.0712987 259.893905 90.9089355 252.224584 90.9089355 252.224584 77.7829582 259.893905 77.7829582"></polygon>
        <path d="M174.931729,125.139102 L177.256902,125.139102 L177.256902,139.015136 L175.438017,139.015136 L175.194248,137.927555 C174.53795,138.733865 173.675385,139.258904 172.456545,139.258904 C170.131371,139.258904 168.5,137.402516 168.5,134.552303 L168.5,133.502225 C168.5,130.764521 170.150123,128.776873 172.569053,128.776873 C173.544126,128.776873 174.294181,129.076896 174.931729,129.658189 L174.931729,125.139102 Z M172.869075,137.515024 C173.787894,137.515024 174.40669,137.064991 174.931729,136.352437 L174.931729,131.364566 C174.519198,130.914533 173.825397,130.539505 172.962832,130.539505 C171.631483,130.539505 170.825173,131.55208 170.825173,133.445971 L170.825173,134.589806 C170.825173,136.577454 171.612732,137.515024 172.869075,137.515024 Z" id="d" fill="#8D9EB0"></path>
        <polygon id="L" fill="#8D9EB0" points="76.1191609 51.2844104 81.4445575 51.2844104 81.4445575 53.1970528 73.756485 53.1970528 73.756485 40.0710754 76.1191609 40.0710754"></polygon>
        <path d="M104.331573,51.4062944 L109.656969,51.4062944 L109.656969,53.3189369 L101.968897,53.3189369 L101.968897,40.1929595 L104.331573,40.1929595 L104.331573,51.4062944 Z M112.807204,51.4062944 L118.93891,51.4062944 L118.93891,53.3189369 L110.482031,53.3189369 L110.482031,51.9875877 C110.482031,49.6624146 111.607114,48.3873196 113.125977,47.3372414 L114.926111,46.0996493 C116.107449,45.2933393 116.557483,44.8058029 116.557483,43.9432387 L116.557483,43.4932052 C116.557483,42.7056466 115.938687,41.7868281 114.382321,41.7868281 C113.257237,41.7868281 112.375922,42.1243533 111.250838,42.9119119 L110.20076,41.4868058 C111.4196,40.5304846 112.788452,39.9491913 114.532332,39.9491913 C117.363793,39.9491913 118.920159,41.6555684 118.920159,43.4181996 L118.920159,43.9994929 C118.920159,45.2933393 118.1326,46.4371744 116.107449,47.7497722 L114.663592,48.687342 C113.200983,49.6436632 112.844706,50.4124704 112.807204,51.4062944 Z" id="L2" fill="#8D9EB0"></path>
        <g id="Group-17-Copy" transform="translate(54.922085, 153.000000)" fill="#8D9EB0">
            <g id="triangle" transform="translate(4.933594, 2.500000) scale(-1, 1) translate(-4.933594, -2.500000) translate(0.933594, 0.000000)">
                <path d="M3.88775351,-0.425866237 C3.98755721,-0.684554916 4.15206769,-0.677565105 4.24917468,-0.425866237 L6.40050076,5.1503168 C6.50030446,5.40900548 6.36527212,5.61871408 6.08097484,5.61871408 L2.05595335,5.61871408 C1.77968036,5.61871408 1.63932045,5.40201566 1.73642744,5.1503168 L3.88775351,-0.425866237 Z" id="Triangle-1" transform="translate(4.069450, 2.500722) rotate(90.000000) translate(-4.069450, -2.500722) "></path>
            </g>
            <rect id="Rectangle-144" x="4.93359375" y="2" width="9" height="1" rx="0.5"></rect>
        </g>
        <g id="Group-17-Copy-2" transform="translate(65.141357, 130.198348)" fill="#8D9EB0">
            <g id="triangle" transform="translate(4.933594, 2.500000) scale(-1, 1) translate(-4.933594, -2.500000) translate(0.933594, 0.000000)">
                <path d="M3.88775351,-0.425866237 C3.98755721,-0.684554916 4.15206769,-0.677565105 4.24917468,-0.425866237 L6.40050076,5.1503168 C6.50030446,5.40900548 6.36527212,5.61871408 6.08097484,5.61871408 L2.05595335,5.61871408 C1.77968036,5.61871408 1.63932045,5.40201566 1.73642744,5.1503168 L3.88775351,-0.425866237 Z" id="Triangle-1" transform="translate(4.069450, 2.500722) rotate(90.000000) translate(-4.069450, -2.500722) "></path>
            </g>
            <rect id="Rectangle-144" x="4.93359375" y="2" width="9" height="1" rx="0.5"></rect>
        </g>
        <g id="Group-18-Copy" transform="translate(25.278957, 153.000000)" fill="#8D9EB0">
            <g id="triangle" transform="translate(9.933594, 2.500000) scale(-1, 1) rotate(180.000000) translate(-9.933594, -2.500000) translate(6.933594, 0.000000)">
                <path d="M2.88775351,-0.425866237 C2.98755721,-0.684554916 3.15206769,-0.677565105 3.24917468,-0.425866237 L5.40050076,5.1503168 C5.50030446,5.40900548 5.36527212,5.61871408 5.08097484,5.61871408 L1.05595335,5.61871408 C0.779680363,5.61871408 0.639320451,5.40201566 0.736427439,5.1503168 L2.88775351,-0.425866237 Z" id="Triangle-1" transform="translate(3.069450, 2.500722) rotate(90.000000) translate(-3.069450, -2.500722) "></path>
            </g>
            <path d="M9.44311523,3 L1.47920477,3 C1.20832097,3 0.988726259,2.76806641 0.988726259,2.5 C0.988726259,2.5 1.0024159,2 1.47920477,2 L9.44311523,2 C9.71399904,2 9.93359375,2.23193359 9.93359375,2.5 C9.93359375,2.77614237 9.71853638,3 9.44311523,3 Z" id="Rectangle-144"></path>
        </g>
        <g id="Group-18-Copy-3" transform="translate(43.000000, 130.198348)" fill="#8D9EB0">
            <g id="triangle" transform="translate(9.933594, 2.500000) scale(-1, 1) rotate(180.000000) translate(-9.933594, -2.500000) translate(6.933594, 0.000000)">
                <path d="M2.88775351,-0.425866237 C2.98755721,-0.684554916 3.15206769,-0.677565105 3.24917468,-0.425866237 L5.40050076,5.1503168 C5.50030446,5.40900548 5.36527212,5.61871408 5.08097484,5.61871408 L1.05595335,5.61871408 C0.779680363,5.61871408 0.639320451,5.40201566 0.736427439,5.1503168 L2.88775351,-0.425866237 Z" id="Triangle-1" transform="translate(3.069450, 2.500722) rotate(90.000000) translate(-3.069450, -2.500722) "></path>
            </g>
            <path d="M9.44311523,3 L1.47920477,3 C1.20832097,3 0.988726259,2.76806641 0.988726259,2.5 C0.988726259,2.5 1.0024159,2 1.47920477,2 L9.44311523,2 C9.71399904,2 9.93359375,2.23193359 9.93359375,2.5 C9.93359375,2.77614237 9.71853638,3 9.44311523,3 Z" id="Rectangle-144"></path>
        </g>
        <path d="M83.3315725,136.828373 L88.6569691,136.828373 L88.6569691,138.741015 L80.9688966,138.741015 L80.9688966,125.615038 L83.3315725,125.615038 L83.3315725,136.828373 Z M94.9386868,136.959633 L97.2451086,136.959633 L97.2451086,138.741015 L89.9695668,138.741015 L89.9695668,136.959633 L92.6510165,136.959633 L92.6510165,128.165228 L90.3820975,129.290312 L89.5195333,127.752697 L93.194807,125.615038 L94.9386868,125.615038 L94.9386868,136.959633 Z" id="L1" fill="#8D9EB0"></path>
        <g id="L3" fill="#8D9EB0">
            <use xlink:href="#path-1"></use>
            <use xlink:href="#path-1"></use>
        </g>
        <g id="Group-2-Copy-2" transform="translate(20.000000, 103.000000) scale(1, -1) translate(-20.000000, -103.000000) translate(17.000000, 98.000000)" fill="#8D9EB0">
            <g id="triangle" transform="translate(2.525734, 3.950073) rotate(-90.000000) translate(-2.525734, -3.950073) translate(-0.474266, 1.450073)">
                <path d="M2.88775351,-0.425866237 C2.98755721,-0.684554916 3.15206769,-0.677565105 3.24917468,-0.425866237 L5.40050076,5.1503168 C5.50030446,5.40900548 5.36527212,5.61871408 5.08097484,5.61871408 L1.05595335,5.61871408 C0.779680363,5.61871408 0.639320451,5.40201566 0.736427439,5.1503168 L2.88775351,-0.425866237 Z" id="Triangle-1" transform="translate(3.069450, 2.500722) rotate(90.000000) translate(-3.069450, -2.500722) "></path>
            </g>
            <rect id="Rectangle-134" x="2.0257342" y="1.95007324" width="1" height="8" rx="0.5"></rect>
        </g>
        <g id="Group-2-Copy-3" transform="translate(17.000000, 106.000000)" fill="#8D9EB0">
            <g id="triangle" transform="translate(2.500000, 23.000000) rotate(-90.000000) translate(-2.500000, -23.000000) translate(-0.500000, 20.500000)">
                <path d="M2.88775351,-0.425866237 C2.98755721,-0.684554916 3.15206769,-0.677565105 3.24917468,-0.425866237 L5.40050076,5.1503168 C5.50030446,5.40900548 5.36527212,5.61871408 5.08097484,5.61871408 L1.05595335,5.61871408 C0.779680363,5.61871408 0.639320451,5.40201566 0.736427439,5.1503168 L2.88775351,-0.425866237 Z" id="Triangle-1" transform="translate(3.069450, 2.500722) rotate(90.000000) translate(-3.069450, -2.500722) "></path>
            </g>
            <rect id="Rectangle-134" x="2" y="21" width="1" height="7.94485309" rx="0.5"></rect>
            <rect id="Rectangle-134-Copy" x="2.0257342" y="0.950073242" width="1" height="19.0499268" rx="0.5"></rect>
        </g>
    </g>
</svg>