<?xml version="1.0" encoding="UTF-8"?>
<svg width="290px" height="175px" viewBox="0 0 290 175" version="1.1" xmlns="http://www.w3.org/2000/svg" xmlns:xlink="http://www.w3.org/1999/xlink">
    <!-- Generator: Sketch 50.2 (55047) - http://www.bohemiancoding.com/sketch -->
    <title>Header-Female-Straight-Labeled</title>
    <desc>Created with Sketch.</desc>
    <defs></defs>
    <g id="Header-Female-Straight-Labeled" stroke="none" stroke-width="1" fill="none" fill-rule="evenodd">
        <g id="Header-Female-Straight" transform="translate(22.138021, -4.646484)">
            <g id="Group" transform="translate(126.690000, 65.013333)">
                <rect id="Rectangle-18" stroke="#505050" fill="#585858" x="0.5" y="0.836614583" width="88.7047168" height="45.2821328"></rect>
                <g id="female-header-hole" transform="translate(4.920000, 4.906667)">
                    <g id="Group-3" transform="translate(0.561609, 0.561609)">
                        <polygon id="Rectangle-19-Copy-8" fill="#505050" points="10.5845209 5.29226047 14.8321775 1.0446039 14.8321775 14.8321775 10.5845209 10.5845209"></polygon>
                        <polygon id="Rectangle-19-Copy-9" fill="#666666" points="5.29226047 10.5845209 10.5845209 10.5845209 14.8321775 14.8321775 1.04522265 14.8321775"></polygon>
                        <polygon id="Rectangle-19-Copy-10" fill="#505050" points="1.0446039 1.0446039 5.29226047 5.29226047 5.29226047 10.5845209 1.04522265 14.8321775"></polygon>
                        <polygon id="Rectangle-19-Copy-11" fill="#666666" points="1.0446039 1.0446039 14.8321775 1.0446039 10.5845209 5.29226047 5.29226047 5.29226047"></polygon>
                        <polygon id="Rectangle-19" fill="#000000" fill-rule="nonzero" points="5.29226047 5.29226047 5.29226047 10.5845209 10.5845209 10.5845209 10.5845209 5.29226047"></polygon>
                        <rect id="Rectangle" stroke="#4F4F4F" x="1.15267642" y="1.15267642" width="13.5714286" height="13.5714286"></rect>
                    </g>
                </g>
                <g id="female-header-hole" transform="translate(4.920000, 24.533333)">
                    <g id="Group-3" transform="translate(0.561609, 0.561609)">
                        <polygon id="Rectangle-19-Copy-8" fill="#505050" points="10.5845209 5.29226047 14.8321775 1.0446039 14.8321775 14.8321775 10.5845209 10.5845209"></polygon>
                        <polygon id="Rectangle-19-Copy-9" fill="#666666" points="5.29226047 10.5845209 10.5845209 10.5845209 14.8321775 14.8321775 1.04522265 14.8321775"></polygon>
                        <polygon id="Rectangle-19-Copy-10" fill="#505050" points="1.0446039 1.0446039 5.29226047 5.29226047 5.29226047 10.5845209 1.04522265 14.8321775"></polygon>
                        <polygon id="Rectangle-19-Copy-11" fill="#666666" points="1.0446039 1.0446039 14.8321775 1.0446039 10.5845209 5.29226047 5.29226047 5.29226047"></polygon>
                        <polygon id="Rectangle-19" fill="#000000" fill-rule="nonzero" points="5.29226047 5.29226047 5.29226047 10.5845209 10.5845209 10.5845209 10.5845209 5.29226047"></polygon>
                        <rect id="Rectangle" stroke="#4F4F4F" x="1.15267642" y="1.15267642" width="13.5714286" height="13.5714286"></rect>
                    </g>
                </g>
                <g id="female-header-hole" transform="translate(26.014980, 4.906667)">
                    <g id="Group-3" transform="translate(0.561609, 0.561609)">
                        <polygon id="Rectangle-19-Copy-8" fill="#505050" points="10.5845209 5.29226047 14.8321775 1.0446039 14.8321775 14.8321775 10.5845209 10.5845209"></polygon>
                        <polygon id="Rectangle-19-Copy-9" fill="#666666" points="5.29226047 10.5845209 10.5845209 10.5845209 14.8321775 14.8321775 1.04522265 14.8321775"></polygon>
                        <polygon id="Rectangle-19-Copy-10" fill="#505050" points="1.0446039 1.0446039 5.29226047 5.29226047 5.29226047 10.5845209 1.04522265 14.8321775"></polygon>
                        <polygon id="Rectangle-19-Copy-11" fill="#666666" points="1.0446039 1.0446039 14.8321775 1.0446039 10.5845209 5.29226047 5.29226047 5.29226047"></polygon>
                        <polygon id="Rectangle-19" fill="#000000" fill-rule="nonzero" points="5.29226047 5.29226047 5.29226047 10.5845209 10.5845209 10.5845209 10.5845209 5.29226047"></polygon>
                        <rect id="Rectangle" stroke="#4F4F4F" x="1.15267642" y="1.15267642" width="13.5714286" height="13.5714286"></rect>
                    </g>
                </g>
                <g id="female-header-hole" transform="translate(26.014980, 24.533333)">
                    <g id="Group-3" transform="translate(0.561609, 0.561609)">
                        <polygon id="Rectangle-19-Copy-8" fill="#505050" points="10.5845209 5.29226047 14.8321775 1.0446039 14.8321775 14.8321775 10.5845209 10.5845209"></polygon>
                        <polygon id="Rectangle-19-Copy-9" fill="#666666" points="5.29226047 10.5845209 10.5845209 10.5845209 14.8321775 14.8321775 1.04522265 14.8321775"></polygon>
                        <polygon id="Rectangle-19-Copy-10" fill="#505050" points="1.0446039 1.0446039 5.29226047 5.29226047 5.29226047 10.5845209 1.04522265 14.8321775"></polygon>
                        <polygon id="Rectangle-19-Copy-11" fill="#666666" points="1.0446039 1.0446039 14.8321775 1.0446039 10.5845209 5.29226047 5.29226047 5.29226047"></polygon>
                        <polygon id="Rectangle-19" fill="#000000" fill-rule="nonzero" points="5.29226047 5.29226047 5.29226047 10.5845209 10.5845209 10.5845209 10.5845209 5.29226047"></polygon>
                        <rect id="Rectangle" stroke="#4F4F4F" x="1.15267642" y="1.15267642" width="13.5714286" height="13.5714286"></rect>
                    </g>
                </g>
                <g id="female-header-hole" transform="translate(46.924980, 4.906667)">
                    <g id="Group-3" transform="translate(0.561609, 0.561609)">
                        <polygon id="Rectangle-19-Copy-8" fill="#505050" points="10.5845209 5.29226047 14.8321775 1.0446039 14.8321775 14.8321775 10.5845209 10.5845209"></polygon>
                        <polygon id="Rectangle-19-Copy-9" fill="#666666" points="5.29226047 10.5845209 10.5845209 10.5845209 14.8321775 14.8321775 1.04522265 14.8321775"></polygon>
                        <polygon id="Rectangle-19-Copy-10" fill="#505050" points="1.0446039 1.0446039 5.29226047 5.29226047 5.29226047 10.5845209 1.04522265 14.8321775"></polygon>
                        <polygon id="Rectangle-19-Copy-11" fill="#666666" points="1.0446039 1.0446039 14.8321775 1.0446039 10.5845209 5.29226047 5.29226047 5.29226047"></polygon>
                        <polygon id="Rectangle-19" fill="#000000" fill-rule="nonzero" points="5.29226047 5.29226047 5.29226047 10.5845209 10.5845209 10.5845209 10.5845209 5.29226047"></polygon>
                        <rect id="Rectangle" stroke="#4F4F4F" x="1.15267642" y="1.15267642" width="13.5714286" height="13.5714286"></rect>
                    </g>
                </g>
                <g id="female-header-hole" transform="translate(46.924980, 24.533333)">
                    <g id="Group-3" transform="translate(0.561609, 0.561609)">
                        <polygon id="Rectangle-19-Copy-8" fill="#505050" points="10.5845209 5.29226047 14.8321775 1.0446039 14.8321775 14.8321775 10.5845209 10.5845209"></polygon>
                        <polygon id="Rectangle-19-Copy-9" fill="#666666" points="5.29226047 10.5845209 10.5845209 10.5845209 14.8321775 14.8321775 1.04522265 14.8321775"></polygon>
                        <polygon id="Rectangle-19-Copy-10" fill="#505050" points="1.0446039 1.0446039 5.29226047 5.29226047 5.29226047 10.5845209 1.04522265 14.8321775"></polygon>
                        <polygon id="Rectangle-19-Copy-11" fill="#666666" points="1.0446039 1.0446039 14.8321775 1.0446039 10.5845209 5.29226047 5.29226047 5.29226047"></polygon>
                        <polygon id="Rectangle-19" fill="#000000" fill-rule="nonzero" points="5.29226047 5.29226047 5.29226047 10.5845209 10.5845209 10.5845209 10.5845209 5.29226047"></polygon>
                        <rect id="Rectangle" stroke="#4F4F4F" x="1.15267642" y="1.15267642" width="13.5714286" height="13.5714286"></rect>
                    </g>
                </g>
                <g id="female-header-hole" transform="translate(67.834980, 4.906667)">
                    <g id="Group-3" transform="translate(0.561609, 0.561609)">
                        <polygon id="Rectangle-19-Copy-8" fill="#505050" points="10.5845209 5.29226047 14.8321775 1.0446039 14.8321775 14.8321775 10.5845209 10.5845209"></polygon>
                        <polygon id="Rectangle-19-Copy-9" fill="#666666" points="5.29226047 10.5845209 10.5845209 10.5845209 14.8321775 14.8321775 1.04522265 14.8321775"></polygon>
                        <polygon id="Rectangle-19-Copy-10" fill="#505050" points="1.0446039 1.0446039 5.29226047 5.29226047 5.29226047 10.5845209 1.04522265 14.8321775"></polygon>
                        <polygon id="Rectangle-19-Copy-11" fill="#666666" points="1.0446039 1.0446039 14.8321775 1.0446039 10.5845209 5.29226047 5.29226047 5.29226047"></polygon>
                        <polygon id="Rectangle-19" fill="#000000" fill-rule="nonzero" points="5.29226047 5.29226047 5.29226047 10.5845209 10.5845209 10.5845209 10.5845209 5.29226047"></polygon>
                        <rect id="Rectangle" stroke="#4F4F4F" x="1.15267642" y="1.15267642" width="13.5714286" height="13.5714286"></rect>
                    </g>
                </g>
                <g id="female-header-hole" transform="translate(67.834980, 24.533333)">
                    <g id="Group-3" transform="translate(0.561609, 0.561609)">
                        <polygon id="Rectangle-19-Copy-8" fill="#505050" points="10.5845209 5.29226047 14.8321775 1.0446039 14.8321775 14.8321775 10.5845209 10.5845209"></polygon>
                        <polygon id="Rectangle-19-Copy-9" fill="#666666" points="5.29226047 10.5845209 10.5845209 10.5845209 14.8321775 14.8321775 1.04522265 14.8321775"></polygon>
                        <polygon id="Rectangle-19-Copy-10" fill="#505050" points="1.0446039 1.0446039 5.29226047 5.29226047 5.29226047 10.5845209 1.04522265 14.8321775"></polygon>
                        <polygon id="Rectangle-19-Copy-11" fill="#666666" points="1.0446039 1.0446039 14.8321775 1.0446039 10.5845209 5.29226047 5.29226047 5.29226047"></polygon>
                        <polygon id="Rectangle-19" fill="#000000" fill-rule="nonzero" points="5.29226047 5.29226047 5.29226047 10.5845209 10.5845209 10.5845209 10.5845209 5.29226047"></polygon>
                        <rect id="Rectangle" stroke="#4F4F4F" x="1.15267642" y="1.15267642" width="13.5714286" height="13.5714286"></rect>
                    </g>
                </g>
            </g>
            <g id="Group-2" transform="translate(25.830000, 63.786667)">
                <g id="Group-5" transform="translate(10.813243, 38.026667)" fill="#D8D8D8" fill-rule="nonzero" stroke="#979797">
                    <g id="Group-4">
                        <path d="M4.41550781,24.9106771 C4.41550781,25.926881 3.58947318,26.7506771 2.57050781,26.7506771 C1.55154245,26.7506771 0.725507813,25.926881 0.725507813,24.9106771 L0.725507813,2.38265625 C0.725507813,1.36645231 1.55154245,0.54265625 2.57050781,0.54265625 C3.58947318,0.54265625 4.41550781,1.36645231 4.41550781,2.38265625 L4.41550781,24.9106771 Z" id="Path-14-Copy-2"></path>
                    </g>
                    <path d="M25.3999805,24.9106771 C25.3999805,25.926881 24.5739458,26.7506771 23.5549805,26.7506771 C22.5360151,26.7506771 21.7099805,25.926881 21.7099805,24.9106771 L21.7099805,2.95585937 C21.7099805,1.93965544 22.5360151,1.11585937 23.5549805,1.11585937 C24.5739458,1.11585937 25.3999805,1.93965544 25.3999805,2.95585937 L25.3999805,24.9106771 Z" id="Path-14-Copy-3"></path>
                </g>
                <rect id="Rectangle-17" stroke="#505050" fill="#585858" x="1.02429346" y="1.46417477" width="45.4078994" height="45.6133333"></rect>
            </g>
        </g>
        <g id="Group" transform="translate(148.000000, 43.378035)" fill="#8D9EB0">
            <g id="triangle" transform="translate(3.832124, 3.275391) scale(-1, 1) translate(-3.832124, -3.275391) translate(0.832124, 0.775391)">
                <path d="M2.88775351,-0.425866237 C2.98755721,-0.684554916 3.15206769,-0.677565105 3.24917468,-0.425866237 L5.40050076,5.1503168 C5.50030446,5.40900548 5.36527212,5.61871408 5.08097484,5.61871408 L1.05595335,5.61871408 C0.779680363,5.61871408 0.639320451,5.40201566 0.736427439,5.1503168 L2.88775351,-0.425866237 Z" id="Triangle-1" transform="translate(3.069450, 2.500722) rotate(90.000000) translate(-3.069450, -2.500722) "></path>
            </g>
            <rect id="Rectangle-144" x="3.68472202" y="2.66483938" width="33.0591745" height="1" rx="0.5"></rect>
        </g>
        <g id="Group" transform="translate(215.474839, 46.378035) scale(-1, 1) translate(-215.474839, -46.378035) translate(192.974839, 43.378035)" fill="#8D9EB0">
            <g id="triangle" transform="translate(3.832124, 3.275391) scale(-1, 1) translate(-3.832124, -3.275391) translate(0.832124, 0.775391)">
                <path d="M2.88775351,-0.425866237 C2.98755721,-0.684554916 3.15206769,-0.677565105 3.24917468,-0.425866237 L5.40050076,5.1503168 C5.50030446,5.40900548 5.36527212,5.61871408 5.08097484,5.61871408 L1.05595335,5.61871408 C0.779680363,5.61871408 0.639320451,5.40201566 0.736427439,5.1503168 L2.88775351,-0.425866237 Z" id="Triangle-1" transform="translate(3.069450, 2.500722) rotate(90.000000) translate(-3.069450, -2.500722) "></path>
            </g>
            <rect id="Rectangle-144" x="3.68472202" y="2.66483938" width="33" height="1" rx="0.5"></rect>
        </g>
        <path d="M192.4498,40.0710754 C196.012565,40.0710754 197.793948,42.1712318 197.793948,45.3214663 L197.793948,47.6466395 C197.793948,51.0593936 195.768797,53.1970528 191.981015,53.1970528 L188.15573,53.1970528 L188.15573,40.0710754 L192.4498,40.0710754 Z M195.431272,47.6841423 L195.431272,45.2652122 C195.431272,43.127553 194.418696,41.8899608 192.337291,41.8899608 L190.518406,41.8899608 L190.518406,51.3781673 L191.999766,51.3781673 C194.287436,51.3781673 195.431272,50.178078 195.431272,47.6841423 Z" id="D" fill="#8D9EB0"></path>
        <rect id="Rectangle-93" fill="#8D9EB0" x="148" y="40.1363396" width="1" height="19.6241585" rx="0.5"></rect>
        <rect id="Rectangle-93-Copy-3" fill="#8D9EB0" x="237" y="40.1363396" width="1" height="19.6241585" rx="0.5"></rect>
        <path d="M38.9615433,126.637771 C41.2492137,126.637771 42.7493254,128.475408 42.7493254,131.363123 L42.7493254,132.375698 C42.7493254,135.132153 40.9679427,137.119801 38.6802724,137.119801 C37.6114428,137.119801 36.7488786,136.726022 36.0550769,136.013469 L35.8675629,136.876033 L34.0486775,136.876033 L34.0486775,123 L36.3738506,123 L36.3738506,127.669098 C37.0113981,127.012799 37.8739623,126.637771 38.9615433,126.637771 Z M40.4241522,132.450704 L40.4241522,131.288117 C40.4241522,129.337972 39.7678534,128.400402 38.4927584,128.400402 C37.5926914,128.400402 36.8801383,128.831684 36.3738506,129.469232 L36.3738506,134.532109 C36.8801383,135.075899 37.5176858,135.375922 38.2864931,135.375922 C39.5803394,135.375922 40.4241522,134.363346 40.4241522,132.450704 Z" id="b" fill="#8D9EB0"></path>
        <rect id="Rectangle-93" fill="#8D9EB0" x="58.8376994" y="123.904712" width="1" height="11.4035291" rx="0.5"></rect>
        <rect id="Rectangle-93-Copy-3" fill="#8D9EB0" x="62.9235906" y="123.904712" width="1" height="11.4035291" rx="0.5"></rect>
        <rect id="Rectangle-132-Copy" fill="#8D9EB0" x="238" y="106.167969" width="23.0456238" height="1" rx="0.5"></rect>
        <path d="M238.045624,61.2166748 C238.045624,60.9405324 238.273259,60.7166748 238.547392,60.7166748 L260.543447,60.7166748 C260.820566,60.7166748 261.045405,60.9486084 261.045624,61.2166748 L261.045624,61.2166748 C261.045849,61.4928172 260.818388,61.7166748 260.544245,61.7166748 L238.54741,61.7166748 C238.270281,61.7166748 238.045624,61.4847412 238.045624,61.2166748 L238.045624,61.2166748 Z" id="Rectangle-132-Copy-2" fill="#8D9EB0"></path>
        <g id="Group-2" transform="translate(256.893905, 101.167969) scale(1, -1) translate(-256.893905, -101.167969) translate(253.893905, 96.167969)" fill="#8D9EB0">
            <g id="triangle" transform="translate(2.525734, 3.950073) rotate(-90.000000) translate(-2.525734, -3.950073) translate(-0.474266, 1.450073)">
                <path d="M2.88775351,-0.425866237 C2.98755721,-0.684554916 3.15206769,-0.677565105 3.24917468,-0.425866237 L5.40050076,5.1503168 C5.50030446,5.40900548 5.36527212,5.61871408 5.08097484,5.61871408 L1.05595335,5.61871408 C0.779680363,5.61871408 0.639320451,5.40201566 0.736427439,5.1503168 L2.88775351,-0.425866237 Z" id="Triangle-1" transform="translate(3.069450, 2.500722) rotate(90.000000) translate(-3.069450, -2.500722) "></path>
            </g>
            <rect id="Rectangle-134" x="2.0257342" y="3.95007324" width="1" height="9" rx="0.5"></rect>
        </g>
        <g id="Group-2-Copy" transform="translate(253.780138, 62.000000)" fill="#8D9EB0">
            <g id="triangle" transform="translate(2.525734, 3.950073) rotate(-90.000000) translate(-2.525734, -3.950073) translate(-0.474266, 1.450073)">
                <path d="M2.88775351,-0.425866237 C2.98755721,-0.684554916 3.15206769,-0.677565105 3.24917468,-0.425866237 L5.40050076,5.1503168 C5.50030446,5.40900548 5.36527212,5.61871408 5.08097484,5.61871408 L1.05595335,5.61871408 C0.779680363,5.61871408 0.639320451,5.40201566 0.736427439,5.1503168 L2.88775351,-0.425866237 Z" id="Triangle-1" transform="translate(3.069450, 2.500722) rotate(90.000000) translate(-3.069450, -2.500722) "></path>
            </g>
            <rect id="Rectangle-134" x="2.0257342" y="3.95007324" width="1" height="9.42480469" rx="0.5"></rect>
        </g>
        <rect id="Rectangle-132-Copy-4" fill="#8D9EB0" x="96" y="106.167969" width="23.0456238" height="1" rx="0.5"></rect>
        <rect id="Rectangle-132-Copy-5" fill="#8D9EB0" x="85" y="123.404712" width="34.0456238" height="1" rx="0.5"></rect>
        <path d="M96.0456238,61.2166748 C96.0456238,60.9405324 96.2732588,60.7166748 96.5473925,60.7166748 L118.543447,60.7166748 C118.820566,60.7166748 119.045405,60.9486084 119.045624,61.2166748 L119.045624,61.2166748 C119.045849,61.4928172 118.818388,61.7166748 118.544245,61.7166748 L96.5474103,61.7166748 C96.2702812,61.7166748 96.0456238,61.4847412 96.0456238,61.2166748 L96.0456238,61.2166748 Z" id="Rectangle-132-Copy-3" fill="#8D9EB0"></path>
        <g id="Group-2-Copy-3" transform="translate(108.890069, 101.167969) scale(1, -1) translate(-108.890069, -101.167969) translate(105.890069, 96.167969)" fill="#8D9EB0">
            <g id="triangle" transform="translate(2.525734, 3.950073) rotate(-90.000000) translate(-2.525734, -3.950073) translate(-0.474266, 1.450073)">
                <path d="M2.88775351,-0.425866237 C2.98755721,-0.684554916 3.15206769,-0.677565105 3.24917468,-0.425866237 L5.40050076,5.1503168 C5.50030446,5.40900548 5.36527212,5.61871408 5.08097484,5.61871408 L1.05595335,5.61871408 C0.779680363,5.61871408 0.639320451,5.40201566 0.736427439,5.1503168 L2.88775351,-0.425866237 Z" id="Triangle-1" transform="translate(3.069450, 2.500722) rotate(90.000000) translate(-3.069450, -2.500722) "></path>
            </g>
            <rect id="Rectangle-134" x="2.0257342" y="3.95007324" width="1" height="9" rx="0.5"></rect>
        </g>
        <g id="Group-2-Copy-2" transform="translate(105.890069, 62.000000)" fill="#8D9EB0">
            <g id="triangle" transform="translate(2.525734, 3.950073) rotate(-90.000000) translate(-2.525734, -3.950073) translate(-0.474266, 1.450073)">
                <path d="M2.88775351,-0.425866237 C2.98755721,-0.684554916 3.15206769,-0.677565105 3.24917468,-0.425866237 L5.40050076,5.1503168 C5.50030446,5.40900548 5.36527212,5.61871408 5.08097484,5.61871408 L1.05595335,5.61871408 C0.779680363,5.61871408 0.639320451,5.40201566 0.736427439,5.1503168 L2.88775351,-0.425866237 Z" id="Triangle-1" transform="translate(3.069450, 2.500722) rotate(90.000000) translate(-3.069450, -2.500722) "></path>
            </g>
            <rect id="Rectangle-134" x="2.0257342" y="3.95007324" width="1" height="9.42480469" rx="0.5"></rect>
        </g>
        <g id="Group-17" transform="translate(63.521613, 128.059245)" fill="#8D9EB0">
            <g id="triangle" transform="translate(3.933594, 2.500000) scale(-1, 1) translate(-3.933594, -2.500000) translate(0.933594, 0.000000)">
                <path d="M2.88775351,-0.425866237 C2.98755721,-0.684554916 3.15206769,-0.677565105 3.24917468,-0.425866237 L5.40050076,5.1503168 C5.50030446,5.40900548 5.36527212,5.61871408 5.08097484,5.61871408 L1.05595335,5.61871408 C0.779680363,5.61871408 0.639320451,5.40201566 0.736427439,5.1503168 L2.88775351,-0.425866237 Z" id="Triangle-1" transform="translate(3.069450, 2.500722) rotate(90.000000) translate(-3.069450, -2.500722) "></path>
            </g>
            <rect id="Rectangle-144" x="3.93359375" y="2" width="9" height="1" rx="0.5"></rect>
        </g>
        <g id="Group-18" transform="translate(46.000000, 128.059245)" fill="#8D9EB0">
            <g id="triangle" transform="translate(9.933594, 2.500000) scale(-1, 1) rotate(180.000000) translate(-9.933594, -2.500000) translate(6.933594, 0.000000)">
                <path d="M2.88775351,-0.425866237 C2.98755721,-0.684554916 3.15206769,-0.677565105 3.24917468,-0.425866237 L5.40050076,5.1503168 C5.50030446,5.40900548 5.36527212,5.61871408 5.08097484,5.61871408 L1.05595335,5.61871408 C0.779680363,5.61871408 0.639320451,5.40201566 0.736427439,5.1503168 L2.88775351,-0.425866237 Z" id="Triangle-1" transform="translate(3.069450, 2.500722) rotate(90.000000) translate(-3.069450, -2.500722) "></path>
            </g>
            <path d="M9.44311523,3 L1.47920477,3 C1.20832097,3 0.988726259,2.76806641 0.988726259,2.5 C0.988726259,2.5 1.0024159,2 1.47920477,2 L9.44311523,2 C9.71399904,2 9.93359375,2.23193359 9.93359375,2.5 C9.93359375,2.77614237 9.71853638,3 9.44311523,3 Z" id="Rectangle-144"></path>
        </g>
        <rect id="Rectangle-93-Copy-5" fill="#8D9EB0" x="161.802465" y="100.245117" width="1" height="34.5339987" rx="0.5"></rect>
        <rect id="Rectangle-93-Copy-6" fill="#8D9EB0" x="182.933766" y="100.245117" width="1" height="34.5339987" rx="0.5"></rect>
        <rect id="Rectangle-93-Copy-9" fill="#8D9EB0" x="60.9429537" y="124.879537" width="1" height="22.6376214" rx="0.5"></rect>
        <rect id="Rectangle-93-Copy-8" fill="#8D9EB0" x="81.880645" y="124.879537" width="1" height="22.6376214" rx="0.5"></rect>
        <g id="Group-17-Copy" transform="translate(182.784485, 128.198348)" fill="#8D9EB0">
            <g id="triangle" transform="translate(4.933594, 2.500000) scale(-1, 1) translate(-4.933594, -2.500000) translate(0.933594, 0.000000)">
                <path d="M3.88775351,-0.425866237 C3.98755721,-0.684554916 4.15206769,-0.677565105 4.24917468,-0.425866237 L6.40050076,5.1503168 C6.50030446,5.40900548 6.36527212,5.61871408 6.08097484,5.61871408 L2.05595335,5.61871408 C1.77968036,5.61871408 1.63932045,5.40201566 1.73642744,5.1503168 L3.88775351,-0.425866237 Z" id="Triangle-1" transform="translate(4.069450, 2.500722) rotate(90.000000) translate(-4.069450, -2.500722) "></path>
            </g>
            <rect id="Rectangle-144" x="4.93359375" y="2" width="9" height="1" rx="0.5"></rect>
        </g>
        <g id="Group-18-Copy" transform="translate(148.000000, 128.198348)" fill="#8D9EB0">
            <g id="triangle" transform="translate(9.933594, 2.500000) scale(-1, 1) rotate(180.000000) translate(-9.933594, -2.500000) translate(6.933594, 0.000000)">
                <path d="M2.88775351,-0.425866237 C2.98755721,-0.684554916 3.15206769,-0.677565105 3.24917468,-0.425866237 L5.40050076,5.1503168 C5.50030446,5.40900548 5.36527212,5.61871408 5.08097484,5.61871408 L1.05595335,5.61871408 C0.779680363,5.61871408 0.639320451,5.40201566 0.736427439,5.1503168 L2.88775351,-0.425866237 Z" id="Triangle-1" transform="translate(3.069450, 2.500722) rotate(90.000000) translate(-3.069450, -2.500722) "></path>
            </g>
            <path d="M9.44311523,3 L1.47920477,3 C1.20832097,3 0.988726259,2.76806641 0.988726259,2.5 C0.988726259,2.5 1.0024159,2 1.47920477,2 L9.44311523,2 C9.71399904,2 9.93359375,2.23193359 9.93359375,2.5 C9.93359375,2.77614237 9.71853638,3 9.44311523,3 Z" id="Rectangle-144"></path>
        </g>
        <path d="M104.775653,141.258382 C104.775653,141.670912 104.738151,142.083443 104.700648,142.383465 L98.2689189,142.383465 C98.3064217,144.296108 99.1877374,145.139921 100.912866,145.139921 C102.000447,145.139921 102.806757,144.746141 103.575564,144.314859 L104.400626,145.702462 C103.556813,146.34001 102.206712,146.8838 100.762855,146.8838 C97.7251285,146.8838 96,144.877401 96,142.1772 L96,141.145873 C96,138.445672 97.6876257,136.40177 100.462832,136.40177 C103.181785,136.40177 104.775653,138.089396 104.775653,141.258382 Z M102.694248,140.864602 L102.694248,140.770845 C102.694248,139.045717 101.925441,138.108147 100.481584,138.108147 C99.0564776,138.108147 98.3064217,139.045717 98.2689189,140.864602 L102.694248,140.864602 Z" id="e" fill="#8D9EB0"></path>
        <polygon id="E" fill="#8D9EB0" points="259.893905 79.6018436 254.58726 79.6018436 254.58726 83.3333715 259.481375 83.3333715 259.481375 85.1522569 254.58726 85.1522569 254.58726 89.0712987 259.893905 89.0712987 259.893905 90.9089355 252.224584 90.9089355 252.224584 77.7829582 259.893905 77.7829582"></polygon>
        <path d="M175.508877,123.139102 L177.83405,123.139102 L177.83405,137.015136 L176.015165,137.015136 L175.771397,135.927555 C175.115098,136.733865 174.252534,137.258904 173.033693,137.258904 C170.70852,137.258904 169.077148,135.402516 169.077148,132.552303 L169.077148,131.502225 C169.077148,128.764521 170.727271,126.776873 173.146201,126.776873 C174.121274,126.776873 174.87133,127.076896 175.508877,127.658189 L175.508877,123.139102 Z M173.446224,135.515024 C174.365042,135.515024 174.983838,135.064991 175.508877,134.352437 L175.508877,129.364566 C175.096347,128.914533 174.402545,128.539505 173.539981,128.539505 C172.208632,128.539505 171.402322,129.55208 171.402322,131.445971 L171.402322,132.589806 C171.402322,134.577454 172.18988,135.515024 173.446224,135.515024 Z" id="d" fill="#8D9EB0"></path>
        <polygon id="L" fill="#8D9EB0" points="108.362676 89.213335 113.688072 89.213335 113.688072 91.1259774 106 91.1259774 106 78 108.362676 78"></polygon>
        <g id="Group-17-Copy" transform="translate(80.921216, 140.142785)" fill="#8D9EB0">
            <g id="triangle" transform="translate(4.933594, 2.500000) scale(-1, 1) translate(-4.933594, -2.500000) translate(0.933594, 0.000000)">
                <path d="M3.88775351,-0.425866237 C3.98755721,-0.684554916 4.15206769,-0.677565105 4.24917468,-0.425866237 L6.40050076,5.1503168 C6.50030446,5.40900548 6.36527212,5.61871408 6.08097484,5.61871408 L2.05595335,5.61871408 C1.77968036,5.61871408 1.63932045,5.40201566 1.73642744,5.1503168 L3.88775351,-0.425866237 Z" id="Triangle-1" transform="translate(4.069450, 2.500722) rotate(90.000000) translate(-4.069450, -2.500722) "></path>
            </g>
            <rect id="Rectangle-144" x="4.93359375" y="2" width="9" height="1" rx="0.5"></rect>
        </g>
        <g id="Group-18-Copy" transform="translate(48.278089, 140.142785)" fill="#8D9EB0">
            <g id="triangle" transform="translate(9.933594, 2.500000) scale(-1, 1) rotate(180.000000) translate(-9.933594, -2.500000) translate(6.933594, 0.000000)">
                <path d="M2.88775351,-0.425866237 C2.98755721,-0.684554916 3.15206769,-0.677565105 3.24917468,-0.425866237 L5.40050076,5.1503168 C5.50030446,5.40900548 5.36527212,5.61871408 5.08097484,5.61871408 L1.05595335,5.61871408 C0.779680363,5.61871408 0.639320451,5.40201566 0.736427439,5.1503168 L2.88775351,-0.425866237 Z" id="Triangle-1" transform="translate(3.069450, 2.500722) rotate(90.000000) translate(-3.069450, -2.500722) "></path>
            </g>
            <path d="M9.44311523,3 L1.47920477,3 C1.20832097,3 0.988726259,2.76806641 0.988726259,2.5 C0.988726259,2.5 1.0024159,2 1.47920477,2 L9.44311523,2 C9.71399904,2 9.93359375,2.23193359 9.93359375,2.5 C9.93359375,2.77614237 9.71853638,3 9.44311523,3 Z" id="Rectangle-144"></path>
        </g>
        <path d="M122.362676,119.381304 L127.688072,119.381304 L127.688072,121.293946 L120,121.293946 L120,108.167969 L122.362676,108.167969 L122.362676,119.381304 Z M133.96979,119.512563 L136.276212,119.512563 L136.276212,121.293946 L129.00067,121.293946 L129.00067,119.512563 L131.68212,119.512563 L131.68212,110.718159 L129.413201,111.843242 L128.550637,110.305628 L132.22591,108.167969 L133.96979,108.167969 L133.96979,119.512563 Z" id="L1" fill="#8D9EB0"></path>
        <g id="Group-2" transform="translate(108.890069, 119.904712) scale(1, -1) translate(-108.890069, -119.904712) translate(105.890069, 114.904712)" fill="#8D9EB0">
            <g id="triangle" transform="translate(2.525734, 3.950073) rotate(-90.000000) translate(-2.525734, -3.950073) translate(-0.474266, 1.450073)">
                <path d="M2.88775351,-0.425866237 C2.98755721,-0.684554916 3.15206769,-0.677565105 3.24917468,-0.425866237 L5.40050076,5.1503168 C5.50030446,5.40900548 5.36527212,5.61871408 5.08097484,5.61871408 L1.05595335,5.61871408 C0.779680363,5.61871408 0.639320451,5.40201566 0.736427439,5.1503168 L2.88775351,-0.425866237 Z" id="Triangle-1" transform="translate(3.069450, 2.500722) rotate(90.000000) translate(-3.069450, -2.500722) "></path>
            </g>
            <rect id="Rectangle-134" x="2.0257342" y="3.95007324" width="1" height="5.39001465" rx="0.5"></rect>
        </g>
        <g id="Group-2-Copy" transform="translate(105.890069, 105.730957)" fill="#8D9EB0">
            <g id="triangle" transform="translate(2.525734, 3.950073) rotate(-90.000000) translate(-2.525734, -3.950073) translate(-0.474266, 1.450073)">
                <path d="M2.88775351,-0.425866237 C2.98755721,-0.684554916 3.15206769,-0.677565105 3.24917468,-0.425866237 L5.40050076,5.1503168 C5.50030446,5.40900548 5.36527212,5.61871408 5.08097484,5.61871408 L1.05595335,5.61871408 C0.779680363,5.61871408 0.639320451,5.40201566 0.736427439,5.1503168 L2.88775351,-0.425866237 Z" id="Triangle-1" transform="translate(3.069450, 2.500722) rotate(90.000000) translate(-3.069450, -2.500722) "></path>
            </g>
            <rect id="Rectangle-134" x="2.0257342" y="3.95007324" width="1" height="5.39001465" rx="0.5"></rect>
        </g>
    </g>
</svg>