<?xml version="1.0" encoding="UTF-8"?>
<svg width="200px" height="150px" viewBox="0 0 200 150" version="1.1" xmlns="http://www.w3.org/2000/svg" xmlns:xlink="http://www.w3.org/1999/xlink">
    <!-- Generator: Sketch 50.2 (55047) - http://www.bohemiancoding.com/sketch -->
    <title>Header-Female-Straight</title>
    <desc>Created with Sketch.</desc>
    <defs></defs>
    <g id="Header-Female-Straight" stroke="none" stroke-width="1" fill="none" fill-rule="evenodd">
        <g id="Group" transform="translate(103.000000, 53.000000)">
            <rect id="Rectangle-18" stroke="#505050" fill="#585858" x="0.5" y="0.774414062" width="71.9306641" height="36.7299995"></rect>
            <g id="female-header-hole" transform="translate(4.000000, 4.000000)">
                <g id="Group-3" transform="translate(0.462502, 0.462502)">
                    <polygon id="Rectangle-19-Copy-8" fill="#505050" points="8.7166643 4.35833215 12.2147344 0.860262038 12.2147344 12.2147344 8.7166643 8.7166643"></polygon>
                    <polygon id="Rectangle-19-Copy-9" fill="#666666" points="4.35833215 8.7166643 8.7166643 8.7166643 12.2147344 12.2147344 0.860771597 12.2147344"></polygon>
                    <polygon id="Rectangle-19-Copy-10" fill="#505050" points="0.860262038 0.860262038 4.35833215 4.35833215 4.35833215 8.7166643 0.860771597 12.2147344"></polygon>
                    <polygon id="Rectangle-19-Copy-11" fill="#666666" points="0.860262038 0.860262038 12.2147344 0.860262038 8.7166643 4.35833215 4.35833215 4.35833215"></polygon>
                    <polygon id="Rectangle-19" fill="#000000" fill-rule="nonzero" points="4.35833215 4.35833215 4.35833215 8.7166643 8.7166643 8.7166643 8.7166643 4.35833215"></polygon>
                    <rect id="Rectangle" stroke="#4F4F4F" x="1.03749822" y="1.03749822" width="11" height="11"></rect>
                </g>
            </g>
            <g id="female-header-hole" transform="translate(4.000000, 20.000000)">
                <g id="Group-3" transform="translate(0.462502, 0.462502)">
                    <polygon id="Rectangle-19-Copy-8" fill="#505050" points="8.7166643 4.35833215 12.2147344 0.860262038 12.2147344 12.2147344 8.7166643 8.7166643"></polygon>
                    <polygon id="Rectangle-19-Copy-9" fill="#666666" points="4.35833215 8.7166643 8.7166643 8.7166643 12.2147344 12.2147344 0.860771597 12.2147344"></polygon>
                    <polygon id="Rectangle-19-Copy-10" fill="#505050" points="0.860262038 0.860262038 4.35833215 4.35833215 4.35833215 8.7166643 0.860771597 12.2147344"></polygon>
                    <polygon id="Rectangle-19-Copy-11" fill="#666666" points="0.860262038 0.860262038 12.2147344 0.860262038 8.7166643 4.35833215 4.35833215 4.35833215"></polygon>
                    <polygon id="Rectangle-19" fill="#000000" fill-rule="nonzero" points="4.35833215 4.35833215 4.35833215 8.7166643 8.7166643 8.7166643 8.7166643 4.35833215"></polygon>
                    <rect id="Rectangle" stroke="#4F4F4F" x="1.03749822" y="1.03749822" width="11" height="11"></rect>
                </g>
            </g>
            <g id="female-header-hole" transform="translate(21.150391, 4.000000)">
                <g id="Group-3" transform="translate(0.462502, 0.462502)">
                    <polygon id="Rectangle-19-Copy-8" fill="#505050" points="8.7166643 4.35833215 12.2147344 0.860262038 12.2147344 12.2147344 8.7166643 8.7166643"></polygon>
                    <polygon id="Rectangle-19-Copy-9" fill="#666666" points="4.35833215 8.7166643 8.7166643 8.7166643 12.2147344 12.2147344 0.860771597 12.2147344"></polygon>
                    <polygon id="Rectangle-19-Copy-10" fill="#505050" points="0.860262038 0.860262038 4.35833215 4.35833215 4.35833215 8.7166643 0.860771597 12.2147344"></polygon>
                    <polygon id="Rectangle-19-Copy-11" fill="#666666" points="0.860262038 0.860262038 12.2147344 0.860262038 8.7166643 4.35833215 4.35833215 4.35833215"></polygon>
                    <polygon id="Rectangle-19" fill="#000000" fill-rule="nonzero" points="4.35833215 4.35833215 4.35833215 8.7166643 8.7166643 8.7166643 8.7166643 4.35833215"></polygon>
                    <rect id="Rectangle" stroke="#4F4F4F" x="1.03749822" y="1.03749822" width="11" height="11"></rect>
                </g>
            </g>
            <g id="female-header-hole" transform="translate(21.150391, 20.000000)">
                <g id="Group-3" transform="translate(0.462502, 0.462502)">
                    <polygon id="Rectangle-19-Copy-8" fill="#505050" points="8.7166643 4.35833215 12.2147344 0.860262038 12.2147344 12.2147344 8.7166643 8.7166643"></polygon>
                    <polygon id="Rectangle-19-Copy-9" fill="#666666" points="4.35833215 8.7166643 8.7166643 8.7166643 12.2147344 12.2147344 0.860771597 12.2147344"></polygon>
                    <polygon id="Rectangle-19-Copy-10" fill="#505050" points="0.860262038 0.860262038 4.35833215 4.35833215 4.35833215 8.7166643 0.860771597 12.2147344"></polygon>
                    <polygon id="Rectangle-19-Copy-11" fill="#666666" points="0.860262038 0.860262038 12.2147344 0.860262038 8.7166643 4.35833215 4.35833215 4.35833215"></polygon>
                    <polygon id="Rectangle-19" fill="#000000" fill-rule="nonzero" points="4.35833215 4.35833215 4.35833215 8.7166643 8.7166643 8.7166643 8.7166643 4.35833215"></polygon>
                    <rect id="Rectangle" stroke="#4F4F4F" x="1.03749822" y="1.03749822" width="11" height="11"></rect>
                </g>
            </g>
            <g id="female-header-hole" transform="translate(38.150391, 4.000000)">
                <g id="Group-3" transform="translate(0.462502, 0.462502)">
                    <polygon id="Rectangle-19-Copy-8" fill="#505050" points="8.7166643 4.35833215 12.2147344 0.860262038 12.2147344 12.2147344 8.7166643 8.7166643"></polygon>
                    <polygon id="Rectangle-19-Copy-9" fill="#666666" points="4.35833215 8.7166643 8.7166643 8.7166643 12.2147344 12.2147344 0.860771597 12.2147344"></polygon>
                    <polygon id="Rectangle-19-Copy-10" fill="#505050" points="0.860262038 0.860262038 4.35833215 4.35833215 4.35833215 8.7166643 0.860771597 12.2147344"></polygon>
                    <polygon id="Rectangle-19-Copy-11" fill="#666666" points="0.860262038 0.860262038 12.2147344 0.860262038 8.7166643 4.35833215 4.35833215 4.35833215"></polygon>
                    <polygon id="Rectangle-19" fill="#000000" fill-rule="nonzero" points="4.35833215 4.35833215 4.35833215 8.7166643 8.7166643 8.7166643 8.7166643 4.35833215"></polygon>
                    <rect id="Rectangle" stroke="#4F4F4F" x="1.03749822" y="1.03749822" width="11" height="11"></rect>
                </g>
            </g>
            <g id="female-header-hole" transform="translate(38.150391, 20.000000)">
                <g id="Group-3" transform="translate(0.462502, 0.462502)">
                    <polygon id="Rectangle-19-Copy-8" fill="#505050" points="8.7166643 4.35833215 12.2147344 0.860262038 12.2147344 12.2147344 8.7166643 8.7166643"></polygon>
                    <polygon id="Rectangle-19-Copy-9" fill="#666666" points="4.35833215 8.7166643 8.7166643 8.7166643 12.2147344 12.2147344 0.860771597 12.2147344"></polygon>
                    <polygon id="Rectangle-19-Copy-10" fill="#505050" points="0.860262038 0.860262038 4.35833215 4.35833215 4.35833215 8.7166643 0.860771597 12.2147344"></polygon>
                    <polygon id="Rectangle-19-Copy-11" fill="#666666" points="0.860262038 0.860262038 12.2147344 0.860262038 8.7166643 4.35833215 4.35833215 4.35833215"></polygon>
                    <polygon id="Rectangle-19" fill="#000000" fill-rule="nonzero" points="4.35833215 4.35833215 4.35833215 8.7166643 8.7166643 8.7166643 8.7166643 4.35833215"></polygon>
                    <rect id="Rectangle" stroke="#4F4F4F" x="1.03749822" y="1.03749822" width="11" height="11"></rect>
                </g>
            </g>
            <g id="female-header-hole" transform="translate(55.150391, 4.000000)">
                <g id="Group-3" transform="translate(0.462502, 0.462502)">
                    <polygon id="Rectangle-19-Copy-8" fill="#505050" points="8.7166643 4.35833215 12.2147344 0.860262038 12.2147344 12.2147344 8.7166643 8.7166643"></polygon>
                    <polygon id="Rectangle-19-Copy-9" fill="#666666" points="4.35833215 8.7166643 8.7166643 8.7166643 12.2147344 12.2147344 0.860771597 12.2147344"></polygon>
                    <polygon id="Rectangle-19-Copy-10" fill="#505050" points="0.860262038 0.860262038 4.35833215 4.35833215 4.35833215 8.7166643 0.860771597 12.2147344"></polygon>
                    <polygon id="Rectangle-19-Copy-11" fill="#666666" points="0.860262038 0.860262038 12.2147344 0.860262038 8.7166643 4.35833215 4.35833215 4.35833215"></polygon>
                    <polygon id="Rectangle-19" fill="#000000" fill-rule="nonzero" points="4.35833215 4.35833215 4.35833215 8.7166643 8.7166643 8.7166643 8.7166643 4.35833215"></polygon>
                    <rect id="Rectangle" stroke="#4F4F4F" x="1.03749822" y="1.03749822" width="11" height="11"></rect>
                </g>
            </g>
            <g id="female-header-hole" transform="translate(55.150391, 20.000000)">
                <g id="Group-3" transform="translate(0.462502, 0.462502)">
                    <polygon id="Rectangle-19-Copy-8" fill="#505050" points="8.7166643 4.35833215 12.2147344 0.860262038 12.2147344 12.2147344 8.7166643 8.7166643"></polygon>
                    <polygon id="Rectangle-19-Copy-9" fill="#666666" points="4.35833215 8.7166643 8.7166643 8.7166643 12.2147344 12.2147344 0.860771597 12.2147344"></polygon>
                    <polygon id="Rectangle-19-Copy-10" fill="#505050" points="0.860262038 0.860262038 4.35833215 4.35833215 4.35833215 8.7166643 0.860771597 12.2147344"></polygon>
                    <polygon id="Rectangle-19-Copy-11" fill="#666666" points="0.860262038 0.860262038 12.2147344 0.860262038 8.7166643 4.35833215 4.35833215 4.35833215"></polygon>
                    <polygon id="Rectangle-19" fill="#000000" fill-rule="nonzero" points="4.35833215 4.35833215 4.35833215 8.7166643 8.7166643 8.7166643 8.7166643 4.35833215"></polygon>
                    <rect id="Rectangle" stroke="#4F4F4F" x="1.03749822" y="1.03749822" width="11" height="11"></rect>
                </g>
            </g>
        </g>
        <g id="Group-2" transform="translate(21.000000, 52.000000)">
            <g id="Group-5" transform="translate(8.791255, 31.000000)" fill="#D8D8D8" fill-rule="nonzero" stroke="#979797">
                <g id="Group-4">
                    <path d="M3.58984375,20.3076172 C3.58984375,21.1360443 2.91827087,21.8076172 2.08984375,21.8076172 C1.26141663,21.8076172 0.58984375,21.1360443 0.58984375,20.3076172 L0.58984375,1.94238281 C0.58984375,1.11395569 1.26141663,0.442382812 2.08984375,0.442382812 C2.91827087,0.442382812 3.58984375,1.11395569 3.58984375,1.94238281 L3.58984375,20.3076172 Z" id="Path-14-Copy-2"></path>
                </g>
                <path d="M20.6503906,20.3076172 C20.6503906,21.1360443 19.9788177,21.8076172 19.1503906,21.8076172 C18.3219635,21.8076172 17.6503906,21.1360443 17.6503906,20.3076172 L17.6503906,2.40966797 C17.6503906,1.58124084 18.3219635,0.909667969 19.1503906,0.909667969 C19.9788177,0.909667969 20.6503906,1.58124084 20.6503906,2.40966797 L20.6503906,20.3076172 Z" id="Path-14-Copy-3"></path>
            </g>
            <rect id="Rectangle-17" stroke="#505050" fill="#585858" x="0.926254848" y="1.28601204" width="36.7299995" height="37"></rect>
        </g>
    </g>
</svg>