<?xml version="1.0" encoding="UTF-8" standalone="no"?>
<svg width="290px" height="175px" viewBox="0 0 290 175" version="1.1" xmlns="http://www.w3.org/2000/svg" xmlns:xlink="http://www.w3.org/1999/xlink">
    <!-- Generator: Sketch 49.3 (51167) - http://www.bohemiancoding.com/sketch -->
    <title>Header-Male-Straight-Labeled</title>
    <desc>Created with Sketch.</desc>
    <defs>
        <rect id="path-1" x="0" y="0.336614583" width="89.7047168" height="46.2821328"></rect>
        <rect id="path-2" x="0.524293463" y="45.3866667" width="46.4078994" height="20.8533333"></rect>
    </defs>
    <g stroke="none" stroke-width="1" fill="none" fill-rule="evenodd">
        <g transform="translate(22.138021, -4.646484)">
            <g transform="translate(126.690000, 65.013333)">
                <g>
                    <use fill="#585858" fill-rule="evenodd" xlink:href="#path-1"></use>
                    <rect stroke="#505050" stroke-width="1" x="0.5" y="0.836614583" width="88.7047168" height="45.2821328"></rect>
                </g>
                <g transform="translate(9.797358, 9.368307)" fill="#D8D8D8" stroke="#979797">
                    <rect x="0" y="0" width="7.38" height="7.36"></rect>
                    <rect x="0" y="20.8323698" width="7.38" height="7.36"></rect>
                    <rect x="20.8869775" y="0" width="7.38" height="7.36"></rect>
                    <rect x="20.8869775" y="20.8323698" width="7.38" height="7.36"></rect>
                    <rect x="41.7739551" y="0" width="7.38" height="7.36"></rect>
                    <rect x="41.7739551" y="20.8323698" width="7.38" height="7.36"></rect>
                    <rect x="62.6609326" y="0" width="7.38" height="7.36"></rect>
                    <rect x="62.6609326" y="20.8323698" width="7.38" height="7.36"></rect>
                </g>
            </g>
            <g transform="translate(25.830000, 39.253333)">
                <g transform="translate(10.813243, 0.000000)" fill="#D8D8D8" fill-rule="nonzero" stroke="#979797">
                    <g>
                        <path d="M4.41550781,46.2132292 C4.41550781,47.2294331 3.58947318,48.0532292 2.57050781,48.0532292 C1.55154245,48.0532292 0.725507813,47.2294331 0.725507813,46.2132292 L0.725507813,2.94845116 C0.725507813,1.93224722 1.55154245,1.10845116 2.57050781,1.10845116 C3.58947318,1.10845116 4.41550781,1.93224722 4.41550781,2.94845116 L4.41550781,46.2132292 Z"></path>
                        <path d="M4.41550781,87.4706771 C4.41550781,88.486881 3.58947318,89.3106771 2.57050781,89.3106771 C1.55154245,89.3106771 0.725507813,88.486881 0.725507813,87.4706771 L0.725507813,64.9426562 C0.725507813,63.9264523 1.55154245,63.1026562 2.57050781,63.1026562 C3.58947318,63.1026562 4.41550781,63.9264523 4.41550781,64.9426562 L4.41550781,87.4706771 Z"></path>
                    </g>
                    <path d="M25.3999805,46.2132292 C25.3999805,47.2294331 24.5739458,48.0532292 23.5549805,48.0532292 C22.5360151,48.0532292 21.7099805,47.2294331 21.7099805,46.2132292 L21.7099805,2.94845116 C21.7099805,1.93224722 22.5360151,1.10845116 23.5549805,1.10845116 C24.5739458,1.10845116 25.3999805,1.93224722 25.3999805,2.94845116 L25.3999805,46.2132292 Z"></path>
                    <path d="M25.3999805,87.4706771 C25.3999805,88.486881 24.5739458,89.3106771 23.5549805,89.3106771 C22.5360151,89.3106771 21.7099805,88.486881 21.7099805,87.4706771 L21.7099805,65.5158594 C21.7099805,64.4996554 22.5360151,63.6758594 23.5549805,63.6758594 C24.5739458,63.6758594 25.3999805,64.4996554 25.3999805,65.5158594 L25.3999805,87.4706771 Z"></path>
                </g>
                <g>
                    <use fill="#585858" fill-rule="evenodd" xlink:href="#path-2"></use>
                    <rect stroke="#505050" stroke-width="1" x="1.02429346" y="45.8866667" width="45.4078994" height="19.8533333"></rect>
                </g>
            </g>
        </g>
        <g transform="translate(148.000000, 43.378035)" fill="#8D9EB0">
            <g transform="translate(3.832124, 3.275391) scale(-1, 1) translate(-3.832124, -3.275391) translate(0.832124, 0.775391)">
                <path d="M2.88775351,-0.425866237 C2.98755721,-0.684554916 3.15206769,-0.677565105 3.24917468,-0.425866237 L5.40050076,5.1503168 C5.50030446,5.40900548 5.36527212,5.61871408 5.08097484,5.61871408 L1.05595335,5.61871408 C0.779680363,5.61871408 0.639320451,5.40201566 0.736427439,5.1503168 L2.88775351,-0.425866237 Z" transform="translate(3.069450, 2.500722) rotate(90.000000) translate(-3.069450, -2.500722) "></path>
            </g>
            <rect x="3.68472202" y="2.66483938" width="33.0591745" height="1" rx="0.5"></rect>
        </g>
        <g transform="translate(215.474839, 46.378035) scale(-1, 1) translate(-215.474839, -46.378035) translate(192.974839, 43.378035)" fill="#8D9EB0">
            <g transform="translate(3.832124, 3.275391) scale(-1, 1) translate(-3.832124, -3.275391) translate(0.832124, 0.775391)">
                <path d="M2.88775351,-0.425866237 C2.98755721,-0.684554916 3.15206769,-0.677565105 3.24917468,-0.425866237 L5.40050076,5.1503168 C5.50030446,5.40900548 5.36527212,5.61871408 5.08097484,5.61871408 L1.05595335,5.61871408 C0.779680363,5.61871408 0.639320451,5.40201566 0.736427439,5.1503168 L2.88775351,-0.425866237 Z" transform="translate(3.069450, 2.500722) rotate(90.000000) translate(-3.069450, -2.500722) "></path>
            </g>
            <rect x="3.68472202" y="2.66483938" width="33" height="1" rx="0.5"></rect>
        </g>
        <path d="M192.4498,41.005354 C196.012565,41.005354 197.793948,43.1055104 197.793948,46.2557449 L197.793948,48.5809181 C197.793948,51.9936722 195.768797,54.1313314 191.981015,54.1313314 L188.15573,54.1313314 L188.15573,41.005354 L192.4498,41.005354 Z M195.431272,48.6184209 L195.431272,46.1994907 C195.431272,44.0618316 194.418696,42.8242394 192.337291,42.8242394 L190.518406,42.8242394 L190.518406,52.3124459 L191.999766,52.3124459 C194.287436,52.3124459 195.431272,51.1123566 195.431272,48.6184209 Z" fill="#8D9EB0"></path>
        <rect fill="#8D9EB0" x="148" y="40.1363396" width="1" height="19.6241585" rx="0.5"></rect>
        <rect fill="#8D9EB0" x="237" y="40.1363396" width="1" height="19.6241585" rx="0.5"></rect>
        <path d="M41.3124865,126.215379 C43.6001568,126.215379 45.1002685,128.053016 45.1002685,130.940731 L45.1002685,131.953306 C45.1002685,134.709761 43.3188859,136.697409 41.0312155,136.697409 C39.962386,136.697409 39.0998217,136.30363 38.4060201,135.591077 L38.2185061,136.453641 L36.3996207,136.453641 L36.3996207,122.577608 L38.7247938,122.577608 L38.7247938,127.246705 C39.3623413,126.590407 40.2249055,126.215379 41.3124865,126.215379 Z M42.7750954,132.028312 L42.7750954,130.865725 C42.7750954,128.91558 42.1187965,127.97801 40.8437016,127.97801 C39.9436346,127.97801 39.2310815,128.409292 38.7247938,129.04684 L38.7247938,134.109716 C39.2310815,134.653507 39.868629,134.953529 40.6374362,134.953529 C41.9312826,134.953529 42.7750954,133.940954 42.7750954,132.028312 Z" fill="#8D9EB0"></path>
        <rect fill="#8D9EB0" x="59.0914647" y="125.165403" width="1" height="10.8301346" rx="0.5"></rect>
        <rect fill="#8D9EB0" x="63.1773559" y="125.165403" width="1" height="10.8301346" rx="0.5"></rect>
        <rect fill="#8D9EB0" x="239" y="106.167969" width="23.0456238" height="1" rx="0.5"></rect>
        <rect fill="#8D9EB0" x="126.39714" y="93.5582284" width="30.6905061" height="1" rx="0.5"></rect>
        <path d="M239.045624,61.2166748 C239.045624,60.9405324 239.273259,60.7166748 239.547392,60.7166748 L261.543447,60.7166748 C261.820566,60.7166748 262.045405,60.9486084 262.045624,61.2166748 L262.045624,61.2166748 C262.045849,61.4928172 261.818388,61.7166748 261.544245,61.7166748 L239.54741,61.7166748 C239.270281,61.7166748 239.045624,61.4847412 239.045624,61.2166748 L239.045624,61.2166748 Z" fill="#8D9EB0"></path>
        <path d="M126.39714,72.7280273 C126.39714,72.451885 126.626526,72.2280273 126.904217,72.2280273 L156.580026,72.2280273 C156.860076,72.2280273 157.087355,72.4599609 157.087646,72.7280273 L157.087646,72.7280273 C157.087947,73.0041697 156.858796,73.2280273 156.581096,73.2280273 L126.904235,73.2280273 C126.624174,73.2280273 126.39714,72.9960938 126.39714,72.7280273 L126.39714,72.7280273 Z" fill="#8D9EB0"></path>
        <g transform="translate(257.893905, 101.167969) scale(1, -1) translate(-257.893905, -101.167969) translate(254.893905, 96.167969)" fill="#8D9EB0">
            <g transform="translate(2.525734, 3.950073) rotate(-90.000000) translate(-2.525734, -3.950073) translate(-0.474266, 1.450073)">
                <path d="M2.88775351,-0.425866237 C2.98755721,-0.684554916 3.15206769,-0.677565105 3.24917468,-0.425866237 L5.40050076,5.1503168 C5.50030446,5.40900548 5.36527212,5.61871408 5.08097484,5.61871408 L1.05595335,5.61871408 C0.779680363,5.61871408 0.639320451,5.40201566 0.736427439,5.1503168 L2.88775351,-0.425866237 Z" transform="translate(3.069450, 2.500722) rotate(90.000000) translate(-3.069450, -2.500722) "></path>
            </g>
            <rect x="2.0257342" y="3.95007324" width="1" height="9" rx="0.5"></rect>
        </g>
        <g transform="translate(254.780138, 62.000000)" fill="#8D9EB0">
            <g transform="translate(2.525734, 3.950073) rotate(-90.000000) translate(-2.525734, -3.950073) translate(-0.474266, 1.450073)">
                <path d="M2.88775351,-0.425866237 C2.98755721,-0.684554916 3.15206769,-0.677565105 3.24917468,-0.425866237 L5.40050076,5.1503168 C5.50030446,5.40900548 5.36527212,5.61871408 5.08097484,5.61871408 L1.05595335,5.61871408 C0.779680363,5.61871408 0.639320451,5.40201566 0.736427439,5.1503168 L2.88775351,-0.425866237 Z" transform="translate(3.069450, 2.500722) rotate(90.000000) translate(-3.069450, -2.500722) "></path>
            </g>
            <rect x="2.0257342" y="3.95007324" width="1" height="9.42480469" rx="0.5"></rect>
        </g>
        <g transform="translate(133.614881, 68.228027) scale(1, -1) translate(-133.614881, -68.228027) translate(130.614881, 63.228027)" fill="#8D9EB0">
            <g transform="translate(2.525734, 3.950073) rotate(-90.000000) translate(-2.525734, -3.950073) translate(-0.474266, 1.450073)">
                <path d="M2.88775351,-0.425866237 C2.98755721,-0.684554916 3.15206769,-0.677565105 3.24917468,-0.425866237 L5.40050076,5.1503168 C5.50030446,5.40900548 5.36527212,5.61871408 5.08097484,5.61871408 L1.05595335,5.61871408 C0.779680363,5.61871408 0.639320451,5.40201566 0.736427439,5.1503168 L2.88775351,-0.425866237 Z" transform="translate(3.069450, 2.500722) rotate(90.000000) translate(-3.069450, -2.500722) "></path>
            </g>
            <rect x="2.0257342" y="3.95007324" width="1" height="5.39001465" rx="0.5"></rect>
        </g>
        <g transform="translate(130.847214, 93.558228)" fill="#8D9EB0">
            <g transform="translate(2.525734, 3.950073) rotate(-90.000000) translate(-2.525734, -3.950073) translate(-0.474266, 1.450073)">
                <path d="M2.88775351,-0.425866237 C2.98755721,-0.684554916 3.15206769,-0.677565105 3.24917468,-0.425866237 L5.40050076,5.1503168 C5.50030446,5.40900548 5.36527212,5.61871408 5.08097484,5.61871408 L1.05595335,5.61871408 C0.779680363,5.61871408 0.639320451,5.40201566 0.736427439,5.1503168 L2.88775351,-0.425866237 Z" transform="translate(3.069450, 2.500722) rotate(90.000000) translate(-3.069450, -2.500722) "></path>
            </g>
            <rect x="2.0257342" y="3.95007324" width="1" height="5.39001465" rx="0.5"></rect>
        </g>
        <g transform="translate(63.839343, 128.260498)" fill="#8D9EB0">
            <g transform="translate(3.933594, 2.500000) scale(-1, 1) translate(-3.933594, -2.500000) translate(0.933594, 0.000000)">
                <path d="M2.88775351,-0.425866237 C2.98755721,-0.684554916 3.15206769,-0.677565105 3.24917468,-0.425866237 L5.40050076,5.1503168 C5.50030446,5.40900548 5.36527212,5.61871408 5.08097484,5.61871408 L1.05595335,5.61871408 C0.779680363,5.61871408 0.639320451,5.40201566 0.736427439,5.1503168 L2.88775351,-0.425866237 Z" transform="translate(3.069450, 2.500722) rotate(90.000000) translate(-3.069450, -2.500722) "></path>
            </g>
            <rect x="3.93359375" y="2" width="9" height="1" rx="0.5"></rect>
        </g>
        <g transform="translate(45.100269, 128.136197)" fill="#8D9EB0">
            <g transform="translate(9.933594, 2.500000) scale(-1, 1) rotate(180.000000) translate(-9.933594, -2.500000) translate(6.933594, 0.000000)">
                <path d="M2.88775351,-0.425866237 C2.98755721,-0.684554916 3.15206769,-0.677565105 3.24917468,-0.425866237 L5.40050076,5.1503168 C5.50030446,5.40900548 5.36527212,5.61871408 5.08097484,5.61871408 L1.05595335,5.61871408 C0.779680363,5.61871408 0.639320451,5.40201566 0.736427439,5.1503168 L2.88775351,-0.425866237 Z" transform="translate(3.069450, 2.500722) rotate(90.000000) translate(-3.069450, -2.500722) "></path>
            </g>
            <path d="M9.44311523,3 L1.47920477,3 C1.20832097,3 0.988726259,2.76806641 0.988726259,2.5 C0.988726259,2.5 1.0024159,2 1.47920477,2 L9.44311523,2 C9.71399904,2 9.93359375,2.23193359 9.93359375,2.5 C9.93359375,2.77614237 9.71853638,3 9.44311523,3 Z"></path>
        </g>
        <rect fill="#8D9EB0" x="161.132554" y="99.165516" width="1" height="38.0239371" rx="0.5"></rect>
        <rect fill="#8D9EB0" x="182.122498" y="99.165516" width="1" height="38.0239371" rx="0.5"></rect>
        <g transform="translate(181.784485, 128.384799)" fill="#8D9EB0">
            <g transform="translate(4.933594, 2.500000) scale(-1, 1) translate(-4.933594, -2.500000) translate(0.933594, 0.000000)">
                <path d="M3.88775351,-0.425866237 C3.98755721,-0.684554916 4.15206769,-0.677565105 4.24917468,-0.425866237 L6.40050076,5.1503168 C6.50030446,5.40900548 6.36527212,5.61871408 6.08097484,5.61871408 L2.05595335,5.61871408 C1.77968036,5.61871408 1.63932045,5.40201566 1.73642744,5.1503168 L3.88775351,-0.425866237 Z" transform="translate(4.069450, 2.500722) rotate(90.000000) translate(-4.069450, -2.500722) "></path>
            </g>
            <rect x="4.93359375" y="2" width="9" height="1" rx="0.5"></rect>
        </g>
        <g transform="translate(147.141357, 128.260498)" fill="#8D9EB0">
            <g transform="translate(9.933594, 2.500000) scale(-1, 1) rotate(180.000000) translate(-9.933594, -2.500000) translate(6.933594, 0.000000)">
                <path d="M2.88775351,-0.425866237 C2.98755721,-0.684554916 3.15206769,-0.677565105 3.24917468,-0.425866237 L5.40050076,5.1503168 C5.50030446,5.40900548 5.36527212,5.61871408 5.08097484,5.61871408 L1.05595335,5.61871408 C0.779680363,5.61871408 0.639320451,5.40201566 0.736427439,5.1503168 L2.88775351,-0.425866237 Z" transform="translate(3.069450, 2.500722) rotate(90.000000) translate(-3.069450, -2.500722) "></path>
            </g>
            <path d="M9.44311523,3 L1.47920477,3 C1.20832097,3 0.988726259,2.76806641 0.988726259,2.5 C0.988726259,2.5 1.0024159,2 1.47920477,2 L9.44311523,2 C9.71399904,2 9.93359375,2.23193359 9.93359375,2.5 C9.93359375,2.77614237 9.71853638,3 9.44311523,3 Z"></path>
        </g>
        <path d="M138.002708,82.9189415 C138.002708,83.3314722 137.965205,83.744003 137.927703,84.0440253 L131.495974,84.0440253 C131.533476,85.9566677 132.414792,86.8004805 134.13992,86.8004805 C135.227501,86.8004805 136.033811,86.4067012 136.802619,85.9754191 L137.62768,87.3630224 C136.783867,88.0005699 135.433767,88.5443604 133.989909,88.5443604 C130.952183,88.5443604 129.227055,86.537961 129.227055,83.8377599 L129.227055,82.8064331 C129.227055,80.1062321 130.91468,78.0623299 133.689887,78.0623299 C136.408839,78.0623299 138.002708,79.7499555 138.002708,82.9189415 Z M135.921303,82.5251622 L135.921303,82.4314052 C135.921303,80.7062768 135.152496,79.7687069 133.708638,79.7687069 C132.283532,79.7687069 131.533476,80.7062768 131.495974,82.5251622 L135.921303,82.5251622 Z" fill="#8D9EB0"></path>
        <polygon fill="#8D9EB0" points="260.893905 79.6018436 255.58726 79.6018436 255.58726 83.3333715 260.481375 83.3333715 260.481375 85.1522569 255.58726 85.1522569 255.58726 89.0712987 260.893905 89.0712987 260.893905 90.9089355 253.224584 90.9089355 253.224584 77.7829582 260.893905 77.7829582"></polygon>
        <rect fill="#8D9EB0" x="29.6599768" y="79.989502" width="17.0965082" height="1" rx="0.5"></rect>
        <rect fill="#8D9EB0" x="32.756485" y="99.989502" width="14" height="1" rx="0.5"></rect>
        <rect fill="#8D9EB0" x="98.4040419" y="99.989502" width="17.946441" height="1" rx="0.5"></rect>
        <path d="M29.6599768,35.8376176 C29.6599768,35.5614752 29.8872861,35.3376176 30.15012,35.3376176 L57.4089767,35.3376176 C57.6796753,35.3376176 57.8993522,35.5695512 57.8996206,35.8376176 L57.8996206,35.8376176 C57.8998971,36.11376 57.6728038,36.3376176 57.4099607,36.3376176 L30.1501373,36.3376176 C29.8794291,36.3376176 29.6599768,36.105684 29.6599768,35.8376176 L29.6599768,35.8376176 Z" fill="#8D9EB0"></path>
        <path d="M85.6599768,123.677485 C85.6599768,123.401342 85.8893628,123.177485 86.1670529,123.177485 L115.842862,123.177485 C116.122913,123.177485 116.350191,123.409418 116.350483,123.677485 L116.350483,123.677485 C116.350783,123.953627 116.121633,124.177485 115.843933,124.177485 L86.1670709,124.177485 C85.8870105,124.177485 85.6599768,123.945551 85.6599768,123.677485 L85.6599768,123.677485 Z" fill="#8D9EB0"></path>
        <g transform="translate(38.501984, 74.599336) scale(1, -1) translate(-38.501984, -74.599336) translate(35.501984, 68.599336)" fill="#8D9EB0">
            <g transform="translate(2.525734, 3.950073) rotate(-90.000000) translate(-2.525734, -3.950073) translate(-0.474266, 1.450073)">
                <path d="M2.88775351,-0.425866237 C2.98755721,-0.684554916 3.15206769,-0.677565105 3.24917468,-0.425866237 L5.40050076,5.1503168 C5.50030446,5.40900548 5.36527212,5.61871408 5.08097484,5.61871408 L1.05595335,5.61871408 C0.779680363,5.61871408 0.639320451,5.40201566 0.736427439,5.1503168 L2.88775351,-0.425866237 Z" transform="translate(3.069450, 2.500722) rotate(90.000000) translate(-3.069450, -2.500722) "></path>
            </g>
            <rect x="2.0257342" y="3.95007324" width="1" height="8" rx="0.5"></rect>
        </g>
        <g transform="translate(35.388217, 36.620943)" fill="#8D9EB0">
            <g transform="translate(2.525734, 3.950073) rotate(-90.000000) translate(-2.525734, -3.950073) translate(-0.474266, 1.450073)">
                <path d="M2.88775351,-0.425866237 C2.98755721,-0.684554916 3.15206769,-0.677565105 3.24917468,-0.425866237 L5.40050076,5.1503168 C5.50030446,5.40900548 5.36527212,5.61871408 5.08097484,5.61871408 L1.05595335,5.61871408 C0.779680363,5.61871408 0.639320451,5.40201566 0.736427439,5.1503168 L2.88775351,-0.425866237 Z" transform="translate(3.069450, 2.500722) rotate(90.000000) translate(-3.069450, -2.500722) "></path>
            </g>
            <rect x="2.0257342" y="3.95007324" width="1" height="7.94485309" rx="0.5"></rect>
        </g>
        <g transform="translate(108.501984, 94.500000) scale(1, -1) translate(-108.501984, -94.500000) translate(105.501984, 89.500000)" fill="#8D9EB0">
            <g transform="translate(2.525734, 3.950073) rotate(-90.000000) translate(-2.525734, -3.950073) translate(-0.474266, 1.450073)">
                <path d="M2.88775351,-0.425866237 C2.98755721,-0.684554916 3.15206769,-0.677565105 3.24917468,-0.425866237 L5.40050076,5.1503168 C5.50030446,5.40900548 5.36527212,5.61871408 5.08097484,5.61871408 L1.05595335,5.61871408 C0.779680363,5.61871408 0.639320451,5.40201566 0.736427439,5.1503168 L2.88775351,-0.425866237 Z" transform="translate(3.069450, 2.500722) rotate(90.000000) translate(-3.069450, -2.500722) "></path>
            </g>
            <rect x="2.0257342" y="1.95007324" width="1" height="8" rx="0.5"></rect>
        </g>
        <g transform="translate(105.388217, 123.995538)" fill="#8D9EB0">
            <g transform="translate(2.525734, 3.950073) rotate(-90.000000) translate(-2.525734, -3.950073) translate(-0.474266, 1.450073)">
                <path d="M2.88775351,-0.425866237 C2.98755721,-0.684554916 3.15206769,-0.677565105 3.24917468,-0.425866237 L5.40050076,5.1503168 C5.50030446,5.40900548 5.36527212,5.61871408 5.08097484,5.61871408 L1.05595335,5.61871408 C0.779680363,5.61871408 0.639320451,5.40201566 0.736427439,5.1503168 L2.88775351,-0.425866237 Z" transform="translate(3.069450, 2.500722) rotate(90.000000) translate(-3.069450, -2.500722) "></path>
            </g>
            <rect x="2.0257342" y="1.95007324" width="1" height="7.94485309" rx="0.5"></rect>
        </g>
        <g transform="translate(35.245081, 79.620943)" fill="#8D9EB0">
            <g transform="translate(2.525734, 24.950073) rotate(-90.000000) translate(-2.525734, -24.950073) translate(-0.474266, 22.450073)">
                <path d="M2.88775351,-0.425866237 C2.98755721,-0.684554916 3.15206769,-0.677565105 3.24917468,-0.425866237 L5.40050076,5.1503168 C5.50030446,5.40900548 5.36527212,5.61871408 5.08097484,5.61871408 L1.05595335,5.61871408 C0.779680363,5.61871408 0.639320451,5.40201566 0.736427439,5.1503168 L2.88775351,-0.425866237 Z" transform="translate(3.069450, 2.500722) rotate(90.000000) translate(-3.069450, -2.500722) "></path>
            </g>
            <rect x="2.0257342" y="24.9500732" width="1" height="7.94485309" rx="0.5"></rect>
            <rect x="2.0257342" y="0.950073242" width="1" height="19.9448531" rx="0.5"></rect>
        </g>
        <path d="M173.931729,123.824898 L176.256902,123.824898 L176.256902,137.700931 L174.438017,137.700931 L174.194248,136.61335 C173.53795,137.41966 172.675385,137.944699 171.456545,137.944699 C169.131371,137.944699 167.5,136.088311 167.5,133.238099 L167.5,132.188021 C167.5,129.450317 169.150123,127.462669 171.569053,127.462669 C172.544126,127.462669 173.294181,127.762691 173.931729,128.343984 L173.931729,123.824898 Z M171.869075,136.200819 C172.787894,136.200819 173.40669,135.750786 173.931729,135.038233 L173.931729,130.050362 C173.519198,129.600328 172.825397,129.2253 171.962832,129.2253 C170.631483,129.2253 169.825173,130.237875 169.825173,132.131766 L169.825173,133.275602 C169.825173,135.26325 170.612732,136.200819 171.869075,136.200819 Z" fill="#8D9EB0"></path>
        <path d="M37.8835698,111.589111 C38.0898538,111.589111 38.2570801,111.812969 38.2570801,112.089111 C38.2570801,112.365254 38.0898538,112.589111 37.8835698,112.589111 L31.325201,112.589111 C31.1189169,112.589111 30.9516907,112.365254 30.9516907,112.089111 C30.9516907,111.812969 31.1189169,111.589111 31.325201,111.589111 L37.8835698,111.589111 Z" fill="#8D9EB0" fill-rule="nonzero"></path>
        <polygon fill="#8D9EB0" points="24.3345802 117.381304 29.6599768 117.381304 29.6599768 119.293946 21.9719043 119.293946 21.9719043 106.167969 24.3345802 106.167969"></polygon>
        <path d="M32.2658858,61.3153849 L37.5912824,61.3153849 L37.5912824,63.2280273 L29.9032099,63.2280273 L29.9032099,50.10205 L32.2658858,50.10205 L32.2658858,61.3153849 Z M40.7415169,61.3153849 L46.8732235,61.3153849 L46.8732235,63.2280273 L38.4163438,63.2280273 L38.4163438,61.8966782 C38.4163438,59.5715051 39.5414276,58.2964101 41.0602907,57.2463319 L42.8604247,56.0087398 C44.0417627,55.2024297 44.4917962,54.7148934 44.4917962,53.8523292 L44.4917962,53.4022957 C44.4917962,52.6147371 43.8730001,51.6959186 42.3166342,51.6959186 C41.1915504,51.6959186 40.3102348,52.0334438 39.185151,52.8210024 L38.1350728,51.3958963 C39.3539136,50.4395751 40.7227655,49.8582818 42.4666454,49.8582818 C45.2981062,49.8582818 46.8544721,51.5646589 46.8544721,53.3272901 L46.8544721,53.9085834 C46.8544721,55.2024297 46.0669135,56.3462649 44.0417627,57.6588627 L42.5979052,58.5964325 C41.1352963,59.5527537 40.7790197,60.3215609 40.7415169,61.3153849 Z" fill="#8D9EB0"></path>
        <path d="M102.048688,116.264842 L107.374085,116.264842 L107.374085,118.177485 L99.686012,118.177485 L99.686012,105.051507 L102.048688,105.051507 L102.048688,116.264842 Z M113.655802,116.396102 L115.962224,116.396102 L115.962224,118.177485 L108.686682,118.177485 L108.686682,116.396102 L111.368132,116.396102 L111.368132,107.601697 L109.099213,108.726781 L108.236649,107.189166 L111.911922,105.051507 L113.655802,105.051507 L113.655802,116.396102 Z" fill="#8D9EB0"></path>
    </g>
</svg>
