<?xml version="1.0" encoding="UTF-8" standalone="no"?>
<svg width="200px" height="150px" viewBox="0 0 200 150" version="1.1" xmlns="http://www.w3.org/2000/svg" xmlns:xlink="http://www.w3.org/1999/xlink">
    <!-- Generator: Sketch 49.3 (51167) - http://www.bohemiancoding.com/sketch -->
    <title>Header-Male-Right-Angle</title>
    <desc>Created with Sketch.</desc>
    <defs>
        <rect id="path-1" x="0" y="0.274414062" width="72.9306641" height="37.7299995"></rect>
        <rect id="path-2" x="0.290347829" y="37" width="37.7299995" height="17"></rect>
    </defs>
    <g stroke="none" stroke-width="1" fill="none" fill-rule="evenodd">
        <g transform="translate(103.000000, 53.000000)">
            <path d="M12.5898438,50.3076172 C12.5898438,51.1360443 11.9182709,51.8099976 11.0898438,51.8099976 C10.2614166,51.8099976 9.58984375,51.1360443 9.58984375,50.3076172 L9.58984375,31.9423828 C9.58984375,31.1139557 10.2614166,30.4423828 11.0898438,30.4423828 C11.9182709,30.4423828 12.5898438,31.1139557 12.5898438,31.9423828 L12.5898438,50.3076172 Z" stroke="#979797" fill="#D8D8D8" fill-rule="nonzero"></path>
            <path d="M29.6503906,50.3076172 C29.6503906,51.1360443 28.9788177,51.8076172 28.1503906,51.8076172 C27.3219635,51.8076172 26.6503906,51.1360443 26.6503906,50.3076172 L26.6503906,32.409668 C26.6503906,31.5812408 27.3219635,30.909668 28.1503906,30.909668 C28.9788177,30.909668 29.6503906,31.5812408 29.6503906,32.409668 L29.6503906,50.3076172 Z" stroke="#979797" fill="#D8D8D8" fill-rule="nonzero"></path>
            <path d="M46.5898438,50.3076172 C46.5898438,51.1360443 45.9182709,51.8076172 45.0898438,51.8076172 C44.2614166,51.8076172 43.5898438,51.1360443 43.5898438,50.3076172 L43.5898438,31.9423828 C43.5898438,31.1139557 44.2614166,30.4423828 45.0898438,30.4423828 C45.9182709,30.4423828 46.5898438,31.1139557 46.5898438,31.9423828 L46.5898438,50.3076172 Z" stroke="#979797" fill="#D8D8D8" fill-rule="nonzero"></path>
            <path d="M63.6503906,50.3076172 C63.6503906,51.1360443 62.9788177,51.8076172 62.1503906,51.8076172 C61.3219635,51.8076172 60.6503906,51.1360443 60.6503906,50.3076172 L60.6503906,32.409668 C60.6503906,31.5812408 61.3219635,30.909668 62.1503906,30.909668 C62.9788177,30.909668 63.6503906,31.5812408 63.6503906,32.409668 L63.6503906,50.3076172 Z" stroke="#979797" fill="#D8D8D8" fill-rule="nonzero"></path>
            <g>
                <use fill="#585858" fill-rule="evenodd" xlink:href="#path-1"></use>
                <rect stroke="#505050" stroke-width="1" x="0.5" y="0.774414062" width="71.9306641" height="36.7299995"></rect>
            </g>
            <rect stroke="#979797" fill="#D8D8D8" x="8" y="8" width="6" height="6"></rect>
            <rect stroke="#979797" fill="#D8D8D8" x="8" y="24.9829102" width="6" height="6"></rect>
            <rect stroke="#979797" fill="#D8D8D8" x="24.9812826" y="8" width="6" height="6"></rect>
            <rect stroke="#979797" fill="#D8D8D8" x="24.9812826" y="24.9829102" width="6" height="6"></rect>
            <rect stroke="#979797" fill="#D8D8D8" x="41.9625651" y="8" width="6" height="6"></rect>
            <rect stroke="#979797" fill="#D8D8D8" x="41.9625651" y="24.9829102" width="6" height="6"></rect>
            <rect stroke="#979797" fill="#D8D8D8" x="58.9438477" y="8" width="6" height="6"></rect>
            <rect stroke="#979797" fill="#D8D8D8" x="58.9438477" y="24.9829102" width="6" height="6"></rect>
        </g>
        <path d="M39.5210049,61.1209575 C40.3494321,61.1209575 41.0210049,61.7925304 41.0210049,62.6209575 C41.0210049,63.4493847 40.3494321,64.1209575 39.5210049,64.1209575 L16.2099767,64.1209575 C15.3815495,64.1209575 14.7099767,64.7925304 14.7099767,65.6209575 L14.7099767,104.809998 C14.7099767,105.638425 14.0384038,106.309998 13.2099767,106.309998 C12.3815495,106.309998 11.7099767,105.638425 11.7099767,104.809998 L11.7099767,65.6209575 C11.7099767,63.1356762 13.7246953,61.1209575 16.2099767,61.1209575 L39.5210049,61.1209575 Z" stroke="#979797" fill="#D8D8D8" fill-rule="nonzero"></path>
        <path d="M38.4310894,79.2763232 C39.2595165,79.2763232 39.9310894,79.947896 39.9310894,80.7763232 C39.9310894,81.6047503 39.2595165,82.2763232 38.4310894,82.2763232 L30.8627697,82.2763232 C30.0343426,82.2763232 29.3627697,82.947896 29.3627697,83.7763232 L29.3627697,104.809998 C29.3627697,105.638425 28.6911969,106.309998 27.8627697,106.309998 C27.0343426,106.309998 26.3627697,105.638425 26.3627697,104.809998 L26.3627697,83.7763232 C26.3627697,81.2910418 28.3774884,79.2763232 30.8627697,79.2763232 L38.4310894,79.2763232 Z" stroke="#979797" fill="#D8D8D8" fill-rule="nonzero"></path>
        <g transform="translate(62.469265, 72.484066) rotate(90.000000) translate(-62.469265, -72.484066) translate(42.969265, 44.984066)">
            <path d="M11.5898438,37.6738281 C11.5898438,38.5022552 10.9182709,39.1738281 10.0898438,39.1738281 C9.26141663,39.1738281 8.58984375,38.5022552 8.58984375,37.6738281 L8.58984375,2.40362866 C8.58984375,1.57520154 9.26141663,0.903628662 10.0898438,0.903628662 C10.9182709,0.903628662 11.5898438,1.57520154 11.5898438,2.40362866 L11.5898438,37.6738281 Z" stroke="#979797" fill="#D8D8D8" fill-rule="nonzero"></path>
            <path d="M28.6503906,37.6738281 C28.6503906,38.5022552 27.9788177,39.1738281 27.1503906,39.1738281 C26.3219635,39.1738281 25.6503906,38.5022552 25.6503906,37.6738281 L25.6503906,2.40362866 C25.6503906,1.57520154 26.3219635,0.903628662 27.1503906,0.903628662 C27.9788177,0.903628662 28.6503906,1.57520154 28.6503906,2.40362866 L28.6503906,37.6738281 Z" stroke="#979797" fill="#D8D8D8" fill-rule="nonzero"></path>
            <g>
                <use fill="#585858" fill-rule="evenodd" xlink:href="#path-2"></use>
                <rect stroke="#505050" stroke-width="1" x="0.790347829" y="37.5" width="36.7299995" height="16"></rect>
            </g>
        </g>
    </g>
</svg>