<?xml version="1.0" encoding="UTF-8" standalone="no"?>
<svg width="200px" height="150px" viewBox="0 0 200 150" version="1.1" xmlns="http://www.w3.org/2000/svg" xmlns:xlink="http://www.w3.org/1999/xlink">
    <!-- Generator: Sketch 49.3 (51167) - http://www.bohemiancoding.com/sketch -->
    <title>Header-Male-Straight</title>
    <desc>Created with Sketch.</desc>
    <defs>
        <rect id="path-1" x="0" y="0.274414062" width="72.9306641" height="37.7299995"></rect>
        <rect id="path-2" x="0.426254848" y="37" width="37.7299995" height="17"></rect>
    </defs>
    <g stroke="none" stroke-width="1" fill="none" fill-rule="evenodd">
        <g transform="translate(103.000000, 53.000000)">
            <g>
                <use fill="#585858" fill-rule="evenodd" xlink:href="#path-1"></use>
                <rect stroke="#505050" stroke-width="1" x="0.5" y="0.774414062" width="71.9306641" height="36.7299995"></rect>
            </g>
            <g transform="translate(7.965332, 7.637207)" fill="#D8D8D8" stroke="#979797">
                <rect x="0" y="0" width="6" height="6"></rect>
                <rect x="0" y="16.9829102" width="6" height="6"></rect>
                <rect x="16.9812826" y="0" width="6" height="6"></rect>
                <rect x="16.9812826" y="16.9829102" width="6" height="6"></rect>
                <rect x="33.9625651" y="0" width="6" height="6"></rect>
                <rect x="33.9625651" y="16.9829102" width="6" height="6"></rect>
                <rect x="50.9438477" y="0" width="6" height="6"></rect>
                <rect x="50.9438477" y="16.9829102" width="6" height="6"></rect>
            </g>
        </g>
        <g transform="translate(21.000000, 32.000000)">
            <g transform="translate(8.791255, 0.000000)" fill="#D8D8D8" fill-rule="nonzero" stroke="#979797">
                <g>
                    <path d="M3.58984375,37.6738281 C3.58984375,38.5022552 2.91827087,39.1738281 2.08984375,39.1738281 C1.26141663,39.1738281 0.58984375,38.5022552 0.58984375,37.6738281 L0.58984375,2.40362866 C0.58984375,1.57520154 1.26141663,0.903628662 2.08984375,0.903628662 C2.91827087,0.903628662 3.58984375,1.57520154 3.58984375,2.40362866 L3.58984375,37.6738281 Z"></path>
                    <path d="M3.58984375,71.3076172 C3.58984375,72.1360443 2.91827087,72.8076172 2.08984375,72.8076172 C1.26141663,72.8076172 0.58984375,72.1360443 0.58984375,71.3076172 L0.58984375,52.9423828 C0.58984375,52.1139557 1.26141663,51.4423828 2.08984375,51.4423828 C2.91827087,51.4423828 3.58984375,52.1139557 3.58984375,52.9423828 L3.58984375,71.3076172 Z"></path>
                </g>
                <path d="M20.6503906,37.6738281 C20.6503906,38.5022552 19.9788177,39.1738281 19.1503906,39.1738281 C18.3219635,39.1738281 17.6503906,38.5022552 17.6503906,37.6738281 L17.6503906,2.40362866 C17.6503906,1.57520154 18.3219635,0.903628662 19.1503906,0.903628662 C19.9788177,0.903628662 20.6503906,1.57520154 20.6503906,2.40362866 L20.6503906,37.6738281 Z"></path>
                <path d="M20.6503906,71.3076172 C20.6503906,72.1360443 19.9788177,72.8076172 19.1503906,72.8076172 C18.3219635,72.8076172 17.6503906,72.1360443 17.6503906,71.3076172 L17.6503906,53.409668 C17.6503906,52.5812408 18.3219635,51.909668 19.1503906,51.909668 C19.9788177,51.909668 20.6503906,52.5812408 20.6503906,53.409668 L20.6503906,71.3076172 Z"></path>
            </g>
            <g>
                <use fill="#585858" fill-rule="evenodd" xlink:href="#path-2"></use>
                <rect stroke="#505050" stroke-width="1" x="0.926254848" y="37.5" width="36.7299995" height="16"></rect>
            </g>
        </g>
    </g>
</svg>