<?xml version="1.0" encoding="UTF-8"?>
<svg width="290px" height="175px" viewBox="0 0 290 175" version="1.1" xmlns="http://www.w3.org/2000/svg" xmlns:xlink="http://www.w3.org/1999/xlink">
    <!-- Generator: Sketch 50.2 (55047) - http://www.bohemiancoding.com/sketch -->
    <title>Header-Female-Right-Angel-Labeled</title>
    <desc>Created with Sketch.</desc>
    <defs></defs>
    <g id="Header-Female-Right-Angel-Labeled" stroke="none" stroke-width="1" fill="none" fill-rule="evenodd">
        <g id="Header-Female-Right-Angle" transform="translate(22.138021, -4.646484)">
            <g id="Group" fill-rule="evenodd" transform="translate(126.690000, 65.013333)">
                <path d="M15.4855078,61.7106771 C15.4855078,62.726881 14.6594732,63.553597 13.6405078,63.553597 C12.6215424,63.553597 11.7955078,62.726881 11.7955078,61.7106771 L11.7955078,39.1826563 C11.7955078,38.1664523 12.6215424,37.3426562 13.6405078,37.3426562 C14.6594732,37.3426562 15.4855078,38.1664523 15.4855078,39.1826563 L15.4855078,61.7106771 Z" id="Path-14-Copy-5" stroke="#979797" fill="#D8D8D8" fill-rule="nonzero"></path>
                <path d="M36.4699805,61.7106771 C36.4699805,62.726881 35.6439458,63.5506771 34.6249805,63.5506771 C33.6060151,63.5506771 32.7799805,62.726881 32.7799805,61.7106771 L32.7799805,39.7558594 C32.7799805,38.7396554 33.6060151,37.9158594 34.6249805,37.9158594 C35.6439458,37.9158594 36.4699805,38.7396554 36.4699805,39.7558594 L36.4699805,61.7106771 Z" id="Path-14-Copy-4" stroke="#979797" fill="#D8D8D8" fill-rule="nonzero"></path>
                <path d="M57.3055078,61.7106771 C57.3055078,62.726881 56.4794732,63.5506771 55.4605078,63.5506771 C54.4415424,63.5506771 53.6155078,62.726881 53.6155078,61.7106771 L53.6155078,39.1826562 C53.6155078,38.1664523 54.4415424,37.3426562 55.4605078,37.3426562 C56.4794732,37.3426562 57.3055078,38.1664523 57.3055078,39.1826562 L57.3055078,61.7106771 Z" id="Path-14-Copy-7" stroke="#979797" fill="#D8D8D8" fill-rule="nonzero"></path>
                <path d="M78.2899805,61.7106771 C78.2899805,62.726881 77.4639458,63.5506771 76.4449805,63.5506771 C75.4260151,63.5506771 74.5999805,62.726881 74.5999805,61.7106771 L74.5999805,39.7558594 C74.5999805,38.7396554 75.4260151,37.9158594 76.4449805,37.9158594 C77.4639458,37.9158594 78.2899805,38.7396554 78.2899805,39.7558594 L78.2899805,61.7106771 Z" id="Path-14-Copy-6" stroke="#979797" fill="#D8D8D8" fill-rule="nonzero"></path>
                <rect id="Rectangle-18" stroke="#505050" fill="#585858" x="0.5" y="0.836614583" width="88.7047168" height="45.2821328"></rect>
                <g id="female-header-hole" transform="translate(4.920000, 4.906667)">
                    <g id="Group-3" transform="translate(0.561609, 0.561609)">
                        <polygon id="Rectangle-19-Copy-8" fill="#505050" points="10.5845209 5.29226047 14.8321775 1.0446039 14.8321775 14.8321775 10.5845209 10.5845209"></polygon>
                        <polygon id="Rectangle-19-Copy-9" fill="#666666" points="5.29226047 10.5845209 10.5845209 10.5845209 14.8321775 14.8321775 1.04522265 14.8321775"></polygon>
                        <polygon id="Rectangle-19-Copy-10" fill="#505050" points="1.0446039 1.0446039 5.29226047 5.29226047 5.29226047 10.5845209 1.04522265 14.8321775"></polygon>
                        <polygon id="Rectangle-19-Copy-11" fill="#666666" points="1.0446039 1.0446039 14.8321775 1.0446039 10.5845209 5.29226047 5.29226047 5.29226047"></polygon>
                        <polygon id="Rectangle-19" fill="#000000" fill-rule="nonzero" points="5.29226047 5.29226047 5.29226047 10.5845209 10.5845209 10.5845209 10.5845209 5.29226047"></polygon>
                        <rect id="Rectangle" stroke="#4F4F4F" x="1.15267642" y="1.15267642" width="13.5714286" height="13.5714286"></rect>
                    </g>
                </g>
                <g id="female-header-hole" transform="translate(4.920000, 24.533333)">
                    <g id="Group-3" transform="translate(0.561609, 0.561609)">
                        <polygon id="Rectangle-19-Copy-8" fill="#505050" points="10.5845209 5.29226047 14.8321775 1.0446039 14.8321775 14.8321775 10.5845209 10.5845209"></polygon>
                        <polygon id="Rectangle-19-Copy-9" fill="#666666" points="5.29226047 10.5845209 10.5845209 10.5845209 14.8321775 14.8321775 1.04522265 14.8321775"></polygon>
                        <polygon id="Rectangle-19-Copy-10" fill="#505050" points="1.0446039 1.0446039 5.29226047 5.29226047 5.29226047 10.5845209 1.04522265 14.8321775"></polygon>
                        <polygon id="Rectangle-19-Copy-11" fill="#666666" points="1.0446039 1.0446039 14.8321775 1.0446039 10.5845209 5.29226047 5.29226047 5.29226047"></polygon>
                        <polygon id="Rectangle-19" fill="#000000" fill-rule="nonzero" points="5.29226047 5.29226047 5.29226047 10.5845209 10.5845209 10.5845209 10.5845209 5.29226047"></polygon>
                        <rect id="Rectangle" stroke="#4F4F4F" x="1.15267642" y="1.15267642" width="13.5714286" height="13.5714286"></rect>
                    </g>
                </g>
                <g id="female-header-hole" transform="translate(25.830000, 4.906667)">
                    <g id="Group-3" transform="translate(0.561609, 0.561609)">
                        <polygon id="Rectangle-19-Copy-8" fill="#505050" points="10.5845209 5.29226047 14.8321775 1.0446039 14.8321775 14.8321775 10.5845209 10.5845209"></polygon>
                        <polygon id="Rectangle-19-Copy-9" fill="#666666" points="5.29226047 10.5845209 10.5845209 10.5845209 14.8321775 14.8321775 1.04522265 14.8321775"></polygon>
                        <polygon id="Rectangle-19-Copy-10" fill="#505050" points="1.0446039 1.0446039 5.29226047 5.29226047 5.29226047 10.5845209 1.04522265 14.8321775"></polygon>
                        <polygon id="Rectangle-19-Copy-11" fill="#666666" points="1.0446039 1.0446039 14.8321775 1.0446039 10.5845209 5.29226047 5.29226047 5.29226047"></polygon>
                        <polygon id="Rectangle-19" fill="#000000" fill-rule="nonzero" points="5.29226047 5.29226047 5.29226047 10.5845209 10.5845209 10.5845209 10.5845209 5.29226047"></polygon>
                        <rect id="Rectangle" stroke="#4F4F4F" x="1.15267642" y="1.15267642" width="13.5714286" height="13.5714286"></rect>
                    </g>
                </g>
                <g id="female-header-hole" transform="translate(25.830000, 24.533333)">
                    <g id="Group-3" transform="translate(0.561609, 0.561609)">
                        <polygon id="Rectangle-19-Copy-8" fill="#505050" points="10.5845209 5.29226047 14.8321775 1.0446039 14.8321775 14.8321775 10.5845209 10.5845209"></polygon>
                        <polygon id="Rectangle-19-Copy-9" fill="#666666" points="5.29226047 10.5845209 10.5845209 10.5845209 14.8321775 14.8321775 1.04522265 14.8321775"></polygon>
                        <polygon id="Rectangle-19-Copy-10" fill="#505050" points="1.0446039 1.0446039 5.29226047 5.29226047 5.29226047 10.5845209 1.04522265 14.8321775"></polygon>
                        <polygon id="Rectangle-19-Copy-11" fill="#666666" points="1.0446039 1.0446039 14.8321775 1.0446039 10.5845209 5.29226047 5.29226047 5.29226047"></polygon>
                        <polygon id="Rectangle-19" fill="#000000" fill-rule="nonzero" points="5.29226047 5.29226047 5.29226047 10.5845209 10.5845209 10.5845209 10.5845209 5.29226047"></polygon>
                        <rect id="Rectangle" stroke="#4F4F4F" x="1.15267642" y="1.15267642" width="13.5714286" height="13.5714286"></rect>
                    </g>
                </g>
                <g id="female-header-hole" transform="translate(46.740000, 4.906667)">
                    <g id="Group-3" transform="translate(0.561609, 0.561609)">
                        <polygon id="Rectangle-19-Copy-8" fill="#505050" points="10.5845209 5.29226047 14.8321775 1.0446039 14.8321775 14.8321775 10.5845209 10.5845209"></polygon>
                        <polygon id="Rectangle-19-Copy-9" fill="#666666" points="5.29226047 10.5845209 10.5845209 10.5845209 14.8321775 14.8321775 1.04522265 14.8321775"></polygon>
                        <polygon id="Rectangle-19-Copy-10" fill="#505050" points="1.0446039 1.0446039 5.29226047 5.29226047 5.29226047 10.5845209 1.04522265 14.8321775"></polygon>
                        <polygon id="Rectangle-19-Copy-11" fill="#666666" points="1.0446039 1.0446039 14.8321775 1.0446039 10.5845209 5.29226047 5.29226047 5.29226047"></polygon>
                        <polygon id="Rectangle-19" fill="#000000" fill-rule="nonzero" points="5.29226047 5.29226047 5.29226047 10.5845209 10.5845209 10.5845209 10.5845209 5.29226047"></polygon>
                        <rect id="Rectangle" stroke="#4F4F4F" x="1.15267642" y="1.15267642" width="13.5714286" height="13.5714286"></rect>
                    </g>
                </g>
                <g id="female-header-hole" transform="translate(46.740000, 24.533333)">
                    <g id="Group-3" transform="translate(0.561609, 0.561609)">
                        <polygon id="Rectangle-19-Copy-8" fill="#505050" points="10.5845209 5.29226047 14.8321775 1.0446039 14.8321775 14.8321775 10.5845209 10.5845209"></polygon>
                        <polygon id="Rectangle-19-Copy-9" fill="#666666" points="5.29226047 10.5845209 10.5845209 10.5845209 14.8321775 14.8321775 1.04522265 14.8321775"></polygon>
                        <polygon id="Rectangle-19-Copy-10" fill="#505050" points="1.0446039 1.0446039 5.29226047 5.29226047 5.29226047 10.5845209 1.04522265 14.8321775"></polygon>
                        <polygon id="Rectangle-19-Copy-11" fill="#666666" points="1.0446039 1.0446039 14.8321775 1.0446039 10.5845209 5.29226047 5.29226047 5.29226047"></polygon>
                        <polygon id="Rectangle-19" fill="#000000" fill-rule="nonzero" points="5.29226047 5.29226047 5.29226047 10.5845209 10.5845209 10.5845209 10.5845209 5.29226047"></polygon>
                        <rect id="Rectangle" stroke="#4F4F4F" x="1.15267642" y="1.15267642" width="13.5714286" height="13.5714286"></rect>
                    </g>
                </g>
                <g id="female-header-hole" transform="translate(67.834980, 4.906667)">
                    <g id="Group-3" transform="translate(0.561609, 0.561609)">
                        <polygon id="Rectangle-19-Copy-8" fill="#505050" points="10.5845209 5.29226047 14.8321775 1.0446039 14.8321775 14.8321775 10.5845209 10.5845209"></polygon>
                        <polygon id="Rectangle-19-Copy-9" fill="#666666" points="5.29226047 10.5845209 10.5845209 10.5845209 14.8321775 14.8321775 1.04522265 14.8321775"></polygon>
                        <polygon id="Rectangle-19-Copy-10" fill="#505050" points="1.0446039 1.0446039 5.29226047 5.29226047 5.29226047 10.5845209 1.04522265 14.8321775"></polygon>
                        <polygon id="Rectangle-19-Copy-11" fill="#666666" points="1.0446039 1.0446039 14.8321775 1.0446039 10.5845209 5.29226047 5.29226047 5.29226047"></polygon>
                        <polygon id="Rectangle-19" fill="#000000" fill-rule="nonzero" points="5.29226047 5.29226047 5.29226047 10.5845209 10.5845209 10.5845209 10.5845209 5.29226047"></polygon>
                        <rect id="Rectangle" stroke="#4F4F4F" x="1.15267642" y="1.15267642" width="13.5714286" height="13.5714286"></rect>
                    </g>
                </g>
                <g id="female-header-hole" transform="translate(67.834980, 24.533333)">
                    <g id="Group-3" transform="translate(0.561609, 0.561609)">
                        <polygon id="Rectangle-19-Copy-8" fill="#505050" points="10.5845209 5.29226047 14.8321775 1.0446039 14.8321775 14.8321775 10.5845209 10.5845209"></polygon>
                        <polygon id="Rectangle-19-Copy-9" fill="#666666" points="5.29226047 10.5845209 10.5845209 10.5845209 14.8321775 14.8321775 1.04522265 14.8321775"></polygon>
                        <polygon id="Rectangle-19-Copy-10" fill="#505050" points="1.0446039 1.0446039 5.29226047 5.29226047 5.29226047 10.5845209 1.04522265 14.8321775"></polygon>
                        <polygon id="Rectangle-19-Copy-11" fill="#666666" points="1.0446039 1.0446039 14.8321775 1.0446039 10.5845209 5.29226047 5.29226047 5.29226047"></polygon>
                        <polygon id="Rectangle-19" fill="#000000" fill-rule="nonzero" points="5.29226047 5.29226047 5.29226047 10.5845209 10.5845209 10.5845209 10.5845209 5.29226047"></polygon>
                        <rect id="Rectangle" stroke="#4F4F4F" x="1.15267642" y="1.15267642" width="13.5714286" height="13.5714286"></rect>
                    </g>
                </g>
            </g>
            <path d="M48.6108361,74.9750412 C49.6298014,74.9750412 50.4558361,75.7988373 50.4558361,76.8150412 C50.4558361,77.8312452 49.6298014,78.6550412 48.6108361,78.6550412 L19.9382713,78.6550412 C18.9193059,78.6550412 18.0932713,79.4788373 18.0932713,80.4950412 L18.0932713,128.56693 C18.0932713,129.583134 17.2672367,130.40693 16.2482713,130.40693 C15.2293059,130.40693 14.4032713,129.583134 14.4032713,128.56693 L14.4032713,80.4950412 C14.4032713,77.4464294 16.8813752,74.9750412 19.9382713,74.9750412 L48.6108361,74.9750412 Z" id="Path-15" stroke="#979797" fill="#D8D8D8" fill-rule="nonzero"></path>
            <path d="M47.27024,97.2456231 C48.2892054,97.2456231 49.11524,98.0694192 49.11524,99.0856231 C49.11524,100.101827 48.2892054,100.925623 47.27024,100.925623 L37.9612068,100.925623 C36.9422414,100.925623 36.1162068,101.749419 36.1162068,102.765623 L36.1162068,128.56693 C36.1162068,129.583134 35.2901721,130.40693 34.2712068,130.40693 C33.2522414,130.40693 32.4262068,129.583134 32.4262068,128.56693 L32.4262068,102.765623 C32.4262068,99.7170113 34.9043107,97.2456231 37.9612068,97.2456231 L47.27024,97.2456231 Z" id="Path-16" stroke="#979797" fill="#D8D8D8" fill-rule="nonzero"></path>
            <g id="Group-2" fill-rule="evenodd" transform="translate(76.837196, 88.913788) rotate(90.000000) translate(-76.837196, -88.913788) translate(52.852196, 55.180455)" fill="#585858" stroke="#505050">
                <rect id="Rectangle-17" x="0.857127829" y="1.60845116" width="45.4078994" height="64.1315488"></rect>
            </g>
        </g>
        <g id="Group" transform="translate(148.000000, 43.378035)" fill="#8D9EB0">
            <g id="triangle" transform="translate(3.832124, 3.275391) scale(-1, 1) translate(-3.832124, -3.275391) translate(0.832124, 0.775391)">
                <path d="M2.88775351,-0.425866237 C2.98755721,-0.684554916 3.15206769,-0.677565105 3.24917468,-0.425866237 L5.40050076,5.1503168 C5.50030446,5.40900548 5.36527212,5.61871408 5.08097484,5.61871408 L1.05595335,5.61871408 C0.779680363,5.61871408 0.639320451,5.40201566 0.736427439,5.1503168 L2.88775351,-0.425866237 Z" id="Triangle-1" transform="translate(3.069450, 2.500722) rotate(90.000000) translate(-3.069450, -2.500722) "></path>
            </g>
            <rect id="Rectangle-144" x="3.68472202" y="2.66483938" width="33.0591745" height="1" rx="0.5"></rect>
        </g>
        <g id="Group" transform="translate(215.474839, 46.378035) scale(-1, 1) translate(-215.474839, -46.378035) translate(192.974839, 43.378035)" fill="#8D9EB0">
            <g id="triangle" transform="translate(3.832124, 3.275391) scale(-1, 1) translate(-3.832124, -3.275391) translate(0.832124, 0.775391)">
                <path d="M2.88775351,-0.425866237 C2.98755721,-0.684554916 3.15206769,-0.677565105 3.24917468,-0.425866237 L5.40050076,5.1503168 C5.50030446,5.40900548 5.36527212,5.61871408 5.08097484,5.61871408 L1.05595335,5.61871408 C0.779680363,5.61871408 0.639320451,5.40201566 0.736427439,5.1503168 L2.88775351,-0.425866237 Z" id="Triangle-1" transform="translate(3.069450, 2.500722) rotate(90.000000) translate(-3.069450, -2.500722) "></path>
            </g>
            <rect id="Rectangle-144" x="3.68472202" y="2.66483938" width="33" height="1" rx="0.5"></rect>
        </g>
        <path d="M192.4498,40.0710754 C196.012565,40.0710754 197.793948,42.1712318 197.793948,45.3214663 L197.793948,47.6466395 C197.793948,51.0593936 195.768797,53.1970528 191.981015,53.1970528 L188.15573,53.1970528 L188.15573,40.0710754 L192.4498,40.0710754 Z M195.431272,47.6841423 L195.431272,45.2652122 C195.431272,43.127553 194.418696,41.8899608 192.337291,41.8899608 L190.518406,41.8899608 L190.518406,51.3781673 L191.999766,51.3781673 C194.287436,51.3781673 195.431272,50.178078 195.431272,47.6841423 Z" id="D" fill="#8D9EB0"></path>
        <rect id="Rectangle-93" fill="#8D9EB0" x="148" y="40.1363396" width="1" height="19.6241585" rx="0.5"></rect>
        <rect id="Rectangle-93-Copy-3" fill="#8D9EB0" x="237" y="40.1363396" width="1" height="19.6241585" rx="0.5"></rect>
        <path d="M246.641592,128.776873 C248.929263,128.776873 250.429374,130.61451 250.429374,133.502225 L250.429374,134.514801 C250.429374,137.271256 248.647992,139.258904 246.360321,139.258904 C245.291492,139.258904 244.428927,138.865125 243.735126,138.152572 L243.547612,139.015136 L241.728726,139.015136 L241.728726,125.139102 L244.053899,125.139102 L244.053899,129.8082 C244.691447,129.151901 245.554011,128.776873 246.641592,128.776873 Z M248.104201,134.589806 L248.104201,133.42722 C248.104201,131.477074 247.447902,130.539505 246.172807,130.539505 C245.27274,130.539505 244.560187,130.970787 244.053899,131.608334 L244.053899,136.671211 C244.560187,137.215002 245.197735,137.515024 245.966542,137.515024 C247.260388,137.515024 248.104201,136.502449 248.104201,134.589806 Z" id="b" fill="#8D9EB0"></path>
        <rect id="Rectangle-93" fill="#8D9EB0" x="222.670558" y="126.043815" width="1" height="11.4035291" rx="0.5"></rect>
        <rect id="Rectangle-93-Copy-3" fill="#8D9EB0" x="226.75645" y="126.043815" width="1" height="11.4035291" rx="0.5"></rect>
        <rect id="Rectangle-132-Copy" fill="#8D9EB0" x="238" y="106.167969" width="23.0456238" height="1" rx="0.5"></rect>
        <path d="M238.045624,61.2166748 C238.045624,60.9405324 238.273259,60.7166748 238.547392,60.7166748 L260.543447,60.7166748 C260.820566,60.7166748 261.045405,60.9486084 261.045624,61.2166748 L261.045624,61.2166748 C261.045849,61.4928172 260.818388,61.7166748 260.544245,61.7166748 L238.54741,61.7166748 C238.270281,61.7166748 238.045624,61.4847412 238.045624,61.2166748 L238.045624,61.2166748 Z" id="Rectangle-132-Copy-2" fill="#8D9EB0"></path>
        <g id="Group-2" transform="translate(256.893905, 101.167969) scale(1, -1) translate(-256.893905, -101.167969) translate(253.893905, 96.167969)" fill="#8D9EB0">
            <g id="triangle" transform="translate(2.525734, 3.950073) rotate(-90.000000) translate(-2.525734, -3.950073) translate(-0.474266, 1.450073)">
                <path d="M2.88775351,-0.425866237 C2.98755721,-0.684554916 3.15206769,-0.677565105 3.24917468,-0.425866237 L5.40050076,5.1503168 C5.50030446,5.40900548 5.36527212,5.61871408 5.08097484,5.61871408 L1.05595335,5.61871408 C0.779680363,5.61871408 0.639320451,5.40201566 0.736427439,5.1503168 L2.88775351,-0.425866237 Z" id="Triangle-1" transform="translate(3.069450, 2.500722) rotate(90.000000) translate(-3.069450, -2.500722) "></path>
            </g>
            <rect id="Rectangle-134" x="2.0257342" y="3.95007324" width="1" height="9" rx="0.5"></rect>
        </g>
        <g id="Group-2-Copy" transform="translate(253.780138, 62.000000)" fill="#8D9EB0">
            <g id="triangle" transform="translate(2.525734, 3.950073) rotate(-90.000000) translate(-2.525734, -3.950073) translate(-0.474266, 1.450073)">
                <path d="M2.88775351,-0.425866237 C2.98755721,-0.684554916 3.15206769,-0.677565105 3.24917468,-0.425866237 L5.40050076,5.1503168 C5.50030446,5.40900548 5.36527212,5.61871408 5.08097484,5.61871408 L1.05595335,5.61871408 C0.779680363,5.61871408 0.639320451,5.40201566 0.736427439,5.1503168 L2.88775351,-0.425866237 Z" id="Triangle-1" transform="translate(3.069450, 2.500722) rotate(90.000000) translate(-3.069450, -2.500722) "></path>
            </g>
            <rect id="Rectangle-134" x="2.0257342" y="3.95007324" width="1" height="9.42480469" rx="0.5"></rect>
        </g>
        <g id="Group-17" transform="translate(227.418437, 130.198348)" fill="#8D9EB0">
            <g id="triangle" transform="translate(3.933594, 2.500000) scale(-1, 1) translate(-3.933594, -2.500000) translate(0.933594, 0.000000)">
                <path d="M2.88775351,-0.425866237 C2.98755721,-0.684554916 3.15206769,-0.677565105 3.24917468,-0.425866237 L5.40050076,5.1503168 C5.50030446,5.40900548 5.36527212,5.61871408 5.08097484,5.61871408 L1.05595335,5.61871408 C0.779680363,5.61871408 0.639320451,5.40201566 0.736427439,5.1503168 L2.88775351,-0.425866237 Z" id="Triangle-1" transform="translate(3.069450, 2.500722) rotate(90.000000) translate(-3.069450, -2.500722) "></path>
            </g>
            <rect id="Rectangle-144" x="3.93359375" y="2" width="9" height="1" rx="0.5"></rect>
        </g>
        <g id="Group-18" transform="translate(208.679362, 130.198348)" fill="#8D9EB0">
            <g id="triangle" transform="translate(9.933594, 2.500000) scale(-1, 1) rotate(180.000000) translate(-9.933594, -2.500000) translate(6.933594, 0.000000)">
                <path d="M2.88775351,-0.425866237 C2.98755721,-0.684554916 3.15206769,-0.677565105 3.24917468,-0.425866237 L5.40050076,5.1503168 C5.50030446,5.40900548 5.36527212,5.61871408 5.08097484,5.61871408 L1.05595335,5.61871408 C0.779680363,5.61871408 0.639320451,5.40201566 0.736427439,5.1503168 L2.88775351,-0.425866237 Z" id="Triangle-1" transform="translate(3.069450, 2.500722) rotate(90.000000) translate(-3.069450, -2.500722) "></path>
            </g>
            <path d="M9.44311523,3 L1.47920477,3 C1.20832097,3 0.988726259,2.76806641 0.988726259,2.5 C0.988726259,2.5 1.0024159,2 1.47920477,2 L9.44311523,2 C9.71399904,2 9.93359375,2.23193359 9.93359375,2.5 C9.93359375,2.77614237 9.71853638,3 9.44311523,3 Z" id="Rectangle-144"></path>
        </g>
        <rect id="Rectangle-93-Copy-5" fill="#8D9EB0" x="161.943822" y="125.375587" width="1" height="11.4035291" rx="0.5"></rect>
        <rect id="Rectangle-93-Copy-6" fill="#8D9EB0" x="182.933766" y="125.375587" width="1" height="11.4035291" rx="0.5"></rect>
        <rect id="Rectangle-93-Copy-5" fill="#8D9EB0" x="66.3199274" y="39.7367517" width="1" height="19.6241585" rx="0.5"></rect>
        <rect id="Rectangle-93-Copy-6" fill="#8D9EB0" x="130.921216" y="39.7367517" width="1" height="19.6241585" rx="0.5"></rect>
        <rect id="Rectangle-93-Copy-9" fill="#8D9EB0" x="37.9429537" y="126.879537" width="1" height="22.6376214" rx="0.5"></rect>
        <rect id="Rectangle-93-Copy-8" fill="#8D9EB0" x="55.963938" y="126.879537" width="1" height="22.6376214" rx="0.5"></rect>
        <g id="Group-17-Copy" transform="translate(182.784485, 130.198348)" fill="#8D9EB0">
            <g id="triangle" transform="translate(4.933594, 2.500000) scale(-1, 1) translate(-4.933594, -2.500000) translate(0.933594, 0.000000)">
                <path d="M3.88775351,-0.425866237 C3.98755721,-0.684554916 4.15206769,-0.677565105 4.24917468,-0.425866237 L6.40050076,5.1503168 C6.50030446,5.40900548 6.36527212,5.61871408 6.08097484,5.61871408 L2.05595335,5.61871408 C1.77968036,5.61871408 1.63932045,5.40201566 1.73642744,5.1503168 L3.88775351,-0.425866237 Z" id="Triangle-1" transform="translate(4.069450, 2.500722) rotate(90.000000) translate(-4.069450, -2.500722) "></path>
            </g>
            <rect id="Rectangle-144" x="4.93359375" y="2" width="9" height="1" rx="0.5"></rect>
        </g>
        <g id="Group-18-Copy" transform="translate(148.141357, 130.198348)" fill="#8D9EB0">
            <g id="triangle" transform="translate(9.933594, 2.500000) scale(-1, 1) rotate(180.000000) translate(-9.933594, -2.500000) translate(6.933594, 0.000000)">
                <path d="M2.88775351,-0.425866237 C2.98755721,-0.684554916 3.15206769,-0.677565105 3.24917468,-0.425866237 L5.40050076,5.1503168 C5.50030446,5.40900548 5.36527212,5.61871408 5.08097484,5.61871408 L1.05595335,5.61871408 C0.779680363,5.61871408 0.639320451,5.40201566 0.736427439,5.1503168 L2.88775351,-0.425866237 Z" id="Triangle-1" transform="translate(3.069450, 2.500722) rotate(90.000000) translate(-3.069450, -2.500722) "></path>
            </g>
            <path d="M9.44311523,3 L1.47920477,3 C1.20832097,3 0.988726259,2.76806641 0.988726259,2.5 C0.988726259,2.5 1.0024159,2 1.47920477,2 L9.44311523,2 C9.71399904,2 9.93359375,2.23193359 9.93359375,2.5 C9.93359375,2.77614237 9.71853638,3 9.44311523,3 Z" id="Rectangle-144"></path>
        </g>
        <g id="Group-18-Copy" transform="translate(107.921216, 44.256050)" fill="#8D9EB0">
            <g id="triangle" transform="translate(19.933594, 2.500000) scale(-1, 1) rotate(180.000000) translate(-19.933594, -2.500000) translate(16.933594, 0.000000)">
                <path d="M2.88775351,-0.425866237 C2.98755721,-0.684554916 3.15206769,-0.677565105 3.24917468,-0.425866237 L5.40050076,5.1503168 C5.50030446,5.40900548 5.36527212,5.61871408 5.08097484,5.61871408 L1.05595335,5.61871408 C0.779680363,5.61871408 0.639320451,5.40201566 0.736427439,5.1503168 L2.88775351,-0.425866237 Z" id="Triangle-1" transform="translate(3.069450, 2.500722) rotate(90.000000) translate(-3.069450, -2.500722) "></path>
            </g>
            <path d="M19.4431152,3 L1.47920477,3 C1.20832097,3 0.988726259,2.76806641 0.988726259,2.5 C0.988726259,2.5 1.0024159,2 1.47920477,2 L19.4431152,2 C19.713999,2 19.9335937,2.23193359 19.9335937,2.5 C19.9335937,2.77614237 19.7185364,3 19.4431152,3 Z" id="Rectangle-144"></path>
        </g>
        <path d="M24.1371521,143.258382 C24.1371521,143.670912 24.0996493,144.083443 24.0621465,144.383465 L17.6304176,144.383465 C17.6679204,146.296108 18.549236,147.139921 20.2743645,147.139921 C21.3619454,147.139921 22.1682555,146.746141 22.9370627,146.314859 L23.7621242,147.702462 C22.9183113,148.34001 21.5682108,148.8838 20.1243533,148.8838 C17.0866271,148.8838 15.3614986,146.877401 15.3614986,144.1772 L15.3614986,143.145873 C15.3614986,140.445672 17.0491243,138.40177 19.824331,138.40177 C22.5432834,138.40177 24.1371521,140.089396 24.1371521,143.258382 Z M22.0557471,142.864602 L22.0557471,142.770845 C22.0557471,141.045717 21.2869399,140.108147 19.8430823,140.108147 C18.4179762,140.108147 17.6679204,141.045717 17.6304176,142.864602 L22.0557471,142.864602 Z" id="e" fill="#8D9EB0"></path>
        <polygon id="E" fill="#8D9EB0" points="259.893905 79.6018436 254.58726 79.6018436 254.58726 83.3333715 259.481375 83.3333715 259.481375 85.1522569 254.58726 85.1522569 254.58726 89.0712987 259.893905 89.0712987 259.893905 90.9089355 252.224584 90.9089355 252.224584 77.7829582 259.893905 77.7829582"></polygon>
        <path d="M174.931729,125.139102 L177.256902,125.139102 L177.256902,139.015136 L175.438017,139.015136 L175.194248,137.927555 C174.53795,138.733865 173.675385,139.258904 172.456545,139.258904 C170.131371,139.258904 168.5,137.402516 168.5,134.552303 L168.5,133.502225 C168.5,130.764521 170.150123,128.776873 172.569053,128.776873 C173.544126,128.776873 174.294181,129.076896 174.931729,129.658189 L174.931729,125.139102 Z M172.869075,137.515024 C173.787894,137.515024 174.40669,137.064991 174.931729,136.352437 L174.931729,131.364566 C174.519198,130.914533 173.825397,130.539505 172.962832,130.539505 C171.631483,130.539505 170.825173,131.55208 170.825173,133.445971 L170.825173,134.589806 C170.825173,136.577454 171.612732,137.515024 172.869075,137.515024 Z" id="d" fill="#8D9EB0"></path>
        <polygon id="L" fill="#8D9EB0" points="98.6746035 51.2844104 104 51.2844104 104 53.1970528 96.3119275 53.1970528 96.3119275 40.0710754 98.6746035 40.0710754"></polygon>
        <g id="Group-17-Copy" transform="translate(54.952256, 142.142785)" fill="#8D9EB0">
            <g id="triangle" transform="translate(4.933594, 2.500000) scale(-1, 1) translate(-4.933594, -2.500000) translate(0.933594, 0.000000)">
                <path d="M3.88775351,-0.425866237 C3.98755721,-0.684554916 4.15206769,-0.677565105 4.24917468,-0.425866237 L6.40050076,5.1503168 C6.50030446,5.40900548 6.36527212,5.61871408 6.08097484,5.61871408 L2.05595335,5.61871408 C1.77968036,5.61871408 1.63932045,5.40201566 1.73642744,5.1503168 L3.88775351,-0.425866237 Z" id="Triangle-1" transform="translate(4.069450, 2.500722) rotate(90.000000) translate(-4.069450, -2.500722) "></path>
            </g>
            <rect id="Rectangle-144" x="4.93359375" y="2" width="9" height="1" rx="0.5"></rect>
        </g>
        <g id="Group-17-Copy" transform="translate(65.278089, 44.256050)" fill="#8D9EB0">
            <g id="triangle" transform="translate(4.933594, 2.500000) scale(-1, 1) translate(-4.933594, -2.500000) translate(0.933594, 0.000000)">
                <path d="M3.88775351,-0.425866237 C3.98755721,-0.684554916 4.15206769,-0.677565105 4.24917468,-0.425866237 L6.40050076,5.1503168 C6.50030446,5.40900548 6.36527212,5.61871408 6.08097484,5.61871408 L2.05595335,5.61871408 C1.77968036,5.61871408 1.63932045,5.40201566 1.73642744,5.1503168 L3.88775351,-0.425866237 Z" id="Triangle-1" transform="translate(4.069450, 2.500722) rotate(90.000000) translate(-4.069450, -2.500722) "></path>
            </g>
            <rect id="Rectangle-144" x="4.93359375" y="2" width="19" height="1" rx="0.5"></rect>
        </g>
        <g id="Group-18-Copy" transform="translate(25.278089, 142.142785)" fill="#8D9EB0">
            <g id="triangle" transform="translate(9.933594, 2.500000) scale(-1, 1) rotate(180.000000) translate(-9.933594, -2.500000) translate(6.933594, 0.000000)">
                <path d="M2.88775351,-0.425866237 C2.98755721,-0.684554916 3.15206769,-0.677565105 3.24917468,-0.425866237 L5.40050076,5.1503168 C5.50030446,5.40900548 5.36527212,5.61871408 5.08097484,5.61871408 L1.05595335,5.61871408 C0.779680363,5.61871408 0.639320451,5.40201566 0.736427439,5.1503168 L2.88775351,-0.425866237 Z" id="Triangle-1" transform="translate(3.069450, 2.500722) rotate(90.000000) translate(-3.069450, -2.500722) "></path>
            </g>
            <path d="M9.44311523,3 L1.47920477,3 C1.20832097,3 0.988726259,2.76806641 0.988726259,2.5 C0.988726259,2.5 1.0024159,2 1.47920477,2 L9.44311523,2 C9.71399904,2 9.93359375,2.23193359 9.93359375,2.5 C9.93359375,2.77614237 9.71853638,3 9.44311523,3 Z" id="Rectangle-144"></path>
        </g>
        <rect id="Rectangle-93-Copy-10" fill="#8D9EB0" x="66.3199274" y="108.574189" width="1" height="28.2049268" rx="0.5"></rect>
        <g id="Group-17-Copy-2" transform="translate(65.141357, 130.198348)" fill="#8D9EB0">
            <g id="triangle" transform="translate(4.933594, 2.500000) scale(-1, 1) translate(-4.933594, -2.500000) translate(0.933594, 0.000000)">
                <path d="M3.88775351,-0.425866237 C3.98755721,-0.684554916 4.15206769,-0.677565105 4.24917468,-0.425866237 L6.40050076,5.1503168 C6.50030446,5.40900548 6.36527212,5.61871408 6.08097484,5.61871408 L2.05595335,5.61871408 C1.77968036,5.61871408 1.63932045,5.40201566 1.73642744,5.1503168 L3.88775351,-0.425866237 Z" id="Triangle-1" transform="translate(4.069450, 2.500722) rotate(90.000000) translate(-4.069450, -2.500722) "></path>
            </g>
            <rect id="Rectangle-144" x="4.93359375" y="2" width="9" height="1" rx="0.5"></rect>
        </g>
        <g id="Group-18-Copy-3" transform="translate(43.000000, 130.198348)" fill="#8D9EB0">
            <g id="triangle" transform="translate(9.933594, 2.500000) scale(-1, 1) rotate(180.000000) translate(-9.933594, -2.500000) translate(6.933594, 0.000000)">
                <path d="M2.88775351,-0.425866237 C2.98755721,-0.684554916 3.15206769,-0.677565105 3.24917468,-0.425866237 L5.40050076,5.1503168 C5.50030446,5.40900548 5.36527212,5.61871408 5.08097484,5.61871408 L1.05595335,5.61871408 C0.779680363,5.61871408 0.639320451,5.40201566 0.736427439,5.1503168 L2.88775351,-0.425866237 Z" id="Triangle-1" transform="translate(3.069450, 2.500722) rotate(90.000000) translate(-3.069450, -2.500722) "></path>
            </g>
            <path d="M9.44311523,3 L1.47920477,3 C1.20832097,3 0.988726259,2.76806641 0.988726259,2.5 C0.988726259,2.5 1.0024159,2 1.47920477,2 L9.44311523,2 C9.71399904,2 9.93359375,2.23193359 9.93359375,2.5 C9.93359375,2.77614237 9.71853638,3 9.44311523,3 Z" id="Rectangle-144"></path>
        </g>
        <path d="M83.3315725,136.828373 L88.6569691,136.828373 L88.6569691,138.741015 L80.9688966,138.741015 L80.9688966,125.615038 L83.3315725,125.615038 L83.3315725,136.828373 Z M94.9386868,136.959633 L97.2451086,136.959633 L97.2451086,138.741015 L89.9695668,138.741015 L89.9695668,136.959633 L92.6510165,136.959633 L92.6510165,128.165228 L90.3820975,129.290312 L89.5195333,127.752697 L93.194807,125.615038 L94.9386868,125.615038 L94.9386868,136.959633 Z" id="L1" fill="#8D9EB0"></path>
        <path d="M9,106.5 C9,106.223858 9.22580998,106 9.50162828,106 L64.5430014,106 C64.820043,106 65.0450906,106.231934 65.0456233,106.5 L65.0456233,106.5 C65.0461721,106.776142 64.820799,107 64.544971,107 L9.50164607,107 C9.2245946,107 9,106.768066 9,106.5 L9,106.5 Z" id="Rectangle-132-Copy-4" fill="#8D9EB0"></path>
        <g id="Group-2-Copy-2" transform="translate(19.000000, 102.000000) scale(1, -1) translate(-19.000000, -102.000000) translate(16.000000, 97.000000)" fill="#8D9EB0">
            <g id="triangle" transform="translate(2.525734, 3.950073) rotate(-90.000000) translate(-2.525734, -3.950073) translate(-0.474266, 1.450073)">
                <path d="M2.88775351,-0.425866237 C2.98755721,-0.684554916 3.15206769,-0.677565105 3.24917468,-0.425866237 L5.40050076,5.1503168 C5.50030446,5.40900548 5.36527212,5.61871408 5.08097484,5.61871408 L1.05595335,5.61871408 C0.779680363,5.61871408 0.639320451,5.40201566 0.736427439,5.1503168 L2.88775351,-0.425866237 Z" id="Triangle-1" transform="translate(3.069450, 2.500722) rotate(90.000000) translate(-3.069450, -2.500722) "></path>
            </g>
            <rect id="Rectangle-134" x="2.0257342" y="1.95007324" width="1" height="8" rx="0.5"></rect>
        </g>
        <g id="Group-2-Copy-3" transform="translate(16.000000, 106.000000)" fill="#8D9EB0">
            <g id="triangle" transform="translate(2.500000, 22.500000) rotate(-90.000000) translate(-2.500000, -22.500000) translate(-1.500000, 20.000000)">
                <path d="M3.88775351,-0.425866237 C3.98755721,-0.684554916 4.15206769,-0.677565105 4.24917468,-0.425866237 L6.40050076,5.1503168 C6.50030446,5.40900548 6.36527212,5.61871408 6.08097484,5.61871408 L2.05595335,5.61871408 C1.77968036,5.61871408 1.63932045,5.40201566 1.73642744,5.1503168 L3.88775351,-0.425866237 Z" id="Triangle-1" transform="translate(4.069450, 2.500722) rotate(90.000000) translate(-4.069450, -2.500722) "></path>
            </g>
            <path d="M2,21.5004358 C2,21.2240528 2.23193359,21 2.5,21 L2.5,21 C2.77614237,21 3,21.2307968 3,21.5004358 L3,28.4995642 C3,28.7759472 2.76806641,29 2.5,29 L2.5,29 C2.22385763,29 2,28.7692032 2,28.4995642 L2,21.5004358 Z" id="Rectangle-134"></path>
            <rect id="Rectangle-134-Copy" x="2" y="0" width="1" height="20" rx="0.5"></rect>
        </g>
        <rect id="Rectangle-132-Copy-3" fill="#8D9EB0" x="9" y="125" width="26" height="1" rx="0.5"></rect>
        <path d="M13.3626759,93.4571031 L18.6880725,93.4571031 L18.6880725,95.3697455 L11,95.3697455 L11,82.2437682 L13.3626759,82.2437682 L13.3626759,93.4571031 Z M21.838307,93.4571031 L27.9700136,93.4571031 L27.9700136,95.3697455 L19.5131339,95.3697455 L19.5131339,94.0383964 C19.5131339,91.7132233 20.6382177,90.4381283 22.1570808,89.3880501 L23.9572148,88.150458 C25.1385528,87.3441479 25.5885863,86.8566116 25.5885863,85.9940474 L25.5885863,85.5440139 C25.5885863,84.7564553 24.9697902,83.8376368 23.4134243,83.8376368 C22.2883406,83.8376368 21.4070249,84.175162 20.2819412,84.9627206 L19.231863,83.5376145 C20.4507037,82.5812933 21.8195556,82 23.5634355,82 C26.3948963,82 27.9512622,83.7063771 27.9512622,85.4690083 L27.9512622,86.0503016 C27.9512622,87.3441479 27.1637036,88.4879831 25.1385528,89.8005808 L23.6946953,90.7381507 C22.2320864,91.6944719 21.8758098,92.4632791 21.838307,93.4571031 Z" id="L2" fill="#8D9EB0"></path>
    </g>
</svg>