<?xml version="1.0" encoding="UTF-8" standalone="no"?>
<svg width="290px" height="175px" viewBox="0 0 290 175" version="1.1" xmlns="http://www.w3.org/2000/svg" xmlns:xlink="http://www.w3.org/1999/xlink" >
    <!-- Generator: Sketch 48.2 (47327) - http://www.bohemiancoding.com/sketch -->
    <title>MELF-Labeled</title>
    <desc>Created with Sketch.</desc>
    <defs></defs>
    <g stroke="none" stroke-width="1" fill="none" fill-rule="evenodd">
        <g>
            <g transform="translate(15.772295, -3.521853)">
                <g transform="translate(24.300000, 65.520000)">
                    <ellipse stroke="#979797" fill="#D8D8D8" cx="25.691792" cy="25.48" rx="25.515" ry="25.48"></ellipse>
                    <g transform="translate(89.888643, 0.606667)">
                        <rect stroke="#979797" fill="#585858" x="12.6299487" y="2.45036458" width="79.2301025" height="45.4526042"></rect>
                        <rect stroke="#979797" fill="#D8D8D8" x="0.390959473" y="1.20444661" width="12.1108447" height="47.8970443"></rect>
                        <rect fill="#C2C2C2" x="0.997717896" y="1.75779297" width="10.8973279" height="3.99961589"></rect>
                        <rect fill="#C2C2C2" x="0.997717896" y="44.4608464" width="10.8973279" height="3.99961589"></rect>
                        <rect stroke="#979797" fill="#D8D8D8" x="91.7621631" y="1.20444661" width="12.1108447" height="47.8970443"></rect>
                        <rect fill="#C2C2C2" x="92.3422247" y="1.75779297" width="10.8973279" height="3.99961589"></rect>
                        <rect fill="#C2C2C2" x="92.3422247" y="44.4608464" width="10.8973279" height="3.99961589"></rect>
                    </g>
                    <rect fill="#252424" opacity="0.151002799" x="103.16317" y="3.83017578" width="77.7419055" height="6.0844401"></rect>
                    <rect fill="#252424" opacity="0.151002799" x="103.16317" y="41.2533333" width="77.7419055" height="6.0844401"></rect>
                </g>
            </g>
            <polygon fill="#8D9EB0" points="158.20523 131.115617 163.530626 131.115617 163.530626 133.028259 155.842554 133.028259 155.842554 119.902282 158.20523 119.902282"></polygon>
            <path d="M181.655056,41.6779167 C185.217821,41.6779167 186.999204,43.778073 186.999204,46.9283076 L186.999204,49.2534807 C186.999204,52.6662349 184.974053,54.803894 181.186271,54.803894 L177.360986,54.803894 L177.360986,41.6779167 L181.655056,41.6779167 Z M184.636528,49.2909835 L184.636528,46.8720534 C184.636528,44.7343942 183.623953,43.4968021 181.542548,43.4968021 L179.723662,43.4968021 L179.723662,52.9850086 L181.205023,52.9850086 C183.492693,52.9850086 184.636528,51.7849192 184.636528,49.2909835 Z" fill="#8D9EB0"></path>
            <path d="M233.435791,44.7357435 C233.435791,44.4648792 233.667725,44.2453003 233.935791,44.2453003 L233.935791,44.2453003 C234.211933,44.2453003 234.435791,44.4602431 234.435791,44.7357435 L234.435791,60.7548571 C234.435791,61.0257214 234.203857,61.2453003 233.935791,61.2453003 L233.935791,61.2453003 C233.659649,61.2453003 233.435791,61.0303575 233.435791,60.7548571 L233.435791,44.7357435 Z" fill="#8D9EB0"></path>
            <rect fill="#8D9EB0" x="129.835815" y="44.0097656" width="1" height="17.4710693" rx="0.5"></rect>
            <g transform="translate(131.627441, 44.798251)" fill="#8D9EB0">
                <g transform="translate(3.000000, 2.500000) scale(-1, 1) translate(-3.000000, -2.500000) ">
                    <path d="M2.88775351,-0.425866237 C2.98755721,-0.684554916 3.15206769,-0.677565105 3.24917468,-0.425866237 L5.40050076,5.1503168 C5.50030446,5.40900548 5.36527212,5.61871408 5.08097484,5.61871408 L1.05595335,5.61871408 C0.779680363,5.61871408 0.639320451,5.40201566 0.736427439,5.1503168 L2.88775351,-0.425866237 Z" transform="translate(3.069450, 2.500722) rotate(90.000000) translate(-3.069450, -2.500722) "></path>
                </g>
                <rect x="2.85259834" y="1.88944875" width="38" height="1" rx="0.5"></rect>
            </g>
            <g transform="translate(211.127441, 47.298251) scale(-1, 1) translate(-211.127441, -47.298251) translate(190.627441, 44.798251)" fill="#8D9EB0">
                <g transform="translate(3.000000, 2.500000) scale(-1, 1) translate(-3.000000, -2.500000) ">
                    <path d="M2.88775351,-0.425866237 C2.98755721,-0.684554916 3.15206769,-0.677565105 3.24917468,-0.425866237 L5.40050076,5.1503168 C5.50030446,5.40900548 5.36527212,5.61871408 5.08097484,5.61871408 L1.05595335,5.61871408 C0.779680363,5.61871408 0.639320451,5.40201566 0.736427439,5.1503168 L2.88775351,-0.425866237 Z" transform="translate(3.069450, 2.500722) rotate(90.000000) translate(-3.069450, -2.500722) "></path>
                </g>
                <rect x="2.85259834" y="1.88944875" width="37.8925189" height="1" rx="0.5"></rect>
            </g>
            <rect fill="#8D9EB0" x="141.860902" y="112.695312" width="1" height="16.5117188" rx="0.5"></rect>
            <rect fill="#8D9EB0" x="129.8631" y="112.695312" width="1" height="16.5117188" rx="0.5"></rect>
            <g transform="translate(104.657477, 62.666748)" fill="#8D9EB0">
                <rect x="0.975335305" y="0.705408964" width="22.8918458" height="1" rx="0.5"></rect>
                <rect x="0.975335305" y="48.5149793" width="22.8918458" height="1" rx="0.5"></rect>
                <g transform="translate(2.599621, 1.683314)">
                    <g transform="translate(3.184082, 3.484497) rotate(-90.000000) translate(-3.184082, -3.484497) translate(0.184082, 0.984497)">
                        <path d="M2.88775351,-0.425866237 C2.98755721,-0.684554916 3.15206769,-0.677565105 3.24917468,-0.425866237 L5.40050076,5.1503168 C5.50030446,5.40900548 5.36527212,5.61871408 5.08097484,5.61871408 L1.05595335,5.61871408 C0.779680363,5.61871408 0.639320451,5.40201566 0.736427439,5.1503168 L2.88775351,-0.425866237 Z" transform="translate(3.069450, 2.500722) rotate(90.000000) translate(-3.069450, -2.500722) "></path>
                    </g>
                    <rect x="2.68408203" y="3.48449707" width="1" height="11.9901473" rx="0.5"></rect>
                </g>
                <g transform="translate(5.599621, 40.683314) scale(1, -1) translate(-5.599621, -40.683314) translate(2.599621, 32.683314)">
                    <g transform="translate(3.184082, 3.484497) rotate(-90.000000) translate(-3.184082, -3.484497) translate(0.184082, 0.984497)">
                        <path d="M2.88775351,-0.425866237 C2.98755721,-0.684554916 3.15206769,-0.677565105 3.24917468,-0.425866237 L5.40050076,5.1503168 C5.50030446,5.40900548 5.36527212,5.61871408 5.08097484,5.61871408 L1.05595335,5.61871408 C0.779680363,5.61871408 0.639320451,5.40201566 0.736427439,5.1503168 L2.88775351,-0.425866237 Z" transform="translate(3.069450, 2.500722) rotate(90.000000) translate(-3.069450, -2.500722) "></path>
                    </g>
                    <rect x="2.68408203" y="3.48449707" width="1" height="12" rx="0.5"></rect>
                </g>
            </g>
            <g transform="translate(104.551758, 73.985352)" fill="#8D9EB0">
                <polygon points="9.9601171 8.73581577 4.65347195 8.73581577 4.65347195 12.4673436 9.54758638 12.4673436 9.54758638 14.2862291 4.65347195 14.2862291 4.65347195 18.2052709 9.9601171 18.2052709 9.9601171 20.0429077 2.29079602 20.0429077 2.29079602 6.91693033 9.9601171 6.91693033"></polygon>
            </g>
            <g transform="translate(144.849779, 124.618442)" fill="#8D9EB0">
                <g transform="translate(2.026855, 1.500000) scale(-1, 1) translate(-2.026855, -1.500000) translate(-0.973145, -1.000000)">
                    <path d="M2.88775351,-0.425866237 C2.98755721,-0.684554916 3.15206769,-0.677565105 3.24917468,-0.425866237 L5.40050076,5.1503168 C5.50030446,5.40900548 5.36527212,5.61871408 5.08097484,5.61871408 L1.05595335,5.61871408 C0.779680363,5.61871408 0.639320451,5.40201566 0.736427439,5.1503168 L2.88775351,-0.425866237 Z" transform="translate(3.069450, 2.500722) rotate(90.000000) translate(-3.069450, -2.500722) "></path>
                </g>
                <rect x="1.8794538" y="0.889448752" width="6.15211461" height="1" rx="0.5"></rect>
            </g>
            <g transform="translate(123.015307, 126.118442) scale(-1, 1) translate(-123.015307, -126.118442) translate(118.515307, 124.618442)" fill="#8D9EB0">
                <g transform="translate(2.026855, 1.500000) scale(-1, 1) translate(-2.026855, -1.500000) translate(-0.973145, -1.000000)">
                    <path d="M2.88775351,-0.425866237 C2.98755721,-0.684554916 3.15206769,-0.677565105 3.24917468,-0.425866237 L5.40050076,5.1503168 C5.50030446,5.40900548 5.36527212,5.61871408 5.08097484,5.61871408 L1.05595335,5.61871408 C0.779680363,5.61871408 0.639320451,5.40201566 0.736427439,5.1503168 L2.88775351,-0.425866237 Z" transform="translate(3.069450, 2.500722) rotate(90.000000) translate(-3.069450, -2.500722) "></path>
                </g>
                <rect x="1.8794538" y="0.889448752" width="6.15211461" height="1" rx="0.5"></rect>
            </g>
        </g>
    </g>
</svg>
