<?xml version="1.0" encoding="UTF-8" standalone="no"?>
<svg width="200px" height="150px" viewBox="0 0 200 150" version="1.1" xmlns="http://www.w3.org/2000/svg" xmlns:xlink="http://www.w3.org/1999/xlink">
    <!-- Generator: Sketch 48.2 (47327) - http://www.bohemiancoding.com/sketch -->
    <title>Molded-Body</title>
    <desc>Created with Sketch.</desc>
    <defs>
        <path d="M17,56.0087752 C17,55.451644 17.449543,55 17.9923358,55 L68.0076642,55 C68.5557161,55 69,55.4492188 69,56.0087752 L69,93.9912248 C69,94.548356 68.550457,95 68.0076642,95 L17.9923358,95 C17.4442839,95 17,94.5507812 17,93.9912248 L17,56.0087752 Z" id="path-1"></path>
        <path d="M19,56 L27,56 L27,94 L19,94 C18.4477153,94 18,93.5522847 18,93 L18,57 C18,56.4477153 18.4477153,56 19,56 Z" id="path-2"></path>
        <path d="M181,57.2222222 C181,55.9947772 180.04541,55 179.068182,55 L97.9318182,55 C96.9597435,55 96,55.9887695 96,57.2222222 L96,92.7777778 C96,94.0052228 96.9545898,95 97.9318182,95 L179.068182,95 C180.040256,95 181,94.0112305 181,92.7777778 L181,57.2222222" id="path-3"></path>
        <polygon id="path-4" points="53 63 71 63 71 87 53 87"></polygon>
        <rect id="path-5" x="94" y="63" width="18" height="24"></rect>
        <polygon id="path-6" points="165 63 183 63 183 87 165 87"></polygon>
    </defs>
    <g stroke="none" stroke-width="1" fill="none" fill-rule="evenodd">
        <g>
            <g>
                <use fill="#585858" fill-rule="evenodd" xlink:href="#path-1"></use>
                <path stroke="#505050" stroke-width="1" d="M17.5,56.0087752 L17.5,93.9912248 C17.5,94.2754407 17.7212673,94.5 17.9923358,94.5 L68.0076642,94.5 C68.2746909,94.5 68.5,94.2717938 68.5,93.9912248 L68.5,56.0087752 C68.5,55.7245593 68.2787327,55.5 68.0076642,55.5 L17.9923358,55.5 C17.7253091,55.5 17.5,55.7282062 17.5,56.0087752 Z"></path>
            </g>
            <g>
                <use fill="#767676" fill-rule="evenodd" xlink:href="#path-2"></use>
                <path stroke="#505050" stroke-width="1" d="M19,55.5 L27.5,55.5 L27.5,94.5 L19,94.5 C18.1715729,94.5 17.5,93.8284271 17.5,93 L17.5,57 C17.5,56.1715729 18.1715729,55.5 19,55.5 Z"></path>
            </g>
            <g>
                <use fill="#585858" fill-rule="evenodd" xlink:href="#path-3"></use>
                <path stroke="#505050" stroke-width="1" d="M180.5,57.2222222 C180.5,56.2941338 179.787474,55.5 179.068182,55.5 L97.9318182,55.5 C97.2135786,55.5 96.5,56.2924075 96.5,57.2222222 L96.5,92.7777778 C96.5,93.7058662 97.2125255,94.5 97.9318182,94.5 L179.068182,94.5 C179.786421,94.5 180.5,93.7075925 180.5,92.7777778 L180.5,57.2222222 Z"></path>
            </g>
            <g>
                <use fill="#D8D8D8" fill-rule="evenodd" xlink:href="#path-4"></use>
                <path stroke="#979797" stroke-width="1" d="M53.5,63.5 L53.5,86.5 L70.5,86.5 L70.5,63.5 L53.5,63.5 Z"></path>
            </g>
            <g>
                <use fill="#D8D8D8" fill-rule="evenodd" xlink:href="#path-5"></use>
                <rect stroke="#979797" stroke-width="1" x="94.5" y="63.5" width="17" height="23"></rect>
            </g>
            <g>
                <use fill="#D8D8D8" fill-rule="evenodd" xlink:href="#path-6"></use>
                <path stroke="#979797" stroke-width="1.12896" d="M165.56448,63.56448 L165.56448,86.43552 L182.43552,86.43552 L182.43552,63.56448 L165.56448,63.56448 Z"></path>
            </g>
        </g>
    </g>
</svg>