<?xml version="1.0" encoding="UTF-8" standalone="no"?>
<svg width="290px" height="175px" viewBox="0 0 290 175" version="1.1" xmlns="http://www.w3.org/2000/svg" xmlns:xlink="http://www.w3.org/1999/xlink">
    <!-- Generator: Sketch 48.2 (47327) - http://www.bohemiancoding.com/sketch -->
    <title>Molded-Body-Labeled</title>
    <desc>Created with Sketch.</desc>
    <defs>
        <path d="M20.655,67.7247978 C20.655,67.1772271 21.1095447,66.7333333 21.6474069,66.7333333 L82.8425931,66.7333333 C83.3906843,66.7333333 83.835,67.1828033 83.835,67.7247978 L83.835,114.275202 C83.835,114.822773 83.3804553,115.266667 82.8425931,115.266667 L21.6474069,115.266667 C21.0993157,115.266667 20.655,114.817197 20.655,114.275202 L20.655,67.7247978 Z" id="path-1"></path>
        <path d="M22.87,67.9466667 L32.805,67.9466667 L32.805,114.053333 L22.87,114.053333 C22.3177153,114.053333 21.87,113.605618 21.87,113.053333 L21.87,68.9466667 C21.87,68.3943819 22.3177153,67.9466667 22.87,67.9466667 Z" id="path-2"></path>
        <path d="M219.915,69.4296296 C219.915,67.9403296 218.755173,66.7333333 217.567841,66.7333333 L118.987159,66.7333333 C117.806088,66.7333333 116.64,67.9330404 116.64,69.4296296 L116.64,112.57037 C116.64,114.05967 117.799827,115.266667 118.987159,115.266667 L217.567841,115.266667 C218.748912,115.266667 219.915,114.06696 219.915,112.57037 L219.915,69.4296296" id="path-3"></path>
        <polygon id="path-4" points="64.395 76.44 86.265 76.44 86.265 105.56 64.395 105.56"></polygon>
        <rect id="path-5" x="114.21" y="76.44" width="21.87" height="29.12"></rect>
        <polygon id="path-6" points="200.475 76.44 222.345 76.44 222.345 105.56 200.475 105.56"></polygon>
    </defs>
    <g stroke="none" stroke-width="1" fill="none" fill-rule="evenodd">
        <g>
            <g transform="translate(15.772295, -3.521853)">
                <g>
                    <use fill="#585858" fill-rule="evenodd" xlink:href="#path-1"></use>
                    <path stroke="#505050" stroke-width="1" d="M21.155,67.7247978 L21.155,114.275202 C21.155,114.543307 21.3777065,114.766667 21.6474069,114.766667 L82.8425931,114.766667 C83.1087422,114.766667 83.335,114.542222 83.335,114.275202 L83.335,67.7247978 C83.335,67.4566927 83.1122935,67.2333333 82.8425931,67.2333333 L21.6474069,67.2333333 C21.3812578,67.2333333 21.155,67.4577783 21.155,67.7247978 Z"></path>
                </g>
                <g>
                    <use fill="#767676" fill-rule="evenodd" xlink:href="#path-2"></use>
                    <path stroke="#505050" stroke-width="1" d="M22.87,67.4466667 L33.305,67.4466667 L33.305,114.553333 L22.87,114.553333 C22.0415729,114.553333 21.37,113.88176 21.37,113.053333 L21.37,68.9466667 C21.37,68.1182395 22.0415729,67.4466667 22.87,67.4466667 Z"></path>
                </g>
                <g>
                    <use fill="#585858" fill-rule="evenodd" xlink:href="#path-3"></use>
                    <path stroke="#505050" stroke-width="1" d="M219.415,69.4296296 C219.415,68.2471952 218.504077,67.2333333 217.567841,67.2333333 L118.987159,67.2333333 C118.0523,67.2333333 117.14,68.2450254 117.14,69.4296296 L117.14,112.57037 C117.14,113.752805 118.050923,114.766667 118.987159,114.766667 L217.567841,114.766667 C218.5027,114.766667 219.415,113.754975 219.415,112.57037 L219.415,69.4296296 Z"></path>
                </g>
                <g>
                    <use fill="#D8D8D8" fill-rule="evenodd" xlink:href="#path-4"></use>
                    <path stroke="#979797" stroke-width="1" d="M64.895,76.94 L64.895,105.06 L85.765,105.06 L85.765,76.94 L64.895,76.94 Z"></path>
                </g>
                <g>
                    <use fill="#D8D8D8" fill-rule="evenodd" xlink:href="#path-5"></use>
                    <rect stroke="#979797" stroke-width="1" x="114.71" y="76.94" width="20.87" height="28.12"></rect>
                </g>
                <g>
                    <use fill="#D8D8D8" fill-rule="evenodd" xlink:href="#path-6"></use>
                    <path stroke="#979797" stroke-width="1.12896" d="M201.03948,77.00448 L201.03948,104.99552 L221.78052,104.99552 L221.78052,77.00448 L201.03948,77.00448 Z"></path>
                </g>
            </g>
            <path d="M192.8273,131.115617 L198.152697,131.115617 L198.152697,133.028259 L190.464624,133.028259 L190.464624,119.902282 L192.8273,119.902282 L192.8273,131.115617 Z M204.434414,131.246877 L206.740836,131.246877 L206.740836,133.028259 L199.465294,133.028259 L199.465294,131.246877 L202.146744,131.246877 L202.146744,122.452472 L199.877825,123.577556 L199.015261,122.039941 L202.690535,119.902282 L204.434414,119.902282 L204.434414,131.246877 Z" fill="#8D9EB0"></path>
            <path d="M183.655056,41.6779167 C187.217821,41.6779167 188.999204,43.778073 188.999204,46.9283076 L188.999204,49.2534807 C188.999204,52.6662349 186.974053,54.803894 183.186271,54.803894 L179.360986,54.803894 L179.360986,41.6779167 L183.655056,41.6779167 Z M186.636528,49.2909835 L186.636528,46.8720534 C186.636528,44.7343942 185.623953,43.4968021 183.542548,43.4968021 L181.723662,43.4968021 L181.723662,52.9850086 L183.205023,52.9850086 C185.492693,52.9850086 186.636528,51.7849192 186.636528,49.2909835 Z" fill="#8D9EB0"></path>
            <path d="M71.674031,54.803894 L70.58645,51.3536371 L66.0486121,51.3536371 L65.0547881,54.803894 L62.6733608,54.803894 L66.6861596,41.6779167 L69.8926484,41.6779167 L74.1117125,54.803894 L71.674031,54.803894 Z M68.2800283,43.3280395 L66.5736512,49.4597461 L70.0239081,49.4597461 L68.2800283,43.3280395 Z" fill="#8D9EB0"></path>
            <path d="M234.609619,44.7357435 C234.609619,44.4648792 234.841553,44.2453003 235.109619,44.2453003 L235.109619,44.2453003 C235.385762,44.2453003 235.609619,44.4602431 235.609619,44.7357435 L235.609619,60.7548571 C235.609619,61.0257214 235.377686,61.2453003 235.109619,61.2453003 L235.109619,61.2453003 C234.833477,61.2453003 234.609619,61.0303575 234.609619,60.7548571 L234.609619,44.7357435 Z" fill="#8D9EB0"></path>
            <rect fill="#8D9EB0" x="132.835815" y="44.0097656" width="1" height="17.4710693" rx="0.5"></rect>
            <rect fill="#8D9EB0" x="36.727417" y="44.0097656" width="1" height="17.4710693" rx="0.5"></rect>
            <rect fill="#8D9EB0" x="98.727417" y="44.0097656" width="1" height="17.4710693" rx="0.5"></rect>
            <g transform="translate(134.627441, 44.798251)" fill="#8D9EB0">
                <g transform="translate(3.000000, 2.500000) scale(-1, 1) translate(-3.000000, -2.500000) ">
                    <path d="M2.88775351,-0.425866237 C2.98755721,-0.684554916 3.15206769,-0.677565105 3.24917468,-0.425866237 L5.40050076,5.1503168 C5.50030446,5.40900548 5.36527212,5.61871408 5.08097484,5.61871408 L1.05595335,5.61871408 C0.779680363,5.61871408 0.639320451,5.40201566 0.736427439,5.1503168 L2.88775351,-0.425866237 Z" transform="translate(3.069450, 2.500722) rotate(90.000000) translate(-3.069450, -2.500722) "></path>
                </g>
                <rect x="2.85259834" y="1.88944875" width="38" height="1" rx="0.5"></rect>
            </g>
            <g transform="translate(38.519043, 44.798251)" fill="#8D9EB0">
                <g transform="translate(3.000000, 2.500000) scale(-1, 1) translate(-3.000000, -2.500000) ">
                    <path d="M2.88775351,-0.425866237 C2.98755721,-0.684554916 3.15206769,-0.677565105 3.24917468,-0.425866237 L5.40050076,5.1503168 C5.50030446,5.40900548 5.36527212,5.61871408 5.08097484,5.61871408 L1.05595335,5.61871408 C0.779680363,5.61871408 0.639320451,5.40201566 0.736427439,5.1503168 L2.88775351,-0.425866237 Z" transform="translate(3.069450, 2.500722) rotate(90.000000) translate(-3.069450, -2.500722) "></path>
                </g>
                <rect x="2.85259834" y="1.88944875" width="22.4584368" height="1" rx="0.5"></rect>
            </g>
            <g transform="translate(85.105957, 47.298251) scale(-1, 1) translate(-85.105957, -47.298251) translate(72.105957, 44.798251)" fill="#8D9EB0">
                <g transform="translate(3.000000, 2.500000) scale(-1, 1) translate(-3.000000, -2.500000) ">
                    <path d="M2.88775351,-0.425866237 C2.98755721,-0.684554916 3.15206769,-0.677565105 3.24917468,-0.425866237 L5.40050076,5.1503168 C5.50030446,5.40900548 5.36527212,5.61871408 5.08097484,5.61871408 L1.05595335,5.61871408 C0.779680363,5.61871408 0.639320451,5.40201566 0.736427439,5.1503168 L2.88775351,-0.425866237 Z" transform="translate(3.069450, 2.500722) rotate(90.000000) translate(-3.069450, -2.500722) "></path>
                </g>
                <rect x="2.85259834" y="1.88944875" width="22.4584368" height="1" rx="0.5"></rect>
            </g>
            <g transform="translate(213.127441, 47.298251) scale(-1, 1) translate(-213.127441, -47.298251) translate(192.627441, 44.798251)" fill="#8D9EB0">
                <g transform="translate(3.000000, 2.500000) scale(-1, 1) translate(-3.000000, -2.500000) ">
                    <path d="M2.88775351,-0.425866237 C2.98755721,-0.684554916 3.15206769,-0.677565105 3.24917468,-0.425866237 L5.40050076,5.1503168 C5.50030446,5.40900548 5.36527212,5.61871408 5.08097484,5.61871408 L1.05595335,5.61871408 C0.779680363,5.61871408 0.639320451,5.40201566 0.736427439,5.1503168 L2.88775351,-0.425866237 Z" transform="translate(3.069450, 2.500722) rotate(90.000000) translate(-3.069450, -2.500722) "></path>
                </g>
                <rect x="2.85259834" y="1.88944875" width="37.8925189" height="1" rx="0.5"></rect>
            </g>
            <rect fill="#8D9EB0" x="237.090395" y="102.574219" width="1" height="26.6328125" rx="0.5"></rect>
            <rect fill="#8D9EB0" x="216.317567" y="102.661621" width="1" height="26.5454102" rx="0.5"></rect>
            <g transform="translate(11.741462, 62.666748)" fill="#8D9EB0">
                <rect x="0.975335305" y="0.705408964" width="22.8918458" height="1" rx="0.5"></rect>
                <rect x="0.975335305" y="47.7439832" width="22.8918458" height="1" rx="0.5"></rect>
                <g transform="translate(2.599621, 1.683314)">
                    <g transform="translate(3.184082, 3.484497) rotate(-90.000000) translate(-3.184082, -3.484497) translate(0.184082, 0.984497)">
                        <path d="M2.88775351,-0.425866237 C2.98755721,-0.684554916 3.15206769,-0.677565105 3.24917468,-0.425866237 L5.40050076,5.1503168 C5.50030446,5.40900548 5.36527212,5.61871408 5.08097484,5.61871408 L1.05595335,5.61871408 C0.779680363,5.61871408 0.639320451,5.40201566 0.736427439,5.1503168 L2.88775351,-0.425866237 Z" transform="translate(3.069450, 2.500722) rotate(90.000000) translate(-3.069450, -2.500722) "></path>
                    </g>
                    <rect x="2.68408203" y="3.48449707" width="1" height="11.9901473" rx="0.5"></rect>
                </g>
                <g transform="translate(5.599621, 39.912318) scale(1, -1) translate(-5.599621, -39.912318) translate(2.599621, 31.912318)">
                    <g transform="translate(3.184082, 3.484497) rotate(-90.000000) translate(-3.184082, -3.484497) translate(0.184082, 0.984497)">
                        <path d="M2.88775351,-0.425866237 C2.98755721,-0.684554916 3.15206769,-0.677565105 3.24917468,-0.425866237 L5.40050076,5.1503168 C5.50030446,5.40900548 5.36527212,5.61871408 5.08097484,5.61871408 L1.05595335,5.61871408 C0.779680363,5.61871408 0.639320451,5.40201566 0.736427439,5.1503168 L2.88775351,-0.425866237 Z" transform="translate(3.069450, 2.500722) rotate(90.000000) translate(-3.069450, -2.500722) "></path>
                    </g>
                    <rect x="2.68408203" y="3.48449707" width="1" height="12" rx="0.5"></rect>
                </g>
            </g>
            <g transform="translate(11.789062, 73.985352)" fill="#8D9EB0">
                <polygon points="9.9601171 8.73581577 4.65347195 8.73581577 4.65347195 12.4673436 9.54758638 12.4673436 9.54758638 14.2862291 4.65347195 14.2862291 4.65347195 18.2052709 9.9601171 18.2052709 9.9601171 20.0429077 2.29079602 20.0429077 2.29079602 6.91693033 9.9601171 6.91693033"></polygon>
            </g>
            <g transform="translate(238.225837, 61.666748)" fill="#8D9EB0">
                <rect x="0.703606789" y="11.4283094" width="22.8918458" height="1" rx="0.5"></rect>
                <rect x="0.703606789" y="39.2359265" width="22.8918458" height="1" rx="0.5"></rect>
                <g transform="translate(10.004895, 41.028041)">
                    <g transform="translate(3.184082, 3.484497) rotate(-90.000000) translate(-3.184082, -3.484497) translate(0.184082, 0.984497)">
                        <path d="M2.88775351,-0.425866237 C2.98755721,-0.684554916 3.15206769,-0.677565105 3.24917468,-0.425866237 L5.40050076,5.1503168 C5.50030446,5.40900548 5.36527212,5.61871408 5.08097484,5.61871408 L1.05595335,5.61871408 C0.779680363,5.61871408 0.639320451,5.40201566 0.736427439,5.1503168 L2.88775351,-0.425866237 Z" transform="translate(3.069450, 2.500722) rotate(90.000000) translate(-3.069450, -2.500722) "></path>
                    </g>
                    <rect x="2.68408203" y="3.48449707" width="1" height="6" rx="0.5"></rect>
                </g>
                <g transform="translate(13.004895, 5.694056) scale(1, -1) translate(-13.004895, -5.694056) translate(10.004895, 0.694056)">
                    <g transform="translate(3.184082, 3.484497) rotate(-90.000000) translate(-3.184082, -3.484497) translate(0.184082, 0.984497)">
                        <path d="M2.88775351,-0.425866237 C2.98755721,-0.684554916 3.15206769,-0.677565105 3.24917468,-0.425866237 L5.40050076,5.1503168 C5.50030446,5.40900548 5.36527212,5.61871408 5.08097484,5.61871408 L1.05595335,5.61871408 C0.779680363,5.61871408 0.639320451,5.40201566 0.736427439,5.1503168 L2.88775351,-0.425866237 Z" transform="translate(3.069450, 2.500722) rotate(90.000000) translate(-3.069450, -2.500722) "></path>
                    </g>
                    <rect x="2.68408203" y="3.48449707" width="1" height="6.28231362" rx="0.5"></rect>
                </g>
            </g>
            <g transform="translate(112.207282, 61.666748)" fill="#8D9EB0">
                <rect x="0.44603843" y="11.4283094" width="16.1494142" height="1" rx="0.5"></rect>
                <rect x="0.44603843" y="39.2359265" width="16.1494142" height="1" rx="0.5"></rect>
                <g transform="translate(3.004895, 41.028041)">
                    <g transform="translate(3.184082, 3.484497) rotate(-90.000000) translate(-3.184082, -3.484497) translate(0.184082, 0.984497)">
                        <path d="M2.88775351,-0.425866237 C2.98755721,-0.684554916 3.15206769,-0.677565105 3.24917468,-0.425866237 L5.40050076,5.1503168 C5.50030446,5.40900548 5.36527212,5.61871408 5.08097484,5.61871408 L1.05595335,5.61871408 C0.779680363,5.61871408 0.639320451,5.40201566 0.736427439,5.1503168 L2.88775351,-0.425866237 Z" transform="translate(3.069450, 2.500722) rotate(90.000000) translate(-3.069450, -2.500722) "></path>
                    </g>
                    <rect x="2.68408203" y="3.48449707" width="1" height="6" rx="0.5"></rect>
                </g>
                <g transform="translate(6.004895, 5.694056) scale(1, -1) translate(-6.004895, -5.694056) translate(3.004895, 0.694056)">
                    <g transform="translate(3.184082, 3.484497) rotate(-90.000000) translate(-3.184082, -3.484497) translate(0.184082, 0.984497)">
                        <path d="M2.88775351,-0.425866237 C2.98755721,-0.684554916 3.15206769,-0.677565105 3.24917468,-0.425866237 L5.40050076,5.1503168 C5.50030446,5.40900548 5.36527212,5.61871408 5.08097484,5.61871408 L1.05595335,5.61871408 C0.779680363,5.61871408 0.639320451,5.40201566 0.736427439,5.1503168 L2.88775351,-0.425866237 Z" transform="translate(3.069450, 2.500722) rotate(90.000000) translate(-3.069450, -2.500722) "></path>
                    </g>
                    <rect x="2.68408203" y="3.48449707" width="1" height="6.28231362" rx="0.5"></rect>
                </g>
            </g>
            <g transform="translate(241.273438, 73.985352)" fill="#8D9EB0">
                <path d="M6.84738532,9.80464535 C9.13505566,9.80464535 10.6351674,11.6422822 10.6351674,14.5299972 L10.6351674,15.5425726 C10.6351674,18.2990279 8.85378472,20.2866759 6.56611437,20.2866759 C5.49728478,20.2866759 4.63472056,19.8928965 3.94091889,19.1803435 L3.75340493,20.0429077 L1.93451949,20.0429077 L1.93451949,6.16687448 L4.25969263,6.16687448 L4.25969263,10.8359721 C4.8972401,10.1796733 5.75980433,9.80464535 6.84738532,9.80464535 Z M8.30999422,15.6175782 L8.30999422,14.4549916 C8.30999422,12.5048464 7.65369535,11.5672766 6.37860041,11.5672766 C5.47853339,11.5672766 4.76598033,11.9985587 4.25969263,12.6361062 L4.25969263,17.6989832 C4.76598033,18.2427737 5.4035278,18.542796 6.17233505,18.542796 C7.46618139,18.542796 8.30999422,17.5302206 8.30999422,15.6175782 Z M17.7044438,18.2615251 L20.0108655,18.2615251 L20.0108655,20.0429077 L12.7353237,20.0429077 L12.7353237,18.2615251 L15.4167734,18.2615251 L15.4167734,9.46712022 L13.1478545,10.592204 L12.2852902,9.0545895 L15.9605639,6.91693033 L17.7044438,6.91693033 L17.7044438,18.2615251 Z"></path>
            </g>
            <g transform="translate(112.254883, 73.985352)" fill="#8D9EB0">
                <path d="M6.84738532,9.80464535 C9.13505566,9.80464535 10.6351674,11.6422822 10.6351674,14.5299972 L10.6351674,15.5425726 C10.6351674,18.2990279 8.85378472,20.2866759 6.56611437,20.2866759 C5.49728478,20.2866759 4.63472056,19.8928965 3.94091889,19.1803435 L3.75340493,20.0429077 L1.93451949,20.0429077 L1.93451949,6.16687448 L4.25969263,6.16687448 L4.25969263,10.8359721 C4.8972401,10.1796733 5.75980433,9.80464535 6.84738532,9.80464535 Z M8.30999422,15.6175782 L8.30999422,14.4549916 C8.30999422,12.5048464 7.65369535,11.5672766 6.37860041,11.5672766 C5.47853339,11.5672766 4.76598033,11.9985587 4.25969263,12.6361062 L4.25969263,17.6989832 C4.76598033,18.2427737 5.4035278,18.542796 6.17233505,18.542796 C7.46618139,18.542796 8.30999422,17.5302206 8.30999422,15.6175782 Z"></path>
            </g>
            <g transform="translate(239.557787, 124.618442)" fill="#8D9EB0">
                <g transform="translate(2.026855, 1.500000) scale(-1, 1) translate(-2.026855, -1.500000) translate(-0.973145, -1.000000)">
                    <path d="M2.88775351,-0.425866237 C2.98755721,-0.684554916 3.15206769,-0.677565105 3.24917468,-0.425866237 L5.40050076,5.1503168 C5.50030446,5.40900548 5.36527212,5.61871408 5.08097484,5.61871408 L1.05595335,5.61871408 C0.779680363,5.61871408 0.639320451,5.40201566 0.736427439,5.1503168 L2.88775351,-0.425866237 Z" transform="translate(3.069450, 2.500722) rotate(90.000000) translate(-3.069450, -2.500722) "></path>
                </g>
                <rect x="1.8794538" y="0.889448752" width="6.15211461" height="1" rx="0.5"></rect>
            </g>
            <g transform="translate(210.519213, 126.118442) scale(-1, 1) translate(-210.519213, -126.118442) translate(205.519213, 123.618442)" fill="#8D9EB0">
                <g transform="translate(3.026855, 2.500000) scale(-1, 1) translate(-3.026855, -2.500000) translate(0.026855, 0.000000)">
                    <path d="M2.88775351,-0.425866237 C2.98755721,-0.684554916 3.15206769,-0.677565105 3.24917468,-0.425866237 L5.40050076,5.1503168 C5.50030446,5.40900548 5.36527212,5.61871408 5.08097484,5.61871408 L1.05595335,5.61871408 C0.779680363,5.61871408 0.639320451,5.40201566 0.736427439,5.1503168 L2.88775351,-0.425866237 Z" transform="translate(3.069450, 2.500722) rotate(90.000000) translate(-3.069450, -2.500722) "></path>
                </g>
                <rect x="2.8794538" y="1.88944875" width="6.15211461" height="1" rx="0.5"></rect>
            </g>
            <polygon fill="#8D9EB0" points="164.381011 131.115617 169.706408 131.115617 169.706408 133.028259 162.018335 133.028259 162.018335 119.902282 164.381011 119.902282"></polygon>
            <rect fill="#8D9EB0" x="150.737856" y="102.574219" width="1" height="26.6328125" rx="0.5"></rect>
            <rect fill="#8D9EB0" x="129.965028" y="102.661621" width="1" height="26.5454102" rx="0.5"></rect>
            <g transform="translate(153.205248, 124.618442)" fill="#8D9EB0">
                <g transform="translate(2.026855, 1.500000) scale(-1, 1) translate(-2.026855, -1.500000) translate(-0.973145, -1.000000)">
                    <path d="M2.88775351,-0.425866237 C2.98755721,-0.684554916 3.15206769,-0.677565105 3.24917468,-0.425866237 L5.40050076,5.1503168 C5.50030446,5.40900548 5.36527212,5.61871408 5.08097484,5.61871408 L1.05595335,5.61871408 C0.779680363,5.61871408 0.639320451,5.40201566 0.736427439,5.1503168 L2.88775351,-0.425866237 Z" transform="translate(3.069450, 2.500722) rotate(90.000000) translate(-3.069450, -2.500722) "></path>
                </g>
                <rect x="1.8794538" y="0.889448752" width="6.15211461" height="1" rx="0.5"></rect>
            </g>
            <g transform="translate(124.166674, 126.118442) scale(-1, 1) translate(-124.166674, -126.118442) translate(119.166674, 123.618442)" fill="#8D9EB0">
                <g transform="translate(3.026855, 2.500000) scale(-1, 1) translate(-3.026855, -2.500000) translate(0.026855, 0.000000)">
                    <path d="M2.88775351,-0.425866237 C2.98755721,-0.684554916 3.15206769,-0.677565105 3.24917468,-0.425866237 L5.40050076,5.1503168 C5.50030446,5.40900548 5.36527212,5.61871408 5.08097484,5.61871408 L1.05595335,5.61871408 C0.779680363,5.61871408 0.639320451,5.40201566 0.736427439,5.1503168 L2.88775351,-0.425866237 Z" transform="translate(3.069450, 2.500722) rotate(90.000000) translate(-3.069450, -2.500722) "></path>
                </g>
                <rect x="2.8794538" y="1.88944875" width="6.15211461" height="1" rx="0.5"></rect>
            </g>
        </g>
    </g>
</svg>
