<?xml version="1.0" encoding="UTF-8"?>
<svg width="290px" height="175px" viewBox="0 0 290 175" version="1.1" xmlns="http://www.w3.org/2000/svg" xmlns:xlink="http://www.w3.org/1999/xlink">
    <!-- Generator: Sketch 57.1 (83088) - https://sketch.com -->
    <title>Slice 1</title>
    <desc>Created with Sketch.</desc>
    <g id="Page-1" stroke="none" stroke-width="1" fill="none" fill-rule="evenodd">
        <g id="Oscillator-JLead-Labeled">
            <rect id="Rectangle" fill-rule="nonzero" x="0" y="0" width="290" height="175"></rect>
            <g id="DFN-2" transform="translate(33.772295, 53.478147)">
                <g id="Group-8" transform="translate(0.058869, 3.476248)">
                    <g id="Group-2" transform="translate(13.786018, 0.000000)">
                        <g id="Group">
                            <g id="Path-3">
                                <g id="path-1-link" stroke="#979797" stroke-width="3">
                                    <path d="M0.149921258,5.5824918 L0.266623108,2.091819 C0.302661783,1.01386501 1.18695006,0.158646622 2.26550631,0.158646622 L16.9630917,0.158646622 L16.9630917,0.158646622 C21.419433,0.299001959 23.6476037,3.1227487 23.6476037,8.62988684 C23.6476037,14.137025 20.8565564,16.9280722 15.274462,17.0030285" id="path-1"></path>
                                </g>
                                <g id="path-1-link" stroke="#D8D8D8">
                                    <path d="M0.149921258,5.5824918 L0.266623108,2.091819 C0.302661783,1.01386501 1.18695006,0.158646622 2.26550631,0.158646622 L16.9630917,0.158646622 L16.9630917,0.158646622 C21.419433,0.299001959 23.6476037,3.1227487 23.6476037,8.62988684 C23.6476037,14.137025 20.8565564,16.9280722 15.274462,17.0030285" id="path-1"></path>
                                </g>
                            </g>
                            <path d="M15.4339706,15.9968093 C14.7079694,16.1064393 14.3512587,16.4119235 14.3638385,16.9132619 C14.3827082,17.6652695 14.7209121,18.0674611 15.6169224,17.9800676" id="Path-4" stroke="#979797" fill="#D8D8D8" fill-rule="nonzero"></path>
                        </g>
                        <g id="Group-Copy" transform="translate(12.000000, 65.598354) scale(-1, 1) rotate(-180.000000) translate(-12.000000, -65.598354) translate(0.000000, 56.098354)">
                            <g id="Path-3">
                                <g id="path-2-link" stroke="#979797" stroke-width="3">
                                    <path d="M0.149921258,5.5824918 L0.266623108,2.091819 C0.302661783,1.01386501 1.18695006,0.158646622 2.26550631,0.158646622 L16.9630917,0.158646622 L16.9630917,0.158646622 C21.419433,0.299001959 23.6476037,3.1227487 23.6476037,8.62988684 C23.6476037,14.137025 20.8565564,16.9280722 15.274462,17.0030285" id="path-2"></path>
                                </g>
                                <g id="path-2-link" stroke="#D8D8D8">
                                    <path d="M0.149921258,5.5824918 L0.266623108,2.091819 C0.302661783,1.01386501 1.18695006,0.158646622 2.26550631,0.158646622 L16.9630917,0.158646622 L16.9630917,0.158646622 C21.419433,0.299001959 23.6476037,3.1227487 23.6476037,8.62988684 C23.6476037,14.137025 20.8565564,16.9280722 15.274462,17.0030285" id="path-2"></path>
                                </g>
                            </g>
                            <path d="M15.4395763,15.984208 C14.7044038,16.0952229 14.343187,16.4045661 14.3559257,16.9122377 C14.3750338,17.673745 14.71751,18.0810173 15.6248392,17.9925198" id="Path-4" stroke="#979797" fill="#D8D8D8" fill-rule="nonzero"></path>
                        </g>
                    </g>
                    <path d="M13.3928305,5.67493587 L13.3928305,70.0084934" id="Line" stroke="#505050" stroke-linecap="square"></path>
                    <g id="Group-3" transform="translate(0.436146, 3.854499)" fill="#585858" fill-rule="nonzero" stroke="#505050">
                        <polygon id="Rectangle-15" points="0.65821752 4.1140187 0.65821752 64.0175294 12.9357933 67.1408974 12.9357933 0.999418127"></polygon>
                        <polygon id="Rectangle-15-Copy" transform="translate(20.048803, 34.070158) scale(-1, 1) translate(-20.048803, -34.070158) " points="13.9100147 4.1140187 13.9100147 64.0175294 26.1875904 67.1408974 26.1875904 0.999418127"></polygon>
                    </g>
                </g>
                <g id="Group-7" transform="translate(75.517226, 0.048998)" fill-rule="nonzero">
                    <rect id="Rectangle-16" stroke="#505050" fill="#585858" x="0.995405396" y="8.99537292" width="109.439848" height="64.535734"></rect>
                    <polygon id="Rectangle-16-Copy" stroke="#505050" fill="#606060" points="4.45067258 11.6803991 4.45067258 70.8460808 106.979986 70.8460808 106.979986 11.6803991"></polygon>
                    <g id="Group-6" transform="translate(30.340618, 0.000000)">
                        <g id="Group-4" transform="translate(0.495405, 0.000000)">
                            <g id="Group-5">
                                <polygon id="Rectangle" stroke="#979797" fill="#D8D8D8" points="0.390070461 0.531403221 6.89167776 0.531403221 6.89167776 20.1002167 0.390070461 20.1002167"></polygon>
                                <polygon id="Rectangle-Copy-2" fill="#BABABA" points="0.890070461 1.03140322 6.39167776 1.03140322 6.39167776 2.86635874 0.890070461 2.86635874"></polygon>
                                <polygon id="Rectangle-Copy-3" fill="#BABABA" points="0.890070461 17.7039281 6.39167776 17.7039281 6.39167776 19.5388837 0.890070461 19.5388837"></polygon>
                            </g>
                            <g id="Group-5-Copy" transform="translate(41.640424, 0.000000)">
                                <polygon id="Rectangle" stroke="#979797" fill="#D8D8D8" points="0.390070461 0.531403221 6.89167776 0.531403221 6.89167776 20.1002167 0.390070461 20.1002167"></polygon>
                                <polygon id="Rectangle-Copy-2" fill="#BABABA" points="0.890070461 1.03140322 6.39167776 1.03140322 6.39167776 2.86635874 0.890070461 2.86635874"></polygon>
                                <polygon id="Rectangle-Copy-3" fill="#BABABA" points="0.890070461 17.7039281 6.39167776 17.7039281 6.39167776 19.5388837 0.890070461 19.5388837"></polygon>
                            </g>
                        </g>
                        <g id="Group-4-Copy" transform="translate(0.495405, 61.273825)">
                            <g id="Group-5">
                                <polygon id="Rectangle" stroke="#979797" fill="#D8D8D8" points="0.390070461 0.531403221 6.89167776 0.531403221 6.89167776 20.1002167 0.390070461 20.1002167"></polygon>
                                <polygon id="Rectangle-Copy-2" fill="#BABABA" points="0.890070461 1.03140322 6.39167776 1.03140322 6.39167776 2.86635874 0.890070461 2.86635874"></polygon>
                                <polygon id="Rectangle-Copy-3" fill="#BABABA" points="0.890070461 17.7039281 6.39167776 17.7039281 6.39167776 19.5388837 0.890070461 19.5388837"></polygon>
                            </g>
                            <g id="Group-5-Copy" transform="translate(41.640424, 0.000000)">
                                <polygon id="Rectangle" stroke="#979797" fill="#D8D8D8" points="0.390070461 0.531403221 6.89167776 0.531403221 6.89167776 20.1002167 0.390070461 20.1002167"></polygon>
                                <polygon id="Rectangle-Copy-2" fill="#BABABA" points="0.890070461 1.03140322 6.39167776 1.03140322 6.39167776 2.86635874 0.890070461 2.86635874"></polygon>
                                <polygon id="Rectangle-Copy-3" fill="#BABABA" points="0.890070461 17.7039281 6.39167776 17.7039281 6.39167776 19.5388837 0.890070461 19.5388837"></polygon>
                            </g>
                        </g>
                    </g>
                </g>
            </g>
            <text id="D" fill="#8D9EB0" font-family="ArtifaktElement-Bold, Artifakt Element" font-size="18.7513963" font-weight="bold">
                <tspan x="158.39209" y="35.803894">D</tspan>
            </text>
            <text id="e" fill="#8D9EB0" font-family="ArtifaktElement-Bold, Artifakt Element" font-size="18.7513963" font-weight="bold">
                <tspan x="159.39209" y="50.6753872">e</tspan>
            </text>
            <text id="A" fill="#8D9EB0" font-family="ArtifaktElement-Bold, Artifakt Element" font-size="18.7513963" font-weight="bold">
                <tspan x="47.4373037" y="51.5676548">A</tspan>
            </text>
            <text id="A1" fill="#8D9EB0" font-family="ArtifaktElement-Bold, Artifakt Element" font-size="18.7513963" font-weight="bold">
                <tspan x="82" y="152">A1</tspan>
            </text>
            <path d="M219.609619,25.4894942 C219.609619,25.2162304 219.841553,24.9947064 220.109619,24.9947064 L220.109619,24.9947064 C220.385762,24.9947064 220.609619,25.2182171 220.609619,25.4894942 L220.609619,59.5011064 C220.609619,59.7743701 220.377686,59.9958942 220.109619,59.9958942 L220.109619,59.9958942 C219.833477,59.9958942 219.609619,59.7723835 219.609619,59.5011064 L219.609619,25.4894942 Z" id="Rectangle-93" fill="#8D9EB0" fill-rule="nonzero"></path>
            <path d="M109.835815,25.018264 C109.835815,24.7374281 110.067749,24.5097656 110.335815,24.5097656 L110.335815,24.5097656 C110.611958,24.5097656 110.835815,24.7394698 110.835815,25.018264 L110.835815,59.9723366 C110.835815,60.2531725 110.603882,60.480835 110.335815,60.480835 L110.335815,60.480835 C110.059673,60.480835 109.835815,60.2511308 109.835815,59.9723366 L109.835815,25.018264 Z" id="Rectangle-93" fill="#8D9EB0" fill-rule="nonzero"></path>
            <path d="M143.539721,43.148786 C143.539721,42.8727208 143.771654,42.6489258 144.039721,42.6489258 L144.039721,42.6489258 C144.315863,42.6489258 144.539721,42.8653853 144.539721,43.148786 L144.539721,52.512713 C144.539721,52.7887782 144.307787,53.0125732 144.039721,53.0125732 L144.039721,53.0125732 C143.763578,53.0125732 143.539721,52.7961137 143.539721,52.512713 L143.539721,43.148786 Z" id="Rectangle-93" fill="#8D9EB0" fill-rule="nonzero"></path>
            <path d="M184.921557,43.148786 C184.921557,42.8727208 185.15349,42.6489258 185.421557,42.6489258 L185.421557,42.6489258 C185.697699,42.6489258 185.921557,42.8653853 185.921557,43.148786 L185.921557,52.512713 C185.921557,52.7887782 185.689623,53.0125732 185.421557,53.0125732 L185.421557,53.0125732 C185.145414,53.0125732 184.921557,52.7961137 184.921557,52.512713 L184.921557,43.148786 Z" id="Rectangle-93-Copy-2" fill="#8D9EB0" fill-rule="nonzero"></path>
            <path d="M34.3592529,42.0418285 C34.3592529,41.7676642 34.5911865,41.5454102 34.8592529,41.5454102 L34.8592529,41.5454102 C35.1353953,41.5454102 35.3592529,41.7661637 35.3592529,42.0418285 L35.3592529,61.965862 C35.3592529,62.2400262 35.1273193,62.4622803 34.8592529,62.4622803 L34.8592529,62.4622803 C34.5831106,62.4622803 34.3592529,62.2415267 34.3592529,61.965862 L34.3592529,42.0418285 Z" id="Rectangle-93-Copy" fill="#8D9EB0" fill-rule="nonzero"></path>
            <path d="M71.0286865,42.0407189 C71.0286865,41.7671674 71.2606201,41.5454102 71.5286865,41.5454102 L71.5286865,41.5454102 C71.8048289,41.5454102 72.0286865,41.764011 72.0286865,42.0407189 L72.0286865,54.9669715 C72.0286865,55.240523 71.7967529,55.4622803 71.5286865,55.4622803 L71.5286865,55.4622803 C71.2525441,55.4622803 71.0286865,55.2436795 71.0286865,54.9669715 L71.0286865,42.0407189 Z" id="Rectangle-93-Copy" fill="#8D9EB0" fill-rule="nonzero"></path>
            <path d="M73,124.509894 C73,124.228288 73.2319336,124 73.5,124 L73.5,124 C73.7761424,124 74,124.225384 74,124.509894 L74,151.490106 C74,151.771712 73.7680664,152 73.5,152 L73.5,152 C73.2238576,152 73,151.774616 73,151.490106 L73,124.509894 Z" id="Rectangle-93-Copy" fill="#8D9EB0" fill-rule="nonzero" transform="translate(73.500000, 138.000000) scale(-1, 1) translate(-73.500000, -138.000000) "></path>
            <path d="M61,125.491684 C61,125.220134 61.2319336,125 61.5,125 L61.5,125 C61.7761424,125 62,125.233417 62,125.491684 L62,151.508316 C62,151.779866 61.7680664,152 61.5,152 L61.5,152 C61.2238576,152 61,151.766583 61,151.508316 L61,125.491684 Z" id="Rectangle-93-Copy" fill="#8D9EB0" fill-rule="nonzero" transform="translate(61.500000, 138.500000) scale(-1, 1) translate(-61.500000, -138.500000) "></path>
            <g id="left-arrow" transform="translate(110.627441, 25.798251)" fill="#8D9EB0" fill-rule="nonzero">
                <g id="triangle" transform="translate(4.000000, 2.500000) scale(-1, 1) translate(-4.000000, -2.500000) ">
                    <path d="M3.88775372,-0.425865989 C3.98755742,-0.684554668 4.1520679,-0.677564857 4.24917489,-0.425865989 L6.40050097,5.15031705 C6.50030467,5.40900573 6.36527233,5.61871433 6.08097505,5.61871433 L2.05595356,5.61871433 C1.77968058,5.61871433 1.63932066,5.40201591 1.73642765,5.15031705 L3.88775372,-0.425865989 Z" id="Triangle-1" transform="translate(4.069450, 2.500722) rotate(90.000000) translate(-4.069450, -2.500722) "></path>
                </g>
                <path d="M3.85259834,2.39596207 C3.85259834,2.11622249 4.07256427,1.88944875 4.355837,1.88944875 L48.1594811,1.88944875 C48.4374121,1.88944875 48.6627197,2.10428865 48.6627197,2.39596207 L48.6627197,2.3092346 C48.6627197,2.58897418 48.4427538,2.81574792 48.1594811,2.81574792 L4.355837,2.81574792 C4.07790596,2.81574792 3.85259834,2.60090803 3.85259834,2.3092346 L3.85259834,2.39596207 Z" id="Rectangle-144"></path>
            </g>
            <g id="left-arrow" transform="translate(195.127441, 28.298251) scale(-1, 1) translate(-195.127441, -28.298251) translate(170.627441, 25.798251)" fill="#8D9EB0" fill-rule="nonzero">
                <g id="triangle" transform="translate(4.000000, 2.500000) scale(-1, 1) translate(-4.000000, -2.500000) ">
                    <path d="M3.88775372,-0.425865989 C3.98755742,-0.684554668 4.1520679,-0.677564857 4.24917489,-0.425865989 L6.40050097,5.15031705 C6.50030467,5.40900573 6.36527233,5.61871433 6.08097505,5.61871433 L2.05595356,5.61871433 C1.77968058,5.61871433 1.63932066,5.40201591 1.73642765,5.15031705 L3.88775372,-0.425865989 Z" id="Triangle-1" transform="translate(4.069450, 2.500722) rotate(90.000000) translate(-4.069450, -2.500722) "></path>
                </g>
                <path d="M3.85259834,2.39596207 C3.85259834,2.11622249 4.07349635,1.88944875 4.35796943,1.88944875 L48.3472272,1.88944875 C48.626336,1.88944875 48.8525983,2.10428865 48.8525983,2.39596207 L48.8525983,2.3092346 C48.8525983,2.58897418 48.6317003,2.81574792 48.3472272,2.81574792 L4.35796943,2.81574792 C4.07886068,2.81574792 3.85259834,2.60090803 3.85259834,2.3092346 L3.85259834,2.39596207 Z" id="Rectangle-144"></path>
            </g>
            <g id="Group-4-Copy-3" transform="translate(220.827399, 61.666748)" fill="#8D9EB0" fill-rule="nonzero">
                <path d="M0.280999368,0.672816191 C0.280999368,0.396673816 0.498402807,0.172816191 0.781057391,0.172816191 L21.7467617,0.172816191 C22.0229361,0.172816191 22.2468197,0.404749784 22.2468197,0.672816191 L22.2468197,0.672816191 C22.2468197,0.948958565 22.0294162,1.17281619 21.7467617,1.17281619 L0.781057391,1.17281619 C0.504882971,1.17281619 0.280999368,0.940882597 0.280999368,0.672816191 L0.280999368,0.672816191 Z" id="Rectangle-132-Copy"></path>
                <path d="M0.280999368,65.127284 C0.280999368,64.8511416 0.498402807,64.627284 0.781057391,64.627284 L21.7467617,64.627284 C22.0229361,64.627284 22.2468197,64.8592176 22.2468197,65.127284 L22.2468197,65.127284 C22.2468197,65.4034263 22.0294162,65.627284 21.7467617,65.627284 L0.781057391,65.627284 C0.504882971,65.627284 0.280999368,65.3953504 0.280999368,65.127284 L0.280999368,65.127284 Z" id="Rectangle-132-Copy-2"></path>
                <g id="Group" transform="translate(13.024426, 0.172816)">
                    <g id="triangle" transform="translate(3.184082, 4.484497) rotate(-90.000000) translate(-3.184082, -4.484497) translate(-0.815918, 1.984497)">
                        <path d="M3.88775372,-0.425865989 C3.98755742,-0.684554668 4.1520679,-0.677564857 4.24917489,-0.425865989 L6.40050097,5.15031705 C6.50030467,5.40900573 6.36527233,5.61871433 6.08097505,5.61871433 L2.05595356,5.61871433 C1.77968058,5.61871433 1.63932066,5.40201591 1.73642765,5.15031705 L3.88775372,-0.425865989 Z" id="Triangle-1" transform="translate(4.069450, 2.500722) rotate(90.000000) translate(-4.069450, -2.500722) "></path>
                    </g>
                    <path d="M2.68408203,4.97793894 C2.68408203,4.70541852 2.91601562,4.48449707 3.18408203,4.48449707 L3.18408203,4.48449707 C3.46022441,4.48449707 3.68408203,4.69992039 3.68408203,4.97793894 L3.68408203,23.173097 C3.68408203,23.4456175 3.45214844,23.6665389 3.18408203,23.6665389 L3.18408203,23.6665389 C2.90793966,23.6665389 2.68408203,23.4511156 2.68408203,23.173097 L2.68408203,4.97793894 Z" id="Rectangle-134"></path>
                </g>
                <g id="Group" transform="translate(16.024426, 52.999965) scale(-1, 1) rotate(-180.000000) translate(-16.024426, -52.999965) translate(13.024426, 40.999965)">
                    <g id="triangle" transform="translate(3.184082, 4.484497) rotate(-90.000000) translate(-3.184082, -4.484497) translate(-0.815918, 1.984497)">
                        <path d="M3.88775372,-0.425865989 C3.98755742,-0.684554668 4.1520679,-0.677564857 4.24917489,-0.425865989 L6.40050097,5.15031705 C6.50030467,5.40900573 6.36527233,5.61871433 6.08097505,5.61871433 L2.05595356,5.61871433 C1.77968058,5.61871433 1.63932066,5.40201591 1.73642765,5.15031705 L3.88775372,-0.425865989 Z" id="Triangle-1" transform="translate(4.069450, 2.500722) rotate(90.000000) translate(-4.069450, -2.500722) "></path>
                    </g>
                    <path d="M2.68408203,4.99270117 C2.68408203,4.7120278 2.91601562,4.48449707 3.18408203,4.48449707 L3.18408203,4.48449707 C3.46022441,4.48449707 3.68408203,4.71111222 3.68408203,4.99270117 L3.68408203,22.976293 C3.68408203,23.2569663 3.45214844,23.4844971 3.18408203,23.4844971 L3.18408203,23.4844971 C2.90793966,23.4844971 2.68408203,23.2578819 2.68408203,22.976293 L2.68408203,4.99270117 Z" id="Rectangle-134"></path>
                </g>
            </g>
            <g id="Group-4-Copy-3" transform="translate(73.827399, 61.666748)" fill="#8D9EB0" fill-rule="nonzero">
                <path d="M0.280999368,0.672816191 C0.280999368,0.396673816 0.498402807,0.172816191 0.781057391,0.172816191 L21.7467617,0.172816191 C22.0229361,0.172816191 22.2468197,0.404749784 22.2468197,0.672816191 L22.2468197,0.672816191 C22.2468197,0.948958565 22.0294162,1.17281619 21.7467617,1.17281619 L0.781057391,1.17281619 C0.504882971,1.17281619 0.280999368,0.940882597 0.280999368,0.672816191 L0.280999368,0.672816191 Z" id="Rectangle-132-Copy"></path>
                <path d="M0.280999368,61.127284 C0.280999368,60.8511416 0.498402807,60.627284 0.781057391,60.627284 L21.7467617,60.627284 C22.0229361,60.627284 22.2468197,60.8592176 22.2468197,61.127284 L22.2468197,61.127284 C22.2468197,61.4034263 22.0294162,61.627284 21.7467617,61.627284 L0.781057391,61.627284 C0.504882971,61.627284 0.280999368,61.3953504 0.280999368,61.127284 L0.280999368,61.127284 Z" id="Rectangle-132-Copy-2"></path>
                <g id="Group" transform="translate(6.024426, 0.172816)">
                    <g id="triangle" transform="translate(3.184082, 4.484497) rotate(-90.000000) translate(-3.184082, -4.484497) translate(-0.815918, 1.984497)">
                        <path d="M3.88775372,-0.425865989 C3.98755742,-0.684554668 4.1520679,-0.677564857 4.24917489,-0.425865989 L6.40050097,5.15031705 C6.50030467,5.40900573 6.36527233,5.61871433 6.08097505,5.61871433 L2.05595356,5.61871433 C1.77968058,5.61871433 1.63932066,5.40201591 1.73642765,5.15031705 L3.88775372,-0.425865989 Z" id="Triangle-1" transform="translate(4.069450, 2.500722) rotate(90.000000) translate(-4.069450, -2.500722) "></path>
                    </g>
                    <path d="M2.68408203,4.98556474 C2.68408203,4.70883271 2.91601562,4.48449707 3.18408203,4.48449707 L3.18408203,4.48449707 C3.46022441,4.48449707 3.68408203,4.71280802 3.68408203,4.98556474 L3.68408203,20.1340992 C3.68408203,20.4108312 3.45214844,20.6351668 3.18408203,20.6351668 L3.18408203,20.6351668 C2.90793966,20.6351668 2.68408203,20.4068559 2.68408203,20.1340992 L2.68408203,4.98556474 Z" id="Rectangle-134"></path>
                </g>
                <g id="Group" transform="translate(9.024426, 49.999965) scale(-1, 1) rotate(-180.000000) translate(-9.024426, -49.999965) translate(6.024426, 38.999965)">
                    <g id="triangle" transform="translate(3.184082, 4.484497) rotate(-90.000000) translate(-3.184082, -4.484497) translate(-0.815918, 1.984497)">
                        <path d="M3.88775372,-0.425865989 C3.98755742,-0.684554668 4.1520679,-0.677564857 4.24917489,-0.425865989 L6.40050097,5.15031705 C6.50030467,5.40900573 6.36527233,5.61871433 6.08097505,5.61871433 L2.05595356,5.61871433 C1.77968058,5.61871433 1.63932066,5.40201591 1.73642765,5.15031705 L3.88775372,-0.425865989 Z" id="Triangle-1" transform="translate(4.069450, 2.500722) rotate(90.000000) translate(-4.069450, -2.500722) "></path>
                    </g>
                    <path d="M2.68408203,4.9808698 C2.68408203,4.70673071 2.91601562,4.48449707 3.18408203,4.48449707 L3.18408203,4.48449707 C3.46022441,4.48449707 3.68408203,4.70203856 3.68408203,4.9808698 L3.68408203,21.1936557 C3.68408203,21.4677948 3.45214844,21.6900285 3.18408203,21.6900285 L3.18408203,21.6900285 C2.90793966,21.6900285 2.68408203,21.472487 2.68408203,21.1936557 L2.68408203,4.9808698 Z" id="Rectangle-134"></path>
                </g>
            </g>
            <g id="Group-4-Copy-4" transform="translate(190.000000, 52.666748)" fill="#8D9EB0" fill-rule="nonzero">
                <path d="M0.00732421875,1.40499392 C0.00732421875,1.12885155 0.23077935,0.904993922 0.504749604,0.904993922 L77.4054066,0.904993922 C77.6801271,0.904993922 77.902832,1.13692752 77.902832,1.40499392 L77.902832,1.40499392 C77.902832,1.6811363 77.6793769,1.90499392 77.4054066,1.90499392 L0.504749604,1.90499392 C0.230029149,1.90499392 0.00732421875,1.67306033 0.00732421875,1.40499392 L0.00732421875,1.40499392 Z" id="Rectangle-132-Copy"></path>
                <path d="M0.00732421875,82.0470838 C0.00732421875,81.7709414 0.23077935,81.5470838 0.504749604,81.5470838 L77.4054066,81.5470838 C77.6801271,81.5470838 77.902832,81.7790174 77.902832,82.0470838 L77.902832,82.0470838 C77.902832,82.3232261 77.6793769,82.5470838 77.4054066,82.5470838 L0.504749604,82.5470838 C0.230029149,82.5470838 0.00732421875,82.3151502 0.00732421875,82.0470838 L0.00732421875,82.0470838 Z" id="Rectangle-132-Copy-3"></path>
                <g id="Group" transform="translate(69.599621, 0.904994)">
                    <g id="triangle" transform="translate(3.184082, 4.484497) rotate(-90.000000) translate(-3.184082, -4.484497) translate(-0.815918, 1.984497)">
                        <path d="M3.88775372,-0.425865989 C3.98755742,-0.684554668 4.1520679,-0.677564857 4.24917489,-0.425865989 L6.40050097,5.15031705 C6.50030467,5.40900573 6.36527233,5.61871433 6.08097505,5.61871433 L2.05595356,5.61871433 C1.77968058,5.61871433 1.63932066,5.40201591 1.73642765,5.15031705 L3.88775372,-0.425865989 Z" id="Triangle-1" transform="translate(4.069450, 2.500722) rotate(90.000000) translate(-4.069450, -2.500722) "></path>
                    </g>
                    <path d="M2.68408203,4.98298389 C2.68408203,4.70767722 2.91601562,4.48449707 3.18408203,4.48449707 L3.18408203,4.48449707 C3.46022441,4.48449707 3.68408203,4.70483907 3.68408203,4.98298389 L3.68408203,31.3595804 C3.68408203,31.6348871 3.45214844,31.8580672 3.18408203,31.8580672 L3.18408203,31.8580672 C2.90793966,31.8580672 2.68408203,31.6377252 2.68408203,31.3595804 L2.68408203,4.98298389 Z" id="Rectangle-134"></path>
                </g>
                <g id="Group" transform="translate(72.599621, 65.912318) scale(-1, 1) rotate(-180.000000) translate(-72.599621, -65.912318) translate(69.599621, 49.912318)">
                    <g id="triangle" transform="translate(3.184082, 4.484497) rotate(-90.000000) translate(-3.184082, -4.484497) translate(-0.815918, 1.984497)">
                        <path d="M3.88775372,-0.425865989 C3.98755742,-0.684554668 4.1520679,-0.677564857 4.24917489,-0.425865989 L6.40050097,5.15031705 C6.50030467,5.40900573 6.36527233,5.61871433 6.08097505,5.61871433 L2.05595356,5.61871433 C1.77968058,5.61871433 1.63932066,5.40201591 1.73642765,5.15031705 L3.88775372,-0.425865989 Z" id="Triangle-1" transform="translate(4.069450, 2.500722) rotate(90.000000) translate(-4.069450, -2.500722) "></path>
                    </g>
                    <path d="M2.68408203,4.97559571 C2.68408203,4.70436942 2.91601562,4.48449707 3.18408203,4.48449707 L3.18408203,4.48449707 C3.46022441,4.48449707 3.68408203,4.71763578 3.68408203,4.97559571 L3.68408203,30.9612589 C3.68408203,31.2324852 3.45214844,31.4523576 3.18408203,31.4523576 L3.18408203,31.4523576 C2.90793966,31.4523576 2.68408203,31.2192189 2.68408203,30.9612589 L2.68408203,4.97559571 Z" id="Rectangle-134"></path>
                </g>
            </g>
            <g id="Group-2" transform="translate(72.437500, 77.166748)" fill="#8D9EB0" font-family="ArtifaktElement-Bold, Artifakt Element" font-size="18.7513963" font-weight="bold">
                <g id="E1" transform="translate(155.000000, 2.000000)">
                    <text>
                        <tspan x="0.321899" y="20.5857073">E1</tspan>
                    </text>
                </g>
                <g id="E2">
                    <text>
                        <tspan x="0.5625" y="20.8332516">E2</tspan>
                    </text>
                </g>
            </g>
            <text id="b" fill="#8D9EB0" font-family="ArtifaktElement-Bold, Artifakt Element" font-size="18.7513963" font-weight="bold">
                <tspan x="157.467896" y="155.289001">b</tspan>
            </text>
            <path d="M146.924867,136.613791 C146.924867,136.340614 147.156801,136.11916 147.424867,136.11916 L147.424867,136.11916 C147.70101,136.11916 147.924867,136.352796 147.924867,136.613791 L147.924867,152.151874 C147.924867,152.42505 147.692934,152.646504 147.424867,152.646504 L147.424867,152.646504 C147.148725,152.646504 146.924867,152.412868 146.924867,152.151874 L146.924867,136.613791 Z" id="Rectangle-93-Copy-6" fill="#8D9EB0" fill-rule="nonzero"></path>
            <path d="M139.923591,136.639287 C139.923591,136.367007 140.155525,136.14628 140.423591,136.14628 L140.423591,136.14628 C140.699734,136.14628 140.923591,136.379149 140.923591,136.639287 L140.923591,152.126377 C140.923591,152.398658 140.691658,152.619385 140.423591,152.619385 L140.423591,152.619385 C140.147449,152.619385 139.923591,152.386516 139.923591,152.126377 L139.923591,136.639287 Z" id="Rectangle-93-Copy-7" fill="#8D9EB0" fill-rule="nonzero"></path>
            <g id="Group-3-Copy-2" transform="translate(147.392260, 147.106235)" fill="#8D9EB0" fill-rule="nonzero">
                <g id="triangle" transform="translate(4.026855, 2.500000) scale(-1, 1) translate(-4.026855, -2.500000) translate(0.026855, 0.000000)">
                    <path d="M3.88775372,-0.425865989 C3.98755742,-0.684554668 4.1520679,-0.677564857 4.24917489,-0.425865989 L6.40050097,5.15031705 C6.50030467,5.40900573 6.36527233,5.61871433 6.08097505,5.61871433 L2.05595356,5.61871433 C1.77968058,5.61871433 1.63932066,5.40201591 1.73642765,5.15031705 L3.88775372,-0.425865989 Z" id="Triangle-1" transform="translate(4.069450, 2.500722) rotate(90.000000) translate(-4.069450, -2.500722) "></path>
                </g>
                <path d="M3.8794538,2.39596207 C3.8794538,2.11622249 4.11311161,1.88944875 4.38290716,1.88944875 L9.52811506,1.88944875 C9.80616467,1.88944875 10.0315684,2.10428865 10.0315684,2.39596207 L10.0315684,2.3092346 C10.0315684,2.58897418 9.79791061,2.81574792 9.52811506,2.81574792 L4.38290716,2.81574792 C4.10485755,2.81574792 3.8794538,2.60090803 3.8794538,2.3092346 L3.8794538,2.39596207 Z" id="Rectangle-144"></path>
            </g>
            <g id="Group-3-Copy-2" transform="translate(78.000000, 147.000000) scale(-1, 1) rotate(-180.000000) translate(-78.000000, -147.000000) translate(73.000000, 144.000000)" fill="#8D9EB0" fill-rule="nonzero">
                <g id="triangle" transform="translate(4.107740, 2.606235) scale(-1, 1) translate(-4.107740, -2.606235) translate(0.607740, 0.106235)">
                    <path d="M3.75520289,-0.285651512 C3.85332419,-0.544514213 4.01151294,-0.546881525 4.11053156,-0.285651512 L6.11893836,5.01290835 C6.21705967,5.27177105 6.06858695,5.48162073 5.7906805,5.48162073 L2.07505395,5.48162073 C1.79564084,5.48162073 1.64777746,5.27413837 1.74679609,5.01290835 L3.75520289,-0.285651512 Z" id="Triangle-1" transform="translate(3.932612, 2.500467) rotate(90.000000) translate(-3.932612, -2.500467) "></path>
                </g>
                <path d="M3.60774029,2.61274867 C3.60774029,2.33300909 3.83562077,2.10623535 4.09874547,2.10623535 L9.1167351,2.10623535 C9.3879098,2.10623535 9.60774029,2.32107524 9.60774029,2.61274867 L9.60774029,2.5260212 C9.60774029,2.80576078 9.3798598,3.03253452 9.1167351,3.03253452 L4.09874547,3.03253452 C3.8275708,3.03253452 3.60774029,2.81769462 3.60774029,2.5260212 L3.60774029,2.61274867 Z" id="Rectangle-144"></path>
            </g>
            <g id="Group-3-Copy-3" transform="translate(134.625237, 149.455356) scale(-1, 1) translate(-134.625237, -149.455356) translate(129.125237, 146.955356)" fill="#8D9EB0" fill-rule="nonzero">
                <g id="triangle" transform="translate(4.026855, 2.500000) scale(-1, 1) translate(-4.026855, -2.500000) translate(0.026855, 0.000000)">
                    <path d="M3.88775372,-0.425865989 C3.98755742,-0.684554668 4.1520679,-0.677564857 4.24917489,-0.425865989 L6.40050097,5.15031705 C6.50030467,5.40900573 6.36527233,5.61871433 6.08097505,5.61871433 L2.05595356,5.61871433 C1.77968058,5.61871433 1.63932066,5.40201591 1.73642765,5.15031705 L3.88775372,-0.425865989 Z" id="Triangle-1" transform="translate(4.069450, 2.500722) rotate(90.000000) translate(-4.069450, -2.500722) "></path>
                </g>
                <path d="M3.8794538,2.39596207 C3.8794538,2.11622249 4.11311161,1.88944875 4.38290716,1.88944875 L9.52811506,1.88944875 C9.80616467,1.88944875 10.0315684,2.10428865 10.0315684,2.39596207 L10.0315684,2.3092346 C10.0315684,2.58897418 9.79791061,2.81574792 9.52811506,2.81574792 L4.38290716,2.81574792 C4.10485755,2.81574792 3.8794538,2.60090803 3.8794538,2.3092346 L3.8794538,2.39596207 Z" id="Rectangle-144"></path>
            </g>
            <g id="Group-3-Copy-3" transform="translate(56.500000, 147.500000) scale(-1, 1) translate(-56.500000, -147.500000) translate(51.000000, 145.000000)" fill="#8D9EB0" fill-rule="nonzero">
                <g id="triangle" transform="translate(4.026855, 2.500000) scale(-1, 1) translate(-4.026855, -2.500000) translate(0.026855, 0.000000)">
                    <path d="M3.88775372,-0.425865989 C3.98755742,-0.684554668 4.1520679,-0.677564857 4.24917489,-0.425865989 L6.40050097,5.15031705 C6.50030467,5.40900573 6.36527233,5.61871433 6.08097505,5.61871433 L2.05595356,5.61871433 C1.77968058,5.61871433 1.63932066,5.40201591 1.73642765,5.15031705 L3.88775372,-0.425865989 Z" id="Triangle-1" transform="translate(4.069450, 2.500722) rotate(90.000000) translate(-4.069450, -2.500722) "></path>
                </g>
                <path d="M3.8794538,2.39596207 C3.8794538,2.11622249 4.11311161,1.88944875 4.38290716,1.88944875 L9.52811506,1.88944875 C9.80616467,1.88944875 10.0315684,2.10428865 10.0315684,2.39596207 L10.0315684,2.3092346 C10.0315684,2.58897418 9.79791061,2.81574792 9.52811506,2.81574792 L4.38290716,2.81574792 C4.10485755,2.81574792 3.8794538,2.60090803 3.8794538,2.3092346 L3.8794538,2.39596207 Z" id="Rectangle-144"></path>
            </g>
            <g id="Group-3-Copy-2" transform="translate(144.338075, 43.503845)" fill="#8D9EB0" fill-rule="nonzero">
                <g id="triangle" transform="translate(4.026855, 2.500000) scale(-1, 1) translate(-4.026855, -2.500000) translate(0.026855, 0.000000)">
                    <path d="M3.88775372,-0.425865989 C3.98755742,-0.684554668 4.1520679,-0.677564857 4.24917489,-0.425865989 L6.40050097,5.15031705 C6.50030467,5.40900573 6.36527233,5.61871433 6.08097505,5.61871433 L2.05595356,5.61871433 C1.77968058,5.61871433 1.63932066,5.40201591 1.73642765,5.15031705 L3.88775372,-0.425865989 Z" id="Triangle-1" transform="translate(4.069450, 2.500722) rotate(90.000000) translate(-4.069450, -2.500722) "></path>
                </g>
                <path d="M3.8794538,2.39596207 C3.8794538,2.11622249 4.11250109,1.88944875 4.38787672,1.88944875 L14.528868,1.88944875 C14.8096622,1.88944875 15.0372909,2.10428865 15.0372909,2.39596207 L15.0372909,2.3092346 C15.0372909,2.58897418 14.8042436,2.81574792 14.528868,2.81574792 L4.38787672,2.81574792 C4.1070825,2.81574792 3.8794538,2.60090803 3.8794538,2.3092346 L3.8794538,2.39596207 Z" id="Rectangle-144"></path>
            </g>
            <g id="Group-3-Copy-3" transform="translate(177.078295, 46.003845) scale(-1, 1) translate(-177.078295, -46.003845) translate(169.578295, 43.503845)" fill="#8D9EB0" fill-rule="nonzero">
                <g id="triangle" transform="translate(4.026855, 2.500000) scale(-1, 1) translate(-4.026855, -2.500000) translate(0.026855, 0.000000)">
                    <path d="M3.88775372,-0.425865989 C3.98755742,-0.684554668 4.1520679,-0.677564857 4.24917489,-0.425865989 L6.40050097,5.15031705 C6.50030467,5.40900573 6.36527233,5.61871433 6.08097505,5.61871433 L2.05595356,5.61871433 C1.77968058,5.61871433 1.63932066,5.40201591 1.73642765,5.15031705 L3.88775372,-0.425865989 Z" id="Triangle-1" transform="translate(4.069450, 2.500722) rotate(90.000000) translate(-4.069450, -2.500722) "></path>
                </g>
                <path d="M3.8794538,2.39596207 C3.8794538,2.11622249 4.10920444,1.88944875 4.38068464,1.88944875 L14.378223,1.88944875 C14.6550451,1.88944875 14.8794538,2.10428865 14.8794538,2.39596207 L14.8794538,2.3092346 C14.8794538,2.58897418 14.6497032,2.81574792 14.378223,2.81574792 L4.38068464,2.81574792 C4.10386249,2.81574792 3.8794538,2.60090803 3.8794538,2.3092346 L3.8794538,2.39596207 Z" id="Rectangle-144"></path>
            </g>
            <g id="Group-3-Copy-2" transform="translate(34.864306, 41.439148)" fill="#8D9EB0" fill-rule="nonzero">
                <g id="triangle" transform="translate(4.026855, 2.500000) scale(-1, 1) translate(-4.026855, -2.500000) translate(0.026855, 0.000000)">
                    <path d="M3.88775372,-0.425865989 C3.98755742,-0.684554668 4.1520679,-0.677564857 4.24917489,-0.425865989 L6.40050097,5.15031705 C6.50030467,5.40900573 6.36527233,5.61871433 6.08097505,5.61871433 L2.05595356,5.61871433 C1.77968058,5.61871433 1.63932066,5.40201591 1.73642765,5.15031705 L3.88775372,-0.425865989 Z" id="Triangle-1" transform="translate(4.069450, 2.500722) rotate(90.000000) translate(-4.069450, -2.500722) "></path>
                </g>
                <path d="M3.8794538,2.39596207 C3.8794538,2.11622249 4.11011979,1.88944875 4.38115233,1.88944875 L12.7091912,1.88944875 C12.9862716,1.88944875 13.2108897,2.10428865 13.2108897,2.39596207 L13.2108897,2.3092346 C13.2108897,2.58897418 12.9802237,2.81574792 12.7091912,2.81574792 L4.38115233,2.81574792 C4.10407188,2.81574792 3.8794538,2.60090803 3.8794538,2.3092346 L3.8794538,2.39596207 Z" id="Rectangle-144"></path>
            </g>
            <g id="Group-3-Copy-3" transform="translate(64.937304, 43.939148) scale(-1, 1) translate(-64.937304, -43.939148) translate(58.437304, 41.439148)" fill="#8D9EB0" fill-rule="nonzero">
                <g id="triangle" transform="translate(4.026855, 2.500000) scale(-1, 1) translate(-4.026855, -2.500000) translate(0.026855, 0.000000)">
                    <path d="M3.88775372,-0.425865989 C3.98755742,-0.684554668 4.1520679,-0.677564857 4.24917489,-0.425865989 L6.40050097,5.15031705 C6.50030467,5.40900573 6.36527233,5.61871433 6.08097505,5.61871433 L2.05595356,5.61871433 C1.77968058,5.61871433 1.63932066,5.40201591 1.73642765,5.15031705 L3.88775372,-0.425865989 Z" id="Triangle-1" transform="translate(4.069450, 2.500722) rotate(90.000000) translate(-4.069450, -2.500722) "></path>
                </g>
                <path d="M3.8794538,2.39596207 C3.8794538,2.11622249 4.10192695,1.88944875 4.38911965,1.88944875 L12.369788,1.88944875 C12.6512686,1.88944875 12.8794538,2.10428865 12.8794538,2.39596207 L12.8794538,2.3092346 C12.8794538,2.58897418 12.6569807,2.81574792 12.369788,2.81574792 L4.38911965,2.81574792 C4.10763898,2.81574792 3.8794538,2.60090803 3.8794538,2.3092346 L3.8794538,2.39596207 Z" id="Rectangle-144"></path>
            </g>
            <text id="E" fill="#8D9EB0" font-family="ArtifaktElement-Bold, Artifakt Element" font-size="18.7513963" font-weight="bold">
                <tspan x="257.736494" y="99.7524557">E</tspan>
            </text>
        </g>
    </g>
</svg>