<?xml version="1.0" encoding="UTF-8" standalone="no"?>
<svg width="200px" height="150px" viewBox="0 0 200 150" version="1.1" xmlns="http://www.w3.org/2000/svg" xmlns:xlink="http://www.w3.org/1999/xlink">
    <!-- Generator: Sketch 48.2 (47327) - http://www.bohemiancoding.com/sketch -->
    <title>Oscillator-JLead</title>
    <desc>Created with Sketch.</desc>
    <defs>
        <path d="M0.947509766,5.42382812 L1.03229308,2.88787165 C1.06833176,1.80991766 1.95262004,0.954699273 3.03117629,0.954699273 L14.8011915,0.954699273 C18.4731185,1.07034898 20.309082,3.39705404 20.309082,7.93481445 C20.309082,12.4725749 18.0093207,14.7723362 13.4097979,14.8340986" id="path-1"></path>
        <path d="M0.947509766,5.42382812 L1.03229308,2.88787165 C1.06833176,1.80991766 1.95262004,0.954699273 3.03117629,0.954699273 L14.8011915,0.954699273 C18.4731185,1.07034898 20.309082,3.39705404 20.309082,7.93481445 C20.309082,12.4725749 18.0093207,14.7723362 13.4097979,14.8340986" id="path-2"></path>
        <polygon id="path-3" points="0.954345703 3.06933594 11.8947754 0.293945312 11.8947754 55.8525391 0.954345703 53.0693359"></polygon>
        <polygon id="path-4" points="11.8735352 3.06933594 22.8139648 0.293945312 22.8139648 55.8525391 11.8735352 53.0693359"></polygon>
        <rect id="path-5" x="0.408203125" y="7" width="91" height="54"></rect>
        <rect id="path-6" x="3.25526711" y="9.21240234" width="85.305872" height="49.5751953"></rect>
        <rect id="path-7" x="0.733398438" y="0.849853516" width="4.53320313" height="15.300293"></rect>
        <rect id="path-8" x="0.733398438" y="0.849853516" width="4.53320313" height="15.300293"></rect>
        <rect id="path-9" x="0.733398438" y="0.849853516" width="4.53320313" height="15.300293"></rect>
        <rect id="path-10" x="0.733398438" y="0.849853516" width="4.53320313" height="15.300293"></rect>
    </defs>
    <g stroke="none" stroke-width="1" fill="none" fill-rule="evenodd">
        <g>
            <g transform="translate(19.000000, 39.943359)">
                <g transform="translate(11.359375, 0.000000)">
                    <g>
                        <g>
                            <use stroke="#979797" stroke-width="3" xlink:href="#path-1"></use>
                            <use stroke="#D8D8D8" stroke-width="1" xlink:href="#path-1"></use>
                        </g>
                        <path d="M13.6234131,13.8202515 C12.8907471,13.9308879 12.5307617,14.2391764 12.543457,14.7451172 C12.5625,15.5040283 12.9038086,15.9099121 13.8080444,15.8217163" stroke="#979797" fill="#D8D8D8"></path>
                    </g>
                    <g transform="translate(10.500000, 55.527344) scale(1, -1) translate(-10.500000, -55.527344) translate(0.000000, 47.527344)">
                        <g>
                            <use stroke="#979797" stroke-width="3" xlink:href="#path-2"></use>
                            <use stroke="#D8D8D8" stroke-width="1" xlink:href="#path-2"></use>
                        </g>
                        <path d="M13.6234131,13.8202515 C12.8907471,13.9308879 12.5307617,14.2391764 12.543457,14.7451172 C12.5625,15.5040283 12.9038086,15.9099121 13.8080444,15.8217163" stroke="#979797" fill="#D8D8D8"></path>
                    </g>
                </g>
                <path d="M11.859375,5.5 L11.859375,58.5094331" stroke="#505050" stroke-linecap="square"></path>
                <g transform="translate(0.359375, 4.000000)">
                    <g>
                        <use fill="#585858" fill-rule="evenodd" xlink:href="#path-3"></use>
                        <path stroke="#505050" stroke-width="1" d="M1.4543457,3.45833272 L1.4543457,52.6806083 L11.3947754,55.2094153 L11.3947754,0.936624147 L1.4543457,3.45833272 Z"></path>
                    </g>
                    <g transform="translate(17.343750, 28.073242) scale(-1, 1) translate(-17.343750, -28.073242) ">
                        <use fill="#585858" fill-rule="evenodd" xlink:href="#path-4"></use>
                        <path stroke="#505050" stroke-width="1" d="M12.3735352,3.45833272 L12.3735352,52.6806083 L22.3139648,55.2094153 L22.3139648,0.936624147 L12.3735352,3.45833272 Z"></path>
                    </g>
                </g>
            </g>
            <g transform="translate(82.000000, 37.943359)">
                <g>
                    <use fill="#585858" fill-rule="evenodd" xlink:href="#path-5"></use>
                    <rect stroke="#505050" stroke-width="1" x="0.908203125" y="7.5" width="90" height="53"></rect>
                </g>
                <g>
                    <use fill="#606060" fill-rule="evenodd" xlink:href="#path-6"></use>
                    <rect stroke="#505050" stroke-width="1" x="3.75526711" y="9.71240234" width="84.305872" height="48.5751953"></rect>
                </g>
                <g transform="translate(25.000000, 0.000000)">
                    <g transform="translate(0.408203, 0.000000)">
                        <g>
                            <g>
                                <use fill="#D8D8D8" fill-rule="evenodd" xlink:href="#path-7"></use>
                                <rect stroke="#979797" stroke-width="1" x="0.233398438" y="0.349853516" width="5.53320313" height="16.300293"></rect>
                            </g>
                            <rect fill="#BABABA" x="0.733398438" y="0.849853516" width="4.53320313" height="1.51196289"></rect>
                            <rect fill="#BABABA" x="0.733398438" y="14.5876465" width="4.53320313" height="1.51196289"></rect>
                        </g>
                        <g transform="translate(34.310791, 0.000000)">
                            <g>
                                <use fill="#D8D8D8" fill-rule="evenodd" xlink:href="#path-8"></use>
                                <rect stroke="#979797" stroke-width="1" x="0.233398438" y="0.349853516" width="5.53320313" height="16.300293"></rect>
                            </g>
                            <rect fill="#BABABA" x="0.733398438" y="0.849853516" width="4.53320313" height="1.51196289"></rect>
                            <rect fill="#BABABA" x="0.733398438" y="14.5876465" width="4.53320313" height="1.51196289"></rect>
                        </g>
                    </g>
                    <g transform="translate(0.408203, 50.488281)">
                        <g>
                            <g>
                                <use fill="#D8D8D8" fill-rule="evenodd" xlink:href="#path-9"></use>
                                <rect stroke="#979797" stroke-width="1" x="0.233398438" y="0.349853516" width="5.53320313" height="16.300293"></rect>
                            </g>
                            <rect fill="#BABABA" x="0.733398438" y="0.849853516" width="4.53320313" height="1.51196289"></rect>
                            <rect fill="#BABABA" x="0.733398438" y="14.5876465" width="4.53320313" height="1.51196289"></rect>
                        </g>
                        <g transform="translate(34.310791, 0.000000)">
                            <g>
                                <use fill="#D8D8D8" fill-rule="evenodd" xlink:href="#path-10"></use>
                                <rect stroke="#979797" stroke-width="1" x="0.233398438" y="0.349853516" width="5.53320313" height="16.300293"></rect>
                            </g>
                            <rect fill="#BABABA" x="0.733398438" y="0.849853516" width="4.53320313" height="1.51196289"></rect>
                            <rect fill="#BABABA" x="0.733398438" y="14.5876465" width="4.53320313" height="1.51196289"></rect>
                        </g>
                    </g>
                </g>
            </g>
        </g>
    </g>
</svg>