<?xml version="1.0" encoding="UTF-8" standalone="no"?>
<svg width="200px" height="150px" viewBox="0 0 200 150" version="1.1" xmlns="http://www.w3.org/2000/svg" xmlns:xlink="http://www.w3.org/1999/xlink">
    <!-- Generator: Sketch 48.2 (47327) - http://www.bohemiancoding.com/sketch -->
    <title>Oscillator-LBend</title>
    <desc>Created with Sketch.</desc>
    <defs>
        <path d="M0.666015625,2.31359863 L0.666015625,0.284179688 L11.6083984,0.284179687 C12.1606832,0.284179688 12.6083984,0.731894938 12.6083984,1.28417969 L12.6083984,11.3239161" id="path-1"></path>
        <path d="M0.666015625,2.31359863 L0.666015625,0.284179688 L11.6083984,0.284179687 C12.1606832,0.284179688 12.6083984,0.731894938 12.6083984,1.28417969 L12.6083984,11.3239161" id="path-2"></path>
        <path d="M0.666015625,2.31359863 L0.666015625,0.284179688 L11.6083984,0.284179687 C12.1606832,0.284179688 12.6083984,0.731894938 12.6083984,1.28417969 L12.6083984,11.3239161" id="path-3"></path>
        <path d="M0.666015625,2.31359863 L0.666015625,0.284179688 L11.6083984,0.284179687 C12.1606832,0.284179688 12.6083984,0.731894938 12.6083984,1.28417969 L12.6083984,11.3239161" id="path-4"></path>
        <polygon id="path-5" points="0.133666992 4.11524582 10.5358545 0.294076025 10.5358545 55.1352463 0.133666992 50.9252472"></polygon>
        <polygon id="path-6" points="20.9178467 4.11524582 10.5156592 0.294076025 10.5156592 55.1352463 20.9178467 50.9252472"></polygon>
        <rect id="path-7" x="0.408203125" y="3" width="91" height="54"></rect>
        <rect id="path-8" x="3.25526711" y="5.21240234" width="85.305872" height="49.5751953"></rect>
        <rect id="path-9" x="0.733398438" y="0.628944327" width="4.53320313" height="11.323166"></rect>
        <rect id="path-10" x="0.733398438" y="0.628944327" width="4.53320313" height="11.323166"></rect>
        <rect id="path-11" x="0.733398438" y="0.628944327" width="4.53320313" height="11.323166"></rect>
        <rect id="path-12" x="0.733398438" y="0.628944327" width="4.53320313" height="11.323166"></rect>
    </defs>
    <g stroke="none" stroke-width="1" fill="none" fill-rule="evenodd">
        <g>
            <g transform="translate(26.713379, 46.401367)">
                <g>
                    <g>
                        <use stroke="#979797" stroke-width="3" xlink:href="#path-1"></use>
                        <use stroke="#D8D8D8" stroke-width="1" xlink:href="#path-1"></use>
                    </g>
                    <g>
                        <use stroke="#979797" stroke-width="3" xlink:href="#path-2"></use>
                        <use stroke="#D8D8D8" stroke-width="1" xlink:href="#path-2"></use>
                    </g>
                    <path d="M11.6112061,11.0078125 L13.6112061,11.0078125" stroke="#979797" stroke-linecap="square"></path>
                </g>
                <g transform="translate(7.500000, 50.769043) scale(1, -1) translate(-7.500000, -50.769043) translate(0.000000, 44.269043)">
                    <g>
                        <use stroke="#979797" stroke-width="3" xlink:href="#path-3"></use>
                        <use stroke="#D8D8D8" stroke-width="1" xlink:href="#path-3"></use>
                    </g>
                    <g>
                        <use stroke="#979797" stroke-width="3" xlink:href="#path-4"></use>
                        <use stroke="#D8D8D8" stroke-width="1" xlink:href="#path-4"></use>
                    </g>
                    <path d="M11.6112061,11.0078125 L13.6112061,11.0078125" stroke="#979797" stroke-linecap="square"></path>
                </g>
            </g>
            <g transform="translate(16.781738, 47.401367)">
                <g>
                    <use fill="#585858" fill-rule="evenodd" xlink:href="#path-5"></use>
                    <path stroke="#505050" stroke-width="1" d="M0.633666992,4.46424237 L0.633666992,50.5882106 L10.0358545,54.3934872 L10.0358545,1.01041548 L0.633666992,4.46424237 Z"></path>
                </g>
                <g>
                    <use fill="#585858" fill-rule="evenodd" xlink:href="#path-6"></use>
                    <path stroke="#505050" stroke-width="1" d="M20.4178467,4.46424237 L11.0156592,1.01041548 L11.0156592,54.3934872 L20.4178467,50.5882106 L20.4178467,4.46424237 Z"></path>
                </g>
            </g>
            <g transform="translate(82.000000, 45.000000)">
                <g>
                    <use fill="#585858" fill-rule="evenodd" xlink:href="#path-7"></use>
                    <rect stroke="#505050" stroke-width="1" x="0.908203125" y="3.5" width="90" height="53"></rect>
                </g>
                <g>
                    <use fill="#606060" fill-rule="evenodd" xlink:href="#path-8"></use>
                    <rect stroke="#505050" stroke-width="1" x="3.75526711" y="5.71240234" width="84.305872" height="48.5751953"></rect>
                </g>
                <g transform="translate(24.908203, 0.000000)">
                    <g>
                        <g transform="translate(0.408203, 0.000000)">
                            <g transform="translate(0.982910, 0.577148)">
                                <g>
                                    <use fill="#D8D8D8" fill-rule="evenodd" xlink:href="#path-9"></use>
                                    <rect stroke="#979797" stroke-width="1" x="0.233398438" y="0.128944327" width="5.53320313" height="12.323166"></rect>
                                </g>
                                <rect fill="#BABABA" x="0.733398438" y="0.628944327" width="4.53320313" height="1.11894634"></rect>
                                <rect fill="#BABABA" x="0.733398438" y="10.7957634" width="4.53320313" height="1.11894634"></rect>
                            </g>
                        </g>
                    </g>
                    <g transform="translate(33.051270, 0.000000)">
                        <g transform="translate(0.408203, 0.000000)">
                            <g transform="translate(0.982910, 0.577148)">
                                <g>
                                    <use fill="#D8D8D8" fill-rule="evenodd" xlink:href="#path-10"></use>
                                    <rect stroke="#979797" stroke-width="1" x="0.233398438" y="0.128944327" width="5.53320313" height="12.323166"></rect>
                                </g>
                                <rect fill="#BABABA" x="0.733398438" y="0.628944327" width="4.53320313" height="1.11894634"></rect>
                                <rect fill="#BABABA" x="0.733398438" y="10.7957634" width="4.53320313" height="1.11894634"></rect>
                            </g>
                        </g>
                    </g>
                </g>
                <g transform="translate(24.908203, 46.777832)">
                    <g>
                        <g transform="translate(0.408203, 0.000000)">
                            <g transform="translate(0.982910, 0.577148)">
                                <g>
                                    <use fill="#D8D8D8" fill-rule="evenodd" xlink:href="#path-11"></use>
                                    <rect stroke="#979797" stroke-width="1" x="0.233398438" y="0.128944327" width="5.53320313" height="12.323166"></rect>
                                </g>
                                <rect fill="#BABABA" x="0.733398438" y="0.628944327" width="4.53320313" height="1.11894634"></rect>
                                <rect fill="#BABABA" x="0.733398438" y="10.7957634" width="4.53320313" height="1.11894634"></rect>
                            </g>
                        </g>
                    </g>
                    <g transform="translate(33.051270, 0.000000)">
                        <g transform="translate(0.408203, 0.000000)">
                            <g transform="translate(0.982910, 0.577148)">
                                <g>
                                    <use fill="#D8D8D8" fill-rule="evenodd" xlink:href="#path-12"></use>
                                    <rect stroke="#979797" stroke-width="1" x="0.233398438" y="0.128944327" width="5.53320313" height="12.323166"></rect>
                                </g>
                                <rect fill="#BABABA" x="0.733398438" y="0.628944327" width="4.53320313" height="1.11894634"></rect>
                                <rect fill="#BABABA" x="0.733398438" y="10.7957634" width="4.53320313" height="1.11894634"></rect>
                            </g>
                        </g>
                    </g>
                </g>
            </g>
        </g>
    </g>
</svg>