<?xml version="1.0" encoding="UTF-8" standalone="no"?>
<svg width="290px" height="175px" viewBox="0 0 290 175" version="1.1" xmlns="http://www.w3.org/2000/svg" xmlns:xlink="http://www.w3.org/1999/xlink" >
    <!-- Generator: Sketch 48.2 (47327) - http://www.bohemiancoding.com/sketch -->
    <title>Oscillator-Corner-Concave-Labeled</title>
    <desc>Created with Sketch.</desc>
    <defs>
        <path d="M6.89429443,6.23018229 C8.48063837,4.84705095 9.18998163,2.97254574 9.02232422,0.606666667 L91.9490405,0.606666667 C92.3896431,2.97799186 93.195688,4.65284212 94.3671753,5.63121745 C95.5386626,6.60959278 97.4954375,7.24212967 100.2375,7.52882812 L100.2375,66.1106706 C97.9562663,66.1330803 96.0075993,66.8422405 94.391499,68.238151 C92.7753987,69.6340616 91.9084456,71.3569002 91.7906396,73.4066667 L9.11427979,73.4066667 C8.87367077,70.7508158 8.14257458,68.8938866 6.92099121,67.8358789 C5.69940784,66.7778712 3.59491077,66.1789064 0.6075,66.0389844 L0.6075,7.94354167 C3.21235236,8.18443343 5.3079505,7.61331364 6.89429443,6.23018229 Z" id="path-1"></path>
        <rect id="path-2" x="0" y="0.568157552" width="33.1241748" height="72.8"></rect>
    </defs>
    <g stroke="none" stroke-width="1" fill="none" fill-rule="evenodd">
        <g>
            <g transform="translate(15.772295, -3.521853)">
                <g transform="translate(108.469600, 52.173333)">
                    <g>
                        <use fill="#D8D8D8" fill-rule="evenodd" xlink:href="#path-1"></use>
                        <path stroke="#979797" stroke-width="1" d="M1.1075,8.48080619 L1.1075,65.5661476 C3.94776946,65.7511607 5.99411027,66.3716509 7.24833315,67.4579275 C8.50953623,68.5502496 9.27291961,70.3718655 9.56547895,72.9066667 L91.3315995,72.9066667 C91.5564743,70.9248611 92.4720878,69.2353528 94.0646639,67.8597613 C95.653306,66.4875678 97.5500165,65.7421215 99.7375,65.6261462 L99.7375,7.97542673 C97.1370096,7.65813618 95.2411447,7.01255686 94.0466703,6.01498375 C92.8440658,5.01062069 92.0144063,3.37024987 91.5383133,1.10666667 L9.54488094,1.10666667 C9.58421496,3.37744663 8.80899111,5.22412464 7.22288428,6.60704926 C5.64089188,7.98638651 3.59359216,8.60826871 1.1075,8.48080619 Z"></path>
                    </g>
                    <rect fill="#585858" x="37.1387769" y="0.596298828" width="26.5674463" height="72.8207357"></rect>
                    <rect fill="#585858" x="0.55232666" y="29.12" width="99.7403467" height="15.7733333"></rect>
                </g>
                <g transform="translate(30.417715, 52.173333)">
                    <g>
                        <use fill="#D8D8D8" fill-rule="evenodd" xlink:href="#path-2"></use>
                        <rect stroke="#979797" stroke-width="1" x="0.5" y="1.06815755" width="32.1241748" height="71.8"></rect>
                    </g>
                    <rect fill="#FFF7E2" x="0" y="0.568157552" width="33.1241748" height="2.25663411"></rect>
                    <rect fill="#FFF7E2" x="0" y="71.1817285" width="33.1241748" height="2.25663411"></rect>
                    <rect fill="#585858" x="0" y="7.68760417" width="33.1241748" height="58.638125"></rect>
                </g>
            </g>
            <path d="M174.655056,33.6779167 C178.217821,33.6779167 179.999204,35.778073 179.999204,38.9283076 L179.999204,41.2534807 C179.999204,44.6662349 177.974053,46.803894 174.186271,46.803894 L170.360986,46.803894 L170.360986,33.6779167 L174.655056,33.6779167 Z M177.636528,41.2909835 L177.636528,38.8720534 C177.636528,36.7343942 176.623953,35.4968021 174.542548,35.4968021 L172.723662,35.4968021 L172.723662,44.9850086 L174.205023,44.9850086 C176.492693,44.9850086 177.636528,43.7849192 177.636528,41.2909835 Z" fill="#8D9EB0"></path>
            <path d="M65.896199,43.9391479 L64.808618,40.488891 L60.2707801,40.488891 L59.2769561,43.9391479 L56.8955288,43.9391479 L60.9083276,30.8131706 L64.1148163,30.8131706 L68.3338805,43.9391479 L65.896199,43.9391479 Z M62.5021962,32.4632934 L60.7958192,38.595 L64.2460761,38.595 L62.5021962,32.4632934 Z" fill="#8D9EB0"></path>
            <path d="M224.609619,36.7357435 C224.609619,36.4648792 224.841553,36.2453003 225.109619,36.2453003 L225.109619,36.2453003 C225.385762,36.2453003 225.609619,36.4602431 225.609619,36.7357435 L225.609619,52.7548571 C225.609619,53.0257214 225.377686,53.2453003 225.109619,53.2453003 L225.109619,53.2453003 C224.833477,53.2453003 224.609619,53.0303575 224.609619,52.7548571 L224.609619,36.7357435 Z" fill="#8D9EB0"></path>
            <rect fill="#8D9EB0" x="123.835815" y="36.0097656" width="1" height="17.4710693" rx="0.5"></rect>
            <rect fill="#8D9EB0" x="45.3592529" y="33.5454102" width="1" height="13.9168701" rx="0.5"></rect>
            <rect fill="#8D9EB0" x="79.0286865" y="33.5454102" width="1" height="13.9168701" rx="0.5"></rect>
            <g transform="translate(125.627441, 36.798251)" fill="#8D9EB0">
                <g transform="translate(3.000000, 2.500000) scale(-1, 1) translate(-3.000000, -2.500000) ">
                    <path d="M2.88775351,-0.425866237 C2.98755721,-0.684554916 3.15206769,-0.677565105 3.24917468,-0.425866237 L5.40050076,5.1503168 C5.50030446,5.40900548 5.36527212,5.61871408 5.08097484,5.61871408 L1.05595335,5.61871408 C0.779680363,5.61871408 0.639320451,5.40201566 0.736427439,5.1503168 L2.88775351,-0.425866237 Z" transform="translate(3.069450, 2.500722) rotate(90.000000) translate(-3.069450, -2.500722) "></path>
                </g>
                <rect x="2.85259834" y="1.88944875" width="38" height="1" rx="0.5"></rect>
            </g>
            <g transform="translate(203.127441, 39.298251) scale(-1, 1) translate(-203.127441, -39.298251) translate(182.627441, 36.798251)" fill="#8D9EB0">
                <g transform="translate(3.000000, 2.500000) scale(-1, 1) translate(-3.000000, -2.500000) ">
                    <path d="M2.88775351,-0.425866237 C2.98755721,-0.684554916 3.15206769,-0.677565105 3.24917468,-0.425866237 L5.40050076,5.1503168 C5.50030446,5.40900548 5.36527212,5.61871408 5.08097484,5.61871408 L1.05595335,5.61871408 C0.779680363,5.61871408 0.639320451,5.40201566 0.736427439,5.1503168 L2.88775351,-0.425866237 Z" transform="translate(3.069450, 2.500722) rotate(90.000000) translate(-3.069450, -2.500722) "></path>
                </g>
                <rect x="2.85259834" y="1.88944875" width="37.8925189" height="1" rx="0.5"></rect>
            </g>
            <g transform="translate(98.827399, 47.666748)" fill="#8D9EB0">
                <rect x="0.975335305" y="0.855311308" width="30.8349609" height="1" rx="0.5"></rect>
                <rect x="0.975335305" y="74.7439832" width="30.8349609" height="1" rx="0.5"></rect>
                <g transform="translate(2.599621, 2.172816)">
                    <g transform="translate(3.184082, 3.484497) rotate(-90.000000) translate(-3.184082, -3.484497) translate(0.184082, 0.984497)">
                        <path d="M2.88775351,-0.425866237 C2.98755721,-0.684554916 3.15206769,-0.677565105 3.24917468,-0.425866237 L5.40050076,5.1503168 C5.50030446,5.40900548 5.36527212,5.61871408 5.08097484,5.61871408 L1.05595335,5.61871408 C0.779680363,5.61871408 0.639320451,5.40201566 0.736427439,5.1503168 L2.88775351,-0.425866237 Z" transform="translate(3.069450, 2.500722) rotate(90.000000) translate(-3.069450, -2.500722) "></path>
                    </g>
                    <rect x="2.68408203" y="3.48449707" width="1" height="23.5847518" rx="0.5"></rect>
                </g>
                <g transform="translate(5.599621, 60.912318) scale(1, -1) translate(-5.599621, -60.912318) translate(2.599621, 46.912318)">
                    <g transform="translate(3.184082, 3.484497) rotate(-90.000000) translate(-3.184082, -3.484497) translate(0.184082, 0.984497)">
                        <path d="M2.88775351,-0.425866237 C2.98755721,-0.684554916 3.15206769,-0.677565105 3.24917468,-0.425866237 L5.40050076,5.1503168 C5.50030446,5.40900548 5.36527212,5.61871408 5.08097484,5.61871408 L1.05595335,5.61871408 C0.779680363,5.61871408 0.639320451,5.40201566 0.736427439,5.1503168 L2.88775351,-0.425866237 Z" transform="translate(3.069450, 2.500722) rotate(90.000000) translate(-3.069450, -2.500722) "></path>
                    </g>
                    <rect x="2.68408203" y="3.48449707" width="1" height="24" rx="0.5"></rect>
                </g>
            </g>
            <g transform="translate(99.012695, 71.716064)" fill="#8D9EB0">
                <polygon points="9.9601171 8.73581577 4.65347195 8.73581577 4.65347195 12.4673436 9.54758638 12.4673436 9.54758638 14.2862291 4.65347195 14.2862291 4.65347195 18.2052709 9.9601171 18.2052709 9.9601171 20.0429077 2.29079602 20.0429077 2.29079602 6.91693033 9.9601171 6.91693033"></polygon>
            </g>
            <g transform="translate(226.105719, 76.666748)" fill="#8D9EB0">
                <rect x="0.703606789" y="0.428309355" width="22.8918458" height="1" rx="0.5"></rect>
                <rect x="0.703606789" y="16.2359265" width="22.8918458" height="1" rx="0.5"></rect>
                <g transform="translate(10.004895, 18.028041)">
                    <g transform="translate(3.184082, 3.484497) rotate(-90.000000) translate(-3.184082, -3.484497) translate(0.184082, 0.984497)">
                        <path d="M2.88775351,-0.425866237 C2.98755721,-0.684554916 3.15206769,-0.677565105 3.24917468,-0.425866237 L5.40050076,5.1503168 C5.50030446,5.40900548 5.36527212,5.61871408 5.08097484,5.61871408 L1.05595335,5.61871408 C0.779680363,5.61871408 0.639320451,5.40201566 0.736427439,5.1503168 L2.88775351,-0.425866237 Z" transform="translate(3.069450, 2.500722) rotate(90.000000) translate(-3.069450, -2.500722) "></path>
                    </g>
                    <rect x="2.68408203" y="3.48449707" width="1" height="6" rx="0.5"></rect>
                </g>
            </g>
            <g transform="translate(245.291992, 50.590820)" fill="#8D9EB0">
                <path d="M9.79703116,9.20554233 L4.49038601,9.20554233 L4.49038601,12.9370702 L9.38450044,12.9370702 L9.38450044,14.7559556 L4.49038601,14.7559556 L4.49038601,18.6749974 L9.79703116,18.6749974 L9.79703116,20.5126343 L2.12771008,20.5126343 L2.12771008,7.38665689 L9.79703116,7.38665689 L9.79703116,9.20554233 Z M17.1663299,18.7312516 L19.4727516,18.7312516 L19.4727516,20.5126343 L12.1972099,20.5126343 L12.1972099,18.7312516 L14.8786595,18.7312516 L14.8786595,9.93684678 L12.6097406,11.0619306 L11.7471764,9.52431606 L15.42245,7.38665689 L17.1663299,7.38665689 L17.1663299,18.7312516 Z"></path>
            </g>
            <path d="M170.713772,131.858337 C174.276537,131.858337 176.05792,133.958493 176.05792,137.108728 L176.05792,139.433901 C176.05792,142.846655 174.032769,144.984314 170.244987,144.984314 L166.419702,144.984314 L166.419702,131.858337 L170.713772,131.858337 Z M173.695244,139.471403 L173.695244,137.052473 C173.695244,134.914814 172.682669,133.677222 170.601264,133.677222 L168.782378,133.677222 L168.782378,143.165429 L170.263739,143.165429 C172.551409,143.165429 173.695244,141.965339 173.695244,139.471403 Z M183.389716,143.202931 L185.696138,143.202931 L185.696138,144.984314 L178.420596,144.984314 L178.420596,143.202931 L181.102046,143.202931 L181.102046,134.408526 L178.833127,135.53361 L177.970562,133.995996 L181.645836,131.858337 L183.389716,131.858337 L183.389716,143.202931 Z" fill="#8D9EB0"></path>
            <rect fill="#8D9EB0" x="187.110902" y="124.016602" width="1" height="16.5273438" rx="0.5"></rect>
            <rect fill="#8D9EB0" x="161.338075" y="124.07084" width="1" height="16.4731051" rx="0.5"></rect>
            <g transform="translate(189.578295, 135.955356)" fill="#8D9EB0">
                <g transform="translate(2.026855, 1.500000) scale(-1, 1) translate(-2.026855, -1.500000) translate(-0.973145, -1.000000)">
                    <path d="M2.88775351,-0.425866237 C2.98755721,-0.684554916 3.15206769,-0.677565105 3.24917468,-0.425866237 L5.40050076,5.1503168 C5.50030446,5.40900548 5.36527212,5.61871408 5.08097484,5.61871408 L1.05595335,5.61871408 C0.779680363,5.61871408 0.639320451,5.40201566 0.736427439,5.1503168 L2.88775351,-0.425866237 Z" transform="translate(3.069450, 2.500722) rotate(90.000000) translate(-3.069450, -2.500722) "></path>
                </g>
                <rect x="1.8794538" y="0.889448752" width="6.15211461" height="1" rx="0.5"></rect>
            </g>
            <g transform="translate(155.539721, 137.455356) scale(-1, 1) translate(-155.539721, -137.455356) translate(150.539721, 134.955356)" fill="#8D9EB0">
                <g transform="translate(3.026855, 2.500000) scale(-1, 1) translate(-3.026855, -2.500000) translate(0.026855, 0.000000)">
                    <path d="M2.88775351,-0.425866237 C2.98755721,-0.684554916 3.15206769,-0.677565105 3.24917468,-0.425866237 L5.40050076,5.1503168 C5.50030446,5.40900548 5.36527212,5.61871408 5.08097484,5.61871408 L1.05595335,5.61871408 C0.779680363,5.61871408 0.639320451,5.40201566 0.736427439,5.1503168 L2.88775351,-0.425866237 Z" transform="translate(3.069450, 2.500722) rotate(90.000000) translate(-3.069450, -2.500722) "></path>
                </g>
                <rect x="2.8794538" y="1.88944875" width="6.15211461" height="1" rx="0.5"></rect>
            </g>
            <g transform="translate(81.270189, 34.939148)" fill="#8D9EB0">
                <g transform="translate(3.026855, 2.500000) scale(-1, 1) translate(-3.026855, -2.500000) translate(0.026855, 0.000000)">
                    <path d="M2.88775351,-0.425866237 C2.98755721,-0.684554916 3.15206769,-0.677565105 3.24917468,-0.425866237 L5.40050076,5.1503168 C5.50030446,5.40900548 5.36527212,5.61871408 5.08097484,5.61871408 L1.05595335,5.61871408 C0.779680363,5.61871408 0.639320451,5.40201566 0.736427439,5.1503168 L2.88775351,-0.425866237 Z" transform="translate(3.069450, 2.500722) rotate(90.000000) translate(-3.069450, -2.500722) "></path>
                </g>
                <rect x="2.8794538" y="1.88944875" width="6.15211461" height="1" rx="0.5"></rect>
            </g>
            <g transform="translate(38.723314, 37.439148) scale(-1, 1) translate(-38.723314, -37.439148) translate(33.723314, 34.939148)" fill="#8D9EB0">
                <g transform="translate(3.026855, 2.500000) scale(-1, 1) translate(-3.026855, -2.500000) translate(0.026855, 0.000000)">
                    <path d="M2.88775351,-0.425866237 C2.98755721,-0.684554916 3.15206769,-0.677565105 3.24917468,-0.425866237 L5.40050076,5.1503168 C5.50030446,5.40900548 5.36527212,5.61871408 5.08097484,5.61871408 L1.05595335,5.61871408 C0.779680363,5.61871408 0.639320451,5.40201566 0.736427439,5.1503168 L2.88775351,-0.425866237 Z" transform="translate(3.069450, 2.500722) rotate(90.000000) translate(-3.069450, -2.500722) "></path>
                </g>
                <rect x="2.8794538" y="1.88944875" width="6.15211461" height="1" rx="0.5"></rect>
            </g>
            <g transform="translate(236.003662, 63.431308)" fill="#8D9EB0">
                <g transform="translate(2.184082, 9.000000) rotate(90.000000) translate(-2.184082, -9.000000) translate(-0.815918, 6.500000)">
                    <path d="M2.88775351,-0.425866237 C2.98755721,-0.684554916 3.15206769,-0.677565105 3.24917468,-0.425866237 L5.40050076,5.1503168 C5.50030446,5.40900548 5.36527212,5.61871408 5.08097484,5.61871408 L1.05595335,5.61871408 C0.779680363,5.61871408 0.639320451,5.40201566 0.736427439,5.1503168 L2.88775351,-0.425866237 Z" transform="translate(3.069450, 2.500722) rotate(90.000000) translate(-3.069450, -2.500722) "></path>
                </g>
                <rect x="1.68408203" y="7.10542736e-15" width="1" height="8.00952148" rx="0.5"></rect>
                <rect x="1.68408203" y="7.10542736e-15" width="6" height="1" rx="0.5"></rect>
            </g>
        </g>
    </g>
</svg>
