<?xml version="1.0" encoding="UTF-8" standalone="no"?>
<svg width="200px" height="150px" viewBox="0 0 200 150" version="1.1" xmlns="http://www.w3.org/2000/svg" xmlns:xlink="http://www.w3.org/1999/xlink">
    <!-- Generator: Sketch 48.2 (47327) - http://www.bohemiancoding.com/sketch -->
    <title>Oscillator-Corner-Concave</title>
    <desc>Created with Sketch.</desc>
    <defs>
        <path d="M5.67431641,5.13476562 C6.97994927,3.99482221 7.56377089,2.44990033 7.42578125,0.5 L75.6782227,0.5 C76.0408585,2.45438889 76.7042699,3.83475999 77.668457,4.64111328 C78.6326441,5.44746658 80.2431584,5.96878819 82.5,6.20507812 L82.5,54.4868164 C80.6224414,54.505286 79.0186003,55.0897586 77.6884766,56.2402344 C76.3583528,57.3907101 75.6448112,58.810632 75.5478516,60.5 L7.50146484,60.5 C7.30343274,58.3111119 6.70170748,56.7806757 5.69628906,55.9086914 C4.69087065,55.0367071 2.9587743,54.5430547 0.5,54.4277344 L0.5,6.546875 C2.6439114,6.74541217 4.36868354,6.27470904 5.67431641,5.13476562 Z" id="path-1"></path>
        <rect id="path-2" x="0" y="0.468261719" width="27.2626953" height="60"></rect>
    </defs>
    <g stroke="none" stroke-width="1" fill="none" fill-rule="evenodd">
        <g>
            <g transform="translate(89.275391, 43.000000)">
                <g>
                    <use fill="#D8D8D8" fill-rule="evenodd" xlink:href="#path-1"></use>
                    <path stroke="#979797" stroke-width="1" d="M1,7.08183053 L1,53.9558698 C3.31258998,54.1161231 4.98666559,54.6313953 6.0238877,55.5309625 C7.067971,56.4364803 7.70183107,57.9313012 7.95153331,60 L75.0914163,60 C75.2939258,58.3782455 76.054934,56.9920666 77.3613846,55.8620666 C78.6637257,54.7356211 80.2154489,54.1155585 82,54.0045259 L82,6.6507693 C79.8838616,6.38401931 78.3341112,5.84960836 77.3476929,5.02466302 C76.3532184,4.19298021 75.6663754,2.84733912 75.2684443,1 L7.94536925,1 C7.95648765,2.8558193 7.30795001,4.37220368 6.00316245,5.51140906 C4.70256751,6.64695388 3.02636717,7.16785688 1,7.08183053 Z"></path>
                </g>
                <rect fill="#585858" x="30.5668945" y="0.491455078" width="21.8662109" height="60.0170898"></rect>
                <rect fill="#585858" x="0.454589844" y="24" width="82.0908203" height="13"></rect>
            </g>
            <g transform="translate(25.035156, 43.000000)">
                <g>
                    <use fill="#D8D8D8" fill-rule="evenodd" xlink:href="#path-2"></use>
                    <rect stroke="#979797" stroke-width="1" x="0.5" y="0.968261719" width="26.2626953" height="59"></rect>
                </g>
                <rect fill="#FFF7E2" x="0" y="0.468261719" width="27.2626953" height="1.85986328"></rect>
                <rect fill="#FFF7E2" x="0" y="58.6662598" width="27.2626953" height="1.85986328"></rect>
                <rect fill="#585858" x="0" y="6.3359375" width="27.2626953" height="48.328125"></rect>
            </g>
        </g>
    </g>
</svg>