<?xml version="1.0" encoding="UTF-8" standalone="no"?>
<svg width="290px" height="175px" viewBox="0 0 290 175" version="1.1" xmlns="http://www.w3.org/2000/svg" xmlns:xlink="http://www.w3.org/1999/xlink" >
    <!-- Generator: Sketch 48.2 (47327) - http://www.bohemiancoding.com/sketch -->
    <title>Oscillator-LBend-Labeled</title>
    <desc>Created with Sketch.</desc>
    <defs>
        <path d="M0.802548828,2.79174235 L0.802548828,0.342910156 L14.1931201,0.342910156 C14.7454049,0.342910156 15.1931201,0.790625406 15.1931201,1.34291016 L15.1931201,13.6641921" id="path-1"></path>
        <path d="M0.802548828,2.79174235 L0.802548828,0.342910156 L14.1931201,0.342910156 C14.7454049,0.342910156 15.1931201,0.790625406 15.1931201,1.34291016 L15.1931201,13.6641921" id="path-2"></path>
        <path d="M0.802548828,2.79174235 L0.802548828,0.342910156 L14.1931201,0.342910156 C14.7454049,0.342910156 15.1931201,0.790625406 15.1931201,1.34291016 L15.1931201,13.6641921" id="path-3"></path>
        <path d="M0.802548828,2.79174235 L0.802548828,0.342910156 L14.1931201,0.342910156 C14.7454049,0.342910156 15.1931201,0.790625406 15.1931201,1.34291016 L15.1931201,13.6641921" id="path-4"></path>
        <polygon id="path-5" points="0.161068726 4.96572996 12.6957046 0.354851737 12.6957046 66.5298638 0.161068726 61.4497983"></polygon>
        <polygon id="path-6" points="25.2060052 4.96572996 12.6713693 0.354851737 12.6713693 66.5298638 25.2060052 61.4497983"></polygon>
        <rect id="path-7" x="0.491884766" y="3.62" width="109.655" height="65.16"></rect>
        <rect id="path-8" x="3.92259687" y="6.28963216" width="102.793576" height="59.8207357"></rect>
        <rect id="path-9" x="0.883745117" y="0.758926154" width="5.46250977" height="13.663287"></rect>
        <rect id="path-10" x="0.883745117" y="0.758926154" width="5.46250977" height="13.663287"></rect>
        <rect id="path-11" x="0.883745117" y="0.758926154" width="5.46250977" height="13.663287"></rect>
        <rect id="path-12" x="0.883745117" y="0.758926154" width="5.46250977" height="13.663287"></rect>
    </defs>
    <g stroke="none" stroke-width="1" fill="none" fill-rule="evenodd">
        <g>
            <g transform="translate(14.058999, 1.943175)">
                <g transform="translate(32.189622, 55.990983)">
                    <g>
                        <g>
                            <use stroke="#979797" stroke-width="3" xlink:href="#path-1"></use>
                            <use stroke="#D8D8D8" stroke-width="1" xlink:href="#path-1"></use>
                        </g>
                        <g>
                            <use stroke="#979797" stroke-width="3" xlink:href="#path-2"></use>
                            <use stroke="#D8D8D8" stroke-width="1" xlink:href="#path-2"></use>
                        </g>
                        <path d="M13.9915033,13.2827604 L16.4015033,13.2827604" stroke="#979797" stroke-linecap="square"></path>
                    </g>
                    <g transform="translate(9.037500, 61.261312) scale(1, -1) translate(-9.037500, -61.261312) translate(0.000000, 53.417979)">
                        <g>
                            <use stroke="#979797" stroke-width="3" xlink:href="#path-3"></use>
                            <use stroke="#D8D8D8" stroke-width="1" xlink:href="#path-3"></use>
                        </g>
                        <g>
                            <use stroke="#979797" stroke-width="3" xlink:href="#path-4"></use>
                            <use stroke="#D8D8D8" stroke-width="1" xlink:href="#path-4"></use>
                        </g>
                        <path d="M13.9915033,13.2827604 L16.4015033,13.2827604" stroke="#979797" stroke-linecap="square"></path>
                    </g>
                </g>
                <g transform="translate(20.221995, 57.197650)">
                    <g>
                        <use fill="#585858" fill-rule="evenodd" xlink:href="#path-5"></use>
                        <path stroke="#505050" stroke-width="1" d="M0.661068726,5.31456012 L0.661068726,61.1129365 L12.1957046,65.7877198 L12.1957046,1.07153289 L0.661068726,5.31456012 Z"></path>
                    </g>
                    <g>
                        <use fill="#585858" fill-rule="evenodd" xlink:href="#path-6"></use>
                        <path stroke="#505050" stroke-width="1" d="M24.7060052,5.31456012 L13.1713693,1.07153289 L13.1713693,65.7877198 L24.7060052,61.1129365 L24.7060052,5.31456012 Z"></path>
                    </g>
                </g>
                <g transform="translate(98.810000, 54.300000)">
                    <g>
                        <use fill="#585858" fill-rule="evenodd" xlink:href="#path-7"></use>
                        <rect stroke="#505050" stroke-width="1" x="0.991884766" y="4.12" width="108.655" height="64.16"></rect>
                    </g>
                    <g>
                        <use fill="#606060" fill-rule="evenodd" xlink:href="#path-8"></use>
                        <rect stroke="#505050" stroke-width="1" x="4.42259687" y="6.78963216" width="101.793576" height="58.8207357"></rect>
                    </g>
                    <g transform="translate(30.014385, 0.000000)">
                        <g>
                            <g transform="translate(0.491885, 0.000000)">
                                <g transform="translate(1.184407, 0.696426)">
                                    <g>
                                        <use fill="#D8D8D8" fill-rule="evenodd" xlink:href="#path-9"></use>
                                        <rect stroke="#979797" stroke-width="1" x="0.383745117" y="0.258926154" width="6.46250977" height="14.663287"></rect>
                                    </g>
                                    <rect fill="#BABABA" x="0.883745117" y="0.758926154" width="5.46250977" height="1.35019525"></rect>
                                    <rect fill="#BABABA" x="0.883745117" y="13.0268879" width="5.46250977" height="1.35019525"></rect>
                                </g>
                            </g>
                        </g>
                        <g transform="translate(39.826780, 0.000000)">
                            <g transform="translate(0.491885, 0.000000)">
                                <g transform="translate(1.184407, 0.696426)">
                                    <g>
                                        <use fill="#D8D8D8" fill-rule="evenodd" xlink:href="#path-10"></use>
                                        <rect stroke="#979797" stroke-width="1" x="0.383745117" y="0.258926154" width="6.46250977" height="14.663287"></rect>
                                    </g>
                                    <rect fill="#BABABA" x="0.883745117" y="0.758926154" width="5.46250977" height="1.35019525"></rect>
                                    <rect fill="#BABABA" x="0.883745117" y="13.0268879" width="5.46250977" height="1.35019525"></rect>
                                </g>
                            </g>
                        </g>
                    </g>
                    <g transform="translate(30.014385, 56.445251)">
                        <g>
                            <g transform="translate(0.491885, 0.000000)">
                                <g transform="translate(1.184407, 0.696426)">
                                    <g>
                                        <use fill="#D8D8D8" fill-rule="evenodd" xlink:href="#path-11"></use>
                                        <rect stroke="#979797" stroke-width="1" x="0.383745117" y="0.258926154" width="6.46250977" height="14.663287"></rect>
                                    </g>
                                    <rect fill="#BABABA" x="0.883745117" y="0.758926154" width="5.46250977" height="1.35019525"></rect>
                                    <rect fill="#BABABA" x="0.883745117" y="13.0268879" width="5.46250977" height="1.35019525"></rect>
                                </g>
                            </g>
                        </g>
                        <g transform="translate(39.826780, 0.000000)">
                            <g transform="translate(0.491885, 0.000000)">
                                <g transform="translate(1.184407, 0.696426)">
                                    <g>
                                        <use fill="#D8D8D8" fill-rule="evenodd" xlink:href="#path-12"></use>
                                        <rect stroke="#979797" stroke-width="1" x="0.383745117" y="0.258926154" width="6.46250977" height="14.663287"></rect>
                                    </g>
                                    <rect fill="#BABABA" x="0.883745117" y="0.758926154" width="5.46250977" height="1.35019525"></rect>
                                    <rect fill="#BABABA" x="0.883745117" y="13.0268879" width="5.46250977" height="1.35019525"></rect>
                                </g>
                            </g>
                        </g>
                    </g>
                </g>
            </g>
            <path d="M74.4656168,86.9881633 L69.1589716,86.9881633 L69.1589716,90.7196912 L74.053086,90.7196912 L74.053086,92.5385766 L69.1589716,92.5385766 L69.1589716,96.4576185 L74.4656168,96.4576185 L74.4656168,98.2952553 L66.7962957,98.2952553 L66.7962957,85.1692779 L74.4656168,85.1692779 L74.4656168,86.9881633 Z M78.7034323,96.3826129 L84.8351389,96.3826129 L84.8351389,98.2952553 L76.3782592,98.2952553 L76.3782592,96.9639062 C76.3782592,94.638733 77.5033429,93.3636381 79.022206,92.3135599 L80.8223401,91.0759677 C82.0036781,90.2696577 82.4537116,89.7821214 82.4537116,88.9195572 L82.4537116,88.4695236 C82.4537116,87.681965 81.8349155,86.7631466 80.2785496,86.7631466 C79.1534658,86.7631466 78.2721502,87.1006717 77.1470664,87.8882304 L76.0969882,86.4631242 C77.315829,85.506803 78.6846809,84.9255097 80.4285608,84.9255097 C83.2600216,84.9255097 84.8163875,86.6318868 84.8163875,88.3945181 L84.8163875,88.9758113 C84.8163875,90.2696577 84.0288288,91.4134929 82.0036781,92.7260906 L80.5598205,93.6636604 C79.0972116,94.6199816 78.7409351,95.3887889 78.7034323,96.3826129 Z" fill="#8D9EB0"></path>
            <path d="M167.655056,25.6779167 C171.217821,25.6779167 172.999204,27.778073 172.999204,30.9283076 L172.999204,33.2534807 C172.999204,36.6662349 170.974053,38.803894 167.186271,38.803894 L163.360986,38.803894 L163.360986,25.6779167 L167.655056,25.6779167 Z M170.636528,33.2909835 L170.636528,30.8720534 C170.636528,28.7343942 169.623953,27.4968021 167.542548,27.4968021 L165.723662,27.4968021 L165.723662,36.9850086 L167.205023,36.9850086 C169.492693,36.9850086 170.636528,35.7849192 170.636528,33.2909835 Z" fill="#8D9EB0"></path>
            <path d="M173.049059,48.2937364 C173.049059,48.7062672 173.011556,49.1187979 172.974053,49.4188202 L166.542324,49.4188202 C166.579827,51.3314626 167.461143,52.1752755 169.186271,52.1752755 C170.273852,52.1752755 171.080162,51.7814961 171.84897,51.350214 L172.674031,52.7378174 C171.830218,53.3753648 170.480118,53.9191553 169.03626,53.9191553 C165.998534,53.9191553 164.273405,51.9127559 164.273405,49.2125549 L164.273405,48.1812281 C164.273405,45.481027 165.961031,43.4371248 168.736238,43.4371248 C171.45519,43.4371248 173.049059,45.1247505 173.049059,48.2937364 Z M170.967654,47.8999571 L170.967654,47.8062001 C170.967654,46.0810717 170.198847,45.1435019 168.754989,45.1435019 C167.329883,45.1435019 166.579827,46.0810717 166.542324,47.8999571 L170.967654,47.8999571 Z" fill="#8D9EB0"></path>
            <path d="M52.3667057,50.6753872 L51.2791248,47.2251303 L46.7412869,47.2251303 L45.7474629,50.6753872 L43.3660355,50.6753872 L47.3788343,37.5494098 L50.5853231,37.5494098 L54.8043873,50.6753872 L52.3667057,50.6753872 Z M48.972703,39.1995326 L47.266326,45.3312392 L50.7165829,45.3312392 L48.972703,39.1995326 Z" fill="#8D9EB0"></path>
            <path d="M221.609619,27.5207941 C221.609619,27.2430237 221.841553,27.0178464 222.109619,27.0178464 L222.109619,27.0178464 C222.385762,27.0178464 222.609619,27.2394116 222.609619,27.5207941 L222.609619,58.5342596 C222.609619,58.81203 222.377686,59.0372073 222.109619,59.0372073 L222.109619,59.0372073 C221.833477,59.0372073 221.609619,58.8156421 221.609619,58.5342596 L221.609619,27.5207941 Z" fill="#8D9EB0"></path>
            <rect fill="#8D9EB0" x="113.835815" y="26.5742188" width="1" height="32.9066162" rx="0.5"></rect>
            <rect fill="#8D9EB0" x="147.539721" y="45.6489258" width="1" height="10.3636475" rx="0.5"></rect>
            <rect fill="#8D9EB0" x="187.921557" y="45.6489258" width="1" height="10.3636475" rx="0.5"></rect>
            <rect fill="#8D9EB0" x="34.3592529" y="41.5454102" width="1" height="20.9168701" rx="0.5"></rect>
            <rect fill="#8D9EB0" x="61.0286865" y="41.5454102" width="1" height="13.9168701" rx="0.5"></rect>
            <g transform="translate(114.627441, 28.798251)" fill="#8D9EB0">
                <g transform="translate(3.000000, 2.500000) scale(-1, 1) translate(-3.000000, -2.500000) ">
                    <path d="M2.88775351,-0.425866237 C2.98755721,-0.684554916 3.15206769,-0.677565105 3.24917468,-0.425866237 L5.40050076,5.1503168 C5.50030446,5.40900548 5.36527212,5.61871408 5.08097484,5.61871408 L1.05595335,5.61871408 C0.779680363,5.61871408 0.639320451,5.40201566 0.736427439,5.1503168 L2.88775351,-0.425866237 Z" transform="translate(3.069450, 2.500722) rotate(90.000000) translate(-3.069450, -2.500722) "></path>
                </g>
                <rect x="2.85259834" y="1.88944875" width="44.8101214" height="1" rx="0.5"></rect>
            </g>
            <g transform="translate(201.127441, 31.298251) scale(-1, 1) translate(-201.127441, -31.298251) translate(180.627441, 28.798251)" fill="#8D9EB0">
                <g transform="translate(3.000000, 2.500000) scale(-1, 1) translate(-3.000000, -2.500000) ">
                    <path d="M2.88775351,-0.425866237 C2.98755721,-0.684554916 3.15206769,-0.677565105 3.24917468,-0.425866237 L5.40050076,5.1503168 C5.50030446,5.40900548 5.36527212,5.61871408 5.08097484,5.61871408 L1.05595335,5.61871408 C0.779680363,5.61871408 0.639320451,5.40201566 0.736427439,5.1503168 L2.88775351,-0.425866237 Z" transform="translate(3.069450, 2.500722) rotate(90.000000) translate(-3.069450, -2.500722) "></path>
                </g>
                <rect x="2.85259834" y="1.88944875" width="45" height="1" rx="0.5"></rect>
            </g>
            <g transform="translate(223.827399, 59.666748)" fill="#8D9EB0">
                <rect x="0.280999368" y="0.172816191" width="21.9658203" height="1" rx="0.5"></rect>
                <rect x="0.280999368" y="64.627284" width="21.9658203" height="1" rx="0.5"></rect>
                <g transform="translate(16.024426, 1.172816)">
                    <g transform="translate(3.184082, 3.484497) rotate(-90.000000) translate(-3.184082, -3.484497) translate(0.184082, 0.984497)">
                        <path d="M2.88775351,-0.425866237 C2.98755721,-0.684554916 3.15206769,-0.677565105 3.24917468,-0.425866237 L5.40050076,5.1503168 C5.50030446,5.40900548 5.36527212,5.61871408 5.08097484,5.61871408 L1.05595335,5.61871408 C0.779680363,5.61871408 0.639320451,5.40201566 0.736427439,5.1503168 L2.88775351,-0.425866237 Z" transform="translate(3.069450, 2.500722) rotate(90.000000) translate(-3.069450, -2.500722) "></path>
                    </g>
                    <rect x="2.68408203" y="3.48449707" width="1" height="19.1820418" rx="0.5"></rect>
                </g>
                <g transform="translate(19.024426, 52.499965) scale(1, -1) translate(-19.024426, -52.499965) translate(16.024426, 40.999965)">
                    <g transform="translate(3.184082, 3.484497) rotate(-90.000000) translate(-3.184082, -3.484497) translate(0.184082, 0.984497)">
                        <path d="M2.88775351,-0.425866237 C2.98755721,-0.684554916 3.15206769,-0.677565105 3.24917468,-0.425866237 L5.40050076,5.1503168 C5.50030446,5.40900548 5.36527212,5.61871408 5.08097484,5.61871408 L1.05595335,5.61871408 C0.779680363,5.61871408 0.639320451,5.40201566 0.736427439,5.1503168 L2.88775351,-0.425866237 Z" transform="translate(3.069450, 2.500722) rotate(90.000000) translate(-3.069450, -2.500722) "></path>
                    </g>
                    <rect x="2.68408203" y="3.48449707" width="1" height="19" rx="0.5"></rect>
                </g>
            </g>
            <g transform="translate(64.827399, 63.666748)" fill="#8D9EB0">
                <rect x="0.280999368" y="0.172816191" width="21.9658203" height="1" rx="0.5"></rect>
                <rect x="0.280999368" y="55.627284" width="21.9658203" height="1" rx="0.5"></rect>
                <g transform="translate(6.024426, 1.172816)">
                    <g transform="translate(3.184082, 3.484497) rotate(-90.000000) translate(-3.184082, -3.484497) translate(0.184082, 0.984497)">
                        <path d="M2.88775351,-0.425866237 C2.98755721,-0.684554916 3.15206769,-0.677565105 3.24917468,-0.425866237 L5.40050076,5.1503168 C5.50030446,5.40900548 5.36527212,5.61871408 5.08097484,5.61871408 L1.05595335,5.61871408 C0.779680363,5.61871408 0.639320451,5.40201566 0.736427439,5.1503168 L2.88775351,-0.425866237 Z" transform="translate(3.069450, 2.500722) rotate(90.000000) translate(-3.069450, -2.500722) "></path>
                    </g>
                    <rect x="2.68408203" y="3.48449707" width="1" height="13.2993514" rx="0.5"></rect>
                </g>
                <g transform="translate(9.024426, 46.499965) scale(1, -1) translate(-9.024426, -46.499965) translate(6.024426, 37.999965)">
                    <g transform="translate(3.184082, 3.484497) rotate(-90.000000) translate(-3.184082, -3.484497) translate(0.184082, 0.984497)">
                        <path d="M2.88775351,-0.425866237 C2.98755721,-0.684554916 3.15206769,-0.677565105 3.24917468,-0.425866237 L5.40050076,5.1503168 C5.50030446,5.40900548 5.36527212,5.61871408 5.08097484,5.61871408 L1.05595335,5.61871408 C0.779680363,5.61871408 0.639320451,5.40201566 0.736427439,5.1503168 L2.88775351,-0.425866237 Z" transform="translate(3.069450, 2.500722) rotate(90.000000) translate(-3.069450, -2.500722) "></path>
                    </g>
                    <rect x="2.68408203" y="3.48449707" width="1" height="13" rx="0.5"></rect>
                </g>
            </g>
            <g transform="translate(193.000000, 56.666748)" fill="#8D9EB0">
                <rect x="0.00732421875" y="0.410365019" width="77.8955078" height="1" rx="0.5"></rect>
                <rect x="0.00732421875" y="71" width="77.8955078" height="1" rx="0.5"></rect>
                <g transform="translate(71.902832, 1.410365)">
                    <g transform="translate(3.184082, 3.484497) rotate(-90.000000) translate(-3.184082, -3.484497) translate(0.184082, 0.984497)">
                        <path d="M2.88775351,-0.425866237 C2.98755721,-0.684554916 3.15206769,-0.677565105 3.24917468,-0.425866237 L5.40050076,5.1503168 C5.50030446,5.40900548 5.36527212,5.61871408 5.08097484,5.61871408 L1.05595335,5.61871408 C0.779680363,5.61871408 0.639320451,5.40201566 0.736427439,5.1503168 L2.88775351,-0.425866237 Z" transform="translate(3.069450, 2.500722) rotate(90.000000) translate(-3.069450, -2.500722) "></path>
                    </g>
                    <rect x="2.68408203" y="3.48449707" width="1" height="22.2910506" rx="0.5"></rect>
                </g>
                <g transform="translate(74.902832, 57.500000) scale(1, -1) translate(-74.902832, -57.500000) translate(71.902832, 43.500000)">
                    <g transform="translate(3.184082, 3.484497) rotate(-90.000000) translate(-3.184082, -3.484497) translate(0.184082, 0.984497)">
                        <path d="M2.88775351,-0.425866237 C2.98755721,-0.684554916 3.15206769,-0.677565105 3.24917468,-0.425866237 L5.40050076,5.1503168 C5.50030446,5.40900548 5.36527212,5.61871408 5.08097484,5.61871408 L1.05595335,5.61871408 C0.779680363,5.61871408 0.639320451,5.40201566 0.736427439,5.1503168 L2.88775351,-0.425866237 Z" transform="translate(3.069450, 2.500722) rotate(90.000000) translate(-3.069450, -2.500722) "></path>
                    </g>
                    <rect x="2.68408203" y="3.48449707" width="1" height="23.5172123" rx="0.5"></rect>
                </g>
            </g>
            <g transform="translate(232.437500, 78.166748)" fill="#8D9EB0">
                <path d="M9.9601171,9.4857617 L4.65347195,9.4857617 L4.65347195,13.2172896 L9.54758638,13.2172896 L9.54758638,15.036175 L4.65347195,15.036175 L4.65347195,18.9552168 L9.9601171,18.9552168 L9.9601171,20.7928536 L2.29079602,20.7928536 L2.29079602,7.66687626 L9.9601171,7.66687626 L9.9601171,9.4857617 Z M17.3294158,19.011471 L19.6358376,19.011471 L19.6358376,20.7928536 L12.3602958,20.7928536 L12.3602958,19.011471 L15.0417455,19.011471 L15.0417455,10.2170662 L12.7728265,11.3421499 L11.9102623,9.80453544 L15.585536,7.66687626 L17.3294158,7.66687626 L17.3294158,19.011471 Z"></path>
            </g>
            <rect fill="#8D9EB0" x="151.657777" y="130.443848" width="1" height="16.5273438" rx="0.5"></rect>
            <rect fill="#8D9EB0" x="144.520692" y="130.470967" width="1" height="16.4731051" rx="0.5"></rect>
            <g transform="translate(154.125170, 142.274692)" fill="#8D9EB0">
                <g transform="translate(2.026855, 1.500000) scale(-1, 1) translate(-2.026855, -1.500000) translate(-0.973145, -1.000000)">
                    <path d="M2.88775351,-0.425866237 C2.98755721,-0.684554916 3.15206769,-0.677565105 3.24917468,-0.425866237 L5.40050076,5.1503168 C5.50030446,5.40900548 5.36527212,5.61871408 5.08097484,5.61871408 L1.05595335,5.61871408 C0.779680363,5.61871408 0.639320451,5.40201566 0.736427439,5.1503168 L2.88775351,-0.425866237 Z" transform="translate(3.069450, 2.500722) rotate(90.000000) translate(-3.069450, -2.500722) "></path>
                </g>
                <rect x="1.8794538" y="0.889448752" width="6.15211461" height="1" rx="0.5"></rect>
            </g>
            <g transform="translate(138.722338, 143.990513) scale(-1, 1) translate(-138.722338, -143.990513) translate(133.722338, 141.490513)" fill="#8D9EB0">
                <g transform="translate(3.026855, 2.500000) scale(-1, 1) translate(-3.026855, -2.500000) translate(0.026855, 0.000000)">
                    <path d="M2.88775351,-0.425866237 C2.98755721,-0.684554916 3.15206769,-0.677565105 3.24917468,-0.425866237 L5.40050076,5.1503168 C5.50030446,5.40900548 5.36527212,5.61871408 5.08097484,5.61871408 L1.05595335,5.61871408 C0.779680363,5.61871408 0.639320451,5.40201566 0.736427439,5.1503168 L2.88775351,-0.425866237 Z" transform="translate(3.069450, 2.500722) rotate(90.000000) translate(-3.069450, -2.500722) "></path>
                </g>
                <rect x="2.8794538" y="1.88944875" width="6.15211461" height="1" rx="0.5"></rect>
            </g>
            <g transform="translate(148.338075, 46.503845)" fill="#8D9EB0">
                <g transform="translate(3.026855, 2.500000) scale(-1, 1) translate(-3.026855, -2.500000) translate(0.026855, 0.000000)">
                    <path d="M2.88775351,-0.425866237 C2.98755721,-0.684554916 3.15206769,-0.677565105 3.24917468,-0.425866237 L5.40050076,5.1503168 C5.50030446,5.40900548 5.36527212,5.61871408 5.08097484,5.61871408 L1.05595335,5.61871408 C0.779680363,5.61871408 0.639320451,5.40201566 0.736427439,5.1503168 L2.88775351,-0.425866237 Z" transform="translate(3.069450, 2.500722) rotate(90.000000) translate(-3.069450, -2.500722) "></path>
                </g>
                <rect x="2.8794538" y="1.88944875" width="11.1578371" height="1" rx="0.5"></rect>
            </g>
            <g transform="translate(181.578295, 49.003845) scale(-1, 1) translate(-181.578295, -49.003845) translate(174.578295, 46.503845)" fill="#8D9EB0">
                <g transform="translate(3.026855, 2.500000) scale(-1, 1) translate(-3.026855, -2.500000) translate(0.026855, 0.000000)">
                    <path d="M2.88775351,-0.425866237 C2.98755721,-0.684554916 3.15206769,-0.677565105 3.24917468,-0.425866237 L5.40050076,5.1503168 C5.50030446,5.40900548 5.36527212,5.61871408 5.08097484,5.61871408 L1.05595335,5.61871408 C0.779680363,5.61871408 0.639320451,5.40201566 0.736427439,5.1503168 L2.88775351,-0.425866237 Z" transform="translate(3.069450, 2.500722) rotate(90.000000) translate(-3.069450, -2.500722) "></path>
                </g>
                <rect x="2.8794538" y="1.88944875" width="11" height="1" rx="0.5"></rect>
            </g>
            <g transform="translate(62.827399, 41.439148)" fill="#8D9EB0">
                <g transform="translate(3.026855, 2.500000) scale(-1, 1) translate(-3.026855, -2.500000) translate(0.026855, 0.000000)">
                    <path d="M2.88775351,-0.425866237 C2.98755721,-0.684554916 3.15206769,-0.677565105 3.24917468,-0.425866237 L5.40050076,5.1503168 C5.50030446,5.40900548 5.36527212,5.61871408 5.08097484,5.61871408 L1.05595335,5.61871408 C0.779680363,5.61871408 0.639320451,5.40201566 0.736427439,5.1503168 L2.88775351,-0.425866237 Z" transform="translate(3.069450, 2.500722) rotate(90.000000) translate(-3.069450, -2.500722) "></path>
                </g>
                <rect x="2.8794538" y="1.88944875" width="9.3314359" height="1" rx="0.5"></rect>
            </g>
            <g transform="translate(26.690233, 43.939148) scale(-1, 1) translate(-26.690233, -43.939148) translate(20.690233, 41.439148)" fill="#8D9EB0">
                <g transform="translate(3.026855, 2.500000) scale(-1, 1) translate(-3.026855, -2.500000) translate(0.026855, 0.000000)">
                    <path d="M2.88775351,-0.425866237 C2.98755721,-0.684554916 3.15206769,-0.677565105 3.24917468,-0.425866237 L5.40050076,5.1503168 C5.50030446,5.40900548 5.36527212,5.61871408 5.08097484,5.61871408 L1.05595335,5.61871408 C0.779680363,5.61871408 0.639320451,5.40201566 0.736427439,5.1503168 L2.88775351,-0.425866237 Z" transform="translate(3.069450, 2.500722) rotate(90.000000) translate(-3.069450, -2.500722) "></path>
                </g>
                <rect x="2.8794538" y="1.88944875" width="9" height="1" rx="0.5"></rect>
            </g>
            <polygon fill="#8D9EB0" points="272.302446 87.6525101 266.995801 87.6525101 266.995801 91.384038 271.889915 91.384038 271.889915 93.2029234 266.995801 93.2029234 266.995801 97.1219652 272.302446 97.1219652 272.302446 98.9596021 264.633125 98.9596021 264.633125 85.8336247 272.302446 85.8336247"></polygon>
            <path d="M168.993381,141.050739 C171.281052,141.050739 172.781163,142.888376 172.781163,145.776091 L172.781163,146.788666 C172.781163,149.545122 170.999781,151.53277 168.71211,151.53277 C167.643281,151.53277 166.780717,151.13899 166.086915,150.426437 L165.899401,151.289001 L164.080516,151.289001 L164.080516,137.412968 L166.405689,137.412968 L166.405689,142.082066 C167.043236,141.425767 167.9058,141.050739 168.993381,141.050739 Z M170.45599,146.863672 L170.45599,145.701085 C170.45599,143.75094 169.799691,142.81337 168.524597,142.81337 C167.624529,142.81337 166.911976,143.244652 166.405689,143.8822 L166.405689,148.945077 C166.911976,149.488867 167.549524,149.78889 168.318331,149.78889 C169.612177,149.78889 170.45599,148.776314 170.45599,146.863672 Z" fill="#8D9EB0"></path>
        </g>
    </g>
</svg>
