<?xml version="1.0" encoding="UTF-8"?>
<svg width="200px" height="150px" viewBox="0 0 200 150" version="1.1" xmlns="http://www.w3.org/2000/svg" xmlns:xlink="http://www.w3.org/1999/xlink">
    <!-- Generator: Sketch 50.2 (55047) - http://www.bohemiancoding.com/sketch -->
    <title>QFN Thermal</title>
    <desc>Created with Sketch.</desc>
    <defs></defs>
    <g id="QFN-Thermal" stroke="none" stroke-width="1" fill="none" fill-rule="evenodd">
        <rect id="Rectangle-31" stroke="#505050" stroke-width="3" fill="#585858" x="68.0161133" y="24.5" width="121" height="101" rx="1"></rect>
        <path d="M91,46 L166,46 L166,104 L91,104 L91,46 Z" id="Rectangle-21" fill="#D8D8D8"></path>
        <rect id="Rectangle-31" stroke="#505050" stroke-width="3" fill="#585858" x="10.9838867" y="24.5" width="29" height="101" rx="1"></rect>
        <path d="M151.016113,126.5 L158.016113,126.5 L158.016113,112.994783 C158.016113,111.066841 156.448092,109.5 154.516113,109.5 C152.585827,109.5 151.016113,111.06645 151.016113,112.994783 L151.016113,126.5 Z" id="Rectangle-32" stroke="#979797" fill="#D8D8D8" transform="translate(154.516113, 118.000000) rotate(-360.000000) translate(-154.516113, -118.000000) "></path>
        <path d="M164.016113,126.5 L171.016113,126.5 L171.016113,112.994783 C171.016113,111.066841 169.448092,109.5 167.516113,109.5 C165.585827,109.5 164.016113,111.06645 164.016113,112.994783 L164.016113,126.5 Z" id="Rectangle-32" stroke="#979797" fill="#D8D8D8" transform="translate(167.516113, 118.000000) rotate(-360.000000) translate(-167.516113, -118.000000) "></path>
        <path d="M138.016113,126.5 L145.016113,126.5 L145.016113,112.994783 C145.016113,111.066841 143.448092,109.5 141.516113,109.5 C139.585827,109.5 138.016113,111.06645 138.016113,112.994783 L138.016113,126.5 Z" id="Rectangle-32" stroke="#979797" fill="#D8D8D8" transform="translate(141.516113, 118.000000) rotate(-360.000000) translate(-141.516113, -118.000000) "></path>
        <path d="M125.016113,126.5 L132.016113,126.5 L132.016113,112.994783 C132.016113,111.066841 130.448092,109.5 128.516113,109.5 C126.585827,109.5 125.016113,111.06645 125.016113,112.994783 L125.016113,126.5 Z" id="Rectangle-32" stroke="#979797" fill="#D8D8D8" transform="translate(128.516113, 118.000000) rotate(-360.000000) translate(-128.516113, -118.000000) "></path>
        <path d="M112.016113,126.5 L119.016113,126.5 L119.016113,112.994783 C119.016113,111.066841 117.448092,109.5 115.516113,109.5 C113.585827,109.5 112.016113,111.06645 112.016113,112.994783 L112.016113,126.5 Z" id="Rectangle-32" stroke="#979797" fill="#D8D8D8" transform="translate(115.516113, 118.000000) rotate(-360.000000) translate(-115.516113, -118.000000) "></path>
        <path d="M99.0161133,126.5 L106.016113,126.5 L106.016113,112.994783 C106.016113,111.066841 104.448092,109.5 102.516113,109.5 C100.585827,109.5 99.0161133,111.06645 99.0161133,112.994783 L99.0161133,126.5 Z" id="Rectangle-32" stroke="#979797" fill="#D8D8D8" transform="translate(102.516113, 118.000000) rotate(-360.000000) translate(-102.516113, -118.000000) "></path>
        <path d="M86.0161133,126.5 L93.0161133,126.5 L93.0161133,112.994783 C93.0161133,111.066841 91.4480916,109.5 89.5161133,109.5 C87.5858267,109.5 86.0161133,111.06645 86.0161133,112.994783 L86.0161133,126.5 Z" id="Rectangle-32" stroke="#979797" fill="#D8D8D8" transform="translate(89.516113, 118.000000) rotate(-360.000000) translate(-89.516113, -118.000000) "></path>
        <path d="M151.016113,40.5 L158.016113,40.5 L158.016113,26.9947834 C158.016113,25.0668406 156.448092,23.5 154.516113,23.5 C152.585827,23.5 151.016113,25.0664503 151.016113,26.9947834 L151.016113,40.5 Z" id="Rectangle-32" stroke="#979797" fill="#D8D8D8" transform="translate(154.516113, 32.000000) rotate(-180.000000) translate(-154.516113, -32.000000) "></path>
        <path d="M164.016113,40.5 L171.016113,40.5 L171.016113,26.9947834 C171.016113,25.0668406 169.448092,23.5 167.516113,23.5 C165.585827,23.5 164.016113,25.0664503 164.016113,26.9947834 L164.016113,40.5 Z" id="Rectangle-32" stroke="#979797" fill="#D8D8D8" transform="translate(167.516113, 32.000000) rotate(-180.000000) translate(-167.516113, -32.000000) "></path>
        <path d="M138.016113,40.5 L145.016113,40.5 L145.016113,26.9947834 C145.016113,25.0668406 143.448092,23.5 141.516113,23.5 C139.585827,23.5 138.016113,25.0664503 138.016113,26.9947834 L138.016113,40.5 Z" id="Rectangle-32" stroke="#979797" fill="#D8D8D8" transform="translate(141.516113, 32.000000) rotate(-180.000000) translate(-141.516113, -32.000000) "></path>
        <path d="M125.016113,40.5 L132.016113,40.5 L132.016113,26.9947834 C132.016113,25.0668406 130.448092,23.5 128.516113,23.5 C126.585827,23.5 125.016113,25.0664503 125.016113,26.9947834 L125.016113,40.5 Z" id="Rectangle-32" stroke="#979797" fill="#D8D8D8" transform="translate(128.516113, 32.000000) rotate(-180.000000) translate(-128.516113, -32.000000) "></path>
        <path d="M112.016113,40.5 L119.016113,40.5 L119.016113,26.9947834 C119.016113,25.0668406 117.448092,23.5 115.516113,23.5 C113.585827,23.5 112.016113,25.0664503 112.016113,26.9947834 L112.016113,40.5 Z" id="Rectangle-32" stroke="#979797" fill="#D8D8D8" transform="translate(115.516113, 32.000000) rotate(-180.000000) translate(-115.516113, -32.000000) "></path>
        <path d="M99.0161133,40.5 L106.016113,40.5 L106.016113,26.9947834 C106.016113,25.0668406 104.448092,23.5 102.516113,23.5 C100.585827,23.5 99.0161133,25.0664503 99.0161133,26.9947834 L99.0161133,40.5 Z" id="Rectangle-32" stroke="#979797" fill="#D8D8D8" transform="translate(102.516113, 32.000000) rotate(-180.000000) translate(-102.516113, -32.000000) "></path>
        <path d="M86.0161133,40.5 L93.0161133,40.5 L93.0161133,26.9947834 C93.0161133,25.0668406 91.4480916,23.5 89.5161133,23.5 C87.5858267,23.5 86.0161133,25.0664503 86.0161133,26.9947834 L86.0161133,40.5 Z" id="Rectangle-32" stroke="#979797" fill="#D8D8D8" transform="translate(89.516113, 32.000000) rotate(-180.000000) translate(-89.516113, -32.000000) "></path>
        <path d="M72.0161133,57.5 L79.0161133,57.5 L79.0161133,43.9947834 C79.0161133,42.0668406 77.4480916,40.5 75.5161133,40.5 C73.5858267,40.5 72.0161133,42.0664503 72.0161133,43.9947834 L72.0161133,57.5 Z" id="Rectangle-32" stroke="#979797" fill="#D8D8D8" transform="translate(75.516113, 49.000000) rotate(-270.000000) translate(-75.516113, -49.000000) "></path>
        <path d="M72.0161133,70.5 L79.0161133,70.5 L79.0161133,56.9947834 C79.0161133,55.0668406 77.4480916,53.5 75.5161133,53.5 C73.5858267,53.5 72.0161133,55.0664503 72.0161133,56.9947834 L72.0161133,70.5 Z" id="Rectangle-32" stroke="#979797" fill="#D8D8D8" transform="translate(75.516113, 62.000000) rotate(-270.000000) translate(-75.516113, -62.000000) "></path>
        <path d="M72.0161133,83.5 L79.0161133,83.5 L79.0161133,69.9947834 C79.0161133,68.0668406 77.4480916,66.5 75.5161133,66.5 C73.5858267,66.5 72.0161133,68.0664503 72.0161133,69.9947834 L72.0161133,83.5 Z" id="Rectangle-32" stroke="#979797" fill="#D8D8D8" transform="translate(75.516113, 75.000000) rotate(-270.000000) translate(-75.516113, -75.000000) "></path>
        <path d="M72.0161133,96.5 L79.0161133,96.5 L79.0161133,82.9947834 C79.0161133,81.0668406 77.4480916,79.5 75.5161133,79.5 C73.5858267,79.5 72.0161133,81.0664503 72.0161133,82.9947834 L72.0161133,96.5 Z" id="Rectangle-32" stroke="#979797" fill="#D8D8D8" transform="translate(75.516113, 88.000000) rotate(-270.000000) translate(-75.516113, -88.000000) "></path>
        <path d="M72.0161133,109.5 L79.0161133,109.5 L79.0161133,95.9947834 C79.0161133,94.0668406 77.4480916,92.5 75.5161133,92.5 C73.5858267,92.5 72.0161133,94.0664503 72.0161133,95.9947834 L72.0161133,109.5 Z" id="Rectangle-32" stroke="#979797" fill="#D8D8D8" transform="translate(75.516113, 101.000000) rotate(-270.000000) translate(-75.516113, -101.000000) "></path>
        <path d="M178.016113,57.5 L185.016113,57.5 L185.016113,43.9947834 C185.016113,42.0668406 183.448092,40.5 181.516113,40.5 C179.585827,40.5 178.016113,42.0664503 178.016113,43.9947834 L178.016113,57.5 Z" id="Rectangle-32" stroke="#979797" fill="#D8D8D8" transform="translate(181.516113, 49.000000) rotate(-90.000000) translate(-181.516113, -49.000000) "></path>
        <path d="M178.016113,70.5 L185.016113,70.5 L185.016113,56.9947834 C185.016113,55.0668406 183.448092,53.5 181.516113,53.5 C179.585827,53.5 178.016113,55.0664503 178.016113,56.9947834 L178.016113,70.5 Z" id="Rectangle-32" stroke="#979797" fill="#D8D8D8" transform="translate(181.516113, 62.000000) rotate(-90.000000) translate(-181.516113, -62.000000) "></path>
        <path d="M178.016113,83.5 L185.016113,83.5 L185.016113,69.9947834 C185.016113,68.0668406 183.448092,66.5 181.516113,66.5 C179.585827,66.5 178.016113,68.0664503 178.016113,69.9947834 L178.016113,83.5 Z" id="Rectangle-32" stroke="#979797" fill="#D8D8D8" transform="translate(181.516113, 75.000000) rotate(-90.000000) translate(-181.516113, -75.000000) "></path>
        <path d="M178.016113,96.5 L185.016113,96.5 L185.016113,82.9947834 C185.016113,81.0668406 183.448092,79.5 181.516113,79.5 C179.585827,79.5 178.016113,81.0664503 178.016113,82.9947834 L178.016113,96.5 Z" id="Rectangle-32" stroke="#979797" fill="#D8D8D8" transform="translate(181.516113, 88.000000) rotate(-90.000000) translate(-181.516113, -88.000000) "></path>
        <path d="M178.016113,109.5 L185.016113,109.5 L185.016113,95.9947834 C185.016113,94.0668406 183.448092,92.5 181.516113,92.5 C179.585827,92.5 178.016113,94.0664503 178.016113,95.9947834 L178.016113,109.5 Z" id="Rectangle-32" stroke="#979797" fill="#D8D8D8" transform="translate(181.516113, 101.000000) rotate(-90.000000) translate(-181.516113, -101.000000) "></path>
        <path d="M37.9459229,104.5 L40.9838867,104.5 L40.9838867,97.5 L37.9459229,97.5 L37.9459229,104.5 Z" id="Rectangle-32" stroke="#979797" fill="#D8D8D8"></path>
        <path d="M37.9459229,91.5 L40.9838867,91.5 L40.9838867,84.5 L37.9459229,84.5 L37.9459229,91.5 Z" id="Rectangle-32" stroke="#979797" fill="#D8D8D8"></path>
        <path d="M37.9459229,78.5 L40.9838867,78.5 L40.9838867,71.5 L37.9459229,71.5 L37.9459229,78.5 Z" id="Rectangle-32" stroke="#979797" fill="#D8D8D8"></path>
        <path d="M37.9459229,65.5 L40.9838867,65.5 L40.9838867,58.5 L37.9459229,58.5 L37.9459229,65.5 Z" id="Rectangle-32" stroke="#979797" fill="#D8D8D8"></path>
        <path d="M37.9459229,52.5 L40.9838867,52.5 L40.9838867,45.5 L37.9459229,45.5 L37.9459229,52.5 Z" id="Rectangle-32" stroke="#979797" fill="#D8D8D8"></path>
    </g>
</svg>