<?xml version="1.0" encoding="UTF-8"?>
<svg width="290px" height="175px" viewBox="0 0 290 175" version="1.1" xmlns="http://www.w3.org/2000/svg" xmlns:xlink="http://www.w3.org/1999/xlink">
    <!-- Generator: Sketch 50.2 (55047) - http://www.bohemiancoding.com/sketch -->
    <title>QFN-Labeled Thermal</title>
    <desc>Created with Sketch.</desc>
    <defs>
        <path d="M131,52 L227,52 L227,123 L131,123 L131,52 Z" id="path-1"></path>
        <mask id="mask-2" maskContentUnits="userSpaceOnUse" maskUnits="objectBoundingBox" x="0" y="0" width="96" height="71" fill="white">
            <use xlink:href="#path-1"></use>
        </mask>
    </defs>
    <g id="QFN-Labeled-Thermal" stroke="none" stroke-width="1" fill="none" fill-rule="evenodd">
        <g id="QFN" transform="translate(24.286704, -3.034972)">
            <rect id="Rectangle-31" stroke="#505050" stroke-width="3" fill="#585858" x="81.6519165" y="29.2533333" width="146.42" height="122.493333" rx="1"></rect>
            <rect id="Rectangle-31" stroke="#505050" stroke-width="3" fill="#585858" x="12.9280835" y="29.2533333" width="35.56" height="122.493333" rx="1"></rect>
            <path d="M181.871917,152.746667 L190.511917,152.746667 L190.511917,136.347039 C190.511917,133.963413 188.576388,132.026667 186.191917,132.026667 C183.809514,132.026667 181.871917,133.962911 181.871917,136.347039 L181.871917,152.746667 Z" id="Rectangle-32" stroke="#979797" stroke-width="1" fill="#D8D8D8" transform="translate(186.191917, 142.386667) rotate(-360.000000) translate(-186.191917, -142.386667) "></path>
            <path d="M197.536917,152.746667 L206.176917,152.746667 L206.176917,136.347039 C206.176917,133.963413 204.241388,132.026667 201.856917,132.026667 C199.474514,132.026667 197.536917,133.962911 197.536917,136.347039 L197.536917,152.746667 Z" id="Rectangle-32" stroke="#979797" stroke-width="1" fill="#D8D8D8" transform="translate(201.856917, 142.386667) rotate(-360.000000) translate(-201.856917, -142.386667) "></path>
            <path d="M166.206917,152.746667 L174.846917,152.746667 L174.846917,136.347039 C174.846917,133.963413 172.911388,132.026667 170.526917,132.026667 C168.144514,132.026667 166.206917,133.962911 166.206917,136.347039 L166.206917,152.746667 Z" id="Rectangle-32" stroke="#979797" stroke-width="1" fill="#D8D8D8" transform="translate(170.526917, 142.386667) rotate(-360.000000) translate(-170.526917, -142.386667) "></path>
            <path d="M150.541917,152.746667 L159.181917,152.746667 L159.181917,136.347039 C159.181917,133.963413 157.246388,132.026667 154.861917,132.026667 C152.479514,132.026667 150.541917,133.962911 150.541917,136.347039 L150.541917,152.746667 Z" id="Rectangle-32" stroke="#979797" stroke-width="1" fill="#D8D8D8" transform="translate(154.861917, 142.386667) rotate(-360.000000) translate(-154.861917, -142.386667) "></path>
            <path d="M134.876917,152.746667 L143.516917,152.746667 L143.516917,136.347039 C143.516917,133.963413 141.581388,132.026667 139.196917,132.026667 C136.814514,132.026667 134.876917,133.962911 134.876917,136.347039 L134.876917,152.746667 Z" id="Rectangle-32" stroke="#979797" stroke-width="1" fill="#D8D8D8" transform="translate(139.196917, 142.386667) rotate(-360.000000) translate(-139.196917, -142.386667) "></path>
            <path d="M119.211917,152.746667 L127.851917,152.746667 L127.851917,136.347039 C127.851917,133.963413 125.916388,132.026667 123.531917,132.026667 C121.149514,132.026667 119.211917,133.962911 119.211917,136.347039 L119.211917,152.746667 Z" id="Rectangle-32" stroke="#979797" stroke-width="1" fill="#D8D8D8" transform="translate(123.531917, 142.386667) rotate(-360.000000) translate(-123.531917, -142.386667) "></path>
            <path d="M103.546917,152.746667 L112.186917,152.746667 L112.186917,136.347039 C112.186917,133.963413 110.251388,132.026667 107.866917,132.026667 C105.484514,132.026667 103.546917,133.962911 103.546917,136.347039 L103.546917,152.746667 Z" id="Rectangle-32" stroke="#979797" stroke-width="1" fill="#D8D8D8" transform="translate(107.866917, 142.386667) rotate(-360.000000) translate(-107.866917, -142.386667) "></path>
            <path d="M181.871917,48.9733333 L190.511917,48.9733333 L190.511917,32.5737053 C190.511917,30.1900794 188.576388,28.2533333 186.191917,28.2533333 C183.809514,28.2533333 181.871917,30.1895774 181.871917,32.5737053 L181.871917,48.9733333 Z" id="Rectangle-32" stroke="#979797" stroke-width="1" fill="#D8D8D8" transform="translate(186.191917, 38.613333) rotate(-180.000000) translate(-186.191917, -38.613333) "></path>
            <path d="M197.536917,48.9733333 L206.176917,48.9733333 L206.176917,32.5737053 C206.176917,30.1900794 204.241388,28.2533333 201.856917,28.2533333 C199.474514,28.2533333 197.536917,30.1895774 197.536917,32.5737053 L197.536917,48.9733333 Z" id="Rectangle-32" stroke="#979797" stroke-width="1" fill="#D8D8D8" transform="translate(201.856917, 38.613333) rotate(-180.000000) translate(-201.856917, -38.613333) "></path>
            <path d="M166.206917,48.9733333 L174.846917,48.9733333 L174.846917,32.5737053 C174.846917,30.1900794 172.911388,28.2533333 170.526917,28.2533333 C168.144514,28.2533333 166.206917,30.1895774 166.206917,32.5737053 L166.206917,48.9733333 Z" id="Rectangle-32" stroke="#979797" stroke-width="1" fill="#D8D8D8" transform="translate(170.526917, 38.613333) rotate(-180.000000) translate(-170.526917, -38.613333) "></path>
            <path d="M150.541917,48.9733333 L159.181917,48.9733333 L159.181917,32.5737053 C159.181917,30.1900794 157.246388,28.2533333 154.861917,28.2533333 C152.479514,28.2533333 150.541917,30.1895774 150.541917,32.5737053 L150.541917,48.9733333 Z" id="Rectangle-32" stroke="#979797" stroke-width="1" fill="#D8D8D8" transform="translate(154.861917, 38.613333) rotate(-180.000000) translate(-154.861917, -38.613333) "></path>
            <path d="M134.876917,48.9733333 L143.516917,48.9733333 L143.516917,32.5737053 C143.516917,30.1900794 141.581388,28.2533333 139.196917,28.2533333 C136.814514,28.2533333 134.876917,30.1895774 134.876917,32.5737053 L134.876917,48.9733333 Z" id="Rectangle-32" stroke="#979797" stroke-width="1" fill="#D8D8D8" transform="translate(139.196917, 38.613333) rotate(-180.000000) translate(-139.196917, -38.613333) "></path>
            <path d="M119.211917,48.9733333 L127.851917,48.9733333 L127.851917,32.5737053 C127.851917,30.1900794 125.916388,28.2533333 123.531917,28.2533333 C121.149514,28.2533333 119.211917,30.1895774 119.211917,32.5737053 L119.211917,48.9733333 Z" id="Rectangle-32" stroke="#979797" stroke-width="1" fill="#D8D8D8" transform="translate(123.531917, 38.613333) rotate(-180.000000) translate(-123.531917, -38.613333) "></path>
            <path d="M103.546917,48.9733333 L112.186917,48.9733333 L112.186917,32.5737053 C112.186917,30.1900794 110.251388,28.2533333 107.866917,28.2533333 C105.484514,28.2533333 103.546917,30.1895774 103.546917,32.5737053 L103.546917,48.9733333 Z" id="Rectangle-32" stroke="#979797" stroke-width="1" fill="#D8D8D8" transform="translate(107.866917, 38.613333) rotate(-180.000000) translate(-107.866917, -38.613333) "></path>
            <path d="M86.6769165,69.4866667 L95.3169165,69.4866667 L95.3169165,53.0870386 C95.3169165,50.7034127 93.3813876,48.7666667 90.9969165,48.7666667 C88.6145141,48.7666667 86.6769165,50.7029108 86.6769165,53.0870386 L86.6769165,69.4866667 Z" id="Rectangle-32" stroke="#979797" stroke-width="1" fill="#D8D8D8" transform="translate(90.996917, 59.126667) rotate(-270.000000) translate(-90.996917, -59.126667) "></path>
            <path d="M86.6769165,85.1733333 L95.3169165,85.1733333 L95.3169165,68.7737053 C95.3169165,66.3900794 93.3813876,64.4533333 90.9969165,64.4533333 C88.6145141,64.4533333 86.6769165,66.3895774 86.6769165,68.7737053 L86.6769165,85.1733333 Z" id="Rectangle-32" stroke="#979797" stroke-width="1" fill="#D8D8D8" transform="translate(90.996917, 74.813333) rotate(-270.000000) translate(-90.996917, -74.813333) "></path>
            <path d="M86.6769165,100.86 L95.3169165,100.86 L95.3169165,84.460372 C95.3169165,82.0767461 93.3813876,80.14 90.9969165,80.14 C88.6145141,80.14 86.6769165,82.0762441 86.6769165,84.460372 L86.6769165,100.86 Z" id="Rectangle-32" stroke="#979797" stroke-width="1" fill="#D8D8D8" transform="translate(90.996917, 90.500000) rotate(-270.000000) translate(-90.996917, -90.500000) "></path>
            <path d="M86.6769165,116.546667 L95.3169165,116.546667 L95.3169165,100.147039 C95.3169165,97.7634127 93.3813876,95.8266667 90.9969165,95.8266667 C88.6145141,95.8266667 86.6769165,97.7629108 86.6769165,100.147039 L86.6769165,116.546667 Z" id="Rectangle-32" stroke="#979797" stroke-width="1" fill="#D8D8D8" transform="translate(90.996917, 106.186667) rotate(-270.000000) translate(-90.996917, -106.186667) "></path>
            <path d="M86.6769165,132.233333 L95.3169165,132.233333 L95.3169165,115.833705 C95.3169165,113.450079 93.3813876,111.513333 90.9969165,111.513333 C88.6145141,111.513333 86.6769165,113.449577 86.6769165,115.833705 L86.6769165,132.233333 Z" id="Rectangle-32" stroke="#979797" stroke-width="1" fill="#D8D8D8" transform="translate(90.996917, 121.873333) rotate(-270.000000) translate(-90.996917, -121.873333) "></path>
            <path d="M214.406917,69.4866667 L223.046917,69.4866667 L223.046917,53.0870386 C223.046917,50.7034127 221.111388,48.7666667 218.726917,48.7666667 C216.344514,48.7666667 214.406917,50.7029108 214.406917,53.0870386 L214.406917,69.4866667 Z" id="Rectangle-32" stroke="#979797" stroke-width="1" fill="#D8D8D8" transform="translate(218.726917, 59.126667) rotate(-90.000000) translate(-218.726917, -59.126667) "></path>
            <path d="M214.406917,85.1733333 L223.046917,85.1733333 L223.046917,68.7737053 C223.046917,66.3900794 221.111388,64.4533333 218.726917,64.4533333 C216.344514,64.4533333 214.406917,66.3895774 214.406917,68.7737053 L214.406917,85.1733333 Z" id="Rectangle-32" stroke="#979797" stroke-width="1" fill="#D8D8D8" transform="translate(218.726917, 74.813333) rotate(-90.000000) translate(-218.726917, -74.813333) "></path>
            <path d="M214.406917,100.86 L223.046917,100.86 L223.046917,84.460372 C223.046917,82.0767461 221.111388,80.14 218.726917,80.14 C216.344514,80.14 214.406917,82.0762441 214.406917,84.460372 L214.406917,100.86 Z" id="Rectangle-32" stroke="#979797" stroke-width="1" fill="#D8D8D8" transform="translate(218.726917, 90.500000) rotate(-90.000000) translate(-218.726917, -90.500000) "></path>
            <path d="M214.406917,116.546667 L223.046917,116.546667 L223.046917,100.147039 C223.046917,97.7634127 221.111388,95.8266667 218.726917,95.8266667 C216.344514,95.8266667 214.406917,97.7629108 214.406917,100.147039 L214.406917,116.546667 Z" id="Rectangle-32" stroke="#979797" stroke-width="1" fill="#D8D8D8" transform="translate(218.726917, 106.186667) rotate(-90.000000) translate(-218.726917, -106.186667) "></path>
            <path d="M214.406917,132.233333 L223.046917,132.233333 L223.046917,115.833705 C223.046917,113.450079 221.111388,111.513333 218.726917,111.513333 C216.344514,111.513333 214.406917,113.449577 214.406917,115.833705 L214.406917,132.233333 Z" id="Rectangle-32" stroke="#979797" stroke-width="1" fill="#D8D8D8" transform="translate(218.726917, 121.873333) rotate(-90.000000) translate(-218.726917, -121.873333) "></path>
            <path d="M45.622337,126.2 L49.4880835,126.2 L49.4880835,117.546667 L45.622337,117.546667 L45.622337,126.2 Z" id="Rectangle-32" stroke="#979797" stroke-width="1" fill="#D8D8D8"></path>
            <path d="M45.622337,110.513333 L49.4880835,110.513333 L49.4880835,101.86 L45.622337,101.86 L45.622337,110.513333 Z" id="Rectangle-32" stroke="#979797" stroke-width="1" fill="#D8D8D8"></path>
            <path d="M45.622337,94.8266667 L49.4880835,94.8266667 L49.4880835,86.1733333 L45.622337,86.1733333 L45.622337,94.8266667 Z" id="Rectangle-32" stroke="#979797" stroke-width="1" fill="#D8D8D8"></path>
            <path d="M45.622337,79.14 L49.4880835,79.14 L49.4880835,70.4866667 L45.622337,70.4866667 L45.622337,79.14 Z" id="Rectangle-32" stroke="#979797" stroke-width="1" fill="#D8D8D8"></path>
            <path d="M45.622337,63.4533333 L49.4880835,63.4533333 L49.4880835,54.8 L45.622337,54.8 L45.622337,63.4533333 Z" id="Rectangle-32" stroke="#979797" stroke-width="1" fill="#D8D8D8"></path>
        </g>
        <use id="Rectangle" stroke="#D8D8D8" mask="url(#mask-2)" stroke-width="2" stroke-dasharray="2" xlink:href="#path-1"></use>
        <path d="M177.638218,63.6929081 L172.331573,63.6929081 L172.331573,67.4244359 L177.225687,67.4244359 L177.225687,69.2433213 L172.331573,69.2433213 L172.331573,73.1623632 L177.638218,73.1623632 L177.638218,75 L169.968897,75 L169.968897,61.8740226 L177.638218,61.8740226 L177.638218,63.6929081 Z M181.876033,73.0873576 L188.00774,73.0873576 L188.00774,75 L179.55086,75 L179.55086,73.6686509 C179.55086,71.3434777 180.675944,70.0683828 182.194807,69.0183046 L183.994941,67.7807124 C185.176279,66.9744024 185.626312,66.4868661 185.626312,65.6243019 L185.626312,65.1742684 C185.626312,64.3867097 185.007516,63.4678913 183.451151,63.4678913 C182.326067,63.4678913 181.444751,63.8054164 180.319667,64.5929751 L179.269589,63.167869 C180.48843,62.2115477 181.857282,61.6302545 183.601162,61.6302545 C186.432623,61.6302545 187.988988,63.3366315 187.988988,65.0992628 L187.988988,65.6805561 C187.988988,66.9744024 187.20143,68.1182376 185.176279,69.4308353 L183.732421,70.3684051 C182.269813,71.3247263 181.913536,72.0935336 181.876033,73.0873576 Z" id="E2" fill="#8D9EB0"></path>
        <rect id="Rectangle-93-Copy-2" fill="#8D9EB0" x="131" y="61" width="1" height="14" rx="0.5"></rect>
        <rect id="Rectangle-93-Copy-6" fill="#8D9EB0" x="226" y="61" width="1" height="14" rx="0.5"></rect>
        <rect id="Rectangle-132-Copy-2" fill="#8D9EB0" x="199" y="52" width="20.074583" height="1" rx="0.5"></rect>
        <rect id="Rectangle-132-Copy-4" fill="#8D9EB0" x="199" y="122" width="20.074583" height="1" rx="0.5"></rect>
        <g id="left-arrow-copy" transform="translate(133.000000, 65.000000)" fill="#8D9EB0">
            <g id="triangle" transform="translate(3.000000, 2.500000) scale(-1, 1) translate(-3.000000, -2.500000) ">
                <path d="M2.88775351,-0.425866237 C2.98755721,-0.684554916 3.15206769,-0.677565105 3.24917468,-0.425866237 L5.40050076,5.1503168 C5.50030446,5.40900548 5.36527212,5.61871408 5.08097484,5.61871408 L1.05595335,5.61871408 C0.779680363,5.61871408 0.639320451,5.40201566 0.736427439,5.1503168 L2.88775351,-0.425866237 Z" id="Triangle-1" transform="translate(3.069450, 2.500722) rotate(90.000000) translate(-3.069450, -2.500722) "></path>
            </g>
            <rect id="Rectangle-144" x="2.85259834" y="1.88944875" width="32" height="1" rx="0.5"></rect>
        </g>
        <g id="left-arrow-copy-2" transform="translate(208.000000, 67.500000) scale(-1, 1) translate(-208.000000, -67.500000) translate(191.000000, 65.000000)" fill="#8D9EB0">
            <g id="triangle" transform="translate(2.875000, 2.500000) scale(-1, 1) translate(-2.875000, -2.500000) ">
                <path d="M2.76743045,-0.425866237 C2.86307566,-0.684554916 3.02073154,-0.677565105 3.1137924,-0.425866237 L5.17547989,5.1503168 C5.2711251,5.40900548 5.11637041,5.61871408 4.85139336,5.61871408 L1.02982949,5.61871408 C0.755196231,5.61871408 0.612682099,5.40201566 0.705742962,5.1503168 L2.76743045,-0.425866237 Z" id="Triangle-1" transform="translate(2.941556, 2.500722) rotate(90.000000) translate(-2.941556, -2.500722) "></path>
            </g>
            <rect id="Rectangle-144" x="2.73374007" y="1.88944875" width="32" height="1" rx="0.5"></rect>
        </g>
        <g id="Group-Copy" transform="translate(206.000000, 53.000000)" fill="#8D9EB0">
            <g id="triangle" transform="translate(3.184082, 3.484497) rotate(-90.000000) translate(-3.184082, -3.484497) translate(0.184082, 0.984497)">
                <path d="M2.88775351,-0.425866237 C2.98755721,-0.684554916 3.15206769,-0.677565105 3.24917468,-0.425866237 L5.40050076,5.1503168 C5.50030446,5.40900548 5.36527212,5.61871408 5.08097484,5.61871408 L1.05595335,5.61871408 C0.779680363,5.61871408 0.639320451,5.40201566 0.736427439,5.1503168 L2.88775351,-0.425866237 Z" id="Triangle-1" transform="translate(3.069450, 2.500722) rotate(90.000000) translate(-3.069450, -2.500722) "></path>
            </g>
            <rect id="Rectangle-134" x="2.6000061" y="3" width="1" height="24" rx="0.5"></rect>
        </g>
        <g id="Group-Copy-2" transform="translate(209.000000, 108.500000) scale(1, -1) translate(-209.000000, -108.500000) translate(206.000000, 95.000000)" fill="#8D9EB0">
            <g id="triangle" transform="translate(3.184082, 3.048935) rotate(-90.000000) translate(-3.184082, -3.048935) translate(0.184082, 0.861435)">
                <path d="M2.86283544,-0.316119328 C2.97640101,-0.573683538 3.1578941,-0.579655303 3.27409275,-0.316119328 L5.37558269,4.45001357 C5.48914826,4.70757778 5.36527212,4.91637482 5.08097484,4.91637482 L1.05595335,4.91637482 C0.779680363,4.91637482 0.645146859,4.71354954 0.761345507,4.45001357 L2.86283544,-0.316119328 Z" id="Triangle-1" transform="translate(3.069450, 2.188132) rotate(90.000000) translate(-3.069450, -2.188132) "></path>
            </g>
            <rect id="Rectangle-134" x="2.68408203" y="3.04893494" width="1" height="23" rx="0.5"></rect>
        </g>
        <path d="M203.262966,80.8740226 C206.825732,80.8740226 208.607114,82.974179 208.607114,86.1244136 L208.607114,88.4495867 C208.607114,91.8623408 206.581963,94 202.794181,94 L198.968897,94 L198.968897,80.8740226 L203.262966,80.8740226 Z M206.244438,88.4870895 L206.244438,86.0681594 C206.244438,83.9305002 205.231863,82.6929081 203.150458,82.6929081 L201.331573,82.6929081 L201.331573,92.1811146 L202.812933,92.1811146 C205.100603,92.1811146 206.244438,90.9810252 206.244438,88.4870895 Z M212.807427,92.0873576 L218.939134,92.0873576 L218.939134,94 L210.482254,94 L210.482254,92.6686509 C210.482254,90.3434777 211.607338,89.0683828 213.126201,88.0183046 L214.926335,86.7807124 C216.107673,85.9744024 216.557706,85.4868661 216.557706,84.6243019 L216.557706,84.1742684 C216.557706,83.3867097 215.93891,82.4678913 214.382544,82.4678913 C213.257461,82.4678913 212.376145,82.8054164 211.251061,83.5929751 L210.200983,82.167869 C211.419824,81.2115477 212.788676,80.6302545 214.532556,80.6302545 C217.364016,80.6302545 218.920382,82.3366315 218.920382,84.0992628 L218.920382,84.6805561 C218.920382,85.9744024 218.132824,87.1182376 216.107673,88.4308353 L214.663815,89.3684051 C213.201206,90.3247263 212.84493,91.0935336 212.807427,92.0873576 Z" id="D2" fill="#8D9EB0"></path>
        <path d="M121.147789,163.118349 C121.147789,163.53088 121.110286,163.943411 121.072783,164.243433 L114.641055,164.243433 C114.678557,166.156075 115.559873,166.999888 117.285001,166.999888 C118.372582,166.999888 119.178892,166.606109 119.9477,166.174827 L120.772761,167.56243 C119.928948,168.199978 118.578848,168.743768 117.13499,168.743768 C114.097264,168.743768 112.372136,166.737369 112.372136,164.037168 L112.372136,163.005841 C112.372136,160.30564 114.059761,158.261738 116.834968,158.261738 C119.55392,158.261738 121.147789,159.949363 121.147789,163.118349 Z M119.066384,162.72457 L119.066384,162.630813 C119.066384,160.905685 118.297577,159.968115 116.853719,159.968115 C115.428613,159.968115 114.678557,160.905685 114.641055,162.72457 L119.066384,162.72457 Z" id="e" fill="#8D9EB0"></path>
        <path d="M175.381316,158.261738 C177.668986,158.261738 179.169098,160.099374 179.169098,162.987089 L179.169098,163.999665 C179.169098,166.75612 177.387715,168.743768 175.100045,168.743768 C174.031215,168.743768 173.168651,168.349989 172.474849,167.637436 L172.287335,168.5 L170.46845,168.5 L170.46845,154.623967 L172.793623,154.623967 L172.793623,159.293064 C173.43117,158.636766 174.293735,158.261738 175.381316,158.261738 Z M176.843925,164.07467 L176.843925,162.912084 C176.843925,160.961939 176.187626,160.024369 174.912531,160.024369 C174.012464,160.024369 173.299911,160.455651 172.793623,161.093198 L172.793623,166.156075 C173.299911,166.699866 173.937458,166.999888 174.706265,166.999888 C176.000112,166.999888 176.843925,165.987313 176.843925,164.07467 Z" id="b" fill="#8D9EB0"></path>
        <polygon id="L" fill="#8D9EB0" points="266.663481 166.587358 271.988878 166.587358 271.988878 168.5 264.300805 168.5 264.300805 155.374023 266.663481 155.374023"></polygon>
        <path d="M59.1396072,18.5833742 L58.0520262,15.1331173 L53.5141883,15.1331173 L52.5203643,18.5833742 L50.138937,18.5833742 L54.1517358,5.45739682 L57.3582245,5.45739682 L61.5772887,18.5833742 L59.1396072,18.5833742 Z M55.7456044,7.10751969 L54.0392274,13.2392263 L57.4894843,13.2392263 L55.7456044,7.10751969 Z" id="A" fill="#8D9EB0"></path>
        <path d="M252.25415,10.4982674 C252.25415,10.2230819 252.486084,10 252.75415,10 L252.75415,10 C253.030293,10 253.25415,10.2199066 253.25415,10.4982674 L253.25415,23.5017326 C253.25415,23.7769181 253.022217,24 252.75415,24 L252.75415,24 C252.478008,24 252.25415,23.7800934 252.25415,23.5017326 L252.25415,10.4982674 Z" id="Rectangle-93" fill="#8D9EB0"></path>
        <rect id="Rectangle-93" fill="#8D9EB0" x="104.835815" y="10" width="1" height="14" rx="0.5"></rect>
        <rect id="Rectangle-93-Copy-3" fill="#8D9EB0" x="131.040039" y="151.463867" width="1" height="15.3110352" rx="0.5"></rect>
        <rect id="Rectangle-93-Copy-3" fill="#8D9EB0" x="147.040039" y="151.463867" width="1" height="15.3110352" rx="0.5"></rect>
        <rect id="Rectangle-93-Copy-3" fill="#8D9EB0" x="190.040039" y="151.463867" width="1" height="15.3110352" rx="0.5"></rect>
        <rect id="Rectangle-93-Copy-4" fill="#8D9EB0" x="232.180982" y="122.751831" width="1" height="43.6350569" rx="0.5"></rect>
        <rect id="Rectangle-93-Copy-3" fill="#8D9EB0" x="199.12517" y="151.463867" width="1" height="15.3110352" rx="0.5"></rect>
        <rect id="Rectangle-93-Copy-5" fill="#8D9EB0" x="252.799805" y="151.463867" width="1" height="15.3110352" rx="0.5"></rect>
        <rect id="Rectangle-93-Copy" fill="#8D9EB0" x="36.3592529" y="9.29825093" width="1" height="14" rx="0.5"></rect>
        <rect id="Rectangle-93-Copy" fill="#8D9EB0" x="73.0286865" y="9.54541016" width="1" height="13.9168701" rx="0.5"></rect>
        <g id="left-arrow" transform="translate(106.627441, 9.298251)" fill="#8D9EB0">
            <g id="triangle" transform="translate(3.000000, 2.500000) scale(-1, 1) translate(-3.000000, -2.500000) ">
                <path d="M2.88775351,-0.425866237 C2.98755721,-0.684554916 3.15206769,-0.677565105 3.24917468,-0.425866237 L5.40050076,5.1503168 C5.50030446,5.40900548 5.36527212,5.61871408 5.08097484,5.61871408 L1.05595335,5.61871408 C0.779680363,5.61871408 0.639320451,5.40201566 0.736427439,5.1503168 L2.88775351,-0.425866237 Z" id="Triangle-1" transform="translate(3.069450, 2.500722) rotate(90.000000) translate(-3.069450, -2.500722) "></path>
            </g>
            <rect id="Rectangle-144" x="2.85259834" y="1.88944875" width="64.2838763" height="1" rx="0.5"></rect>
        </g>
        <g id="left-arrow" transform="translate(228.254150, 11.798251) scale(-1, 1) translate(-228.254150, -11.798251) translate(204.254150, 9.298251)" fill="#8D9EB0">
            <g id="triangle" transform="translate(3.000000, 2.500000) scale(-1, 1) translate(-3.000000, -2.500000) ">
                <path d="M2.88775351,-0.425866237 C2.98755721,-0.684554916 3.15206769,-0.677565105 3.24917468,-0.425866237 L5.40050076,5.1503168 C5.50030446,5.40900548 5.36527212,5.61871408 5.08097484,5.61871408 L1.05595335,5.61871408 C0.779680363,5.61871408 0.639320451,5.40201566 0.736427439,5.1503168 L2.88775351,-0.425866237 Z" id="Triangle-1" transform="translate(3.069450, 2.500722) rotate(90.000000) translate(-3.069450, -2.500722) "></path>
            </g>
            <rect id="Rectangle-144" x="2.85259834" y="1.88944875" width="64" height="1" rx="0.5"></rect>
        </g>
        <g id="Group-4-Copy-4" transform="translate(254.799805, 24.666748)" fill="#8D9EB0">
            <rect id="Rectangle-132-Copy" x="0.739257812" y="0.089808378" width="20.074583" height="1" rx="0.5"></rect>
            <rect id="Rectangle-132-Copy-3" x="0.739257812" y="124.630127" width="20.074583" height="1" rx="0.5"></rect>
        </g>
        <g id="Group-3-Copy-2" transform="translate(74.827399, 8.439148)" fill="#8D9EB0">
            <g id="triangle" transform="translate(3.026855, 2.500000) scale(-1, 1) translate(-3.026855, -2.500000) translate(0.026855, 0.000000)">
                <path d="M2.88775351,-0.425866237 C2.98755721,-0.684554916 3.15206769,-0.677565105 3.24917468,-0.425866237 L5.40050076,5.1503168 C5.50030446,5.40900548 5.36527212,5.61871408 5.08097484,5.61871408 L1.05595335,5.61871408 C0.779680363,5.61871408 0.639320451,5.40201566 0.736427439,5.1503168 L2.88775351,-0.425866237 Z" id="Triangle-1" transform="translate(3.069450, 2.500722) rotate(90.000000) translate(-3.069450, -2.500722) "></path>
            </g>
            <rect id="Rectangle-144" x="2.8794538" y="1.88944875" width="9.3314359" height="1" rx="0.5"></rect>
        </g>
        <g id="Group-3-Copy-3" transform="translate(28.690233, 10.939148) scale(-1, 1) translate(-28.690233, -10.939148) translate(22.690233, 8.439148)" fill="#8D9EB0">
            <g id="triangle" transform="translate(3.026855, 2.500000) scale(-1, 1) translate(-3.026855, -2.500000) translate(0.026855, 0.000000)">
                <path d="M2.88775351,-0.425866237 C2.98755721,-0.684554916 3.15206769,-0.677565105 3.24917468,-0.425866237 L5.40050076,5.1503168 C5.50030446,5.40900548 5.36527212,5.61871408 5.08097484,5.61871408 L1.05595335,5.61871408 C0.779680363,5.61871408 0.639320451,5.40201566 0.736427439,5.1503168 L2.88775351,-0.425866237 Z" id="Triangle-1" transform="translate(3.069450, 2.500722) rotate(90.000000) translate(-3.069450, -2.500722) "></path>
            </g>
            <rect id="Rectangle-144" x="2.8794538" y="1.88944875" width="9" height="1" rx="0.5"></rect>
        </g>
        <g id="Group" transform="translate(266.902832, 26.000000)" fill="#8D9EB0">
            <g id="triangle" transform="translate(3.184082, 3.484497) rotate(-90.000000) translate(-3.184082, -3.484497) translate(0.184082, 0.984497)">
                <path d="M2.88775351,-0.425866237 C2.98755721,-0.684554916 3.15206769,-0.677565105 3.24917468,-0.425866237 L5.40050076,5.1503168 C5.50030446,5.40900548 5.36527212,5.61871408 5.08097484,5.61871408 L1.05595335,5.61871408 C0.779680363,5.61871408 0.639320451,5.40201566 0.736427439,5.1503168 L2.88775351,-0.425866237 Z" id="Triangle-1" transform="translate(3.069450, 2.500722) rotate(90.000000) translate(-3.069450, -2.500722) "></path>
            </g>
            <rect id="Rectangle-134" x="3.09716797" y="3.48449707" width="1" height="48.0876465" rx="0.5"></rect>
        </g>
        <g id="Group" transform="translate(269.902832, 122.166748) scale(1, -1) translate(-269.902832, -122.166748) translate(266.902832, 96.166748)" fill="#8D9EB0">
            <g id="triangle" transform="translate(3.184082, 3.484497) rotate(-90.000000) translate(-3.184082, -3.484497) translate(0.184082, 0.984497)">
                <path d="M2.88775351,-0.425866237 C2.98755721,-0.684554916 3.15206769,-0.677565105 3.24917468,-0.425866237 L5.40050076,5.1503168 C5.50030446,5.40900548 5.36527212,5.61871408 5.08097484,5.61871408 L1.05595335,5.61871408 C0.779680363,5.61871408 0.639320451,5.40201566 0.736427439,5.1503168 L2.88775351,-0.425866237 Z" id="Triangle-1" transform="translate(3.069450, 2.500722) rotate(90.000000) translate(-3.069450, -2.500722) "></path>
            </g>
            <rect id="Rectangle-134" x="2.68408203" y="3.48449707" width="1" height="48" rx="0.5"></rect>
        </g>
        <polygon id="E" fill="#8D9EB0" points="183.302446 7.27628225 177.995801 7.27628225 177.995801 11.0078101 182.889915 11.0078101 182.889915 12.8266955 177.995801 12.8266955 177.995801 16.7457374 183.302446 16.7457374 183.302446 18.5833742 175.633125 18.5833742 175.633125 5.45739682 183.302446 5.45739682"></polygon>
        <g id="Group-3-Copy-5" transform="translate(149.419252, 161.386888)" fill="#8D9EB0">
            <g id="triangle" transform="translate(3.026855, 2.500000) scale(-1, 1) translate(-3.026855, -2.500000) translate(0.026855, 0.000000)">
                <path d="M2.88775351,-0.425866237 C2.98755721,-0.684554916 3.15206769,-0.677565105 3.24917468,-0.425866237 L5.40050076,5.1503168 C5.50030446,5.40900548 5.36527212,5.61871408 5.08097484,5.61871408 L1.05595335,5.61871408 C0.779680363,5.61871408 0.639320451,5.40201566 0.736427439,5.1503168 L2.88775351,-0.425866237 Z" id="Triangle-1" transform="translate(3.069450, 2.500722) rotate(90.000000) translate(-3.069450, -2.500722) "></path>
            </g>
            <rect id="Rectangle-144" x="2.8794538" y="1.88944875" width="5" height="1" rx="0.5"></rect>
        </g>
        <g id="Group-3-Copy-6" transform="translate(201.254150, 161.386888)" fill="#8D9EB0">
            <g id="triangle" transform="translate(3.026855, 2.500000) scale(-1, 1) translate(-3.026855, -2.500000) translate(0.026855, 0.000000)">
                <path d="M2.88775351,-0.425866237 C2.98755721,-0.684554916 3.15206769,-0.677565105 3.24917468,-0.425866237 L5.40050076,5.1503168 C5.50030446,5.40900548 5.36527212,5.61871408 5.08097484,5.61871408 L1.05595335,5.61871408 C0.779680363,5.61871408 0.639320451,5.40201566 0.736427439,5.1503168 L2.88775351,-0.425866237 Z" id="Triangle-1" transform="translate(3.069450, 2.500722) rotate(90.000000) translate(-3.069450, -2.500722) "></path>
            </g>
            <rect id="Rectangle-144" x="2.8794538" y="1.88944875" width="5" height="1" rx="0.5"></rect>
        </g>
        <g id="Group-3-Copy-7" transform="translate(233.254150, 161.386888)" fill="#8D9EB0">
            <g id="triangle" transform="translate(3.026855, 2.500000) scale(-1, 1) translate(-3.026855, -2.500000) translate(0.026855, 0.000000)">
                <path d="M2.88775351,-0.425866237 C2.98755721,-0.684554916 3.15206769,-0.677565105 3.24917468,-0.425866237 L5.40050076,5.1503168 C5.50030446,5.40900548 5.36527212,5.61871408 5.08097484,5.61871408 L1.05595335,5.61871408 C0.779680363,5.61871408 0.639320451,5.40201566 0.736427439,5.1503168 L2.88775351,-0.425866237 Z" id="Triangle-1" transform="translate(3.069450, 2.500722) rotate(90.000000) translate(-3.069450, -2.500722) "></path>
            </g>
            <rect id="Rectangle-144" x="2.8794538" y="1.88944875" width="5" height="1" rx="0.5"></rect>
        </g>
        <g id="Group-3-Copy-4" transform="translate(125.914477, 163.886888) scale(-1, 1) translate(-125.914477, -163.886888) translate(121.414477, 161.386888)" fill="#8D9EB0">
            <g id="triangle" transform="translate(3.026855, 2.500000) scale(-1, 1) translate(-3.026855, -2.500000) translate(0.026855, 0.000000)">
                <path d="M2.88775351,-0.425866237 C2.98755721,-0.684554916 3.15206769,-0.677565105 3.24917468,-0.425866237 L5.40050076,5.1503168 C5.50030446,5.40900548 5.36527212,5.61871408 5.08097484,5.61871408 L1.05595335,5.61871408 C0.779680363,5.61871408 0.639320451,5.40201566 0.736427439,5.1503168 L2.88775351,-0.425866237 Z" id="Triangle-1" transform="translate(3.069450, 2.500722) rotate(90.000000) translate(-3.069450, -2.500722) "></path>
            </g>
            <rect id="Rectangle-144" x="2.8794538" y="1.88944875" width="5.47838207" height="1" rx="0.5"></rect>
        </g>
        <g id="Group-3-Copy-4" transform="translate(184.914477, 163.886888) scale(-1, 1) translate(-184.914477, -163.886888) translate(180.414477, 161.386888)" fill="#8D9EB0">
            <g id="triangle" transform="translate(3.026855, 2.500000) scale(-1, 1) translate(-3.026855, -2.500000) translate(0.026855, 0.000000)">
                <path d="M2.88775351,-0.425866237 C2.98755721,-0.684554916 3.15206769,-0.677565105 3.24917468,-0.425866237 L5.40050076,5.1503168 C5.50030446,5.40900548 5.36527212,5.61871408 5.08097484,5.61871408 L1.05595335,5.61871408 C0.779680363,5.61871408 0.639320451,5.40201566 0.736427439,5.1503168 L2.88775351,-0.425866237 Z" id="Triangle-1" transform="translate(3.069450, 2.500722) rotate(90.000000) translate(-3.069450, -2.500722) "></path>
            </g>
            <rect id="Rectangle-144" x="2.8794538" y="1.88944875" width="5.47838207" height="1" rx="0.5"></rect>
        </g>
        <g id="Group-3-Copy-4" transform="translate(253.414477, 163.886888) scale(-1, 1) translate(-253.414477, -163.886888) translate(243.414477, 161.386888)" fill="#8D9EB0">
            <g id="triangle" transform="translate(14.026855, 2.500000) scale(-1, 1) translate(-14.026855, -2.500000) translate(11.026855, 0.000000)">
                <path d="M2.88775351,-0.425866237 C2.98755721,-0.684554916 3.15206769,-0.677565105 3.24917468,-0.425866237 L5.40050076,5.1503168 C5.50030446,5.40900548 5.36527212,5.61871408 5.08097484,5.61871408 L1.05595335,5.61871408 C0.779680363,5.61871408 0.639320451,5.40201566 0.736427439,5.1503168 L2.88775351,-0.425866237 Z" id="Triangle-1" transform="translate(3.069450, 2.500722) rotate(90.000000) translate(-3.069450, -2.500722) "></path>
            </g>
            <rect id="Rectangle-144" x="13.8794538" y="1.88944875" width="5.47838207" height="1" rx="0.5"></rect>
            <rect id="Rectangle-144" x="0.724535099" y="1.88944875" width="9.63330078" height="1" rx="0.5"></rect>
        </g>
        <path d="M270.388136,80.3740226 C273.950902,80.3740226 275.732284,82.474179 275.732284,85.6244136 L275.732284,87.9495867 C275.732284,91.3623408 273.707133,93.5 269.919351,93.5 L266.094066,93.5 L266.094066,80.3740226 L270.388136,80.3740226 Z M273.369608,87.9870895 L273.369608,85.5681594 C273.369608,83.4305002 272.357033,82.1929081 270.275628,82.1929081 L268.456742,82.1929081 L268.456742,91.6811146 L269.938103,91.6811146 C272.225773,91.6811146 273.369608,90.4810252 273.369608,87.9870895 Z" id="D" fill="#8D9EB0"></path>
    </g>
</svg>