<?xml version="1.0" encoding="UTF-8"?>
<svg width="290px" height="175px" viewBox="0 0 290 175" version="1.1" xmlns="http://www.w3.org/2000/svg" xmlns:xlink="http://www.w3.org/1999/xlink">
    <!-- Generator: Sketch 50.2 (55047) - http://www.bohemiancoding.com/sketch -->
    <title>QFP-Labeled Thermal</title>
    <desc>Created with Sketch.</desc>
    <defs>
        <path d="M123,58 L203,58 L203,118 L123,118 L123,58 Z" id="path-1"></path>
        <mask id="mask-2" maskContentUnits="userSpaceOnUse" maskUnits="objectBoundingBox" x="0" y="0" width="80" height="60" fill="white">
            <use xlink:href="#path-1"></use>
        </mask>
    </defs>
    <g id="QFP-Labeled-Thermal" stroke="none" stroke-width="1" fill="none" fill-rule="evenodd">
        <g id="Oscillator-LBend" transform="translate(85.286704, 23.965028)">
            <g id="Group-3" transform="translate(0.828532, 0.764058)">
                <g id="Group" transform="translate(64.418933, 98.984903)">
                    <path d="M9.15706369,26.0569251 L9.15706369,0.5 L0.5,0.5 L0.5,26.0569251 L9.15706369,26.0569251 Z" id="Rectangle-32" stroke="#979797" fill="#D8D8D8"></path>
                    <rect id="Rectangle-33" fill="#979797" transform="translate(4.828532, 17.503428) rotate(180.000000) translate(-4.828532, -17.503428) " x="1.687539e-14" y="16.8998615" width="9.65706369" height="1.20713296"></rect>
                </g>
                <g id="Group" transform="translate(80.111662, 98.984903)">
                    <path d="M9.15706369,26.0569251 L9.15706369,0.5 L0.5,0.5 L0.5,26.0569251 L9.15706369,26.0569251 Z" id="Rectangle-32" stroke="#979797" fill="#D8D8D8"></path>
                    <rect id="Rectangle-33" fill="#979797" transform="translate(4.828532, 17.503428) rotate(180.000000) translate(-4.828532, -17.503428) " x="1.687539e-14" y="16.8998615" width="9.65706369" height="1.20713296"></rect>
                </g>
                <g id="Group" transform="translate(95.804390, 98.984903)">
                    <path d="M9.15706369,26.0569251 L9.15706369,0.5 L0.5,0.5 L0.5,26.0569251 L9.15706369,26.0569251 Z" id="Rectangle-32" stroke="#979797" fill="#D8D8D8"></path>
                    <rect id="Rectangle-33" fill="#979797" transform="translate(4.828532, 17.503428) rotate(180.000000) translate(-4.828532, -17.503428) " x="1.687539e-14" y="16.8998615" width="9.65706369" height="1.20713296"></rect>
                </g>
                <g id="Group" transform="translate(111.497119, 98.984903)">
                    <path d="M9.15706369,26.0569251 L9.15706369,0.5 L0.5,0.5 L0.5,26.0569251 L9.15706369,26.0569251 Z" id="Rectangle-32" stroke="#979797" fill="#D8D8D8"></path>
                    <rect id="Rectangle-33" fill="#979797" transform="translate(4.828532, 17.503428) rotate(180.000000) translate(-4.828532, -17.503428) " x="1.687539e-14" y="16.8998615" width="9.65706369" height="1.20713296"></rect>
                </g>
                <g id="Group" transform="translate(48.726205, 98.984903)">
                    <path d="M9.15706369,26.0569251 L9.15706369,0.5 L0.5,0.5 L0.5,26.0569251 L9.15706369,26.0569251 Z" id="Rectangle-32" stroke="#979797" fill="#D8D8D8"></path>
                    <rect id="Rectangle-33" fill="#979797" transform="translate(4.828532, 17.503428) rotate(180.000000) translate(-4.828532, -17.503428) " x="1.687539e-14" y="16.8998615" width="9.65706369" height="1.20713296"></rect>
                </g>
                <g id="Group" transform="translate(33.033476, 98.984903)">
                    <path d="M9.15706369,26.0569251 L9.15706369,0.5 L0.5,0.5 L0.5,26.0569251 L9.15706369,26.0569251 Z" id="Rectangle-32" stroke="#979797" fill="#D8D8D8"></path>
                    <rect id="Rectangle-33" fill="#979797" transform="translate(4.828532, 17.503428) rotate(180.000000) translate(-4.828532, -17.503428) " x="1.687539e-14" y="16.8998615" width="9.65706369" height="1.20713296"></rect>
                </g>
                <g id="Group" transform="translate(69.247465, 13.278463) rotate(-180.000000) translate(-69.247465, -13.278463) translate(64.418933, 0.000000)">
                    <path d="M9.15706369,26.0569251 L9.15706369,0.5 L0.5,0.5 L0.5,26.0569251 L9.15706369,26.0569251 Z" id="Rectangle-32" stroke="#979797" fill="#D8D8D8"></path>
                    <rect id="Rectangle-33" fill="#979797" transform="translate(4.828532, 17.503428) rotate(180.000000) translate(-4.828532, -17.503428) " x="1.687539e-14" y="16.8998615" width="9.65706369" height="1.20713296"></rect>
                </g>
                <g id="Group" transform="translate(84.940194, 13.278463) rotate(-180.000000) translate(-84.940194, -13.278463) translate(80.111662, 0.000000)">
                    <path d="M9.15706369,26.0569251 L9.15706369,0.5 L0.5,0.5 L0.5,26.0569251 L9.15706369,26.0569251 Z" id="Rectangle-32" stroke="#979797" fill="#D8D8D8"></path>
                    <rect id="Rectangle-33" fill="#979797" transform="translate(4.828532, 17.503428) rotate(180.000000) translate(-4.828532, -17.503428) " x="1.687539e-14" y="16.8998615" width="9.65706369" height="1.20713296"></rect>
                </g>
                <g id="Group" transform="translate(100.632922, 13.278463) rotate(-180.000000) translate(-100.632922, -13.278463) translate(95.804390, 0.000000)">
                    <path d="M9.15706369,26.0569251 L9.15706369,0.5 L0.5,0.5 L0.5,26.0569251 L9.15706369,26.0569251 Z" id="Rectangle-32" stroke="#979797" fill="#D8D8D8"></path>
                    <rect id="Rectangle-33" fill="#979797" transform="translate(4.828532, 17.503428) rotate(180.000000) translate(-4.828532, -17.503428) " x="1.687539e-14" y="16.8998615" width="9.65706369" height="1.20713296"></rect>
                </g>
                <g id="Group" transform="translate(116.325651, 13.278463) rotate(-180.000000) translate(-116.325651, -13.278463) translate(111.497119, 0.000000)">
                    <path d="M9.15706369,26.0569251 L9.15706369,0.5 L0.5,0.5 L0.5,26.0569251 L9.15706369,26.0569251 Z" id="Rectangle-32" stroke="#979797" fill="#D8D8D8"></path>
                    <rect id="Rectangle-33" fill="#979797" transform="translate(4.828532, 17.503428) rotate(180.000000) translate(-4.828532, -17.503428) " x="1.687539e-14" y="16.8998615" width="9.65706369" height="1.20713296"></rect>
                </g>
                <g id="Group" transform="translate(53.554737, 13.278463) rotate(-180.000000) translate(-53.554737, -13.278463) translate(48.726205, 0.000000)">
                    <path d="M9.15706369,26.0569251 L9.15706369,0.5 L0.5,0.5 L0.5,26.0569251 L9.15706369,26.0569251 Z" id="Rectangle-32" stroke="#979797" fill="#D8D8D8"></path>
                    <rect id="Rectangle-33" fill="#979797" transform="translate(4.828532, 17.503428) rotate(180.000000) translate(-4.828532, -17.503428) " x="1.687539e-14" y="16.8998615" width="9.65706369" height="1.20713296"></rect>
                </g>
                <g id="Group" transform="translate(37.862008, 13.278463) rotate(-180.000000) translate(-37.862008, -13.278463) translate(33.033476, 0.000000)">
                    <path d="M9.15706369,26.0569251 L9.15706369,0.5 L0.5,0.5 L0.5,26.0569251 L9.15706369,26.0569251 Z" id="Rectangle-32" stroke="#979797" fill="#D8D8D8"></path>
                    <rect id="Rectangle-33" fill="#979797" transform="translate(4.828532, 17.503428) rotate(180.000000) translate(-4.828532, -17.503428) " x="1.687539e-14" y="16.8998615" width="9.65706369" height="1.20713296"></rect>
                </g>
                <g id="Group" transform="translate(13.719349, 86.913573) rotate(-270.000000) translate(-13.719349, -86.913573) translate(8.890817, 73.635111)">
                    <path d="M9.15706369,26.0569251 L9.15706369,0.5 L0.5,0.5 L0.5,26.0569251 L9.15706369,26.0569251 Z" id="Rectangle-32" stroke="#979797" fill="#D8D8D8"></path>
                    <rect id="Rectangle-33" fill="#979797" transform="translate(4.828532, 17.503428) rotate(180.000000) translate(-4.828532, -17.503428) " x="1.687539e-14" y="16.8998615" width="9.65706369" height="1.20713296"></rect>
                </g>
                <g id="Group" transform="translate(13.719349, 71.220845) rotate(-270.000000) translate(-13.719349, -71.220845) translate(8.890817, 57.942382)">
                    <path d="M9.15706369,26.0569251 L9.15706369,0.5 L0.5,0.5 L0.5,26.0569251 L9.15706369,26.0569251 Z" id="Rectangle-32" stroke="#979797" fill="#D8D8D8"></path>
                    <rect id="Rectangle-33" fill="#979797" transform="translate(4.828532, 17.503428) rotate(180.000000) translate(-4.828532, -17.503428) " x="1.687539e-14" y="16.8998615" width="9.65706369" height="1.20713296"></rect>
                </g>
                <g id="Group" transform="translate(13.719349, 55.528116) rotate(-270.000000) translate(-13.719349, -55.528116) translate(8.890817, 42.249654)">
                    <path d="M9.15706369,26.0569251 L9.15706369,0.5 L0.5,0.5 L0.5,26.0569251 L9.15706369,26.0569251 Z" id="Rectangle-32" stroke="#979797" fill="#D8D8D8"></path>
                    <rect id="Rectangle-33" fill="#979797" transform="translate(4.828532, 17.503428) rotate(180.000000) translate(-4.828532, -17.503428) " x="1.687539e-14" y="16.8998615" width="9.65706369" height="1.20713296"></rect>
                </g>
                <g id="Group" transform="translate(13.719349, 38.628255) rotate(-270.000000) translate(-13.719349, -38.628255) translate(8.890817, 25.349792)">
                    <path d="M9.15706369,26.0569251 L9.15706369,0.5 L0.5,0.5 L0.5,26.0569251 L9.15706369,26.0569251 Z" id="Rectangle-32" stroke="#979797" fill="#D8D8D8"></path>
                    <rect id="Rectangle-33" fill="#979797" transform="translate(4.828532, 17.503428) rotate(180.000000) translate(-4.828532, -17.503428) " x="1.687539e-14" y="16.8998615" width="9.65706369" height="1.20713296"></rect>
                </g>
                <g id="Group-2" transform="translate(140.468310, 62.770914) rotate(-180.000000) translate(-140.468310, -62.770914) translate(127.189847, 33.799723)">
                    <g id="Group" transform="translate(13.278463, 53.113850) rotate(-270.000000) translate(-13.278463, -53.113850) translate(8.449931, 39.835388)">
                        <path d="M9.15706369,26.0569251 L9.15706369,0.5 L0.5,0.5 L0.5,26.0569251 L9.15706369,26.0569251 Z" id="Rectangle-32" stroke="#979797" fill="#D8D8D8"></path>
                        <rect id="Rectangle-33" fill="#979797" transform="translate(4.828532, 17.503428) rotate(180.000000) translate(-4.828532, -17.503428) " x="1.687539e-14" y="16.8998615" width="9.65706369" height="1.20713296"></rect>
                    </g>
                    <g id="Group" transform="translate(13.278463, 37.421122) rotate(-270.000000) translate(-13.278463, -37.421122) translate(8.449931, 24.142659)">
                        <path d="M9.15706369,26.0569251 L9.15706369,0.5 L0.5,0.5 L0.5,26.0569251 L9.15706369,26.0569251 Z" id="Rectangle-32" stroke="#979797" fill="#D8D8D8"></path>
                        <rect id="Rectangle-33" fill="#979797" transform="translate(4.828532, 17.503428) rotate(180.000000) translate(-4.828532, -17.503428) " x="1.687539e-14" y="16.8998615" width="9.65706369" height="1.20713296"></rect>
                    </g>
                    <g id="Group" transform="translate(13.278463, 21.728393) rotate(-270.000000) translate(-13.278463, -21.728393) translate(8.449931, 8.449931)">
                        <path d="M9.15706369,26.0569251 L9.15706369,0.5 L0.5,0.5 L0.5,26.0569251 L9.15706369,26.0569251 Z" id="Rectangle-32" stroke="#979797" fill="#D8D8D8"></path>
                        <rect id="Rectangle-33" fill="#979797" transform="translate(4.828532, 17.503428) rotate(180.000000) translate(-4.828532, -17.503428) " x="1.687539e-14" y="16.8998615" width="9.65706369" height="1.20713296"></rect>
                    </g>
                    <g id="Group" transform="translate(13.278463, 4.828532) rotate(-270.000000) translate(-13.278463, -4.828532) translate(8.449931, -8.449931)">
                        <path d="M9.15706369,26.0569251 L9.15706369,0.5 L0.5,0.5 L0.5,26.0569251 L9.15706369,26.0569251 Z" id="Rectangle-32" stroke="#979797" fill="#D8D8D8"></path>
                        <rect id="Rectangle-33" fill="#979797" transform="translate(4.828532, 17.503428) rotate(180.000000) translate(-4.828532, -17.503428) " x="1.687539e-14" y="16.8998615" width="9.65706369" height="1.20713296"></rect>
                    </g>
                </g>
                <rect id="Rectangle-31" stroke="#505050" stroke-width="3" fill="#585858" x="27.2906786" y="26.8497922" width="99.6063017" height="71.8422436" rx="1"></rect>
            </g>
        </g>
        <g id="Group-6" transform="translate(86.000000, 7.000000)" fill="#8D9EB0">
            <path d="M187.319289,73.8740226 C190.882054,73.8740226 192.663436,75.974179 192.663436,79.1244136 L192.663436,81.4495867 C192.663436,84.8623408 190.638286,87 186.850504,87 L183.025219,87 L183.025219,73.8740226 L187.319289,73.8740226 Z M190.300761,81.4870895 L190.300761,79.0681594 C190.300761,76.9305002 189.288185,75.6929081 187.20678,75.6929081 L185.387895,75.6929081 L185.387895,85.1811146 L186.869255,85.1811146 C189.156925,85.1811146 190.300761,83.9810252 190.300761,81.4870895 Z" id="D"></path>
            <path d="M161.924727,73.88172 C165.487493,73.88172 167.268875,75.9818764 167.268875,79.132111 L167.268875,81.4572841 C167.268875,84.8700382 165.243724,87.0076974 161.455942,87.0076974 L157.630658,87.0076974 L157.630658,73.88172 L161.924727,73.88172 Z M164.906199,81.4947869 L164.906199,79.0758568 C164.906199,76.9381976 163.893624,75.7006054 161.812219,75.7006054 L159.993334,75.7006054 L159.993334,85.188812 L161.474694,85.188812 C163.762364,85.188812 164.906199,83.9887226 164.906199,81.4947869 Z M174.600671,85.2263148 L176.907093,85.2263148 L176.907093,87.0076974 L169.631551,87.0076974 L169.631551,85.2263148 L172.313001,85.2263148 L172.313001,76.4319099 L170.044082,77.5569937 L169.181518,76.0193792 L172.856791,73.88172 L174.600671,73.88172 L174.600671,85.2263148 Z" id="D1"></path>
            <path d="M152.811768,2.76342318 C152.811768,2.48989616 153.043701,2.26815871 153.311768,2.26815871 L153.311768,2.26815871 C153.58791,2.26815871 153.811768,2.49851787 153.811768,2.76342318 L153.811768,48.7002609 C153.811768,48.9737879 153.579834,49.1955254 153.311768,49.1955254 L153.311768,49.1955254 C153.035625,49.1955254 152.811768,48.9651662 152.811768,48.7002609 L152.811768,2.76342318 Z" id="Rectangle-93"></path>
            <rect id="Rectangle-93" x="0" y="1.61798096" width="1" height="48.2277222" rx="0.5"></rect>
            <rect id="Rectangle-93-Copy-3" x="25.7412109" y="118.750577" width="1" height="38.4173916" rx="0.5"></rect>
            <rect id="Rectangle-93-Copy-4" x="126.664228" y="118.750577" width="1" height="38.4173916" rx="0.5"></rect>
            <g id="Group-3" transform="translate(2.000000, 3.000000)">
                <g id="triangle" transform="translate(3.627441, 3.494357) scale(-1, 1) translate(-3.627441, -3.494357) translate(0.627441, 0.994357)">
                    <path d="M2.88775351,-0.425866237 C2.98755721,-0.684554916 3.15206769,-0.677565105 3.24917468,-0.425866237 L5.40050076,5.1503168 C5.50030446,5.40900548 5.36527212,5.61871408 5.08097484,5.61871408 L1.05595335,5.61871408 C0.779680363,5.61871408 0.639320451,5.40201566 0.736427439,5.1503168 L2.88775351,-0.425866237 Z" id="Triangle-1" transform="translate(3.069450, 2.500722) rotate(90.000000) translate(-3.069450, -2.500722) "></path>
                </g>
                <rect id="Rectangle-144" x="3.48003974" y="2.88380564" width="66.5579241" height="1" rx="0.5"></rect>
            </g>
            <g id="Group-3" transform="translate(117.500000, 6.000000) scale(-1, 1) translate(-117.500000, -6.000000) translate(82.000000, 3.000000)">
                <g id="triangle" transform="translate(3.627441, 3.494357) scale(-1, 1) translate(-3.627441, -3.494357) translate(0.627441, 0.994357)">
                    <path d="M2.88775351,-0.425866237 C2.98755721,-0.684554916 3.15206769,-0.677565105 3.24917468,-0.425866237 L5.40050076,5.1503168 C5.50030446,5.40900548 5.36527212,5.61871408 5.08097484,5.61871408 L1.05595335,5.61871408 C0.779680363,5.61871408 0.639320451,5.40201566 0.736427439,5.1503168 L2.88775351,-0.425866237 Z" id="Triangle-1" transform="translate(3.069450, 2.500722) rotate(90.000000) translate(-3.069450, -2.500722) "></path>
                </g>
                <rect id="Rectangle-144" x="3.48003974" y="2.88380564" width="66.5579241" height="1" rx="0.5"></rect>
            </g>
            <g id="Group-5" transform="translate(27.000000, 149.693444)">
                <g id="triangle" transform="translate(3.958008, 3.295200) scale(-1, 1) translate(-3.958008, -3.295200) translate(0.958008, 0.795200)">
                    <path d="M2.88775351,-0.425866237 C2.98755721,-0.684554916 3.15206769,-0.677565105 3.24917468,-0.425866237 L5.40050076,5.1503168 C5.50030446,5.40900548 5.36527212,5.61871408 5.08097484,5.61871408 L1.05595335,5.61871408 C0.779680363,5.61871408 0.639320451,5.40201566 0.736427439,5.1503168 L2.88775351,-0.425866237 Z" id="Triangle-1" transform="translate(3.069450, 2.500722) rotate(90.000000) translate(-3.069450, -2.500722) "></path>
                </g>
                <rect id="Rectangle-144" x="3.81060615" y="2.68464829" width="35.3590716" height="1" rx="0.5"></rect>
            </g>
            <g id="Group-5" transform="translate(107.000000, 152.693444) scale(-1, 1) translate(-107.000000, -152.693444) translate(87.000000, 149.693444)">
                <g id="triangle" transform="translate(3.958008, 3.295200) scale(-1, 1) translate(-3.958008, -3.295200) translate(0.958008, 0.795200)">
                    <path d="M2.88775351,-0.425866237 C2.98755721,-0.684554916 3.15206769,-0.677565105 3.24917468,-0.425866237 L5.40050076,5.1503168 C5.50030446,5.40900548 5.36527212,5.61871408 5.08097484,5.61871408 L1.05595335,5.61871408 C0.779680363,5.61871408 0.639320451,5.40201566 0.736427439,5.1503168 L2.88775351,-0.425866237 Z" id="Triangle-1" transform="translate(3.069450, 2.500722) rotate(90.000000) translate(-3.069450, -2.500722) "></path>
                </g>
                <rect id="Rectangle-144" x="3.81060615" y="2.68464829" width="35.3590716" height="1" rx="0.5"></rect>
            </g>
            <rect id="Rectangle-132-Copy" x="121.554932" y="17.9526627" width="71" height="1" rx="0.5"></rect>
            <rect id="Rectangle-132-Copy" x="128.807007" y="42.9526627" width="47.1295166" height="1" rx="0.5"></rect>
            <rect id="Rectangle-132-Copy" x="128.807007" y="116.952663" width="47.1295166" height="1" rx="0.5"></rect>
            <rect id="Rectangle-132-Copy-2" x="121.554932" y="141.728069" width="71" height="1" rx="0.5"></rect>
            <g id="Group-4" transform="translate(184.000000, 19.000000)">
                <g id="triangle" transform="translate(3.086914, 3.757716) rotate(-90.000000) translate(-3.086914, -3.757716) translate(0.086914, 1.257716)">
                    <path d="M2.88775351,-0.425866237 C2.98755721,-0.684554916 3.15206769,-0.677565105 3.24917468,-0.425866237 L5.40050076,5.1503168 C5.50030446,5.40900548 5.36527212,5.61871408 5.08097484,5.61871408 L1.05595335,5.61871408 C0.779680363,5.61871408 0.639320451,5.40201566 0.736427439,5.1503168 L2.88775351,-0.425866237 Z" id="Triangle-1" transform="translate(3.069450, 2.500722) rotate(90.000000) translate(-3.069450, -2.500722) "></path>
                </g>
                <rect id="Rectangle-134" x="2.58691406" y="3.75771645" width="1" height="48.4958236" rx="0.5"></rect>
            </g>
            <g id="Group-4" transform="translate(164.472534, 43.952663)">
                <g id="triangle" transform="translate(3.086914, 3.757716) rotate(-90.000000) translate(-3.086914, -3.757716) translate(0.086914, 1.257716)">
                    <path d="M2.88775351,-0.425866237 C2.98755721,-0.684554916 3.15206769,-0.677565105 3.24917468,-0.425866237 L5.40050076,5.1503168 C5.50030446,5.40900548 5.36527212,5.61871408 5.08097484,5.61871408 L1.05595335,5.61871408 C0.779680363,5.61871408 0.639320451,5.40201566 0.736427439,5.1503168 L2.88775351,-0.425866237 Z" id="Triangle-1" transform="translate(3.069450, 2.500722) rotate(90.000000) translate(-3.069450, -2.500722) "></path>
                </g>
                <rect id="Rectangle-134" x="2.58691406" y="3.75771645" width="1" height="23.4529509" rx="0.5"></rect>
            </g>
            <g id="Group-4" transform="translate(167.472534, 102.952663) scale(-1, -1) translate(-167.472534, -102.952663) translate(164.472534, 88.952663)">
                <g id="triangle" transform="translate(3.086914, 3.757716) rotate(-90.000000) translate(-3.086914, -3.757716) translate(0.086914, 1.257716)">
                    <path d="M2.88775351,-0.425866237 C2.98755721,-0.684554916 3.15206769,-0.677565105 3.24917468,-0.425866237 L5.40050076,5.1503168 C5.50030446,5.40900548 5.36527212,5.61871408 5.08097484,5.61871408 L1.05595335,5.61871408 C0.779680363,5.61871408 0.639320451,5.40201566 0.736427439,5.1503168 L2.88775351,-0.425866237 Z" id="Triangle-1" transform="translate(3.069450, 2.500722) rotate(90.000000) translate(-3.069450, -2.500722) "></path>
                </g>
                <rect id="Rectangle-134" x="2.58691406" y="3.75771645" width="1" height="23.4529509" rx="0.5"></rect>
            </g>
            <g id="Group-4" transform="translate(187.000000, 115.500000) scale(1, -1) translate(-187.000000, -115.500000) translate(184.000000, 89.000000)">
                <g id="triangle" transform="translate(3.086914, 3.757716) rotate(-90.000000) translate(-3.086914, -3.757716) translate(0.086914, 1.257716)">
                    <path d="M2.88775351,-0.425866237 C2.98755721,-0.684554916 3.15206769,-0.677565105 3.24917468,-0.425866237 L5.40050076,5.1503168 C5.50030446,5.40900548 5.36527212,5.61871408 5.08097484,5.61871408 L1.05595335,5.61871408 C0.779680363,5.61871408 0.639320451,5.40201566 0.736427439,5.1503168 L2.88775351,-0.425866237 Z" id="Triangle-1" transform="translate(3.069450, 2.500722) rotate(90.000000) translate(-3.069450, -2.500722) "></path>
                </g>
                <rect id="Rectangle-134" x="2.58691406" y="3.75771645" width="1" height="48.4958236" rx="0.5"></rect>
            </g>
            <polygon id="E" points="82.1382177 2.32141493 76.8315725 2.32141493 76.8315725 6.05294279 81.725687 6.05294279 81.725687 7.87182823 76.8315725 7.87182823 76.8315725 11.79087 82.1382177 11.79087 82.1382177 13.6285069 74.4688966 13.6285069 74.4688966 0.502529492 82.1382177 0.502529492"></polygon>
            <path d="M77.1107519,148.321415 L71.8041067,148.321415 L71.8041067,152.052943 L76.6982211,152.052943 L76.6982211,153.871828 L71.8041067,153.871828 L71.8041067,157.79087 L77.1107519,157.79087 L77.1107519,159.628507 L69.4414308,159.628507 L69.4414308,146.502529 L77.1107519,146.502529 L77.1107519,148.321415 Z M84.4800506,157.847124 L86.7864723,157.847124 L86.7864723,159.628507 L79.5109306,159.628507 L79.5109306,157.847124 L82.1923802,157.847124 L82.1923802,149.052719 L79.9234613,150.177803 L79.0608971,148.640189 L82.7361707,146.502529 L84.4800506,146.502529 L84.4800506,157.847124 Z" id="E1"></path>
        </g>
        <use id="Rectangle" stroke="#D8D8D8" mask="url(#mask-2)" stroke-width="2" stroke-dasharray="2" xlink:href="#path-1"></use>
        <path d="M160.638218,67.6929081 L155.331573,67.6929081 L155.331573,71.4244359 L160.225687,71.4244359 L160.225687,73.2433213 L155.331573,73.2433213 L155.331573,77.1623632 L160.638218,77.1623632 L160.638218,79 L152.968897,79 L152.968897,65.8740226 L160.638218,65.8740226 L160.638218,67.6929081 Z M164.876033,77.0873576 L171.00774,77.0873576 L171.00774,79 L162.55086,79 L162.55086,77.6686509 C162.55086,75.3434777 163.675944,74.0683828 165.194807,73.0183046 L166.994941,71.7807124 C168.176279,70.9744024 168.626312,70.4868661 168.626312,69.6243019 L168.626312,69.1742684 C168.626312,68.3867097 168.007516,67.4678913 166.451151,67.4678913 C165.326067,67.4678913 164.444751,67.8054164 163.319667,68.5929751 L162.269589,67.167869 C163.48843,66.2115477 164.857282,65.6302545 166.601162,65.6302545 C169.432623,65.6302545 170.988988,67.3366315 170.988988,69.0992628 L170.988988,69.6805561 C170.988988,70.9744024 170.20143,72.1182376 168.176279,73.4308353 L166.732421,74.3684051 C165.269813,75.3247263 164.913536,76.0935336 164.876033,77.0873576 Z" id="E2" fill="#8D9EB0"></path>
        <rect id="Rectangle-93-Copy-2" fill="#8D9EB0" x="123" y="65" width="1" height="14" rx="0.5"></rect>
        <rect id="Rectangle-93-Copy-6" fill="#8D9EB0" x="202" y="65" width="1" height="14" rx="0.5"></rect>
        <rect id="Rectangle-132-Copy-2" fill="#8D9EB0" x="178" y="58" width="20.074583" height="1" rx="0.5"></rect>
        <rect id="Rectangle-132-Copy-4" fill="#8D9EB0" x="178" y="117" width="20.074583" height="1" rx="0.5"></rect>
        <g id="left-arrow-copy" transform="translate(125.000000, 69.000000)" fill="#8D9EB0">
            <g id="triangle" transform="translate(3.000000, 2.500000) scale(-1, 1) translate(-3.000000, -2.500000) ">
                <path d="M2.88775351,-0.425866237 C2.98755721,-0.684554916 3.15206769,-0.677565105 3.24917468,-0.425866237 L5.40050076,5.1503168 C5.50030446,5.40900548 5.36527212,5.61871408 5.08097484,5.61871408 L1.05595335,5.61871408 C0.779680363,5.61871408 0.639320451,5.40201566 0.736427439,5.1503168 L2.88775351,-0.425866237 Z" id="Triangle-1" transform="translate(3.069450, 2.500722) rotate(90.000000) translate(-3.069450, -2.500722) "></path>
            </g>
            <rect id="Rectangle-144" x="2.85259834" y="1.88944875" width="24" height="1" rx="0.5"></rect>
        </g>
        <g id="left-arrow-copy-2" transform="translate(186.500000, 71.500000) scale(-1, 1) translate(-186.500000, -71.500000) translate(172.000000, 69.000000)" fill="#8D9EB0">
            <g id="triangle" transform="translate(2.875000, 2.500000) scale(-1, 1) translate(-2.875000, -2.500000) ">
                <path d="M2.76743045,-0.425866237 C2.86307566,-0.684554916 3.02073154,-0.677565105 3.1137924,-0.425866237 L5.17547989,5.1503168 C5.2711251,5.40900548 5.11637041,5.61871408 4.85139336,5.61871408 L1.02982949,5.61871408 C0.755196231,5.61871408 0.612682099,5.40201566 0.705742962,5.1503168 L2.76743045,-0.425866237 Z" id="Triangle-1" transform="translate(2.941556, 2.500722) rotate(90.000000) translate(-2.941556, -2.500722) "></path>
            </g>
            <rect id="Rectangle-144" x="3.73374007" y="1.88944875" width="24" height="1" rx="0.5"></rect>
        </g>
        <g id="Group-Copy" transform="translate(185.000000, 59.000000)" fill="#8D9EB0">
            <g id="triangle" transform="translate(3.184082, 3.484497) rotate(-90.000000) translate(-3.184082, -3.484497) translate(0.184082, 0.984497)">
                <path d="M2.88775351,-0.425866237 C2.98755721,-0.684554916 3.15206769,-0.677565105 3.24917468,-0.425866237 L5.40050076,5.1503168 C5.50030446,5.40900548 5.36527212,5.61871408 5.08097484,5.61871408 L1.05595335,5.61871408 C0.779680363,5.61871408 0.639320451,5.40201566 0.736427439,5.1503168 L2.88775351,-0.425866237 Z" id="Triangle-1" transform="translate(3.069450, 2.500722) rotate(90.000000) translate(-3.069450, -2.500722) "></path>
            </g>
            <rect id="Rectangle-134" x="2.6000061" y="3" width="1" height="17" rx="0.5"></rect>
        </g>
        <g id="Group-Copy-2" transform="translate(188.000000, 106.000000) scale(1, -1) translate(-188.000000, -106.000000) translate(185.000000, 95.000000)" fill="#8D9EB0">
            <g id="triangle" transform="translate(3.184082, 3.048935) rotate(-90.000000) translate(-3.184082, -3.048935) translate(0.184082, 0.861435)">
                <path d="M2.86283544,-0.316119328 C2.97640101,-0.573683538 3.1578941,-0.579655303 3.27409275,-0.316119328 L5.37558269,4.45001357 C5.48914826,4.70757778 5.36527212,4.91637482 5.08097484,4.91637482 L1.05595335,4.91637482 C0.779680363,4.91637482 0.645146859,4.71354954 0.761345507,4.45001357 L2.86283544,-0.316119328 Z" id="Triangle-1" transform="translate(3.069450, 2.188132) rotate(90.000000) translate(-3.069450, -2.188132) "></path>
            </g>
            <rect id="Rectangle-134" x="2.68408203" y="3.04893494" width="1" height="19" rx="0.5"></rect>
        </g>
        <path d="M181.29407,80.2437682 C184.856835,80.2437682 186.638218,82.3439245 186.638218,85.4941591 L186.638218,87.8193322 C186.638218,91.2320864 184.613067,93.3697455 180.825285,93.3697455 L177,93.3697455 L177,80.2437682 L181.29407,80.2437682 Z M184.275542,87.856835 L184.275542,85.4379049 C184.275542,83.3002457 183.262966,82.0626536 181.181561,82.0626536 L179.362676,82.0626536 L179.362676,91.5508601 L180.844036,91.5508601 C183.131707,91.5508601 184.275542,90.3507707 184.275542,87.856835 Z M190.83853,91.4571031 L196.970237,91.4571031 L196.970237,93.3697455 L188.513357,93.3697455 L188.513357,92.0383964 C188.513357,89.7132233 189.638441,88.4381283 191.157304,87.3880501 L192.957438,86.150458 C194.138776,85.3441479 194.58881,84.8566116 194.58881,83.9940474 L194.58881,83.5440139 C194.58881,82.7564553 193.970014,81.8376368 192.413648,81.8376368 C191.288564,81.8376368 190.407248,82.175162 189.282165,82.9627206 L188.232086,81.5376145 C189.450927,80.5812933 190.819779,80 192.563659,80 C195.39512,80 196.951486,81.7063771 196.951486,83.4690083 L196.951486,84.0503016 C196.951486,85.3441479 196.163927,86.4879831 194.138776,87.8005808 L192.694919,88.7381507 C191.23231,89.6944719 190.876033,90.4632791 190.83853,91.4571031 Z" id="D2" fill="#8D9EB0"></path>
        <g id="Group-7" transform="translate(13.000000, 7.000000)" fill="#8D9EB0">
            <polygon id="L" points="57.4465693 11.7560107 62.7719658 11.7560107 62.7719658 13.6686531 55.0838933 13.6686531 55.0838933 0.542675761 57.4465693 0.542675761"></polygon>
            <path d="M59.6404826,115.761738 C61.928153,115.761738 63.4282647,117.599374 63.4282647,120.487089 L63.4282647,121.499665 C63.4282647,124.25612 61.646882,126.243768 59.3592117,126.243768 C58.2903821,126.243768 57.4278179,125.849989 56.7340162,125.137436 L56.5465022,126 L54.7276168,126 L54.7276168,112.123967 L57.0527899,112.123967 L57.0527899,116.793064 C57.6903374,116.136766 58.5529016,115.761738 59.6404826,115.761738 Z M61.1030915,121.57467 L61.1030915,120.412084 C61.1030915,118.461939 60.4467927,117.524369 59.1716977,117.524369 C58.2716307,117.524369 57.5590776,117.955651 57.0527899,118.593198 L57.0527899,123.656075 C57.5590776,124.199866 58.1966251,124.499888 58.9654324,124.499888 C60.2592787,124.499888 61.1030915,123.487313 61.1030915,121.57467 Z" id="b"></path>
            <path d="M49.6569691,64.1183493 C49.6569691,64.53088 49.6194663,64.9434107 49.5819635,65.243433 L43.1502346,65.243433 C43.1877374,67.1560755 44.069053,67.9998883 45.7941814,67.9998883 C46.8817624,67.9998883 47.6880725,67.606109 48.4568797,67.1748269 L49.2819412,68.5624302 C48.4381283,69.1999777 47.0880278,69.7437682 45.6441703,69.7437682 C42.6064441,69.7437682 40.8813156,67.7373688 40.8813156,65.0371677 L40.8813156,64.0058409 C40.8813156,61.3056398 42.5689413,59.2617376 45.3441479,59.2617376 C48.0631004,59.2617376 49.6569691,60.9493633 49.6569691,64.1183493 Z M47.5755641,63.7245699 L47.5755641,63.630813 C47.5755641,61.9056845 46.8067568,60.9681147 45.3628993,60.9681147 C43.9377932,60.9681147 43.1877374,61.9056845 43.1502346,63.7245699 L47.5755641,63.7245699 Z" id="e"></path>
            <path d="M22.4614323,13.6686531 L21.3738513,10.2183962 L16.8360134,10.2183962 L15.8421894,13.6686531 L13.4607621,13.6686531 L17.4735609,0.542675761 L20.6800497,0.542675761 L24.8991138,13.6686531 L22.4614323,13.6686531 Z M19.0674296,2.19279863 L17.3610525,8.32450521 L20.8113094,8.32450521 L19.0674296,2.19279863 Z" id="A"></path>
            <path d="M9.28194115,159.007697 L8.19436017,155.55744 L3.65652227,155.55744 L2.66269827,159.007697 L0.281270944,159.007697 L4.29406975,145.88172 L7.50055851,145.88172 L11.7196227,159.007697 L9.28194115,159.007697 Z M5.88793843,147.531843 L4.18156137,153.663549 L7.63181828,153.663549 L5.88793843,147.531843 Z M18.0950974,157.226315 L20.4015191,157.226315 L20.4015191,159.007697 L13.1259774,159.007697 L13.1259774,157.226315 L15.8074271,157.226315 L15.8074271,148.43191 L13.5385081,149.556994 L12.6759439,148.019379 L16.3512175,145.88172 L18.0950974,145.88172 L18.0950974,157.226315 Z" id="A1"></path>
            <rect id="Rectangle-93-Copy" x="0.35925293" y="1.74151611" width="1" height="44.9168701" rx="0.5"></rect>
            <rect id="Rectangle-93-Copy" x="32.3592529" y="113.741516" width="1" height="42.4332886" rx="0.5"></rect>
            <rect id="Rectangle-93-Copy" x="35.0286865" y="1.74151611" width="1" height="13.9168701" rx="0.5"></rect>
            <rect id="Rectangle-93-Copy" x="35.5286865" y="142.728069" width="1" height="13.4467362" rx="0.5"></rect>
            <rect id="Rectangle-132-Copy" x="39" y="17.9263826" width="11.5976563" height="1" rx="0.5"></rect>
            <rect id="Rectangle-132-Copy-5" x="39" y="100.271109" width="11.5976563" height="1" rx="0.5"></rect>
            <g id="Group-2" transform="translate(44.000000, 6.000000)">
                <g id="triangle" transform="translate(3.377686, 7.643614) rotate(90.000000) translate(-3.377686, -7.643614) translate(0.377686, 5.143614)">
                    <path d="M2.88775351,-0.425866237 C2.98755721,-0.684554916 3.15206769,-0.677565105 3.24917468,-0.425866237 L5.40050076,5.1503168 C5.50030446,5.40900548 5.36527212,5.61871408 5.08097484,5.61871408 L1.05595335,5.61871408 C0.779680363,5.61871408 0.639320451,5.40201566 0.736427439,5.1503168 L2.88775351,-0.425866237 Z" id="Triangle-1" transform="translate(3.069450, 2.500722) rotate(90.000000) translate(-3.069450, -2.500722) "></path>
                </g>
                <rect id="Rectangle-157" x="2.8718446" y="0.708799417" width="1" height="5" rx="0.5"></rect>
                <rect id="Rectangle-159" x="2.8718446" y="0.708799417" width="6" height="1" rx="0.5"></rect>
            </g>
            <g id="Group-2" transform="translate(48.500000, 115.500000) scale(1, -1) translate(-48.500000, -115.500000) translate(44.000000, 110.000000)">
                <g id="triangle" transform="translate(3.377686, 7.643614) rotate(90.000000) translate(-3.377686, -7.643614) translate(0.377686, 5.143614)">
                    <path d="M2.88775351,-0.425866237 C2.98755721,-0.684554916 3.15206769,-0.677565105 3.24917468,-0.425866237 L5.40050076,5.1503168 C5.50030446,5.40900548 5.36527212,5.61871408 5.08097484,5.61871408 L1.05595335,5.61871408 C0.779680363,5.61871408 0.639320451,5.40201566 0.736427439,5.1503168 L2.88775351,-0.425866237 Z" id="Triangle-1" transform="translate(3.069450, 2.500722) rotate(90.000000) translate(-3.069450, -2.500722) "></path>
                </g>
                <rect id="Rectangle-157" x="2.8718446" y="0.708799417" width="1" height="5" rx="0.5"></rect>
                <rect id="Rectangle-159" x="2.8718446" y="0.708799417" width="6" height="1" rx="0.5"></rect>
            </g>
            <rect id="Rectangle-132-Copy-4" x="39" y="26.1314607" width="11.5976563" height="1" rx="0.5"></rect>
            <rect id="Rectangle-132-Copy-6" x="39" y="108.476187" width="11.5976563" height="1" rx="0.5"></rect>
            <rect id="Rectangle-132-Copy" x="39" y="55.9263826" width="11.5976563" height="1" rx="0.5"></rect>
            <rect id="Rectangle-132-Copy-4" x="39" y="72.1314607" width="11.5976563" height="1" rx="0.5"></rect>
            <g id="triangle" transform="translate(47.371845, 31.085555) rotate(-90.000000) translate(-47.371845, -31.085555) translate(44.371845, 28.585555)">
                <path d="M2.88775351,-0.425866237 C2.98755721,-0.684554916 3.15206769,-0.677565105 3.24917468,-0.425866237 L5.40050076,5.1503168 C5.50030446,5.40900548 5.36527212,5.61871408 5.08097484,5.61871408 L1.05595335,5.61871408 C0.779680363,5.61871408 0.639320451,5.40201566 0.736427439,5.1503168 L2.88775351,-0.425866237 Z" id="Triangle-1" transform="translate(3.069450, 2.500722) rotate(90.000000) translate(-3.069450, -2.500722) "></path>
            </g>
            <rect id="Rectangle-134" x="46.8718446" y="34.0855547" width="1" height="5.33670493" rx="0.5"></rect>
            <g id="Group" transform="translate(45.000000, 46.000000)">
                <rect id="Rectangle-134" x="2.5" y="0.773219382" width="1" height="5" rx="0.5"></rect>
                <g id="triangle" transform="translate(3.000000, 6.500000) rotate(90.000000) translate(-3.000000, -6.500000) translate(0.000000, 4.000000)">
                    <path d="M2.88775351,-0.425866237 C2.98755721,-0.684554916 3.15206769,-0.677565105 3.24917468,-0.425866237 L5.40050076,5.1503168 C5.50030446,5.40900548 5.36527212,5.61871408 5.08097484,5.61871408 L1.05595335,5.61871408 C0.779680363,5.61871408 0.639320451,5.40201566 0.736427439,5.1503168 L2.88775351,-0.425866237 Z" id="Triangle-1" transform="translate(3.069450, 2.500722) rotate(90.000000) translate(-3.069450, -2.500722) "></path>
                </g>
            </g>
            <g id="Group" transform="translate(45.000000, 90.000000)">
                <rect id="Rectangle-134" x="2.5" y="0.773219382" width="1" height="5" rx="0.5"></rect>
                <g id="triangle" transform="translate(3.000000, 6.500000) rotate(90.000000) translate(-3.000000, -6.500000) translate(0.000000, 4.000000)">
                    <path d="M2.88775351,-0.425866237 C2.98755721,-0.684554916 3.15206769,-0.677565105 3.24917468,-0.425866237 L5.40050076,5.1503168 C5.50030446,5.40900548 5.36527212,5.61871408 5.08097484,5.61871408 L1.05595335,5.61871408 C0.779680363,5.61871408 0.639320451,5.40201566 0.736427439,5.1503168 L2.88775351,-0.425866237 Z" id="Triangle-1" transform="translate(3.069450, 2.500722) rotate(90.000000) translate(-3.069450, -2.500722) "></path>
                </g>
            </g>
            <g id="Group" transform="translate(48.000000, 78.500000) scale(1, -1) translate(-48.000000, -78.500000) translate(45.000000, 73.500000)">
                <rect id="Rectangle-134" x="2.5" y="0.773219382" width="1" height="5" rx="0.5"></rect>
                <g id="triangle" transform="translate(3.000000, 6.500000) rotate(90.000000) translate(-3.000000, -6.500000) translate(0.000000, 4.000000)">
                    <path d="M2.88775351,-0.425866237 C2.98755721,-0.684554916 3.15206769,-0.677565105 3.24917468,-0.425866237 L5.40050076,5.1503168 C5.50030446,5.40900548 5.36527212,5.61871408 5.08097484,5.61871408 L1.05595335,5.61871408 C0.779680363,5.61871408 0.639320451,5.40201566 0.736427439,5.1503168 L2.88775351,-0.425866237 Z" id="Triangle-1" transform="translate(3.069450, 2.500722) rotate(90.000000) translate(-3.069450, -2.500722) "></path>
                </g>
            </g>
            <g id="Group-3-Copy-5" transform="translate(2.419252, 4.386888)">
                <g id="triangle" transform="translate(3.026855, 2.500000) scale(-1, 1) translate(-3.026855, -2.500000) translate(0.026855, 0.000000)">
                    <path d="M2.88775351,-0.425866237 C2.98755721,-0.684554916 3.15206769,-0.677565105 3.24917468,-0.425866237 L5.40050076,5.1503168 C5.50030446,5.40900548 5.36527212,5.61871408 5.08097484,5.61871408 L1.05595335,5.61871408 C0.779680363,5.61871408 0.639320451,5.40201566 0.736427439,5.1503168 L2.88775351,-0.425866237 Z" id="Triangle-1" transform="translate(3.069450, 2.500722) rotate(90.000000) translate(-3.069450, -2.500722) "></path>
                </g>
                <rect id="Rectangle-144" x="2.8794538" y="1.88944875" width="5" height="1" rx="0.5"></rect>
            </g>
            <g id="Group-3-Copy-5" transform="translate(37.419252, 150.193444)">
                <g id="triangle" transform="translate(3.026855, 2.500000) scale(-1, 1) translate(-3.026855, -2.500000) translate(0.026855, 0.000000)">
                    <path d="M2.88775351,-0.425866237 C2.98755721,-0.684554916 3.15206769,-0.677565105 3.24917468,-0.425866237 L5.40050076,5.1503168 C5.50030446,5.40900548 5.36527212,5.61871408 5.08097484,5.61871408 L1.05595335,5.61871408 C0.779680363,5.61871408 0.639320451,5.40201566 0.736427439,5.1503168 L2.88775351,-0.425866237 Z" id="Triangle-1" transform="translate(3.069450, 2.500722) rotate(90.000000) translate(-3.069450, -2.500722) "></path>
                </g>
                <rect id="Rectangle-144" x="2.8794538" y="1.88944875" width="5" height="1" rx="0.5"></rect>
            </g>
            <g id="Group-3-Copy-4" transform="translate(26.914477, 152.693444) scale(-1, 1) translate(-26.914477, -152.693444) translate(22.414477, 150.193444)">
                <g id="triangle" transform="translate(3.026855, 2.500000) scale(-1, 1) translate(-3.026855, -2.500000) translate(0.026855, 0.000000)">
                    <path d="M2.88775351,-0.425866237 C2.98755721,-0.684554916 3.15206769,-0.677565105 3.24917468,-0.425866237 L5.40050076,5.1503168 C5.50030446,5.40900548 5.36527212,5.61871408 5.08097484,5.61871408 L1.05595335,5.61871408 C0.779680363,5.61871408 0.639320451,5.40201566 0.736427439,5.1503168 L2.88775351,-0.425866237 Z" id="Triangle-1" transform="translate(3.069450, 2.500722) rotate(90.000000) translate(-3.069450, -2.500722) "></path>
                </g>
                <rect id="Rectangle-144" x="2.8794538" y="1.88944875" width="5.47838207" height="1" rx="0.5"></rect>
            </g>
            <g id="Group-3-Copy-4" transform="translate(29.914477, 6.886888) scale(-1, 1) translate(-29.914477, -6.886888) translate(25.414477, 4.386888)">
                <g id="triangle" transform="translate(3.026855, 2.500000) scale(-1, 1) translate(-3.026855, -2.500000) translate(0.026855, 0.000000)">
                    <path d="M2.88775351,-0.425866237 C2.98755721,-0.684554916 3.15206769,-0.677565105 3.24917468,-0.425866237 L5.40050076,5.1503168 C5.50030446,5.40900548 5.36527212,5.61871408 5.08097484,5.61871408 L1.05595335,5.61871408 C0.779680363,5.61871408 0.639320451,5.40201566 0.736427439,5.1503168 L2.88775351,-0.425866237 Z" id="Triangle-1" transform="translate(3.069450, 2.500722) rotate(90.000000) translate(-3.069450, -2.500722) "></path>
                </g>
                <rect id="Rectangle-144" x="2.8794538" y="1.88944875" width="5.47838207" height="1" rx="0.5"></rect>
            </g>
        </g>
        <g id="Group-4" transform="translate(11.670775, 24.729086)">
            <path d="M16.1430457,105.015401 C16.1430457,105.653797 16.4792217,106.24502 17.0278412,106.571465 L33.0261086,118.759294 L33.0261086,123.127562 C33.0261086,124.127584 33.8367864,124.938261 34.8368081,124.938261 C35.8368298,124.938261 36.6475075,124.127584 36.6475075,123.127562 L36.6475075,117.695464 C36.6475075,117.057067 36.3113315,116.465845 35.7627119,116.1394 L19.7644446,103.994672 L19.7644446,94.1684449 C19.7644446,93.1684232 18.9537668,92.3577454 17.9537451,92.3577454 C16.9537234,92.3577454 16.1430457,93.1684232 16.1430457,94.1684449 L16.1430457,105.015401 Z" id="Path-11" stroke="#979797" fill="#D8D8D8" fill-rule="nonzero"></path>
            <path d="M16.1430457,13.3077862 C16.1430457,13.9461824 16.4792217,14.5374052 17.0278412,14.86385 L33.0803353,26.9975169 L33.0803353,31.3657851 C33.0803353,32.3658068 33.8910131,33.1764845 34.8910348,33.1764845 C35.8910564,33.1764845 36.7017342,32.3658068 36.7017342,31.3657851 L36.7017342,25.9336868 C36.7017342,25.2952906 36.3655582,24.7040678 35.8169386,24.377623 L19.7644446,12.2870575 L19.7644446,2.46083013 C19.7644446,1.46080844 18.9537668,0.650130691 17.9537451,0.650130691 C16.9537234,0.650130691 16.1430457,1.46080844 16.1430457,2.46083013 L16.1430457,13.3077862 Z" id="Path-11" stroke="#979797" fill="#D8D8D8" fill-rule="nonzero" transform="translate(26.422390, 16.913308) scale(1, -1) translate(-26.422390, -16.913308) "></path>
            <path d="M17.9484778,25.871305 L2.63211691,30.2474081 C2.04921326,30.413952 1.55388366,31.0698088 1.55388366,31.6779372 L1.55388366,93.8638907 C1.55388366,94.4702065 2.04904175,95.1278269 2.63211691,95.2944198 L17.9484778,99.670523 L32.0652046,95.3269147 C32.6493787,95.1471689 33.1464736,94.4756574 33.1464736,93.8638907 L33.1464736,31.6779372 C33.1464736,31.0662796 32.6522161,30.3955321 32.0652046,30.2149132 L17.9484778,25.871305 Z" id="Combined-Shape" stroke="#505050" fill="#585858"></path>
            <rect id="Rectangle-158" fill="#505050" x="17.3501786" y="26.5569251" width="1.20713296" height="72.4279777"></rect>
            <g id="Group" transform="translate(26.403676, 86.913573) rotate(-270.000000) translate(-26.403676, -86.913573) translate(21.575144, 76.049377)">
                <path d="M9.15706369,21.2283933 L9.15706369,0.5 L0.5,0.5 L0.5,21.2283933 L9.15706369,21.2283933 Z" id="Rectangle-32" stroke="#979797" fill="#D8D8D8"></path>
                <rect id="Rectangle-33" fill="#979797" transform="translate(4.828532, 4.224965) rotate(180.000000) translate(-4.828532, -4.224965) " x="7.37188088e-14" y="3.62139888" width="9.65706369" height="1.20713296"></rect>
            </g>
            <g id="Group" transform="translate(26.403676, 71.220845) rotate(-270.000000) translate(-26.403676, -71.220845) translate(21.575144, 60.356648)">
                <path d="M9.15706369,21.2283933 L9.15706369,0.5 L0.5,0.5 L0.5,21.2283933 L9.15706369,21.2283933 Z" id="Rectangle-32" stroke="#979797" fill="#D8D8D8"></path>
                <rect id="Rectangle-33" fill="#979797" transform="translate(4.828532, 4.224965) rotate(180.000000) translate(-4.828532, -4.224965) " x="5.0004445e-13" y="3.62139888" width="9.65706369" height="1.20713296"></rect>
            </g>
            <g id="Group" transform="translate(26.403676, 55.528116) rotate(-270.000000) translate(-26.403676, -55.528116) translate(21.575144, 44.663920)">
                <path d="M9.15706369,21.2283933 L9.15706369,0.5 L0.5,0.5 L0.5,21.2283933 L9.15706369,21.2283933 Z" id="Rectangle-32" stroke="#979797" fill="#D8D8D8"></path>
                <rect id="Rectangle-33" fill="#979797" transform="translate(4.828532, 4.224965) rotate(180.000000) translate(-4.828532, -4.224965) " x="1.44773082e-13" y="3.62139888" width="9.65706369" height="1.20713296"></rect>
            </g>
            <g id="Group" transform="translate(26.403676, 38.628255) rotate(-270.000000) translate(-26.403676, -38.628255) translate(21.575144, 27.764058)">
                <path d="M9.15706369,21.2283933 L9.15706369,0.5 L0.5,0.5 L0.5,21.2283933 L9.15706369,21.2283933 Z" id="Rectangle-32" stroke="#979797" fill="#D8D8D8"></path>
                <rect id="Rectangle-33" fill="#979797" transform="translate(4.828532, 4.224965) rotate(180.000000) translate(-4.828532, -4.224965) " x="2.39808173e-14" y="3.62139888" width="9.65706369" height="1.20713296"></rect>
            </g>
        </g>
    </g>
</svg>