<?xml version="1.0" encoding="UTF-8"?>
<svg width="290px" height="175px" viewBox="0 0 290 175" version="1.1" xmlns="http://www.w3.org/2000/svg" xmlns:xlink="http://www.w3.org/1999/xlink">
    <!-- Generator: Sketch 50.2 (55047) - http://www.bohemiancoding.com/sketch -->
    <title>GenericRadial-Labeled</title>
    <desc>Created with Sketch.</desc>
    <defs>
        <linearGradient x1="100%" y1="50%" x2="0%" y2="50%" id="linearGradient-1">
            <stop stop-color="#201F1F" offset="0%"></stop>
            <stop stop-color="#EEEEEE" offset="49.6884032%"></stop>
            <stop stop-color="#201F1F" offset="100%"></stop>
        </linearGradient>
    </defs>
    <g id="GenericRadial-Labeled" stroke="none" stroke-width="1" fill="none" fill-rule="evenodd">
        <g id="Group-5" transform="translate(125.000000, 26.000000)">
            <g id="Group-6">
                <g id="Group" transform="translate(10.000000, 83.000000)" fill="#D8D8D8" stroke="#979797">
                    <rect id="Rectangle-7" transform="translate(3.275648, 12.476865) rotate(90.000000) translate(-3.275648, -12.476865) " x="-7.72435231" y="10.4768646" width="22" height="4"></rect>
                    <rect id="Rectangle-7-Copy" transform="translate(33.275648, 12.476865) scale(-1, 1) rotate(90.000000) translate(-33.275648, -12.476865) " x="22.2756477" y="10.4768646" width="22" height="4"></rect>
                </g>
                <g id="Group-2" fill="#585858" stroke="#505050">
                    <rect id="Rectangle-9" x="0.5" y="0.5" width="56.0403611" height="83.6812352" rx="5"></rect>
                </g>
            </g>
        </g>
        <path d="M154.670681,9.96111978 C158.233446,9.96111978 160.014829,12.0612762 160.014829,15.2115107 L160.014829,17.5366839 C160.014829,20.949438 157.989678,23.0870972 154.201896,23.0870972 L150.376611,23.0870972 L150.376611,9.96111978 L154.670681,9.96111978 Z M157.652153,17.5741867 L157.652153,15.1552565 C157.652153,13.0175974 156.639578,11.7800052 154.558173,11.7800052 L152.739287,11.7800052 L152.739287,21.2682117 L154.220648,21.2682117 C156.508318,21.2682117 157.652153,20.0681224 157.652153,17.5741867 Z" id="D" fill="#8D9EB0"></path>
        <path d="M181.301025,8.78341198 C181.301025,8.51254766 181.532959,8.29296875 181.801025,8.29296875 L181.801025,8.29296875 C182.077168,8.29296875 182.301025,8.50791156 182.301025,8.78341198 L182.301025,24.8025255 C182.301025,25.0733898 182.069092,25.2929688 181.801025,25.2929688 L181.801025,25.2929688 C181.524883,25.2929688 181.301025,25.0780259 181.301025,24.8025255 L181.301025,8.78341198 Z" id="Rectangle-93" fill="#8D9EB0"></path>
        <rect id="Rectangle-93" fill="#8D9EB0" x="124.70105" y="8.29296875" width="1" height="17.4710693" rx="0.5"></rect>
        <g id="left-arrow" transform="translate(125.492676, 15.081454)" fill="#8D9EB0">
            <g id="triangle" transform="translate(3.000000, 2.500000) scale(-1, 1) translate(-3.000000, -2.500000) ">
                <path d="M2.88775351,-0.425866237 C2.98755721,-0.684554916 3.15206769,-0.677565105 3.24917468,-0.425866237 L5.40050076,5.1503168 C5.50030446,5.40900548 5.36527212,5.61871408 5.08097484,5.61871408 L1.05595335,5.61871408 C0.779680363,5.61871408 0.639320451,5.40201566 0.736427439,5.1503168 L2.88775351,-0.425866237 Z" id="Triangle-1" transform="translate(3.069450, 2.500722) rotate(90.000000) translate(-3.069450, -2.500722) "></path>
            </g>
            <rect id="Rectangle-144" x="5" y="1.88944875" width="17.8907471" height="1" rx="0.5"></rect>
        </g>
        <g id="left-arrow" transform="translate(171.992676, 17.581454) scale(-1, 1) translate(-171.992676, -17.581454) translate(162.492676, 15.081454)" fill="#8D9EB0">
            <g id="triangle" transform="translate(3.000000, 2.500000) scale(-1, 1) translate(-3.000000, -2.500000) ">
                <path d="M2.88775351,-0.425866237 C2.98755721,-0.684554916 3.15206769,-0.677565105 3.24917468,-0.425866237 L5.40050076,5.1503168 C5.50030446,5.40900548 5.36527212,5.61871408 5.08097484,5.61871408 L1.05595335,5.61871408 C0.779680363,5.61871408 0.639320451,5.40201566 0.736427439,5.1503168 L2.88775351,-0.425866237 Z" id="Triangle-1" transform="translate(3.069450, 2.500722) rotate(90.000000) translate(-3.069450, -2.500722) "></path>
            </g>
            <rect id="Rectangle-144" x="5" y="1.88944875" width="14" height="1" rx="0.5"></rect>
        </g>
        <g id="Group-5" transform="translate(104.000000, 93.000000) scale(1, -1) translate(-104.000000, -93.000000) translate(102.000000, 77.000000)" fill="#8D9EB0">
            <g id="triangle" transform="translate(2.277118, 2.412196) rotate(-90.000000) translate(-2.277118, -2.412196) translate(-0.722882, -0.087804)">
                <path d="M2.88775351,-0.425866237 C2.98755721,-0.684554916 3.15206769,-0.677565105 3.24917468,-0.425866237 L5.40050076,5.1503168 C5.50030446,5.40900548 5.36527212,5.61871408 5.08097484,5.61871408 L1.05595335,5.61871408 C0.779680363,5.61871408 0.639320451,5.40201566 0.736427439,5.1503168 L2.88775351,-0.425866237 Z" id="Triangle-1" transform="translate(3.069450, 2.500722) rotate(90.000000) translate(-3.069450, -2.500722) "></path>
            </g>
            <rect id="Rectangle-134" x="1.77711804" y="2.41219643" width="1" height="29" rx="0.5"></rect>
        </g>
        <path d="M122.525486,133.761738 C124.813156,133.761738 126.313268,135.599374 126.313268,138.487089 L126.313268,139.499665 C126.313268,142.25612 124.531885,144.243768 122.244215,144.243768 C121.175385,144.243768 120.312821,143.849989 119.619019,143.137436 L119.431506,144 L117.61262,144 L117.61262,130.123967 L119.937793,130.123967 L119.937793,134.793064 C120.575341,134.136766 121.437905,133.761738 122.525486,133.761738 Z M123.988095,139.57467 L123.988095,138.412084 C123.988095,136.461939 123.331796,135.524369 122.056701,135.524369 C121.156634,135.524369 120.444081,135.955651 119.937793,136.593198 L119.937793,141.656075 C120.444081,142.199866 121.081628,142.499888 121.850436,142.499888 C123.144282,142.499888 123.988095,141.487313 123.988095,139.57467 Z" id="b" fill="#8D9EB0"></path>
        <path d="M157.656969,155.618349 C157.656969,156.03088 157.619466,156.443411 157.581963,156.743433 L151.150235,156.743433 C151.187737,158.656075 152.069053,159.499888 153.794181,159.499888 C154.881762,159.499888 155.688072,159.106109 156.45688,158.674827 L157.281941,160.06243 C156.438128,160.699978 155.088028,161.243768 153.64417,161.243768 C150.606444,161.243768 148.881316,159.237369 148.881316,156.537168 L148.881316,155.505841 C148.881316,152.80564 150.568941,150.761738 153.344148,150.761738 C156.0631,150.761738 157.656969,152.449363 157.656969,155.618349 Z M155.575564,155.22457 L155.575564,155.130813 C155.575564,153.405685 154.806757,152.468115 153.362899,152.468115 C151.937793,152.468115 151.187737,153.405685 151.150235,155.22457 L155.575564,155.22457 Z" id="e" fill="#8D9EB0"></path>
        <g id="Group-4-Copy-3" transform="translate(101.076423, 25.666748)" fill="#8D9EB0">
            <rect id="Rectangle-132-Copy" x="0" y="0" width="22.8918458" height="1" rx="0.5"></rect>
            <rect id="Rectangle-132-Copy-2" x="0" y="84" width="22.8918458" height="1" rx="0.5"></rect>
            <g id="Group" transform="translate(1.016614, 1.260951)">
                <g id="triangle" transform="translate(2.184082, 2.484497) rotate(-90.000000) translate(-2.184082, -2.484497) translate(-0.815918, -0.015503)">
                    <path d="M2.88775351,-0.425866237 C2.98755721,-0.684554916 3.15206769,-0.677565105 3.24917468,-0.425866237 L5.40050076,5.1503168 C5.50030446,5.40900548 5.36527212,5.61871408 5.08097484,5.61871408 L1.05595335,5.61871408 C0.779680363,5.61871408 0.639320451,5.40201566 0.736427439,5.1503168 L2.88775351,-0.425866237 Z" id="Triangle-1" transform="translate(3.069450, 2.500722) rotate(90.000000) translate(-3.069450, -2.500722) "></path>
                </g>
                <rect id="Rectangle-134" x="1.68408203" y="2.48449707" width="1" height="29.107701" rx="0.5"></rect>
            </g>
        </g>
        <g id="Group-2" transform="translate(98.407227, 54.960938)" fill="#8D9EB0">
            <path d="M9.57051537,20.5617065 L8.48293439,17.1114496 L3.94509649,17.1114496 L2.95127249,20.5617065 L0.569845163,20.5617065 L4.58264396,7.43572916 L7.78913273,7.43572916 L12.0081969,20.5617065 L9.57051537,20.5617065 Z M6.17651265,9.08585203 L4.47013559,15.2175586 L7.9203925,15.2175586 L6.17651265,9.08585203 Z" id="A"></path>
        </g>
        <g id="Group-4" transform="translate(138.500000, 139.000000) rotate(90.000000) translate(-138.500000, -139.000000) translate(133.500000, 126.500000)" fill="#8D9EB0">
            <path d="M0.664317104,9 L8.32205413,9 L9.67647516,9 C9.85515299,9 10,9.23193359 10,9.5 C10,9.77614237 9.85597211,10 9.67864739,10 L0.66294191,10 C0.485463765,10 0.341589302,9.76806641 0.341589302,9.5 C0.341589302,9.22385763 0.480105213,9 0.664317104,9 Z" id="Rectangle-132-Copy-5"></path>
            <path d="M0.66294191,15 L9.67864739,15 C9.85612554,15 10,15.2319336 10,15.5 C10,15.7761424 9.85597211,16 9.67864739,16 L0.66294191,16 C0.485463765,16 0.341589302,15.7680664 0.341589302,15.5 C0.341589302,15.2238576 0.485617195,15 0.66294191,15 Z" id="Rectangle-132-Copy-6"></path>
            <g id="Group-Copy-2" transform="translate(4.701569, 4.451172) scale(1, -1) translate(-4.701569, -4.451172) translate(2.701569, 0.451172)">
                <g id="triangle" transform="translate(1.915442, 2.484497) rotate(-90.000000) translate(-1.915442, -2.484497) translate(-1.084558, -0.015503)">
                    <path d="M2.88775351,-0.425866237 C2.98755721,-0.684554916 3.15206769,-0.677565105 3.24917468,-0.425866237 L5.40050076,5.1503168 C5.50030446,5.40900548 5.36527212,5.61871408 5.08097484,5.61871408 L1.05595335,5.61871408 C0.779680363,5.61871408 0.639320451,5.40201566 0.736427439,5.1503168 L2.88775351,-0.425866237 Z" id="Triangle-1" transform="translate(3.069450, 2.500722) rotate(90.000000) translate(-3.069450, -2.500722) "></path>
                </g>
                <rect id="Rectangle-134" x="1.41544212" y="2.48449707" width="1" height="4.93155171" rx="0.5"></rect>
            </g>
            <g id="Group-Copy-2" transform="translate(2.617011, 16.451172)">
                <g id="triangle" transform="translate(2.184082, 2.484497) rotate(-90.000000) translate(-2.184082, -2.484497) translate(-0.815918, -0.015503)">
                    <path d="M2.88775351,-0.425866237 C2.98755721,-0.684554916 3.15206769,-0.677565105 3.24917468,-0.425866237 L5.40050076,5.1503168 C5.50030446,5.40900548 5.36527212,5.61871408 5.08097484,5.61871408 L1.05595335,5.61871408 C0.779680363,5.61871408 0.639320451,5.40201566 0.736427439,5.1503168 L2.88775351,-0.425866237 Z" id="Triangle-1" transform="translate(3.069450, 2.500722) rotate(90.000000) translate(-3.069450, -2.500722) "></path>
                </g>
                <rect id="Rectangle-134" x="1.68408203" y="2.48449707" width="1" height="4.93155171" rx="0.5"></rect>
            </g>
        </g>
        <g id="Group-4-Copy" transform="translate(153.500000, 151.500000) rotate(90.000000) translate(-153.500000, -151.500000) translate(137.000000, 136.000000)" fill="#8D9EB0">
            <path d="M0,0.5 C0,0.223857625 0.219483718,0 0.496545095,0 L27.2669436,0 L32.4912295,0 C32.7722157,0 33,0.231933594 33,0.5 L33,0.5 C33,0.776142375 32.771649,1 32.5078983,1 L0.492101714,1 C0.220321442,1 0,0.768066406 0,0.5 L0,0.5 Z" id="Rectangle-132-Copy-5"></path>
            <rect id="Rectangle-132-Copy-6" x="10" y="30" width="23" height="1" rx="0.5"></rect>
            <g id="Group-Copy-2" transform="translate(21.701569, 25.451172) scale(1, -1) translate(-21.701569, -25.451172) translate(19.701569, 21.451172)">
                <g id="triangle" transform="translate(1.915442, 2.484497) rotate(-90.000000) translate(-1.915442, -2.484497) translate(-1.084558, -0.015503)">
                    <path d="M2.88775351,-0.425866237 C2.98755721,-0.684554916 3.15206769,-0.677565105 3.24917468,-0.425866237 L5.40050076,5.1503168 C5.50030446,5.40900548 5.36527212,5.61871408 5.08097484,5.61871408 L1.05595335,5.61871408 C0.779680363,5.61871408 0.639320451,5.40201566 0.736427439,5.1503168 L2.88775351,-0.425866237 Z" id="Triangle-1" transform="translate(3.069450, 2.500722) rotate(90.000000) translate(-3.069450, -2.500722) "></path>
                </g>
                <rect id="Rectangle-134" x="1.41544212" y="2.48449707" width="1" height="4.93155171" rx="0.5"></rect>
            </g>
            <g id="Group-Copy-2" transform="translate(19.617011, 1.000000)">
                <g id="triangle" transform="translate(2.184082, 2.484497) rotate(-90.000000) translate(-2.184082, -2.484497) translate(-0.815918, -0.015503)">
                    <path d="M2.88775351,-0.425866237 C2.98755721,-0.684554916 3.15206769,-0.677565105 3.24917468,-0.425866237 L5.40050076,5.1503168 C5.50030446,5.40900548 5.36527212,5.61871408 5.08097484,5.61871408 L1.05595335,5.61871408 C0.779680363,5.61871408 0.639320451,5.40201566 0.736427439,5.1503168 L2.88775351,-0.425866237 Z" id="Triangle-1" transform="translate(3.069450, 2.500722) rotate(90.000000) translate(-3.069450, -2.500722) "></path>
                </g>
                <rect id="Rectangle-134" x="1.68408203" y="2.48449707" width="1" height="4.93155171" rx="0.5"></rect>
            </g>
        </g>
        <path d="M130,27 L177,27 C179.209139,27 181,28.790861 181,31 L181,106 C181,108.209139 179.209139,110 177,110 L131,110 C128.238576,110 126,107.761424 126,105 L126,31 C126,28.790861 127.790861,27 130,27 Z" id="Rectangle-24" fill="url(#linearGradient-1)" opacity="0.758816964"></path>
    </g>
</svg>