<?xml version="1.0" encoding="UTF-8"?>
<svg width="290px" height="175px" viewBox="0 0 290 175" version="1.1" xmlns="http://www.w3.org/2000/svg" xmlns:xlink="http://www.w3.org/1999/xlink">
    <!-- Generator: Sketch 52.5 (67469) - http://www.bohemiancoding.com/sketch -->
    <title>Radial-LED-Labeled</title>
    <desc>Created with Sketch.</desc>
    <defs>
        <path d="M0.753885872,23 L21.9045248,23 C22.3208845,23 22.6584107,23.2319336 22.6584107,23.5 C22.6584107,23.7761424 22.3205246,24 21.9045248,24 L0.753885872,24 C0.337526202,24 -3.55271368e-15,23.7680664 -3.55271368e-15,23.5 C-3.55271368e-15,23.2238576 0.337886144,23 0.753885872,23 Z" id="path-1"></path>
        <mask id="mask-2" maskContentUnits="userSpaceOnUse" maskUnits="objectBoundingBox" x="0" y="0" width="22.6584107" height="1" fill="white">
            <use xlink:href="#path-1"></use>
        </mask>
        <linearGradient x1="100%" y1="50%" x2="0%" y2="50%" id="linearGradient-3">
            <stop stop-color="#6D6C6C" offset="0%"></stop>
            <stop stop-color="#F8F8F8" offset="49.6884032%"></stop>
            <stop stop-color="#6D6C6C" offset="100%"></stop>
        </linearGradient>
        <linearGradient x1="100%" y1="50%" x2="0%" y2="50%" id="linearGradient-4">
            <stop stop-color="#6D6C6C" offset="0%"></stop>
            <stop stop-color="#FFFFFF" offset="49.6884032%"></stop>
            <stop stop-color="#6D6C6C" offset="100%"></stop>
        </linearGradient>
    </defs>
    <g id="Radial-LED-Labeled" stroke="none" stroke-width="1" fill="none" fill-rule="evenodd">
        <rect x="0" y="0" width="290" height="175"></rect>
        <g id="Group-5-Copy" transform="translate(58.000000, 25.000000)">
            <g id="Group-6">
                <g id="Group" transform="translate(30.000000, 85.000000)" fill="#D8D8D8" stroke="#979797">
                    <path d="M-5.82021141,6.83325159 L-5.83180082,10.8332516 L-1,10.8332516 L8.02825928,10.8332516 L10.8332516,10.8332516 L10.8332516,6.83325159 L-5.82021141,6.83325159 Z" id="Rectangle-7" transform="translate(2.500000, 8.833252) rotate(90.000000) translate(-2.500000, -8.833252) "></path>
                    <path d="M110.179789,6.83325159 L110.168199,10.8332516 L115,10.8332516 L124.028259,10.8332516 L126.833252,10.8332516 L126.833252,6.83325159 L110.179789,6.83325159 Z" id="Rectangle-7-Copy" transform="translate(118.500000, 8.833252) rotate(90.000000) translate(-118.500000, -8.833252) "></path>
                    <path d="M139.179789,6.83325159 L139.168199,10.8332516 L144,10.8332516 L153.028259,10.8332516 L155.833252,10.8332516 L155.833252,6.83325159 L139.179789,6.83325159 Z" id="Rectangle-7-Copy-2" transform="translate(147.500000, 8.833252) rotate(90.000000) translate(-147.500000, -8.833252) "></path>
                </g>
                <g id="Group-2" fill="#6D6C6C">
                    <path d="M32.5201805,0 L32.5201805,0 C48.2714413,-2.89345966e-15 61.0403611,12.7689198 61.0403611,28.5201805 L61.0403611,76.1123384 L64,76.1123384 C64.5522847,76.1123384 65,76.5600537 65,77.1123384 L65,83.6522617 C65,84.2045464 64.5522847,84.6522617 64,84.6522617 L1,84.6522617 C0.44771525,84.6522617 6.76353751e-17,84.2045464 0,83.6522617 L5.68434189e-14,77 C5.67757835e-14,76.4477153 0.44771525,76 1,76 L4,76 L4,28.5201805 C4,12.7689198 16.7689198,2.89345966e-15 32.5201805,0 Z" id="Rectangle-9"></path>
                </g>
            </g>
        </g>
        <g id="Group-5-Copy-2" transform="translate(189.000000, 25.000000)" fill="#6D6C6C">
            <g id="Group-6">
                <g id="Group-2">
                    <path d="M32.5201805,0 L32.5201805,0 C48.2714413,-2.89345966e-15 61.0403611,12.7689198 61.0403611,28.5201805 L61.0403611,76.1123384 L64,76.1123384 C64.5522847,76.1123384 65,76.5600537 65,77.1123384 L65,83.6522617 C65,84.2045464 64.5522847,84.6522617 64,84.6522617 L1,84.6522617 C0.44771525,84.6522617 6.76353751e-17,84.2045464 0,83.6522617 L5.68434189e-14,77 C5.67757835e-14,76.4477153 0.44771525,76 1,76 L4,76 L4,28.5201805 C4,12.7689198 16.7689198,2.89345966e-15 32.5201805,0 Z" id="Rectangle-9"></path>
                </g>
            </g>
        </g>
        <path d="M91.2940697,9 C94.856835,9 96.6382177,11.1001564 96.6382177,14.250391 L96.6382177,16.5755641 C96.6382177,19.9883182 94.6130669,22.1259774 90.8252848,22.1259774 L87,22.1259774 L87,9 L91.2940697,9 Z M94.2755418,16.6130669 L94.2755418,14.1941368 C94.2755418,12.0564776 93.2629664,10.8188854 91.1815614,10.8188854 L89.3626759,10.8188854 L89.3626759,20.3070919 L90.8440362,20.3070919 C93.1317066,20.3070919 94.2755418,19.1070026 94.2755418,16.6130669 Z" id="D-Copy" fill="#8D9EB0"></path>
        <path d="M123,7.49044323 C123,7.21957891 123.231934,7 123.5,7 L123.5,7 C123.776142,7 124,7.21494281 124,7.49044323 L124,23.5095568 C124,23.7804211 123.768066,24 123.5,24 L123.5,24 C123.223858,24 123,23.7850572 123,23.5095568 L123,7.49044323 Z" id="Rectangle-93-Copy" fill="#8D9EB0"></path>
        <path d="M56,7.50403339 C56,7.22566344 56.2319336,7 56.5,7 L56.5,7 C56.7761424,7 57,7.22089887 57,7.50403339 L57,23.9670359 C57,24.2454059 56.7680664,24.4710693 56.5,24.4710693 L56.5,24.4710693 C56.2238576,24.4710693 56,24.2501705 56,23.9670359 L56,7.50403339 Z" id="Rectangle-93-Copy-2" fill="#8D9EB0"></path>
        <g id="left-arrow-copy" transform="translate(57.000000, 14.000000)" fill="#8D9EB0">
            <g id="triangle" transform="translate(3.000000, 2.500000) scale(-1, 1) translate(-3.000000, -2.500000) ">
                <path d="M2.88775351,-0.425866237 C2.98755721,-0.684554916 3.15206769,-0.677565105 3.24917468,-0.425866237 L5.40050076,5.1503168 C5.50030446,5.40900548 5.36527212,5.61871408 5.08097484,5.61871408 L1.05595335,5.61871408 C0.779680363,5.61871408 0.639320451,5.40201566 0.736427439,5.1503168 L2.88775351,-0.425866237 Z" id="Triangle-1" transform="translate(3.069450, 2.500722) rotate(90.000000) translate(-3.069450, -2.500722) "></path>
            </g>
            <path d="M5,2.39596207 C5,2.11622249 5.22620515,1.88944875 5.49717364,1.88944875 L22.3935734,1.88944875 C22.6681548,1.88944875 22.8907471,2.10428865 22.8907471,2.39596207 L22.8907471,2.3092346 C22.8907471,2.58897418 22.6645419,2.81574792 22.3935734,2.81574792 L5.49717364,2.81574792 C5.22259222,2.81574792 5,2.60090803 5,2.3092346 L5,2.39596207 Z" id="Rectangle-144"></path>
        </g>
        <g id="left-arrow-copy-2" transform="translate(113.500000, 16.500000) scale(-1, 1) translate(-113.500000, -16.500000) translate(104.000000, 14.000000)" fill="#8D9EB0">
            <g id="triangle" transform="translate(3.000000, 2.500000) scale(-1, 1) translate(-3.000000, -2.500000) ">
                <path d="M2.88775351,-0.425866237 C2.98755721,-0.684554916 3.15206769,-0.677565105 3.24917468,-0.425866237 L5.40050076,5.1503168 C5.50030446,5.40900548 5.36527212,5.61871408 5.08097484,5.61871408 L1.05595335,5.61871408 C0.779680363,5.61871408 0.639320451,5.40201566 0.736427439,5.1503168 L2.88775351,-0.425866237 Z" id="Triangle-1" transform="translate(3.069450, 2.500722) rotate(90.000000) translate(-3.069450, -2.500722) "></path>
            </g>
            <path d="M5,2.39596207 C5,2.11622249 5.21990657,1.88944875 5.49826741,1.88944875 L18.5017326,1.88944875 C18.7769181,1.88944875 19,2.10428865 19,2.39596207 L19,2.3092346 C19,2.58897418 18.7800934,2.81574792 18.5017326,2.81574792 L5.49826741,2.81574792 C5.22308192,2.81574792 5,2.60090803 5,2.3092346 L5,2.39596207 Z" id="Rectangle-144"></path>
        </g>
        <g id="Group-5" transform="translate(144.000000, 93.500000) scale(1, -1) translate(-144.000000, -93.500000) translate(141.000000, 77.000000)" fill="#8D9EB0">
            <g id="triangle" transform="translate(3.277118, 4.412196) rotate(-90.000000) translate(-3.277118, -4.412196) translate(-0.722882, 1.912196)">
                <path d="M3.88775351,-0.425866237 C3.98755721,-0.684554916 4.15206769,-0.677565105 4.24917468,-0.425866237 L6.40050076,5.1503168 C6.50030446,5.40900548 6.36527212,5.61871408 6.08097484,5.61871408 L2.05595335,5.61871408 C1.77968036,5.61871408 1.63932045,5.40201566 1.73642744,5.1503168 L3.88775351,-0.425866237 Z" id="Triangle-1" transform="translate(4.069450, 2.500722) rotate(90.000000) translate(-4.069450, -2.500722) "></path>
            </g>
            <path d="M2.77711804,4.92209086 C2.77711804,4.64048395 3.00905164,4.41219643 3.27711804,4.41219643 L3.27711804,4.41219643 C3.55326042,4.41219643 3.77711804,4.63758085 3.77711804,4.92209086 L3.77711804,31.902302 C3.77711804,32.1839089 3.54518445,32.4121964 3.27711804,32.4121964 L3.27711804,32.4121964 C3.00097567,32.4121964 2.77711804,32.186812 2.77711804,31.902302 L2.77711804,4.92209086 Z" id="Rectangle-134"></path>
        </g>
        <path d="M218.912866,127.637771 C221.200536,127.637771 222.700648,129.475408 222.700648,132.363123 L222.700648,133.375698 C222.700648,136.132153 220.919265,138.119801 218.631595,138.119801 C217.562765,138.119801 216.700201,137.726022 216.006399,137.013469 L215.818885,137.876033 L214,137.876033 L214,124 L216.325173,124 L216.325173,128.669098 C216.962721,128.012799 217.825285,127.637771 218.912866,127.637771 Z M220.375475,133.450704 L220.375475,132.288117 C220.375475,130.337972 219.719176,129.400402 218.444081,129.400402 C217.544014,129.400402 216.831461,129.831684 216.325173,130.469232 L216.325173,135.532109 C216.831461,136.075899 217.469008,136.375922 218.237816,136.375922 C219.531662,136.375922 220.375475,135.363346 220.375475,133.450704 Z" id="b" fill="#8D9EB0"></path>
        <path d="M224.775653,154.856612 C224.775653,155.269142 224.738151,155.681673 224.700648,155.981695 L218.268919,155.981695 C218.306422,157.894338 219.187737,158.738151 220.912866,158.738151 C222.000447,158.738151 222.806757,158.344371 223.575564,157.913089 L224.400626,159.300693 C223.556813,159.93824 222.206712,160.482031 220.762855,160.482031 C217.725128,160.482031 216,158.475631 216,155.77543 L216,154.744103 C216,152.043902 217.687626,150 220.462832,150 C223.181785,150 224.775653,151.687626 224.775653,154.856612 Z M222.694248,154.462832 L222.694248,154.369075 C222.694248,152.643947 221.925441,151.706377 220.481584,151.706377 C219.056478,151.706377 218.306422,152.643947 218.268919,154.462832 L222.694248,154.462832 Z" id="e" fill="#8D9EB0"></path>
        <g id="Group-4-Copy-3" transform="translate(141.000000, 24.000000)" fill="#8D9EB0">
            <path d="M0,1.5 C0,1.22385763 0.224181932,1 0.505443439,1 L47.3864024,1 C47.6655511,1 47.8918458,1.23193359 47.8918458,1.5 L47.8918458,1.5 C47.8918458,1.77614237 47.6676639,2 47.3864024,2 L0.505443439,2 C0.226294736,2 0,1.76806641 0,1.5 L0,1.5 Z" id="Rectangle-132-Copy"></path>
            <path d="M0,85.5 C0,85.2238576 0.226936621,85 0.495837761,85 L11.396008,85 C11.6698517,85 11.8918458,85.2319336 11.8918458,85.5 L11.8918458,85.5 C11.8918458,85.7761424 11.6649092,86 11.396008,86 L0.495837761,86 C0.221994127,86 0,85.7680664 0,85.5 L0,85.5 Z" id="Rectangle-132-Copy-2"></path>
            <g id="Group" transform="translate(0.016614, 0.260951)">
                <g id="triangle" transform="translate(3.184082, 4.484497) rotate(-90.000000) translate(-3.184082, -4.484497) translate(-0.815918, 1.984497)">
                    <path d="M3.88775351,-0.425866237 C3.98755721,-0.684554916 4.15206769,-0.677565105 4.24917468,-0.425866237 L6.40050076,5.1503168 C6.50030446,5.40900548 6.36527212,5.61871408 6.08097484,5.61871408 L2.05595335,5.61871408 C1.77968036,5.61871408 1.63932045,5.40201566 1.73642744,5.1503168 L3.88775351,-0.425866237 Z" id="Triangle-1" transform="translate(4.069450, 2.500722) rotate(90.000000) translate(-4.069450, -2.500722) "></path>
                </g>
                <path d="M2.68408203,4.9943915 C2.68408203,4.71278458 2.91601562,4.48449707 3.18408203,4.48449707 L3.18408203,4.48449707 C3.46022441,4.48449707 3.68408203,4.70988148 3.68408203,4.9943915 L3.68408203,31.9746026 C3.68408203,32.2562096 3.45214844,32.4844971 3.18408203,32.4844971 L3.18408203,32.4844971 C2.90793966,32.4844971 2.68408203,32.2591127 2.68408203,31.9746026 L2.68408203,4.9943915 Z" id="Rectangle-134"></path>
            </g>
        </g>
        <g id="Group-2" transform="translate(138.000000, 53.000000)" fill="#8D9EB0">
            <path d="M9.57051537,20.5617065 L8.48293439,17.1114496 L3.94509649,17.1114496 L2.95127249,20.5617065 L0.569845163,20.5617065 L4.58264396,7.43572916 L7.78913273,7.43572916 L12.0081969,20.5617065 L9.57051537,20.5617065 Z M6.17651265,9.08585203 L4.47013559,15.2175586 L7.9203925,15.2175586 L6.17651265,9.08585203 Z" id="A"></path>
        </g>
        <g id="Group-4" transform="translate(235.500000, 133.000000) rotate(90.000000) translate(-235.500000, -133.000000) translate(230.500000, 120.500000)" fill="#8D9EB0">
            <path d="M0.664317104,9 L8.32205413,9 L9.67647516,9 C9.85515299,9 10,9.23193359 10,9.5 C10,9.77614237 9.85597211,10 9.67864739,10 L0.66294191,10 C0.485463765,10 0.341589302,9.76806641 0.341589302,9.5 C0.341589302,9.22385763 0.480105213,9 0.664317104,9 Z" id="Rectangle-132-Copy-5"></path>
            <path d="M0.66294191,15 L9.67864739,15 C9.85612554,15 10,15.2319336 10,15.5 C10,15.7761424 9.85597211,16 9.67864739,16 L0.66294191,16 C0.485463765,16 0.341589302,15.7680664 0.341589302,15.5 C0.341589302,15.2238576 0.485617195,15 0.66294191,15 Z" id="Rectangle-132-Copy-6"></path>
            <g id="Group-Copy-2" transform="translate(4.701569, 5.451172) scale(1, -1) translate(-4.701569, -5.451172) translate(1.701569, 0.451172)">
                <g id="triangle" transform="translate(2.915442, 4.484497) rotate(-90.000000) translate(-2.915442, -4.484497) translate(-1.084558, 1.984497)">
                    <path d="M3.88775351,-0.425866237 C3.98755721,-0.684554916 4.15206769,-0.677565105 4.24917468,-0.425866237 L6.40050076,5.1503168 C6.50030446,5.40900548 6.36527212,5.61871408 6.08097484,5.61871408 L2.05595335,5.61871408 C1.77968036,5.61871408 1.63932045,5.40201566 1.73642744,5.1503168 L3.88775351,-0.425866237 Z" id="Triangle-1" transform="translate(4.069450, 2.500722) rotate(90.000000) translate(-4.069450, -2.500722) "></path>
                </g>
                <path d="M2.41544212,4.97538253 C2.41544212,4.70427398 2.64737571,4.48449707 2.91544212,4.48449707 L2.91544212,4.48449707 C3.1915845,4.48449707 3.41544212,4.70921032 3.41544212,4.97538253 L3.41544212,8.92516333 C3.41544212,9.19627188 3.18350853,9.41604878 2.91544212,9.41604878 L2.91544212,9.41604878 C2.63929975,9.41604878 2.41544212,9.19133553 2.41544212,8.92516333 L2.41544212,4.97538253 Z" id="Rectangle-134"></path>
            </g>
            <g id="Group-Copy-2" transform="translate(1.617011, 14.451172)">
                <g id="triangle" transform="translate(3.184082, 4.484497) rotate(-90.000000) translate(-3.184082, -4.484497) translate(-0.815918, 1.984497)">
                    <path d="M3.88775351,-0.425866237 C3.98755721,-0.684554916 4.15206769,-0.677565105 4.24917468,-0.425866237 L6.40050076,5.1503168 C6.50030446,5.40900548 6.36527212,5.61871408 6.08097484,5.61871408 L2.05595335,5.61871408 C1.77968036,5.61871408 1.63932045,5.40201566 1.73642744,5.1503168 L3.88775351,-0.425866237 Z" id="Triangle-1" transform="translate(4.069450, 2.500722) rotate(90.000000) translate(-4.069450, -2.500722) "></path>
                </g>
                <path d="M2.68408203,4.97538253 C2.68408203,4.70427398 2.91601562,4.48449707 3.18408203,4.48449707 L3.18408203,4.48449707 C3.46022441,4.48449707 3.68408203,4.70921032 3.68408203,4.97538253 L3.68408203,8.92516333 C3.68408203,9.19627188 3.45214844,9.41604878 3.18408203,9.41604878 L3.18408203,9.41604878 C2.90793966,9.41604878 2.68408203,9.19133553 2.68408203,8.92516333 L2.68408203,4.97538253 Z" id="Rectangle-134"></path>
            </g>
        </g>
        <g id="Group-4-Copy-2" transform="translate(90.000000, 133.000000) rotate(90.000000) translate(-90.000000, -133.000000) translate(85.000000, 121.000000)" fill="#8D9EB0">
            <path d="M0.664317104,9 L8.32205413,9 L9.67647516,9 C9.85515299,9 10,9.23193359 10,9.5 C10,9.77614237 9.85597211,10 9.67864739,10 L0.66294191,10 C0.485463765,10 0.341589302,9.76806641 0.341589302,9.5 C0.341589302,9.22385763 0.480105213,9 0.664317104,9 Z" id="Rectangle-132-Copy-5"></path>
            <path d="M0.66294191,14 L9.67864739,14 C9.85612554,14 10,14.2319336 10,14.5 C10,14.7761424 9.85597211,15 9.67864739,15 L0.66294191,15 C0.485463765,15 0.341589302,14.7680664 0.341589302,14.5 C0.341589302,14.2238576 0.485617195,14 0.66294191,14 Z" id="Rectangle-132-Copy-6"></path>
            <g id="Group-Copy-2" transform="translate(4.701569, 4.451172) scale(1, -1) translate(-4.701569, -4.451172) translate(2.701569, 0.451172)">
                <g id="triangle" transform="translate(1.915442, 2.484497) rotate(-90.000000) translate(-1.915442, -2.484497) translate(-1.084558, -0.015503)">
                    <path d="M2.88775351,-0.425866237 C2.98755721,-0.684554916 3.15206769,-0.677565105 3.24917468,-0.425866237 L5.40050076,5.1503168 C5.50030446,5.40900548 5.36527212,5.61871408 5.08097484,5.61871408 L1.05595335,5.61871408 C0.779680363,5.61871408 0.639320451,5.40201566 0.736427439,5.1503168 L2.88775351,-0.425866237 Z" id="Triangle-1" transform="translate(3.069450, 2.500722) rotate(90.000000) translate(-3.069450, -2.500722) "></path>
                </g>
                <path d="M1.41544212,2.97538253 C1.41544212,2.70427398 1.64737571,2.48449707 1.91544212,2.48449707 L1.91544212,2.48449707 C2.1915845,2.48449707 2.41544212,2.70921032 2.41544212,2.97538253 L2.41544212,6.92516333 C2.41544212,7.19627188 2.18350853,7.41604878 1.91544212,7.41604878 L1.91544212,7.41604878 C1.63929975,7.41604878 1.41544212,7.19133553 1.41544212,6.92516333 L1.41544212,2.97538253 Z" id="Rectangle-134"></path>
            </g>
            <g id="Group-Copy-2" transform="translate(2.617011, 15.451172)">
                <g id="triangle" transform="translate(2.184082, 2.484497) rotate(-90.000000) translate(-2.184082, -2.484497) translate(-0.815918, -0.015503)">
                    <path d="M2.88775351,-0.425866237 C2.98755721,-0.684554916 3.15206769,-0.677565105 3.24917468,-0.425866237 L5.40050076,5.1503168 C5.50030446,5.40900548 5.36527212,5.61871408 5.08097484,5.61871408 L1.05595335,5.61871408 C0.779680363,5.61871408 0.639320451,5.40201566 0.736427439,5.1503168 L2.88775351,-0.425866237 Z" id="Triangle-1" transform="translate(3.069450, 2.500722) rotate(90.000000) translate(-3.069450, -2.500722) "></path>
                </g>
                <path d="M1.68408203,2.97538253 C1.68408203,2.70427398 1.91601562,2.48449707 2.18408203,2.48449707 L2.18408203,2.48449707 C2.46022441,2.48449707 2.68408203,2.70921032 2.68408203,2.97538253 L2.68408203,6.92516333 C2.68408203,7.19627188 2.45214844,7.41604878 2.18408203,7.41604878 L2.18408203,7.41604878 C1.90793966,7.41604878 1.68408203,7.19133553 1.68408203,6.92516333 L1.68408203,2.97538253 Z" id="Rectangle-134"></path>
            </g>
        </g>
        <g id="Group-4-Copy-4" transform="translate(179.000000, 100.000000)">
            <path d="M0.322727802,9 L7.98046483,9 L9.33488586,9 C9.51356369,9 9.6584107,9.23193359 9.6584107,9.5 C9.6584107,9.77614237 9.51438281,10 9.33705809,10 L0.321352608,10 C0.143874463,10 0,9.76806641 0,9.5 C0,9.22385763 0.138515911,9 0.322727802,9 Z" id="Rectangle-132-Copy-5" fill="#8D9EB0"></path>
            <use id="Rectangle-132-Copy-6" stroke="#8D9EB0" mask="url(#mask-2)" stroke-width="2" stroke-dasharray="3,5" xlink:href="#path-1"></use>
            <g id="Group-Copy-2" transform="translate(4.000000, 28.000000) scale(1, -1) translate(-4.000000, -28.000000) translate(1.000000, 23.000000)" fill="#8D9EB0">
                <g id="triangle" transform="translate(2.915442, 4.984497) rotate(-90.000000) translate(-2.915442, -4.984497) translate(-1.584558, 2.484497)">
                    <g id="Group-3" transform="translate(4.500000, 2.500000) rotate(180.000000) translate(-4.500000, -2.500000) translate(0.000000, -0.000000)">
                        <path d="M4.88775351,-0.425866237 C4.98755721,-0.684554916 5.15206769,-0.677565105 5.24917468,-0.425866237 L7.40050076,5.1503168 C7.50030446,5.40900548 7.36527212,5.61871408 7.08097484,5.61871408 L3.05595335,5.61871408 C2.77968036,5.61871408 2.63932045,5.40201566 2.73642744,5.1503168 L4.88775351,-0.425866237 Z" id="Triangle-1" transform="translate(5.069450, 2.500722) rotate(90.000000) translate(-5.069450, -2.500722) "></path>
                        <path d="M2.03422414,0.525109601 C2.03422414,0.254001048 2.26615774,0.0342241427 2.53422414,0.0342241427 L2.53422414,0.0342241427 C2.81036652,0.0342241427 3.03422414,0.258937396 3.03422414,0.525109601 L3.03422414,4.4748904 C3.03422414,4.74599895 2.80229055,4.96577586 2.53422414,4.96577586 L2.53422414,4.96577586 C2.25808177,4.96577586 2.03422414,4.7410626 2.03422414,4.4748904 L2.03422414,0.525109601 Z" id="Rectangle-134" transform="translate(2.534224, 2.500000) rotate(90.000000) translate(-2.534224, -2.500000) "></path>
                    </g>
                </g>
            </g>
            <g id="Group-Copy-3" transform="translate(4.000000, 5.000000) scale(1, -1) rotate(180.000000) translate(-4.000000, -5.000000) translate(1.000000, 0.000000)" fill="#8D9EB0">
                <g id="triangle" transform="translate(2.915442, 4.984497) rotate(-90.000000) translate(-2.915442, -4.984497) translate(-1.584558, 2.484497)">
                    <g id="Group-3" transform="translate(4.500000, 2.500000) rotate(180.000000) translate(-4.500000, -2.500000) translate(0.000000, -0.000000)">
                        <path d="M4.88775351,-0.425866237 C4.98755721,-0.684554916 5.15206769,-0.677565105 5.24917468,-0.425866237 L7.40050076,5.1503168 C7.50030446,5.40900548 7.36527212,5.61871408 7.08097484,5.61871408 L3.05595335,5.61871408 C2.77968036,5.61871408 2.63932045,5.40201566 2.73642744,5.1503168 L4.88775351,-0.425866237 Z" id="Triangle-1" transform="translate(5.069450, 2.500722) rotate(90.000000) translate(-5.069450, -2.500722) "></path>
                        <path d="M2.03422414,0.525109601 C2.03422414,0.254001048 2.26615774,0.0342241427 2.53422414,0.0342241427 L2.53422414,0.0342241427 C2.81036652,0.0342241427 3.03422414,0.258937396 3.03422414,0.525109601 L3.03422414,4.4748904 C3.03422414,4.74599895 2.80229055,4.96577586 2.53422414,4.96577586 L2.53422414,4.96577586 C2.25808177,4.96577586 2.03422414,4.7410626 2.03422414,4.4748904 L2.03422414,0.525109601 Z" id="Rectangle-134" transform="translate(2.534224, 2.500000) rotate(90.000000) translate(-2.534224, -2.500000) "></path>
                    </g>
                </g>
            </g>
        </g>
        <g id="Group-4-Copy" transform="translate(220.500000, 147.500000) rotate(90.000000) translate(-220.500000, -147.500000) translate(201.000000, 132.000000)" fill="#8D9EB0">
            <path d="M0,0.5 C0,0.223857625 0.222985216,1.02318154e-12 0.506171038,1.02318154e-12 L32.2245697,1.02318154e-12 L38.4907415,1.02318154e-12 C38.7719972,1.02318154e-12 39,0.231933594 39,0.5 L39,0.5 C39,0.776142375 38.7709677,1 38.5068959,1 L0.4931041,1 C0.220770226,1 0,0.768066406 0,0.5 L0,0.5 Z" id="Rectangle-132-Copy-5"></path>
            <path d="M0,29.5 C0,29.2238576 0.229032263,29 0.4931041,29 L38.5068959,29 C38.7792298,29 39,29.2319336 39,29.5 L39,29.5 C39,29.7761424 38.7709677,30 38.5068959,30 L0.4931041,30 C0.220770226,30 0,29.7680664 0,29.5 L0,29.5 Z" id="Rectangle-132-Copy-6"></path>
            <g id="Group-Copy-2" transform="translate(27.701569, 25.451172) scale(1, -1) translate(-27.701569, -25.451172) translate(24.701569, 20.451172)">
                <g id="triangle" transform="translate(2.915442, 4.484497) rotate(-90.000000) translate(-2.915442, -4.484497) translate(-1.084558, 1.984497)">
                    <path d="M3.88775351,-0.425866237 C3.98755721,-0.684554916 4.15206769,-0.677565105 4.24917468,-0.425866237 L6.40050076,5.1503168 C6.50030446,5.40900548 6.36527212,5.61871408 6.08097484,5.61871408 L2.05595335,5.61871408 C1.77968036,5.61871408 1.63932045,5.40201566 1.73642744,5.1503168 L3.88775351,-0.425866237 Z" id="Triangle-1" transform="translate(4.069450, 2.500722) rotate(90.000000) translate(-4.069450, -2.500722) "></path>
                </g>
                <path d="M2.41544212,4.97538253 C2.41544212,4.70427398 2.64737571,4.48449707 2.91544212,4.48449707 L2.91544212,4.48449707 C3.1915845,4.48449707 3.41544212,4.70921032 3.41544212,4.97538253 L3.41544212,8.92516333 C3.41544212,9.19627188 3.18350853,9.41604878 2.91544212,9.41604878 L2.91544212,9.41604878 C2.63929975,9.41604878 2.41544212,9.19133553 2.41544212,8.92516333 L2.41544212,4.97538253 Z" id="Rectangle-134"></path>
            </g>
            <g id="Group-Copy-2" transform="translate(25.617011, 2.000000)">
                <g id="triangle" transform="translate(2.184082, 2.484497) rotate(-90.000000) translate(-2.184082, -2.484497) translate(-0.815918, -0.015503)">
                    <path d="M2.88775351,-0.425866237 C2.98755721,-0.684554916 3.15206769,-0.677565105 3.24917468,-0.425866237 L5.40050076,5.1503168 C5.50030446,5.40900548 5.36527212,5.61871408 5.08097484,5.61871408 L1.05595335,5.61871408 C0.779680363,5.61871408 0.639320451,5.40201566 0.736427439,5.1503168 L2.88775351,-0.425866237 Z" id="Triangle-1" transform="translate(3.069450, 2.500722) rotate(90.000000) translate(-3.069450, -2.500722) "></path>
                </g>
                <path d="M1.68408203,2.97538253 C1.68408203,2.70427398 1.91601562,2.48449707 2.18408203,2.48449707 L2.18408203,2.48449707 C2.46022441,2.48449707 2.68408203,2.70921032 2.68408203,2.97538253 L2.68408203,6.92516333 C2.68408203,7.19627188 2.45214844,7.41604878 2.18408203,7.41604878 L2.18408203,7.41604878 C1.90793966,7.41604878 1.68408203,7.19133553 1.68408203,6.92516333 L1.68408203,2.97538253 Z" id="Rectangle-134"></path>
            </g>
        </g>
        <path d="M90.5,26 L90.5,26 C105.687831,26 118,38.3121694 118,53.5 L118,105 C118,107.209139 116.209139,109 114,109 L68,109 C65.2385763,109 63,106.761424 63,104 L63,53.5 C63,38.3121694 75.3121694,26 90.5,26 Z" id="Rectangle-24-Copy" fill="url(#linearGradient-3)" opacity="0.758816964"></path>
        <path d="M221.5,26 L221.5,26 C236.687831,26 249,38.3121694 249,53.5 L249,105 C249,107.209139 247.209139,109 245,109 L199,109 C196.238576,109 194,106.761424 194,104 L194,53.5 C194,38.3121694 206.312169,26 221.5,26 Z" id="Rectangle-24-Copy-2" fill="url(#linearGradient-4)" opacity="0.758816964"></path>
        <path d="M74.5378379,138.482031 C71.6688743,138.482031 70,136.550637 70,133.662922 L70,132.819109 C70,129.931394 71.6313715,128 74.5753407,128 C75.9254412,128 76.956768,128.431282 77.8755864,129.312598 L76.7692541,130.55019 C76.150458,130.006399 75.5504133,129.762631 74.6690977,129.762631 C73.2064888,129.762631 72.3251731,130.737704 72.3251731,132.781606 L72.3251731,133.700424 C72.3251731,135.725575 73.1502346,136.738151 74.6503463,136.738151 C75.5691647,136.738151 76.2254636,136.363123 76.8442596,135.931841 L77.8005808,137.300693 C76.9755194,137.994494 75.7379273,138.482031 74.5378379,138.482031 Z" id="c" fill="#8D9EB0"></path>
        <path d="M62.5,101.5 L118.629351,101.5" id="Line-4" stroke="#6D6C6C" stroke-linecap="square" fill-rule="nonzero"></path>
        <path d="M193.5,101.5 L249.629351,101.5" id="Line-4-Copy" stroke="#6D6C6C" stroke-linecap="square" fill-rule="nonzero"></path>
        <path d="M166.00067,122.125977 L164.913089,118.67572 L160.375251,118.67572 L159.381427,122.125977 L157,122.125977 L161.012799,109 L164.219288,109 L168.438352,122.125977 L166.00067,122.125977 Z M162.606667,110.650123 L160.90029,116.781829 L164.350547,116.781829 L162.606667,110.650123 Z M174.813826,120.344595 L177.120248,120.344595 L177.120248,122.125977 L169.844706,122.125977 L169.844706,120.344595 L172.526156,120.344595 L172.526156,111.55019 L170.257237,112.675274 L169.394673,111.137659 L173.069947,109 L174.813826,109 L174.813826,120.344595 Z" id="A1" fill="#8D9EB0"></path>
    </g>
</svg>
