<?xml version="1.0" encoding="UTF-8"?>
<svg width="290px" height="175px" viewBox="0 0 290 175" version="1.1" xmlns="http://www.w3.org/2000/svg" xmlns:xlink="http://www.w3.org/1999/xlink">
    <!-- Generator: Sketch 63.1 (92452) - https://sketch.com -->
    <title>Snap-Lock-Labeled</title>
    <desc>Created with Sketch.</desc>
    <g id="Snap-Lock-Labeled" stroke="none" stroke-width="1" fill="none" fill-rule="evenodd">
        <g id="Group-13" transform="translate(45.000000, 13.000000)">
            <g id="Snap-Lock" stroke="#979797">
                <g id="snap" transform="translate(135.000000, 21.000000)" fill="#D8D8D8">
                    <path d="M4.80952381,107.522124 L4.80952381,97.4867257 L8.42857143,97.4867257 L8.42857143,95.5752212 L3,95.5752212 L8.42857143,95.5752212 L10.2380952,92.7079646 L10.2380952,97.4867257 L3,97.4867257 L3,95.5752212 L5.71428571,88.8849558 L10.2380952,88.8849558 L10.2380952,104.176991 C10.2380952,105.49661 11.2507845,106.566372 12.5,106.566372 C13.7492155,106.566372 14.7619048,105.49661 14.7619048,104.176991 L14.7619048,88.8849558 L19.2857143,88.8849558 L22,95.5752212 L22,97.4867257 L14.7619048,97.4867257 L14.7619048,92.7079646 L16.5714286,95.5752212 L22,95.5752212 L16.5714286,95.5752212 L16.5714286,97.4867257 L20.1904762,97.4867257 L20.1904762,107.522124" id="Path" transform="translate(12.500000, 98.203540) scale(1, -1) translate(-12.500000, -98.203540) "></path>
                    <path d="M4.80952381,19.1150442 L4.80952381,9.55752212 L8.42857143,9.55752212 L8.42857143,7.6460177 L3,7.6460177 L8.42857143,7.6460177 L10.2380952,4.77876106 L10.2380952,9.55752212 L3,9.55752212 L3,7.6460177 L5.71428571,0.955752212 L10.2380952,0.955752212 L10.2380952,16.2477876 C10.2380952,17.567406 11.2507845,18.6371681 12.5,18.6371681 C13.7492155,18.6371681 14.7619048,17.567406 14.7619048,16.2477876 L14.7619048,0.955752212 L19.2857143,0.955752212 L22,7.6460177 L22,9.55752212 L14.7619048,9.55752212 L14.7619048,4.77876106 L16.5714286,7.6460177 L22,7.6460177 L16.5714286,7.6460177 L16.5714286,9.55752212 L20.1904762,9.55752212 L20.1904762,14.3362832 L20.1904762,19.1150442" id="Path-2"></path>
                    <rect id="Rectangle" x="0" y="18.6371681" width="25" height="70.7256637"></rect>
                </g>
                <g id="NPTH" transform="translate(18.000000, 43.000000)">
                    <g id="hole" transform="translate(32.500000, 31.500000) scale(-1, 1) translate(-32.500000, -31.500000) translate(16.000000, 15.000000)">
                        <circle id="Oval" cx="16.5428571" cy="16.5428571" r="12.3285714"></circle>
                    </g>
                </g>
            </g>
            <path d="M148.716,138.492 C150.912,138.492 152.352,140.256 152.352,143.028 L152.352,144 C152.352,146.646 150.642,148.554 148.446,148.554 C147.42,148.554 146.592,148.176 145.926,147.492 L145.746,148.32 L144,148.32 L144,135 L146.232,135 L146.232,139.482 C146.844,138.852 147.672,138.492 148.716,138.492 Z M150.12,144.072 L150.12,142.956 C150.12,141.084 149.49,140.184 148.266,140.184 C147.402,140.184 146.718,140.598 146.232,141.21 L146.232,146.07 C146.718,146.592 147.33,146.88 148.068,146.88 C149.31,146.88 150.12,145.908 150.12,144.072 Z" id="b" fill="#8D9EB0" fill-rule="nonzero"></path>
            <g id="Dimensions" transform="translate(110.000000, 3.000000)">
                <g id="Group-12" transform="translate(-0.000000, 0.000000)">
                    <g id="Group-3" transform="translate(15.000000, 0.000000)">
                        <g id="Group-2" transform="translate(9.000000, 62.000000)">
                            <g id="Group" transform="translate(19.000000, 0.000000)">
                                <g id="left-arrow-copy-3" transform="translate(3.500000, 9.500000) scale(-1, 1) translate(-3.500000, -9.500000) translate(0.000000, 7.000000)" fill="#8D9EB0">
                                    <g id="triangle" transform="translate(3.500000, 2.500000) scale(-1, 1) translate(-3.500000, -2.500000) ">
                                        <path d="M3.18837953,-0.425866237 C3.28818323,-0.684554916 3.45269371,-0.677565105 3.5498007,-0.425866237 L5.70112678,5.1503168 C5.80093048,5.40900548 5.66589814,5.61871408 5.38160086,5.61871408 L1.35657937,5.61871408 C1.08030638,5.61871408 0.939946471,5.40201566 1.03705346,5.1503168 L3.18837953,-0.425866237 Z" id="Triangle-1" transform="translate(3.370076, 2.500722) rotate(90.000000) translate(-3.370076, -2.500722) "></path>
                                    </g>
                                </g>
                                <line x1="6.80062602" y1="18.7205882" x2="6.80062602" y2="8.68586249e-16" id="Path-2-Copy" stroke="#8D9EB0" stroke-linecap="round"></line>
                            </g>
                            <g id="Group" transform="translate(10.500000, 9.500000) scale(-1, 1) translate(-10.500000, -9.500000) ">
                                <g id="left-arrow-copy-3" transform="translate(10.500000, 9.500000) scale(-1, 1) translate(-10.500000, -9.500000) translate(0.000000, 7.000000)" fill="#8D9EB0">
                                    <g id="triangle" transform="translate(4.000000, 2.500000) scale(-1, 1) translate(-4.000000, -2.500000) ">
                                        <path d="M3.88775351,-0.425866237 C3.98755721,-0.684554916 4.15206769,-0.677565105 4.24917468,-0.425866237 L6.40050076,5.1503168 C6.50030446,5.40900548 6.36527212,5.61871408 6.08097484,5.61871408 L2.05595335,5.61871408 C1.77968036,5.61871408 1.63932045,5.40201566 1.73642744,5.1503168 L3.88775351,-0.425866237 Z" id="Triangle-1" transform="translate(4.069450, 2.500722) rotate(90.000000) translate(-4.069450, -2.500722) "></path>
                                    </g>
                                    <path d="M3.85259834,2.39596207 C3.85259834,2.11622249 4.06754115,1.88944875 4.34304157,1.88944875 L20.3621551,1.88944875 C20.6330194,1.88944875 20.8525983,2.10428865 20.8525983,2.39596207 L20.8525983,2.3092346 C20.8525983,2.58897418 20.6376555,2.81574792 20.3621551,2.81574792 L4.34304157,2.81574792 C4.07217725,2.81574792 3.85259834,2.60090803 3.85259834,2.3092346 L3.85259834,2.39596207 Z" id="Rectangle-144"></path>
                                </g>
                                <line x1="20" y1="19" x2="20" y2="0" id="Path-2-Copy" stroke="#8D9EB0" stroke-linecap="round"></line>
                            </g>
                        </g>
                        <g id="Group" transform="translate(0.000000, 3.000000)">
                            <g id="left-arrow-copy-3" transform="translate(6.500000, 6.500000) scale(-1, 1) translate(-6.500000, -6.500000) translate(0.000000, 4.000000)" fill="#8D9EB0">
                                <g id="triangle" transform="translate(4.000000, 2.500000) scale(-1, 1) translate(-4.000000, -2.500000) ">
                                    <path d="M3.88775351,-0.425866237 C3.98755721,-0.684554916 4.15206769,-0.677565105 4.24917468,-0.425866237 L6.40050076,5.1503168 C6.50030446,5.40900548 6.36527212,5.61871408 6.08097484,5.61871408 L2.05595335,5.61871408 C1.77968036,5.61871408 1.63932045,5.40201566 1.73642744,5.1503168 L3.88775351,-0.425866237 Z" id="Triangle-1" transform="translate(4.069450, 2.500722) rotate(90.000000) translate(-4.069450, -2.500722) "></path>
                                </g>
                                <path d="M3.85259834,2.39596207 C3.85259834,2.11622249 4.07856267,1.88944875 4.35576136,1.88944875 L11.797463,1.88944875 C12.0753523,1.88944875 12.300626,2.10428865 12.300626,2.39596207 L12.300626,2.3092346 C12.300626,2.58897418 12.0746617,2.81574792 11.797463,2.81574792 L4.35576136,2.81574792 C4.0778721,2.81574792 3.85259834,2.60090803 3.85259834,2.3092346 L3.85259834,2.39596207 Z" id="Rectangle-144"></path>
                            </g>
                            <line x1="12.5" y1="19.6875" x2="12.5" y2="1.28573622e-15" id="Path-2-Copy" stroke="#8D9EB0" stroke-linecap="round"></line>
                        </g>
                        <g id="Group" transform="translate(38.500000, 13.000000) scale(-1, 1) translate(-38.500000, -13.000000) translate(32.000000, 3.000000)">
                            <g id="left-arrow-copy-3" transform="translate(6.500000, 6.500000) scale(-1, 1) translate(-6.500000, -6.500000) translate(0.000000, 4.000000)" fill="#8D9EB0">
                                <g id="triangle" transform="translate(4.000000, 2.500000) scale(-1, 1) translate(-4.000000, -2.500000) ">
                                    <path d="M3.88775351,-0.425866237 C3.98755721,-0.684554916 4.15206769,-0.677565105 4.24917468,-0.425866237 L6.40050076,5.1503168 C6.50030446,5.40900548 6.36527212,5.61871408 6.08097484,5.61871408 L2.05595335,5.61871408 C1.77968036,5.61871408 1.63932045,5.40201566 1.73642744,5.1503168 L3.88775351,-0.425866237 Z" id="Triangle-1" transform="translate(4.069450, 2.500722) rotate(90.000000) translate(-4.069450, -2.500722) "></path>
                                </g>
                                <path d="M3.85259834,2.39596207 C3.85259834,2.11622249 4.07856267,1.88944875 4.35576136,1.88944875 L11.797463,1.88944875 C12.0753523,1.88944875 12.300626,2.10428865 12.300626,2.39596207 L12.300626,2.3092346 C12.300626,2.58897418 12.0746617,2.81574792 11.797463,2.81574792 L4.35576136,2.81574792 C4.0778721,2.81574792 3.85259834,2.60090803 3.85259834,2.3092346 L3.85259834,2.39596207 Z" id="Rectangle-144"></path>
                            </g>
                            <line x1="12.5" y1="19.6875" x2="12.5" y2="1.28573622e-15" id="Path-2-Copy" stroke="#8D9EB0" stroke-linecap="round"></line>
                        </g>
                        <polygon id="E" fill="#8D9EB0" fill-rule="nonzero" points="26.6693211 55.8188854 21.3626759 55.8188854 21.3626759 59.5504133 26.2567904 59.5504133 26.2567904 61.3692987 21.3626759 61.3692987 21.3626759 65.2883406 26.6693211 65.2883406 26.6693211 67.1259774 19 67.1259774 19 54 26.6693211 54"></polygon>
                        <path d="M22.283,15 L22.283,13.628 L18.321,13.628 L18.321,10.702 L21.975,10.702 L21.975,9.344 L18.321,9.344 L18.321,6.558 L22.283,6.558 L22.283,5.2 L16.557,5.2 L16.557,15 L22.283,15 Z M29.507,15 L29.507,13.67 L27.785,13.67 L27.785,5.2 L26.483,5.2 L23.739,6.796 L24.383,7.944 L26.077,7.104 L26.077,13.67 L24.075,13.67 L24.075,15 L29.507,15 Z" id="E1" fill="#8D9EB0" fill-rule="nonzero"></path>
                    </g>
                    <g id="Group-16" transform="translate(8.000000, 16.000000)">
                        <g id="Group-10" transform="translate(4.000000, 0.000000)" fill="#8D9EB0">
                            <path d="M2.93104432,5.71947419 C3.03084802,5.46078551 3.1953585,5.46777532 3.29246549,5.71947419 L5.44379156,11.2956572 C5.54359526,11.5543459 5.40856293,11.7640545 5.12426565,11.7640545 L1.09924416,11.7640545 C0.822971169,11.7640545 0.682611257,11.5473561 0.779718245,11.2956572 L2.93104432,5.71947419 Z" id="Triangle-1" transform="translate(3.112741, 8.646062) scale(-1, -1) translate(-3.112741, -8.646062) "></path>
                            <path d="M-1,4.50651332 C-1,4.22677374 -0.774035667,4 -0.496836974,4 L6.94486466,4 C7.22275392,4 7.44802768,4.21483989 7.44802768,4.50651332 L7.44802768,4.41978585 C7.44802768,4.69952543 7.22206335,4.92629917 6.94486466,4.92629917 L-0.496836974,4.92629917 C-0.77472624,4.92629917 -1,4.71145927 -1,4.41978585 L-1,4.50651332 Z" id="Rectangle-144" transform="translate(3.224014, 4.500000) scale(1, -1) rotate(90.000000) translate(-3.224014, -4.500000) "></path>
                        </g>
                        <line x1="14.5" y1="11.5" x2="0.5" y2="11.5" id="Path-2-Copy" stroke="#8D9EB0" stroke-linecap="round"></line>
                    </g>
                    <g id="Group-9" transform="translate(8.000000, 35.000000)">
                        <g id="Group-8" transform="translate(44.000000, 0.000000)">
                            <g id="Group" transform="translate(7.500000, 9.500000) scale(1, -1) rotate(180.000000) translate(-7.500000, -9.500000) translate(4.500000, 0.000000)" fill="#8D9EB0">
                                <g id="triangle" transform="translate(3.184082, 4.484497) rotate(-90.000000) translate(-3.184082, -4.484497) translate(-0.815918, 1.984497)">
                                    <path d="M3.88775351,-0.425866237 C3.98755721,-0.684554916 4.15206769,-0.677565105 4.24917468,-0.425866237 L6.40050076,5.1503168 C6.50030446,5.40900548 6.36527212,5.61871408 6.08097484,5.61871408 L2.05595335,5.61871408 C1.77968036,5.61871408 1.63932045,5.40201566 1.73642744,5.1503168 L3.88775351,-0.425866237 Z" id="Triangle-1" transform="translate(4.069450, 2.500722) rotate(90.000000) translate(-4.069450, -2.500722) "></path>
                                </g>
                                <path d="M2.68408203,4.98276448 C2.68408203,4.70757899 2.91601562,4.48449707 3.18408203,4.48449707 L3.18408203,4.48449707 C3.46022441,4.48449707 3.68408203,4.70440364 3.68408203,4.98276448 L3.68408203,17.9862297 C3.68408203,18.2614152 3.45214844,18.4844971 3.18408203,18.4844971 L3.18408203,18.4844971 C2.90793966,18.4844971 2.68408203,18.2645905 2.68408203,17.9862297 L2.68408203,4.98276448 Z" id="Rectangle-134"></path>
                            </g>
                            <line x1="14.5" y1="1.5" x2="0.5" y2="1.5" id="Path-2-Copy" stroke="#8D9EB0" stroke-linecap="round"></line>
                        </g>
                        <g id="Group-8" transform="translate(29.500000, 36.500000) scale(1, -1) translate(-29.500000, -36.500000) ">
                            <line x1="58.5" y1="0.5" x2="44.5" y2="0.5" id="Path-2-Copy" stroke="#8D9EB0" stroke-linecap="round"></line>
                            <g id="Group" transform="translate(51.500000, 9.000000) scale(1, -1) rotate(180.000000) translate(-51.500000, -9.000000) translate(48.500000, 0.000000)" fill="#8D9EB0">
                                <g id="triangle" transform="translate(3.184082, 3.484497) rotate(-90.000000) translate(-3.184082, -3.484497) translate(0.184082, 0.984497)">
                                    <path d="M2.88775351,-0.425866237 C2.98755721,-0.684554916 3.15206769,-0.677565105 3.24917468,-0.425866237 L5.40050076,5.1503168 C5.50030446,5.40900548 5.36527212,5.61871408 5.08097484,5.61871408 L1.05595335,5.61871408 C0.779680363,5.61871408 0.639320451,5.40201566 0.736427439,5.1503168 L2.88775351,-0.425866237 Z" id="Triangle-1" transform="translate(3.069450, 2.500722) rotate(90.000000) translate(-3.069450, -2.500722) "></path>
                                </g>
                                <path d="M2.68408203,3.98276448 C2.68408203,3.70757899 2.91601562,3.48449707 3.18408203,3.48449707 L3.18408203,3.48449707 C3.46022441,3.48449707 3.68408203,3.70440364 3.68408203,3.98276448 L3.68408203,16.9862297 C3.68408203,17.2614152 3.45214844,17.4844971 3.18408203,17.4844971 L3.18408203,17.4844971 C2.90793966,17.4844971 2.68408203,17.2645905 2.68408203,16.9862297 L2.68408203,3.98276448 Z" id="Rectangle-134"></path>
                            </g>
                            <g id="Group-14" transform="translate(0.000000, 58.018272)">
                                <g id="Group-17">
                                    <g id="Group-11" transform="translate(4.000000, 0.000000)" fill="#8D9EB0">
                                        <path d="M2.9826379,6.92697107 C3.0824416,6.66828239 3.24695209,6.6752722 3.34405907,6.92697107 L5.49538515,12.5031541 C5.59518885,12.7618428 5.46015652,12.9715514 5.17585923,12.9715514 L1.15083774,12.9715514 C0.874564754,12.9715514 0.734204842,12.754853 0.831311829,12.5031541 L2.9826379,6.92697107 Z" id="Triangle-1" transform="translate(3.164334, 9.853559) scale(-1, -1) translate(-3.164334, -9.853559) "></path>
                                        <path d="M-1,4.50651332 C-1,4.22677374 -0.774035667,4 -0.496836974,4 L6.94486466,4 C7.22275392,4 7.44802768,4.21483989 7.44802768,4.50651332 L7.44802768,4.41978585 C7.44802768,4.69952543 7.22206335,4.92629917 6.94486466,4.92629917 L-0.496836974,4.92629917 C-0.77472624,4.92629917 -1,4.71145927 -1,4.41978585 L-1,4.50651332 Z" id="Rectangle-144" transform="translate(3.224014, 4.500000) scale(1, -1) rotate(90.000000) translate(-3.224014, -4.500000) "></path>
                                    </g>
                                    <line x1="14.5" y1="13" x2="0.5" y2="13" id="Path-2-Copy" stroke="#8D9EB0" stroke-linecap="round"></line>
                                </g>
                            </g>
                        </g>
                        <path d="M54.2819412,44 L53.1943602,40.5497431 L48.6565223,40.5497431 L47.6626983,44 L45.2812709,44 L49.2940697,30.8740226 L52.5005585,30.8740226 L56.7196227,44 L54.2819412,44 Z M50.8879384,32.5241455 L49.1815614,38.6558521 L52.6318183,38.6558521 L50.8879384,32.5241455 Z" id="A" fill="#8D9EB0" fill-rule="nonzero"></path>
                    </g>
                    <g id="triangle" transform="translate(18.500000, 129.000000) scale(-1, 1) rotate(90.000000) translate(-18.500000, -129.000000) translate(14.500000, 126.500000)" fill="#8D9EB0">
                        <path d="M3.88775351,-0.425866237 C3.98755721,-0.684554916 4.15206769,-0.677565105 4.24917468,-0.425866237 L6.40050076,5.1503168 C6.50030446,5.40900548 6.36527212,5.61871408 6.08097484,5.61871408 L2.05595335,5.61871408 C1.77968036,5.61871408 1.63932045,5.40201566 1.73642744,5.1503168 L3.88775351,-0.425866237 Z" id="Triangle-1" transform="translate(4.069450, 2.500722) scale(-1, 1) rotate(90.000000) translate(-4.069450, -2.500722) "></path>
                    </g>
                    <path d="M14.3865374,133.083125 C14.3865374,132.803386 14.6125017,132.576612 14.8897004,132.576612 L22.3314021,132.576612 C22.6092913,132.576612 22.8345651,132.791452 22.8345651,133.083125 L22.8345651,132.996398 C22.8345651,133.276138 22.6086008,133.502911 22.3314021,133.502911 L14.8897004,133.502911 C14.6118112,133.502911 14.3865374,133.288071 14.3865374,132.996398 L14.3865374,133.083125 Z" id="Rectangle-144" fill="#8D9EB0" transform="translate(18.610551, 133.076612) rotate(90.000000) translate(-18.610551, -133.076612) "></path>
                    <path d="M18.682039,110.719474 C18.7818427,110.460786 18.9463532,110.467775 19.0434601,110.719474 L21.1947862,116.295657 C21.2945899,116.554346 21.1595576,116.764055 20.8752603,116.764055 L16.8502388,116.764055 C16.5739658,116.764055 16.4336059,116.547356 16.5307129,116.295657 L18.682039,110.719474 Z" id="Triangle-1" fill="#8D9EB0" transform="translate(18.863735, 113.646062) scale(-1, -1) translate(-18.863735, -113.646062) "></path>
                    <path d="M14.7509947,109.506513 C14.7509947,109.226774 14.976959,109 15.2541577,109 L22.6958593,109 C22.9737486,109 23.1990223,109.21484 23.1990223,109.506513 L23.1990223,109.419786 C23.1990223,109.699525 22.973058,109.926299 22.6958593,109.926299 L15.2541577,109.926299 C14.9762684,109.926299 14.7509947,109.711459 14.7509947,109.419786 L14.7509947,109.506513 Z" id="Rectangle-144" fill="#8D9EB0" transform="translate(18.975008, 109.500000) scale(1, -1) rotate(90.000000) translate(-18.975008, -109.500000) "></path>
                    <line x1="25" y1="116.5" x2="11" y2="116.5" id="Path-2-Copy" stroke="#8D9EB0" stroke-linecap="round"></line>
                    <line x1="18.5" y1="133.382729" x2="18.5" y2="119.382729" id="Path-3" stroke="#8D9EB0" stroke-linecap="round" transform="translate(18.500000, 126.382729) scale(1, -1) rotate(90.000000) translate(-18.500000, -126.382729) "></line>
                </g>
                <g id="Group-7" transform="translate(14.000000, 127.000000)">
                    <g id="Group-6">
                        <g id="Group" transform="translate(8.500000, 13.250000) rotate(90.000000) translate(-8.500000, -13.250000) translate(4.500000, 4.750000)" fill="#8D9EB0">
                            <g id="triangle" transform="translate(4.184082, 4.484497) rotate(-90.000000) translate(-4.184082, -4.484497) translate(0.184082, 0.984497)">
                                <path d="M4.02723592,0.711644336 C4.12703962,0.452955657 4.29155011,0.459945469 4.38865709,0.711644336 L6.53998317,6.28782737 C6.63978687,6.54651605 6.50475454,6.75622466 6.22045725,6.75622466 L2.19543576,6.75622466 C1.91916277,6.75622466 1.77880286,6.53952624 1.87590985,6.28782737 L4.02723592,0.711644336 Z" id="Triangle-1" transform="translate(4.207947, 3.499736) rotate(90.000000) translate(-4.207947, -3.499736) "></path>
                            </g>
                            <path d="M3.68408203,4.98484439 C3.68408203,4.70851019 3.91601562,4.48449707 4.18408203,4.48449707 L4.18408203,4.48449707 C4.46022441,4.48449707 4.68408203,4.71349764 4.68408203,4.98484439 L4.68408203,15.9841498 C4.68408203,16.2604839 4.45214844,16.4844971 4.18408203,16.4844971 L4.18408203,16.4844971 C3.90793966,16.4844971 3.68408203,16.2554965 3.68408203,15.9841498 L3.68408203,4.98484439 Z" id="Rectangle-134"></path>
                        </g>
                        <line x1="16" y1="0.75" x2="16" y2="20.75" id="Path-2-Copy" stroke="#8D9EB0" stroke-linecap="round" transform="translate(16.000000, 10.750000) scale(1, -1) translate(-16.000000, -10.750000) "></line>
                    </g>
                    <g id="Group-4" transform="translate(29.500000, 0.000000)">
                        <g id="Group" transform="translate(9.000000, 13.250000) scale(-1, 1) rotate(90.000000) translate(-9.000000, -13.250000) translate(5.000000, 4.750000)" fill="#8D9EB0">
                            <g id="triangle" transform="translate(4.184082, 4.484497) rotate(-90.000000) translate(-4.184082, -4.484497) translate(0.184082, 0.984497)">
                                <path d="M4.02723592,0.711644336 C4.12703962,0.452955657 4.29155011,0.459945469 4.38865709,0.711644336 L6.53998317,6.28782737 C6.63978687,6.54651605 6.50475454,6.75622466 6.22045725,6.75622466 L2.19543576,6.75622466 C1.91916277,6.75622466 1.77880286,6.53952624 1.87590985,6.28782737 L4.02723592,0.711644336 Z" id="Triangle-1" transform="translate(4.207947, 3.499736) rotate(90.000000) translate(-4.207947, -3.499736) "></path>
                            </g>
                            <path d="M3.68408203,4.98484439 C3.68408203,4.70851019 3.91601562,4.48449707 4.18408203,4.48449707 L4.18408203,4.48449707 C4.46022441,4.48449707 4.68408203,4.71349764 4.68408203,4.98484439 L4.68408203,15.9841498 C4.68408203,16.2604839 4.45214844,16.4844971 4.18408203,16.4844971 L4.18408203,16.4844971 C3.90793966,16.4844971 3.68408203,16.2554965 3.68408203,15.9841498 L3.68408203,4.98484439 Z" id="Rectangle-134"></path>
                        </g>
                        <line x1="1.5" y1="0.75" x2="1.5" y2="20.75" id="Path-2-Copy-2" stroke="#8D9EB0" stroke-linecap="round" transform="translate(1.500000, 10.750000) scale(1, -1) translate(-1.500000, -10.750000) "></line>
                    </g>
                </g>
            </g>
            <g id="Group-15" transform="translate(38.000000, 48.000000)">
                <g id="Group-3">
                    <path d="M38.716,3.492 C40.912,3.492 42.352,5.256 42.352,8.028 L42.352,9 C42.352,11.646 40.642,13.554 38.446,13.554 C37.42,13.554 36.592,13.176 35.926,12.492 L35.746,13.32 L34,13.32 L34,-1.33226763e-14 L36.232,-1.33226763e-14 L36.232,4.482 C36.844,3.852 37.672,3.492 38.716,3.492 Z M40.12,9.072 L40.12,7.956 C40.12,6.084 39.49,5.184 38.266,5.184 C37.402,5.184 36.718,5.598 36.232,6.21 L36.232,11.07 C36.718,11.592 37.33,11.88 38.068,11.88 C39.31,11.88 40.12,10.908 40.12,9.072 Z" id="b" fill="#8D9EB0" fill-rule="nonzero"></path>
                    <line x1="23.5" y1="16.5" x2="31.5" y2="9.5" id="Path-6" stroke="#8D9EB0" stroke-linecap="round" stroke-linejoin="round"></line>
                    <g id="Group-9" transform="translate(13.000000, 27.000000) rotate(45.000000) translate(-13.000000, -27.000000) translate(9.000000, 14.000000)" fill="#8D9EB0">
                        <g id="Group" transform="translate(4.000000, 8.500000) scale(1, -1) rotate(180.000000) translate(-4.000000, -8.500000) translate(0.000000, 0.000000)">
                            <g id="triangle" transform="translate(4.184082, 4.484497) rotate(-90.000000) translate(-4.184082, -4.484497) translate(0.184082, 0.984497)">
                                <path d="M4.02723592,0.711644336 C4.12703962,0.452955657 4.29155011,0.459945469 4.38865709,0.711644336 L6.53998317,6.28782737 C6.63978687,6.54651605 6.50475454,6.75622466 6.22045725,6.75622466 L2.19543576,6.75622466 C1.91916277,6.75622466 1.77880286,6.53952624 1.87590985,6.28782737 L4.02723592,0.711644336 Z" id="Triangle-1" transform="translate(4.207947, 3.499736) rotate(90.000000) translate(-4.207947, -3.499736) "></path>
                            </g>
                            <path d="M3.68408203,4.98484439 C3.68408203,4.70851019 3.91601562,4.48449707 4.18408203,4.48449707 L4.18408203,4.48449707 C4.46022441,4.48449707 4.68408203,4.71349764 4.68408203,4.98484439 L4.68408203,15.9841498 C4.68408203,16.2604839 4.45214844,16.4844971 4.18408203,16.4844971 L4.18408203,16.4844971 C3.90793966,16.4844971 3.68408203,16.2554965 3.68408203,15.9841498 L3.68408203,4.98484439 Z" id="Rectangle-134"></path>
                        </g>
                        <g id="Group" transform="translate(4.000000, 17.500000) rotate(180.000000) translate(-4.000000, -17.500000) translate(0.000000, 9.000000)">
                            <g id="triangle" transform="translate(4.184082, 4.484497) rotate(-90.000000) translate(-4.184082, -4.484497) translate(0.184082, 0.984497)">
                                <path d="M4.02723592,0.711644336 C4.12703962,0.452955657 4.29155011,0.459945469 4.38865709,0.711644336 L6.53998317,6.28782737 C6.63978687,6.54651605 6.50475454,6.75622466 6.22045725,6.75622466 L2.19543576,6.75622466 C1.91916277,6.75622466 1.77880286,6.53952624 1.87590985,6.28782737 L4.02723592,0.711644336 Z" id="Triangle-1" transform="translate(4.207947, 3.499736) rotate(90.000000) translate(-4.207947, -3.499736) "></path>
                            </g>
                            <path d="M3.68408203,4.98484439 C3.68408203,4.70851019 3.91601562,4.48449707 4.18408203,4.48449707 L4.18408203,4.48449707 C4.46022441,4.48449707 4.68408203,4.71349764 4.68408203,4.98484439 L4.68408203,15.9841498 C4.68408203,16.2604839 4.45214844,16.4844971 4.18408203,16.4844971 L4.18408203,16.4844971 C3.90793966,16.4844971 3.68408203,16.2554965 3.68408203,15.9841498 L3.68408203,4.98484439 Z" id="Rectangle-134"></path>
                        </g>
                    </g>
                </g>
            </g>
        </g>
        <path d="M147.169,53 L147.911,50.424 L151.299,50.424 L152.111,53 L153.931,53 L150.781,43.2 L148.387,43.2 L145.391,53 L147.169,53 Z M150.879,49.01 L148.303,49.01 L149.577,44.432 L150.879,49.01 Z M160.413,53 L160.413,51.67 L158.691,51.67 L158.691,43.2 L157.389,43.2 L154.645,44.796 L155.289,45.944 L156.983,45.104 L156.983,51.67 L154.981,51.67 L154.981,53 L160.413,53 Z" id="A1" fill="#8D9EB0" fill-rule="nonzero"></path>
        <path d="M157.696,143 L157.696,141.572 L153.72,141.572 L153.72,133.2 L151.956,133.2 L151.956,143 L157.696,143 Z M164.108,143 L164.108,141.67 L162.386,141.67 L162.386,133.2 L161.084,133.2 L158.34,134.796 L158.984,135.944 L160.678,135.104 L160.678,141.67 L158.676,141.67 L158.676,143 L164.108,143 Z" id="L1" fill="#8D9EB0" fill-rule="nonzero"></path>
    </g>
</svg>