<?xml version="1.0" encoding="UTF-8"?>
<svg width="200px" height="150px" viewBox="0 0 200 150" version="1.1" xmlns="http://www.w3.org/2000/svg" xmlns:xlink="http://www.w3.org/1999/xlink">
    <!-- Generator: Sketch 63.1 (92452) - https://sketch.com -->
    <title>Snap Lock</title>
    <desc>Created with Sketch.</desc>
    <g id="Snap-Lock" stroke="none" stroke-width="1" fill="none" fill-rule="evenodd">
        <g id="snap" transform="translate(135.000000, 21.000000)" fill="#D8D8D8" stroke="#979797">
            <path d="M4.80952381,107.522124 L4.80952381,97.4867257 L8.42857143,97.4867257 L8.42857143,95.5752212 L3,95.5752212 L8.42857143,95.5752212 L10.2380952,92.7079646 L10.2380952,97.4867257 L3,97.4867257 L3,95.5752212 L5.71428571,88.8849558 L10.2380952,88.8849558 L10.2380952,104.176991 C10.2380952,105.49661 11.2507845,106.566372 12.5,106.566372 C13.7492155,106.566372 14.7619048,105.49661 14.7619048,104.176991 L14.7619048,88.8849558 L19.2857143,88.8849558 L22,95.5752212 L22,97.4867257 L14.7619048,97.4867257 L14.7619048,92.7079646 L16.5714286,95.5752212 L22,95.5752212 L16.5714286,95.5752212 L16.5714286,97.4867257 L20.1904762,97.4867257 L20.1904762,107.522124" id="Path" transform="translate(12.500000, 98.203540) scale(1, -1) translate(-12.500000, -98.203540) "></path>
            <path d="M4.80952381,19.1150442 L4.80952381,9.55752212 L8.42857143,9.55752212 L8.42857143,7.6460177 L3,7.6460177 L8.42857143,7.6460177 L10.2380952,4.77876106 L10.2380952,9.55752212 L3,9.55752212 L3,7.6460177 L5.71428571,0.955752212 L10.2380952,0.955752212 L10.2380952,16.2477876 C10.2380952,17.567406 11.2507845,18.6371681 12.5,18.6371681 C13.7492155,18.6371681 14.7619048,17.567406 14.7619048,16.2477876 L14.7619048,0.955752212 L19.2857143,0.955752212 L22,7.6460177 L22,9.55752212 L14.7619048,9.55752212 L14.7619048,4.77876106 L16.5714286,7.6460177 L22,7.6460177 L16.5714286,7.6460177 L16.5714286,9.55752212 L20.1904762,9.55752212 L20.1904762,14.3362832 L20.1904762,19.1150442" id="Path-2"></path>
            <rect id="Rectangle" x="0" y="18.6371681" width="25" height="70.7256637"></rect>
        </g>
        <g id="NPTH" transform="translate(18.000000, 43.000000)" stroke="#979797">
            <g id="hole" transform="translate(32.500000, 31.500000) scale(-1, 1) translate(-32.500000, -31.500000) translate(16.000000, 15.000000)">
                <circle id="Oval" cx="16.5428571" cy="16.5428571" r="12.3285714"></circle>
            </g>
        </g>
    </g>
</svg>