<?xml version="1.0" encoding="UTF-8" standalone="no"?>
<svg width="200px" height="150px" viewBox="0 0 200 150" version="1.1" xmlns="http://www.w3.org/2000/svg" xmlns:xlink="http://www.w3.org/1999/xlink">
    <!-- Generator: Sketch 48.2 (47327) - http://www.bohemiancoding.com/sketch -->
    <title>SOD</title>
    <desc>Created with Sketch.</desc>
    <defs>
        <path d="M147.936576,11.7874417 C147.544813,10.8002649 146.292413,10 145.144408,10 L54.8591895,10 C53.708881,10 52.4575725,10.8033195 52.0670213,11.7874417 L46.1452031,26.709411 C45.9435137,27.2176337 45.9536301,28.0358681 46.1708292,28.5440794 L52.0276387,42.2480836 C52.4411525,43.2156403 53.711185,44 54.8591895,44 L145.144408,44 C146.294717,44 147.564675,43.210423 147.975959,42.2480836 L153.832768,28.5440794 C154.048611,28.0390427 154.055423,27.2058894 153.858395,26.709411 L147.936576,11.7874417 Z" id="path-1"></path>
        <polyline id="path-2" points="16 124 16 102 54 102 54 124 16 124"></polyline>
        <polyline id="path-3" points="146 124 146 102 184 102 184 124 146 124"></polyline>
        <rect id="path-4" x="46" y="86" width="108" height="54" rx="1"></rect>
    </defs>
    <g stroke="none" stroke-width="1" fill="none" fill-rule="evenodd">
        <g>
            <path d="M22,32.6576082 C22,33.3060892 22.3450273,33.9066515 22.9080918,34.2382532 L44.2832513,45.3924118 L44.2832513,55.9606961 C44.2832513,56.9765152 45.1152739,57.7999992 46.1416257,57.7999992 C47.1679775,57.7999992 48,56.9765152 48,55.9606961 L48,44.3117763 C48,43.6632953 47.6549727,43.062733 47.0919082,42.7311313 L25.7167487,31.620755 L25.7167487,21.6393024 C25.7167487,20.6234833 24.8847261,19.7999992 23.8583743,19.7999992 C22.8320225,19.7999992 22,20.6234833 22,21.6393024 L22,32.6576082 Z" stroke="#979797" fill="#D8D8D8" fill-rule="nonzero" transform="translate(35.000000, 38.799999) rotate(-270.000000) translate(-35.000000, -38.799999) "></path>
            <path d="M152,32.6576082 C152,33.3060892 152.345027,33.9066515 152.908092,34.2382532 L174.283251,45.3924118 L174.283251,55.9606961 C174.283251,56.9765152 175.115274,57.7999992 176.141626,57.7999992 C177.167977,57.7999992 178,56.9765152 178,55.9606961 L178,44.3117763 C178,43.6632953 177.654973,43.062733 177.091908,42.7311313 L155.716749,31.620755 L155.716749,21.6393024 C155.716749,20.6234833 154.884726,19.7999992 153.858374,19.7999992 C152.832023,19.7999992 152,20.6234833 152,21.6393024 L152,32.6576082 Z" stroke="#979797" fill="#D8D8D8" fill-rule="nonzero" transform="translate(165.000000, 38.799999) scale(-1, 1) rotate(-270.000000) translate(-165.000000, -38.799999) "></path>
            <g>
                <use fill="#585858" fill-rule="evenodd" xlink:href="#path-1"></use>
                <path stroke="#505050" stroke-width="1" d="M147.471835,11.9718753 C147.15802,11.1811133 146.093444,10.5 145.144408,10.5 L54.8591895,10.5 C53.9099925,10.5 52.8451073,11.1822998 52.5317624,11.9718753 L46.6099442,26.8938445 C46.4565209,27.2804448 46.4657001,27.9617434 46.6305999,28.3475829 L52.4874094,42.0515871 C52.8195675,42.8287842 53.9050358,43.5 54.8591895,43.5 L145.144408,43.5 C146.097767,43.5 147.185126,42.82622 147.516188,42.0515871 L153.372998,28.3475829 C153.535209,27.9680345 153.543674,27.2718698 153.393654,26.8938445 L147.471835,11.9718753 Z"></path>
            </g>
            <polyline fill="#505050" points="153 27 153 28 46 28 46 27 153 27"></polyline>
            <g>
                <use fill="#D8D8D8" fill-rule="evenodd" xlink:href="#path-2"></use>
                <path stroke="#979797" stroke-width="1" d="M16.5,123.5 L53.5,123.5 L53.5,102.5 L16.5,102.5 L16.5,123.5 Z"></path>
            </g>
            <polyline fill="#979797" points="28 124 28 102 29 102 29 124 28 124"></polyline>
            <g>
                <use fill="#D8D8D8" fill-rule="evenodd" xlink:href="#path-3"></use>
                <path stroke="#979797" stroke-width="1" d="M146.5,123.5 L183.5,123.5 L183.5,102.5 L146.5,102.5 L146.5,123.5 Z"></path>
            </g>
            <polyline fill="#979797" points="171 124 171 102 172 102 172 124 171 124"></polyline>
            <g>
                <use fill="#585858" fill-rule="evenodd" xlink:href="#path-4"></use>
                <rect stroke="#505050" stroke-width="6" x="49" y="89" width="102" height="48" rx="1"></rect>
            </g>
        </g>
    </g>
</svg>