<?xml version="1.0" encoding="UTF-8" standalone="no"?>
<svg width="290px" height="175px" viewBox="0 0 290 175" version="1.1" xmlns="http://www.w3.org/2000/svg" xmlns:xlink="http://www.w3.org/1999/xlink">
    <!-- Generator: Sketch 48.2 (47327) - http://www.bohemiancoding.com/sketch -->
    <title>SOD-Labeled</title>
    <desc>Created with Sketch.</desc>
    <defs>
        <path d="M155.333405,12.4161052 C154.922054,11.376279 153.607033,10.5333333 152.401629,10.5333333 L57.602149,10.5333333 C56.3943251,10.5333333 55.0804512,11.3794965 54.6703724,12.4161052 L48.4333336,28.1822693 C48.2321248,28.6908907 48.2444771,29.515072 48.4597257,30.0203183 L54.6290206,44.5013147 C55.0632102,45.5204745 56.3967443,46.3466667 57.602149,46.3466667 L152.401629,46.3466667 C153.609453,46.3466667 154.942909,45.5149789 155.374757,44.5013147 L161.544052,30.0203183 C161.759837,29.5138133 161.771584,28.6907174 161.570444,28.1822693 L155.333405,12.4161052 Z" id="path-1"></path>
        <polyline id="path-2" points="16.8 130.613333 16.8 107.44 56.7 107.44 56.7 130.613333 16.8 130.613333"></polyline>
        <polyline id="path-3" points="153.3 130.613333 153.3 107.44 193.2 107.44 193.2 130.613333 153.3 130.613333"></polyline>
        <rect id="path-4" x="48.3" y="90.5866667" width="113.4" height="56.88" rx="1"></rect>
    </defs>
    <g stroke="none" stroke-width="1" fill="none" fill-rule="evenodd">
        <g>
            <g transform="translate(39.833456, 3.625092)">
                <path d="M23.1,34.3993473 C23.1,35.082414 23.4622787,35.7150063 24.0534964,36.0642934 L46.4974139,47.8133404 L46.4974139,58.9452666 C46.4974139,60.0152627 47.3710375,60.8826659 48.4487069,60.8826659 C49.5263763,60.8826659 50.4,60.0152627 50.4,58.9452666 L50.4,46.675071 C50.4,45.9920044 50.0377213,45.3594121 49.4465036,45.010125 L27.0025861,33.3071952 L27.0025861,22.7933985 C27.0025861,21.7234024 26.1289625,20.8559992 25.0512931,20.8559992 C23.9736237,20.8559992 23.1,21.7234024 23.1,22.7933985 L23.1,34.3993473 Z" stroke="#979797" stroke-width="1" fill="#D8D8D8" fill-rule="nonzero" transform="translate(36.750000, 40.869333) rotate(-270.000000) translate(-36.750000, -40.869333) "></path>
                <path d="M159.6,34.3993473 C159.6,35.082414 159.962279,35.7150063 160.553496,36.0642934 L182.997414,47.8133404 L182.997414,58.9452666 C182.997414,60.0152627 183.871038,60.8826659 184.948707,60.8826659 C186.026376,60.8826659 186.9,60.0152627 186.9,58.9452666 L186.9,46.675071 C186.9,45.9920044 186.537721,45.3594121 185.946504,45.010125 L163.502586,33.3071952 L163.502586,22.7933985 C163.502586,21.7234024 162.628962,20.8559992 161.551293,20.8559992 C160.473624,20.8559992 159.6,21.7234024 159.6,22.7933985 L159.6,34.3993473 Z" stroke="#979797" stroke-width="1" fill="#D8D8D8" fill-rule="nonzero" transform="translate(173.250000, 40.869333) scale(-1, 1) rotate(-270.000000) translate(-173.250000, -40.869333) "></path>
                <g>
                    <use fill="#585858" fill-rule="evenodd" xlink:href="#path-1"></use>
                    <path stroke="#505050" stroke-width="1" d="M154.868464,12.6000343 C154.534864,11.7567508 153.407746,11.0333333 152.401629,11.0333333 L57.602149,11.0333333 C56.5958572,11.0333333 55.4684162,11.7580076 55.1353134,12.6000343 L48.8982746,28.3661983 C48.7457418,28.7517752 48.7557499,29.4394639 48.9197209,29.8243479 L55.0890159,44.3053444 C55.4420413,45.13399 56.5909116,45.8466667 57.602149,45.8466667 L152.401629,45.8466667 C153.412039,45.8466667 154.562891,45.1312792 154.914762,44.3053444 L161.084057,29.8243479 C161.248338,29.4387358 161.258178,28.7521351 161.105503,28.3661983 L154.868464,12.6000343 Z"></path>
                </g>
                <polyline fill="#505050" fill-rule="evenodd" points="160.65 28.44 160.65 29.4933333 48.3 29.4933333 48.3 28.44 160.65 28.44"></polyline>
                <g>
                    <use fill="#D8D8D8" fill-rule="evenodd" xlink:href="#path-2"></use>
                    <path stroke="#979797" stroke-width="1" d="M17.3,130.113333 L56.2,130.113333 L56.2,107.94 L17.3,107.94 L17.3,130.113333 Z"></path>
                </g>
                <polyline fill="#979797" fill-rule="evenodd" points="29.4 130.613333 29.4 107.44 30.45 107.44 30.45 130.613333 29.4 130.613333"></polyline>
                <g>
                    <use fill="#D8D8D8" fill-rule="evenodd" xlink:href="#path-3"></use>
                    <path stroke="#979797" stroke-width="1" d="M153.8,130.113333 L192.7,130.113333 L192.7,107.94 L153.8,107.94 L153.8,130.113333 Z"></path>
                </g>
                <polyline fill="#979797" fill-rule="evenodd" points="179.55 130.613333 179.55 107.44 180.6 107.44 180.6 130.613333 179.55 130.613333"></polyline>
                <g>
                    <use fill="#585858" fill-rule="evenodd" xlink:href="#path-4"></use>
                    <rect stroke="#505050" stroke-width="6" x="51.3" y="93.5866667" width="107.4" height="50.88" rx="1"></rect>
                </g>
            </g>
            <path d="M46.358942,151.455182 C48.6466124,151.455182 50.1467241,153.292818 50.1467241,156.180533 L50.1467241,157.193109 C50.1467241,159.949564 48.3653414,161.937212 46.0776711,161.937212 C45.0088415,161.937212 44.1462773,161.543433 43.4524756,160.83088 L43.2649616,161.693444 L41.4460762,161.693444 L41.4460762,147.817411 L43.7712493,147.817411 L43.7712493,152.486508 C44.4087968,151.83021 45.271361,151.455182 46.358942,151.455182 Z M47.8215509,157.268114 L47.8215509,156.105528 C47.8215509,154.155383 47.1652521,153.217813 45.8901571,153.217813 C44.9900901,153.217813 44.277537,153.649095 43.7712493,154.286642 L43.7712493,159.349519 C44.277537,159.89331 44.9150845,160.193332 45.6838918,160.193332 C46.9777381,160.193332 47.8215509,159.180757 47.8215509,157.268114 Z" fill="#8D9EB0"></path>
            <path d="M45.4082839,30 L44.3207029,26.5497431 L39.782865,26.5497431 L38.789041,30 L36.4076137,30 L40.4204125,16.8740226 L43.6269013,16.8740226 L47.8459654,30 L45.4082839,30 Z M42.0142812,18.5241455 L40.3079041,24.6558521 L43.7581611,24.6558521 L42.0142812,18.5241455 Z M54.2214402,28.2186174 L56.5278619,28.2186174 L56.5278619,30 L49.2523202,30 L49.2523202,28.2186174 L51.9337698,28.2186174 L51.9337698,19.4242125 L49.6648509,20.5492963 L48.8022867,19.0116818 L52.4775603,16.8740226 L54.2214402,16.8740226 L54.2214402,28.2186174 Z" fill="#8D9EB0"></path>
            <path d="M144.762966,75.8740226 C148.325732,75.8740226 150.107114,77.974179 150.107114,81.1244136 L150.107114,83.4495867 C150.107114,86.8623408 148.081963,89 144.294181,89 L140.468897,89 L140.468897,75.8740226 L144.762966,75.8740226 Z M147.744438,83.4870895 L147.744438,81.0681594 C147.744438,78.9305002 146.731863,77.6929081 144.650458,77.6929081 L142.831573,77.6929081 L142.831573,87.1811146 L144.312933,87.1811146 C146.600603,87.1811146 147.744438,85.9810252 147.744438,83.4870895 Z" fill="#8D9EB0"></path>
            <polygon fill="#8D9EB0" points="200.831573 72.0873576 206.156969 72.0873576 206.156969 74 198.468897 74 198.468897 60.8740226 200.831573 60.8740226"></polygon>
            <path d="M140.368405,152.88172 C143.93117,152.88172 145.712553,154.981876 145.712553,158.132111 L145.712553,160.457284 C145.712553,163.870038 143.687402,166.007697 139.89962,166.007697 L136.074335,166.007697 L136.074335,152.88172 L140.368405,152.88172 Z M143.349877,160.494787 L143.349877,158.075857 C143.349877,155.938198 142.337302,154.700605 140.255897,154.700605 L138.437011,154.700605 L138.437011,164.188812 L139.918372,164.188812 C142.206042,164.188812 143.349877,162.988723 143.349877,160.494787 Z M153.044349,164.226315 L155.350771,164.226315 L155.350771,166.007697 L148.075229,166.007697 L148.075229,164.226315 L150.756679,164.226315 L150.756679,155.43191 L148.48776,156.556994 L147.625195,155.019379 L151.300469,152.88172 L153.044349,152.88172 L153.044349,164.226315 Z" fill="#8D9EB0"></path>
            <path d="M232,77.3630069 C232,77.0881948 232.231934,76.8654156 232.5,76.8654156 L232.5,76.8654156 C232.776142,76.8654156 233,77.0903515 233,77.3630069 L233,108.874298 C233,109.14911 232.768066,109.371889 232.5,109.371889 L232.5,109.371889 C232.223858,109.371889 232,109.146953 232,108.874298 L232,77.3630069 Z" fill="#8D9EB0"></path>
            <rect fill="#8D9EB0" x="56.6263428" y="76.4150391" width="1" height="33.4072266" rx="0.5"></rect>
            <rect fill="#8D9EB0" x="88.0292969" y="151.585938" width="1" height="13.328125" rx="0.5"></rect>
            <rect fill="#8D9EB0" x="218.029297" y="59.5859375" width="1" height="10.7509766" rx="0.5"></rect>
            <rect fill="#8D9EB0" x="232.029297" y="59.5859375" width="1" height="10.7509766" rx="0.5"></rect>
            <rect fill="#8D9EB0" x="200.547852" y="151.585938" width="1" height="13.328125" rx="0.5"></rect>
            <g transform="translate(57.000000, 79.000000)" fill="#8D9EB0">
                <g transform="translate(3.627441, 3.494357) scale(-1, 1) translate(-3.627441, -3.494357) translate(0.627441, 0.994357)">
                    <path d="M2.88775351,-0.425866237 C2.98755721,-0.684554916 3.15206769,-0.677565105 3.24917468,-0.425866237 L5.40050076,5.1503168 C5.50030446,5.40900548 5.36527212,5.61871408 5.08097484,5.61871408 L1.05595335,5.61871408 C0.779680363,5.61871408 0.639320451,5.40201566 0.736427439,5.1503168 L2.88775351,-0.425866237 Z" transform="translate(3.069450, 2.500722) rotate(90.000000) translate(-3.069450, -2.500722) "></path>
                </g>
                <rect x="3.48003974" y="2.88380564" width="76.5647601" height="1" rx="0.5"></rect>
            </g>
            <g transform="translate(197.300232, 82.000000) scale(-1, 1) translate(-197.300232, -82.000000) translate(161.800232, 79.000000)" fill="#8D9EB0">
                <g transform="translate(3.627441, 3.494357) scale(-1, 1) translate(-3.627441, -3.494357) translate(0.627441, 0.994357)">
                    <path d="M2.88775351,-0.425866237 C2.98755721,-0.684554916 3.15206769,-0.677565105 3.24917468,-0.425866237 L5.40050076,5.1503168 C5.50030446,5.40900548 5.36527212,5.61871408 5.08097484,5.61871408 L1.05595335,5.61871408 C0.779680363,5.61871408 0.639320451,5.40201566 0.736427439,5.1503168 L2.88775351,-0.425866237 Z" transform="translate(3.069450, 2.500722) rotate(90.000000) translate(-3.069450, -2.500722) "></path>
                </g>
                <rect x="3.48003974" y="2.88380564" width="77" height="1" rx="0.5"></rect>
            </g>
            <g transform="translate(89.000000, 156.693444)" fill="#8D9EB0">
                <g transform="translate(3.958008, 3.295200) scale(-1, 1) translate(-3.958008, -3.295200) translate(0.958008, 0.795200)">
                    <path d="M2.88775351,-0.425866237 C2.98755721,-0.684554916 3.15206769,-0.677565105 3.24917468,-0.425866237 L5.40050076,5.1503168 C5.50030446,5.40900548 5.36527212,5.61871408 5.08097484,5.61871408 L1.05595335,5.61871408 C0.779680363,5.61871408 0.639320451,5.40201566 0.736427439,5.1503168 L2.88775351,-0.425866237 Z" transform="translate(3.069450, 2.500722) rotate(90.000000) translate(-3.069450, -2.500722) "></path>
                </g>
                <rect x="3.81060615" y="2.68464829" width="40.8142718" height="1" rx="0.5"></rect>
            </g>
            <g transform="translate(177.500000, 159.693444) scale(-1, 1) translate(-177.500000, -159.693444) translate(155.000000, 156.693444)" fill="#8D9EB0">
                <g transform="translate(3.958008, 3.295200) scale(-1, 1) translate(-3.958008, -3.295200) translate(0.958008, 0.795200)">
                    <path d="M2.88775351,-0.425866237 C2.98755721,-0.684554916 3.15206769,-0.677565105 3.24917468,-0.425866237 L5.40050076,5.1503168 C5.50030446,5.40900548 5.36527212,5.61871408 5.08097484,5.61871408 L1.05595335,5.61871408 C0.779680363,5.61871408 0.639320451,5.40201566 0.736427439,5.1503168 L2.88775351,-0.425866237 Z" transform="translate(3.069450, 2.500722) rotate(90.000000) translate(-3.069450, -2.500722) "></path>
                </g>
                <rect x="3.81060615" y="2.68464829" width="41" height="1" rx="0.5"></rect>
            </g>
            <rect fill="#8D9EB0" x="43.0286865" y="111.264061" width="11.5976563" height="1" rx="0.5"></rect>
            <rect fill="#8D9EB0" x="43.0286865" y="133.264061" width="11.5976563" height="1" rx="0.5"></rect>
            <rect fill="#8D9EB0" x="196.053589" y="13.9526627" width="63.4932861" height="1" rx="0.5"></rect>
            <rect fill="#8D9EB0" x="40.9101563" y="48.9526627" width="52.2227783" height="1" rx="0.5"></rect>
            <rect fill="#8D9EB0" x="234.560181" y="57" width="24.9866943" height="1" rx="0.5"></rect>
            <rect fill="#8D9EB0" x="40.9101563" y="57.6147461" width="20.5513792" height="1" rx="0.5"></rect>
            <rect fill="#8D9EB0" x="202.5" y="150.750577" width="55.8891602" height="1" rx="0.5"></rect>
            <rect fill="#8D9EB0" x="202.5" y="94.7451172" width="55.8891602" height="1" rx="0.5"></rect>
            <g transform="translate(253.849487, 141.142116) scale(-1, -1) translate(-253.849487, -141.142116) translate(250.849487, 131.642116)" fill="#8D9EB0">
                <g transform="translate(3.086914, 3.757716) rotate(-90.000000) translate(-3.086914, -3.757716) translate(0.086914, 1.257716)">
                    <path d="M2.88775351,-0.425866237 C2.98755721,-0.684554916 3.15206769,-0.677565105 3.24917468,-0.425866237 L5.40050076,5.1503168 C5.50030446,5.40900548 5.36527212,5.61871408 5.08097484,5.61871408 L1.05595335,5.61871408 C0.779680363,5.61871408 0.639320451,5.40201566 0.736427439,5.1503168 L2.88775351,-0.425866237 Z" transform="translate(3.069450, 2.500722) rotate(90.000000) translate(-3.069450, -2.500722) "></path>
                </g>
                <rect x="2.58691406" y="3.75771645" width="1" height="15.0854492" rx="0.5"></rect>
            </g>
            <g transform="translate(250.849487, 95.642116)" fill="#8D9EB0">
                <g transform="translate(3.086914, 3.757716) rotate(-90.000000) translate(-3.086914, -3.757716) translate(0.086914, 1.257716)">
                    <path d="M2.88775351,-0.425866237 C2.98755721,-0.684554916 3.15206769,-0.677565105 3.24917468,-0.425866237 L5.40050076,5.1503168 C5.50030446,5.40900548 5.36527212,5.61871408 5.08097484,5.61871408 L1.05595335,5.61871408 C0.779680363,5.61871408 0.639320451,5.40201566 0.736427439,5.1503168 L2.88775351,-0.425866237 Z" transform="translate(3.069450, 2.500722) rotate(90.000000) translate(-3.069450, -2.500722) "></path>
                </g>
                <rect x="2.58691406" y="3.75771645" width="1" height="15.0854492" rx="0.5"></rect>
            </g>
            <polygon fill="#8D9EB0" points="257.185093 118.422977 251.878448 118.422977 251.878448 122.154505 256.772562 122.154505 256.772562 123.973391 251.878448 123.973391 251.878448 127.892433 257.185093 127.892433 257.185093 129.730069 249.515772 129.730069 249.515772 116.604092 257.185093 116.604092"></polygon>
            <path d="M255.828816,41.6285069 L254.741235,38.17825 L250.203397,38.17825 L249.209573,41.6285069 L246.828146,41.6285069 L250.840945,28.5025295 L254.047434,28.5025295 L258.266498,41.6285069 L255.828816,41.6285069 Z M252.434813,30.1526524 L250.728436,36.2843589 L254.178693,36.2843589 L252.434813,30.1526524 Z" fill="#8D9EB0"></path>
            <g transform="translate(42.028687, 100.992952)" fill="#8D9EB0">
                <rect x="2.5" y="0.773219382" width="1" height="5" rx="0.5"></rect>
                <g transform="translate(3.000000, 6.500000) rotate(90.000000) translate(-3.000000, -6.500000) translate(0.000000, 4.000000)">
                    <path d="M2.88775351,-0.425866237 C2.98755721,-0.684554916 3.15206769,-0.677565105 3.24917468,-0.425866237 L5.40050076,5.1503168 C5.50030446,5.40900548 5.36527212,5.61871408 5.08097484,5.61871408 L1.05595335,5.61871408 C0.779680363,5.61871408 0.639320451,5.40201566 0.736427439,5.1503168 L2.88775351,-0.425866237 Z" transform="translate(3.069450, 2.500722) rotate(90.000000) translate(-3.069450, -2.500722) "></path>
                </g>
            </g>
            <g transform="translate(43.028687, 39.000000)" fill="#8D9EB0">
                <rect x="2.5" y="0.773219382" width="1" height="5" rx="0.5"></rect>
                <g transform="translate(3.000000, 6.500000) rotate(90.000000) translate(-3.000000, -6.500000) translate(0.000000, 4.000000)">
                    <path d="M2.88775351,-0.425866237 C2.98755721,-0.684554916 3.15206769,-0.677565105 3.24917468,-0.425866237 L5.40050076,5.1503168 C5.50030446,5.40900548 5.36527212,5.61871408 5.08097484,5.61871408 L1.05595335,5.61871408 C0.779680363,5.61871408 0.639320451,5.40201566 0.736427439,5.1503168 L2.88775351,-0.425866237 Z" transform="translate(3.069450, 2.500722) rotate(90.000000) translate(-3.069450, -2.500722) "></path>
                </g>
            </g>
            <g transform="translate(250.028687, 45.992952)" fill="#8D9EB0">
                <rect x="2.5" y="0.773219382" width="1" height="5" rx="0.5"></rect>
                <g transform="translate(3.000000, 6.500000) rotate(90.000000) translate(-3.000000, -6.500000) translate(0.000000, 4.000000)">
                    <path d="M2.88775351,-0.425866237 C2.98755721,-0.684554916 3.15206769,-0.677565105 3.24917468,-0.425866237 L5.40050076,5.1503168 C5.50030446,5.40900548 5.36527212,5.61871408 5.08097484,5.61871408 L1.05595335,5.61871408 C0.779680363,5.61871408 0.639320451,5.40201566 0.736427439,5.1503168 L2.88775351,-0.425866237 Z" transform="translate(3.069450, 2.500722) rotate(90.000000) translate(-3.069450, -2.500722) "></path>
                </g>
            </g>
            <g transform="translate(45.028687, 139.992952) scale(1, -1) translate(-45.028687, -139.992952) translate(42.028687, 134.992952)" fill="#8D9EB0">
                <rect x="2.5" y="0.773219382" width="1" height="5" rx="0.5"></rect>
                <g transform="translate(3.000000, 6.500000) rotate(90.000000) translate(-3.000000, -6.500000) translate(0.000000, 4.000000)">
                    <path d="M2.88775351,-0.425866237 C2.98755721,-0.684554916 3.15206769,-0.677565105 3.24917468,-0.425866237 L5.40050076,5.1503168 C5.50030446,5.40900548 5.36527212,5.61871408 5.08097484,5.61871408 L1.05595335,5.61871408 C0.779680363,5.61871408 0.639320451,5.40201566 0.736427439,5.1503168 L2.88775351,-0.425866237 Z" transform="translate(3.069450, 2.500722) rotate(90.000000) translate(-3.069450, -2.500722) "></path>
                </g>
            </g>
            <g transform="translate(46.028687, 64.000000) scale(1, -1) translate(-46.028687, -64.000000) translate(43.028687, 59.000000)" fill="#8D9EB0">
                <rect x="2.5" y="0.773219382" width="1" height="5" rx="0.5"></rect>
                <g transform="translate(3.000000, 6.500000) rotate(90.000000) translate(-3.000000, -6.500000) translate(0.000000, 4.000000)">
                    <path d="M2.88775351,-0.425866237 C2.98755721,-0.684554916 3.15206769,-0.677565105 3.24917468,-0.425866237 L5.40050076,5.1503168 C5.50030446,5.40900548 5.36527212,5.61871408 5.08097484,5.61871408 L1.05595335,5.61871408 C0.779680363,5.61871408 0.639320451,5.40201566 0.736427439,5.1503168 L2.88775351,-0.425866237 Z" transform="translate(3.069450, 2.500722) rotate(90.000000) translate(-3.069450, -2.500722) "></path>
                </g>
            </g>
            <g transform="translate(252.028687, 19.992952) scale(1, -1) translate(-252.028687, -19.992952) translate(249.028687, 14.992952)" fill="#8D9EB0">
                <rect x="2.5" y="0.773219382" width="1" height="5" rx="0.5"></rect>
                <g transform="translate(3.000000, 6.500000) rotate(90.000000) translate(-3.000000, -6.500000) translate(0.000000, 4.000000)">
                    <path d="M2.88775351,-0.425866237 C2.98755721,-0.684554916 3.15206769,-0.677565105 3.24917468,-0.425866237 L5.40050076,5.1503168 C5.50030446,5.40900548 5.36527212,5.61871408 5.08097484,5.61871408 L1.05595335,5.61871408 C0.779680363,5.61871408 0.639320451,5.40201566 0.736427439,5.1503168 L2.88775351,-0.425866237 Z" transform="translate(3.069450, 2.500722) rotate(90.000000) translate(-3.069450, -2.500722) "></path>
                </g>
            </g>
            <g transform="translate(233.949219, 65.332520)" fill="#8D9EB0">
                <g transform="translate(3.026855, 2.500000) scale(-1, 1) translate(-3.026855, -2.500000) translate(0.026855, 0.000000)">
                    <path d="M2.88775351,-0.425866237 C2.98755721,-0.684554916 3.15206769,-0.677565105 3.24917468,-0.425866237 L5.40050076,5.1503168 C5.50030446,5.40900548 5.36527212,5.61871408 5.08097484,5.61871408 L1.05595335,5.61871408 C0.779680363,5.61871408 0.639320451,5.40201566 0.736427439,5.1503168 L2.88775351,-0.425866237 Z" transform="translate(3.069450, 2.500722) rotate(90.000000) translate(-3.069450, -2.500722) "></path>
                </g>
                <rect x="2.8794538" y="1.88944875" width="5" height="1" rx="0.5"></rect>
            </g>
            <g transform="translate(211.660326, 67.832520) scale(-1, 1) translate(-211.660326, -67.832520) translate(207.160326, 65.332520)" fill="#8D9EB0">
                <g transform="translate(3.026855, 2.500000) scale(-1, 1) translate(-3.026855, -2.500000) translate(0.026855, 0.000000)">
                    <path d="M2.88775351,-0.425866237 C2.98755721,-0.684554916 3.15206769,-0.677565105 3.24917468,-0.425866237 L5.40050076,5.1503168 C5.50030446,5.40900548 5.36527212,5.61871408 5.08097484,5.61871408 L1.05595335,5.61871408 C0.779680363,5.61871408 0.639320451,5.40201566 0.736427439,5.1503168 L2.88775351,-0.425866237 Z" transform="translate(3.069450, 2.500722) rotate(90.000000) translate(-3.069450, -2.500722) "></path>
                </g>
                <rect x="2.8794538" y="1.88944875" width="5.47838207" height="1" rx="0.5"></rect>
            </g>
        </g>
    </g>
</svg>
