<?xml version="1.0" encoding="UTF-8" standalone="no"?>
<svg width="290px" height="175px" viewBox="0 0 290 175" version="1.1" xmlns="http://www.w3.org/2000/svg" xmlns:xlink="http://www.w3.org/1999/xlink">
    <!-- Generator: Sketch 48.2 (47327) - http://www.bohemiancoding.com/sketch -->
    <title>SODFL-Labeled</title>
    <desc>Created with Sketch.</desc>
    <defs>
        <path d="M6.68144531,52.6795955 C6.68144531,52.1301552 7.13101752,51.6274153 7.66883284,51.5588319 L39.2940578,47.5259138 C39.8393769,47.4563735 40.2814453,47.8546885 40.2814453,48.3927211 L40.2814453,109.607279 C40.2814453,110.155544 39.8318731,110.54267 39.2940578,110.474086 L7.66883284,106.441168 C7.12351376,106.371628 6.68144531,105.875509 6.68144531,105.320405 L6.68144531,52.6795955 Z" id="path-1"></path>
        <rect id="path-2" x="82.776709" y="47.4" width="113.4" height="63.2" rx="2"></rect>
        <rect id="path-3" x="68.076709" y="68.4666667" width="28.35" height="21.0666667"></rect>
        <polygon id="path-4" points="185.16958 68.1429861 207.378076 68.1429861 207.378076 88.8859722 185.16958 88.8859722"></polygon>
        <polygon id="path-5" points="31.8814453 68.4666667 40.2814453 68.4666667 40.2814453 89.5333333 31.8814453 89.5333333"></polygon>
    </defs>
    <g stroke="none" stroke-width="1" fill="none" fill-rule="evenodd">
        <g>
            <g transform="translate(21.544394, 17.464936)">
                <g>
                    <use fill="#585858" fill-rule="evenodd" xlink:href="#path-1"></use>
                    <path stroke="#505050" stroke-width="1" d="M7.18144531,52.6795955 L7.18144531,105.320405 C7.18144531,105.621441 7.43406257,105.907181 7.73208173,105.945185 L39.3573067,109.978103 C39.599928,110.009042 39.7814453,109.850645 39.7814453,109.607279 L39.7814453,48.3927211 C39.7814453,48.1518147 39.5997232,47.9909838 39.3573067,48.0218973 L7.73208173,52.0548154 C7.44080351,52.0919598 7.18144531,52.3849875 7.18144531,52.6795955 Z"></path>
                </g>
                <g>
                    <use fill="#585858" fill-rule="evenodd" xlink:href="#path-2"></use>
                    <rect stroke="#505050" stroke-width="1" x="83.276709" y="47.9" width="112.4" height="62.2" rx="2"></rect>
                </g>
                <g>
                    <use fill="#D8D8D8" fill-rule="evenodd" xlink:href="#path-3"></use>
                    <rect stroke="#979797" stroke-width="1" x="68.576709" y="68.9666667" width="27.35" height="20.0666667"></rect>
                </g>
                <g>
                    <use fill="#D8D8D8" fill-rule="evenodd" xlink:href="#path-4"></use>
                    <path stroke="#979797" stroke-width="1" d="M185.66958,68.6429861 L185.66958,88.3859722 L206.878076,88.3859722 L206.878076,68.6429861 L185.66958,68.6429861 Z"></path>
                </g>
                <rect fill="#505050" fill-rule="evenodd" x="30.8314453" y="49.5066667" width="1.05" height="58.9866667"></rect>
                <polygon fill="#505050" fill-rule="evenodd" points="31.8814453 49.5066667 39.2314453 48.4533333 39.2314453 109.546667 31.8814453 108.493333"></polygon>
                <g>
                    <use fill="#D8D8D8" fill-rule="evenodd" xlink:href="#path-5"></use>
                    <path stroke="#979797" stroke-width="1" d="M32.3814453,68.9666667 L32.3814453,89.0333333 L39.7814453,89.0333333 L39.7814453,68.9666667 L32.3814453,68.9666667 Z"></path>
                </g>
            </g>
            <path d="M158.330349,19.7138664 C161.893114,19.7138664 163.674497,21.8140227 163.674497,24.9642573 L163.674497,27.2894305 C163.674497,30.7021846 161.649346,32.8398438 157.861564,32.8398438 L154.036279,32.8398438 L154.036279,19.7138664 L158.330349,19.7138664 Z M161.311821,27.3269332 L161.311821,24.9080031 C161.311821,22.770344 160.299246,21.5327518 158.217841,21.5327518 L156.398955,21.5327518 L156.398955,31.0209583 L157.880316,31.0209583 C160.167986,31.0209583 161.311821,29.820869 161.311821,27.3269332 Z" fill="#8D9EB0"></path>
            <path d="M154.874434,38.4776271 C158.4372,38.4776271 160.218582,40.5777835 160.218582,43.7280181 L160.218582,46.0531912 C160.218582,49.4659454 158.193432,51.6036045 154.405649,51.6036045 L150.580365,51.6036045 L150.580365,38.4776271 L154.874434,38.4776271 Z M157.855906,46.090694 L157.855906,43.6717639 C157.855906,41.5341047 156.843331,40.2965126 154.761926,40.2965126 L152.943041,40.2965126 L152.943041,49.7847191 L154.424401,49.7847191 C156.712071,49.7847191 157.855906,48.5846297 157.855906,46.090694 Z M167.550378,49.8222219 L169.8568,49.8222219 L169.8568,51.6036045 L162.581258,51.6036045 L162.581258,49.8222219 L165.262708,49.8222219 L165.262708,41.027817 L162.993789,42.1529008 L162.131225,40.6152863 L165.806498,38.4776271 L167.550378,38.4776271 L167.550378,49.8222219 Z" fill="#8D9EB0"></path>
            <polygon fill="#8D9EB0" points="103.988433 144.25423 109.313829 144.25423 109.313829 146.166873 101.625757 146.166873 101.625757 133.040895 103.988433 133.040895"></polygon>
            <path d="M49.3471745,52.9627075 L48.2595935,49.5124506 L43.7217556,49.5124506 L42.7279316,52.9627075 L40.3465043,52.9627075 L44.3593031,39.8367301 L47.5657918,39.8367301 L51.784856,52.9627075 L49.3471745,52.9627075 Z M45.9531718,41.486853 L44.2467947,47.6185596 L47.6970516,47.6185596 L45.9531718,41.486853 Z" fill="#8D9EB0"></path>
            <path d="M71.3465786,72.6072577 C73.634249,72.6072577 75.1343607,74.4448945 75.1343607,77.3326095 L75.1343607,78.3451849 C75.1343607,81.1016402 73.352978,83.0892882 71.0653077,83.0892882 C69.9964781,83.0892882 69.1339139,82.6955088 68.4401122,81.9829558 L68.2525982,82.84552 L66.4337128,82.84552 L66.4337128,68.9694868 L68.7588859,68.9694868 L68.7588859,73.6385845 C69.3964334,72.9822856 70.2589976,72.6072577 71.3465786,72.6072577 Z M72.8091875,78.4201905 L72.8091875,77.2576039 C72.8091875,75.3074587 72.1528887,74.3698889 70.8777937,74.3698889 C69.9777267,74.3698889 69.2651736,74.801171 68.7588859,75.4387185 L68.7588859,80.5015955 C69.2651736,81.045386 69.9027211,81.3454083 70.6715284,81.3454083 C71.9653747,81.3454083 72.8091875,80.3328329 72.8091875,78.4201905 Z" fill="#8D9EB0"></path>
            <path d="M247.346579,72.6072577 C249.634249,72.6072577 251.134361,74.4448945 251.134361,77.3326095 L251.134361,78.3451849 C251.134361,81.1016402 249.352978,83.0892882 247.065308,83.0892882 C245.996478,83.0892882 245.133914,82.6955088 244.440112,81.9829558 L244.252598,82.84552 L242.433713,82.84552 L242.433713,68.9694868 L244.758886,68.9694868 L244.758886,73.6385845 C245.396433,72.9822856 246.258998,72.6072577 247.346579,72.6072577 Z M248.809188,78.4201905 L248.809188,77.2576039 C248.809188,75.3074587 248.152889,74.3698889 246.877794,74.3698889 C245.977727,74.3698889 245.265174,74.801171 244.758886,75.4387185 L244.758886,80.5015955 C245.265174,81.045386 245.902721,81.3454083 246.671528,81.3454083 C247.965375,81.3454083 248.809188,80.3328329 248.809188,78.4201905 Z M258.203637,81.0641374 L260.510059,81.0641374 L260.510059,82.84552 L253.234517,82.84552 L253.234517,81.0641374 L255.915967,81.0641374 L255.915967,72.2697325 L253.647048,73.3948163 L252.784484,71.8572018 L256.459757,69.7195426 L258.203637,69.7195426 L258.203637,81.0641374 Z" fill="#8D9EB0"></path>
            <path d="M227.965088,25.955412 C227.965088,25.6806021 228.197021,25.4578247 228.465088,25.4578247 L228.465088,25.4578247 C228.74123,25.4578247 228.965088,25.6897299 228.965088,25.955412 L228.965088,82.517667 C228.965088,82.7924769 228.733154,83.0152543 228.465088,83.0152543 L228.465088,83.0152543 C228.188946,83.0152543 227.965088,82.7833491 227.965088,82.517667 L227.965088,25.955412 Z" fill="#8D9EB0"></path>
            <rect fill="#8D9EB0" x="89.5467529" y="25.4578247" width="1" height="59.1523437" rx="0.5"></rect>
            <rect fill="#8D9EB0" x="104.051758" y="42.4797974" width="1" height="21.8666103" rx="0.5"></rect>
            <rect fill="#8D9EB0" x="90.2988281" y="108.363586" width="1" height="32.4151664" rx="0.5"></rect>
            <rect fill="#8D9EB0" x="216.001465" y="42.4797974" width="1" height="21.8666103" rx="0.5"></rect>
            <rect fill="#8D9EB0" x="116.644043" y="108.363586" width="1" height="32.4151664" rx="0.5"></rect>
            <rect fill="#8D9EB0" x="28.0701904" y="45.3342006" width="1" height="23.1640293" rx="0.5"></rect>
            <rect fill="#8D9EB0" x="60.739624" y="45.5813599" width="1" height="18.8963013" rx="0.5"></rect>
            <g transform="translate(105.338379, 45.035950)" fill="#8D9EB0">
                <g transform="translate(3.000000, 2.500000) scale(-1, 1) translate(-3.000000, -2.500000) ">
                    <path d="M2.88775351,-0.425866237 C2.98755721,-0.684554916 3.15206769,-0.677565105 3.24917468,-0.425866237 L5.40050076,5.1503168 C5.50030446,5.40900548 5.36527212,5.61871408 5.08097484,5.61871408 L1.05595335,5.61871408 C0.779680363,5.61871408 0.639320451,5.40201566 0.736427439,5.1503168 L2.88775351,-0.425866237 Z" transform="translate(3.069450, 2.500722) rotate(90.000000) translate(-3.069450, -2.500722) "></path>
                </g>
                <rect x="2.85259834" y="1.88944875" width="39.9133318" height="1" rx="0.5"></rect>
            </g>
            <g transform="translate(91.338379, 25.035950)" fill="#8D9EB0">
                <g transform="translate(3.000000, 2.500000) scale(-1, 1) translate(-3.000000, -2.500000) ">
                    <path d="M2.88775351,-0.425866237 C2.98755721,-0.684554916 3.15206769,-0.677565105 3.24917468,-0.425866237 L5.40050076,5.1503168 C5.50030446,5.40900548 5.36527212,5.61871408 5.08097484,5.61871408 L1.05595335,5.61871408 C0.779680363,5.61871408 0.639320451,5.40201566 0.736427439,5.1503168 L2.88775351,-0.425866237 Z" transform="translate(3.069450, 2.500722) rotate(90.000000) translate(-3.069450, -2.500722) "></path>
                </g>
                <rect x="2.85259834" y="1.88944875" width="59.3742693" height="1" rx="0.5"></rect>
            </g>
            <g transform="translate(195.338379, 27.535950) scale(-1, 1) translate(-195.338379, -27.535950) translate(164.338379, 25.035950)" fill="#8D9EB0">
                <g transform="translate(3.000000, 2.500000) scale(-1, 1) translate(-3.000000, -2.500000) ">
                    <path d="M2.88775351,-0.425866237 C2.98755721,-0.684554916 3.15206769,-0.677565105 3.24917468,-0.425866237 L5.40050076,5.1503168 C5.50030446,5.40900548 5.36527212,5.61871408 5.08097484,5.61871408 L1.05595335,5.61871408 C0.779680363,5.61871408 0.639320451,5.40201566 0.736427439,5.1503168 L2.88775351,-0.425866237 Z" transform="translate(3.069450, 2.500722) rotate(90.000000) translate(-3.069450, -2.500722) "></path>
                </g>
                <rect x="2.85259834" y="1.88944875" width="59" height="1" rx="0.5"></rect>
            </g>
            <g transform="translate(193.113770, 47.535950) scale(-1, 1) translate(-193.113770, -47.535950) translate(171.613770, 45.035950)" fill="#8D9EB0">
                <g transform="translate(3.000000, 2.500000) scale(-1, 1) translate(-3.000000, -2.500000) ">
                    <path d="M2.88775351,-0.425866237 C2.98755721,-0.684554916 3.15206769,-0.677565105 3.24917468,-0.425866237 L5.40050076,5.1503168 C5.50030446,5.40900548 5.36527212,5.61871408 5.08097484,5.61871408 L1.05595335,5.61871408 C0.779680363,5.61871408 0.639320451,5.40201566 0.736427439,5.1503168 L2.88775351,-0.425866237 Z" transform="translate(3.069450, 2.500722) rotate(90.000000) translate(-3.069450, -2.500722) "></path>
                </g>
                <rect x="2.85259834" y="1.88944875" width="40" height="1" rx="0.5"></rect>
            </g>
            <g transform="translate(76.445563, 85.426331)" fill="#8D9EB0">
                <rect x="0.83666343" y="20.0880994" width="11.5976563" height="1" rx="0.5"></rect>
                <g transform="translate(1.024426, 21.938197)">
                    <g transform="translate(3.184082, 3.484497) rotate(-90.000000) translate(-3.184082, -3.484497) translate(0.184082, 0.984497)">
                        <path d="M2.88775351,-0.425866237 C2.98755721,-0.684554916 3.15206769,-0.677565105 3.24917468,-0.425866237 L5.40050076,5.1503168 C5.50030446,5.40900548 5.36527212,5.61871408 5.08097484,5.61871408 L1.05595335,5.61871408 C0.779680363,5.61871408 0.639320451,5.40201566 0.736427439,5.1503168 L2.88775351,-0.425866237 Z" transform="translate(3.069450, 2.500722) rotate(90.000000) translate(-3.069450, -2.500722) "></path>
                    </g>
                    <rect x="2.68408203" y="3.48449707" width="1" height="5" rx="0.5"></rect>
                </g>
                <rect x="0.83666343" y="0.877894316" width="11.5976563" height="1" rx="0.5"></rect>
            </g>
            <g transform="translate(217.710938, 64.702698)" fill="#8D9EB0">
                <rect x="0.6875" y="0.410365019" width="57.5839844" height="1" rx="0.5"></rect>
                <rect x="0.6875" y="61.9506836" width="57.5839844" height="1" rx="0.5"></rect>
            </g>
            <g transform="translate(267.710938, 65.702698)" fill="#8D9EB0">
                <g transform="translate(0.902832, 0.410365)">
                    <g transform="translate(3.184082, 3.484497) rotate(-90.000000) translate(-3.184082, -3.484497) translate(0.184082, 0.984497)">
                        <path d="M2.88775351,-0.425866237 C2.98755721,-0.684554916 3.15206769,-0.677565105 3.24917468,-0.425866237 L5.40050076,5.1503168 C5.50030446,5.40900548 5.36527212,5.61871408 5.08097484,5.61871408 L1.05595335,5.61871408 C0.779680363,5.61871408 0.639320451,5.40201566 0.736427439,5.1503168 L2.88775351,-0.425866237 Z" transform="translate(3.069450, 2.500722) rotate(90.000000) translate(-3.069450, -2.500722) "></path>
                    </g>
                    <rect x="2.68408203" y="3.48449707" width="1" height="18.8825423" rx="0.5"></rect>
                    <g transform="translate(3.184082, 3.484497) rotate(-90.000000) translate(-3.184082, -3.484497) translate(0.184082, 0.984497)">
                        <path d="M2.88775351,-0.425866237 C2.98755721,-0.684554916 3.15206769,-0.677565105 3.24917468,-0.425866237 L5.40050076,5.1503168 C5.50030446,5.40900548 5.36527212,5.61871408 5.08097484,5.61871408 L1.05595335,5.61871408 C0.779680363,5.61871408 0.639320451,5.40201566 0.736427439,5.1503168 L2.88775351,-0.425866237 Z" transform="translate(3.069450, 2.500722) rotate(90.000000) translate(-3.069450, -2.500722) "></path>
                    </g>
                    <rect x="2.68408203" y="3.48449707" width="1" height="18.8825423" rx="0.5"></rect>
                </g>
                <g transform="translate(3.902832, 49.910365) scale(1, -1) translate(-3.902832, -49.910365) translate(0.902832, 38.410365)">
                    <g transform="translate(3.184082, 3.484497) rotate(-90.000000) translate(-3.184082, -3.484497) translate(0.184082, 0.984497)">
                        <path d="M2.88775351,-0.425866237 C2.98755721,-0.684554916 3.15206769,-0.677565105 3.24917468,-0.425866237 L5.40050076,5.1503168 C5.50030446,5.40900548 5.36527212,5.61871408 5.08097484,5.61871408 L1.05595335,5.61871408 C0.779680363,5.61871408 0.639320451,5.40201566 0.736427439,5.1503168 L2.88775351,-0.425866237 Z" transform="translate(3.069450, 2.500722) rotate(90.000000) translate(-3.069450, -2.500722) "></path>
                    </g>
                    <rect x="2.68408203" y="3.48449707" width="1" height="18.8825423" rx="0.5"></rect>
                    <g transform="translate(3.184082, 3.484497) rotate(-90.000000) translate(-3.184082, -3.484497) translate(0.184082, 0.984497)">
                        <path d="M2.88775351,-0.425866237 C2.98755721,-0.684554916 3.15206769,-0.677565105 3.24917468,-0.425866237 L5.40050076,5.1503168 C5.50030446,5.40900548 5.36527212,5.61871408 5.08097484,5.61871408 L1.05595335,5.61871408 C0.779680363,5.61871408 0.639320451,5.40201566 0.736427439,5.1503168 L2.88775351,-0.425866237 Z" transform="translate(3.069450, 2.500722) rotate(90.000000) translate(-3.069450, -2.500722) "></path>
                    </g>
                    <rect x="2.68408203" y="3.48449707" width="1" height="18.8825423" rx="0.5"></rect>
                </g>
            </g>
            <g transform="translate(62.538337, 44.475098)" fill="#8D9EB0">
                <g transform="translate(3.026855, 2.500000) scale(-1, 1) translate(-3.026855, -2.500000) translate(0.026855, 0.000000)">
                    <path d="M2.88775351,-0.425866237 C2.98755721,-0.684554916 3.15206769,-0.677565105 3.24917468,-0.425866237 L5.40050076,5.1503168 C5.50030446,5.40900548 5.36527212,5.61871408 5.08097484,5.61871408 L1.05595335,5.61871408 C0.779680363,5.61871408 0.639320451,5.40201566 0.736427439,5.1503168 L2.88775351,-0.425866237 Z" transform="translate(3.069450, 2.500722) rotate(90.000000) translate(-3.069450, -2.500722) "></path>
                </g>
                <rect x="2.8794538" y="1.88944875" width="9.3314359" height="1" rx="0.5"></rect>
            </g>
            <g transform="translate(118.538337, 133.975098)" fill="#8D9EB0">
                <g transform="translate(3.026855, 2.500000) scale(-1, 1) translate(-3.026855, -2.500000) translate(0.026855, 0.000000)">
                    <path d="M2.88775351,-0.425866237 C2.98755721,-0.684554916 3.15206769,-0.677565105 3.24917468,-0.425866237 L5.40050076,5.1503168 C5.50030446,5.40900548 5.36527212,5.61871408 5.08097484,5.61871408 L1.05595335,5.61871408 C0.779680363,5.61871408 0.639320451,5.40201566 0.736427439,5.1503168 L2.88775351,-0.425866237 Z" transform="translate(3.069450, 2.500722) rotate(90.000000) translate(-3.069450, -2.500722) "></path>
                </g>
                <rect x="2.8794538" y="1.88944875" width="9.3314359" height="1" rx="0.5"></rect>
            </g>
            <g transform="translate(20.401171, 46.975098) scale(-1, 1) translate(-20.401171, -46.975098) translate(14.401171, 44.475098)" fill="#8D9EB0">
                <g transform="translate(3.026855, 2.500000) scale(-1, 1) translate(-3.026855, -2.500000) translate(0.026855, 0.000000)">
                    <path d="M2.88775351,-0.425866237 C2.98755721,-0.684554916 3.15206769,-0.677565105 3.24917468,-0.425866237 L5.40050076,5.1503168 C5.50030446,5.40900548 5.36527212,5.61871408 5.08097484,5.61871408 L1.05595335,5.61871408 C0.779680363,5.61871408 0.639320451,5.40201566 0.736427439,5.1503168 L2.88775351,-0.425866237 Z" transform="translate(3.069450, 2.500722) rotate(90.000000) translate(-3.069450, -2.500722) "></path>
                </g>
                <rect x="2.8794538" y="1.88944875" width="9" height="1" rx="0.5"></rect>
            </g>
            <g transform="translate(83.401171, 136.475098) scale(-1, 1) translate(-83.401171, -136.475098) translate(77.401171, 133.975098)" fill="#8D9EB0">
                <g transform="translate(3.026855, 2.500000) scale(-1, 1) translate(-3.026855, -2.500000) translate(0.026855, 0.000000)">
                    <path d="M2.88775351,-0.425866237 C2.98755721,-0.684554916 3.15206769,-0.677565105 3.24917468,-0.425866237 L5.40050076,5.1503168 C5.50030446,5.40900548 5.36527212,5.61871408 5.08097484,5.61871408 L1.05595335,5.61871408 C0.779680363,5.61871408 0.639320451,5.40201566 0.736427439,5.1503168 L2.88775351,-0.425866237 Z" transform="translate(3.069450, 2.500722) rotate(90.000000) translate(-3.069450, -2.500722) "></path>
                </g>
                <rect x="2.8794538" y="1.88944875" width="9" height="1" rx="0.5"></rect>
            </g>
            <path d="M213.952748,144.25423 L219.278145,144.25423 L219.278145,146.166873 L211.590072,146.166873 L211.590072,133.040895 L213.952748,133.040895 L213.952748,144.25423 Z M225.559862,144.38549 L227.866284,144.38549 L227.866284,146.166873 L220.590742,146.166873 L220.590742,144.38549 L223.272192,144.38549 L223.272192,135.591085 L221.003273,136.716169 L220.140709,135.178555 L223.815982,133.040895 L225.559862,133.040895 L225.559862,144.38549 Z" fill="#8D9EB0"></path>
            <rect fill="#8D9EB0" x="207.298828" y="108.363586" width="1" height="32.4151664" rx="0.5"></rect>
            <rect fill="#8D9EB0" x="227.644043" y="108.363586" width="1" height="32.4151664" rx="0.5"></rect>
            <g transform="translate(230.444587, 133.975098)" fill="#8D9EB0">
                <g transform="translate(3.026855, 2.500000) scale(-1, 1) translate(-3.026855, -2.500000) translate(0.026855, 0.000000)">
                    <path d="M2.88775351,-0.425866237 C2.98755721,-0.684554916 3.15206769,-0.677565105 3.24917468,-0.425866237 L5.40050076,5.1503168 C5.50030446,5.40900548 5.36527212,5.61871408 5.08097484,5.61871408 L1.05595335,5.61871408 C0.779680363,5.61871408 0.639320451,5.40201566 0.736427439,5.1503168 L2.88775351,-0.425866237 Z" transform="translate(3.069450, 2.500722) rotate(90.000000) translate(-3.069450, -2.500722) "></path>
                </g>
                <rect x="2.8794538" y="1.88944875" width="9.3314359" height="1" rx="0.5"></rect>
            </g>
            <g transform="translate(200.401171, 136.475098) scale(-1, 1) translate(-200.401171, -136.475098) translate(194.401171, 133.975098)" fill="#8D9EB0">
                <g transform="translate(3.026855, 2.500000) scale(-1, 1) translate(-3.026855, -2.500000) translate(0.026855, 0.000000)">
                    <path d="M2.88775351,-0.425866237 C2.98755721,-0.684554916 3.15206769,-0.677565105 3.24917468,-0.425866237 L5.40050076,5.1503168 C5.50030446,5.40900548 5.36527212,5.61871408 5.08097484,5.61871408 L1.05595335,5.61871408 C0.779680363,5.61871408 0.639320451,5.40201566 0.736427439,5.1503168 L2.88775351,-0.425866237 Z" transform="translate(3.069450, 2.500722) rotate(90.000000) translate(-3.069450, -2.500722) "></path>
                </g>
                <rect x="2.8794538" y="1.88944875" width="9" height="1" rx="0.5"></rect>
            </g>
            <polygon fill="#8D9EB0" points="274.603227 91.5327518 269.296582 91.5327518 269.296582 95.2642797 274.190696 95.2642797 274.190696 97.0831651 269.296582 97.0831651 269.296582 101.002207 274.603227 101.002207 274.603227 102.839844 266.933906 102.839844 266.933906 89.7138664 274.603227 89.7138664"></polygon>
            <g transform="translate(80.276367, 80.070312) scale(-1, 1) translate(-80.276367, -80.070312) translate(75.776367, 74.570312)" fill="#8D9EB0">
                <g transform="translate(3.377686, 7.643614) rotate(90.000000) translate(-3.377686, -7.643614) translate(0.377686, 5.143614)">
                    <path d="M2.88775351,-0.425866237 C2.98755721,-0.684554916 3.15206769,-0.677565105 3.24917468,-0.425866237 L5.40050076,5.1503168 C5.50030446,5.40900548 5.36527212,5.61871408 5.08097484,5.61871408 L1.05595335,5.61871408 C0.779680363,5.61871408 0.639320451,5.40201566 0.736427439,5.1503168 L2.88775351,-0.425866237 Z" transform="translate(3.069450, 2.500722) rotate(90.000000) translate(-3.069450, -2.500722) "></path>
                </g>
                <rect x="2.8718446" y="0.708799417" width="1" height="5" rx="0.5"></rect>
                <rect x="2.8718446" y="0.708799417" width="6" height="1" rx="0.5"></rect>
            </g>
            <g transform="translate(237.501953, 80.070312) scale(-1, -1) rotate(900.000000) translate(-237.501953, -80.070312) translate(233.001953, 74.570312)" fill="#8D9EB0">
                <g transform="translate(3.377686, 7.643614) rotate(90.000000) translate(-3.377686, -7.643614) translate(0.377686, 5.143614)">
                    <path d="M2.88775351,-0.425866237 C2.98755721,-0.684554916 3.15206769,-0.677565105 3.24917468,-0.425866237 L5.40050076,5.1503168 C5.50030446,5.40900548 5.36527212,5.61871408 5.08097484,5.61871408 L1.05595335,5.61871408 C0.779680363,5.61871408 0.639320451,5.40201566 0.736427439,5.1503168 L2.88775351,-0.425866237 Z" transform="translate(3.069450, 2.500722) rotate(90.000000) translate(-3.069450, -2.500722) "></path>
                </g>
                <rect x="2.8718446" y="0.708799417" width="1" height="5" rx="0.5"></rect>
                <rect x="2.8718446" y="0.708799417" width="6" height="1" rx="0.5"></rect>
            </g>
            <rect fill="#8D9EB0" x="230.282227" y="105.51443" width="11.5976563" height="1" rx="0.5"></rect>
            <g transform="translate(233.469989, 107.954372)" fill="#8D9EB0">
                <g transform="translate(3.184082, 3.484497) rotate(-90.000000) translate(-3.184082, -3.484497) translate(0.184082, 0.984497)">
                    <path d="M2.88775351,-0.425866237 C2.98755721,-0.684554916 3.15206769,-0.677565105 3.24917468,-0.425866237 L5.40050076,5.1503168 C5.50030446,5.40900548 5.36527212,5.61871408 5.08097484,5.61871408 L1.05595335,5.61871408 C0.779680363,5.61871408 0.639320451,5.40201566 0.736427439,5.1503168 L2.88775351,-0.425866237 Z" transform="translate(3.069450, 2.500722) rotate(90.000000) translate(-3.069450, -2.500722) "></path>
                </g>
                <rect x="2.68408203" y="3.48449707" width="1" height="5" rx="0.5"></rect>
            </g>
            <rect fill="#8D9EB0" x="230.282227" y="86.3042252" width="11.5976563" height="1" rx="0.5"></rect>
        </g>
    </g>
</svg>
