<?xml version="1.0" encoding="UTF-8" standalone="no"?>
<svg width="200px" height="150px" viewBox="0 0 200 150" version="1.1" xmlns="http://www.w3.org/2000/svg" xmlns:xlink="http://www.w3.org/1999/xlink">
    <!-- Generator: Sketch 48.2 (47327) - http://www.bohemiancoding.com/sketch -->
    <title>SODFL</title>
    <desc>Created with Sketch.</desc>
    <defs>
        <path d="M6.36328125,50.0690177 C6.36328125,49.5160586 6.81564331,49.010293 7.35606766,48.9415949 L37.3704948,45.1262017 C37.9187956,45.0565024 38.3632812,45.4484582 38.3632812,45.9913525 L38.3632812,104.008648 C38.3632812,104.556156 37.9109192,104.942496 37.3704948,104.873798 L7.35606766,101.058405 C6.80776686,100.988706 6.36328125,100.483833 6.36328125,99.9309823 L6.36328125,50.0690177 Z" id="path-1"></path>
        <rect id="path-2" x="78.8349609" y="45" width="108" height="60" rx="2"></rect>
        <rect id="path-3" x="64.8349609" y="65" width="27" height="20"></rect>
        <polygon id="path-4" points="176.351981 64.6927083 197.50293 64.6927083 197.50293 84.3854167 176.351981 84.3854167"></polygon>
        <polygon id="path-5" points="30.3632812 65 38.3632812 65 38.3632812 85 30.3632812 85"></polygon>
    </defs>
    <g stroke="none" stroke-width="1" fill="none" fill-rule="evenodd">
        <g>
            <g>
                <use fill="#585858" fill-rule="evenodd" xlink:href="#path-1"></use>
                <path stroke="#505050" stroke-width="1" d="M6.86328125,50.0690177 L6.86328125,99.9309823 C6.86328125,100.232155 7.12065934,100.524457 7.41911959,100.562397 L37.4335468,104.37779 C37.6798835,104.409104 37.8632812,104.250282 37.8632812,104.008648 L37.8632812,45.9913525 C37.8632812,45.7488674 37.6823164,45.5905869 37.4335468,45.6222102 L7.41911959,49.4376035 C7.12526093,49.4749584 6.86328125,49.7710263 6.86328125,50.0690177 Z"></path>
            </g>
            <g>
                <use fill="#585858" fill-rule="evenodd" xlink:href="#path-2"></use>
                <rect stroke="#505050" stroke-width="1" x="79.3349609" y="45.5" width="107" height="59" rx="2"></rect>
            </g>
            <g>
                <use fill="#D8D8D8" fill-rule="evenodd" xlink:href="#path-3"></use>
                <rect stroke="#979797" stroke-width="1" x="65.3349609" y="65.5" width="26" height="19"></rect>
            </g>
            <g>
                <use fill="#D8D8D8" fill-rule="evenodd" xlink:href="#path-4"></use>
                <path stroke="#979797" stroke-width="1" d="M176.851981,65.1927083 L176.851981,83.8854167 L197.00293,83.8854167 L197.00293,65.1927083 L176.851981,65.1927083 Z"></path>
            </g>
            <rect fill="#505050" x="29.3632812" y="47" width="1" height="56"></rect>
            <polygon fill="#505050" points="30.3632812 47 37.3632812 46 37.3632812 104 30.3632812 103"></polygon>
            <g>
                <use fill="#D8D8D8" fill-rule="evenodd" xlink:href="#path-5"></use>
                <path stroke="#979797" stroke-width="1" d="M30.8632812,65.5 L30.8632812,84.5 L37.8632813,84.5 L37.8632813,65.5 L30.8632813,65.5 Z"></path>
            </g>
        </g>
    </g>
</svg>