<?xml version="1.0" encoding="UTF-8"?>
<svg width="290px" height="175px" viewBox="0 0 290 175" version="1.1" xmlns="http://www.w3.org/2000/svg" xmlns:xlink="http://www.w3.org/1999/xlink">
    <!-- Generator: Sketch 50.2 (55047) - http://www.bohemiancoding.com/sketch -->
    <title>SOIC-SOP-Labeled Thermal</title>
    <desc>Created with Sketch.</desc>
    <defs>
        <path d="M150,67 L271,67 L271,110 L150,110 L150,67 Z" id="path-1"></path>
        <mask id="mask-2" maskContentUnits="userSpaceOnUse" maskUnits="objectBoundingBox" x="0" y="0" width="121" height="43" fill="white">
            <use xlink:href="#path-1"></use>
        </mask>
    </defs>
    <g id="SOIC-SOP-Labeled-Thermal" stroke="none" stroke-width="1" fill="none" fill-rule="evenodd">
        <g id="Group-2" transform="translate(99.128906, 13.156250)" fill="#8D9EB0">
            <path d="M45,4.50093874 C45,4.22427791 45.2319336,4 45.5,4 L45.5,4 C45.7761424,4 46,4.22597146 46,4.50093874 L46,45.4990613 C46,45.7757221 45.7680664,46 45.5,46 L45.5,46 C45.2238576,46 45,45.7740285 45,45.4990613 L45,4.50093874 Z" id="Rectangle-93"></path>
            <rect id="Rectangle-93" x="175" y="4" width="1" height="42" rx="0.5"></rect>
            <rect id="Rectangle-95" x="121" y="6" width="52" height="1" rx="0.5"></rect>
            <g id="triangle" transform="translate(168.000000, 4.000000)">
                <path d="M3.88775351,-0.425866237 C3.98755721,-0.684554916 4.15206769,-0.677565105 4.24917468,-0.425866237 L6.40050076,5.1503168 C6.50030446,5.40900548 6.36527212,5.61871408 6.08097484,5.61871408 L2.05595335,5.61871408 C1.77968036,5.61871408 1.63932045,5.40201566 1.73642744,5.1503168 L3.88775351,-0.425866237 Z" id="Triangle-1" transform="translate(4.069450, 2.500722) rotate(90.000000) translate(-4.069450, -2.500722) "></path>
            </g>
            <g id="Group" transform="translate(73.000000, 6.500000) scale(-1, 1) translate(-73.000000, -6.500000) translate(45.000000, 4.000000)">
                <rect id="Rectangle-95" x="0" y="2" width="52" height="1" rx="0.5"></rect>
                <g id="triangle" transform="translate(48.000000, 0.000000)">
                    <path d="M3.88775351,-0.425866237 C3.98755721,-0.684554916 4.15206769,-0.677565105 4.24917468,-0.425866237 L6.40050076,5.1503168 C6.50030446,5.40900548 6.36527212,5.61871408 6.08097484,5.61871408 L2.05595335,5.61871408 C1.77968036,5.61871408 1.63932045,5.40201566 1.73642744,5.1503168 L3.88775351,-0.425866237 Z" id="Triangle-1" transform="translate(4.069450, 2.500722) rotate(90.000000) translate(-4.069450, -2.500722) "></path>
                </g>
            </g>
            <path d="M110.29407,0 C113.856835,0 115.638218,2.10015638 115.638218,5.25039095 L115.638218,7.57556409 C115.638218,10.9883182 113.613067,13.1259774 109.825285,13.1259774 L106,13.1259774 L106,0 L110.29407,0 Z M113.275542,7.61306688 L113.275542,5.19413677 C113.275542,3.05647759 112.262966,1.81888544 110.181561,1.81888544 L108.362676,1.81888544 L108.362676,11.3070919 L109.844036,11.3070919 C112.131707,11.3070919 113.275542,10.1070026 113.275542,7.61306688 Z" id="D"></path>
            <rect id="Rectangle-132" x="23" y="48" width="19" height="1" rx="0.5"></rect>
            <rect id="Rectangle-133" x="23" y="99.3564453" width="19" height="1" rx="0.5"></rect>
            <rect id="Rectangle-133" x="0.729492188" y="128.232422" width="53.3125" height="1" rx="0.5"></rect>
            <rect id="Rectangle-133" x="1.9270423" y="17.0019531" width="52.1149499" height="1" rx="0.5"></rect>
            <g id="Group" transform="translate(8.500000, 41.501953) scale(-1, 1) rotate(-90.000000) translate(-8.500000, -41.501953) translate(-16.000000, 39.001953)">
                <rect id="Rectangle-95" x="-4.47641924e-13" y="2" width="46.0573711" height="1" rx="0.5"></rect>
                <g id="triangle" transform="translate(41.000000, 0.000000)">
                    <path d="M3.88775351,-0.425866237 C3.98755721,-0.684554916 4.15206769,-0.677565105 4.24917468,-0.425866237 L6.40050076,5.1503168 C6.50030446,5.40900548 6.36527212,5.61871408 6.08097484,5.61871408 L2.05595335,5.61871408 C1.77968036,5.61871408 1.63932045,5.40201566 1.73642744,5.1503168 L3.88775351,-0.425866237 Z" id="Triangle-1" transform="translate(4.069450, 2.500722) rotate(90.000000) translate(-4.069450, -2.500722) "></path>
                </g>
            </g>
            <path d="M8.59980596,83 C8.32366359,83 8.09980596,83.2846226 8.09980596,83.6460865 L8.09980596,123.485975 C8.09980596,123.842798 8.33173956,124.132061 8.59980596,124.132061 L8.59980596,124.132061 C8.87594834,124.132061 9.09980596,123.847438 9.09980596,123.485975 L9.09980596,83.6460865 C9.09980596,83.2892628 8.86787237,83 8.59980596,83 L8.59980596,83" id="Rectangle-95"></path>
            <g id="triangle" transform="translate(8.500000, 125.232422) scale(-1, 1) rotate(90.000000) translate(-8.500000, -125.232422) translate(4.500000, 122.732422)">
                <path d="M3.88775351,-0.425866237 C3.98755721,-0.684554916 4.15206769,-0.677565105 4.24917468,-0.425866237 L6.40050076,5.1503168 C6.50030446,5.40900548 6.36527212,5.61871408 6.08097484,5.61871408 L2.05595335,5.61871408 C1.77968036,5.61871408 1.63932045,5.40201566 1.73642744,5.1503168 L3.88775351,-0.425866237 Z" id="Triangle-1" transform="translate(4.069450, 2.500722) rotate(90.000000) translate(-4.069450, -2.500722) "></path>
            </g>
            <g id="triangle" transform="translate(31.500000, 95.356445) scale(-1, 1) rotate(90.000000) translate(-31.500000, -95.356445) translate(27.500000, 92.856445)">
                <path d="M3.88775351,-0.425866237 C3.98755721,-0.684554916 4.15206769,-0.677565105 4.24917468,-0.425866237 L6.40050076,5.1503168 C6.50030446,5.40900548 6.36527212,5.61871408 6.08097484,5.61871408 L2.05595335,5.61871408 C1.77968036,5.61871408 1.63932045,5.40201566 1.73642744,5.1503168 L3.88775351,-0.425866237 Z" id="Triangle-1" transform="translate(4.069450, 2.500722) rotate(90.000000) translate(-4.069450, -2.500722) "></path>
            </g>
            <g id="triangle" transform="translate(141.906250, 142.014648) scale(-1, 1) translate(-141.906250, -142.014648) translate(137.906250, 139.514648)">
                <path d="M3.88775351,-0.425866237 C3.98755721,-0.684554916 4.15206769,-0.677565105 4.24917468,-0.425866237 L6.40050076,5.1503168 C6.50030446,5.40900548 6.36527212,5.61871408 6.08097484,5.61871408 L2.05595335,5.61871408 C1.77968036,5.61871408 1.63932045,5.40201566 1.73642744,5.1503168 L3.88775351,-0.425866237 Z" id="Triangle-1" transform="translate(4.069450, 2.500722) rotate(90.000000) translate(-4.069450, -2.500722) "></path>
            </g>
            <g id="triangle" transform="translate(31.500000, 52.000000) rotate(-90.000000) translate(-31.500000, -52.000000) translate(27.500000, 49.500000)">
                <path d="M3.88775351,-0.425866237 C3.98755721,-0.684554916 4.15206769,-0.677565105 4.24917468,-0.425866237 L6.40050076,5.1503168 C6.50030446,5.40900548 6.36527212,5.61871408 6.08097484,5.61871408 L2.05595335,5.61871408 C1.77968036,5.61871408 1.63932045,5.40201566 1.73642744,5.1503168 L3.88775351,-0.425866237 Z" id="Triangle-1" transform="translate(4.069450, 2.500722) rotate(90.000000) translate(-4.069450, -2.500722) "></path>
            </g>
            <polygon id="E" points="12.6382177 69.6211307 7.33157254 69.6211307 7.33157254 73.3526586 12.225687 73.3526586 12.225687 75.171544 7.33157254 75.171544 7.33157254 79.0905858 12.6382177 79.0905858 12.6382177 80.9282227 4.96889661 80.9282227 4.96889661 67.8022453 12.6382177 67.8022453"></polygon>
            <path d="M29.6693211,69.8188854 L24.3626759,69.8188854 L24.3626759,73.5504133 L29.2567904,73.5504133 L29.2567904,75.3692987 L24.3626759,75.3692987 L24.3626759,79.2883406 L29.6693211,79.2883406 L29.6693211,81.1259774 L22,81.1259774 L22,68 L29.6693211,68 L29.6693211,69.8188854 Z M37.0386198,79.3445947 L39.3450415,79.3445947 L39.3450415,81.1259774 L32.0694998,81.1259774 L32.0694998,79.3445947 L34.7509495,79.3445947 L34.7509495,70.5501899 L32.4820305,71.6752737 L31.6194663,70.1376592 L35.29474,68 L37.0386198,68 L37.0386198,79.3445947 Z" id="E1"></path>
            <rect id="Rectangle-134" x="31" y="52" width="1" height="14.1198014" rx="0.5"></rect>
            <rect id="Rectangle-134" x="31" y="83" width="1" height="11.4215088" rx="0.5"></rect>
            <rect id="Rectangle-137" x="119.875" y="132.514648" width="1" height="13" rx="0.5"></rect>
            <rect id="Rectangle-137" x="54" y="132" width="1" height="13" rx="0.5"></rect>
            <rect id="Rectangle-137" x="66" y="132" width="1" height="13" rx="0.5"></rect>
            <rect id="Rectangle-137" x="138.90625" y="132.514648" width="1" height="13" rx="0.5"></rect>
            <path d="M134.726305,144.132998 C134.726305,144.545528 134.688802,144.958059 134.651299,145.258081 L128.219571,145.258081 C128.257073,147.170724 129.138389,148.014537 130.863517,148.014537 C131.951098,148.014537 132.757408,147.620757 133.526216,147.189475 L134.351277,148.577079 C133.507464,149.214626 132.157364,149.758417 130.713506,149.758417 C127.67578,149.758417 125.950652,147.752017 125.950652,145.051816 L125.950652,144.020489 C125.950652,141.320288 127.638277,139.276386 130.413484,139.276386 C133.132436,139.276386 134.726305,140.964012 134.726305,144.132998 Z M132.6449,143.739218 L132.6449,143.645461 C132.6449,141.920333 131.876093,140.982763 130.432235,140.982763 C129.007129,140.982763 128.257073,141.920333 128.219571,143.739218 L132.6449,143.739218 Z" id="e"></path>
            <path d="M81.5254859,138.761738 C83.8131562,138.761738 85.3132679,140.599374 85.3132679,143.487089 L85.3132679,144.499665 C85.3132679,147.25612 83.5318853,149.243768 81.244215,149.243768 C80.1753854,149.243768 79.3128211,148.849989 78.6190195,148.137436 L78.4315055,149 L76.6126201,149 L76.6126201,135.123967 L78.9377932,135.123967 L78.9377932,139.793064 C79.5753407,139.136766 80.4379049,138.761738 81.5254859,138.761738 Z M82.9880948,144.57467 L82.9880948,143.412084 C82.9880948,141.461939 82.3317959,140.524369 81.056701,140.524369 C80.156634,140.524369 79.4440809,140.955651 78.9377932,141.593198 L78.9377932,146.656075 C79.4440809,147.199866 80.0816284,147.499888 80.8504356,147.499888 C82.144282,147.499888 82.9880948,146.487313 82.9880948,144.57467 Z" id="b"></path>
            <rect id="Rectangle-144" x="143.90625" y="141.514648" width="4" height="1" rx="0.5"></rect>
            <g id="triangle" transform="translate(69.000000, 141.500000) scale(-1, 1) translate(-69.000000, -141.500000) translate(65.000000, 139.000000)">
                <path d="M3.88775351,-0.425866237 C3.98755721,-0.684554916 4.15206769,-0.677565105 4.24917468,-0.425866237 L6.40050076,5.1503168 C6.50030446,5.40900548 6.36527212,5.61871408 6.08097484,5.61871408 L2.05595335,5.61871408 C1.77968036,5.61871408 1.63932045,5.40201566 1.73642744,5.1503168 L3.88775351,-0.425866237 Z" id="Triangle-1" transform="translate(4.069450, 2.500722) rotate(90.000000) translate(-4.069450, -2.500722) "></path>
            </g>
            <rect id="Rectangle-144" x="71" y="141" width="4" height="1" rx="0.5"></rect>
            <g id="triangle" transform="translate(117.875000, 142.014648) scale(-1, 1) rotate(180.000000) translate(-117.875000, -142.014648) translate(113.875000, 139.514648)">
                <path d="M3.88775351,-0.425866237 C3.98755721,-0.684554916 4.15206769,-0.677565105 4.24917468,-0.425866237 L6.40050076,5.1503168 C6.50030446,5.40900548 6.36527212,5.61871408 6.08097484,5.61871408 L2.05595335,5.61871408 C1.77968036,5.61871408 1.63932045,5.40201566 1.73642744,5.1503168 L3.88775351,-0.425866237 Z" id="Triangle-1" transform="translate(4.069450, 2.500722) rotate(90.000000) translate(-4.069450, -2.500722) "></path>
            </g>
            <path d="M115.875,142.014648 C115.875,142.290791 115.659943,142.514648 115.384521,142.514648 L112.365479,142.514648 C112.094595,142.514648 111.875,142.282715 111.875,142.014648 L111.875,142.014648 C111.875,141.738506 112.090057,141.514648 112.365479,141.514648 L115.384521,141.514648 C115.655405,141.514648 115.875,141.746582 115.875,142.014648 L115.875,142.014648" id="Rectangle-144"></path>
            <g id="triangle" transform="translate(52.000000, 141.500000) scale(-1, 1) rotate(180.000000) translate(-52.000000, -141.500000) translate(48.000000, 139.000000)">
                <path d="M3.88775351,-0.425866237 C3.98755721,-0.684554916 4.15206769,-0.677565105 4.24917468,-0.425866237 L6.40050076,5.1503168 C6.50030446,5.40900548 6.36527212,5.61871408 6.08097484,5.61871408 L2.05595335,5.61871408 C1.77968036,5.61871408 1.63932045,5.40201566 1.73642744,5.1503168 L3.88775351,-0.425866237 Z" id="Triangle-1" transform="translate(4.069450, 2.500722) rotate(90.000000) translate(-4.069450, -2.500722) "></path>
            </g>
            <path d="M50,141.5 C50,141.776142 49.7849426,142 49.5095215,142 L46.4904785,142 C46.2195947,142 46,141.768066 46,141.5 L46,141.5 C46,141.223858 46.2150574,141 46.4904785,141 L49.5095215,141 C49.7804053,141 50,141.231934 50,141.5 L50,141.5" id="Rectangle-144"></path>
        </g>
        <g id="SOIC-SOP" transform="translate(144.423955, 29.295166)">
            <g id="topview" transform="translate(0.969339, 0.734945)">
                <path d="M9.66608361,0.5 L9.66608361,31.683138 L21.2694486,31.683138 L21.2694486,0.5 L9.66608361,0.5 Z" id="Rectangle-32" stroke="#979797" fill="#D8D8D8"></path>
                <polygon id="Rectangle-33" fill="#979797" points="9.16608361 12.6433757 21.7694486 12.6433757 21.7694486 13.7927734 9.16608361 13.7927734"></polygon>
                <path d="M30.2897717,0.5 L30.2897717,31.683138 L41.8931367,31.683138 L41.8931367,0.5 L30.2897717,0.5 Z" id="Rectangle-32" stroke="#979797" fill="#D8D8D8"></path>
                <polygon id="Rectangle-33" fill="#979797" points="29.7897717 12.6433757 42.3931367 12.6433757 42.3931367 13.7927734 29.7897717 13.7927734"></polygon>
                <rect id="Rectangle-32" stroke="#979797" fill="#D8D8D8" x="49.7676994" y="0.5" width="11.603365" height="31.183138"></rect>
                <polygon id="Rectangle-33" fill="#979797" points="49.2676994 12.6433757 61.8710644 12.6433757 61.8710644 13.7927734 49.2676994 13.7927734"></polygon>
                <rect id="Rectangle-32" stroke="#979797" fill="#D8D8D8" x="70.3913876" y="0.5" width="11.603365" height="31.183138"></rect>
                <polygon id="Rectangle-33" fill="#979797" points="69.8913876 12.6433757 82.4947525 12.6433757 82.4947525 13.7927734 69.8913876 13.7927734"></polygon>
                <rect id="Rectangle-32" stroke="#979797" fill="#D8D8D8" x="89.8693152" y="0.5" width="11.603365" height="31.183138"></rect>
                <polygon id="Rectangle-33" fill="#979797" points="89.3693152 12.6433757 101.97268 12.6433757 101.97268 13.7927734 89.3693152 13.7927734"></polygon>
                <rect id="Rectangle-32" stroke="#979797" fill="#D8D8D8" x="109.347243" y="0.5" width="11.603365" height="31.183138"></rect>
                <polygon id="Rectangle-33" fill="#979797" points="108.847243 12.6433757 121.450608 12.6433757 121.450608 13.7927734 108.847243 13.7927734"></polygon>
                <g id="Group-2" transform="translate(63.804847, 98.439779) rotate(180.000000) translate(-63.804847, -98.439779) translate(7.304847, 81.939779)">
                    <rect id="Rectangle-32" stroke="#979797" fill="#D8D8D8" x="0.5" y="0.5" width="11.603365" height="31.183138"></rect>
                    <rect id="Rectangle-33" fill="#979797" x="1.45994328e-14" y="12.6433757" width="12.603365" height="1.14939779"></rect>
                    <rect id="Rectangle-32" stroke="#979797" fill="#D8D8D8" x="19.9779277" y="0.5" width="11.603365" height="31.183138"></rect>
                    <rect id="Rectangle-33" fill="#979797" x="19.4779277" y="12.6433757" width="12.603365" height="1.14939779"></rect>
                    <rect id="Rectangle-32" stroke="#979797" fill="#D8D8D8" x="39.4558554" y="0.5" width="11.603365" height="31.183138"></rect>
                    <rect id="Rectangle-33" fill="#979797" x="38.9558554" y="12.6433757" width="12.603365" height="1.14939779"></rect>
                    <rect id="Rectangle-32" stroke="#979797" fill="#D8D8D8" x="60.0795435" y="0.5" width="11.603365" height="31.183138"></rect>
                    <rect id="Rectangle-33" fill="#979797" x="59.5795435" y="12.6433757" width="12.603365" height="1.14939779"></rect>
                    <rect id="Rectangle-32" stroke="#979797" fill="#D8D8D8" x="79.5574712" y="0.5" width="11.603365" height="31.183138"></rect>
                    <rect id="Rectangle-33" fill="#979797" x="79.0574712" y="12.6433757" width="12.603365" height="1.14939779"></rect>
                    <rect id="Rectangle-32" stroke="#979797" fill="#D8D8D8" x="100.181159" y="0.5" width="11.603365" height="31.183138"></rect>
                    <rect id="Rectangle-33" fill="#979797" x="99.6811593" y="12.6433757" width="12.603365" height="1.14939779"></rect>
                </g>
                <rect id="Rectangle-31" stroke="#505050" stroke-width="3" fill="#585858" x="1.5" y="32.5337402" width="126.835695" height="49.8722982" rx="1"></rect>
            </g>
            <g id="sideview" transform="translate(51.444758, 0.160246)"></g>
        </g>
        <use id="Rectangle" stroke="#D8D8D8" mask="url(#mask-2)" stroke-width="2" stroke-dasharray="2" xlink:href="#path-1"></use>
        <path d="M242.669321,83.0626536 L237.362676,83.0626536 L237.362676,86.7941814 L242.25679,86.7941814 L242.25679,88.6130669 L237.362676,88.6130669 L237.362676,92.5321087 L242.669321,92.5321087 L242.669321,94.3697455 L235,94.3697455 L235,81.2437682 L242.669321,81.2437682 L242.669321,83.0626536 Z M246.907137,92.4571031 L253.038843,92.4571031 L253.038843,94.3697455 L244.581963,94.3697455 L244.581963,93.0383964 C244.581963,90.7132233 245.707047,89.4381283 247.22591,88.3880501 L249.026044,87.150458 C250.207382,86.3441479 250.657416,85.8566116 250.657416,84.9940474 L250.657416,84.5440139 C250.657416,83.7564553 250.03862,82.8376368 248.482254,82.8376368 C247.35717,82.8376368 246.475855,83.175162 245.350771,83.9627206 L244.300693,82.5376145 C245.519533,81.5812933 246.888385,81 248.632265,81 C251.463726,81 253.020092,82.7063771 253.020092,84.4690083 L253.020092,85.0503016 C253.020092,86.3441479 252.232533,87.4879831 250.207382,88.8005808 L248.763525,89.7381507 C247.300916,90.6944719 246.944639,91.4632791 246.907137,92.4571031 Z" id="E2" fill="#8D9EB0"></path>
        <rect id="Rectangle-93-Copy-2" fill="#8D9EB0" x="150" y="71" width="1" height="14" rx="0.5"></rect>
        <rect id="Rectangle-93-Copy-6" fill="#8D9EB0" x="270" y="71" width="1" height="14" rx="0.5"></rect>
        <rect id="Rectangle-132-Copy-2" fill="#8D9EB0" x="234" y="67" width="20.074583" height="1" rx="0.5"></rect>
        <rect id="Rectangle-132-Copy-4" fill="#8D9EB0" x="234" y="109" width="20.074583" height="1" rx="0.5"></rect>
        <g id="left-arrow-copy" transform="translate(151.000000, 75.000000)" fill="#8D9EB0">
            <g id="triangle" transform="translate(4.000000, 2.500000) scale(-1, 1) translate(-4.000000, -2.500000) ">
                <path d="M3.88775351,-0.425866237 C3.98755721,-0.684554916 4.15206769,-0.677565105 4.24917468,-0.425866237 L6.40050076,5.1503168 C6.50030446,5.40900548 6.36527212,5.61871408 6.08097484,5.61871408 L2.05595335,5.61871408 C1.77968036,5.61871408 1.63932045,5.40201566 1.73642744,5.1503168 L3.88775351,-0.425866237 Z" id="Triangle-1" transform="translate(4.069450, 2.500722) rotate(90.000000) translate(-4.069450, -2.500722) "></path>
            </g>
            <rect id="Rectangle-144" x="3.85259834" y="1.88944875" width="42.1474017" height="1" rx="0.5"></rect>
        </g>
        <g id="left-arrow-copy-2" transform="translate(246.500000, 77.500000) scale(-1, 1) translate(-246.500000, -77.500000) translate(222.000000, 75.000000)" fill="#8D9EB0">
            <g id="triangle" transform="translate(4.750000, 2.500000) scale(-1, 1) translate(-4.750000, -2.500000) translate(0.750000, 0.000000)">
                <path d="M3.76743045,-0.425866237 C3.86307566,-0.684554916 4.02073154,-0.677565105 4.1137924,-0.425866237 L6.17547989,5.1503168 C6.2711251,5.40900548 6.11637041,5.61871408 5.85139336,5.61871408 L2.02982949,5.61871408 C1.75519623,5.61871408 1.6126821,5.40201566 1.70574296,5.1503168 L3.76743045,-0.425866237 Z" id="Triangle-1" transform="translate(3.941556, 2.500722) rotate(90.000000) translate(-3.941556, -2.500722) "></path>
            </g>
            <rect id="Rectangle-144" x="5.73374007" y="1.88944875" width="43.2662599" height="1" rx="0.5"></rect>
        </g>
        <g id="Group-Copy" transform="translate(241.000000, 67.000000)" fill="#8D9EB0">
            <g id="triangle" transform="translate(3.184082, 4.484497) rotate(-90.000000) translate(-3.184082, -4.484497) translate(-0.815918, 1.984497)">
                <path d="M3.88775351,-0.425866237 C3.98755721,-0.684554916 4.15206769,-0.677565105 4.24917468,-0.425866237 L6.40050076,5.1503168 C6.50030446,5.40900548 6.36527212,5.61871408 6.08097484,5.61871408 L2.05595335,5.61871408 C1.77968036,5.61871408 1.63932045,5.40201566 1.73642744,5.1503168 L3.88775351,-0.425866237 Z" id="Triangle-1" transform="translate(4.069450, 2.500722) rotate(90.000000) translate(-4.069450, -2.500722) "></path>
            </g>
            <rect id="Rectangle-134" x="2.6000061" y="3" width="1" height="10" rx="0.5"></rect>
        </g>
        <g id="Group-Copy-2" transform="translate(243.500000, 102.500000) scale(1, -1) translate(-243.500000, -102.500000) translate(240.000000, 96.000000)" fill="#8D9EB0">
            <g id="triangle" transform="translate(3.996582, 3.048935) rotate(-90.000000) translate(-3.996582, -3.048935) translate(0.996582, 0.048935)">
                <path d="M2.86283544,0.683880672 C2.97640101,0.426316462 3.1578941,0.420344697 3.27409275,0.683880672 L5.37558269,5.45001357 C5.48914826,5.70757778 5.36527212,5.91637482 5.08097484,5.91637482 L1.05595335,5.91637482 C0.779680363,5.91637482 0.645146859,5.71354954 0.761345507,5.45001357 L2.86283544,0.683880672 Z" id="Triangle-1" transform="translate(3.069450, 3.188132) rotate(90.000000) translate(-3.069450, -3.188132) "></path>
            </g>
            <rect id="Rectangle-134" x="3.68408203" y="5" width="1" height="8" rx="0.5"></rect>
        </g>
        <path d="M204.29407,71.2437682 C207.856835,71.2437682 209.638218,73.3439245 209.638218,76.4941591 L209.638218,78.8193322 C209.638218,82.2320864 207.613067,84.3697455 203.825285,84.3697455 L200,84.3697455 L200,71.2437682 L204.29407,71.2437682 Z M207.275542,78.856835 L207.275542,76.4379049 C207.275542,74.3002457 206.262966,73.0626536 204.181561,73.0626536 L202.362676,73.0626536 L202.362676,82.5508601 L203.844036,82.5508601 C206.131707,82.5508601 207.275542,81.3507707 207.275542,78.856835 Z M213.83853,82.4571031 L219.970237,82.4571031 L219.970237,84.3697455 L211.513357,84.3697455 L211.513357,83.0383964 C211.513357,80.7132233 212.638441,79.4381283 214.157304,78.3880501 L215.957438,77.150458 C217.138776,76.3441479 217.58881,75.8566116 217.58881,74.9940474 L217.58881,74.5440139 C217.58881,73.7564553 216.970014,72.8376368 215.413648,72.8376368 C214.288564,72.8376368 213.407248,73.175162 212.282165,73.9627206 L211.232086,72.5376145 C212.450927,71.5812933 213.819779,71 215.563659,71 C218.39512,71 219.951486,72.7063771 219.951486,74.4690083 L219.951486,75.0503016 C219.951486,76.3441479 219.163927,77.4879831 217.138776,78.8005808 L215.694919,79.7381507 C214.23231,80.6944719 213.876033,81.4632791 213.83853,82.4571031 Z" id="D2" fill="#8D9EB0"></path>
        <g id="Group-2" transform="translate(195.017578, 19.000000)">
            <g id="triangle" transform="translate(33.000000, 0.000000)"></g>
            <g id="triangle" transform="translate(48.500000, 27.000000) rotate(-90.000000) translate(-48.500000, -27.000000) translate(44.500000, 24.500000)"></g>
            <g id="Group" transform="translate(4.000000, 2.500000) scale(-1, 1) translate(-4.000000, -2.500000) ">
                <g id="triangle"></g>
            </g>
            <g id="triangle" transform="translate(41.331543, 137.512207) scale(-1, 1) translate(-41.331543, -137.512207) translate(37.331543, 135.012207)"></g>
            <g id="triangle" transform="translate(28.000000, 137.512207) scale(-1, 1) rotate(180.000000) translate(-28.000000, -137.512207) translate(24.000000, 135.012207)"></g>
            <g id="triangle" transform="translate(48.500000, 8.000000) rotate(90.000000) translate(-48.500000, -8.000000) translate(44.500000, 5.500000)"></g>
        </g>
        <path d="M33.0491307,55.6691737 L53.3865168,43.5927743 C53.9072437,43.2819428 54.226328,42.7189972 54.226328,42.1111345 L54.226328,31.7714652 C54.226328,30.8192729 53.4568664,30.0473685 52.5076873,30.0473685 C51.5585083,30.0473685 50.7890467,30.8192729 50.7890467,31.7714652 L50.7890467,41.1150926 L30.4516606,53.2705552 C29.9309336,53.5813868 29.6118494,54.1443323 29.6118494,54.7521951 L29.6118494,65.0803592 C29.6118494,66.0325515 30.381311,66.8044559 31.3304901,66.8044559 C32.2796691,66.8044559 33.0491307,66.0325515 33.0491307,65.0803592 L33.0491307,55.6691737 Z" id="Path-11" stroke="#979797" fill="#D8D8D8" fill-rule="nonzero" stroke-linecap="round" stroke-linejoin="round"></path>
        <path d="M29.6118494,119.679069 C29.6118494,120.286932 29.9309336,120.849877 30.4516606,121.160709 L50.7890467,133.333079 L50.7890467,143.239409 C50.7890467,144.191601 51.5585083,144.963505 52.5076873,144.963505 C53.4568664,144.963505 54.226328,144.191601 54.226328,143.239409 L54.226328,132.32013 C54.226328,131.712267 53.9072437,131.149321 53.3865168,130.83849 L33.0491307,118.70716 L33.0491307,109.350905 C33.0491307,108.398713 32.2796691,107.626808 31.3304901,107.626808 C30.381311,107.626808 29.6118494,108.398713 29.6118494,109.350905 L29.6118494,119.679069 Z" id="Path-11" stroke="#979797" fill="#D8D8D8" fill-rule="nonzero"></path>
        <path d="M31.3681609,61.5917613 L17.410067,66.2989727 C16.8276988,66.4953699 16.3301358,67.1880217 16.3301358,67.8049671 L16.3301358,107.324046 C16.3301358,107.934952 16.833861,108.630382 17.4130382,108.822044 L31.2804721,113.41109 L45.1823999,108.821929 C45.7685853,108.628424 46.2684653,107.939496 46.2684653,107.324046 L46.2684653,67.8049671 C46.2684653,67.1924763 45.7648613,66.490763 45.1862395,66.2938659 L31.3681609,61.5917613 Z" id="Combined-Shape" stroke="#505050" fill="#585858"></path>
        <rect id="Rectangle-158" fill="#505050" x="30.7335533" y="61.4412075" width="1.14576045" height="50.9681872"></rect>
        <path d="M15.8417726,19.502349 C15.8417726,19.2249093 16.0737062,19 16.3417726,19 L16.3417726,19 C16.6179149,19 16.8417726,19.2264492 16.8417726,19.502349 L16.8417726,64.6285104 C16.8417726,64.9059501 16.609839,65.1308594 16.3417726,65.1308594 L16.3417726,65.1308594 C16.0656302,65.1308594 15.8417726,64.9044101 15.8417726,64.6285104 L15.8417726,19.502349 Z" id="Rectangle-93" fill="#8D9EB0"></path>
        <rect id="Rectangle-93" fill="#8D9EB0" x="53.8417726" y="19" width="1" height="14.0139771" rx="0.5"></rect>
        <rect id="Rectangle-95" fill="#8D9EB0" x="41.9190887" y="21" width="6.92268387" height="1" rx="0.5"></rect>
        <path d="M50.7295261,18.5741338 C50.8293298,18.3154451 50.9938403,18.3224349 51.0909472,18.5741338 L53.2422733,24.1503168 C53.342077,24.4090055 53.2070447,24.6187141 52.9227474,24.6187141 L48.8977259,24.6187141 C48.6214529,24.6187141 48.481093,24.4020157 48.5782,24.1503168 L50.7295261,18.5741338 Z" id="Triangle-1" fill="#8D9EB0" transform="translate(50.911223, 21.500722) rotate(90.000000) translate(-50.911223, -21.500722) "></path>
        <path d="M63.182039,44.1914043 C63.2818427,43.9327156 63.4463532,43.9397054 63.5434601,44.1914043 L65.6947862,49.7675873 C65.7945899,50.026276 65.6595576,50.2359846 65.3752603,50.2359846 L61.3502388,50.2359846 C61.0739658,50.2359846 60.9336059,50.0192862 61.0307129,49.7675873 L63.182039,44.1914043 Z" id="Triangle-1" fill="#8D9EB0"></path>
        <rect id="Rectangle-95" fill="#8D9EB0" x="21.8632569" y="21" width="7.13674306" height="1" rx="0.5"></rect>
        <path d="M19.318097,18.5741338 C19.4179007,18.3154451 19.5824112,18.3224349 19.6795182,18.5741338 L21.8308442,24.1503168 C21.9306479,24.4090055 21.7956156,24.6187141 21.5113183,24.6187141 L17.4862968,24.6187141 C17.2100238,24.6187141 17.0696639,24.4020157 17.1667709,24.1503168 L19.318097,18.5741338 Z" id="Triangle-1" fill="#8D9EB0" transform="translate(19.499794, 21.500722) rotate(270.000000) translate(-19.499794, -21.500722) "></path>
        <path d="M38.8600418,28 L37.7724609,24.5497431 L33.234623,24.5497431 L32.240799,28 L29.8593716,28 L33.8721704,14.8740226 L37.0786592,14.8740226 L41.2977234,28 L38.8600418,28 Z M35.4660391,16.5241455 L33.7596621,22.6558521 L37.209919,22.6558521 L35.4660391,16.5241455 Z" id="A" fill="#8D9EB0"></path>
        <polygon id="L" fill="#8D9EB0" points="76.1733451 19.0873576 81.4987416 19.0873576 81.4987416 21 73.8106692 21 73.8106692 7.87402261 76.1733451 7.87402261"></polygon>
        <rect id="Rectangle-137" fill="#8D9EB0" x="44.8417726" y="110.121094" width="1" height="49.8911133" rx="0.5"></rect>
        <rect id="Rectangle-137" fill="#8D9EB0" x="53.1733155" y="145.512939" width="1" height="14.4992676" rx="0.5"></rect>
        <path d="M73.1237137,160.012207 L72.0361327,156.56195 L67.4982948,156.56195 L66.5044708,160.012207 L64.1230435,160.012207 L68.1358423,146.88623 L71.3423311,146.88623 L75.5613952,160.012207 L73.1237137,160.012207 Z M69.729711,148.536353 L68.0233339,154.668059 L71.4735908,154.668059 L69.729711,148.536353 Z M81.93687,158.230824 L84.2432917,158.230824 L84.2432917,160.012207 L76.96775,160.012207 L76.96775,158.230824 L79.6491996,158.230824 L79.6491996,149.43642 L77.3802807,150.561503 L76.5177164,149.023889 L80.1929901,146.88623 L81.93687,146.88623 L81.93687,158.230824 Z" id="A1" fill="#8D9EB0"></path>
        <path d="M56.9362958,153.437147 C57.0360995,153.178459 57.20061,153.185449 57.297717,153.437147 L59.4490431,159.01333 C59.5488468,159.272019 59.4138144,159.481728 59.1295171,159.481728 L55.1044956,159.481728 C54.8282227,159.481728 54.6878627,159.265029 54.7849697,159.01333 L56.9362958,153.437147 Z" id="Triangle-1" fill="#8D9EB0" transform="translate(57.117992, 156.363735) rotate(270.000000) translate(-57.117992, -156.363735) "></path>
        <path d="M41.7780684,153.437147 C41.8778721,153.178459 42.0423826,153.185449 42.1394895,153.437147 L44.2908156,159.01333 C44.3906193,159.272019 44.255587,159.481728 43.9712897,159.481728 L39.9462682,159.481728 C39.6699952,159.481728 39.5296353,159.265029 39.6267423,159.01333 L41.7780684,153.437147 Z" id="Triangle-1-Copy" fill="#8D9EB0" transform="translate(41.959765, 156.363735) rotate(90.000000) translate(-41.959765, -156.363735) "></path>
        <rect id="Rectangle-144" fill="#8D9EB0" x="59" y="156" width="4" height="1" rx="0.5"></rect>
        <rect id="Rectangle-144-Copy" fill="#8D9EB0" x="35.8417726" y="156" width="4" height="1" rx="0.5"></rect>
        <rect id="Rectangle-157" fill="#8D9EB0" x="63" y="50" width="1" height="3.94970703" rx="0.5"></rect>
        <path d="M63.182039,23.1914043 C63.2818427,22.9327156 63.4463532,22.9397054 63.5434601,23.1914043 L65.6947862,28.7675873 C65.7945899,29.026276 65.6595576,29.2359846 65.3752603,29.2359846 L61.3502388,29.2359846 C61.0739658,29.2359846 60.9336059,29.0192862 61.0307129,28.7675873 L63.182039,23.1914043 Z" id="Triangle-1" fill="#8D9EB0" transform="translate(63.363735, 26.117992) rotate(180.000000) translate(-63.363735, -26.117992) "></path>
        <rect id="Rectangle-157" fill="#8D9EB0" x="63" y="14" width="1" height="12.0095215" rx="0.5"></rect>
        <rect id="Rectangle-159" fill="#8D9EB0" x="62.8417726" y="14" width="6" height="1" rx="0.5"></rect>
        <rect id="Rectangle-157" fill="#8D9EB0" x="55.8417726" y="29" width="11" height="1" rx="0.5"></rect>
        <rect id="Rectangle-158" fill="#8D9EB0" x="55.8417726" y="43" width="11" height="1" rx="0.5"></rect>
    </g>
</svg>