<?xml version="1.0" encoding="UTF-8"?>
<svg width="290px" height="175px" viewBox="0 0 290 175" version="1.1" xmlns="http://www.w3.org/2000/svg" xmlns:xlink="http://www.w3.org/1999/xlink">
    <!-- Generator: Sketch 57.1 (83088) - https://sketch.com -->
    <title>SOJ-Labeled 2</title>
    <desc>Created with Sketch.</desc>
    <g id="Page-1" stroke="none" stroke-width="1" fill="none" fill-rule="evenodd">
        <g id="SOJ-Labeled">
            <rect id="Rectangle" fill-rule="nonzero" x="0" y="0" width="290" height="175"></rect>
            <g id="Oscillator-LBend" transform="translate(39.767050, 46.625092)">
                <g id="Group-12" transform="translate(90.485086, 0.911621)" fill-rule="nonzero">
                    <g id="Group-7" transform="translate(0.116422, 7.361658)" stroke="#505050">
                        <g id="Group-13" transform="translate(0.000000, 0.868856)">
                            <polygon id="Rectangle-16" fill="#585858" points="0.972852442 0.5 0.972852442 67.4379171 102.391332 67.4379171 102.391332 0.5"></polygon>
                            <polygon id="Rectangle-16-Copy" fill="#606060" points="4.17715976 3.28344458 4.17715976 64.6544725 99.1870251 64.6544725 99.1870251 3.28344458"></polygon>
                        </g>
                    </g>
                    <g id="Group-14" transform="translate(9.516654, 0.000000)">
                        <g id="Group-10" transform="translate(0.000000, 0.710696)">
                            <g id="Group-9" transform="translate(0.778909, 0.571334)">
                                <g id="Group-8" transform="translate(0.334843, 0.628113)">
                                    <g id="Group-6">
                                        <g id="Group-4" transform="translate(0.263671, 0.000000)">
                                            <g id="Group-5" transform="translate(0.634891, 0.668555)">
                                                <polygon id="Rectangle" stroke="#979797" fill="#D8D8D8" points="0.973724061 0.228553612 4.901856 0.228553612 4.901856 14.3450302 0.973724061 14.3450302"></polygon>
                                                <polygon id="Rectangle-Copy-2" fill="#BABABA" points="1.47372406 0.728553612 4.401856 0.728553612 4.401856 2.02471348 1.47372406 2.02471348"></polygon>
                                                <polygon id="Rectangle-Copy-3" fill="#BABABA" points="1.47372406 12.5055464 4.401856 12.5055464 4.401856 13.8017062 1.47372406 13.8017062"></polygon>
                                            </g>
                                        </g>
                                    </g>
                                </g>
                            </g>
                            <g id="Group-9-Copy" transform="translate(13.292598, 0.571334)">
                                <g id="Group-8" transform="translate(0.334843, 0.628113)">
                                    <g id="Group-6">
                                        <g id="Group-4" transform="translate(0.263671, 0.000000)">
                                            <g id="Group-5" transform="translate(0.634891, 0.668555)">
                                                <polygon id="Rectangle" stroke="#979797" fill="#D8D8D8" points="0.973724061 0.228553612 4.901856 0.228553612 4.901856 14.3450302 0.973724061 14.3450302"></polygon>
                                                <polygon id="Rectangle-Copy-2" fill="#BABABA" points="1.47372406 0.728553612 4.401856 0.728553612 4.401856 2.02471348 1.47372406 2.02471348"></polygon>
                                                <polygon id="Rectangle-Copy-3" fill="#BABABA" points="1.47372406 12.5055464 4.401856 12.5055464 4.401856 13.8017062 1.47372406 13.8017062"></polygon>
                                            </g>
                                        </g>
                                    </g>
                                </g>
                            </g>
                            <g id="Group-9-Copy-2" transform="translate(25.806287, 0.571334)">
                                <g id="Group-8" transform="translate(0.334843, 0.628113)">
                                    <g id="Group-6">
                                        <g id="Group-4" transform="translate(0.263671, 0.000000)">
                                            <g id="Group-5" transform="translate(0.634891, 0.668555)">
                                                <polygon id="Rectangle" stroke="#979797" fill="#D8D8D8" points="0.973724061 0.228553612 4.901856 0.228553612 4.901856 14.3450302 0.973724061 14.3450302"></polygon>
                                                <polygon id="Rectangle-Copy-2" fill="#BABABA" points="1.47372406 0.728553612 4.401856 0.728553612 4.401856 2.02471348 1.47372406 2.02471348"></polygon>
                                                <polygon id="Rectangle-Copy-3" fill="#BABABA" points="1.47372406 12.5055464 4.401856 12.5055464 4.401856 13.8017062 1.47372406 13.8017062"></polygon>
                                            </g>
                                        </g>
                                    </g>
                                </g>
                            </g>
                            <g id="Group-9-Copy-3" transform="translate(38.319976, 0.571334)">
                                <g id="Group-8" transform="translate(0.334843, 0.628113)">
                                    <g id="Group-6">
                                        <g id="Group-4" transform="translate(0.263671, 0.000000)">
                                            <g id="Group-5" transform="translate(0.634891, 0.668555)">
                                                <polygon id="Rectangle" stroke="#979797" fill="#D8D8D8" points="0.973724061 0.228553612 4.901856 0.228553612 4.901856 14.3450302 0.973724061 14.3450302"></polygon>
                                                <polygon id="Rectangle-Copy-2" fill="#BABABA" points="1.47372406 0.728553612 4.401856 0.728553612 4.401856 2.02471348 1.47372406 2.02471348"></polygon>
                                                <polygon id="Rectangle-Copy-3" fill="#BABABA" points="1.47372406 12.5055464 4.401856 12.5055464 4.401856 13.8017062 1.47372406 13.8017062"></polygon>
                                            </g>
                                        </g>
                                    </g>
                                </g>
                            </g>
                            <g id="Group-9-Copy-4" transform="translate(50.833665, 0.571334)">
                                <g id="Group-8" transform="translate(0.334843, 0.628113)">
                                    <g id="Group-6">
                                        <g id="Group-4" transform="translate(0.263671, 0.000000)">
                                            <g id="Group-5" transform="translate(0.634891, 0.668555)">
                                                <polygon id="Rectangle" stroke="#979797" fill="#D8D8D8" points="0.973724061 0.228553612 4.901856 0.228553612 4.901856 14.3450302 0.973724061 14.3450302"></polygon>
                                                <polygon id="Rectangle-Copy-2" fill="#BABABA" points="1.47372406 0.728553612 4.401856 0.728553612 4.401856 2.02471348 1.47372406 2.02471348"></polygon>
                                                <polygon id="Rectangle-Copy-3" fill="#BABABA" points="1.47372406 12.5055464 4.401856 12.5055464 4.401856 13.8017062 1.47372406 13.8017062"></polygon>
                                            </g>
                                        </g>
                                    </g>
                                </g>
                            </g>
                            <g id="Group-9-Copy-5" transform="translate(63.347354, 0.571334)">
                                <g id="Group-8" transform="translate(0.334843, 0.628113)">
                                    <g id="Group-6">
                                        <g id="Group-4" transform="translate(0.263671, 0.000000)">
                                            <g id="Group-5" transform="translate(0.634891, 0.668555)">
                                                <polygon id="Rectangle" stroke="#979797" fill="#D8D8D8" points="0.973724061 0.228553612 4.901856 0.228553612 4.901856 14.3450302 0.973724061 14.3450302"></polygon>
                                                <polygon id="Rectangle-Copy-2" fill="#BABABA" points="1.47372406 0.728553612 4.401856 0.728553612 4.401856 2.02471348 1.47372406 2.02471348"></polygon>
                                                <polygon id="Rectangle-Copy-3" fill="#BABABA" points="1.47372406 12.5055464 4.401856 12.5055464 4.401856 13.8017062 1.47372406 13.8017062"></polygon>
                                            </g>
                                        </g>
                                    </g>
                                </g>
                            </g>
                            <g id="Group-9-Copy-6" transform="translate(75.861044, 0.571334)">
                                <g id="Group-8" transform="translate(0.334843, 0.628113)">
                                    <g id="Group-6">
                                        <g id="Group-4" transform="translate(0.263671, 0.000000)">
                                            <g id="Group-5" transform="translate(0.634891, 0.668555)">
                                                <polygon id="Rectangle" stroke="#979797" fill="#D8D8D8" points="0.973724061 0.228553612 4.901856 0.228553612 4.901856 14.3450302 0.973724061 14.3450302"></polygon>
                                                <polygon id="Rectangle-Copy-2" fill="#BABABA" points="1.47372406 0.728553612 4.401856 0.728553612 4.401856 2.02471348 1.47372406 2.02471348"></polygon>
                                                <polygon id="Rectangle-Copy-3" fill="#BABABA" points="1.47372406 12.5055464 4.401856 12.5055464 4.401856 13.8017062 1.47372406 13.8017062"></polygon>
                                            </g>
                                        </g>
                                    </g>
                                </g>
                            </g>
                        </g>
                        <g id="Group-10-Copy" transform="translate(0.000000, 66.546595)">
                            <g id="Group-9" transform="translate(0.778909, 0.571334)">
                                <g id="Group-8" transform="translate(0.334843, 0.628113)">
                                    <g id="Group-6">
                                        <g id="Group-4" transform="translate(0.263671, 0.000000)">
                                            <g id="Group-5" transform="translate(0.634891, 0.668555)">
                                                <polygon id="Rectangle" stroke="#979797" fill="#D8D8D8" points="0.973724061 0.228553612 4.901856 0.228553612 4.901856 14.3450302 0.973724061 14.3450302"></polygon>
                                                <polygon id="Rectangle-Copy-2" fill="#BABABA" points="1.47372406 0.728553612 4.401856 0.728553612 4.401856 2.02471348 1.47372406 2.02471348"></polygon>
                                                <polygon id="Rectangle-Copy-3" fill="#BABABA" points="1.47372406 12.5055464 4.401856 12.5055464 4.401856 13.8017062 1.47372406 13.8017062"></polygon>
                                            </g>
                                        </g>
                                    </g>
                                </g>
                            </g>
                            <g id="Group-9-Copy" transform="translate(13.292598, 0.571334)">
                                <g id="Group-8" transform="translate(0.334843, 0.628113)">
                                    <g id="Group-6">
                                        <g id="Group-4" transform="translate(0.263671, 0.000000)">
                                            <g id="Group-5" transform="translate(0.634891, 0.668555)">
                                                <polygon id="Rectangle" stroke="#979797" fill="#D8D8D8" points="0.973724061 0.228553612 4.901856 0.228553612 4.901856 14.3450302 0.973724061 14.3450302"></polygon>
                                                <polygon id="Rectangle-Copy-2" fill="#BABABA" points="1.47372406 0.728553612 4.401856 0.728553612 4.401856 2.02471348 1.47372406 2.02471348"></polygon>
                                                <polygon id="Rectangle-Copy-3" fill="#BABABA" points="1.47372406 12.5055464 4.401856 12.5055464 4.401856 13.8017062 1.47372406 13.8017062"></polygon>
                                            </g>
                                        </g>
                                    </g>
                                </g>
                            </g>
                            <g id="Group-9-Copy-2" transform="translate(25.806287, 0.571334)">
                                <g id="Group-8" transform="translate(0.334843, 0.628113)">
                                    <g id="Group-6">
                                        <g id="Group-4" transform="translate(0.263671, 0.000000)">
                                            <g id="Group-5" transform="translate(0.634891, 0.668555)">
                                                <polygon id="Rectangle" stroke="#979797" fill="#D8D8D8" points="0.973724061 0.228553612 4.901856 0.228553612 4.901856 14.3450302 0.973724061 14.3450302"></polygon>
                                                <polygon id="Rectangle-Copy-2" fill="#BABABA" points="1.47372406 0.728553612 4.401856 0.728553612 4.401856 2.02471348 1.47372406 2.02471348"></polygon>
                                                <polygon id="Rectangle-Copy-3" fill="#BABABA" points="1.47372406 12.5055464 4.401856 12.5055464 4.401856 13.8017062 1.47372406 13.8017062"></polygon>
                                            </g>
                                        </g>
                                    </g>
                                </g>
                            </g>
                            <g id="Group-9-Copy-3" transform="translate(38.319976, 0.571334)">
                                <g id="Group-8" transform="translate(0.334843, 0.628113)">
                                    <g id="Group-6">
                                        <g id="Group-4" transform="translate(0.263671, 0.000000)">
                                            <g id="Group-5" transform="translate(0.634891, 0.668555)">
                                                <polygon id="Rectangle" stroke="#979797" fill="#D8D8D8" points="0.973724061 0.228553612 4.901856 0.228553612 4.901856 14.3450302 0.973724061 14.3450302"></polygon>
                                                <polygon id="Rectangle-Copy-2" fill="#BABABA" points="1.47372406 0.728553612 4.401856 0.728553612 4.401856 2.02471348 1.47372406 2.02471348"></polygon>
                                                <polygon id="Rectangle-Copy-3" fill="#BABABA" points="1.47372406 12.5055464 4.401856 12.5055464 4.401856 13.8017062 1.47372406 13.8017062"></polygon>
                                            </g>
                                        </g>
                                    </g>
                                </g>
                            </g>
                            <g id="Group-9-Copy-4" transform="translate(50.833665, 0.571334)">
                                <g id="Group-8" transform="translate(0.334843, 0.628113)">
                                    <g id="Group-6">
                                        <g id="Group-4" transform="translate(0.263671, 0.000000)">
                                            <g id="Group-5" transform="translate(0.634891, 0.668555)">
                                                <polygon id="Rectangle" stroke="#979797" fill="#D8D8D8" points="0.973724061 0.228553612 4.901856 0.228553612 4.901856 14.3450302 0.973724061 14.3450302"></polygon>
                                                <polygon id="Rectangle-Copy-2" fill="#BABABA" points="1.47372406 0.728553612 4.401856 0.728553612 4.401856 2.02471348 1.47372406 2.02471348"></polygon>
                                                <polygon id="Rectangle-Copy-3" fill="#BABABA" points="1.47372406 12.5055464 4.401856 12.5055464 4.401856 13.8017062 1.47372406 13.8017062"></polygon>
                                            </g>
                                        </g>
                                    </g>
                                </g>
                            </g>
                            <g id="Group-9-Copy-5" transform="translate(63.347354, 0.571334)">
                                <g id="Group-8" transform="translate(0.334843, 0.628113)">
                                    <g id="Group-6">
                                        <g id="Group-4" transform="translate(0.263671, 0.000000)">
                                            <g id="Group-5" transform="translate(0.634891, 0.668555)">
                                                <polygon id="Rectangle" stroke="#979797" fill="#D8D8D8" points="0.973724061 0.228553612 4.901856 0.228553612 4.901856 14.3450302 0.973724061 14.3450302"></polygon>
                                                <polygon id="Rectangle-Copy-2" fill="#BABABA" points="1.47372406 0.728553612 4.401856 0.728553612 4.401856 2.02471348 1.47372406 2.02471348"></polygon>
                                                <polygon id="Rectangle-Copy-3" fill="#BABABA" points="1.47372406 12.5055464 4.401856 12.5055464 4.401856 13.8017062 1.47372406 13.8017062"></polygon>
                                            </g>
                                        </g>
                                    </g>
                                </g>
                            </g>
                            <g id="Group-9-Copy-6" transform="translate(75.861044, 0.571334)">
                                <g id="Group-8" transform="translate(0.334843, 0.628113)">
                                    <g id="Group-6">
                                        <g id="Group-4" transform="translate(0.263671, 0.000000)">
                                            <g id="Group-5" transform="translate(0.634891, 0.668555)">
                                                <polygon id="Rectangle" stroke="#979797" fill="#D8D8D8" points="0.973724061 0.228553612 4.901856 0.228553612 4.901856 14.3450302 0.973724061 14.3450302"></polygon>
                                                <polygon id="Rectangle-Copy-2" fill="#BABABA" points="1.47372406 0.728553612 4.401856 0.728553612 4.401856 2.02471348 1.47372406 2.02471348"></polygon>
                                                <polygon id="Rectangle-Copy-3" fill="#BABABA" points="1.47372406 12.5055464 4.401856 12.5055464 4.401856 13.8017062 1.47372406 13.8017062"></polygon>
                                            </g>
                                        </g>
                                    </g>
                                </g>
                            </g>
                        </g>
                    </g>
                </g>
                <g id="Group-11" transform="translate(0.663916, 2.489119)">
                    <g id="Group-4" transform="translate(10.906983, 0.435969)">
                        <g id="Group-2" transform="translate(0.524889, 0.078055)">
                            <g id="Group" transform="translate(0.958148, 0.583147)">
                                <g id="Path-3">
                                    <g id="path-1-link" stroke="#979797" stroke-width="3">
                                        <path d="M0.834935804,11.032281 L0.941092849,2.8154344 C0.955231901,1.72103294 1.84643316,0.841271123 2.94092596,0.841271123 L13.0426569,0.841271123 L13.0426569,0.841271123 C16.2783209,0.943180446 17.896153,2.99344888 17.896153,6.99207641 C17.896153,10.9907039 15.8696271,13.0172299 11.8165752,13.0716542" id="path-1"></path>
                                    </g>
                                    <g id="path-1-link" stroke="#D8D8D8">
                                        <path d="M0.834935804,11.032281 L0.941092849,2.8154344 C0.955231901,1.72103294 1.84643316,0.841271123 2.94092596,0.841271123 L13.0426569,0.841271123 L13.0426569,0.841271123 C16.2783209,0.943180446 17.896153,2.99344888 17.896153,6.99207641 C17.896153,10.9907039 15.8696271,13.0172299 11.8165752,13.0716542" id="path-1"></path>
                                    </g>
                                </g>
                                <path d="M11.9016996,12.0663991 C11.2138222,12.0955478 10.8698835,12.3990066 10.8698835,12.9767756 C10.8698835,13.8434292 11.225794,14.0731554 11.9895061,14.0461288" id="Path-4" stroke="#979797" fill="#D8D8D8" fill-rule="nonzero"></path>
                            </g>
                        </g>
                        <g id="Group-2-Copy" transform="translate(10.024889, 74.901893) scale(-1, 1) rotate(-180.000000) translate(-10.024889, -74.901893) translate(0.524889, 66.901893)">
                            <g id="Group" transform="translate(0.958148, 0.583147)">
                                <g id="Path-3">
                                    <g id="path-2-link" stroke="#979797" stroke-width="3">
                                        <path d="M0.834935804,11.032281 L0.941092849,2.8154344 C0.955231901,1.72103294 1.84643316,0.841271123 2.94092596,0.841271123 L13.0426569,0.841271123 L13.0426569,0.841271123 C16.2783209,0.943180446 17.896153,2.99344888 17.896153,6.99207641 C17.896153,10.9907039 15.8696271,13.0172299 11.8165752,13.0716542" id="path-2"></path>
                                    </g>
                                    <g id="path-2-link" stroke="#D8D8D8">
                                        <path d="M0.834935804,11.032281 L0.941092849,2.8154344 C0.955231901,1.72103294 1.84643316,0.841271123 2.94092596,0.841271123 L13.0426569,0.841271123 L13.0426569,0.841271123 C16.2783209,0.943180446 17.896153,2.99344888 17.896153,6.99207641 C17.896153,10.9907039 15.8696271,13.0172299 11.8165752,13.0716542" id="path-2"></path>
                                    </g>
                                </g>
                                <path d="M11.9115475,12.0457249 C11.2093182,12.0754817 10.8582036,12.3852719 10.8582036,12.9750955 C10.8582036,13.8598308 11.2215398,14.09435 12.001186,14.0667595" id="Path-4" stroke="#979797" fill="#D8D8D8" fill-rule="nonzero"></path>
                            </g>
                        </g>
                    </g>
                    <path d="M11.432816,9.98992758 L11.432816,74.1302221" id="Line" stroke="#505050" stroke-linecap="square"></path>
                    <g id="Group-3" transform="translate(0.848119, 8.965409)" fill="#585858" fill-rule="nonzero" stroke="#505050">
                        <polygon id="Rectangle-15" points="0.4474024 3.07551176 0.4474024 62.7180729 10.3082354 65.7696185 10.3082354 0.03253183"></polygon>
                        <polygon id="Rectangle-15-Copy" transform="translate(16.217566, 32.901075) scale(-1, 1) translate(-16.217566, -32.901075) " points="11.2871493 3.07551176 11.2871493 62.7180729 21.1479823 65.7696185 21.1479823 0.03253183"></polygon>
                    </g>
                </g>
            </g>
            <rect id="Rectangle-93" fill="#8D9EB0" fill-rule="nonzero" x="130.69043" y="27.578125" width="1" height="26.0996094" rx="0.5"></rect>
            <rect id="Rectangle-93" fill="#8D9EB0" fill-rule="nonzero" x="232.000977" y="27.578125" width="1" height="26.0996094" rx="0.5"></rect>
            <g id="Group-2" transform="translate(190.933594, 32.000000)" fill="#8D9EB0" fill-rule="nonzero">
                <rect id="Rectangle-95" x="0.640869141" y="2" width="38.3591309" height="1" rx="0.5"></rect>
                <g id="triangle" transform="translate(34.000000, 0.000000)">
                    <path d="M3.88775372,-0.425865989 C3.98755742,-0.684554668 4.1520679,-0.677564857 4.24917489,-0.425865989 L6.40050097,5.15031705 C6.50030467,5.40900573 6.36527233,5.61871433 6.08097505,5.61871433 L2.05595356,5.61871433 C1.77968058,5.61871433 1.63932066,5.40201591 1.73642765,5.15031705 L3.88775372,-0.425865989 Z" id="Triangle-1" transform="translate(4.069450, 2.500722) rotate(90.000000) translate(-4.069450, -2.500722) "></path>
                </g>
            </g>
            <g id="Group-2" transform="translate(152.933594, 34.500000) scale(-1, 1) translate(-152.933594, -34.500000) translate(131.933594, 32.000000)" fill="#8D9EB0" fill-rule="nonzero">
                <rect id="Rectangle-95" x="0.640869141" y="2" width="38.3591309" height="1" rx="0.5"></rect>
                <g id="triangle" transform="translate(34.000000, 0.000000)">
                    <path d="M3.88775372,-0.425865989 C3.98755742,-0.684554668 4.1520679,-0.677564857 4.24917489,-0.425865989 L6.40050097,5.15031705 C6.50030467,5.40900573 6.36527233,5.61871433 6.08097505,5.61871433 L2.05595356,5.61871433 C1.77968058,5.61871433 1.63932066,5.40201591 1.73642765,5.15031705 L3.88775372,-0.425865989 Z" id="Triangle-1" transform="translate(4.069450, 2.500722) rotate(90.000000) translate(-4.069450, -2.500722) "></path>
                </g>
            </g>
            <text id="D" fill="#8D9EB0" font-family="ArtifaktElement-Bold, Artifakt Element" font-size="18.7513963" font-weight="bold">
                <tspan x="176.933594" y="41">D</tspan>
            </text>
            <path d="M40.484375,30.4888032 C40.484375,30.214985 40.7163086,29.9930115 40.984375,29.9930115 L40.984375,29.9930115 C41.2605174,29.9930115 41.484375,30.2172928 41.484375,30.4888032 L41.484375,59.5042083 C41.484375,59.7780265 41.2524414,60 40.984375,60 L40.984375,60 C40.7082326,60 40.484375,59.7757187 40.484375,59.5042083 L40.484375,30.4888032 Z" id="Rectangle-93" fill="#8D9EB0" fill-rule="nonzero"></path>
            <path d="M70.484375,30.4831393 C70.484375,30.2124492 70.7163086,29.9930115 70.984375,29.9930115 L70.984375,29.9930115 C71.2605174,29.9930115 71.484375,30.2156868 71.484375,30.4831393 L71.484375,49.3306729 C71.484375,49.6013631 71.2524414,49.8208008 70.984375,49.8208008 L70.984375,49.8208008 C70.7082326,49.8208008 70.484375,49.5981254 70.484375,49.3306729 L70.484375,30.4831393 Z" id="Rectangle-93" fill="#8D9EB0" fill-rule="nonzero"></path>
            <path d="M72,126.490128 C72,126.219438 72.2319336,126 72.5,126 L72.5,126 C72.7761424,126 73,126.222675 73,126.490128 L73,145.337661 C73,145.608352 72.7680664,145.827789 72.5,145.827789 L72.5,145.827789 C72.2238576,145.827789 72,145.605114 72,145.337661 L72,126.490128 Z" id="Rectangle-93" fill="#8D9EB0" fill-rule="nonzero"></path>
            <path d="M63,121.327174 C63,121.051371 63.2319336,120.827789 63.5,120.827789 L63.5,120.827789 C63.7761424,120.827789 64,121.043916 64,121.327174 L64,145.328405 C64,145.604207 63.7680664,145.827789 63.5,145.827789 L63.5,145.827789 C63.2238576,145.827789 63,145.611663 63,145.328405 L63,121.327174 Z" id="Rectangle-93" fill="#8D9EB0" fill-rule="nonzero"></path>
            <g id="Group-4" transform="translate(61.484375, 32.000000)" fill="#8D9EB0" fill-rule="nonzero">
                <rect id="Rectangle-95" x="0.55078125" y="2" width="6" height="1" rx="0.5"></rect>
                <g id="triangle" transform="translate(1.550781, 0.000000)">
                    <path d="M3.88775372,-0.425865989 C3.98755742,-0.684554668 4.1520679,-0.677564857 4.24917489,-0.425865989 L6.40050097,5.15031705 C6.50030467,5.40900573 6.36527233,5.61871433 6.08097505,5.61871433 L2.05595356,5.61871433 C1.77968058,5.61871433 1.63932066,5.40201591 1.73642765,5.15031705 L3.88775372,-0.425865989 Z" id="Triangle-1" transform="translate(4.069450, 2.500722) rotate(90.000000) translate(-4.069450, -2.500722) "></path>
                </g>
            </g>
            <g id="Group-3" transform="translate(40.433594, 32.000000)" fill="#8D9EB0" fill-rule="nonzero">
                <g id="Group" transform="translate(5.550781, 2.500000) scale(-1, 1) translate(-5.550781, -2.500000) translate(0.550781, 0.000000)">
                    <rect id="Rectangle-95" x="0.978515625" y="2" width="5.02148437" height="1" rx="0.5"></rect>
                    <g id="triangle" transform="translate(2.000000, 0.000000)">
                        <path d="M3.88775372,-0.425865989 C3.98755742,-0.684554668 4.1520679,-0.677564857 4.24917489,-0.425865989 L6.40050097,5.15031705 C6.50030467,5.40900573 6.36527233,5.61871433 6.08097505,5.61871433 L2.05595356,5.61871433 C1.77968058,5.61871433 1.63932066,5.40201591 1.73642765,5.15031705 L3.88775372,-0.425865989 Z" id="Triangle-1" transform="translate(4.069450, 2.500722) rotate(90.000000) translate(-4.069450, -2.500722) "></path>
                    </g>
                </g>
            </g>
            <text id="A" fill="#8D9EB0" font-family="ArtifaktElement-Bold, Artifakt Element" font-size="18.7513963" font-weight="bold">
                <tspan x="50.2625732" y="41">A</tspan>
            </text>
            <rect id="Rectangle-132" fill="#8D9EB0" fill-rule="nonzero" x="233.933594" y="56" width="19" height="1" rx="0.5"></rect>
            <rect id="Rectangle-132-Copy" fill="#8D9EB0" fill-rule="nonzero" x="72.5595703" y="56.5" width="19" height="1" rx="0.5"></rect>
            <rect id="Rectangle-133" fill="#8D9EB0" fill-rule="nonzero" x="233.933594" y="123" width="19" height="1" rx="0.5"></rect>
            <rect id="Rectangle-133-Copy" fill="#8D9EB0" fill-rule="nonzero" x="72.5595703" y="124" width="19" height="1" rx="0.5"></rect>
            <rect id="Rectangle-133" fill="#8D9EB0" fill-rule="nonzero" x="223.391602" y="129.332031" width="44.0310547" height="1" rx="0.5"></rect>
            <rect id="Rectangle-133" fill="#8D9EB0" fill-rule="nonzero" x="223.391602" y="49.8208008" width="43.0419922" height="1" rx="0.5"></rect>
            <g id="Group" transform="translate(263.933594, 65.500000) scale(-1, 1) rotate(-90.000000) translate(-263.933594, -65.500000) translate(248.933594, 63.000000)" fill="#8D9EB0" fill-rule="nonzero">
                <path d="M0.85949707,2.5 C0.85949707,2.22385763 1.08548323,2 1.35834624,2 L26.5011508,2 C26.7766576,2 27,2.23193359 27,2.5 L27,2.5 C27,2.77614237 26.7740138,3 26.5011508,3 L1.35834624,3 C1.08283945,3 0.85949707,2.76806641 0.85949707,2.5 L0.85949707,2.5 Z" id="Rectangle-95"></path>
                <g id="triangle" transform="translate(22.000000, 0.000000)">
                    <path d="M3.88775372,-0.425865989 C3.98755742,-0.684554668 4.1520679,-0.677564857 4.24917489,-0.425865989 L6.40050097,5.15031705 C6.50030467,5.40900573 6.36527233,5.61871433 6.08097505,5.61871433 L2.05595356,5.61871433 C1.77968058,5.61871433 1.63932066,5.40201591 1.73642765,5.15031705 L3.88775372,-0.425865989 Z" id="Triangle-1" transform="translate(4.069450, 2.500722) rotate(90.000000) translate(-4.069450, -2.500722) "></path>
                </g>
            </g>
            <g id="Group-Copy" transform="translate(263.933594, 113.871493) rotate(90.000000) translate(-263.933594, -113.871493) translate(248.933594, 111.371493)" fill="#8D9EB0" fill-rule="nonzero">
                <path d="M0.85949707,2.5 C0.85949707,2.22385763 1.08548323,2 1.35834624,2 L26.5011508,2 C26.7766576,2 27,2.23193359 27,2.5 L27,2.5 C27,2.77614237 26.7740138,3 26.5011508,3 L1.35834624,3 C1.08283945,3 0.85949707,2.76806641 0.85949707,2.5 L0.85949707,2.5 Z" id="Rectangle-95"></path>
                <g id="triangle" transform="translate(22.000000, 0.000000)">
                    <path d="M3.88775372,-0.425865989 C3.98755742,-0.684554668 4.1520679,-0.677564857 4.24917489,-0.425865989 L6.40050097,5.15031705 C6.50030467,5.40900573 6.36527233,5.61871433 6.08097505,5.61871433 L2.05595356,5.61871433 C1.77968058,5.61871433 1.63932066,5.40201591 1.73642765,5.15031705 L3.88775372,-0.425865989 Z" id="Triangle-1" transform="translate(4.069450, 2.500722) rotate(90.000000) translate(-4.069450, -2.500722) "></path>
                </g>
            </g>
            <text id="E" fill="#8D9EB0" font-family="ArtifaktElement-Bold, Artifakt Element" font-size="18.7513963" font-weight="bold">
                <tspan x="259.933594" y="95">E</tspan>
            </text>
            <text id="E1" fill="#8D9EB0" font-family="ArtifaktElement-Bold, Artifakt Element" font-size="18.7513963" font-weight="bold">
                <tspan x="236.433594" y="95">E1</tspan>
            </text>
            <text id="E2" fill="#8D9EB0" font-family="ArtifaktElement-Bold, Artifakt Element" font-size="18.7513963" font-weight="bold">
                <tspan x="77.5595703" y="95">E2</tspan>
            </text>
            <g id="Group-15" transform="translate(243.933594, 57.000000)" fill="#8D9EB0" fill-rule="nonzero">
                <g id="triangle" transform="translate(2.500000, 4.000000) rotate(-90.000000) translate(-2.500000, -4.000000) translate(-1.500000, 1.500000)">
                    <path d="M3.88775372,-0.425865989 C3.98755742,-0.684554668 4.1520679,-0.677564857 4.24917489,-0.425865989 L6.40050097,5.15031705 C6.50030467,5.40900573 6.36527233,5.61871433 6.08097505,5.61871433 L2.05595356,5.61871433 C1.77968058,5.61871433 1.63932066,5.40201591 1.73642765,5.15031705 L3.88775372,-0.425865989 Z" id="Triangle-1" transform="translate(4.069450, 2.500722) rotate(90.000000) translate(-4.069450, -2.500722) "></path>
                </g>
                <path d="M2,4.49269494 C2,4.22058704 2.23193359,4 2.5,4 L2.5,4 C2.77614237,4 3,4.23289896 3,4.49269494 L3,21.9274711 C3,22.199579 2.76806641,22.420166 2.5,22.420166 L2.5,22.420166 C2.22385763,22.420166 2,22.1872671 2,21.9274711 L2,4.49269494 Z" id="Rectangle-134"></path>
            </g>
            <g id="Group-15-Copy" transform="translate(86.559570, 57.000000)" fill="#8D9EB0" fill-rule="nonzero">
                <g id="triangle" transform="translate(2.500000, 4.000000) rotate(-90.000000) translate(-2.500000, -4.000000) translate(-1.500000, 1.500000)">
                    <path d="M3.88775372,-0.425865989 C3.98755742,-0.684554668 4.1520679,-0.677564857 4.24917489,-0.425865989 L6.40050097,5.15031705 C6.50030467,5.40900573 6.36527233,5.61871433 6.08097505,5.61871433 L2.05595356,5.61871433 C1.77968058,5.61871433 1.63932066,5.40201591 1.73642765,5.15031705 L3.88775372,-0.425865989 Z" id="Triangle-1" transform="translate(4.069450, 2.500722) rotate(90.000000) translate(-4.069450, -2.500722) "></path>
                </g>
                <rect id="Rectangle-134" x="2" y="4" width="1" height="18.9810791" rx="0.5"></rect>
            </g>
            <g id="Group-16" transform="translate(243.933594, 99.191406)" fill="#8D9EB0" fill-rule="nonzero">
                <g id="triangle" transform="translate(2.500000, 20.000000) scale(-1, 1) rotate(90.000000) translate(-2.500000, -20.000000) translate(-1.500000, 17.500000)">
                    <path d="M3.88775372,-0.425865989 C3.98755742,-0.684554668 4.1520679,-0.677564857 4.24917489,-0.425865989 L6.40050097,5.15031705 C6.50030467,5.40900573 6.36527233,5.61871433 6.08097505,5.61871433 L2.05595356,5.61871433 C1.77968058,5.61871433 1.63932066,5.40201591 1.73642765,5.15031705 L3.88775372,-0.425865989 Z" id="Triangle-1" transform="translate(4.069450, 2.500722) rotate(90.000000) translate(-4.069450, -2.500722) "></path>
                </g>
                <rect id="Rectangle-134" x="2" y="0.552856445" width="1" height="18" rx="0.5"></rect>
            </g>
            <g id="Group-16-Copy" transform="translate(86.559570, 97.191406)" fill="#8D9EB0" fill-rule="nonzero">
                <g id="triangle" transform="translate(2.500000, 22.000000) scale(-1, 1) rotate(90.000000) translate(-2.500000, -22.000000) translate(-1.500000, 19.500000)">
                    <path d="M3.88775372,-0.425865989 C3.98755742,-0.684554668 4.1520679,-0.677564857 4.24917489,-0.425865989 L6.40050097,5.15031705 C6.50030467,5.40900573 6.36527233,5.61871433 6.08097505,5.61871433 L2.05595356,5.61871433 C1.77968058,5.61871433 1.63932066,5.40201591 1.73642765,5.15031705 L3.88775372,-0.425865989 Z" id="Triangle-1" transform="translate(4.069450, 2.500722) rotate(90.000000) translate(-4.069450, -2.500722) "></path>
                </g>
                <rect id="Rectangle-134" x="2" y="0.98449707" width="1" height="19" rx="0.5"></rect>
            </g>
            <rect id="Rectangle-137" fill="#8D9EB0" fill-rule="nonzero" x="144.21582" y="131.332031" width="1" height="13" rx="0.5"></rect>
            <rect id="Rectangle-137-Copy" fill="#8D9EB0" fill-rule="nonzero" x="192.239258" y="131.332031" width="1" height="13" rx="0.5"></rect>
            <rect id="Rectangle-137" fill="#8D9EB0" fill-rule="nonzero" x="157.037354" y="131.332031" width="1" height="13" rx="0.5"></rect>
            <rect id="Rectangle-137-Copy-2" fill="#8D9EB0" fill-rule="nonzero" x="196.060791" y="131.332031" width="1" height="13" rx="0.5"></rect>
            <text id="e" fill="#8D9EB0" font-family="ArtifaktElement-Bold, Artifakt Element" font-size="18.7513963" font-weight="bold">
                <tspan x="145.840088" y="147.899414">e</tspan>
            </text>
            <text id="b" fill="#8D9EB0" font-family="ArtifaktElement-Bold, Artifakt Element" font-size="18.7513963" font-weight="bold">
                <tspan x="205.784668" y="147.899414">b</tspan>
            </text>
            <g id="Group-17" transform="translate(156.507324, 138.332031)" fill="#8D9EB0" fill-rule="nonzero">
                <g id="triangle" transform="translate(4.933594, 2.500000) scale(-1, 1) translate(-4.933594, -2.500000) translate(0.933594, 0.000000)">
                    <path d="M3.88775372,-0.425865989 C3.98755742,-0.684554668 4.1520679,-0.677564857 4.24917489,-0.425865989 L6.40050097,5.15031705 C6.50030467,5.40900573 6.36527233,5.61871433 6.08097505,5.61871433 L2.05595356,5.61871433 C1.77968058,5.61871433 1.63932066,5.40201591 1.73642765,5.15031705 L3.88775372,-0.425865989 Z" id="Triangle-1" transform="translate(4.069450, 2.500722) rotate(90.000000) translate(-4.069450, -2.500722) "></path>
                </g>
                <rect id="Rectangle-144" x="6.93359375" y="2" width="4" height="1" rx="0.5"></rect>
            </g>
            <g id="Group-17-Copy" transform="translate(195.530762, 138.332031)" fill="#8D9EB0" fill-rule="nonzero">
                <g id="triangle" transform="translate(4.933594, 2.500000) scale(-1, 1) translate(-4.933594, -2.500000) translate(0.933594, 0.000000)">
                    <path d="M3.88775372,-0.425865989 C3.98755742,-0.684554668 4.1520679,-0.677564857 4.24917489,-0.425865989 L6.40050097,5.15031705 C6.50030467,5.40900573 6.36527233,5.61871433 6.08097505,5.61871433 L2.05595356,5.61871433 C1.77968058,5.61871433 1.63932066,5.40201591 1.73642765,5.15031705 L3.88775372,-0.425865989 Z" id="Triangle-1" transform="translate(4.069450, 2.500722) rotate(90.000000) translate(-4.069450, -2.500722) "></path>
                </g>
                <rect id="Rectangle-144" x="6.93359375" y="2" width="4" height="1" rx="0.5"></rect>
            </g>
            <g id="Group-17-Copy" transform="translate(71.000000, 139.000000)" fill="#8D9EB0" fill-rule="nonzero">
                <g id="triangle" transform="translate(4.933594, 2.500000) scale(-1, 1) translate(-4.933594, -2.500000) translate(0.933594, 0.000000)">
                    <path d="M3.88775372,-0.425865989 C3.98755742,-0.684554668 4.1520679,-0.677564857 4.24917489,-0.425865989 L6.40050097,5.15031705 C6.50030467,5.40900573 6.36527233,5.61871433 6.08097505,5.61871433 L2.05595356,5.61871433 C1.77968058,5.61871433 1.63932066,5.40201591 1.73642765,5.15031705 L3.88775372,-0.425865989 Z" id="Triangle-1" transform="translate(4.069450, 2.500722) rotate(90.000000) translate(-4.069450, -2.500722) "></path>
                </g>
                <rect id="Rectangle-144" x="6.93359375" y="2" width="4" height="1" rx="0.5"></rect>
            </g>
            <g id="Group-18" transform="translate(134.282227, 138.332031)" fill="#8D9EB0" fill-rule="nonzero">
                <g id="triangle" transform="translate(6.933594, 2.500000) scale(-1, 1) rotate(-180.000000) translate(-6.933594, -2.500000) translate(2.933594, 0.000000)">
                    <path d="M3.88775372,-0.425865989 C3.98755742,-0.684554668 4.1520679,-0.677564857 4.24917489,-0.425865989 L6.40050097,5.15031705 C6.50030467,5.40900573 6.36527233,5.61871433 6.08097505,5.61871433 L2.05595356,5.61871433 C1.77968058,5.61871433 1.63932066,5.40201591 1.73642765,5.15031705 L3.88775372,-0.425865989 Z" id="Triangle-1" transform="translate(4.069450, 2.500722) rotate(90.000000) translate(-4.069450, -2.500722) "></path>
                </g>
                <path d="M4.93359375,2.5 C4.93359375,2.77614237 4.71853638,3 4.44311523,3 L1.42407227,3 C1.15318846,3 0.93359375,2.76806641 0.93359375,2.5 L0.93359375,2.5 C0.93359375,2.22385763 1.14865112,2 1.42407227,2 L4.44311523,2 C4.71399904,2 4.93359375,2.23193359 4.93359375,2.5 L4.93359375,2.5" id="Rectangle-144"></path>
            </g>
            <g id="Group-18-Copy" transform="translate(182.305664, 138.332031)" fill="#8D9EB0" fill-rule="nonzero">
                <g id="triangle" transform="translate(6.933594, 2.500000) scale(-1, 1) rotate(-180.000000) translate(-6.933594, -2.500000) translate(2.933594, 0.000000)">
                    <path d="M3.88775372,-0.425865989 C3.98755742,-0.684554668 4.1520679,-0.677564857 4.24917489,-0.425865989 L6.40050097,5.15031705 C6.50030467,5.40900573 6.36527233,5.61871433 6.08097505,5.61871433 L2.05595356,5.61871433 C1.77968058,5.61871433 1.63932066,5.40201591 1.73642765,5.15031705 L3.88775372,-0.425865989 Z" id="Triangle-1" transform="translate(4.069450, 2.500722) rotate(90.000000) translate(-4.069450, -2.500722) "></path>
                </g>
                <path d="M4.93359375,2.5 C4.93359375,2.77614237 4.71853638,3 4.44311523,3 L1.42407227,3 C1.15318846,3 0.93359375,2.76806641 0.93359375,2.5 L0.93359375,2.5 C0.93359375,2.22385763 1.14865112,2 1.42407227,2 L4.44311523,2 C4.71399904,2 4.93359375,2.23193359 4.93359375,2.5 L4.93359375,2.5" id="Rectangle-144"></path>
            </g>
            <g id="Group-18-Copy" transform="translate(53.000000, 139.000000)" fill="#8D9EB0" fill-rule="nonzero">
                <g id="triangle" transform="translate(6.933594, 2.500000) scale(-1, 1) rotate(-180.000000) translate(-6.933594, -2.500000) translate(2.933594, 0.000000)">
                    <path d="M3.88775372,-0.425865989 C3.98755742,-0.684554668 4.1520679,-0.677564857 4.24917489,-0.425865989 L6.40050097,5.15031705 C6.50030467,5.40900573 6.36527233,5.61871433 6.08097505,5.61871433 L2.05595356,5.61871433 C1.77968058,5.61871433 1.63932066,5.40201591 1.73642765,5.15031705 L3.88775372,-0.425865989 Z" id="Triangle-1" transform="translate(4.069450, 2.500722) rotate(90.000000) translate(-4.069450, -2.500722) "></path>
                </g>
                <path d="M4.93359375,2.5 C4.93359375,2.77614237 4.71853638,3 4.44311523,3 L1.42407227,3 C1.15318846,3 0.93359375,2.76806641 0.93359375,2.5 L0.93359375,2.5 C0.93359375,2.22385763 1.14865112,2 1.42407227,2 L4.44311523,2 C4.71399904,2 4.93359375,2.23193359 4.93359375,2.5 L4.93359375,2.5" id="Rectangle-144"></path>
            </g>
            <text id="A1" fill="#8D9EB0" font-family="ArtifaktElement-Bold, Artifakt Element" font-size="18.7513963" font-weight="bold">
                <tspan x="82" y="148">A1</tspan>
            </text>
        </g>
    </g>
</svg>