<?xml version="1.0" encoding="UTF-8"?>
<svg width="290px" height="175px" viewBox="0 0 290 175" version="1.1" xmlns="http://www.w3.org/2000/svg" xmlns:xlink="http://www.w3.org/1999/xlink">
    <!-- Generator: Sketch 50.2 (55047) - http://www.bohemiancoding.com/sketch -->
    <title>Solder Paste Pattern</title>
    <desc>Created with Sketch.</desc>
    <defs></defs>
    <g id="Solder-Paste-Pattern" stroke="none" stroke-width="1" fill="none" fill-rule="evenodd">
        <rect id="Rectangle-22" stroke="#979797" x="94.5" y="20.5" width="131" height="131"></rect>
        <rect id="Rectangle-23" stroke="#979797" fill="#D8D8D8" x="104.5" y="29.5" width="49" height="49"></rect>
        <rect id="Rectangle-23-Copy" stroke="#979797" fill="#D8D8D8" x="166.5" y="29.5" width="49" height="49"></rect>
        <rect id="Rectangle-23-Copy-2" stroke="#979797" fill="#D8D8D8" x="166.5" y="91.5" width="49" height="49"></rect>
        <rect id="Rectangle-23-Copy-3" stroke="#979797" fill="#D8D8D8" x="104.5" y="91.5" width="49" height="49"></rect>
        <path d="M78.1052154,47 L80.4303885,47 L80.4303885,60.8760332 L78.6115031,60.8760332 L78.3677349,59.7884523 C77.711436,60.5947623 76.8488718,61.1198014 75.6300311,61.1198014 C73.3048579,61.1198014 71.6734864,59.2634132 71.6734864,56.4132009 L71.6734864,55.3631227 C71.6734864,52.6254189 73.3236093,50.6377709 75.7425394,50.6377709 C76.717612,50.6377709 77.4676679,50.9377932 78.1052154,51.5190865 L78.1052154,47 Z M76.0425618,59.3759215 C76.9613802,59.3759215 77.5801763,58.925888 78.1052154,58.213335 L78.1052154,53.2254636 C77.6926846,52.7754301 76.998883,52.4004021 76.1363188,52.4004021 C74.8049696,52.4004021 73.9986596,53.4129775 73.9986596,55.3068685 L73.9986596,56.4507037 C73.9986596,58.4383517 74.7862182,59.3759215 76.0425618,59.3759215 Z M87.124637,61.1198014 C84.7057069,61.1198014 83.3743577,60.2384858 82.3805337,59.113402 L83.7306342,57.8195556 C84.5369443,58.6821199 85.5682711,59.3196673 86.9933772,59.3196673 C88.4372347,59.3196673 89.6560755,58.7571255 89.6560755,57.2570138 L89.6560755,56.7882289 C89.6560755,55.1568574 87.9684498,54.7818295 86.9746258,54.7818295 L85.755785,54.7818295 L85.755785,53.0942038 L86.9746258,53.0942038 C87.9684498,53.0942038 89.2622961,52.7379273 89.2622961,51.4065781 L89.2622961,50.975296 C89.2622961,49.7189525 88.212218,49.2689189 87.0121286,49.2689189 C85.755785,49.2689189 84.7807124,49.793958 83.8243912,50.6752737 L82.5680477,49.4189301 C83.6931315,48.3125977 85.1182376,47.5062877 87.1996426,47.5062877 C89.6185727,47.5062877 91.5499665,48.7813826 91.5499665,50.7127765 L91.5499665,51.4440809 C91.5499665,52.6254189 90.4248827,53.5442373 89.2997989,53.8067568 C90.4248827,53.9942708 92,54.9880948 92,56.6007149 L92,57.4445277 C92,59.5446841 89.9373464,61.1198014 87.124637,61.1198014 Z" id="d3" fill="#8D9EB0"></path>
        <rect id="Rectangle-132-Copy-2" fill="#8D9EB0" x="82" y="29" width="20" height="1" rx="0.5"></rect>
        <rect id="Rectangle-132-Copy-3" fill="#8D9EB0" x="82" y="78" width="20" height="1" rx="0.5"></rect>
        <g id="left-arrow-copy" transform="translate(106.000000, 10.000000)" fill="#8D9EB0">
            <g id="triangle" transform="translate(3.000000, 2.500000) scale(-1, 1) translate(-3.000000, -2.500000) ">
                <path d="M2.88775351,-0.425866237 C2.98755721,-0.684554916 3.15206769,-0.677565105 3.24917468,-0.425866237 L5.40050076,5.1503168 C5.50030446,5.40900548 5.36527212,5.61871408 5.08097484,5.61871408 L1.05595335,5.61871408 C0.779680363,5.61871408 0.639320451,5.40201566 0.736427439,5.1503168 L2.88775351,-0.425866237 Z" id="Triangle-1" transform="translate(3.069450, 2.500722) rotate(90.000000) translate(-3.069450, -2.500722) "></path>
            </g>
            <rect id="Rectangle-144" x="2.84999847" y="1.88944875" width="8" height="1" rx="0.5"></rect>
        </g>
        <g id="left-arrow-copy-2" transform="translate(146.000000, 12.500000) scale(-1, 1) translate(-146.000000, -12.500000) translate(140.000000, 10.000000)" fill="#8D9EB0">
            <g id="triangle" transform="translate(2.875000, 2.500000) scale(-1, 1) translate(-2.875000, -2.500000) ">
                <path d="M2.76743045,-0.425866237 C2.86307566,-0.684554916 3.02073154,-0.677565105 3.1137924,-0.425866237 L5.17547989,5.1503168 C5.2711251,5.40900548 5.11637041,5.61871408 4.85139336,5.61871408 L1.02982949,5.61871408 C0.755196231,5.61871408 0.612682099,5.40201566 0.705742962,5.1503168 L2.76743045,-0.425866237 Z" id="Triangle-1" transform="translate(2.941556, 2.500722) rotate(90.000000) translate(-2.941556, -2.500722) "></path>
            </g>
            <rect id="Rectangle-144" x="2.73374007" y="1.88944875" width="8" height="1" rx="0.5"></rect>
        </g>
        <g id="Group-Copy" transform="translate(80.000000, 30.000000)" fill="#8D9EB0">
            <g id="triangle" transform="translate(3.184082, 3.484497) rotate(-90.000000) translate(-3.184082, -3.484497) translate(0.184082, 0.984497)">
                <path d="M2.88775351,-0.425866237 C2.98755721,-0.684554916 3.15206769,-0.677565105 3.24917468,-0.425866237 L5.40050076,5.1503168 C5.50030446,5.40900548 5.36527212,5.61871408 5.08097484,5.61871408 L1.05595335,5.61871408 C0.779680363,5.61871408 0.639320451,5.40201566 0.736427439,5.1503168 L2.88775351,-0.425866237 Z" id="Triangle-1" transform="translate(3.069450, 2.500722) rotate(90.000000) translate(-3.069450, -2.500722) "></path>
            </g>
            <rect id="Rectangle-134" x="2.6000061" y="3" width="1" height="12" rx="0.5"></rect>
        </g>
        <g id="Group-Copy-2" transform="translate(83.000000, 70.000000) scale(1, -1) translate(-83.000000, -70.000000) translate(80.000000, 62.000000)" fill="#8D9EB0">
            <g id="triangle" transform="translate(3.184082, 3.484497) rotate(-90.000000) translate(-3.184082, -3.484497) translate(0.184082, 0.984497)">
                <path d="M2.88775351,-0.425866237 C2.98755721,-0.684554916 3.15206769,-0.677565105 3.24917468,-0.425866237 L5.40050076,5.1503168 C5.50030446,5.40900548 5.36527212,5.61871408 5.08097484,5.61871408 L1.05595335,5.61871408 C0.779680363,5.61871408 0.639320451,5.40201566 0.736427439,5.1503168 L2.88775351,-0.425866237 Z" id="Triangle-1" transform="translate(3.069450, 2.500722) rotate(90.000000) translate(-3.069450, -2.500722) "></path>
            </g>
            <rect id="Rectangle-134" x="2.68408203" y="3.48449707" width="1" height="12" rx="0.5"></rect>
        </g>
        <path d="M127.775653,12.9880948 C127.775653,13.4006255 127.738151,13.8131562 127.700648,14.1131786 L121.268919,14.1131786 C121.306422,16.025821 122.187737,16.8696338 123.912866,16.8696338 C125.000447,16.8696338 125.806757,16.4758545 126.575564,16.0445724 L127.400626,17.4321757 C126.556813,18.0697232 125.206712,18.6135137 123.762855,18.6135137 C120.725128,18.6135137 119,16.6071143 119,13.9069132 L119,12.8755864 C119,10.1753854 120.687626,8.13148318 123.462832,8.13148318 C126.181785,8.13148318 127.775653,9.81910884 127.775653,12.9880948 Z M125.694248,12.5943155 L125.694248,12.5005585 C125.694248,10.7754301 124.925441,9.83786024 123.481584,9.83786024 C122.056478,9.83786024 121.306422,10.7754301 121.268919,12.5943155 L125.694248,12.5943155 Z M133.701095,18.6135137 C131.282165,18.6135137 129.950815,17.7321981 128.956991,16.6071143 L130.307092,15.3132679 C131.113402,16.1758322 132.144729,16.8133796 133.569835,16.8133796 C135.013692,16.8133796 136.232533,16.2508378 136.232533,14.7507261 L136.232533,14.2819412 C136.232533,12.6505697 134.544908,12.2755418 133.551084,12.2755418 L132.332243,12.2755418 L132.332243,10.5879161 L133.551084,10.5879161 C134.544908,10.5879161 135.838754,10.2316396 135.838754,8.90029042 L135.838754,8.46900831 C135.838754,7.21266476 134.788676,6.76263125 133.588586,6.76263125 C132.332243,6.76263125 131.35717,7.28767034 130.400849,8.16898597 L129.144505,6.91264242 C130.269589,5.80631004 131.694695,5 133.7761,5 C136.19503,5 138.126424,6.27509495 138.126424,8.20648876 L138.126424,8.93779322 C138.126424,10.1191312 137.00134,11.0379496 135.876257,11.3004691 C137.00134,11.4879831 138.576458,12.4818071 138.576458,14.0944272 L138.576458,14.93824 C138.576458,17.0383964 136.513804,18.6135137 133.701095,18.6135137 Z" id="e3" fill="#8D9EB0"></path>
        <rect id="Rectangle-93" fill="#8D9EB0" x="104" y="9" width="1" height="18" rx="0.5"></rect>
        <rect id="Rectangle-93-Copy" fill="#8D9EB0" x="153" y="9" width="1" height="18" rx="0.5"></rect>
        <path d="M253.800581,78.0242572 L255.713223,78.0242572 L255.713223,88.0375028 C255.713223,90.6064441 253.781829,91.9940474 251.287894,91.9940474 C249.769031,91.9940474 248.531438,91.6377709 247.556366,91.0564776 L248.28767,89.6501229 C249.131483,90.0439022 249.956545,90.2501676 251.119131,90.2501676 C252.600491,90.2501676 253.444304,89.5751173 253.444304,88.0187514 L253.444304,86.7624078 C252.806757,87.4937123 251.925441,88 250.781606,88 C248.700201,88 246.956321,86.6311481 246.956321,83.3309023 L246.956321,82.4870895 C246.956321,79.3368549 248.868964,77.7617376 250.912866,77.7617376 C252.075452,77.7617376 252.919265,78.155517 253.631818,78.9055728 L253.800581,78.0242572 Z M251.175385,86.2373688 C252.056701,86.2373688 252.825508,85.824838 253.369299,85.0935336 L253.369299,80.5181929 C252.84426,79.8806454 252.206712,79.5243689 251.325397,79.5243689 C250.181561,79.5243689 249.281494,80.1806678 249.281494,82.4308353 L249.281494,83.3309023 C249.281494,85.5998213 250.050302,86.2373688 251.175385,86.2373688 Z M263.401296,86.2186174 L265.707717,86.2186174 L265.707717,88 L258.432176,88 L258.432176,86.2186174 L261.113625,86.2186174 L261.113625,77.4242125 L258.844706,78.5492963 L257.982142,77.0116818 L261.657416,74.8740226 L263.401296,74.8740226 L263.401296,86.2186174 Z" id="g1" fill="#8D9EB0"></path>
        <path d="M185.300581,156.024257 L187.213223,156.024257 L187.213223,166.037503 C187.213223,168.606444 185.281829,169.994047 182.787894,169.994047 C181.269031,169.994047 180.031438,169.637771 179.056366,169.056478 L179.78767,167.650123 C180.631483,168.043902 181.456545,168.250168 182.619131,168.250168 C184.100491,168.250168 184.944304,167.575117 184.944304,166.018751 L184.944304,164.762408 C184.306757,165.493712 183.425441,166 182.281606,166 C180.200201,166 178.456321,164.631148 178.456321,161.330902 L178.456321,160.487089 C178.456321,157.336855 180.368964,155.761738 182.412866,155.761738 C183.575452,155.761738 184.419265,156.155517 185.131818,156.905573 L185.300581,156.024257 Z M182.675385,164.237369 C183.556701,164.237369 184.325508,163.824838 184.869299,163.093534 L184.869299,158.518193 C184.34426,157.880645 183.706712,157.524369 182.825397,157.524369 C181.681561,157.524369 180.781494,158.180668 180.781494,160.430835 L180.781494,161.330902 C180.781494,163.599821 181.550302,164.237369 182.675385,164.237369 Z M191.769813,164.087358 L197.901519,164.087358 L197.901519,166 L189.444639,166 L189.444639,164.668651 C189.444639,162.343478 190.569723,161.068383 192.088586,160.018305 L193.88872,158.780712 C195.070058,157.974402 195.520092,157.486866 195.520092,156.624302 L195.520092,156.174268 C195.520092,155.38671 194.901296,154.467891 193.34493,154.467891 C192.219846,154.467891 191.33853,154.805416 190.213447,155.592975 L189.163368,154.167869 C190.382209,153.211548 191.751061,152.630254 193.494941,152.630254 C196.326402,152.630254 197.882768,154.336632 197.882768,156.099263 L197.882768,156.680556 C197.882768,157.974402 197.095209,159.118238 195.070058,160.430835 L193.626201,161.368405 C192.163592,162.324726 191.807315,163.093534 191.769813,164.087358 Z" id="g2" fill="#8D9EB0"></path>
        <rect id="Rectangle-132-Copy-10" fill="#8D9EB0" x="218" y="78" width="28" height="1" rx="0.5"></rect>
        <rect id="Rectangle-132-Copy-11" fill="#8D9EB0" x="218" y="91" width="28" height="1" rx="0.5"></rect>
        <g id="Group-Copy" transform="translate(240.000000, 68.000000)" fill="#8D9EB0">
            <rect id="Rectangle-134" x="2.5" y="0.773219382" width="1" height="5" rx="0.5"></rect>
            <g id="triangle" transform="translate(3.000000, 6.500000) rotate(90.000000) translate(-3.000000, -6.500000) translate(0.000000, 4.000000)">
                <path d="M2.88775351,-0.425866237 C2.98755721,-0.684554916 3.15206769,-0.677565105 3.24917468,-0.425866237 L5.40050076,5.1503168 C5.50030446,5.40900548 5.36527212,5.61871408 5.08097484,5.61871408 L1.05595335,5.61871408 C0.779680363,5.61871408 0.639320451,5.40201566 0.736427439,5.1503168 L2.88775351,-0.425866237 Z" id="Triangle-1" transform="translate(3.069450, 2.500722) rotate(90.000000) translate(-3.069450, -2.500722) "></path>
            </g>
        </g>
        <g id="Group-Copy-3" transform="translate(243.000000, 97.000000) scale(1, -1) translate(-243.000000, -97.000000) translate(240.000000, 92.000000)" fill="#8D9EB0">
            <rect id="Rectangle-134" x="2.5" y="0.773219382" width="1" height="5" rx="0.5"></rect>
            <g id="triangle" transform="translate(3.000000, 6.500000) rotate(90.000000) translate(-3.000000, -6.500000) translate(0.000000, 4.000000)">
                <path d="M2.88775351,-0.425866237 C2.98755721,-0.684554916 3.15206769,-0.677565105 3.24917468,-0.425866237 L5.40050076,5.1503168 C5.50030446,5.40900548 5.36527212,5.61871408 5.08097484,5.61871408 L1.05595335,5.61871408 C0.779680363,5.61871408 0.639320451,5.40201566 0.736427439,5.1503168 L2.88775351,-0.425866237 Z" id="Triangle-1" transform="translate(3.069450, 2.500722) rotate(90.000000) translate(-3.069450, -2.500722) "></path>
            </g>
        </g>
        <g id="Group" transform="translate(161.000000, 153.000000) rotate(90.000000) translate(-161.000000, -153.000000) translate(150.000000, 137.000000)" fill="#8D9EB0">
            <rect id="Rectangle-132-Copy-12" x="0" y="10" width="22" height="1" rx="0.5"></rect>
            <rect id="Rectangle-132-Copy-13" x="0" y="23" width="22" height="1" rx="0.5"></rect>
            <g id="Group-Copy-4" transform="translate(16.000000, 0.000000)">
                <rect id="Rectangle-134" x="2.5" y="0.773219382" width="1" height="5" rx="0.5"></rect>
                <g id="triangle" transform="translate(3.000000, 6.500000) rotate(90.000000) translate(-3.000000, -6.500000) translate(0.000000, 4.000000)">
                    <path d="M2.88775351,-0.425866237 C2.98755721,-0.684554916 3.15206769,-0.677565105 3.24917468,-0.425866237 L5.40050076,5.1503168 C5.50030446,5.40900548 5.36527212,5.61871408 5.08097484,5.61871408 L1.05595335,5.61871408 C0.779680363,5.61871408 0.639320451,5.40201566 0.736427439,5.1503168 L2.88775351,-0.425866237 Z" id="Triangle-1" transform="translate(3.069450, 2.500722) rotate(90.000000) translate(-3.069450, -2.500722) "></path>
                </g>
            </g>
            <g id="Group-Copy-5" transform="translate(19.000000, 27.000000) scale(1, -1) translate(-19.000000, -27.000000) translate(16.000000, 22.000000)">
                <rect id="Rectangle-134" x="3" y="0" width="1" height="5" rx="0.5"></rect>
                <g id="triangle" transform="translate(3.000000, 5.500000) rotate(90.000000) translate(-3.000000, -5.500000) translate(-1.000000, 3.000000)">
                    <path d="M3.88775351,-0.425866237 C3.98755721,-0.684554916 4.15206769,-0.677565105 4.24917468,-0.425866237 L6.40050076,5.1503168 C6.50030446,5.40900548 6.36527212,5.61871408 6.08097484,5.61871408 L2.05595335,5.61871408 C1.77968036,5.61871408 1.63932045,5.40201566 1.73642744,5.1503168 L3.88775351,-0.425866237 Z" id="Triangle-1" transform="translate(4.069450, 2.500722) rotate(90.000000) translate(-4.069450, -2.500722) "></path>
                </g>
            </g>
        </g>
    </g>
</svg>