<?xml version="1.0" encoding="UTF-8"?>
<svg width="290px" height="175px" viewBox="0 0 290 175" version="1.1" xmlns="http://www.w3.org/2000/svg" xmlns:xlink="http://www.w3.org/1999/xlink">
    <!-- Generator: Sketch 50.2 (55047) - http://www.bohemiancoding.com/sketch -->
    <title>SON-labeled thermal</title>
    <desc>Created with Sketch.</desc>
    <defs>
        <path d="M126,53 L222,53 L222,118 L126,118 L126,53 Z" id="path-1"></path>
        <mask id="mask-2" maskContentUnits="userSpaceOnUse" maskUnits="objectBoundingBox" x="0" y="0" width="96" height="65" fill="white">
            <use xlink:href="#path-1"></use>
        </mask>
    </defs>
    <g id="SON-labeled-thermal" stroke="none" stroke-width="1" fill="none" fill-rule="evenodd">
        <g id="Oscillator-LBend" transform="translate(30.000000, 29.000000)">
            <rect id="Rectangle-31" stroke="#505050" stroke-width="3" fill="#585858" x="70.7937928" y="2.5" width="146.684487" height="109" rx="1"></rect>
            <rect id="Rectangle-31" stroke="#505050" stroke-width="3" fill="#585858" x="1.94831226" y="2.2640581" width="35.6282547" height="109" rx="1"></rect>
            <path d="M171.192961,111.807492 L179.850025,111.807492 L179.850025,99.3988735 C179.850025,97.0109476 177.913068,95.0774927 175.521493,95.0774927 C173.134211,95.0774927 171.192961,97.0143637 171.192961,99.3988735 L171.192961,111.807492 Z" id="Rectangle-32" stroke="#979797" fill="#D8D8D8" transform="translate(175.521493, 103.442493) rotate(-360.000000) translate(-175.521493, -103.442493) "></path>
            <path d="M186.88569,111.807492 L195.542754,111.807492 L195.542754,99.3988735 C195.542754,97.0109476 193.605797,95.0774927 191.214222,95.0774927 C188.826939,95.0774927 186.88569,97.0143637 186.88569,99.3988735 L186.88569,111.807492 Z" id="Rectangle-32" stroke="#979797" fill="#D8D8D8" transform="translate(191.214222, 103.442493) rotate(-360.000000) translate(-191.214222, -103.442493) "></path>
            <path d="M155.500233,111.807492 L164.157297,111.807492 L164.157297,99.3988735 C164.157297,97.0109476 162.22034,95.0774927 159.828765,95.0774927 C157.441482,95.0774927 155.500233,97.0143637 155.500233,99.3988735 L155.500233,111.807492 Z" id="Rectangle-32" stroke="#979797" fill="#D8D8D8" transform="translate(159.828765, 103.442493) rotate(-360.000000) translate(-159.828765, -103.442493) "></path>
            <path d="M139.807505,111.807492 L148.464568,111.807492 L148.464568,99.3988735 C148.464568,97.0109476 146.527612,95.0774927 144.136036,95.0774927 C141.748754,95.0774927 139.807505,97.0143637 139.807505,99.3988735 L139.807505,111.807492 Z" id="Rectangle-32" stroke="#979797" fill="#D8D8D8" transform="translate(144.136036, 103.442493) rotate(-360.000000) translate(-144.136036, -103.442493) "></path>
            <path d="M124.114776,111.807492 L132.77184,111.807492 L132.77184,99.3988735 C132.77184,97.0109476 130.834883,95.0774927 128.443308,95.0774927 C126.056025,95.0774927 124.114776,97.0143637 124.114776,99.3988735 L124.114776,111.807492 Z" id="Rectangle-32" stroke="#979797" fill="#D8D8D8" transform="translate(128.443308, 103.442493) rotate(-360.000000) translate(-128.443308, -103.442493) "></path>
            <path d="M108.422048,111.807492 L117.079111,111.807492 L117.079111,99.3988735 C117.079111,97.0109476 115.142155,95.0774927 112.750579,95.0774927 C110.363297,95.0774927 108.422048,97.0143637 108.422048,99.3988735 L108.422048,111.807492 Z" id="Rectangle-32" stroke="#979797" fill="#D8D8D8" transform="translate(112.750579, 103.442493) rotate(-360.000000) translate(-112.750579, -103.442493) "></path>
            <path d="M92.729319,111.807492 L101.386383,111.807492 L101.386383,99.3988735 C101.386383,97.0109476 99.449426,95.0774927 97.0578509,95.0774927 C94.6705685,95.0774927 92.729319,97.0143637 92.729319,99.3988735 L92.729319,111.807492 Z" id="Rectangle-32" stroke="#979797" fill="#D8D8D8" transform="translate(97.057851, 103.442493) rotate(-360.000000) translate(-97.057851, -103.442493) "></path>
            <path d="M171.192961,17.9940576 L179.850025,17.9940576 L179.850025,5.58543889 C179.850025,3.19751293 177.913068,1.2640581 175.521493,1.2640581 C173.134211,1.2640581 171.192961,3.20092908 171.192961,5.58543889 L171.192961,17.9940576 Z" id="Rectangle-32" stroke="#979797" fill="#D8D8D8" transform="translate(175.521493, 9.629058) rotate(-180.000000) translate(-175.521493, -9.629058) "></path>
            <path d="M186.88569,17.9940576 L195.542754,17.9940576 L195.542754,5.58543889 C195.542754,3.19751293 193.605797,1.2640581 191.214222,1.2640581 C188.826939,1.2640581 186.88569,3.20092908 186.88569,5.58543889 L186.88569,17.9940576 Z" id="Rectangle-32" stroke="#979797" fill="#D8D8D8" transform="translate(191.214222, 9.629058) rotate(-180.000000) translate(-191.214222, -9.629058) "></path>
            <path d="M155.500233,17.9940576 L164.157297,17.9940576 L164.157297,5.58543889 C164.157297,3.19751293 162.22034,1.2640581 159.828765,1.2640581 C157.441482,1.2640581 155.500233,3.20092908 155.500233,5.58543889 L155.500233,17.9940576 Z" id="Rectangle-32" stroke="#979797" fill="#D8D8D8" transform="translate(159.828765, 9.629058) rotate(-180.000000) translate(-159.828765, -9.629058) "></path>
            <path d="M139.807505,17.9940576 L148.464568,17.9940576 L148.464568,5.58543889 C148.464568,3.19751293 146.527612,1.2640581 144.136036,1.2640581 C141.748754,1.2640581 139.807505,3.20092908 139.807505,5.58543889 L139.807505,17.9940576 Z" id="Rectangle-32" stroke="#979797" fill="#D8D8D8" transform="translate(144.136036, 9.629058) rotate(-180.000000) translate(-144.136036, -9.629058) "></path>
            <path d="M124.114776,17.9940576 L132.77184,17.9940576 L132.77184,5.58543889 C132.77184,3.19751293 130.834883,1.2640581 128.443308,1.2640581 C126.056025,1.2640581 124.114776,3.20092908 124.114776,5.58543889 L124.114776,17.9940576 Z" id="Rectangle-32" stroke="#979797" fill="#D8D8D8" transform="translate(128.443308, 9.629058) rotate(-180.000000) translate(-128.443308, -9.629058) "></path>
            <path d="M108.422048,17.9940576 L117.079111,17.9940576 L117.079111,5.58543889 C117.079111,3.19751293 115.142155,1.2640581 112.750579,1.2640581 C110.363297,1.2640581 108.422048,3.20092908 108.422048,5.58543889 L108.422048,17.9940576 Z" id="Rectangle-32" stroke="#979797" fill="#D8D8D8" transform="translate(112.750579, 9.629058) rotate(-180.000000) translate(-112.750579, -9.629058) "></path>
            <path d="M92.729319,17.9940576 L101.386383,17.9940576 L101.386383,5.58543889 C101.386383,3.19751293 99.449426,1.2640581 97.0578509,1.2640581 C94.6705685,1.2640581 92.729319,3.20092908 92.729319,5.58543889 L92.729319,17.9940576 Z" id="Rectangle-32" stroke="#979797" fill="#D8D8D8" transform="translate(97.057851, 9.629058) rotate(-180.000000) translate(-97.057851, -9.629058) "></path>
        </g>
        <rect id="Rectangle-132-Copy" fill="#8D9EB0" x="89" y="30" width="30" height="1" rx="0.5"></rect>
        <rect id="Rectangle-132-Copy-5" fill="#8D9EB0" x="89" y="47" width="30" height="1" rx="0.5"></rect>
        <use id="Rectangle" stroke="#D8D8D8" mask="url(#mask-2)" stroke-width="2" stroke-dasharray="2" xlink:href="#path-1"></use>
        <path d="M203.669321,81.0626536 L198.362676,81.0626536 L198.362676,84.7941814 L203.25679,84.7941814 L203.25679,86.6130669 L198.362676,86.6130669 L198.362676,90.5321087 L203.669321,90.5321087 L203.669321,92.3697455 L196,92.3697455 L196,79.2437682 L203.669321,79.2437682 L203.669321,81.0626536 Z M207.907137,90.4571031 L214.038843,90.4571031 L214.038843,92.3697455 L205.581963,92.3697455 L205.581963,91.0383964 C205.581963,88.7132233 206.707047,87.4381283 208.22591,86.3880501 L210.026044,85.150458 C211.207382,84.3441479 211.657416,83.8566116 211.657416,82.9940474 L211.657416,82.5440139 C211.657416,81.7564553 211.03862,80.8376368 209.482254,80.8376368 C208.35717,80.8376368 207.475855,81.175162 206.350771,81.9627206 L205.300693,80.5376145 C206.519533,79.5812933 207.888385,79 209.632265,79 C212.463726,79 214.020092,80.7063771 214.020092,82.4690083 L214.020092,83.0503016 C214.020092,84.3441479 213.232533,85.4879831 211.207382,86.8005808 L209.763525,87.7381507 C208.300916,88.6944719 207.944639,89.4632791 207.907137,90.4571031 Z" id="E2" fill="#8D9EB0"></path>
        <rect id="Rectangle-93-Copy-2" fill="#8D9EB0" x="126" y="63" width="1" height="14" rx="0.5"></rect>
        <rect id="Rectangle-93-Copy-6" fill="#8D9EB0" x="221" y="63" width="1" height="14" rx="0.5"></rect>
        <rect id="Rectangle-132-Copy-2" fill="#8D9EB0" x="194" y="53" width="20.074583" height="1" rx="0.5"></rect>
        <rect id="Rectangle-132-Copy-4" fill="#8D9EB0" x="194" y="117" width="20.074583" height="1" rx="0.5"></rect>
        <g id="left-arrow-copy" transform="translate(128.000000, 67.000000)" fill="#8D9EB0">
            <g id="triangle" transform="translate(3.000000, 2.500000) scale(-1, 1) translate(-3.000000, -2.500000) ">
                <path d="M2.88775351,-0.425866237 C2.98755721,-0.684554916 3.15206769,-0.677565105 3.24917468,-0.425866237 L5.40050076,5.1503168 C5.50030446,5.40900548 5.36527212,5.61871408 5.08097484,5.61871408 L1.05595335,5.61871408 C0.779680363,5.61871408 0.639320451,5.40201566 0.736427439,5.1503168 L2.88775351,-0.425866237 Z" id="Triangle-1" transform="translate(3.069450, 2.500722) rotate(90.000000) translate(-3.069450, -2.500722) "></path>
            </g>
            <rect id="Rectangle-144" x="2.85259834" y="1.88944875" width="32" height="1" rx="0.5"></rect>
        </g>
        <g id="left-arrow-copy-2" transform="translate(203.000000, 69.500000) scale(-1, 1) translate(-203.000000, -69.500000) translate(186.000000, 67.000000)" fill="#8D9EB0">
            <g id="triangle" transform="translate(2.875000, 2.500000) scale(-1, 1) translate(-2.875000, -2.500000) ">
                <path d="M2.76743045,-0.425866237 C2.86307566,-0.684554916 3.02073154,-0.677565105 3.1137924,-0.425866237 L5.17547989,5.1503168 C5.2711251,5.40900548 5.11637041,5.61871408 4.85139336,5.61871408 L1.02982949,5.61871408 C0.755196231,5.61871408 0.612682099,5.40201566 0.705742962,5.1503168 L2.76743045,-0.425866237 Z" id="Triangle-1" transform="translate(2.941556, 2.500722) rotate(90.000000) translate(-2.941556, -2.500722) "></path>
            </g>
            <rect id="Rectangle-144" x="2.73374007" y="1.88944875" width="32" height="1" rx="0.5"></rect>
        </g>
        <g id="Group-Copy" transform="translate(201.000000, 54.000000)" fill="#8D9EB0">
            <g id="triangle" transform="translate(3.184082, 3.484497) rotate(-90.000000) translate(-3.184082, -3.484497) translate(0.184082, 0.984497)">
                <path d="M2.88775351,-0.425866237 C2.98755721,-0.684554916 3.15206769,-0.677565105 3.24917468,-0.425866237 L5.40050076,5.1503168 C5.50030446,5.40900548 5.36527212,5.61871408 5.08097484,5.61871408 L1.05595335,5.61871408 C0.779680363,5.61871408 0.639320451,5.40201566 0.736427439,5.1503168 L2.88775351,-0.425866237 Z" id="Triangle-1" transform="translate(3.069450, 2.500722) rotate(90.000000) translate(-3.069450, -2.500722) "></path>
            </g>
            <rect id="Rectangle-134" x="2.6000061" y="3" width="1" height="21" rx="0.5"></rect>
        </g>
        <g id="Group-Copy-2" transform="translate(204.000000, 105.000000) scale(1, -1) translate(-204.000000, -105.000000) translate(201.000000, 93.000000)" fill="#8D9EB0">
            <g id="triangle" transform="translate(3.184082, 3.048935) rotate(-90.000000) translate(-3.184082, -3.048935) translate(0.184082, 0.861435)">
                <path d="M2.86283544,-0.316119328 C2.97640101,-0.573683538 3.1578941,-0.579655303 3.27409275,-0.316119328 L5.37558269,4.45001357 C5.48914826,4.70757778 5.36527212,4.91637482 5.08097484,4.91637482 L1.05595335,4.91637482 C0.779680363,4.91637482 0.645146859,4.71354954 0.761345507,4.45001357 L2.86283544,-0.316119328 Z" id="Triangle-1" transform="translate(3.069450, 2.188132) rotate(90.000000) translate(-3.069450, -2.188132) "></path>
            </g>
            <rect id="Rectangle-134" x="2.68408203" y="2" width="1" height="21.0489349" rx="0.5"></rect>
        </g>
        <path d="M169.29407,63.2437682 C172.856835,63.2437682 174.638218,65.3439245 174.638218,68.4941591 L174.638218,70.8193322 C174.638218,74.2320864 172.613067,76.3697455 168.825285,76.3697455 L165,76.3697455 L165,63.2437682 L169.29407,63.2437682 Z M172.275542,70.856835 L172.275542,68.4379049 C172.275542,66.3002457 171.262966,65.0626536 169.181561,65.0626536 L167.362676,65.0626536 L167.362676,74.5508601 L168.844036,74.5508601 C171.131707,74.5508601 172.275542,73.3507707 172.275542,70.856835 Z M178.83853,74.4571031 L184.970237,74.4571031 L184.970237,76.3697455 L176.513357,76.3697455 L176.513357,75.0383964 C176.513357,72.7132233 177.638441,71.4381283 179.157304,70.3880501 L180.957438,69.150458 C182.138776,68.3441479 182.58881,67.8566116 182.58881,66.9940474 L182.58881,66.5440139 C182.58881,65.7564553 181.970014,64.8376368 180.413648,64.8376368 C179.288564,64.8376368 178.407248,65.175162 177.282165,65.9627206 L176.232086,64.5376145 C177.450927,63.5812933 178.819779,63 180.563659,63 C183.39512,63 184.951486,64.7063771 184.951486,66.4690083 L184.951486,67.0503016 C184.951486,68.3441479 184.163927,69.4879831 182.138776,70.8005808 L180.694919,71.7381507 C179.23231,72.6944719 178.876033,73.4632791 178.83853,74.4571031 Z" id="D2" fill="#8D9EB0"></path>
        <path d="M116.147789,154.118349 C116.147789,154.53088 116.110286,154.943411 116.072783,155.243433 L109.641055,155.243433 C109.678557,157.156075 110.559873,157.999888 112.285001,157.999888 C113.372582,157.999888 114.178892,157.606109 114.9477,157.174827 L115.772761,158.56243 C114.928948,159.199978 113.578848,159.743768 112.13499,159.743768 C109.097264,159.743768 107.372136,157.737369 107.372136,155.037168 L107.372136,154.005841 C107.372136,151.30564 109.059761,149.261738 111.834968,149.261738 C114.55392,149.261738 116.147789,150.949363 116.147789,154.118349 Z M114.066384,153.72457 L114.066384,153.630813 C114.066384,151.905685 113.297577,150.968115 111.853719,150.968115 C110.428613,150.968115 109.678557,151.905685 109.641055,153.72457 L114.066384,153.72457 Z" id="e" fill="#8D9EB0"></path>
        <path d="M169.912866,149.637771 C172.200536,149.637771 173.700648,151.475408 173.700648,154.363123 L173.700648,155.375698 C173.700648,158.132153 171.919265,160.119801 169.631595,160.119801 C168.562765,160.119801 167.700201,159.726022 167.006399,159.013469 L166.818885,159.876033 L165,159.876033 L165,146 L167.325173,146 L167.325173,150.669098 C167.962721,150.012799 168.825285,149.637771 169.912866,149.637771 Z M171.375475,155.450704 L171.375475,154.288117 C171.375475,152.337972 170.719176,151.400402 169.444081,151.400402 C168.544014,151.400402 167.831461,151.831684 167.325173,152.469232 L167.325173,157.532109 C167.831461,158.075899 168.469008,158.375922 169.237816,158.375922 C170.531662,158.375922 171.375475,157.363346 171.375475,155.450704 Z" id="b" fill="#8D9EB0"></path>
        <polygon id="L" fill="#8D9EB0" points="81.3634 43.2167715 86.6904286 43.2167715 86.6904286 45.1300001 79 45.1300001 79 32 81.3634 32"></polygon>
        <path d="M54.1396072,23.5833742 L53.0520262,20.1331173 L48.5141883,20.1331173 L47.5203643,23.5833742 L45.138937,23.5833742 L49.1517358,10.4573968 L52.3582245,10.4573968 L56.5772887,23.5833742 L54.1396072,23.5833742 Z M50.7456044,12.1075197 L49.0392274,18.2392263 L52.4894843,18.2392263 L50.7456044,12.1075197 Z" id="A" fill="#8D9EB0"></path>
        <path d="M248.25415,15.4982674 C248.25415,15.2230819 248.486084,15 248.75415,15 L248.75415,15 C249.030293,15 249.25415,15.2199066 249.25415,15.4982674 L249.25415,28.5017326 C249.25415,28.7769181 249.022217,29 248.75415,29 L248.75415,29 C248.478008,29 248.25415,28.7800934 248.25415,28.5017326 L248.25415,15.4982674 Z" id="Rectangle-93" fill="#8D9EB0"></path>
        <rect id="Rectangle-93" fill="#8D9EB0" x="99.8358154" y="15" width="1" height="14" rx="0.5"></rect>
        <rect id="Rectangle-93-Copy-3" fill="#8D9EB0" x="127" y="142" width="1" height="15.3110352" rx="0.5"></rect>
        <rect id="Rectangle-93-Copy-3" fill="#8D9EB0" x="143" y="142" width="1" height="15.3110352" rx="0.5"></rect>
        <rect id="Rectangle-93-Copy-3" fill="#8D9EB0" x="185" y="142" width="1" height="15.3110352" rx="0.5"></rect>
        <rect id="Rectangle-93-Copy-3" fill="#8D9EB0" x="194" y="142" width="1" height="15.3110352" rx="0.5"></rect>
        <rect id="Rectangle-93-Copy" fill="#8D9EB0" x="31.3592529" y="14.2982509" width="1" height="14" rx="0.5"></rect>
        <rect id="Rectangle-93-Copy" fill="#8D9EB0" x="68.0286865" y="14.5454102" width="1" height="13.9168701" rx="0.5"></rect>
        <g id="left-arrow" transform="translate(101.627441, 14.298251)" fill="#8D9EB0">
            <g id="triangle" transform="translate(3.000000, 2.500000) scale(-1, 1) translate(-3.000000, -2.500000) ">
                <path d="M2.88775351,-0.425866237 C2.98755721,-0.684554916 3.15206769,-0.677565105 3.24917468,-0.425866237 L5.40050076,5.1503168 C5.50030446,5.40900548 5.36527212,5.61871408 5.08097484,5.61871408 L1.05595335,5.61871408 C0.779680363,5.61871408 0.639320451,5.40201566 0.736427439,5.1503168 L2.88775351,-0.425866237 Z" id="Triangle-1" transform="translate(3.069450, 2.500722) rotate(90.000000) translate(-3.069450, -2.500722) "></path>
            </g>
            <rect id="Rectangle-144" x="2.85259834" y="1.88944875" width="64.2838763" height="1" rx="0.5"></rect>
        </g>
        <g id="left-arrow" transform="translate(223.254150, 16.798251) scale(-1, 1) translate(-223.254150, -16.798251) translate(199.254150, 14.298251)" fill="#8D9EB0">
            <g id="triangle" transform="translate(3.000000, 2.500000) scale(-1, 1) translate(-3.000000, -2.500000) ">
                <path d="M2.88775351,-0.425866237 C2.98755721,-0.684554916 3.15206769,-0.677565105 3.24917468,-0.425866237 L5.40050076,5.1503168 C5.50030446,5.40900548 5.36527212,5.61871408 5.08097484,5.61871408 L1.05595335,5.61871408 C0.779680363,5.61871408 0.639320451,5.40201566 0.736427439,5.1503168 L2.88775351,-0.425866237 Z" id="Triangle-1" transform="translate(3.069450, 2.500722) rotate(90.000000) translate(-3.069450, -2.500722) "></path>
            </g>
            <rect id="Rectangle-144" x="2.85259834" y="1.88944875" width="64" height="1" rx="0.5"></rect>
        </g>
        <g id="Group-4-Copy-4" transform="translate(250.000000, 30.000000)" fill="#8D9EB0">
            <rect id="Rectangle-132-Copy" x="0.739257812" y="0.333251593" width="20.074583" height="1" rx="0.5"></rect>
            <rect id="Rectangle-132-Copy-3" x="0.739257812" y="111.333252" width="20.074583" height="1" rx="0.5"></rect>
        </g>
        <g id="Group-3-Copy-2" transform="translate(69.827399, 13.439148)" fill="#8D9EB0">
            <g id="triangle" transform="translate(3.026855, 2.500000) scale(-1, 1) translate(-3.026855, -2.500000) translate(0.026855, 0.000000)">
                <path d="M2.88775351,-0.425866237 C2.98755721,-0.684554916 3.15206769,-0.677565105 3.24917468,-0.425866237 L5.40050076,5.1503168 C5.50030446,5.40900548 5.36527212,5.61871408 5.08097484,5.61871408 L1.05595335,5.61871408 C0.779680363,5.61871408 0.639320451,5.40201566 0.736427439,5.1503168 L2.88775351,-0.425866237 Z" id="Triangle-1" transform="translate(3.069450, 2.500722) rotate(90.000000) translate(-3.069450, -2.500722) "></path>
            </g>
            <rect id="Rectangle-144" x="2.8794538" y="1.88944875" width="9.3314359" height="1" rx="0.5"></rect>
        </g>
        <g id="Group-3-Copy-3" transform="translate(23.690233, 15.939148) scale(-1, 1) translate(-23.690233, -15.939148) translate(17.690233, 13.439148)" fill="#8D9EB0">
            <g id="triangle" transform="translate(3.026855, 2.500000) scale(-1, 1) translate(-3.026855, -2.500000) translate(0.026855, 0.000000)">
                <path d="M2.88775351,-0.425866237 C2.98755721,-0.684554916 3.15206769,-0.677565105 3.24917468,-0.425866237 L5.40050076,5.1503168 C5.50030446,5.40900548 5.36527212,5.61871408 5.08097484,5.61871408 L1.05595335,5.61871408 C0.779680363,5.61871408 0.639320451,5.40201566 0.736427439,5.1503168 L2.88775351,-0.425866237 Z" id="Triangle-1" transform="translate(3.069450, 2.500722) rotate(90.000000) translate(-3.069450, -2.500722) "></path>
            </g>
            <rect id="Rectangle-144" x="2.8794538" y="1.88944875" width="9" height="1" rx="0.5"></rect>
        </g>
        <g id="Group" transform="translate(262.902832, 31.000000)" fill="#8D9EB0">
            <g id="triangle" transform="translate(2.597168, 3.484497) rotate(-90.000000) translate(-2.597168, -3.484497) translate(-0.402832, 0.984497)">
                <path d="M2.88775351,-0.425866237 C2.98755721,-0.684554916 3.15206769,-0.677565105 3.24917468,-0.425866237 L5.40050076,5.1503168 C5.50030446,5.40900548 5.36527212,5.61871408 5.08097484,5.61871408 L1.05595335,5.61871408 C0.779680363,5.61871408 0.639320451,5.40201566 0.736427439,5.1503168 L2.88775351,-0.425866237 Z" id="Triangle-1" transform="translate(3.069450, 2.500722) rotate(90.000000) translate(-3.069450, -2.500722) "></path>
            </g>
            <rect id="Rectangle-134" x="2.09716797" y="1" width="1" height="43.5721436" rx="0.5"></rect>
        </g>
        <g id="Group" transform="translate(264.902832, 117.666748) scale(1, -1) translate(-264.902832, -117.666748) translate(261.902832, 94.166748)" fill="#8D9EB0">
            <g id="triangle" transform="translate(3.184082, 3.484497) rotate(-90.000000) translate(-3.184082, -3.484497) translate(0.184082, 0.984497)">
                <path d="M2.88775351,-0.425866237 C2.98755721,-0.684554916 3.15206769,-0.677565105 3.24917468,-0.425866237 L5.40050076,5.1503168 C5.50030446,5.40900548 5.36527212,5.61871408 5.08097484,5.61871408 L1.05595335,5.61871408 C0.779680363,5.61871408 0.639320451,5.40201566 0.736427439,5.1503168 L2.88775351,-0.425866237 Z" id="Triangle-1" transform="translate(3.069450, 2.500722) rotate(90.000000) translate(-3.069450, -2.500722) "></path>
            </g>
            <rect id="Rectangle-134" x="2.68408203" y="6" width="1" height="40.4844971" rx="0.5"></rect>
        </g>
        <polygon id="E" fill="#8D9EB0" points="269.669321 80.8188854 264.362676 80.8188854 264.362676 84.5504133 269.25679 84.5504133 269.25679 86.3692987 264.362676 86.3692987 264.362676 90.2883406 269.669321 90.2883406 269.669321 92.1259774 262 92.1259774 262 79 269.669321 79"></polygon>
        <g id="Group-3-Copy-5" transform="translate(144.419252, 152.386888)" fill="#8D9EB0">
            <g id="triangle" transform="translate(3.026855, 2.500000) scale(-1, 1) translate(-3.026855, -2.500000) translate(0.026855, 0.000000)">
                <path d="M2.88775351,-0.425866237 C2.98755721,-0.684554916 3.15206769,-0.677565105 3.24917468,-0.425866237 L5.40050076,5.1503168 C5.50030446,5.40900548 5.36527212,5.61871408 5.08097484,5.61871408 L1.05595335,5.61871408 C0.779680363,5.61871408 0.639320451,5.40201566 0.736427439,5.1503168 L2.88775351,-0.425866237 Z" id="Triangle-1" transform="translate(3.069450, 2.500722) rotate(90.000000) translate(-3.069450, -2.500722) "></path>
            </g>
            <rect id="Rectangle-144" x="2.8794538" y="1.88944875" width="5" height="1" rx="0.5"></rect>
        </g>
        <g id="Group-3-Copy-6" transform="translate(196.254150, 152.386888)" fill="#8D9EB0">
            <g id="triangle" transform="translate(3.026855, 2.500000) scale(-1, 1) translate(-3.026855, -2.500000) translate(0.026855, 0.000000)">
                <path d="M2.88775351,-0.425866237 C2.98755721,-0.684554916 3.15206769,-0.677565105 3.24917468,-0.425866237 L5.40050076,5.1503168 C5.50030446,5.40900548 5.36527212,5.61871408 5.08097484,5.61871408 L1.05595335,5.61871408 C0.779680363,5.61871408 0.639320451,5.40201566 0.736427439,5.1503168 L2.88775351,-0.425866237 Z" id="Triangle-1" transform="translate(3.069450, 2.500722) rotate(90.000000) translate(-3.069450, -2.500722) "></path>
            </g>
            <rect id="Rectangle-144" x="2.8794538" y="1.88944875" width="5" height="1" rx="0.5"></rect>
        </g>
        <g id="Group-3-Copy-7" transform="translate(91.500000, 35.000000) rotate(-270.000000) translate(-91.500000, -35.000000) translate(87.500000, 32.500000)" fill="#8D9EB0">
            <g id="triangle" transform="translate(3.026855, 2.500000) scale(-1, 1) translate(-3.026855, -2.500000) translate(0.026855, 0.000000)">
                <path d="M2.88775351,-0.425866237 C2.98755721,-0.684554916 3.15206769,-0.677565105 3.24917468,-0.425866237 L5.40050076,5.1503168 C5.50030446,5.40900548 5.36527212,5.61871408 5.08097484,5.61871408 L1.05595335,5.61871408 C0.779680363,5.61871408 0.639320451,5.40201566 0.736427439,5.1503168 L2.88775351,-0.425866237 Z" id="Triangle-1" transform="translate(3.069450, 2.500722) rotate(90.000000) translate(-3.069450, -2.500722) "></path>
            </g>
            <rect id="Rectangle-144" x="2.8794538" y="1.88944875" width="5" height="1" rx="0.5"></rect>
        </g>
        <g id="Group-3-Copy-4" transform="translate(121.914477, 154.886888) scale(-1, 1) translate(-121.914477, -154.886888) translate(117.414477, 152.386888)" fill="#8D9EB0">
            <g id="triangle" transform="translate(3.026855, 2.500000) scale(-1, 1) translate(-3.026855, -2.500000) translate(0.026855, 0.000000)">
                <path d="M2.88775351,-0.425866237 C2.98755721,-0.684554916 3.15206769,-0.677565105 3.24917468,-0.425866237 L5.40050076,5.1503168 C5.50030446,5.40900548 5.36527212,5.61871408 5.08097484,5.61871408 L1.05595335,5.61871408 C0.779680363,5.61871408 0.639320451,5.40201566 0.736427439,5.1503168 L2.88775351,-0.425866237 Z" id="Triangle-1" transform="translate(3.069450, 2.500722) rotate(90.000000) translate(-3.069450, -2.500722) "></path>
            </g>
            <rect id="Rectangle-144" x="2.8794538" y="1.88944875" width="5.47838207" height="1" rx="0.5"></rect>
        </g>
        <g id="Group-3-Copy-4" transform="translate(179.914477, 154.886888) scale(-1, 1) translate(-179.914477, -154.886888) translate(175.414477, 152.386888)" fill="#8D9EB0">
            <g id="triangle" transform="translate(3.026855, 2.500000) scale(-1, 1) translate(-3.026855, -2.500000) translate(0.026855, 0.000000)">
                <path d="M2.88775351,-0.425866237 C2.98755721,-0.684554916 3.15206769,-0.677565105 3.24917468,-0.425866237 L5.40050076,5.1503168 C5.50030446,5.40900548 5.36527212,5.61871408 5.08097484,5.61871408 L1.05595335,5.61871408 C0.779680363,5.61871408 0.639320451,5.40201566 0.736427439,5.1503168 L2.88775351,-0.425866237 Z" id="Triangle-1" transform="translate(3.069450, 2.500722) rotate(90.000000) translate(-3.069450, -2.500722) "></path>
            </g>
            <rect id="Rectangle-144" x="2.8794538" y="1.88944875" width="5.47838207" height="1" rx="0.5"></rect>
        </g>
        <g id="Group-3-Copy-4" transform="translate(91.500000, 42.500000) scale(-1, 1) rotate(-90.000000) translate(-91.500000, -42.500000) translate(87.000000, 40.000000)" fill="#8D9EB0">
            <g id="triangle" transform="translate(3.026855, 2.500000) scale(-1, 1) translate(-3.026855, -2.500000) translate(0.026855, 0.000000)">
                <path d="M2.88775351,-0.425866237 C2.98755721,-0.684554916 3.15206769,-0.677565105 3.24917468,-0.425866237 L5.40050076,5.1503168 C5.50030446,5.40900548 5.36527212,5.61871408 5.08097484,5.61871408 L1.05595335,5.61871408 C0.779680363,5.61871408 0.639320451,5.40201566 0.736427439,5.1503168 L2.88775351,-0.425866237 Z" id="Triangle-1" transform="translate(3.069450, 2.500722) rotate(90.000000) translate(-3.069450, -2.500722) "></path>
            </g>
            <rect id="Rectangle-144" x="2.8794538" y="1.88944875" width="5.47838207" height="1" rx="0.5"></rect>
        </g>
        <path d="M174.29407,10 C177.856835,10 179.638218,12.1001564 179.638218,15.250391 L179.638218,17.5755641 C179.638218,20.9883182 177.613067,23.1259774 173.825285,23.1259774 L170,23.1259774 L170,10 L174.29407,10 Z M177.275542,17.6130669 L177.275542,15.1941368 C177.275542,13.0564776 176.262966,11.8188854 174.181561,11.8188854 L172.362676,11.8188854 L172.362676,21.3070919 L173.844036,21.3070919 C176.131707,21.3070919 177.275542,20.1070026 177.275542,17.6130669 Z" id="D" fill="#8D9EB0"></path>
    </g>
</svg>