<?xml version="1.0" encoding="UTF-8" standalone="no"?>
<svg width="200px" height="150px" viewBox="0 0 200 150" version="1.1" xmlns="http://www.w3.org/2000/svg" xmlns:xlink="http://www.w3.org/1999/xlink">
    <!-- Generator: Sketch 48.2 (47327) - http://www.bohemiancoding.com/sketch -->
    <title>SOT143</title>
    <desc>Created with Sketch.</desc>
    <defs>
        <path d="M17.330302,33.2441966 C16.7908378,33.1093305 15.9255543,33.1069903 15.3767292,33.2441966 L1.80162835,36.6379718 C1.00185778,36.8379145 0.353515625,37.6785431 0.353515625,38.502474 L0.353515625,83.497526 C0.353515625,84.3273195 1.00055122,85.1617589 1.80162835,85.3620282 L15.3767292,88.7558034 C15.9161935,88.8906695 16.781477,88.8930097 17.330302,88.7558034 L30.9054029,85.3620282 C31.7051735,85.1620855 32.3535156,84.3214569 32.3535156,83.497526 L32.3535156,38.502474 C32.3535156,37.6726805 31.70648,36.8382411 30.9054029,36.6379718 L17.330302,33.2441966 Z" id="path-1"></path>
        <polyline id="path-2" points="86.8847656 122 72.8847656 122 72.8847656 88 86.8847656 88 86.8847656 122"></polyline>
        <polyline id="path-3" points="32.8847656 34 18.8847656 34 18.8847656 0 32.8847656 0 32.8847656 34"></polyline>
        <rect id="path-4" x="73.8847656" y="110" width="12" height="1"></rect>
        <rect id="path-5" x="19.8847656" y="11" width="12" height="1"></rect>
        <polyline id="path-6" points="86.8847656 34 72.8847656 34 72.8847656 0 86.8847656 0 86.8847656 34"></polyline>
        <rect id="path-7" x="73.8847656" y="11" width="12" height="1"></rect>
        <polyline id="path-8" points="39 122 13 122 13 88 39 88 39 122"></polyline>
        <rect id="path-9" x="14" y="110" width="24" height="1"></rect>
        <rect id="path-10" x="0.884765625" y="33" width="104" height="56" rx="2"></rect>
    </defs>
    <g stroke="none" stroke-width="1" fill="none" fill-rule="evenodd">
        <g>
            <g transform="translate(153.324219, 14.000000)">
                <path d="M18.4739136,26.8879942 L39.8003492,14.2877254 C40.3464001,13.9634101 40.6810021,13.3760442 40.6810021,12.7418126 L40.6810021,1.9536125 C40.6810021,0.960114473 39.87412,0.15472519 38.8787804,0.15472519 C37.8834408,0.15472519 37.0765586,0.960114473 37.0765586,1.9536125 L37.0765586,11.7025628 L15.750123,24.3853246 C15.204072,24.7096399 14.86947,25.2970058 14.86947,25.9312374 L14.86947,36.7074331 C14.86947,37.7009312 15.6763522,38.5063205 16.6716918,38.5063205 C17.6670314,38.5063205 18.4739136,37.7009312 18.4739136,36.7074331 L18.4739136,26.8879942 Z" stroke="#979797" fill="#D8D8D8" fill-rule="nonzero" stroke-linecap="round" stroke-linejoin="round"></path>
                <path d="M14.86947,95.4753553 C14.86947,96.1095869 15.204072,96.6969528 15.750123,97.021268 L37.0765586,109.72167 L37.0765586,120.057733 C37.0765586,121.051231 37.8834408,121.85662 38.8787804,121.85662 C39.87412,121.85662 40.6810021,121.051231 40.6810021,120.057733 L40.6810021,108.66478 C40.6810021,108.030548 40.3464001,107.443183 39.8003492,107.118867 L18.4739136,94.4612853 L18.4739136,84.6991595 C18.4739136,83.7056615 17.6670314,82.9002722 16.6716918,82.9002722 C15.6763522,82.9002722 14.86947,83.7056615 14.86947,84.6991595 L14.86947,95.4753553 Z" stroke="#979797" fill="#D8D8D8" fill-rule="nonzero"></path>
                <g>
                    <use fill="#585858" fill-rule="evenodd" xlink:href="#path-1"></use>
                    <path stroke="#505050" stroke-width="1" d="M17.2090342,33.7292678 C16.7457976,33.6134587 15.9638304,33.6128095 15.4979971,33.7292678 L1.92289616,37.1230431 C1.34837955,37.2666722 0.853515625,37.9052129 0.853515625,38.502474 L0.853515625,83.497526 C0.853515625,84.0989284 1.34541513,84.7325867 1.92289616,84.8769569 L15.4979971,88.2707322 C15.9612336,88.3865413 16.7432009,88.3871905 17.2090342,88.2707322 L30.7841351,84.8769569 C31.3586517,84.7333278 31.8535156,84.0947871 31.8535156,83.497526 L31.8535156,38.502474 C31.8535156,37.9010716 31.3616161,37.2674133 30.7841351,37.1230431 L17.2090342,33.7292678 Z"></path>
                </g>
                <polygon fill="#505050" points="15.3535156 34 17.3535156 34 17.3535156 88 15.3535156 88"></polygon>
            </g>
            <g transform="translate(11.201172, 14.000000)">
                <g>
                    <use fill="#D8D8D8" fill-rule="evenodd" xlink:href="#path-2"></use>
                    <path stroke="#979797" stroke-width="1" d="M86.3847656,121.5 L86.3847656,88.5 L73.3847656,88.5 L73.3847656,121.5 L86.3847656,121.5 Z"></path>
                </g>
                <g>
                    <use fill="#D8D8D8" fill-rule="evenodd" xlink:href="#path-3"></use>
                    <path stroke="#979797" stroke-width="1" d="M32.3847656,33.5 L32.3847656,0.5 L19.3847656,0.5 L19.3847656,33.5 L32.3847656,33.5 Z"></path>
                </g>
                <g>
                    <use fill="#D8D8D8" fill-rule="evenodd" xlink:href="#path-4"></use>
                    <rect stroke="#979797" stroke-width="1" x="74.3847656" y="110.5" width="11" height="1"></rect>
                </g>
                <g>
                    <use fill="#D8D8D8" fill-rule="evenodd" xlink:href="#path-5"></use>
                    <rect stroke="#979797" stroke-width="1" x="20.3847656" y="11.5" width="11" height="1"></rect>
                </g>
                <g>
                    <use fill="#D8D8D8" fill-rule="evenodd" xlink:href="#path-6"></use>
                    <path stroke="#979797" stroke-width="1" d="M86.3847656,33.5 L86.3847656,0.5 L73.3847656,0.5 L73.3847656,33.5 L86.3847656,33.5 Z"></path>
                </g>
                <g>
                    <use fill="#D8D8D8" fill-rule="evenodd" xlink:href="#path-7"></use>
                    <rect stroke="#979797" stroke-width="1" x="74.3847656" y="11.5" width="11" height="1"></rect>
                </g>
                <g>
                    <use fill="#D8D8D8" fill-rule="evenodd" xlink:href="#path-8"></use>
                    <path stroke="#979797" stroke-width="1" d="M38.5,121.5 L38.5,88.5 L13.5,88.5 L13.5,121.5 L38.5,121.5 Z"></path>
                </g>
                <g>
                    <use fill="#D8D8D8" fill-rule="evenodd" xlink:href="#path-9"></use>
                    <rect stroke="#979797" stroke-width="1" x="14.5" y="110.5" width="23" height="1"></rect>
                </g>
                <g>
                    <use fill="#585858" fill-rule="evenodd" xlink:href="#path-10"></use>
                    <rect stroke="#505050" stroke-width="4" x="2.88476562" y="35" width="100" height="52" rx="2"></rect>
                </g>
                <circle stroke="#979797" fill="#D8D8D8" cx="10.9760742" cy="78.9760742" r="1.97607422"></circle>
            </g>
        </g>
    </g>
</svg>