<?xml version="1.0" encoding="UTF-8" standalone="no"?>
<svg width="290px" height="175px" viewBox="0 0 290 175" version="1.1" xmlns="http://www.w3.org/2000/svg" xmlns:xlink="http://www.w3.org/1999/xlink">
    <!-- Generator: Sketch 48.2 (47327) - http://www.bohemiancoding.com/sketch -->
    <title>SOT143-Labeled</title>
    <desc>Created with Sketch.</desc>
    <defs>
        <path d="M17.330302,33.2441966 C16.7908378,33.1093305 15.9255543,33.1069903 15.3767292,33.2441966 L1.80162835,36.6379718 C1.00185778,36.8379145 0.353515625,37.6785431 0.353515625,38.502474 L0.353515625,83.497526 C0.353515625,84.3273195 1.00055122,85.1617589 1.80162835,85.3620282 L15.3767292,88.7558034 C15.9161935,88.8906695 16.781477,88.8930097 17.330302,88.7558034 L30.9054029,85.3620282 C31.7051735,85.1620855 32.3535156,84.3214569 32.3535156,83.497526 L32.3535156,38.502474 C32.3535156,37.6726805 31.70648,36.8382411 30.9054029,36.6379718 L17.330302,33.2441966 Z" id="path-1"></path>
        <polyline id="path-2" points="86.8847656 122 72.8847656 122 72.8847656 88 86.8847656 88 86.8847656 122"></polyline>
        <polyline id="path-3" points="32.8847656 34 18.8847656 34 18.8847656 0 32.8847656 0 32.8847656 34"></polyline>
        <rect id="path-4" x="73.8847656" y="110" width="12" height="1"></rect>
        <rect id="path-5" x="19.8847656" y="11" width="12" height="1"></rect>
        <polyline id="path-6" points="86.8847656 34 72.8847656 34 72.8847656 0 86.8847656 0 86.8847656 34"></polyline>
        <rect id="path-7" x="73.8847656" y="11" width="12" height="1"></rect>
        <polyline id="path-8" points="39 122 13 122 13 88 39 88 39 122"></polyline>
        <rect id="path-9" x="14" y="110" width="24" height="1"></rect>
        <rect id="path-10" x="0.884765625" y="33" width="104" height="56" rx="2"></rect>
    </defs>
    <g stroke="none" stroke-width="1" fill="none" fill-rule="evenodd">
        <g>
            <g transform="translate(40.404297, 26.500000)">
                <g transform="translate(172.324219, 0.000000)">
                    <path d="M18.4739136,26.8879942 L39.8003492,14.2877254 C40.3464001,13.9634101 40.6810021,13.3760442 40.6810021,12.7418126 L40.6810021,1.9536125 C40.6810021,0.960114473 39.87412,0.15472519 38.8787804,0.15472519 C37.8834408,0.15472519 37.0765586,0.960114473 37.0765586,1.9536125 L37.0765586,11.7025628 L15.750123,24.3853246 C15.204072,24.7096399 14.86947,25.2970058 14.86947,25.9312374 L14.86947,36.7074331 C14.86947,37.7009312 15.6763522,38.5063205 16.6716918,38.5063205 C17.6670314,38.5063205 18.4739136,37.7009312 18.4739136,36.7074331 L18.4739136,26.8879942 Z" stroke="#979797" fill="#D8D8D8" fill-rule="nonzero" stroke-linecap="round" stroke-linejoin="round"></path>
                    <path d="M14.86947,95.4753553 C14.86947,96.1095869 15.204072,96.6969528 15.750123,97.021268 L37.0765586,109.72167 L37.0765586,120.057733 C37.0765586,121.051231 37.8834408,121.85662 38.8787804,121.85662 C39.87412,121.85662 40.6810021,121.051231 40.6810021,120.057733 L40.6810021,108.66478 C40.6810021,108.030548 40.3464001,107.443183 39.8003492,107.118867 L18.4739136,94.4612853 L18.4739136,84.6991595 C18.4739136,83.7056615 17.6670314,82.9002722 16.6716918,82.9002722 C15.6763522,82.9002722 14.86947,83.7056615 14.86947,84.6991595 L14.86947,95.4753553 Z" stroke="#979797" fill="#D8D8D8" fill-rule="nonzero"></path>
                    <g>
                        <use fill="#585858" fill-rule="evenodd" xlink:href="#path-1"></use>
                        <path stroke="#505050" stroke-width="1" d="M17.2090342,33.7292678 C16.7457976,33.6134587 15.9638304,33.6128095 15.4979971,33.7292678 L1.92289616,37.1230431 C1.34837955,37.2666722 0.853515625,37.9052129 0.853515625,38.502474 L0.853515625,83.497526 C0.853515625,84.0989284 1.34541513,84.7325867 1.92289616,84.8769569 L15.4979971,88.2707322 C15.9612336,88.3865413 16.7432009,88.3871905 17.2090342,88.2707322 L30.7841351,84.8769569 C31.3586517,84.7333278 31.8535156,84.0947871 31.8535156,83.497526 L31.8535156,38.502474 C31.8535156,37.9010716 31.3616161,37.2674133 30.7841351,37.1230431 L17.2090342,33.7292678 Z"></path>
                    </g>
                    <polygon fill="#505050" points="15.3535156 34 17.3535156 34 17.3535156 88 15.3535156 88"></polygon>
                </g>
                <g transform="translate(0.201172, 0.000000)">
                    <g>
                        <use fill="#D8D8D8" fill-rule="evenodd" xlink:href="#path-2"></use>
                        <path stroke="#979797" stroke-width="1" d="M86.3847656,121.5 L86.3847656,88.5 L73.3847656,88.5 L73.3847656,121.5 L86.3847656,121.5 Z"></path>
                    </g>
                    <g>
                        <use fill="#D8D8D8" fill-rule="evenodd" xlink:href="#path-3"></use>
                        <path stroke="#979797" stroke-width="1" d="M32.3847656,33.5 L32.3847656,0.5 L19.3847656,0.5 L19.3847656,33.5 L32.3847656,33.5 Z"></path>
                    </g>
                    <g>
                        <use fill="#D8D8D8" fill-rule="evenodd" xlink:href="#path-4"></use>
                        <rect stroke="#979797" stroke-width="1" x="74.3847656" y="110.5" width="11" height="1"></rect>
                    </g>
                    <g>
                        <use fill="#D8D8D8" fill-rule="evenodd" xlink:href="#path-5"></use>
                        <rect stroke="#979797" stroke-width="1" x="20.3847656" y="11.5" width="11" height="1"></rect>
                    </g>
                    <g>
                        <use fill="#D8D8D8" fill-rule="evenodd" xlink:href="#path-6"></use>
                        <path stroke="#979797" stroke-width="1" d="M86.3847656,33.5 L86.3847656,0.5 L73.3847656,0.5 L73.3847656,33.5 L86.3847656,33.5 Z"></path>
                    </g>
                    <g>
                        <use fill="#D8D8D8" fill-rule="evenodd" xlink:href="#path-7"></use>
                        <rect stroke="#979797" stroke-width="1" x="74.3847656" y="11.5" width="11" height="1"></rect>
                    </g>
                    <g>
                        <use fill="#D8D8D8" fill-rule="evenodd" xlink:href="#path-8"></use>
                        <path stroke="#979797" stroke-width="1" d="M38.5,121.5 L38.5,88.5 L13.5,88.5 L13.5,121.5 L38.5,121.5 Z"></path>
                    </g>
                    <g>
                        <use fill="#D8D8D8" fill-rule="evenodd" xlink:href="#path-9"></use>
                        <rect stroke="#979797" stroke-width="1" x="14.5" y="110.5" width="23" height="1"></rect>
                    </g>
                    <g>
                        <use fill="#585858" fill-rule="evenodd" xlink:href="#path-10"></use>
                        <rect stroke="#505050" stroke-width="4" x="2.88476562" y="35" width="100" height="52" rx="2"></rect>
                    </g>
                    <circle stroke="#979797" fill="#D8D8D8" cx="10.9760742" cy="78.9760742" r="1.97607422"></circle>
                </g>
            </g>
            <g transform="translate(24.113281, 1.000000)" fill="#8D9EB0">
                <path d="M140.681222,81.2686806 L135.374577,81.2686806 L135.374577,85.0002084 L140.268692,85.0002084 L140.268692,86.8190939 L135.374577,86.8190939 L135.374577,90.7381357 L140.681222,90.7381357 L140.681222,92.5757725 L133.011901,92.5757725 L133.011901,79.4497951 L140.681222,79.4497951 L140.681222,81.2686806 Z M148.050521,90.7943899 L150.356943,90.7943899 L150.356943,92.5757725 L143.081401,92.5757725 L143.081401,90.7943899 L145.762851,90.7943899 L145.762851,81.999985 L143.493932,83.1250688 L142.631368,81.5874543 L146.306641,79.4497951 L148.050521,79.4497951 L148.050521,90.7943899 Z"></path>
                <polygon points="168.087472 81.2686806 162.780827 81.2686806 162.780827 85.0002084 167.674942 85.0002084 167.674942 86.8190939 162.780827 86.8190939 162.780827 90.7381357 168.087472 90.7381357 168.087472 92.5757725 160.418151 92.5757725 160.418151 79.4497951 168.087472 79.4497951"></polygon>
                <g transform="translate(43.645020, 16.000000)">
                    <g transform="translate(3.085449, 3.453524) scale(-1, 1) translate(-3.085449, -3.453524) translate(0.085449, 0.953524)">
                        <path d="M2.88775351,-0.425866237 C2.98755721,-0.684554916 3.15206769,-0.677565105 3.24917468,-0.425866237 L5.40050076,5.1503168 C5.50030446,5.40900548 5.36527212,5.61871408 5.08097484,5.61871408 L1.05595335,5.61871408 C0.779680363,5.61871408 0.639320451,5.40201566 0.736427439,5.1503168 L2.88775351,-0.425866237 Z" transform="translate(3.069450, 2.500722) rotate(90.000000) translate(-3.069450, -2.500722) "></path>
                    </g>
                    <rect x="2.93804755" y="2.84297312" width="17.8859271" height="1" rx="0.5"></rect>
                </g>
                <g transform="translate(85.697754, 19.000000) scale(-1, 1) translate(-85.697754, -19.000000) translate(75.197754, 16.000000)">
                    <g transform="translate(3.085449, 3.453524) scale(-1, 1) translate(-3.085449, -3.453524) translate(0.085449, 0.953524)">
                        <path d="M2.88775351,-0.425866237 C2.98755721,-0.684554916 3.15206769,-0.677565105 3.24917468,-0.425866237 L5.40050076,5.1503168 C5.50030446,5.40900548 5.36527212,5.61871408 5.08097484,5.61871408 L1.05595335,5.61871408 C0.779680363,5.61871408 0.639320451,5.40201566 0.736427439,5.1503168 L2.88775351,-0.425866237 Z" transform="translate(3.069450, 2.500722) rotate(90.000000) translate(-3.069450, -2.500722) "></path>
                    </g>
                    <rect x="2.93804755" y="2.84297312" width="17.8859271" height="1" rx="0.5"></rect>
                </g>
                <g transform="translate(19.404297, 4.000000)">
                    <g transform="translate(3.832124, 3.275391) scale(-1, 1) translate(-3.832124, -3.275391) translate(0.832124, 0.775391)">
                        <path d="M2.88775351,-0.425866237 C2.98755721,-0.684554916 3.15206769,-0.677565105 3.24917468,-0.425866237 L5.40050076,5.1503168 C5.50030446,5.40900548 5.36527212,5.61871408 5.08097484,5.61871408 L1.05595335,5.61871408 C0.779680363,5.61871408 0.639320451,5.40201566 0.736427439,5.1503168 L2.88775351,-0.425866237 Z" transform="translate(3.069450, 2.500722) rotate(90.000000) translate(-3.069450, -2.500722) "></path>
                    </g>
                    <rect x="3.68472202" y="2.66483938" width="40.9623727" height="1" rx="0.5"></rect>
                </g>
                <g transform="translate(97.904297, 7.000000) scale(-1, 1) translate(-97.904297, -7.000000) translate(75.404297, 4.000000)">
                    <g transform="translate(3.832124, 3.275391) scale(-1, 1) translate(-3.832124, -3.275391) translate(0.832124, 0.775391)">
                        <path d="M2.88775351,-0.425866237 C2.98755721,-0.684554916 3.15206769,-0.677565105 3.24917468,-0.425866237 L5.40050076,5.1503168 C5.50030446,5.40900548 5.36527212,5.61871408 5.08097484,5.61871408 L1.05595335,5.61871408 C0.779680363,5.61871408 0.639320451,5.40201566 0.736427439,5.1503168 L2.88775351,-0.425866237 Z" transform="translate(3.069450, 2.500722) rotate(90.000000) translate(-3.069450, -2.500722) "></path>
                    </g>
                    <rect x="3.68472202" y="2.66483938" width="40.9623727" height="1" rx="0.5"></rect>
                </g>
                <path d="M69.9686548,0.703307281 C73.5314201,0.703307281 75.3128028,2.80346366 75.3128028,5.95369824 L75.3128028,8.27887137 C75.3128028,11.6916255 73.287652,13.8292847 69.4998699,13.8292847 L65.6745851,13.8292847 L65.6745851,0.703307281 L69.9686548,0.703307281 Z M72.9501268,8.31637417 L72.9501268,5.89744405 C72.9501268,3.75978487 71.9375514,2.52219272 69.8561465,2.52219272 L68.037261,2.52219272 L68.037261,12.0103992 L69.5186213,12.0103992 C71.8062917,12.0103992 72.9501268,10.8103099 72.9501268,8.31637417 Z"></path>
                <path d="M74.6122666,19.4367086 C74.6122666,19.8492394 74.5747638,20.2617701 74.537261,20.5617924 L68.1055321,20.5617924 C68.1430349,22.4744348 69.0243505,23.3182477 70.749479,23.3182477 C71.83706,23.3182477 72.64337,22.9244684 73.4121772,22.4931862 L74.2372387,23.8807896 C73.3934258,24.518337 72.0433253,25.0621275 70.5994678,25.0621275 C67.5617416,25.0621275 65.8366131,23.0557281 65.8366131,20.3555271 L65.8366131,19.3242003 C65.8366131,16.6239992 67.5242388,14.580097 70.2994455,14.580097 C73.0183979,14.580097 74.6122666,16.2677227 74.6122666,19.4367086 Z M72.5308616,19.0429293 L72.5308616,18.9491723 C72.5308616,17.2240439 71.7620544,16.2864741 70.3181969,16.2864741 C68.8930907,16.2864741 68.1430349,17.2240439 68.1055321,19.0429293 L72.5308616,19.0429293 Z"></path>
                <rect x="18.2490086" y="1.52148438" width="1" height="56.3730469" rx="0.5"></rect>
                <rect x="42.3769531" y="15.7641602" width="1" height="8.73779297" rx="0.5"></rect>
                <rect x="96.3164062" y="15.7641602" width="1" height="8.73779297" rx="0.5"></rect>
                <rect x="119.94104" y="1.52148438" width="1" height="56.3730469" rx="0.5"></rect>
                <path d="M4.91286582,155.969468 C7.20053617,155.969468 8.70064787,157.807105 8.70064787,160.69482 L8.70064787,161.707395 C8.70064787,164.463851 6.91926522,166.451499 4.63159488,166.451499 C3.56276529,166.451499 2.70020106,166.057719 2.0063994,165.345166 L1.81888544,166.207731 L0,166.207731 L0,152.331697 L2.32517314,152.331697 L2.32517314,157.000795 C2.96272061,156.344496 3.82528484,155.969468 4.91286582,155.969468 Z M6.37547473,161.782401 L6.37547473,160.619814 C6.37547473,158.669669 5.71917586,157.732099 4.44408092,157.732099 C3.54401389,157.732099 2.83146084,158.163382 2.32517314,158.800929 L2.32517314,163.863806 C2.83146084,164.407596 3.46900831,164.707619 4.23781556,164.707619 C5.5316619,164.707619 6.37547473,163.695043 6.37547473,161.782401 Z M15.7699243,164.426348 L18.076346,164.426348 L18.076346,166.207731 L10.8008043,166.207731 L10.8008043,164.426348 L13.4822539,164.426348 L13.4822539,155.631943 L11.213335,156.757027 L10.3507707,155.219412 L14.0260444,153.081753 L15.7699243,153.081753 L15.7699243,164.426348 Z"></path>
                <path d="M120.912866,155.969468 C123.200536,155.969468 124.700648,157.807105 124.700648,160.69482 L124.700648,161.707395 C124.700648,164.463851 122.919265,166.451499 120.631595,166.451499 C119.562765,166.451499 118.700201,166.057719 118.006399,165.345166 L117.818885,166.207731 L116,166.207731 L116,152.331697 L118.325173,152.331697 L118.325173,157.000795 C118.962721,156.344496 119.825285,155.969468 120.912866,155.969468 Z M122.375475,161.782401 L122.375475,160.619814 C122.375475,158.669669 121.719176,157.732099 120.444081,157.732099 C119.544014,157.732099 118.831461,158.163382 118.325173,158.800929 L118.325173,163.863806 C118.831461,164.407596 119.469008,164.707619 120.237816,164.707619 C121.531662,164.707619 122.375475,163.695043 122.375475,161.782401 Z"></path>
                <rect x="90.6777196" y="148.587891" width="1" height="15.6104736" rx="0.5"></rect>
                <rect x="30.1503758" y="148.587891" width="1" height="15.6104736" rx="0.5"></rect>
                <rect x="103.433228" y="148.587891" width="1" height="15.6104736" rx="0.5"></rect>
                <rect x="55.1988525" y="148.587891" width="1" height="15.6104736" rx="0.5"></rect>
                <g transform="translate(138.404297, 60.000000)">
                    <g transform="translate(2.631110, 3.427124) rotate(-90.000000) translate(-2.631110, -3.427124) translate(-0.368890, 0.927124)">
                        <path d="M2.88775351,-0.425866237 C2.98755721,-0.684554916 3.15206769,-0.677565105 3.24917468,-0.425866237 L5.40050076,5.1503168 C5.50030446,5.40900548 5.36527212,5.61871408 5.08097484,5.61871408 L1.05595335,5.61871408 C0.779680363,5.61871408 0.639320451,5.40201566 0.736427439,5.1503168 L2.88775351,-0.425866237 Z" transform="translate(3.069450, 2.500722) rotate(90.000000) translate(-3.069450, -2.500722) "></path>
                    </g>
                    <rect x="2.13111028" y="3.42712402" width="1" height="14.2872319" rx="0.5"></rect>
                </g>
                <g transform="translate(141.404297, 104.000000) scale(1, -1) translate(-141.404297, -104.000000) translate(138.404297, 95.000000)">
                    <g transform="translate(2.631110, 3.427124) rotate(-90.000000) translate(-2.631110, -3.427124) translate(-0.368890, 0.927124)">
                        <path d="M2.88775351,-0.425866237 C2.98755721,-0.684554916 3.15206769,-0.677565105 3.24917468,-0.425866237 L5.40050076,5.1503168 C5.50030446,5.40900548 5.36527212,5.61871408 5.08097484,5.61871408 L1.05595335,5.61871408 C0.779680363,5.61871408 0.639320451,5.40201566 0.736427439,5.1503168 L2.88775351,-0.425866237 Z" transform="translate(3.069450, 2.500722) rotate(90.000000) translate(-3.069450, -2.500722) "></path>
                    </g>
                    <rect x="2.13111028" y="3.42712402" width="1" height="14.2872319" rx="0.5"></rect>
                </g>
                <rect x="104.676168" y="25.717041" width="67.5464886" height="1" rx="0.5"></rect>
                <rect x="120.557617" y="58.717041" width="27.8515625" height="1" rx="0.5"></rect>
                <rect x="120.557617" y="113.12915" width="27.8515625" height="1" rx="0.5"></rect>
                <rect x="104.676168" y="146.396502" width="67.5464886" height="1" rx="0.5"></rect>
                <g transform="translate(162.958984, 27.494141)">
                    <g transform="translate(2.525734, 3.427124) rotate(-90.000000) translate(-2.525734, -3.427124) translate(-0.474266, 0.927124)">
                        <path d="M2.88775351,-0.425866237 C2.98755721,-0.684554916 3.15206769,-0.677565105 3.24917468,-0.425866237 L5.40050076,5.1503168 C5.50030446,5.40900548 5.36527212,5.61871408 5.08097484,5.61871408 L1.05595335,5.61871408 C0.779680363,5.61871408 0.639320451,5.40201566 0.736427439,5.1503168 L2.88775351,-0.425866237 Z" transform="translate(3.069450, 2.500722) rotate(90.000000) translate(-3.069450, -2.500722) "></path>
                    </g>
                    <rect x="2.0257342" y="3.42712402" width="1" height="46.2717285" rx="0.5"></rect>
                </g>
                <g transform="translate(165.958984, 120.494141) scale(1, -1) translate(-165.958984, -120.494141) translate(162.958984, 95.494141)">
                    <g transform="translate(2.525734, 3.427124) rotate(-90.000000) translate(-2.525734, -3.427124) translate(-0.474266, 0.927124)">
                        <path d="M2.88775351,-0.425866237 C2.98755721,-0.684554916 3.15206769,-0.677565105 3.24917468,-0.425866237 L5.40050076,5.1503168 C5.50030446,5.40900548 5.36527212,5.61871408 5.08097484,5.61871408 L1.05595335,5.61871408 C0.779680363,5.61871408 0.639320451,5.40201566 0.736427439,5.1503168 L2.88775351,-0.425866237 Z" transform="translate(3.069450, 2.500722) rotate(90.000000) translate(-3.069450, -2.500722) "></path>
                    </g>
                    <rect x="2.0257342" y="3.42712402" width="1" height="46.2717285" rx="0.5"></rect>
                </g>
                <g transform="translate(104.095215, 157.332031)">
                    <g transform="translate(3.933594, 2.500000) scale(-1, 1) translate(-3.933594, -2.500000) translate(0.933594, 0.000000)">
                        <path d="M2.88775351,-0.425866237 C2.98755721,-0.684554916 3.15206769,-0.677565105 3.24917468,-0.425866237 L5.40050076,5.1503168 C5.50030446,5.40900548 5.36527212,5.61871408 5.08097484,5.61871408 L1.05595335,5.61871408 C0.779680363,5.61871408 0.639320451,5.40201566 0.736427439,5.1503168 L2.88775351,-0.425866237 Z" transform="translate(3.069450, 2.500722) rotate(90.000000) translate(-3.069450, -2.500722) "></path>
                    </g>
                    <rect x="5.93359375" y="2" width="4" height="1" rx="0.5"></rect>
                </g>
                <g transform="translate(55.914551, 157.332031)">
                    <g transform="translate(3.933594, 2.500000) scale(-1, 1) translate(-3.933594, -2.500000) translate(0.933594, 0.000000)">
                        <path d="M2.88775351,-0.425866237 C2.98755721,-0.684554916 3.15206769,-0.677565105 3.24917468,-0.425866237 L5.40050076,5.1503168 C5.50030446,5.40900548 5.36527212,5.61871408 5.08097484,5.61871408 L1.05595335,5.61871408 C0.779680363,5.61871408 0.639320451,5.40201566 0.736427439,5.1503168 L2.88775351,-0.425866237 Z" transform="translate(3.069450, 2.500722) rotate(90.000000) translate(-3.069450, -2.500722) "></path>
                    </g>
                    <rect x="5.93359375" y="2" width="4" height="1" rx="0.5"></rect>
                </g>
                <g transform="translate(80.686523, 157.332031)">
                    <g transform="translate(6.933594, 2.500000) scale(-1, 1) rotate(180.000000) translate(-6.933594, -2.500000) translate(3.933594, 0.000000)">
                        <path d="M2.88775351,-0.425866237 C2.98755721,-0.684554916 3.15206769,-0.677565105 3.24917468,-0.425866237 L5.40050076,5.1503168 C5.50030446,5.40900548 5.36527212,5.61871408 5.08097484,5.61871408 L1.05595335,5.61871408 C0.779680363,5.61871408 0.639320451,5.40201566 0.736427439,5.1503168 L2.88775351,-0.425866237 Z" transform="translate(3.069450, 2.500722) rotate(90.000000) translate(-3.069450, -2.500722) "></path>
                    </g>
                    <path d="M4.93359375,2.5 C4.93359375,2.77614237 4.71853638,3 4.44311523,3 L1.42407227,3 C1.15318846,3 0.93359375,2.76806641 0.93359375,2.5 L0.93359375,2.5 C0.93359375,2.22385763 1.14865112,2 1.42407227,2 L4.44311523,2 C4.71399904,2 4.93359375,2.23193359 4.93359375,2.5 L4.93359375,2.5"></path>
                </g>
                <g transform="translate(19.159180, 157.332031)">
                    <g transform="translate(6.933594, 2.500000) scale(-1, 1) rotate(180.000000) translate(-6.933594, -2.500000) translate(3.933594, 0.000000)">
                        <path d="M2.88775351,-0.425866237 C2.98755721,-0.684554916 3.15206769,-0.677565105 3.24917468,-0.425866237 L5.40050076,5.1503168 C5.50030446,5.40900548 5.36527212,5.61871408 5.08097484,5.61871408 L1.05595335,5.61871408 C0.779680363,5.61871408 0.639320451,5.40201566 0.736427439,5.1503168 L2.88775351,-0.425866237 Z" transform="translate(3.069450, 2.500722) rotate(90.000000) translate(-3.069450, -2.500722) "></path>
                    </g>
                    <path d="M4.93359375,2.5 C4.93359375,2.77614237 4.71853638,3 4.44311523,3 L1.42407227,3 C1.15318846,3 0.93359375,2.76806641 0.93359375,2.5 L0.93359375,2.5 C0.93359375,2.22385763 1.14865112,2 1.42407227,2 L4.44311523,2 C4.71399904,2 4.93359375,2.23193359 4.93359375,2.5 L4.93359375,2.5"></path>
                </g>
            </g>
            <g transform="translate(212.599609, 7.000000)" fill="#8D9EB0">
                <g transform="translate(45.799805, 5.501953)">
                    <g transform="translate(2.968994, 9.819735) rotate(90.000000) translate(-2.968994, -9.819735) translate(-0.031006, 7.319735)">
                        <path d="M2.88775351,-0.425866237 C2.98755721,-0.684554916 3.15206769,-0.677565105 3.24917468,-0.425866237 L5.40050076,5.1503168 C5.50030446,5.40900548 5.36527212,5.61871408 5.08097484,5.61871408 L1.05595335,5.61871408 C0.779680363,5.61871408 0.639320451,5.40201566 0.736427439,5.1503168 L2.88775351,-0.425866237 Z" transform="translate(3.069450, 2.500722) rotate(90.000000) translate(-3.069450, -2.500722) "></path>
                    </g>
                    <rect x="2.46899414" y="0.819735308" width="1" height="8.00952148" rx="0.5"></rect>
                    <rect x="2.46899414" y="0.819735308" width="6" height="1" rx="0.5"></rect>
                </g>
                <path d="M25.123738,18.09729 L24.036157,14.6470331 L19.4983191,14.6470331 L18.5044951,18.09729 L16.1230678,18.09729 L20.1358666,4.97131265 L23.3423554,4.97131265 L27.5614195,18.09729 L25.123738,18.09729 Z M21.7297353,6.62143552 L20.0233582,12.7531421 L23.4736152,12.7531421 L21.7297353,6.62143552 Z"></path>
                <path d="M40.8361816,11.3231292 C40.8361816,11.048465 41.0681152,10.8258057 41.3361816,10.8258057 L41.3361816,10.8258057 C41.612324,10.8258057 41.8361816,11.0444762 41.8361816,11.3231292 L41.8361816,17.9081552 C41.8361816,18.1828194 41.604248,18.4054787 41.3361816,18.4054787 L41.3361816,18.4054787 C41.0600393,18.4054787 40.8361816,18.1868082 40.8361816,17.9081552 L40.8361816,11.3231292 Z"></path>
                <rect x="0.451049805" y="10.8258057" width="1" height="44.916626" rx="0.5"></rect>
                <g transform="translate(2.645020, 10.000000)">
                    <g transform="translate(3.085449, 3.453524) scale(-1, 1) translate(-3.085449, -3.453524) translate(0.085449, 0.953524)">
                        <path d="M2.88775351,-0.425866237 C2.98755721,-0.684554916 3.15206769,-0.677565105 3.24917468,-0.425866237 L5.40050076,5.1503168 C5.50030446,5.40900548 5.36527212,5.61871408 5.08097484,5.61871408 L1.05595335,5.61871408 C0.779680363,5.61871408 0.639320451,5.40201566 0.736427439,5.1503168 L2.88775351,-0.425866237 Z" transform="translate(3.069450, 2.500722) rotate(90.000000) translate(-3.069450, -2.500722) "></path>
                    </g>
                    <rect x="2.93804755" y="2.84297312" width="10.3506487" height="1" rx="0.5"></rect>
                </g>
                <g transform="translate(33.645020, 13.000000) scale(-1, 1) translate(-33.645020, -13.000000) translate(26.645020, 10.000000)">
                    <g transform="translate(3.085449, 3.453524) scale(-1, 1) translate(-3.085449, -3.453524) translate(0.085449, 0.953524)">
                        <path d="M2.88775351,-0.425866237 C2.98755721,-0.684554916 3.15206769,-0.677565105 3.24917468,-0.425866237 L5.40050076,5.1503168 C5.50030446,5.40900548 5.36527212,5.61871408 5.08097484,5.61871408 L1.05595335,5.61871408 C0.779680363,5.61871408 0.639320451,5.40201566 0.736427439,5.1503168 L2.88775351,-0.425866237 Z" transform="translate(3.069450, 2.500722) rotate(90.000000) translate(-3.069450, -2.500722) "></path>
                    </g>
                    <rect x="2.93804755" y="2.84297312" width="10.3506487" height="1" rx="0.5"></rect>
                </g>
                <polygon points="58.2209768 11.612382 63.5463734 11.612382 63.5463734 13.5250244 55.8583009 13.5250244 55.8583009 0.399047027 58.2209768 0.399047027"></polygon>
                <rect x="42.6142578" y="19.1352871" width="8.89941406" height="1" rx="0.5"></rect>
                <g transform="translate(45.560547, 35.310547)">
                    <g transform="translate(3.170471, 3.091220) rotate(-90.000000) translate(-3.170471, -3.091220) translate(0.170471, 0.591220)">
                        <path d="M2.88775351,-0.425866237 C2.98755721,-0.684554916 3.15206769,-0.677565105 3.24917468,-0.425866237 L5.40050076,5.1503168 C5.50030446,5.40900548 5.36527212,5.61871408 5.08097484,5.61871408 L1.05595335,5.61871408 C0.779680363,5.61871408 0.639320451,5.40201566 0.736427439,5.1503168 L2.88775351,-0.425866237 Z" transform="translate(3.069450, 2.500722) rotate(90.000000) translate(-3.069450, -2.500722) "></path>
                    </g>
                    <rect x="2.67047119" y="3.09121968" width="1" height="4.93155171" rx="0.5"></rect>
                </g>
                <rect x="42.6142578" y="33.2051113" width="8.89941406" height="1" rx="0.5"></rect>
                <rect x="31.4042969" y="105" width="1" height="45" rx="0.5"></rect>
                <rect x="40.6507568" y="141.920776" width="1" height="8.07922363" rx="0.5"></rect>
                <path d="M14.814656,154 L13.727075,150.549743 L9.18923712,150.549743 L8.19541311,154 L5.81398579,154 L9.82678459,140.874023 L13.0332734,140.874023 L17.2523375,154 L14.814656,154 Z M11.4206533,142.524145 L9.71427621,148.655852 L13.1645331,148.655852 L11.4206533,142.524145 Z M23.6278122,152.218617 L25.934234,152.218617 L25.934234,154 L18.6586922,154 L18.6586922,152.218617 L21.3401419,152.218617 L21.3401419,143.424213 L19.0712229,144.549296 L18.2086587,143.011682 L21.8839324,140.874023 L23.6278122,140.874023 L23.6278122,152.218617 Z"></path>
                <g transform="translate(45.404297, 146.500000) scale(-1, 1) translate(-45.404297, -146.500000) translate(42.404297, 144.000000)">
                    <path d="M2.88775351,-0.425866237 C2.98755721,-0.684554916 3.15206769,-0.677565105 3.24917468,-0.425866237 L5.40050076,5.1503168 C5.50030446,5.40900548 5.36527212,5.61871408 5.08097484,5.61871408 L1.05595335,5.61871408 C0.779680363,5.61871408 0.639320451,5.40201566 0.736427439,5.1503168 L2.88775351,-0.425866237 Z" transform="translate(3.069450, 2.500722) rotate(90.000000) translate(-3.069450, -2.500722) "></path>
                </g>
                <rect x="45.4042969" y="146" width="4" height="1" rx="0.5"></rect>
                <g transform="translate(28.404297, 146.500000) scale(-1, 1) rotate(180.000000) translate(-28.404297, -146.500000) translate(25.404297, 144.000000)">
                    <path d="M2.88775351,-0.425866237 C2.98755721,-0.684554916 3.15206769,-0.677565105 3.24917468,-0.425866237 L5.40050076,5.1503168 C5.50030446,5.40900548 5.36527212,5.61871408 5.08097484,5.61871408 L1.05595335,5.61871408 C0.779680363,5.61871408 0.639320451,5.40201566 0.736427439,5.1503168 L2.88775351,-0.425866237 Z" transform="translate(3.069450, 2.500722) rotate(90.000000) translate(-3.069450, -2.500722) "></path>
                </g>
                <path d="M28.4042969,146.5 C28.4042969,146.776142 28.1892395,147 27.9138184,147 L24.8947754,147 C24.6238916,147 24.4042969,146.768066 24.4042969,146.5 L24.4042969,146.5 C24.4042969,146.223858 24.6193542,146 24.8947754,146 L27.9138184,146 C28.1847022,146 28.4042969,146.231934 28.4042969,146.5 L28.4042969,146.5"></path>
            </g>
        </g>
    </g>
</svg>
