<?xml version="1.0" encoding="UTF-8" standalone="no"?>
<svg width="200px" height="150px" viewBox="0 0 200 150" version="1.1" xmlns="http://www.w3.org/2000/svg" xmlns:xlink="http://www.w3.org/1999/xlink">
    <!-- Generator: Sketch 48.2 (47327) - http://www.bohemiancoding.com/sketch -->
    <title>SOT223</title>
    <desc>Created with Sketch.</desc>
    <defs>
        <polyline id="path-1" points="25.4824539 111.554687 12.7321977 111.554687 12.7321977 80.5897797 25.4824539 80.5897797 25.4824539 111.554687"></polyline>
        <rect id="path-2" x="13.6429303" y="100.625897" width="10.928791" height="1"></rect>
        <polyline id="path-3" points="54.6258965 111.554687 41.8756404 111.554687 41.8756404 80.5897797 54.6258965 80.5897797 54.6258965 111.554687"></polyline>
        <rect id="path-4" x="42.786373" y="100.625897" width="10.928791" height="1"></rect>
        <polyline id="path-5" points="83.7693391 111.554687 71.019083 111.554687 71.019083 80.5897797 83.7693391 80.5897797 83.7693391 111.554687"></polyline>
        <rect id="path-6" x="71.9298156" y="100.625897" width="10.928791" height="1"></rect>
        <polyline id="path-7" points="63.7332223 31.4102203 32.7683145 31.4102203 32.7683145 0.4453125 63.7332223 0.4453125 63.7332223 31.4102203"></polyline>
        <rect id="path-8" x="33.6790471" y="10.4633709" width="29.1434426" height="1"></rect>
        <rect id="path-9" x="0.89267418" y="30.4994877" width="94.7161885" height="51.0010246" rx="2"></rect>
        <path d="M15.941577,30.7441673 C15.4010458,30.6090345 14.5267559,30.6085134 13.9841402,30.7441673 L1.84160289,33.7798016 C1.04053286,33.9800691 0.391137295,34.8115857 0.391137295,35.6471929 L0.391137295,76.3528071 C0.391137295,77.1838713 1.03606793,78.0188146 1.84160289,78.2201984 L13.9841402,81.2558327 C14.5246715,81.3909655 15.3989613,81.3914866 15.941577,81.2558327 L28.0841143,78.2201984 C28.8851844,78.0199309 29.5345799,77.1884143 29.5345799,76.3528071 L29.5345799,35.6471929 C29.5345799,34.8161287 28.8896493,33.9811854 28.0841143,33.7798016 L15.941577,30.7441673 Z" id="path-10"></path>
    </defs>
    <g stroke="none" stroke-width="1" fill="none" fill-rule="evenodd">
        <g>
            <g transform="translate(8.896484, 19.000000)">
                <g>
                    <use fill="#D8D8D8" fill-rule="evenodd" xlink:href="#path-1"></use>
                    <path stroke="#979797" stroke-width="1" d="M24.9824539,111.054687 L24.9824539,81.0897797 L13.2321977,81.0897797 L13.2321977,111.054687 L24.9824539,111.054687 Z"></path>
                </g>
                <g>
                    <use fill="#D8D8D8" fill-rule="evenodd" xlink:href="#path-2"></use>
                    <rect stroke="#979797" stroke-width="1" x="14.1429303" y="101.125897" width="9.92879098" height="1"></rect>
                </g>
                <g>
                    <use fill="#D8D8D8" fill-rule="evenodd" xlink:href="#path-3"></use>
                    <path stroke="#979797" stroke-width="1" d="M54.1258965,111.054687 L54.1258965,81.0897797 L42.3756404,81.0897797 L42.3756404,111.054687 L54.1258965,111.054687 Z"></path>
                </g>
                <g>
                    <use fill="#D8D8D8" fill-rule="evenodd" xlink:href="#path-4"></use>
                    <rect stroke="#979797" stroke-width="1" x="43.286373" y="101.125897" width="9.92879098" height="1"></rect>
                </g>
                <g>
                    <use fill="#D8D8D8" fill-rule="evenodd" xlink:href="#path-5"></use>
                    <path stroke="#979797" stroke-width="1" d="M83.2693391,111.054687 L83.2693391,81.0897797 L71.519083,81.0897797 L71.519083,111.054687 L83.2693391,111.054687 Z"></path>
                </g>
                <g>
                    <use fill="#D8D8D8" fill-rule="evenodd" xlink:href="#path-6"></use>
                    <rect stroke="#979797" stroke-width="1" x="72.4298156" y="101.125897" width="9.92879098" height="1"></rect>
                </g>
                <g>
                    <use fill="#D8D8D8" fill-rule="evenodd" xlink:href="#path-7"></use>
                    <path stroke="#979797" stroke-width="1" d="M63.2332223,30.9102203 L63.2332223,0.9453125 L33.2683145,0.9453125 L33.2683145,30.9102203 L63.2332223,30.9102203 Z"></path>
                </g>
                <g>
                    <use fill="#D8D8D8" fill-rule="evenodd" xlink:href="#path-8"></use>
                    <rect stroke="#979797" stroke-width="1" x="34.1790471" y="10.9633709" width="28.1434426" height="1"></rect>
                </g>
                <g>
                    <use fill="#585858" fill-rule="evenodd" xlink:href="#path-9"></use>
                    <rect stroke="#505050" stroke-width="4" x="2.89267418" y="32.4994877" width="90.7161885" height="47.0010246" rx="2"></rect>
                </g>
            </g>
            <g transform="translate(148.724609, 19.000000)">
                <path d="M16.8939741,24.9330849 L36.3166539,13.4576095 C36.8139603,13.162245 37.1186932,12.6273118 37.1186932,12.0496964 L37.1186932,2.22453106 C37.1186932,1.31972003 36.3838393,0.586225772 35.4773511,0.586225772 C34.5708629,0.586225772 33.8360091,1.31972003 33.8360091,2.22453106 L33.8360091,11.1032178 L14.4133293,22.6538221 C13.9160229,22.9491866 13.6112899,23.4841199 13.6112899,24.0617353 L13.6112899,33.8759679 C13.6112899,34.7807789 14.3461438,35.5142732 15.252632,35.5142732 C16.1591202,35.5142732 16.8939741,34.7807789 16.8939741,33.8759679 L16.8939741,24.9330849 Z" stroke="#979797" fill="#D8D8D8" fill-rule="nonzero" stroke-linecap="round" stroke-linejoin="round"></path>
                <path d="M13.6112899,87.3978293 C13.6112899,87.9754447 13.9160229,88.510378 14.4133293,88.8057425 L33.8360091,100.372413 L33.8360091,109.785802 C33.8360091,110.690613 34.5708629,111.424107 35.4773511,111.424107 C36.3838393,111.424107 37.1186932,110.690613 37.1186932,109.785802 L37.1186932,99.4098682 C37.1186932,98.8322528 36.8139603,98.2973196 36.3166539,98.0019551 L16.8939741,86.4742827 L16.8939741,77.5835967 C16.8939741,76.6787857 16.1591202,75.9452914 15.252632,75.9452914 C14.3461438,75.9452914 13.6112899,76.6787857 13.6112899,77.5835967 L13.6112899,87.3978293 Z" stroke="#979797" fill="#D8D8D8" fill-rule="nonzero"></path>
                <g>
                    <use fill="#585858" fill-rule="evenodd" xlink:href="#path-10"></use>
                    <path stroke="#505050" stroke-width="1" d="M15.8203092,31.2292385 C15.3586463,31.1138228 14.5676531,31.1136773 14.105408,31.2292385 L1.9628707,34.2648729 C1.38320973,34.4097881 0.891137295,35.0422386 0.891137295,35.6471929 L0.891137295,76.3528071 C0.891137295,76.9567276 1.38213379,77.5899429 1.9628707,77.7351271 L14.105408,80.7707615 C14.5670709,80.8861772 15.3580641,80.8863227 15.8203092,80.7707615 L27.9628465,77.7351271 C28.5425075,77.5902119 29.0345799,76.9577614 29.0345799,76.3528071 L29.0345799,35.6471929 C29.0345799,35.0432724 28.5435834,34.4100571 27.9628465,34.2648729 L15.8203092,31.2292385 Z"></path>
                </g>
                <polygon fill="#505050" points="14.052126 31.4102203 15.8735912 31.4102203 15.8735912 80.5897797 14.052126 80.5897797"></polygon>
            </g>
        </g>
    </g>
</svg>