<?xml version="1.0" encoding="UTF-8" standalone="no"?>
<svg width="200px" height="150px" viewBox="0 0 200 150" version="1.1" xmlns="http://www.w3.org/2000/svg" xmlns:xlink="http://www.w3.org/1999/xlink">
    <!-- Generator: Sketch 48.2 (47327) - http://www.bohemiancoding.com/sketch -->
    <title>SOT23</title>
    <desc>Created with Sketch.</desc>
    <defs>
        <path d="M16.9767864,33.2441966 C16.4373222,33.1093305 15.5720387,33.1069903 15.0232136,33.2441966 L1.44811273,36.6379718 C0.648342152,36.8379145 0,37.6785431 0,38.502474 L0,83.497526 C0,84.3273195 0.647035599,85.1617589 1.44811273,85.3620282 L15.0232136,88.7558034 C15.5626778,88.8906695 16.4279613,88.8930097 16.9767864,88.7558034 L30.5518873,85.3620282 C31.3516578,85.1620855 32,84.3214569 32,83.497526 L32,38.502474 C32,37.6726805 31.3529644,36.8382411 30.5518873,36.6379718 L16.9767864,33.2441966 Z" id="path-1"></path>
        <polyline id="path-2" points="31.0683594 122 17.0683594 122 17.0683594 88 31.0683594 88 31.0683594 122"></polyline>
        <polyline id="path-3" points="59 34 45 34 45 0 59 0 59 34"></polyline>
        <polyline id="path-4" points="59 121.85662 45 121.85662 45 87.8566203 59 87.8566203 59 121.85662"></polyline>
        <mask id="mask-5" maskContentUnits="userSpaceOnUse" maskUnits="objectBoundingBox" x="0" y="0" width="14" height="34" fill="white">
            <use xlink:href="#path-4"></use>
        </mask>
        <polyline id="path-6" points="31.0683594 34 17.0683594 34 17.0683594 0 31.0683594 0 31.0683594 34"></polyline>
        <mask id="mask-7" maskContentUnits="userSpaceOnUse" maskUnits="objectBoundingBox" x="0" y="0" width="14" height="34" fill="white">
            <use xlink:href="#path-6"></use>
        </mask>
        <rect id="path-8" x="19" y="110" width="12" height="1"></rect>
        <rect id="path-9" x="46" y="11" width="12" height="1"></rect>
        <polyline id="path-10" points="86 122 72 122 72 88 86 88 86 122"></polyline>
        <polyline id="path-11" points="86 34.1547252 72 34.1547252 72 0.15472519 86 0.15472519 86 34.1547252"></polyline>
        <mask id="mask-12" maskContentUnits="userSpaceOnUse" maskUnits="objectBoundingBox" x="0" y="0" width="14" height="34" fill="white">
            <use xlink:href="#path-11"></use>
        </mask>
        <rect id="path-13" x="73" y="110" width="12" height="1"></rect>
        <rect id="path-14" x="0" y="33" width="104" height="56" rx="2"></rect>
    </defs>
    <g stroke="none" stroke-width="1" fill="none" fill-rule="evenodd">
        <g>
            <g transform="translate(151.953125, 14.000000)">
                <path d="M18.1203979,26.8879942 L39.4468335,14.2877254 C39.9928845,13.9634101 40.3274865,13.3760442 40.3274865,12.7418126 L40.3274865,1.9536125 C40.3274865,0.960114473 39.5206043,0.15472519 38.5252647,0.15472519 C37.5299252,0.15472519 36.723043,0.960114473 36.723043,1.9536125 L36.723043,11.7025628 L15.3966074,24.3853246 C14.8505564,24.7096399 14.5159544,25.2970058 14.5159544,25.9312374 L14.5159544,36.7074331 C14.5159544,37.7009312 15.3228366,38.5063205 16.3181762,38.5063205 C17.3135158,38.5063205 18.1203979,37.7009312 18.1203979,36.7074331 L18.1203979,26.8879942 Z" stroke="#979797" fill="#D8D8D8" fill-rule="nonzero" stroke-linecap="round" stroke-linejoin="round"></path>
                <path d="M14.5159544,95.4753553 C14.5159544,96.1095869 14.8505564,96.6969528 15.3966074,97.021268 L36.723043,109.72167 L36.723043,120.057733 C36.723043,121.051231 37.5299252,121.85662 38.5252647,121.85662 C39.5206043,121.85662 40.3274865,121.051231 40.3274865,120.057733 L40.3274865,108.66478 C40.3274865,108.030548 39.9928845,107.443183 39.4468335,107.118867 L18.1203979,94.4612853 L18.1203979,84.6991595 C18.1203979,83.7056615 17.3135158,82.9002722 16.3181762,82.9002722 C15.3228366,82.9002722 14.5159544,83.7056615 14.5159544,84.6991595 L14.5159544,95.4753553 Z" stroke="#979797" fill="#D8D8D8" fill-rule="nonzero"></path>
                <g>
                    <use fill="#585858" fill-rule="evenodd" xlink:href="#path-1"></use>
                    <path stroke="#505050" stroke-width="1" d="M16.8555186,33.7292678 C16.392282,33.6134587 15.6103147,33.6128095 15.1444814,33.7292678 L1.56938054,37.1230431 C0.99486393,37.2666722 0.5,37.9052129 0.5,38.502474 L0.5,83.497526 C0.5,84.0989284 0.991899503,84.7325867 1.56938054,84.8769569 L15.1444814,88.2707322 C15.607718,88.3865413 16.3896853,88.3871905 16.8555186,88.2707322 L30.4306195,84.8769569 C31.0051361,84.7333278 31.5,84.0947871 31.5,83.497526 L31.5,38.502474 C31.5,37.9010716 31.0081005,37.2674133 30.4306195,37.1230431 L16.8555186,33.7292678 Z"></path>
                </g>
                <polygon fill="#505050" points="15 34 17 34 17 88 15 88"></polygon>
            </g>
            <g transform="translate(7.835938, 14.000000)">
                <g>
                    <use fill="#D8D8D8" fill-rule="evenodd" xlink:href="#path-2"></use>
                    <path stroke="#979797" stroke-width="1" d="M30.5683594,121.5 L30.5683594,88.5 L17.5683594,88.5 L17.5683594,121.5 L30.5683594,121.5 Z"></path>
                </g>
                <g>
                    <use fill="#D8D8D8" fill-rule="evenodd" xlink:href="#path-3"></use>
                    <path stroke="#979797" stroke-width="1" d="M58.5,33.5 L58.5,0.5 L45.5,0.5 L45.5,33.5 L58.5,33.5 Z"></path>
                </g>
                <use stroke="#979797" mask="url(#mask-5)" stroke-width="2" stroke-dasharray="4,3" xlink:href="#path-4"></use>
                <use stroke="#979797" mask="url(#mask-7)" stroke-width="2" stroke-dasharray="4,3" xlink:href="#path-6"></use>
                <g>
                    <use fill="#D8D8D8" fill-rule="evenodd" xlink:href="#path-8"></use>
                    <rect stroke="#979797" stroke-width="1" x="19.5" y="110.5" width="11" height="1"></rect>
                </g>
                <g>
                    <use fill="#D8D8D8" fill-rule="evenodd" xlink:href="#path-9"></use>
                    <rect stroke="#979797" stroke-width="1" x="46.5" y="11.5" width="11" height="1"></rect>
                </g>
                <g>
                    <use fill="#D8D8D8" fill-rule="evenodd" xlink:href="#path-10"></use>
                    <path stroke="#979797" stroke-width="1" d="M85.5,121.5 L85.5,88.5 L72.5,88.5 L72.5,121.5 L85.5,121.5 Z"></path>
                </g>
                <use stroke="#979797" mask="url(#mask-12)" stroke-width="2" stroke-dasharray="4,3" xlink:href="#path-11"></use>
                <g>
                    <use fill="#D8D8D8" fill-rule="evenodd" xlink:href="#path-13"></use>
                    <rect stroke="#979797" stroke-width="1" x="73.5" y="110.5" width="11" height="1"></rect>
                </g>
                <g>
                    <use fill="#585858" fill-rule="evenodd" xlink:href="#path-14"></use>
                    <rect stroke="#505050" stroke-width="4" x="2" y="35" width="100" height="52" rx="2"></rect>
                </g>
                <circle stroke="#979797" fill="#D8D8D8" cx="10.9760742" cy="78.9760742" r="1.97607422"></circle>
            </g>
        </g>
    </g>
</svg>