<?xml version="1.0" encoding="UTF-8" standalone="no"?>
<svg width="290px" height="175px" viewBox="0 0 290 175" version="1.1" xmlns="http://www.w3.org/2000/svg" xmlns:xlink="http://www.w3.org/1999/xlink">
    <!-- Generator: Sketch 48.2 (47327) - http://www.bohemiancoding.com/sketch -->
    <title>SOT23-Labeled</title>
    <desc>Created with Sketch.</desc>
    <defs>
        <path d="M16.9767864,33.2441966 C16.4373222,33.1093305 15.5720387,33.1069903 15.0232136,33.2441966 L1.44811273,36.6379718 C0.648342152,36.8379145 0,37.6785431 0,38.502474 L0,83.497526 C0,84.3273195 0.647035599,85.1617589 1.44811273,85.3620282 L15.0232136,88.7558034 C15.5626778,88.8906695 16.4279613,88.8930097 16.9767864,88.7558034 L30.5518873,85.3620282 C31.3516578,85.1620855 32,84.3214569 32,83.497526 L32,38.502474 C32,37.6726805 31.3529644,36.8382411 30.5518873,36.6379718 L16.9767864,33.2441966 Z" id="path-1"></path>
        <polyline id="path-2" points="31.0683594 122 17.0683594 122 17.0683594 88 31.0683594 88 31.0683594 122"></polyline>
        <polyline id="path-3" points="59 34 45 34 45 0 59 0 59 34"></polyline>
        <polyline id="path-4" points="59 121.85662 45 121.85662 45 87.8566203 59 87.8566203 59 121.85662"></polyline>
        <mask id="mask-5" maskContentUnits="userSpaceOnUse" maskUnits="objectBoundingBox" x="0" y="0" width="14" height="34" fill="white">
            <use xlink:href="#path-4"></use>
        </mask>
        <polyline id="path-6" points="31.0683594 34 17.0683594 34 17.0683594 0 31.0683594 0 31.0683594 34"></polyline>
        <mask id="mask-7" maskContentUnits="userSpaceOnUse" maskUnits="objectBoundingBox" x="0" y="0" width="14" height="34" fill="white">
            <use xlink:href="#path-6"></use>
        </mask>
        <rect id="path-8" x="19" y="110" width="12" height="1"></rect>
        <rect id="path-9" x="46" y="11" width="12" height="1"></rect>
        <polyline id="path-10" points="86 122 72 122 72 88 86 88 86 122"></polyline>
        <polyline id="path-11" points="86 34.1547252 72 34.1547252 72 0.15472519 86 0.15472519 86 34.1547252"></polyline>
        <mask id="mask-12" maskContentUnits="userSpaceOnUse" maskUnits="objectBoundingBox" x="0" y="0" width="14" height="34" fill="white">
            <use xlink:href="#path-11"></use>
        </mask>
        <rect id="path-13" x="73" y="110" width="12" height="1"></rect>
        <rect id="path-14" x="0" y="33" width="104" height="56" rx="2"></rect>
    </defs>
    <g stroke="none" stroke-width="1" fill="none" fill-rule="evenodd">
        <g>
            <g transform="translate(47.404297, 26.500000)">
                <g transform="translate(163.953125, 0.000000)">
                    <path d="M18.1203979,26.8879942 L39.4468335,14.2877254 C39.9928845,13.9634101 40.3274865,13.3760442 40.3274865,12.7418126 L40.3274865,1.9536125 C40.3274865,0.960114473 39.5206043,0.15472519 38.5252647,0.15472519 C37.5299252,0.15472519 36.723043,0.960114473 36.723043,1.9536125 L36.723043,11.7025628 L15.3966074,24.3853246 C14.8505564,24.7096399 14.5159544,25.2970058 14.5159544,25.9312374 L14.5159544,36.7074331 C14.5159544,37.7009312 15.3228366,38.5063205 16.3181762,38.5063205 C17.3135158,38.5063205 18.1203979,37.7009312 18.1203979,36.7074331 L18.1203979,26.8879942 Z" stroke="#979797" fill="#D8D8D8" fill-rule="nonzero" stroke-linecap="round" stroke-linejoin="round"></path>
                    <path d="M14.5159544,95.4753553 C14.5159544,96.1095869 14.8505564,96.6969528 15.3966074,97.021268 L36.723043,109.72167 L36.723043,120.057733 C36.723043,121.051231 37.5299252,121.85662 38.5252647,121.85662 C39.5206043,121.85662 40.3274865,121.051231 40.3274865,120.057733 L40.3274865,108.66478 C40.3274865,108.030548 39.9928845,107.443183 39.4468335,107.118867 L18.1203979,94.4612853 L18.1203979,84.6991595 C18.1203979,83.7056615 17.3135158,82.9002722 16.3181762,82.9002722 C15.3228366,82.9002722 14.5159544,83.7056615 14.5159544,84.6991595 L14.5159544,95.4753553 Z" stroke="#979797" fill="#D8D8D8" fill-rule="nonzero"></path>
                    <g>
                        <use fill="#585858" fill-rule="evenodd" xlink:href="#path-1"></use>
                        <path stroke="#505050" stroke-width="1" d="M16.8555186,33.7292678 C16.392282,33.6134587 15.6103147,33.6128095 15.1444814,33.7292678 L1.56938054,37.1230431 C0.99486393,37.2666722 0.5,37.9052129 0.5,38.502474 L0.5,83.497526 C0.5,84.0989284 0.991899503,84.7325867 1.56938054,84.8769569 L15.1444814,88.2707322 C15.607718,88.3865413 16.3896853,88.3871905 16.8555186,88.2707322 L30.4306195,84.8769569 C31.0051361,84.7333278 31.5,84.0947871 31.5,83.497526 L31.5,38.502474 C31.5,37.9010716 31.0081005,37.2674133 30.4306195,37.1230431 L16.8555186,33.7292678 Z"></path>
                    </g>
                    <polygon fill="#505050" points="15 34 17 34 17 88 15 88"></polygon>
                </g>
                <g transform="translate(0.835938, 0.000000)">
                    <g>
                        <use fill="#D8D8D8" fill-rule="evenodd" xlink:href="#path-2"></use>
                        <path stroke="#979797" stroke-width="1" d="M30.5683594,121.5 L30.5683594,88.5 L17.5683594,88.5 L17.5683594,121.5 L30.5683594,121.5 Z"></path>
                    </g>
                    <g>
                        <use fill="#D8D8D8" fill-rule="evenodd" xlink:href="#path-3"></use>
                        <path stroke="#979797" stroke-width="1" d="M58.5,33.5 L58.5,0.5 L45.5,0.5 L45.5,33.5 L58.5,33.5 Z"></path>
                    </g>
                    <use stroke="#979797" mask="url(#mask-5)" stroke-width="2" stroke-dasharray="4,3" xlink:href="#path-4"></use>
                    <use stroke="#979797" mask="url(#mask-7)" stroke-width="2" stroke-dasharray="4,3" xlink:href="#path-6"></use>
                    <g>
                        <use fill="#D8D8D8" fill-rule="evenodd" xlink:href="#path-8"></use>
                        <rect stroke="#979797" stroke-width="1" x="19.5" y="110.5" width="11" height="1"></rect>
                    </g>
                    <g>
                        <use fill="#D8D8D8" fill-rule="evenodd" xlink:href="#path-9"></use>
                        <rect stroke="#979797" stroke-width="1" x="46.5" y="11.5" width="11" height="1"></rect>
                    </g>
                    <g>
                        <use fill="#D8D8D8" fill-rule="evenodd" xlink:href="#path-10"></use>
                        <path stroke="#979797" stroke-width="1" d="M85.5,121.5 L85.5,88.5 L72.5,88.5 L72.5,121.5 L85.5,121.5 Z"></path>
                    </g>
                    <use stroke="#979797" mask="url(#mask-12)" stroke-width="2" stroke-dasharray="4,3" xlink:href="#path-11"></use>
                    <g>
                        <use fill="#D8D8D8" fill-rule="evenodd" xlink:href="#path-13"></use>
                        <rect stroke="#979797" stroke-width="1" x="73.5" y="110.5" width="11" height="1"></rect>
                    </g>
                    <g>
                        <use fill="#585858" fill-rule="evenodd" xlink:href="#path-14"></use>
                        <rect stroke="#505050" stroke-width="4" x="2" y="35" width="100" height="52" rx="2"></rect>
                    </g>
                    <circle stroke="#979797" fill="#D8D8D8" cx="10.9760742" cy="78.9760742" r="1.97607422"></circle>
                </g>
            </g>
            <g transform="translate(13.431641, 7.000000)" fill="#8D9EB0">
                <path d="M160.681222,75.2686806 L155.374577,75.2686806 L155.374577,79.0002084 L160.268692,79.0002084 L160.268692,80.8190939 L155.374577,80.8190939 L155.374577,84.7381357 L160.681222,84.7381357 L160.681222,86.5757725 L153.011901,86.5757725 L153.011901,73.4497951 L160.681222,73.4497951 L160.681222,75.2686806 Z M168.050521,84.7943899 L170.356943,84.7943899 L170.356943,86.5757725 L163.081401,86.5757725 L163.081401,84.7943899 L165.762851,84.7943899 L165.762851,75.999985 L163.493932,77.1250688 L162.631368,75.5874543 L166.306641,73.4497951 L168.050521,73.4497951 L168.050521,84.7943899 Z"></path>
                <polygon points="16.0874724 75.2686806 10.7808273 75.2686806 10.7808273 79.0002084 15.6749417 79.0002084 15.6749417 80.8190939 10.7808273 80.8190939 10.7808273 84.7381357 16.0874724 84.7381357 16.0874724 86.5757725 8.41815132 86.5757725 8.41815132 73.4497951 16.0874724 73.4497951"></polygon>
                <g transform="translate(36.404297, 4.000000)">
                    <g transform="translate(3.832124, 3.275391) scale(-1, 1) translate(-3.832124, -3.275391) translate(0.832124, 0.775391)">
                        <path d="M2.88775351,-0.425866237 C2.98755721,-0.684554916 3.15206769,-0.677565105 3.24917468,-0.425866237 L5.40050076,5.1503168 C5.50030446,5.40900548 5.36527212,5.61871408 5.08097484,5.61871408 L1.05595335,5.61871408 C0.779680363,5.61871408 0.639320451,5.40201566 0.736427439,5.1503168 L2.88775351,-0.425866237 Z" transform="translate(3.069450, 2.500722) rotate(90.000000) translate(-3.069450, -2.500722) "></path>
                    </g>
                    <rect x="3.68472202" y="2.66483938" width="40.9623727" height="1" rx="0.5"></rect>
                </g>
                <g transform="translate(114.904297, 7.000000) scale(-1, 1) translate(-114.904297, -7.000000) translate(92.404297, 4.000000)">
                    <g transform="translate(3.832124, 3.275391) scale(-1, 1) translate(-3.832124, -3.275391) translate(0.832124, 0.775391)">
                        <path d="M2.88775351,-0.425866237 C2.98755721,-0.684554916 3.15206769,-0.677565105 3.24917468,-0.425866237 L5.40050076,5.1503168 C5.50030446,5.40900548 5.36527212,5.61871408 5.08097484,5.61871408 L1.05595335,5.61871408 C0.779680363,5.61871408 0.639320451,5.40201566 0.736427439,5.1503168 L2.88775351,-0.425866237 Z" transform="translate(3.069450, 2.500722) rotate(90.000000) translate(-3.069450, -2.500722) "></path>
                    </g>
                    <rect x="3.68472202" y="2.66483938" width="40.9623727" height="1" rx="0.5"></rect>
                </g>
                <path d="M86.9686548,0.703307281 C90.5314201,0.703307281 92.3128028,2.80346366 92.3128028,5.95369824 L92.3128028,8.27887137 C92.3128028,11.6916255 90.287652,13.8292847 86.4998699,13.8292847 L82.6745851,13.8292847 L82.6745851,0.703307281 L86.9686548,0.703307281 Z M89.9501268,8.31637417 L89.9501268,5.89744405 C89.9501268,3.75978487 88.9375514,2.52219272 86.8561465,2.52219272 L85.037261,2.52219272 L85.037261,12.0103992 L86.5186213,12.0103992 C88.8062917,12.0103992 89.9501268,10.8103099 89.9501268,8.31637417 Z"></path>
                <rect x="35.2490086" y="2.97902592" width="1" height="48.9155053" rx="0.5"></rect>
                <rect x="136.94104" y="2.97902592" width="1" height="48.9155053" rx="0.5"></rect>
                <path d="M138.593479,149.969468 C140.881149,149.969468 142.381261,151.807105 142.381261,154.69482 L142.381261,155.707395 C142.381261,158.463851 140.599878,160.451499 138.312208,160.451499 C137.243379,160.451499 136.380814,160.057719 135.687013,159.345166 L135.499499,160.207731 L133.680613,160.207731 L133.680613,146.331697 L136.005786,146.331697 L136.005786,151.000795 C136.643334,150.344496 137.505898,149.969468 138.593479,149.969468 Z M140.056088,155.782401 L140.056088,154.619814 C140.056088,152.669669 139.399789,151.732099 138.124694,151.732099 C137.224627,151.732099 136.512074,152.163382 136.005786,152.800929 L136.005786,157.863806 C136.512074,158.407596 137.149622,158.707619 137.918429,158.707619 C139.212275,158.707619 140.056088,157.695043 140.056088,155.782401 Z"></path>
                <path d="M52.3670521,154.82608 C52.3670521,155.238611 52.3295493,155.651141 52.2920465,155.951164 L45.8603176,155.951164 C45.8978204,157.863806 46.779136,158.707619 48.5042645,158.707619 C49.5918454,158.707619 50.3981555,158.313839 51.1669627,157.882557 L51.9920242,159.270161 C51.1482113,159.907708 49.7981108,160.451499 48.3542533,160.451499 C45.3165271,160.451499 43.5913986,158.445099 43.5913986,155.744898 L43.5913986,154.713571 C43.5913986,152.01337 45.2790243,149.969468 48.0542309,149.969468 C50.7731834,149.969468 52.3670521,151.657094 52.3670521,154.82608 Z M50.2856471,154.4323 L50.2856471,154.338543 C50.2856471,152.613415 49.5168399,151.675845 48.0729823,151.675845 C46.6478762,151.675845 45.8978204,152.613415 45.8603176,154.4323 L50.2856471,154.4323 Z"></path>
                <rect x="106.67772" y="142.587891" width="1" height="15.6104736" rx="0.5"></rect>
                <rect x="58.1503758" y="142.587891" width="1" height="15.6104736" rx="0.5"></rect>
                <rect x="119.433228" y="142.587891" width="1" height="15.6104736" rx="0.5"></rect>
                <rect x="86.1988525" y="142.587891" width="1" height="15.6104736" rx="0.5"></rect>
                <g transform="translate(158.404297, 54.000000)">
                    <g transform="translate(2.631110, 3.427124) rotate(-90.000000) translate(-2.631110, -3.427124) translate(-0.368890, 0.927124)">
                        <path d="M2.88775351,-0.425866237 C2.98755721,-0.684554916 3.15206769,-0.677565105 3.24917468,-0.425866237 L5.40050076,5.1503168 C5.50030446,5.40900548 5.36527212,5.61871408 5.08097484,5.61871408 L1.05595335,5.61871408 C0.779680363,5.61871408 0.639320451,5.40201566 0.736427439,5.1503168 L2.88775351,-0.425866237 Z" transform="translate(3.069450, 2.500722) rotate(90.000000) translate(-3.069450, -2.500722) "></path>
                    </g>
                    <rect x="2.13111028" y="3.42712402" width="1" height="14.2872319" rx="0.5"></rect>
                </g>
                <g transform="translate(161.404297, 98.000000) scale(1, -1) translate(-161.404297, -98.000000) translate(158.404297, 89.000000)">
                    <g transform="translate(2.631110, 3.427124) rotate(-90.000000) translate(-2.631110, -3.427124) translate(-0.368890, 0.927124)">
                        <path d="M2.88775351,-0.425866237 C2.98755721,-0.684554916 3.15206769,-0.677565105 3.24917468,-0.425866237 L5.40050076,5.1503168 C5.50030446,5.40900548 5.36527212,5.61871408 5.08097484,5.61871408 L1.05595335,5.61871408 C0.779680363,5.61871408 0.639320451,5.40201566 0.736427439,5.1503168 L2.88775351,-0.425866237 Z" transform="translate(3.069450, 2.500722) rotate(90.000000) translate(-3.069450, -2.500722) "></path>
                    </g>
                    <rect x="2.13111028" y="3.42712402" width="1" height="14.2872319" rx="0.5"></rect>
                </g>
                <rect x="0.50390625" y="19.717041" width="49.71875" height="1" rx="0.5"></rect>
                <rect x="140.557617" y="52.717041" width="27.8515625" height="1" rx="0.5"></rect>
                <rect x="140.557617" y="107.12915" width="27.8515625" height="1" rx="0.5"></rect>
                <rect x="0.50390625" y="140.396502" width="49.71875" height="1" rx="0.5"></rect>
                <g transform="translate(10.958984, 21.494141)">
                    <g transform="translate(2.525734, 3.427124) rotate(-90.000000) translate(-2.525734, -3.427124) translate(-0.474266, 0.927124)">
                        <path d="M2.88775351,-0.425866237 C2.98755721,-0.684554916 3.15206769,-0.677565105 3.24917468,-0.425866237 L5.40050076,5.1503168 C5.50030446,5.40900548 5.36527212,5.61871408 5.08097484,5.61871408 L1.05595335,5.61871408 C0.779680363,5.61871408 0.639320451,5.40201566 0.736427439,5.1503168 L2.88775351,-0.425866237 Z" transform="translate(3.069450, 2.500722) rotate(90.000000) translate(-3.069450, -2.500722) "></path>
                    </g>
                    <rect x="2.0257342" y="3.42712402" width="1" height="46.2717285" rx="0.5"></rect>
                </g>
                <g transform="translate(13.958984, 114.494141) scale(1, -1) translate(-13.958984, -114.494141) translate(10.958984, 89.494141)">
                    <g transform="translate(2.525734, 3.427124) rotate(-90.000000) translate(-2.525734, -3.427124) translate(-0.474266, 0.927124)">
                        <path d="M2.88775351,-0.425866237 C2.98755721,-0.684554916 3.15206769,-0.677565105 3.24917468,-0.425866237 L5.40050076,5.1503168 C5.50030446,5.40900548 5.36527212,5.61871408 5.08097484,5.61871408 L1.05595335,5.61871408 C0.779680363,5.61871408 0.639320451,5.40201566 0.736427439,5.1503168 L2.88775351,-0.425866237 Z" transform="translate(3.069450, 2.500722) rotate(90.000000) translate(-3.069450, -2.500722) "></path>
                    </g>
                    <rect x="2.0257342" y="3.42712402" width="1" height="46.2717285" rx="0.5"></rect>
                </g>
                <g transform="translate(121.095215, 151.332031)">
                    <g transform="translate(3.933594, 2.500000) scale(-1, 1) translate(-3.933594, -2.500000) translate(0.933594, 0.000000)">
                        <path d="M2.88775351,-0.425866237 C2.98755721,-0.684554916 3.15206769,-0.677565105 3.24917468,-0.425866237 L5.40050076,5.1503168 C5.50030446,5.40900548 5.36527212,5.61871408 5.08097484,5.61871408 L1.05595335,5.61871408 C0.779680363,5.61871408 0.639320451,5.40201566 0.736427439,5.1503168 L2.88775351,-0.425866237 Z" transform="translate(3.069450, 2.500722) rotate(90.000000) translate(-3.069450, -2.500722) "></path>
                    </g>
                    <rect x="5.93359375" y="2" width="4" height="1" rx="0.5"></rect>
                </g>
                <g transform="translate(57.000000, 151.332031)">
                    <g transform="translate(4.933594, 2.500000) scale(-1, 1) translate(-4.933594, -2.500000) translate(0.933594, 0.000000)">
                        <path d="M3.88775351,-0.426588009 C3.98755721,-0.685276688 4.15206769,-0.678286877 4.24917468,-0.426588009 L6.40050076,5.14959502 C6.50030446,5.4082837 6.36527212,5.61799231 6.08097484,5.61799231 L2.05595335,5.61799231 C1.77968036,5.61799231 1.63932045,5.40129389 1.73642744,5.14959502 L3.88775351,-0.426588009 Z" transform="translate(4.069450, 2.500000) rotate(90.000000) translate(-4.069450, -2.500000) "></path>
                    </g>
                    <rect x="4.93359375" y="2" width="21.6136475" height="1" rx="0.5"></rect>
                </g>
                <g transform="translate(95.686523, 151.332031)">
                    <g transform="translate(6.933594, 2.500000) scale(-1, 1) rotate(180.000000) translate(-6.933594, -2.500000) translate(3.933594, 0.000000)">
                        <path d="M2.88775351,-0.425866237 C2.98755721,-0.684554916 3.15206769,-0.677565105 3.24917468,-0.425866237 L5.40050076,5.1503168 C5.50030446,5.40900548 5.36527212,5.61871408 5.08097484,5.61871408 L1.05595335,5.61871408 C0.779680363,5.61871408 0.639320451,5.40201566 0.736427439,5.1503168 L2.88775351,-0.425866237 Z" transform="translate(3.069450, 2.500722) rotate(90.000000) translate(-3.069450, -2.500722) "></path>
                    </g>
                    <path d="M4.93359375,2.5 C4.93359375,2.77614237 4.71853638,3 4.44311523,3 L1.42407227,3 C1.15318846,3 0.93359375,2.76806641 0.93359375,2.5 L0.93359375,2.5 C0.93359375,2.22385763 1.14865112,2 1.42407227,2 L4.44311523,2 C4.71399904,2 4.93359375,2.23193359 4.93359375,2.5 L4.93359375,2.5"></path>
                </g>
                <g transform="translate(54.159180, 151.332031)">
                    <g transform="translate(28.933594, 2.500000) scale(-1, 1) rotate(180.000000) translate(-28.933594, -2.500000) translate(24.933594, 0.000000)">
                        <path d="M3.73687461,-0.426588009 C3.83667831,-0.685276688 4.00118879,-0.678286877 4.09829578,-0.426588009 L6.24962185,5.14959502 C6.34942555,5.4082837 6.21439322,5.61799231 5.93009594,5.61799231 L1.90507445,5.61799231 C1.62880146,5.61799231 1.48844155,5.40129389 1.58554853,5.14959502 L3.73687461,-0.426588009 Z" transform="translate(3.918571, 2.500000) rotate(90.000000) translate(-3.918571, -2.500000) "></path>
                    </g>
                    <path d="M4.10107422,2.5 C4.10107422,2.77614237 3.88601685,3 3.6105957,3 L0.591552734,3 C0.32066893,3 0.101074219,2.76806641 0.101074219,2.5 L0.101074219,2.5 C0.101074219,2.22385763 0.316131592,2 0.591552734,2 L3.6105957,2 C3.88147951,2 4.10107422,2.23193359 4.10107422,2.5 L4.10107422,2.5"></path>
                </g>
            </g>
            <g transform="translate(211.839844, 7.000000)" fill="#8D9EB0">
                <g transform="translate(44.799805, 5.501953)">
                    <g transform="translate(2.968994, 9.819735) rotate(90.000000) translate(-2.968994, -9.819735) translate(-0.031006, 7.319735)">
                        <path d="M2.88775351,-0.425866237 C2.98755721,-0.684554916 3.15206769,-0.677565105 3.24917468,-0.425866237 L5.40050076,5.1503168 C5.50030446,5.40900548 5.36527212,5.61871408 5.08097484,5.61871408 L1.05595335,5.61871408 C0.779680363,5.61871408 0.639320451,5.40201566 0.736427439,5.1503168 L2.88775351,-0.425866237 Z" transform="translate(3.069450, 2.500722) rotate(90.000000) translate(-3.069450, -2.500722) "></path>
                    </g>
                    <rect x="2.46899414" y="0.819735308" width="1" height="8.00952148" rx="0.5"></rect>
                    <rect x="2.46899414" y="0.819735308" width="6" height="1" rx="0.5"></rect>
                </g>
                <path d="M24.123738,18.09729 L23.036157,14.6470331 L18.4983191,14.6470331 L17.5044951,18.09729 L15.1230678,18.09729 L19.1358666,4.97131265 L22.3423554,4.97131265 L26.5614195,18.09729 L24.123738,18.09729 Z M20.7297353,6.62143552 L19.0233582,12.7531421 L22.4736152,12.7531421 L20.7297353,6.62143552 Z"></path>
                <path d="M39.8361816,11.3231292 C39.8361816,11.048465 40.0681152,10.8258057 40.3361816,10.8258057 L40.3361816,10.8258057 C40.612324,10.8258057 40.8361816,11.0444762 40.8361816,11.3231292 L40.8361816,17.9081552 C40.8361816,18.1828194 40.604248,18.4054787 40.3361816,18.4054787 L40.3361816,18.4054787 C40.0600393,18.4054787 39.8361816,18.1868082 39.8361816,17.9081552 L39.8361816,11.3231292 Z"></path>
                <rect x="0.451049805" y="10.8258057" width="1" height="44.916626" rx="0.5"></rect>
                <g transform="translate(1.645020, 10.000000)">
                    <g transform="translate(3.085449, 3.453524) scale(-1, 1) translate(-3.085449, -3.453524) translate(0.085449, 0.953524)">
                        <path d="M2.88775351,-0.425866237 C2.98755721,-0.684554916 3.15206769,-0.677565105 3.24917468,-0.425866237 L5.40050076,5.1503168 C5.50030446,5.40900548 5.36527212,5.61871408 5.08097484,5.61871408 L1.05595335,5.61871408 C0.779680363,5.61871408 0.639320451,5.40201566 0.736427439,5.1503168 L2.88775351,-0.425866237 Z" transform="translate(3.069450, 2.500722) rotate(90.000000) translate(-3.069450, -2.500722) "></path>
                    </g>
                    <rect x="2.93804755" y="2.84297312" width="10.3506487" height="1" rx="0.5"></rect>
                </g>
                <g transform="translate(32.645020, 13.000000) scale(-1, 1) translate(-32.645020, -13.000000) translate(25.645020, 10.000000)">
                    <g transform="translate(3.085449, 3.453524) scale(-1, 1) translate(-3.085449, -3.453524) translate(0.085449, 0.953524)">
                        <path d="M2.88775351,-0.425866237 C2.98755721,-0.684554916 3.15206769,-0.677565105 3.24917468,-0.425866237 L5.40050076,5.1503168 C5.50030446,5.40900548 5.36527212,5.61871408 5.08097484,5.61871408 L1.05595335,5.61871408 C0.779680363,5.61871408 0.639320451,5.40201566 0.736427439,5.1503168 L2.88775351,-0.425866237 Z" transform="translate(3.069450, 2.500722) rotate(90.000000) translate(-3.069450, -2.500722) "></path>
                    </g>
                    <rect x="2.93804755" y="2.84297312" width="10.3506487" height="1" rx="0.5"></rect>
                </g>
                <polygon points="57.2209768 11.612382 62.5463734 11.612382 62.5463734 13.5250244 54.8583009 13.5250244 54.8583009 0.399047027 57.2209768 0.399047027"></polygon>
                <rect x="41.6142578" y="19.1352871" width="8.89941406" height="1" rx="0.5"></rect>
                <g transform="translate(44.560547, 35.310547)">
                    <g transform="translate(3.170471, 3.091220) rotate(-90.000000) translate(-3.170471, -3.091220) translate(0.170471, 0.591220)">
                        <path d="M2.88775351,-0.425866237 C2.98755721,-0.684554916 3.15206769,-0.677565105 3.24917468,-0.425866237 L5.40050076,5.1503168 C5.50030446,5.40900548 5.36527212,5.61871408 5.08097484,5.61871408 L1.05595335,5.61871408 C0.779680363,5.61871408 0.639320451,5.40201566 0.736427439,5.1503168 L2.88775351,-0.425866237 Z" transform="translate(3.069450, 2.500722) rotate(90.000000) translate(-3.069450, -2.500722) "></path>
                    </g>
                    <rect x="2.67047119" y="3.09121968" width="1" height="4.93155171" rx="0.5"></rect>
                </g>
                <rect x="41.6142578" y="33.2051113" width="8.89941406" height="1" rx="0.5"></rect>
                <rect x="31.4042969" y="105" width="1" height="45" rx="0.5"></rect>
                <rect x="40.6507568" y="141.920776" width="1" height="8.07922363" rx="0.5"></rect>
                <path d="M11.2819412,154 L10.1943602,150.549743 L5.65652227,150.549743 L4.66269827,154 L2.28127094,154 L6.29406975,140.874023 L9.50055851,140.874023 L13.7196227,154 L11.2819412,154 Z M7.88793843,142.524145 L6.18156137,148.655852 L9.63181828,148.655852 L7.88793843,142.524145 Z M20.0950974,152.218617 L22.4015191,152.218617 L22.4015191,154 L15.1259774,154 L15.1259774,152.218617 L17.8074271,152.218617 L17.8074271,143.424213 L15.5385081,144.549296 L14.6759439,143.011682 L18.3512175,140.874023 L20.0950974,140.874023 L20.0950974,152.218617 Z"></path>
                <g transform="translate(42.000000, 144.000000)">
                    <g transform="translate(3.404297, 2.500000) scale(-1, 1) translate(-3.404297, -2.500000) translate(0.404297, 0.000000)">
                        <path d="M2.88775351,-0.425866237 C2.98755721,-0.684554916 3.15206769,-0.677565105 3.24917468,-0.425866237 L5.40050076,5.1503168 C5.50030446,5.40900548 5.36527212,5.61871408 5.08097484,5.61871408 L1.05595335,5.61871408 C0.779680363,5.61871408 0.639320451,5.40201566 0.736427439,5.1503168 L2.88775351,-0.425866237 Z" transform="translate(3.069450, 2.500722) rotate(90.000000) translate(-3.069450, -2.500722) "></path>
                    </g>
                    <rect x="3.40429688" y="2" width="4" height="1" rx="0.5"></rect>
                </g>
                <g transform="translate(24.000000, 144.000000)">
                    <g transform="translate(4.404297, 2.500000) scale(-1, 1) rotate(180.000000) translate(-4.404297, -2.500000) translate(1.404297, 0.000000)">
                        <path d="M2.88775351,-0.425866237 C2.98755721,-0.684554916 3.15206769,-0.677565105 3.24917468,-0.425866237 L5.40050076,5.1503168 C5.50030446,5.40900548 5.36527212,5.61871408 5.08097484,5.61871408 L1.05595335,5.61871408 C0.779680363,5.61871408 0.639320451,5.40201566 0.736427439,5.1503168 L2.88775351,-0.425866237 Z" transform="translate(3.069450, 2.500722) rotate(90.000000) translate(-3.069450, -2.500722) "></path>
                    </g>
                    <path d="M4.40429688,2.5 C4.40429688,2.77614237 4.1892395,3 3.91381836,3 L0.894775391,3 C0.623891586,3 0.404296875,2.76806641 0.404296875,2.5 L0.404296875,2.5 C0.404296875,2.22385763 0.619354248,2 0.894775391,2 L3.91381836,2 C4.18470216,2 4.40429688,2.23193359 4.40429688,2.5 L4.40429688,2.5"></path>
                </g>
            </g>
        </g>
    </g>
</svg>
