<?xml version="1.0" encoding="UTF-8" standalone="no"?>
<svg width="290px" height="175px" viewBox="0 0 290 175" version="1.1" xmlns="http://www.w3.org/2000/svg" xmlns:xlink="http://www.w3.org/1999/xlink">
    <!-- Generator: Sketch 48.2 (47327) - http://www.bohemiancoding.com/sketch -->
    <title>SOT223-Labeled</title>
    <desc>Created with Sketch.</desc>
    <defs>
        <polyline id="path-1" points="25.4824539 111.554687 12.7321977 111.554687 12.7321977 80.5897797 25.4824539 80.5897797 25.4824539 111.554687"></polyline>
        <rect id="path-2" x="13.6429303" y="100.625897" width="10.928791" height="1"></rect>
        <polyline id="path-3" points="54.6258965 111.554687 41.8756404 111.554687 41.8756404 80.5897797 54.6258965 80.5897797 54.6258965 111.554687"></polyline>
        <rect id="path-4" x="42.786373" y="100.625897" width="10.928791" height="1"></rect>
        <polyline id="path-5" points="83.7693391 111.554687 71.019083 111.554687 71.019083 80.5897797 83.7693391 80.5897797 83.7693391 111.554687"></polyline>
        <rect id="path-6" x="71.9298156" y="100.625897" width="10.928791" height="1"></rect>
        <polyline id="path-7" points="63.7332223 31.4102203 32.7683145 31.4102203 32.7683145 0.4453125 63.7332223 0.4453125 63.7332223 31.4102203"></polyline>
        <rect id="path-8" x="33.6790471" y="10.4633709" width="29.1434426" height="1"></rect>
        <rect id="path-9" x="0.89267418" y="30.4994877" width="94.7161885" height="51.0010246" rx="2"></rect>
        <path d="M15.941577,30.7441673 C15.4010458,30.6090345 14.5267559,30.6085134 13.9841402,30.7441673 L1.84160289,33.7798016 C1.04053286,33.9800691 0.391137295,34.8115857 0.391137295,35.6471929 L0.391137295,76.3528071 C0.391137295,77.1838713 1.03606793,78.0188146 1.84160289,78.2201984 L13.9841402,81.2558327 C14.5246715,81.3909655 15.3989613,81.3914866 15.941577,81.2558327 L28.0841143,78.2201984 C28.8851844,78.0199309 29.5345799,77.1884143 29.5345799,76.3528071 L29.5345799,35.6471929 C29.5345799,34.8161287 28.8896493,33.9811854 28.0841143,33.7798016 L15.941577,30.7441673 Z" id="path-10"></path>
    </defs>
    <g stroke="none" stroke-width="1" fill="none" fill-rule="evenodd">
        <g>
            <g transform="translate(47.404297, 17.500000)">
                <g transform="translate(8.896484, 19.000000)">
                    <g>
                        <use fill="#D8D8D8" fill-rule="evenodd" xlink:href="#path-1"></use>
                        <path stroke="#979797" stroke-width="1" d="M24.9824539,111.054687 L24.9824539,81.0897797 L13.2321977,81.0897797 L13.2321977,111.054687 L24.9824539,111.054687 Z"></path>
                    </g>
                    <g>
                        <use fill="#D8D8D8" fill-rule="evenodd" xlink:href="#path-2"></use>
                        <rect stroke="#979797" stroke-width="1" x="14.1429303" y="101.125897" width="9.92879098" height="1"></rect>
                    </g>
                    <g>
                        <use fill="#D8D8D8" fill-rule="evenodd" xlink:href="#path-3"></use>
                        <path stroke="#979797" stroke-width="1" d="M54.1258965,111.054687 L54.1258965,81.0897797 L42.3756404,81.0897797 L42.3756404,111.054687 L54.1258965,111.054687 Z"></path>
                    </g>
                    <g>
                        <use fill="#D8D8D8" fill-rule="evenodd" xlink:href="#path-4"></use>
                        <rect stroke="#979797" stroke-width="1" x="43.286373" y="101.125897" width="9.92879098" height="1"></rect>
                    </g>
                    <g>
                        <use fill="#D8D8D8" fill-rule="evenodd" xlink:href="#path-5"></use>
                        <path stroke="#979797" stroke-width="1" d="M83.2693391,111.054687 L83.2693391,81.0897797 L71.519083,81.0897797 L71.519083,111.054687 L83.2693391,111.054687 Z"></path>
                    </g>
                    <g>
                        <use fill="#D8D8D8" fill-rule="evenodd" xlink:href="#path-6"></use>
                        <rect stroke="#979797" stroke-width="1" x="72.4298156" y="101.125897" width="9.92879098" height="1"></rect>
                    </g>
                    <g>
                        <use fill="#D8D8D8" fill-rule="evenodd" xlink:href="#path-7"></use>
                        <path stroke="#979797" stroke-width="1" d="M63.2332223,30.9102203 L63.2332223,0.9453125 L33.2683145,0.9453125 L33.2683145,30.9102203 L63.2332223,30.9102203 Z"></path>
                    </g>
                    <g>
                        <use fill="#D8D8D8" fill-rule="evenodd" xlink:href="#path-8"></use>
                        <rect stroke="#979797" stroke-width="1" x="34.1790471" y="10.9633709" width="28.1434426" height="1"></rect>
                    </g>
                    <g>
                        <use fill="#585858" fill-rule="evenodd" xlink:href="#path-9"></use>
                        <rect stroke="#505050" stroke-width="4" x="2.89267418" y="32.4994877" width="90.7161885" height="47.0010246" rx="2"></rect>
                    </g>
                </g>
                <g transform="translate(148.724609, 19.000000)">
                    <path d="M16.8939741,24.9330849 L36.3166539,13.4576095 C36.8139603,13.162245 37.1186932,12.6273118 37.1186932,12.0496964 L37.1186932,2.22453106 C37.1186932,1.31972003 36.3838393,0.586225772 35.4773511,0.586225772 C34.5708629,0.586225772 33.8360091,1.31972003 33.8360091,2.22453106 L33.8360091,11.1032178 L14.4133293,22.6538221 C13.9160229,22.9491866 13.6112899,23.4841199 13.6112899,24.0617353 L13.6112899,33.8759679 C13.6112899,34.7807789 14.3461438,35.5142732 15.252632,35.5142732 C16.1591202,35.5142732 16.8939741,34.7807789 16.8939741,33.8759679 L16.8939741,24.9330849 Z" stroke="#979797" fill="#D8D8D8" fill-rule="nonzero" stroke-linecap="round" stroke-linejoin="round"></path>
                    <path d="M13.6112899,87.3978293 C13.6112899,87.9754447 13.9160229,88.510378 14.4133293,88.8057425 L33.8360091,100.372413 L33.8360091,109.785802 C33.8360091,110.690613 34.5708629,111.424107 35.4773511,111.424107 C36.3838393,111.424107 37.1186932,110.690613 37.1186932,109.785802 L37.1186932,99.4098682 C37.1186932,98.8322528 36.8139603,98.2973196 36.3166539,98.0019551 L16.8939741,86.4742827 L16.8939741,77.5835967 C16.8939741,76.6787857 16.1591202,75.9452914 15.252632,75.9452914 C14.3461438,75.9452914 13.6112899,76.6787857 13.6112899,77.5835967 L13.6112899,87.3978293 Z" stroke="#979797" fill="#D8D8D8" fill-rule="nonzero"></path>
                    <g>
                        <use fill="#585858" fill-rule="evenodd" xlink:href="#path-10"></use>
                        <path stroke="#505050" stroke-width="1" d="M15.8203092,31.2292385 C15.3586463,31.1138228 14.5676531,31.1136773 14.105408,31.2292385 L1.9628707,34.2648729 C1.38320973,34.4097881 0.891137295,35.0422386 0.891137295,35.6471929 L0.891137295,76.3528071 C0.891137295,76.9567276 1.38213379,77.5899429 1.9628707,77.7351271 L14.105408,80.7707615 C14.5670709,80.8861772 15.3580641,80.8863227 15.8203092,80.7707615 L27.9628465,77.7351271 C28.5425075,77.5902119 29.0345799,76.9577614 29.0345799,76.3528071 L29.0345799,35.6471929 C29.0345799,35.0432724 28.5435834,34.4100571 27.9628465,34.2648729 L15.8203092,31.2292385 Z"></path>
                    </g>
                    <polygon fill="#505050" points="14.052126 31.4102203 15.8735912 31.4102203 15.8735912 80.5897797 14.052126 80.5897797"></polygon>
                </g>
            </g>
            <g transform="translate(31.289062, 5.000000)" fill="#8D9EB0">
                <path d="M141.681222,82.6929081 L136.374577,82.6929081 L136.374577,86.4244359 L141.268692,86.4244359 L141.268692,88.2433213 L136.374577,88.2433213 L136.374577,92.1623632 L141.681222,92.1623632 L141.681222,94 L134.011901,94 L134.011901,80.8740226 L141.681222,80.8740226 L141.681222,82.6929081 Z M149.050521,92.2186174 L151.356943,92.2186174 L151.356943,94 L144.081401,94 L144.081401,92.2186174 L146.762851,92.2186174 L146.762851,83.4242125 L144.493932,84.5492963 L143.631368,83.0116818 L147.306641,80.8740226 L149.050521,80.8740226 L149.050521,92.2186174 Z"></path>
                <polygon points="12.5972021 82.6929081 7.29055691 82.6929081 7.29055691 86.4244359 12.1846713 86.4244359 12.1846713 88.2433213 7.29055691 88.2433213 7.29055691 92.1623632 12.5972021 92.1623632 12.5972021 94 4.92788098 94 4.92788098 80.8740226 12.5972021 80.8740226"></polygon>
                <g transform="translate(27.404297, 5.000000)">
                    <g transform="translate(3.832124, 3.275391) scale(-1, 1) translate(-3.832124, -3.275391) translate(0.832124, 0.775391)">
                        <path d="M2.88775351,-0.425866237 C2.98755721,-0.684554916 3.15206769,-0.677565105 3.24917468,-0.425866237 L5.40050076,5.1503168 C5.50030446,5.40900548 5.36527212,5.61871408 5.08097484,5.61871408 L1.05595335,5.61871408 C0.779680363,5.61871408 0.639320451,5.40201566 0.736427439,5.1503168 L2.88775351,-0.425866237 Z" transform="translate(3.069450, 2.500722) rotate(90.000000) translate(-3.069450, -2.500722) "></path>
                    </g>
                    <rect x="3.68472202" y="2.66483938" width="35.747529" height="1" rx="0.5"></rect>
                </g>
                <g transform="translate(100.441040, 8.000000) scale(-1, 1) translate(-100.441040, -8.000000) translate(80.441040, 5.000000)">
                    <g transform="translate(3.832124, 3.275391) scale(-1, 1) translate(-3.832124, -3.275391) translate(0.832124, 0.775391)">
                        <path d="M2.88775351,-0.425866237 C2.98755721,-0.684554916 3.15206769,-0.677565105 3.24917468,-0.425866237 L5.40050076,5.1503168 C5.50030446,5.40900548 5.36527212,5.61871408 5.08097484,5.61871408 L1.05595335,5.61871408 C0.779680363,5.61871408 0.639320451,5.40201566 0.736427439,5.1503168 L2.88775351,-0.425866237 Z" transform="translate(3.069450, 2.500722) rotate(90.000000) translate(-3.069450, -2.500722) "></path>
                    </g>
                    <rect x="3.68472202" y="2.66483938" width="36" height="1" rx="0.5"></rect>
                </g>
                <path d="M73.9686548,0.874022613 C77.5314201,0.874022613 79.3128028,2.97417899 79.3128028,6.12441357 L79.3128028,8.4495867 C79.3128028,11.8623408 77.287652,14 73.4998699,14 L69.6745851,14 L69.6745851,0.874022613 L73.9686548,0.874022613 Z M76.9501268,8.4870895 L76.9501268,6.06815938 C76.9501268,3.9305002 75.9375514,2.69290805 73.8561465,2.69290805 L72.037261,2.69290805 L72.037261,12.1811146 L73.5186213,12.1811146 C75.8062917,12.1811146 76.9501268,10.9810252 76.9501268,8.4870895 Z"></path>
                <path d="M70.2311744,19.3921976 C72.5188447,19.3921976 74.0189564,21.2298345 74.0189564,24.1175495 L74.0189564,25.1301249 C74.0189564,27.8865802 72.2375738,29.8742282 69.9499034,29.8742282 C68.8810738,29.8742282 68.0185096,29.4804488 67.324708,28.7678958 L67.137194,29.63046 L65.3183086,29.63046 L65.3183086,15.7544268 L67.6434817,15.7544268 L67.6434817,20.4235244 C68.2810292,19.7672256 69.1435934,19.3921976 70.2311744,19.3921976 Z M71.6937833,25.2051305 L71.6937833,24.0425439 C71.6937833,22.0923987 71.0374844,21.1548289 69.7623895,21.1548289 C68.8623225,21.1548289 68.1497694,21.586111 67.6434817,22.2236585 L67.6434817,27.2865355 C68.1497694,27.830326 68.7873169,28.1303483 69.5561241,28.1303483 C70.8499705,28.1303483 71.6937833,27.1177729 71.6937833,25.2051305 Z M81.0882328,27.8490774 L83.3946546,27.8490774 L83.3946546,29.63046 L76.1191128,29.63046 L76.1191128,27.8490774 L78.8005625,27.8490774 L78.8005625,19.0546725 L76.5316435,20.1797563 L75.6690793,18.6421418 L79.344353,16.5044826 L81.0882328,16.5044826 L81.0882328,27.8490774 Z"></path>
                <rect x="26.2490086" y="3.5390625" width="1" height="55.3554688" rx="0.5"></rect>
                <rect x="57.4462742" y="17.9779053" width="1" height="13" rx="0.5"></rect>
                <rect x="119.94104" y="3.5390625" width="1" height="55.3554688" rx="0.5"></rect>
                <rect x="88.1988525" y="17.9779053" width="1" height="13" rx="0.5"></rect>
                <path d="M127.160252,150.779166 C129.447922,150.779166 130.948034,152.616803 130.948034,155.504518 L130.948034,156.517093 C130.948034,159.273548 129.166651,161.261196 126.878981,161.261196 C125.810151,161.261196 124.947587,160.867417 124.253785,160.154864 L124.066271,161.017428 L122.247386,161.017428 L122.247386,147.141395 L124.572559,147.141395 L124.572559,151.810493 C125.210106,151.154194 126.072671,150.779166 127.160252,150.779166 Z M128.62286,156.592099 L128.62286,155.429512 C128.62286,153.479367 127.966562,152.541797 126.691467,152.541797 C125.7914,152.541797 125.078847,152.973079 124.572559,153.610627 L124.572559,158.673504 C125.078847,159.217294 125.716394,159.517316 126.485201,159.517316 C127.779048,159.517316 128.62286,158.504741 128.62286,156.592099 Z"></path>
                <path d="M32.8953724,155.511477 C32.8953724,155.924007 32.8578696,156.336538 32.8203668,156.63656 L26.3886379,156.63656 C26.4261407,158.549203 27.3074563,159.393016 29.0325848,159.393016 C30.1201658,159.393016 30.9264758,158.999236 31.695283,158.567954 L32.5203445,159.955558 C31.6765316,160.593105 30.3264311,161.136896 28.8825736,161.136896 C25.8448474,161.136896 24.1197189,159.130496 24.1197189,156.430295 L24.1197189,155.398968 C24.1197189,152.698767 25.8073446,150.654865 28.5825513,150.654865 C31.3015037,150.654865 32.8953724,152.342491 32.8953724,155.511477 Z M30.8139674,155.117697 L30.8139674,155.02394 C30.8139674,153.298812 30.0451602,152.361242 28.6013027,152.361242 C27.1761965,152.361242 26.4261407,153.298812 26.3886379,155.117697 L30.8139674,155.117697 Z"></path>
                <rect x="96.1900487" y="143.273288" width="1" height="15.6104736" rx="0.5"></rect>
                <rect x="43.6786961" y="143.273288" width="1" height="15.6104736" rx="0.5"></rect>
                <rect x="108" y="143.397588" width="1" height="15.6104736" rx="0.5"></rect>
                <rect x="74.2056885" y="143.273288" width="1" height="15.6104736" rx="0.5"></rect>
                <g transform="translate(139.404297, 63.494141)">
                    <g transform="translate(2.631110, 3.427124) rotate(-90.000000) translate(-2.631110, -3.427124) translate(-0.368890, 0.927124)">
                        <path d="M2.88775351,-0.425866237 C2.98755721,-0.684554916 3.15206769,-0.677565105 3.24917468,-0.425866237 L5.40050076,5.1503168 C5.50030446,5.40900548 5.36527212,5.61871408 5.08097484,5.61871408 L1.05595335,5.61871408 C0.779680363,5.61871408 0.639320451,5.40201566 0.736427439,5.1503168 L2.88775351,-0.425866237 Z" transform="translate(3.069450, 2.500722) rotate(90.000000) translate(-3.069450, -2.500722) "></path>
                    </g>
                    <rect x="2.13111028" y="3.42712402" width="1" height="11.5415039" rx="0.5"></rect>
                </g>
                <g transform="translate(142.404297, 103.000000) scale(1, -1) translate(-142.404297, -103.000000) translate(139.404297, 94.000000)">
                    <g transform="translate(2.631110, 3.427124) rotate(-90.000000) translate(-2.631110, -3.427124) translate(-0.368890, 0.927124)">
                        <path d="M2.88775351,-0.425866237 C2.98755721,-0.684554916 3.15206769,-0.677565105 3.24917468,-0.425866237 L5.40050076,5.1503168 C5.50030446,5.40900548 5.36527212,5.61871408 5.08097484,5.61871408 L1.05595335,5.61871408 C0.779680363,5.61871408 0.639320451,5.40201566 0.736427439,5.1503168 L2.88775351,-0.425866237 Z" transform="translate(3.069450, 2.500722) rotate(90.000000) translate(-3.069450, -2.500722) "></path>
                    </g>
                    <rect x="2.13111028" y="3.42712402" width="1" height="12" rx="0.5"></rect>
                </g>
                <rect x="0.650390625" y="31.717041" width="55.5580853" height="1" rx="0.5"></rect>
                <rect x="121.557617" y="61.9116211" width="27.8515625" height="1" rx="0.5"></rect>
                <rect x="121.557617" y="112.12915" width="27.8515625" height="1" rx="0.5"></rect>
                <rect x="0.650390625" y="142" width="42.8658377" height="1" rx="0.5"></rect>
                <g transform="translate(10.000000, 119.017428) scale(1, -1) translate(-10.000000, -119.017428) translate(7.000000, 96.017428)">
                    <g transform="translate(2.525734, 4.427124) rotate(-90.000000) translate(-2.525734, -4.427124) translate(-1.474266, 1.927124)">
                        <path d="M3.88775351,-0.425866237 C3.98755721,-0.684554916 4.15206769,-0.677565105 4.24917468,-0.425866237 L6.40050076,5.1503168 C6.50030446,5.40900548 6.36527212,5.61871408 6.08097484,5.61871408 L2.05595335,5.61871408 C1.77968036,5.61871408 1.63932045,5.40201566 1.73642744,5.1503168 L3.88775351,-0.425866237 Z" transform="translate(4.069450, 2.500722) rotate(90.000000) translate(-4.069450, -2.500722) "></path>
                    </g>
                    <rect x="2.0257342" y="4.42712402" width="1" height="40.6999233" rx="0.5"></rect>
                </g>
                <g transform="translate(7.000000, 32.017428)">
                    <g transform="translate(2.525734, 4.427124) rotate(-90.000000) translate(-2.525734, -4.427124) translate(-1.474266, 1.927124)">
                        <path d="M3.88775351,-0.425866237 C3.98755721,-0.684554916 4.15206769,-0.677565105 4.24917468,-0.425866237 L6.40050076,5.1503168 C6.50030446,5.40900548 6.36527212,5.61871408 6.08097484,5.61871408 L2.05595335,5.61871408 C1.77968036,5.61871408 1.63932045,5.40201566 1.73642744,5.1503168 L3.88775351,-0.425866237 Z" transform="translate(4.069450, 2.500722) rotate(90.000000) translate(-4.069450, -2.500722) "></path>
                    </g>
                    <rect x="2.0257342" y="4.42712402" width="1" height="40.6999233" rx="0.5"></rect>
                </g>
                <g transform="translate(109.661987, 152.141729)">
                    <g transform="translate(3.933594, 2.500000) scale(-1, 1) translate(-3.933594, -2.500000) translate(0.933594, 0.000000)">
                        <path d="M2.88775351,-0.425866237 C2.98755721,-0.684554916 3.15206769,-0.677565105 3.24917468,-0.425866237 L5.40050076,5.1503168 C5.50030446,5.40900548 5.36527212,5.61871408 5.08097484,5.61871408 L1.05595335,5.61871408 C0.779680363,5.61871408 0.639320451,5.40201566 0.736427439,5.1503168 L2.88775351,-0.425866237 Z" transform="translate(3.069450, 2.500722) rotate(90.000000) translate(-3.069450, -2.500722) "></path>
                    </g>
                    <rect x="3.93359375" y="2" width="4" height="1" rx="0.5"></rect>
                </g>
                <g transform="translate(74.921387, 152.017428)">
                    <g transform="translate(3.933594, 2.500000) scale(-1, 1) translate(-3.933594, -2.500000) translate(0.933594, 0.000000)">
                        <path d="M2.88775351,-0.425866237 C2.98755721,-0.684554916 3.15206769,-0.677565105 3.24917468,-0.425866237 L5.40050076,5.1503168 C5.50030446,5.40900548 5.36527212,5.61871408 5.08097484,5.61871408 L1.05595335,5.61871408 C0.779680363,5.61871408 0.639320451,5.40201566 0.736427439,5.1503168 L2.88775351,-0.425866237 Z" transform="translate(3.069450, 2.500722) rotate(90.000000) translate(-3.069450, -2.500722) "></path>
                    </g>
                    <rect x="3.93359375" y="2" width="4" height="1" rx="0.5"></rect>
                </g>
                <g transform="translate(87.198853, 152.017428)">
                    <g transform="translate(4.933594, 2.500000) scale(-1, 1) rotate(180.000000) translate(-4.933594, -2.500000) translate(1.933594, 0.000000)">
                        <path d="M2.88775351,-0.425866237 C2.98755721,-0.684554916 3.15206769,-0.677565105 3.24917468,-0.425866237 L5.40050076,5.1503168 C5.50030446,5.40900548 5.36527212,5.61871408 5.08097484,5.61871408 L1.05595335,5.61871408 C0.779680363,5.61871408 0.639320451,5.40201566 0.736427439,5.1503168 L2.88775351,-0.425866237 Z" transform="translate(3.069450, 2.500722) rotate(90.000000) translate(-3.069450, -2.500722) "></path>
                    </g>
                    <path d="M4.93359375,2.5 C4.93359375,2.77614237 4.71853638,3 4.44311523,3 L1.42407227,3 C1.15318846,3 0.93359375,2.76806641 0.93359375,2.5 L0.93359375,2.5 C0.93359375,2.22385763 1.14865112,2 1.42407227,2 L4.44311523,2 C4.71399904,2 4.93359375,2.23193359 4.93359375,2.5 L4.93359375,2.5"></path>
                </g>
                <g transform="translate(88.921387, 18.017428)">
                    <g transform="translate(3.933594, 2.500000) scale(-1, 1) translate(-3.933594, -2.500000) translate(0.933594, 0.000000)">
                        <path d="M2.88775351,-0.425866237 C2.98755721,-0.684554916 3.15206769,-0.677565105 3.24917468,-0.425866237 L5.40050076,5.1503168 C5.50030446,5.40900548 5.36527212,5.61871408 5.08097484,5.61871408 L1.05595335,5.61871408 C0.779680363,5.61871408 0.639320451,5.40201566 0.736427439,5.1503168 L2.88775351,-0.425866237 Z" transform="translate(3.069450, 2.500722) rotate(90.000000) translate(-3.069450, -2.500722) "></path>
                    </g>
                    <rect x="3.93359375" y="2" width="4" height="1" rx="0.5"></rect>
                </g>
                <g transform="translate(50.000000, 18.017428)">
                    <g transform="translate(4.933594, 2.500000) scale(-1, 1) rotate(180.000000) translate(-4.933594, -2.500000) translate(1.933594, 0.000000)">
                        <path d="M2.88775351,-0.425866237 C2.98755721,-0.684554916 3.15206769,-0.677565105 3.24917468,-0.425866237 L5.40050076,5.1503168 C5.50030446,5.40900548 5.36527212,5.61871408 5.08097484,5.61871408 L1.05595335,5.61871408 C0.779680363,5.61871408 0.639320451,5.40201566 0.736427439,5.1503168 L2.88775351,-0.425866237 Z" transform="translate(3.069450, 2.500722) rotate(90.000000) translate(-3.069450, -2.500722) "></path>
                    </g>
                    <path d="M4.93359375,2.5 C4.93359375,2.77614237 4.71853638,3 4.44311523,3 L1.42407227,3 C1.15318846,3 0.93359375,2.76806641 0.93359375,2.5 L0.93359375,2.5 C0.93359375,2.22385763 1.14865112,2 1.42407227,2 L4.44311523,2 C4.71399904,2 4.93359375,2.23193359 4.93359375,2.5 L4.93359375,2.5"></path>
                </g>
                <g transform="translate(34.687500, 152.017428)">
                    <g transform="translate(4.933594, 2.500000) scale(-1, 1) rotate(180.000000) translate(-4.933594, -2.500000) translate(1.933594, 0.000000)">
                        <path d="M2.88775351,-0.425866237 C2.98755721,-0.684554916 3.15206769,-0.677565105 3.24917468,-0.425866237 L5.40050076,5.1503168 C5.50030446,5.40900548 5.36527212,5.61871408 5.08097484,5.61871408 L1.05595335,5.61871408 C0.779680363,5.61871408 0.639320451,5.40201566 0.736427439,5.1503168 L2.88775351,-0.425866237 Z" transform="translate(3.069450, 2.500722) rotate(90.000000) translate(-3.069450, -2.500722) "></path>
                    </g>
                    <path d="M4.10107422,2.5 C4.10107422,2.77614237 3.88601685,3 3.6105957,3 L0.591552734,3 C0.32066893,3 0.101074219,2.76806641 0.101074219,2.5 L0.101074219,2.5 C0.101074219,2.22385763 0.316131592,2 0.591552734,2 L3.6105957,2 C3.88147951,2 4.10107422,2.23193359 4.10107422,2.5 L4.10107422,2.5"></path>
                </g>
            </g>
            <g transform="translate(194.789062, 17.000000)" fill="#8D9EB0">
                <g transform="translate(43.185547, 5.800964)">
                    <g transform="translate(2.968994, 9.819735) rotate(90.000000) translate(-2.968994, -9.819735) translate(-0.031006, 7.319735)">
                        <path d="M2.88775351,-0.425866237 C2.98755721,-0.684554916 3.15206769,-0.677565105 3.24917468,-0.425866237 L5.40050076,5.1503168 C5.50030446,5.40900548 5.36527212,5.61871408 5.08097484,5.61871408 L1.05595335,5.61871408 C0.779680363,5.61871408 0.639320451,5.40201566 0.736427439,5.1503168 L2.88775351,-0.425866237 Z" transform="translate(3.069450, 2.500722) rotate(90.000000) translate(-3.069450, -2.500722) "></path>
                    </g>
                    <rect x="2.46899414" y="0.819735308" width="1" height="8.00952148" rx="0.5"></rect>
                    <rect x="2.46899414" y="0.819735308" width="6" height="1" rx="0.5"></rect>
                </g>
                <path d="M23.8373,16.6361084 L22.7497191,13.1858515 L18.2118812,13.1858515 L17.2180572,16.6361084 L14.8366298,16.6361084 L18.8494286,3.51013101 L22.0559174,3.51013101 L26.2749816,16.6361084 L23.8373,16.6361084 Z M20.4432973,5.16025388 L18.7369203,11.2919605 L22.1871772,11.2919605 L20.4432973,5.16025388 Z"></path>
                <path d="M38,9.79810477 C38,9.52344057 38.2319336,9.30078125 38.5,9.30078125 L38.5,9.30078125 C38.7761424,9.30078125 39,9.5194518 39,9.79810477 L39,16.3831308 C39,16.657795 38.7680664,16.8804543 38.5,16.8804543 L38.5,16.8804543 C38.2238576,16.8804543 38,16.6617838 38,16.3831308 L38,9.79810477 Z"></path>
                <rect x="2.43157959" y="9.30078125" width="1" height="44.916626" rx="0.5"></rect>
                <g transform="translate(3.625549, 8.474976)">
                    <g transform="translate(3.085449, 3.453524) scale(-1, 1) translate(-3.085449, -3.453524) translate(0.085449, 0.953524)">
                        <path d="M2.88775351,-0.425866237 C2.98755721,-0.684554916 3.15206769,-0.677565105 3.24917468,-0.425866237 L5.40050076,5.1503168 C5.50030446,5.40900548 5.36527212,5.61871408 5.08097484,5.61871408 L1.05595335,5.61871408 C0.779680363,5.61871408 0.639320451,5.40201566 0.736427439,5.1503168 L2.88775351,-0.425866237 Z" transform="translate(3.069450, 2.500722) rotate(90.000000) translate(-3.069450, -2.500722) "></path>
                    </g>
                    <rect x="2.93804755" y="2.84297312" width="8.23510918" height="1" rx="0.5"></rect>
                </g>
                <g transform="translate(31.948547, 11.474976) scale(-1, 1) translate(-31.948547, -11.474976) translate(26.448547, 8.474976)">
                    <g transform="translate(3.085449, 3.453524) scale(-1, 1) translate(-3.085449, -3.453524) translate(0.085449, 0.953524)">
                        <path d="M2.88775351,-0.425866237 C2.98755721,-0.684554916 3.15206769,-0.677565105 3.24917468,-0.425866237 L5.40050076,5.1503168 C5.50030446,5.40900548 5.36527212,5.61871408 5.08097484,5.61871408 L1.05595335,5.61871408 C0.779680363,5.61871408 0.639320451,5.40201566 0.736427439,5.1503168 L2.88775351,-0.425866237 Z" transform="translate(3.069450, 2.500722) rotate(90.000000) translate(-3.069450, -2.500722) "></path>
                    </g>
                    <rect x="2.93804755" y="2.84297312" width="8" height="1" rx="0.5"></rect>
                </g>
                <polygon points="55.606719 11.9113932 60.9321156 11.9113932 60.9321156 13.8240356 53.2440431 13.8240356 53.2440431 0.698058257 55.606719 0.698058257"></polygon>
                <rect x="40" y="19.4342983" width="8.89941406" height="1" rx="0.5"></rect>
                <g transform="translate(42.946289, 33.609558)">
                    <g transform="translate(3.170471, 3.091220) rotate(-90.000000) translate(-3.170471, -3.091220) translate(0.170471, 0.591220)">
                        <path d="M2.88775351,-0.425866237 C2.98755721,-0.684554916 3.15206769,-0.677565105 3.24917468,-0.425866237 L5.40050076,5.1503168 C5.50030446,5.40900548 5.36527212,5.61871408 5.08097484,5.61871408 L1.05595335,5.61871408 C0.779680363,5.61871408 0.639320451,5.40201566 0.736427439,5.1503168 L2.88775351,-0.425866237 Z" transform="translate(3.069450, 2.500722) rotate(90.000000) translate(-3.069450, -2.500722) "></path>
                    </g>
                    <rect x="2.67047119" y="3.09121968" width="1" height="4.93155171" rx="0.5"></rect>
                </g>
                <rect x="40" y="31.5041225" width="8.89941406" height="1" rx="0.5"></rect>
                <rect x="29.8276978" y="97.4060059" width="1" height="43.5939941" rx="0.5"></rect>
                <rect x="38" y="132.920776" width="1" height="8.07922363" rx="0.5"></rect>
                <path d="M9.70534203,145 L8.61776105,141.549743 L4.07992315,141.549743 L3.08609915,145 L0.704671823,145 L4.71747062,131.874023 L7.92395939,131.874023 L12.1430235,145 L9.70534203,145 Z M6.31133931,133.524145 L4.60496225,139.655852 L8.05521916,139.655852 L6.31133931,133.524145 Z M18.5184983,143.218617 L20.82492,143.218617 L20.82492,145 L13.5493783,145 L13.5493783,143.218617 L16.2308279,143.218617 L16.2308279,134.424213 L13.961909,135.549296 L13.0993448,134.011682 L16.7746184,131.874023 L18.5184983,131.874023 L18.5184983,143.218617 Z"></path>
                <g transform="translate(39.349243, 135.000000)">
                    <g transform="translate(3.404297, 2.500000) scale(-1, 1) translate(-3.404297, -2.500000) translate(0.404297, 0.000000)">
                        <path d="M2.88775351,-0.425866237 C2.98755721,-0.684554916 3.15206769,-0.677565105 3.24917468,-0.425866237 L5.40050076,5.1503168 C5.50030446,5.40900548 5.36527212,5.61871408 5.08097484,5.61871408 L1.05595335,5.61871408 C0.779680363,5.61871408 0.639320451,5.40201566 0.736427439,5.1503168 L2.88775351,-0.425866237 Z" transform="translate(3.069450, 2.500722) rotate(90.000000) translate(-3.069450, -2.500722) "></path>
                    </g>
                    <rect x="3.40429688" y="2" width="4" height="1" rx="0.5"></rect>
                </g>
                <g transform="translate(22.423401, 135.000000)">
                    <g transform="translate(4.404297, 2.500000) scale(-1, 1) rotate(180.000000) translate(-4.404297, -2.500000) translate(1.404297, 0.000000)">
                        <path d="M2.88775351,-0.425866237 C2.98755721,-0.684554916 3.15206769,-0.677565105 3.24917468,-0.425866237 L5.40050076,5.1503168 C5.50030446,5.40900548 5.36527212,5.61871408 5.08097484,5.61871408 L1.05595335,5.61871408 C0.779680363,5.61871408 0.639320451,5.40201566 0.736427439,5.1503168 L2.88775351,-0.425866237 Z" transform="translate(3.069450, 2.500722) rotate(90.000000) translate(-3.069450, -2.500722) "></path>
                    </g>
                    <path d="M4.40429688,2.5 C4.40429688,2.77614237 4.1892395,3 3.91381836,3 L0.894775391,3 C0.623891586,3 0.404296875,2.76806641 0.404296875,2.5 L0.404296875,2.5 C0.404296875,2.22385763 0.619354248,2 0.894775391,2 L3.91381836,2 C4.18470216,2 4.40429688,2.23193359 4.40429688,2.5 L4.40429688,2.5"></path>
                </g>
            </g>
        </g>
    </g>
</svg>
