<?xml version="1.0" encoding="UTF-8" standalone="no"?>
<svg width="290px" height="175px" viewBox="0 0 290 175" version="1.1" xmlns="http://www.w3.org/2000/svg" xmlns:xlink="http://www.w3.org/1999/xlink">
    <!-- Generator: Sketch 48.2 (47327) - http://www.bohemiancoding.com/sketch -->
    <title>SOTFL-Labeled</title>
    <desc>Created with Sketch.</desc>
    <defs>
        <rect id="path-1" x="92" y="39" width="106" height="72" rx="2"></rect>
        <polygon id="path-2" points="32 24 41 24 41 48 32 48"></polygon>
        <polygon id="path-3" points="32 102 41 102 41 126 32 126"></polygon>
        <path d="M2,45.3726107 C2,44.8206151 2.43245411,44.3054611 2.98319318,44.2192778 L31.6085225,39.7397979 C32.1515251,39.6548253 33.0437816,39.5859414 33.5892751,39.5859414 L41,39.5859414 L41,110.113364 L33.5892751,110.113364 C33.0383383,110.113364 32.1474692,110.048212 31.6085225,109.969172 L2.98319318,105.771058 C2.44019058,105.691423 2,105.186179 2,104.627389 L2,45.3726107 Z" id="path-4"></path>
        <polygon id="path-5" points="137 24 153 24 153 48 137 48"></polygon>
        <polygon id="path-6" points="107 24 123 24 123 48 107 48"></polygon>
        <mask id="mask-7" maskContentUnits="userSpaceOnUse" maskUnits="objectBoundingBox" x="0" y="0" width="16" height="24" fill="white">
            <use xlink:href="#path-6"></use>
        </mask>
        <polygon id="path-8" points="167 24 183 24 183 48 167 48"></polygon>
        <mask id="mask-9" maskContentUnits="userSpaceOnUse" maskUnits="objectBoundingBox" x="0" y="0" width="16" height="24" fill="white">
            <use xlink:href="#path-8"></use>
        </mask>
        <polygon id="path-10" points="137 102 153 102 153 126 137 126"></polygon>
        <mask id="mask-11" maskContentUnits="userSpaceOnUse" maskUnits="objectBoundingBox" x="0" y="0" width="16" height="24" fill="white">
            <use xlink:href="#path-10"></use>
        </mask>
        <polygon id="path-12" points="107 102 123 102 123 126 107 126"></polygon>
        <polygon id="path-13" points="167 102 183 102 183 126 167 126"></polygon>
    </defs>
    <g stroke="none" stroke-width="1" fill="none" fill-rule="evenodd">
        <g>
            <g transform="translate(29.404297, 17.500000)">
                <g>
                    <use fill="#585858" fill-rule="evenodd" xlink:href="#path-1"></use>
                    <rect stroke="#505050" stroke-width="1" x="92.5" y="39.5" width="105" height="71" rx="2"></rect>
                </g>
                <g>
                    <use fill="#D8D8D8" fill-rule="evenodd" xlink:href="#path-2"></use>
                    <path stroke="#979797" stroke-width="1" d="M32.5,24.5 L32.5,47.5 L40.5,47.5 L40.5,24.5 L32.5,24.5 Z"></path>
                </g>
                <g>
                    <use fill="#D8D8D8" fill-rule="evenodd" xlink:href="#path-3"></use>
                    <path stroke="#979797" stroke-width="1" d="M32.5,102.5 L32.5,125.5 L40.5,125.5 L40.5,102.5 L32.5,102.5 Z"></path>
                </g>
                <g>
                    <use fill="#585858" fill-rule="evenodd" xlink:href="#path-4"></use>
                    <path stroke="#505050" stroke-width="1" d="M40.5,109.613364 L40.5,40.0859414 L33.5892751,40.0859414 C33.0677459,40.0859414 32.2013689,40.1531104 31.6858251,40.2337861 L3.0604957,44.713266 C2.75664583,44.7608144 2.5,45.0632981 2.5,45.3726107 L2.5,104.627389 C2.5,104.935813 2.75601466,105.232392 3.05574573,105.27635 L31.6810751,109.474463 C32.1973928,109.550185 33.0640299,109.613364 33.5892751,109.613364 L40.5,109.613364 Z"></path>
                </g>
                <rect fill="#505050" fill-rule="evenodd" x="32" y="41" width="1" height="67"></rect>
                <g>
                    <use fill="#D8D8D8" fill-rule="evenodd" xlink:href="#path-5"></use>
                    <path stroke="#979797" stroke-width="1" d="M137.5,24.5 L137.5,47.5 L152.5,47.5 L152.5,24.5 L137.5,24.5 Z"></path>
                </g>
                <use stroke="#979797" mask="url(#mask-7)" stroke-width="2" stroke-dasharray="4,3" xlink:href="#path-6"></use>
                <use stroke="#979797" mask="url(#mask-9)" stroke-width="2" stroke-dasharray="4,3" xlink:href="#path-8"></use>
                <use stroke="#979797" mask="url(#mask-11)" stroke-width="2" stroke-dasharray="4,3" xlink:href="#path-10"></use>
                <g>
                    <use fill="#D8D8D8" fill-rule="evenodd" xlink:href="#path-12"></use>
                    <path stroke="#979797" stroke-width="1" d="M107.5,102.5 L107.5,125.5 L122.5,125.5 L122.5,102.5 L107.5,102.5 Z"></path>
                </g>
                <g>
                    <use fill="#D8D8D8" fill-rule="evenodd" xlink:href="#path-13"></use>
                    <path stroke="#979797" stroke-width="1" d="M167.5,102.5 L167.5,125.5 L182.5,125.5 L182.5,102.5 L167.5,102.5 Z"></path>
                </g>
            </g>
            <path d="M243.042515,87.6929081 L237.735869,87.6929081 L237.735869,91.4244359 L242.629984,91.4244359 L242.629984,93.2433213 L237.735869,93.2433213 L237.735869,97.1623632 L243.042515,97.1623632 L243.042515,99 L235.373193,99 L235.373193,85.8740226 L243.042515,85.8740226 L243.042515,87.6929081 Z M250.411813,97.2186174 L252.718235,97.2186174 L252.718235,99 L245.442693,99 L245.442693,97.2186174 L248.124143,97.2186174 L248.124143,88.4242125 L245.855224,89.5492963 L244.99266,88.0116818 L248.667933,85.8740226 L250.411813,85.8740226 L250.411813,97.2186174 Z" fill="#8D9EB0"></path>
            <polygon fill="#8D9EB0" points="270.597202 87.6929081 265.290557 87.6929081 265.290557 91.4244359 270.184671 91.4244359 270.184671 93.2433213 265.290557 93.2433213 265.290557 97.1623632 270.597202 97.1623632 270.597202 99 262.927881 99 262.927881 85.8740226 270.597202 85.8740226"></polygon>
            <path d="M52.8373,32.6361084 L51.7497191,29.1858515 L47.2118812,29.1858515 L46.2180572,32.6361084 L43.8366298,32.6361084 L47.8494286,19.510131 L51.0559174,19.510131 L55.2749816,32.6361084 L52.8373,32.6361084 Z M49.4432973,21.1602539 L47.7369203,27.2919605 L51.1871772,27.2919605 L49.4432973,21.1602539 Z" fill="#8D9EB0"></path>
            <path d="M69.4445801,20.9556417 C69.4445801,20.6840421 69.6765137,20.4638672 69.9445801,20.4638672 L69.9445801,20.4638672 C70.2207225,20.4638672 70.4445801,20.6869682 70.4445801,20.9556417 L70.4445801,42.5135795 C70.4445801,42.785179 70.2126465,43.005354 69.9445801,43.005354 L69.9445801,43.005354 C69.6684377,43.005354 69.4445801,42.782253 69.4445801,42.5135795 L69.4445801,20.9556417 Z" fill="#8D9EB0"></path>
            <rect fill="#8D9EB0" x="31.4315796" y="20.4638672" width="1" height="39.75354" rx="0.5"></rect>
            <g transform="translate(32.625549, 24.474976)" fill="#8D9EB0">
                <g transform="translate(3.085449, 3.453524) scale(-1, 1) translate(-3.085449, -3.453524) translate(0.085449, 0.953524)">
                    <path d="M2.88775351,-0.425866237 C2.98755721,-0.684554916 3.15206769,-0.677565105 3.24917468,-0.425866237 L5.40050076,5.1503168 C5.50030446,5.40900548 5.36527212,5.61871408 5.08097484,5.61871408 L1.05595335,5.61871408 C0.779680363,5.61871408 0.639320451,5.40201566 0.736427439,5.1503168 L2.88775351,-0.425866237 Z" transform="translate(3.069450, 2.500722) rotate(90.000000) translate(-3.069450, -2.500722) "></path>
                </g>
                <rect x="2.93804755" y="2.84297312" width="8.23510918" height="1" rx="0.5"></rect>
            </g>
            <g transform="translate(60.948547, 27.474976) scale(-1, 1) translate(-60.948547, -27.474976) translate(55.448547, 24.474976)" fill="#8D9EB0">
                <g transform="translate(3.085449, 3.453524) scale(-1, 1) translate(-3.085449, -3.453524) translate(0.085449, 0.953524)">
                    <path d="M2.88775351,-0.425866237 C2.98755721,-0.684554916 3.15206769,-0.677565105 3.24917468,-0.425866237 L5.40050076,5.1503168 C5.50030446,5.40900548 5.36527212,5.61871408 5.08097484,5.61871408 L1.05595335,5.61871408 C0.779680363,5.61871408 0.639320451,5.40201566 0.736427439,5.1503168 L2.88775351,-0.425866237 Z" transform="translate(3.069450, 2.500722) rotate(90.000000) translate(-3.069450, -2.500722) "></path>
                </g>
                <rect x="2.93804755" y="2.84297312" width="8" height="1" rx="0.5"></rect>
            </g>
            <polygon fill="#8D9EB0" points="102.362676 135.213335 107.688072 135.213335 107.688072 137.125977 100 137.125977 100 124 102.362676 124"></polygon>
            <g transform="translate(122.249009, 20.717041)" fill="#8D9EB0">
                <g transform="translate(3.832124, 3.275391) scale(-1, 1) translate(-3.832124, -3.275391) translate(0.832124, 0.775391)">
                    <path d="M2.88775351,-0.425866237 C2.98755721,-0.684554916 3.15206769,-0.677565105 3.24917468,-0.425866237 L5.40050076,5.1503168 C5.50030446,5.40900548 5.36527212,5.61871408 5.08097484,5.61871408 L1.05595335,5.61871408 C0.779680363,5.61871408 0.639320451,5.40201566 0.736427439,5.1503168 L2.88775351,-0.425866237 Z" transform="translate(3.069450, 2.500722) rotate(90.000000) translate(-3.069450, -2.500722) "></path>
                </g>
                <rect x="3.68472202" y="2.66483938" width="42.836533" height="1" rx="0.5"></rect>
            </g>
            <g transform="translate(202.921387, 23.717041) scale(-1, 1) translate(-202.921387, -23.717041) translate(179.921387, 20.717041)" fill="#8D9EB0">
                <g transform="translate(3.832124, 3.275391) scale(-1, 1) translate(-3.832124, -3.275391) translate(0.832124, 0.775391)">
                    <path d="M2.88775351,-0.425866237 C2.98755721,-0.684554916 3.15206769,-0.677565105 3.24917468,-0.425866237 L5.40050076,5.1503168 C5.50030446,5.40900548 5.36527212,5.61871408 5.08097484,5.61871408 L1.05595335,5.61871408 C0.779680363,5.61871408 0.639320451,5.40201566 0.736427439,5.1503168 L2.88775351,-0.425866237 Z" transform="translate(3.069450, 2.500722) rotate(90.000000) translate(-3.069450, -2.500722) "></path>
                </g>
                <rect x="3.68472202" y="2.66483938" width="42.0558175" height="1" rx="0.5"></rect>
            </g>
            <path d="M174.461819,16.5910636 C178.024584,16.5910636 179.805967,18.69122 179.805967,21.8414546 L179.805967,24.1666277 C179.805967,27.5793818 177.780816,29.717041 173.993034,29.717041 L170.167749,29.717041 L170.167749,16.5910636 L174.461819,16.5910636 Z M177.443291,24.2041305 L177.443291,21.7852004 C177.443291,19.6475412 176.430716,18.4099491 174.349311,18.4099491 L172.530425,18.4099491 L172.530425,27.8981556 L174.011785,27.8981556 C176.299456,27.8981556 177.443291,26.6980662 177.443291,24.2041305 Z" fill="#8D9EB0"></path>
            <rect fill="#8D9EB0" x="121.249009" y="16.7855225" width="1" height="39.75354" rx="0.5"></rect>
            <rect fill="#8D9EB0" x="225.94104" y="16.7855225" width="1" height="39.75354" rx="0.5"></rect>
            <path d="M229.160252,152.956351 C231.447922,152.956351 232.948034,154.793988 232.948034,157.681703 L232.948034,158.694278 C232.948034,161.450733 231.166651,163.438381 228.878981,163.438381 C227.810151,163.438381 226.947587,163.044602 226.253785,162.332049 L226.066271,163.194613 L224.247386,163.194613 L224.247386,149.31858 L226.572559,149.31858 L226.572559,153.987678 C227.210106,153.331379 228.072671,152.956351 229.160252,152.956351 Z M230.62286,158.769284 L230.62286,157.606697 C230.62286,155.656552 229.966562,154.718982 228.691467,154.718982 C227.7914,154.718982 227.078847,155.150264 226.572559,155.787812 L226.572559,160.850689 C227.078847,161.394479 227.716394,161.694502 228.485201,161.694502 C229.779048,161.694502 230.62286,160.681926 230.62286,158.769284 Z" fill="#8D9EB0"></path>
            <path d="M138.17995,155.118349 C138.17995,155.53088 138.142448,155.943411 138.104945,156.243433 L131.673216,156.243433 C131.710719,158.156075 132.592034,158.999888 134.317163,158.999888 C135.404744,158.999888 136.211054,158.606109 136.979861,158.174827 L137.804922,159.56243 C136.96111,160.199978 135.611009,160.743768 134.167152,160.743768 C131.129425,160.743768 129.404297,158.737369 129.404297,156.037168 L129.404297,155.005841 C129.404297,152.30564 131.091923,150.261738 133.867129,150.261738 C136.586082,150.261738 138.17995,151.949363 138.17995,155.118349 Z M136.098545,154.72457 L136.098545,154.630813 C136.098545,152.905685 135.329738,151.968115 133.885881,151.968115 C132.460774,151.968115 131.710719,152.905685 131.673216,154.72457 L136.098545,154.72457 Z" fill="#8D9EB0"></path>
            <rect fill="#8D9EB0" x="196.190049" y="145.450473" width="1" height="15.6104736" rx="0.5"></rect>
            <rect fill="#8D9EB0" x="142.678696" y="145.450473" width="1" height="15.6104736" rx="0.5"></rect>
            <rect fill="#8D9EB0" x="212" y="145.574773" width="1" height="15.6104736" rx="0.5"></rect>
            <rect fill="#8D9EB0" x="173.205688" y="145.450473" width="1" height="15.6104736" rx="0.5"></rect>
            <rect fill="#8D9EB0" x="111" y="119" width="8.89941406" height="1" rx="0.5"></rect>
            <g transform="translate(110.000000, 120.000000)" fill="#8D9EB0">
                <g transform="translate(3.170471, 3.091220) rotate(-90.000000) translate(-3.170471, -3.091220) translate(0.170471, 0.591220)">
                    <path d="M2.88775351,-0.425866237 C2.98755721,-0.684554916 3.15206769,-0.677565105 3.24917468,-0.425866237 L5.40050076,5.1503168 C5.50030446,5.40900548 5.36527212,5.61871408 5.08097484,5.61871408 L1.05595335,5.61871408 C0.779680363,5.61871408 0.639320451,5.40201566 0.736427439,5.1503168 L2.88775351,-0.425866237 Z" transform="translate(3.069450, 2.500722) rotate(90.000000) translate(-3.069450, -2.500722) "></path>
                </g>
                <rect x="2.67047119" y="3.09121968" width="1" height="4.93155171" rx="0.5"></rect>
            </g>
            <g transform="translate(113.000000, 133.000000) scale(1, -1) translate(-113.000000, -133.000000) translate(110.000000, 123.000000)" fill="#8D9EB0">
                <g transform="translate(3.170471, 3.091220) rotate(-90.000000) translate(-3.170471, -3.091220) translate(0.170471, 0.591220)">
                    <path d="M2.88775351,-0.425866237 C2.98755721,-0.684554916 3.15206769,-0.677565105 3.24917468,-0.425866237 L5.40050076,5.1503168 C5.50030446,5.40900548 5.36527212,5.61871408 5.08097484,5.61871408 L1.05595335,5.61871408 C0.779680363,5.61871408 0.639320451,5.40201566 0.736427439,5.1503168 L2.88775351,-0.425866237 Z" transform="translate(3.069450, 2.500722) rotate(90.000000) translate(-3.069450, -2.500722) "></path>
                </g>
                <rect x="2.67047119" y="3.09121968" width="1" height="16.9087803" rx="0.5"></rect>
            </g>
            <rect fill="#8D9EB0" x="110" y="143" width="25.8994141" height="1" rx="0.5"></rect>
            <g transform="translate(241.852539, 58.070146)" fill="#8D9EB0">
                <g transform="translate(2.631110, 3.427124) rotate(-90.000000) translate(-2.631110, -3.427124) translate(-0.368890, 0.927124)">
                    <path d="M2.88775351,-0.425866237 C2.98755721,-0.684554916 3.15206769,-0.677565105 3.24917468,-0.425866237 L5.40050076,5.1503168 C5.50030446,5.40900548 5.36527212,5.61871408 5.08097484,5.61871408 L1.05595335,5.61871408 C0.779680363,5.61871408 0.639320451,5.40201566 0.736427439,5.1503168 L2.88775351,-0.425866237 Z" transform="translate(3.069450, 2.500722) rotate(90.000000) translate(-3.069450, -2.500722) "></path>
                </g>
                <rect x="2.13111028" y="3.42712402" width="1" height="22.9062945" rx="0.5"></rect>
            </g>
            <g transform="translate(244.852539, 118.714355) scale(1, -1) translate(-244.852539, -118.714355) translate(241.852539, 110.714355)" fill="#8D9EB0">
                <g transform="translate(2.631110, 3.427124) rotate(-90.000000) translate(-2.631110, -3.427124) translate(-0.368890, 0.927124)">
                    <path d="M2.88775351,-0.425866237 C2.98755721,-0.684554916 3.15206769,-0.677565105 3.24917468,-0.425866237 L5.40050076,5.1503168 C5.50030446,5.40900548 5.36527212,5.61871408 5.08097484,5.61871408 L1.05595335,5.61871408 C0.779680363,5.61871408 0.639320451,5.40201566 0.736427439,5.1503168 L2.88775351,-0.425866237 Z" transform="translate(3.069450, 2.500722) rotate(90.000000) translate(-3.069450, -2.500722) "></path>
                </g>
                <rect x="2.13111028" y="3.42712402" width="1" height="23" rx="0.5"></rect>
            </g>
            <rect fill="#8D9EB0" x="213.983398" y="41.717041" width="57.2250775" height="1" rx="0.5"></rect>
            <rect fill="#8D9EB0" x="227.852539" y="56.9116211" width="20" height="1" rx="0.5"></rect>
            <rect fill="#8D9EB0" x="227.852539" y="128.12915" width="20" height="1" rx="0.5"></rect>
            <rect fill="#8D9EB0" x="213.983398" y="142.070312" width="57.2250775" height="1" rx="0.5"></rect>
            <g transform="translate(268.000000, 120.570312) scale(1, -1) translate(-268.000000, -120.570312) translate(265.000000, 99.070312)" fill="#8D9EB0">
                <g transform="translate(2.525734, 3.427124) rotate(-90.000000) translate(-2.525734, -3.427124) translate(-0.474266, 0.927124)">
                    <path d="M2.88775351,-0.425866237 C2.98755721,-0.684554916 3.15206769,-0.677565105 3.24917468,-0.425866237 L5.40050076,5.1503168 C5.50030446,5.40900548 5.36527212,5.61871408 5.08097484,5.61871408 L1.05595335,5.61871408 C0.779680363,5.61871408 0.639320451,5.40201566 0.736427439,5.1503168 L2.88775351,-0.425866237 Z" transform="translate(3.069450, 2.500722) rotate(90.000000) translate(-3.069450, -2.500722) "></path>
                </g>
                <rect x="2.0257342" y="3.42712402" width="1" height="39" rx="0.5"></rect>
            </g>
            <g transform="translate(265.000000, 42.434298)" fill="#8D9EB0">
                <g transform="translate(2.525734, 3.427124) rotate(-90.000000) translate(-2.525734, -3.427124) translate(-0.474266, 0.927124)">
                    <path d="M2.88775351,-0.425866237 C2.98755721,-0.684554916 3.15206769,-0.677565105 3.24917468,-0.425866237 L5.40050076,5.1503168 C5.50030446,5.40900548 5.36527212,5.61871408 5.08097484,5.61871408 L1.05595335,5.61871408 C0.779680363,5.61871408 0.639320451,5.40201566 0.736427439,5.1503168 L2.88775351,-0.425866237 Z" transform="translate(3.069450, 2.500722) rotate(90.000000) translate(-3.069450, -2.500722) "></path>
                </g>
                <rect x="2.0257342" y="3.42712402" width="1" height="38.7469761" rx="0.5"></rect>
            </g>
            <g transform="translate(212.661987, 154.318914)" fill="#8D9EB0">
                <g transform="translate(3.933594, 2.500000) scale(-1, 1) translate(-3.933594, -2.500000) translate(0.933594, 0.000000)">
                    <path d="M2.88775351,-0.425866237 C2.98755721,-0.684554916 3.15206769,-0.677565105 3.24917468,-0.425866237 L5.40050076,5.1503168 C5.50030446,5.40900548 5.36527212,5.61871408 5.08097484,5.61871408 L1.05595335,5.61871408 C0.779680363,5.61871408 0.639320451,5.40201566 0.736427439,5.1503168 L2.88775351,-0.425866237 Z" transform="translate(3.069450, 2.500722) rotate(90.000000) translate(-3.069450, -2.500722) "></path>
                </g>
                <rect x="5.93359375" y="2" width="4" height="1" rx="0.5"></rect>
            </g>
            <g transform="translate(141.921387, 154.194613)" fill="#8D9EB0">
                <g transform="translate(4.933594, 2.500000) scale(-1, 1) translate(-4.933594, -2.500000) translate(0.933594, 0.000000)">
                    <path d="M3.88775351,-0.523894628 C3.98755721,-0.782583307 4.15206769,-0.775593496 4.24917468,-0.523894628 L6.40050076,5.05228841 C6.50030446,5.31097708 6.36527212,5.52068569 6.08097484,5.52068569 L2.05595335,5.52068569 C1.77968036,5.52068569 1.63932045,5.30398727 1.73642744,5.05228841 L3.88775351,-0.523894628 Z" transform="translate(4.069450, 2.402693) rotate(90.000000) translate(-4.069450, -2.402693) "></path>
                </g>
                <rect x="7" y="1.90269338" width="20" height="1" rx="0.5"></rect>
            </g>
            <g transform="translate(185.198853, 154.194613)" fill="#8D9EB0">
                <g transform="translate(6.933594, 2.500000) scale(-1, 1) rotate(180.000000) translate(-6.933594, -2.500000) translate(3.933594, 0.000000)">
                    <path d="M2.88775351,-0.425866237 C2.98755721,-0.684554916 3.15206769,-0.677565105 3.24917468,-0.425866237 L5.40050076,5.1503168 C5.50030446,5.40900548 5.36527212,5.61871408 5.08097484,5.61871408 L1.05595335,5.61871408 C0.779680363,5.61871408 0.639320451,5.40201566 0.736427439,5.1503168 L2.88775351,-0.425866237 Z" transform="translate(3.069450, 2.500722) rotate(90.000000) translate(-3.069450, -2.500722) "></path>
                </g>
                <path d="M4.93359375,2.5 C4.93359375,2.77614237 4.71853638,3 4.44311523,3 L1.42407227,3 C1.15318846,3 0.93359375,2.76806641 0.93359375,2.5 L0.93359375,2.5 C0.93359375,2.22385763 1.14865112,2 1.42407227,2 L4.44311523,2 C4.71399904,2 4.93359375,2.23193359 4.93359375,2.5 L4.93359375,2.5"></path>
            </g>
            <g transform="translate(139.000000, 154.000000)" fill="#8D9EB0">
                <g transform="translate(31.000000, 2.500000) scale(-1, 1) rotate(180.000000) translate(-31.000000, -2.500000) translate(27.000000, 0.000000)">
                    <path d="M3.88775351,-0.523894628 C3.98755721,-0.782583307 4.15206769,-0.775593496 4.24917468,-0.523894628 L6.40050076,5.05228841 C6.50030446,5.31097708 6.36527212,5.52068569 6.08097484,5.52068569 L2.05595335,5.52068569 C1.77968036,5.52068569 1.63932045,5.30398727 1.73642744,5.05228841 L3.88775351,-0.523894628 Z" transform="translate(4.069450, 2.402693) rotate(90.000000) translate(-4.069450, -2.402693) "></path>
                </g>
                <path d="M3.61120605,3 L0.592163086,3 C0.321279282,3 0.10168457,2.76806641 0.10168457,2.5 C0.10168457,2.22385763 0.316741943,2 0.592163086,2 L3.61120605,2 C3.88208986,2 4.10168457,2.23193359 4.10168457,2.5 C4.10168457,2.77614237 3.8866272,3 3.61120605,3 Z"></path>
            </g>
        </g>
    </g>
</svg>
