<?xml version="1.0" encoding="UTF-8"?>
<svg width="200px" height="150px" viewBox="0 0 200 150" version="1.1" xmlns="http://www.w3.org/2000/svg" xmlns:xlink="http://www.w3.org/1999/xlink">
    <!-- Generator: Sketch 58 (84663) - https://sketch.com -->
    <title>Standoff-Female</title>
    <desc>Created with Sketch.</desc>
    <defs>
        <rect id="path-1" x="0" y="0" width="12.5" height="109"></rect>
        <rect id="path-3" x="0" y="2.5" width="10" height="109.75"></rect>
        <rect id="path-5" x="0" y="0" width="12.5" height="36.25"></rect>
        <rect id="path-7" x="0" y="0" width="10" height="114.375"></rect>
    </defs>
    <g id="Standoff-Female" stroke="none" stroke-width="1" fill="none" fill-rule="evenodd">
        <g id="Group" transform="translate(18.000000, 19.000000)">
            <g id="mounting-hole" transform="translate(0.000000, 24.000000)" stroke="#979797">
                <g id="hole" transform="translate(32.000000, 32.000000) scale(-1, 1) translate(-32.000000, -32.000000) ">
                    <path d="M31.5428571,0.657142857 C14.4851482,0.657142857 0.657142857,14.4851482 0.657142857,31.5428571 C0.657142857,48.6005661 14.4851482,62.4285714 31.5428571,62.4285714 C48.6005661,62.4285714 62.4285714,48.6005661 62.4285714,31.5428571 C62.4285714,14.4851482 48.6005661,0.657142857 31.5428571,0.657142857 Z M31.5428571,19.0571429 C38.4385267,19.0571429 44.0285714,24.6471876 44.0285714,31.5428571 C44.0285714,38.4385267 38.4385267,44.0285714 31.5428571,44.0285714 C24.6471876,44.0285714 19.0571429,38.4385267 19.0571429,31.5428571 C19.0571429,24.6471876 24.6471876,19.0571429 31.5428571,19.0571429 Z" id="Combined-Shape" stroke-width="1.31428571" fill="#D9D9D9"></path>
                    <circle id="Oval" stroke-width="0.985714286" cx="31.5428571" cy="31.5428571" r="12.3214286"></circle>
                    <circle id="Oval" stroke-width="0.657142857" fill="#FFFFFF" cx="31.5428571" cy="8.87142857" r="1.97142857"></circle>
                    <circle id="Oval-Copy" stroke-width="0.657142857" fill="#FFFFFF" cx="31.5428571" cy="55.2" r="1.97142857"></circle>
                    <circle id="Oval-Copy-2" stroke-width="0.657142857" fill="#FFFFFF" cx="52.2428571" cy="43.3714286" r="1.97142857"></circle>
                    <circle id="Oval-Copy-4" stroke-width="0.657142857" fill="#FFFFFF" cx="11.8285714" cy="43.3714286" r="1.97142857"></circle>
                    <circle id="Oval-Copy-3" stroke-width="0.657142857" fill="#FFFFFF" cx="52.2428571" cy="19.7142857" r="1.97142857"></circle>
                    <circle id="Oval-Copy-5" stroke-width="0.657142857" fill="#FFFFFF" cx="11.8285714" cy="19.7142857" r="1.97142857"></circle>
                </g>
            </g>
            <g id="female" transform="translate(118.000000, 0.000000)">
                <g id="standoff-copy">
                    <rect id="Rectangle" stroke="#999999" stroke-width="1.25" fill="#D9D9D9" x="0.625" y="0.625" width="23.75" height="110.254425"></rect>
                    <g id="End-tap" transform="translate(7.500000, 74.336283)"></g>
                    <g id="Threads" transform="translate(6.250000, 1.238938)">
                        <mask id="mask-2" fill="white">
                            <use xlink:href="#path-1"></use>
                        </mask>
                        <g id="Rectangle"></g>
                        <g id="Group-7-Copy" stroke-width="1" fill-rule="evenodd" mask="url(#mask-2)">
                            <g transform="translate(1.250000, -2.500000)">
                                <mask id="mask-4" fill="white">
                                    <use xlink:href="#path-3"></use>
                                </mask>
                                <g id="Rectangle" stroke="none" fill="none"></g>
                                <path d="M0,113.75 L2.5,111.875 L0,110 L0,113.75 Z M10,108.75 L7.5,110.625 L10,112.5 L10,108.75 Z M0,106.25 L0,110 L2.5,108.125 L0,106.25 Z M10,105 L7.5,106.875 L10,108.75 L10,105 Z M0,102.5 L0,106.25 L2.5,104.375 L0,102.5 Z M10,101.25 L7.5,103.125 L10,105 L10,101.25 Z M0,98.75 L0,102.5 L2.5,100.625 L0,98.75 Z M10,97.5 L7.5,99.375 L10,101.25 L10,97.5 Z M0,95 L0,98.75 L2.5,96.875 L0,95 Z M10,93.75 L7.5,95.625 L10,97.5 L10,93.75 Z M0,91.25 L0,95 L2.5,93.125 L0,91.25 Z M10,90 L7.5,91.875 L10,93.75 L10,90 Z M0,87.5 L0,91.25 L2.5,89.375 L0,87.5 Z M10,86.25 L7.5,88.125 L10,90 L10,86.25 Z M0,83.75 L0,87.5 L2.5,85.625 L0,83.75 Z M10,82.5 L7.5,84.375 L10,86.25 L10,82.5 Z M0,80 L0,83.75 L2.5,81.875 L0,80 Z M10,78.75 L7.5,80.625 L10,82.5 L10,78.75 Z M0,76.25 L0,80 L2.5,78.125 L0,76.25 Z M10,75 L7.5,76.875 L10,78.75 L10,75 Z M0,72.5 L0,76.25 L2.5,74.375 L0,72.5 Z M10,71.25 L7.5,73.125 L10,75 L10,71.25 Z M0,68.75 L0,72.5 L2.5,70.625 L0,68.75 Z M10,67.5 L7.5,69.375 L10,71.25 L10,67.5 Z M0,65 L0,68.75 L2.5,66.875 L0,65 Z M10,63.75 L7.5,65.625 L10,67.5 L10,63.75 Z M0,61.25 L0,65 L2.5,63.125 L0,61.25 Z M10,60 L7.5,61.875 L10,63.75 L10,60 Z M0,57.5 L0,61.25 L2.5,59.375 L0,57.5 Z M10,56.25 L7.5,58.125 L10,60 L10,56.25 Z M0,53.75 L0,57.5 L2.5,55.625 L0,53.75 Z M10,52.5 L7.5,54.375 L10,56.25 L10,52.5 Z M0,50 L0,53.75 L2.5,51.875 L0,50 Z M10,48.75 L7.5,50.625 L10,52.5 L10,48.75 Z M0,46.25 L0,50 L2.5,48.125 L0,46.25 Z M10,45 L7.5,46.875 L10,48.75 L10,45 Z M0,42.5 L0,46.25 L2.5,44.375 L0,42.5 Z M10,41.25 L7.5,43.125 L10,45 L10,41.25 Z M0,38.75 L0,42.5 L2.5,40.625 L0,38.75 Z M10,37.5 L7.5,39.375 L10,41.25 L10,37.5 Z M0,35 L0,38.75 L2.5,36.875 L0,35 Z M10,33.75 L7.5,35.625 L10,37.5 L10,33.75 Z M0,31.25 L0,35 L2.5,33.125 L0,31.25 Z M10,30 L7.5,31.875 L10,33.75 L10,30 Z M0,27.5 L0,31.25 L2.5,29.375 L0,27.5 Z M10,26.25 L7.5,28.125 L10,30 L10,26.25 Z M0,23.75 L0,27.5 L2.5,25.625 L0,23.75 Z M10,22.5 L7.5,24.375 L10,26.25 L10,22.5 Z M0,20 L0,23.75 L2.5,21.875 L0,20 Z M10,18.75 L7.5,20.625 L10,22.5 L10,18.75 Z M0,16.25 L0,20 L2.5,18.125 L0,16.25 Z M10,15 L7.5,16.875 L10,18.75 L10,15 Z M0,12.5 L0,16.25 L2.5,14.375 L0,12.5 Z M10,11.25 L7.5,13.125 L10,15 L10,11.25 Z M0,8.75 L0,12.5 L2.5,10.625 L0,8.75 Z M10,7.5 L7.5,9.375 L10,11.25 L10,7.5 Z M0,5 L0,8.75 L2.5,6.875 L0,5 Z M10,3.75 L7.5,5.625 L10,7.5 L10,3.75 Z M0,1.25 L0,5 L2.5,3.125 L0,1.25 Z M0,113.75 L-1.25,113.75 L-1.25,1.25 L0,1.25 L8.333,1.25 L7.5,1.875 L10,3.75 L10,1.25 L11.25,1.25 L11.25,113.75 L0,113.75 Z" id="Combined-Shape" stroke="none" fill="#F3F3F3" fill-rule="evenodd" mask="url(#mask-4)"></path>
                                <polyline id="Path-18-Copy-46" stroke="#979797" stroke-width="1.25" fill="none" points="0 1.25 2.5 3.125 0 5 2.5 6.875 0 8.75 2.5 10.625 0 12.5 2.5 14.375 0 16.25 2.5 18.125 0 20 2.5 21.875 0 23.75 2.5 25.625 0 27.5 2.5 29.375 0 31.25 2.5 33.125 0 35 2.5 36.875 0 38.75 2.5 40.625 0 42.5 2.5 44.375 0 46.25 2.5 48.125 0 50 2.5 51.875 0 53.75 2.5 55.625 0 57.5 2.5 59.375 0 61.25 2.5 63.125 0 65 2.5 66.875 0 68.75 2.5 70.625 0 72.5 2.5 74.375 0 76.25 2.5 78.125 0 80 2.5 81.875 0 83.75 2.5 85.625 0 87.5 2.5 89.375 0 91.25 2.5 93.125 0 95 2.5 96.875 0 98.75 2.5 100.625 0 102.5 2.5 104.375 0 106.25 2.5 108.125 0 110 2.5 111.875 0 113.75"></polyline>
                                <polyline id="Path-18-Copy-47" stroke="#979797" stroke-width="1.25" fill="none" transform="translate(8.750000, 56.250000) scale(-1, 1) translate(-8.750000, -56.250000) " points="7.5 0 10 1.875 7.5 3.75 10 5.625 7.5 7.5 10 9.375 7.5 11.25 10 13.125 7.5 15 10 16.875 7.5 18.75 10 20.625 7.5 22.5 10 24.375 7.5 26.25 10 28.125 7.5 30 10 31.875 7.5 33.75 10 35.625 7.5 37.5 10 39.375 7.5 41.25 10 43.125 7.5 45 10 46.875 7.5 48.75 10 50.625 7.5 52.5 10 54.375 7.5 56.25 10 58.125 7.5 60 10 61.875 7.5 63.75 10 65.625 7.5 67.5 10 69.375 7.5 71.25 10 73.125 7.5 75 10 76.875 7.5 78.75 10 80.625 7.5 82.5 10 84.375 7.5 86.25 10 88.125 7.5 90 10 91.875 7.5 93.75 10 95.625 7.5 97.5 10 99.375 7.5 101.25 10 103.125 7.5 105 10 106.875 7.5 108.75 10 110.625 7.5 112.5"></polyline>
                            </g>
                        </g>
                    </g>
                    <g id="Threads-Dark" transform="translate(6.250000, 37.168142)">
                        <mask id="mask-6" fill="white">
                            <use xlink:href="#path-5"></use>
                        </mask>
                        <g id="Rectangle"></g>
                        <g id="Group-7-Copy" stroke-width="1" fill-rule="evenodd" mask="url(#mask-6)">
                            <g transform="translate(1.250000, -3.750000)">
                                <mask id="mask-8" fill="white">
                                    <use xlink:href="#path-7"></use>
                                </mask>
                                <g id="Rectangle" stroke="none" fill="none"></g>
                                <path d="M0,116.25 L2.5,114.375 L0,112.5 L0,116.25 Z M10,111.25 L7.5,113.125 L10,115 L10,111.25 Z M0,108.75 L0,112.5 L2.5,110.625 L0,108.75 Z M10,107.5 L7.5,109.375 L10,111.25 L10,107.5 Z M0,105 L0,108.75 L2.5,106.875 L0,105 Z M10,103.75 L7.5,105.625 L10,107.5 L10,103.75 Z M0,101.25 L0,105 L2.5,103.125 L0,101.25 Z M10,100 L7.5,101.875 L10,103.75 L10,100 Z M0,97.5 L0,101.25 L2.5,99.375 L0,97.5 Z M10,96.25 L7.5,98.125 L10,100 L10,96.25 Z M0,93.75 L0,97.5 L2.5,95.625 L0,93.75 Z M10,92.5 L7.5,94.375 L10,96.25 L10,92.5 Z M0,90 L0,93.75 L2.5,91.875 L0,90 Z M10,88.75 L7.5,90.625 L10,92.5 L10,88.75 Z M0,86.25 L0,90 L2.5,88.125 L0,86.25 Z M10,85 L7.5,86.875 L10,88.75 L10,85 Z M0,82.5 L0,86.25 L2.5,84.375 L0,82.5 Z M10,81.25 L7.5,83.125 L10,85 L10,81.25 Z M0,78.75 L0,82.5 L2.5,80.625 L0,78.75 Z M10,77.5 L7.5,79.375 L10,81.25 L10,77.5 Z M0,75 L0,78.75 L2.5,76.875 L0,75 Z M10,73.75 L7.5,75.625 L10,77.5 L10,73.75 Z M0,71.25 L0,75 L2.5,73.125 L0,71.25 Z M10,70 L7.5,71.875 L10,73.75 L10,70 Z M0,67.5 L0,71.25 L2.5,69.375 L0,67.5 Z M10,66.25 L7.5,68.125 L10,70 L10,66.25 Z M0,63.75 L0,67.5 L2.5,65.625 L0,63.75 Z M10,62.5 L7.5,64.375 L10,66.25 L10,62.5 Z M0,60 L0,63.75 L2.5,61.875 L0,60 Z M10,58.75 L7.5,60.625 L10,62.5 L10,58.75 Z M0,56.25 L0,60 L2.5,58.125 L0,56.25 Z M10,55 L7.5,56.875 L10,58.75 L10,55 Z M0,52.5 L0,56.25 L2.5,54.375 L0,52.5 Z M10,51.25 L7.5,53.125 L10,55 L10,51.25 Z M0,48.75 L0,52.5 L2.5,50.625 L0,48.75 Z M10,47.5 L7.5,49.375 L10,51.25 L10,47.5 Z M0,45 L0,48.75 L2.5,46.875 L0,45 Z M10,43.75 L7.5,45.625 L10,47.5 L10,43.75 Z M0,41.25 L0,45 L2.5,43.125 L0,41.25 Z M10,40 L7.5,41.875 L10,43.75 L10,40 Z M0,37.5 L0,41.25 L2.5,39.375 L0,37.5 Z M10,36.25 L7.5,38.125 L10,40 L10,36.25 Z M0,33.75 L0,37.5 L2.5,35.625 L0,33.75 Z M10,32.5 L7.5,34.375 L10,36.25 L10,32.5 Z M0,30 L0,33.75 L2.5,31.875 L0,30 Z M10,28.75 L7.5,30.625 L10,32.5 L10,28.75 Z M0,26.25 L0,30 L2.5,28.125 L0,26.25 Z M10,25 L7.5,26.875 L10,28.75 L10,25 Z M0,22.5 L0,26.25 L2.5,24.375 L0,22.5 Z M10,21.25 L7.5,23.125 L10,25 L10,21.25 Z M0,18.75 L0,22.5 L2.5,20.625 L0,18.75 Z M10,17.5 L7.5,19.375 L10,21.25 L10,17.5 Z M0,15 L0,18.75 L2.5,16.875 L0,15 Z M10,13.75 L7.5,15.625 L10,17.5 L10,13.75 Z M0,11.25 L0,15 L2.5,13.125 L0,11.25 Z M10,10 L7.5,11.875 L10,13.75 L10,10 Z M0,7.5 L0,11.25 L2.5,9.375 L0,7.5 Z M10,6.25 L7.5,8.125 L10,10 L10,6.25 Z M0,116.25 L-1.25,116.25 L-1.25,5 L0,5 L0,7.5 L2.5,5.625 L1.667,5 L8.333,5 L10,6.25 L10,5 L11.25,5 L11.25,116.25 L0,116.25 Z" id="Combined-Shape" stroke="none" fill="#D9D9D9" fill-rule="evenodd" mask="url(#mask-8)"></path>
                                <polygon id="Path-18-Copy-46" stroke="#979797" stroke-width="1.25" fill="none" points="9.375 114.375 7.5 113.125 10 111.25 7.5 109.375 10 107.5 7.5 105.625 10 103.75 7.5 101.875 10 100 7.5 98.125 10 96.25 7.5 94.375 10 92.5 7.5 90.625 10 88.75 7.5 86.875 10 85 7.5 83.125 10 81.25 7.5 79.375 10 77.5 7.5 75.625 10 73.75 7.5 71.875 10 70 7.5 68.125 10 66.25 7.5 64.375 10 62.5 7.5 60.625 10 58.75 7.5 56.875 10 55 7.5 53.125 10 51.25 7.5 49.375 10 47.5 7.5 45.625 10 43.75 7.5 41.875 10 40 7.5 38.125 10 36.25 7.5 34.375 10 32.5 7.5 30.625 10 28.75 7.5 26.875 10 25 7.5 23.125 10 21.25 7.5 19.375 10 17.5 7.5 15.625 10 13.75 7.5 11.875 10 10 7.5 8.125 10 6.25 7.5 4.375 0.625 4.375 2.5 5.625 0 7.5 2.5 9.375 0 11.25 2.5 13.125 0 15 2.5 16.875 0 18.75 2.5 20.625 0 22.5 2.5 24.375 0 26.25 2.5 28.125 0 30 2.5 31.875 0 33.75 2.5 35.625 0 37.5 2.5 39.375 0 41.25 2.5 43.125 0 45 2.5 46.875 0 48.75 2.5 50.625 0 52.5 2.5 54.375 0 56.25 2.5 58.125 0 60 2.5 61.875 0 63.75 2.5 65.625 0 67.5 2.5 69.375 0 71.25 2.5 73.125 0 75 2.5 76.875 0 78.75 2.5 80.625 0 82.5 2.5 84.375 0 86.25 2.5 88.125 0 90 2.5 91.875 0 93.75 2.5 95.625 0 97.5 2.5 99.375 0 101.25 2.5 103.125 0 105 2.5 106.875 0 108.75 2.5 110.625 0 112.5 2.5 114.375"></polygon>
                            </g>
                        </g>
                    </g>
                    <path d="M9.375,73.0973451 L16.875,73.0973451" id="Path-4" stroke="#979797" stroke-width="1.25"></path>
                </g>
            </g>
        </g>
    </g>
</svg>