<?xml version="1.0" encoding="UTF-8"?>
<svg width="200px" height="150px" viewBox="0 0 200 150" version="1.1" xmlns="http://www.w3.org/2000/svg" xmlns:xlink="http://www.w3.org/1999/xlink">
    <!-- Generator: Sketch 58 (84663) - https://sketch.com -->
    <title>Standoff-Male-Female</title>
    <desc>Created with Sketch.</desc>
    <defs>
        <rect id="path-1" x="0" y="0" width="12" height="106.8"></rect>
        <rect id="path-3" x="0" y="0" width="9.6" height="110.4"></rect>
        <rect id="path-5" x="0" y="0" width="12" height="37.2"></rect>
        <rect id="path-7" x="0" y="0" width="9.6" height="108"></rect>
    </defs>
    <g id="Standoff-Male-Female" stroke="none" stroke-width="1" fill="none" fill-rule="evenodd">
        <g id="mounting-hole" transform="translate(18.000000, 43.000000)" stroke="#979797">
            <g id="hole" transform="translate(32.000000, 32.000000) scale(-1, 1) translate(-32.000000, -32.000000) ">
                <path d="M31.5428571,0.657142857 C14.4851482,0.657142857 0.657142857,14.4851482 0.657142857,31.5428571 C0.657142857,48.6005661 14.4851482,62.4285714 31.5428571,62.4285714 C48.6005661,62.4285714 62.4285714,48.6005661 62.4285714,31.5428571 C62.4285714,14.4851482 48.6005661,0.657142857 31.5428571,0.657142857 Z M31.5428571,19.0571429 C38.4385267,19.0571429 44.0285714,24.6471876 44.0285714,31.5428571 C44.0285714,38.4385267 38.4385267,44.0285714 31.5428571,44.0285714 C24.6471876,44.0285714 19.0571429,38.4385267 19.0571429,31.5428571 C19.0571429,24.6471876 24.6471876,19.0571429 31.5428571,19.0571429 Z" id="Combined-Shape" stroke-width="1.31428571" fill="#D9D9D9"></path>
                <circle id="Oval" stroke-width="0.985714286" cx="31.5428571" cy="31.5428571" r="12.3214286"></circle>
                <circle id="Oval" stroke-width="0.657142857" fill="#FFFFFF" cx="31.5428571" cy="8.87142857" r="1.97142857"></circle>
                <circle id="Oval-Copy" stroke-width="0.657142857" fill="#FFFFFF" cx="31.5428571" cy="55.2" r="1.97142857"></circle>
                <circle id="Oval-Copy-2" stroke-width="0.657142857" fill="#FFFFFF" cx="52.2428571" cy="43.3714286" r="1.97142857"></circle>
                <circle id="Oval-Copy-4" stroke-width="0.657142857" fill="#FFFFFF" cx="11.8285714" cy="43.3714286" r="1.97142857"></circle>
                <circle id="Oval-Copy-3" stroke-width="0.657142857" fill="#FFFFFF" cx="52.2428571" cy="19.7142857" r="1.97142857"></circle>
                <circle id="Oval-Copy-5" stroke-width="0.657142857" fill="#FFFFFF" cx="11.8285714" cy="19.7142857" r="1.97142857"></circle>
            </g>
        </g>
        <g id="male-female" transform="translate(135.000000, 21.000000)">
            <g id="standoff-copy" transform="translate(12.700000, 54.000000) scale(-1, 1) translate(-12.700000, -54.000000) translate(0.200000, 0.000000)">
                <g id="Threads-Dark" transform="translate(6.000000, 1.200000)">
                    <mask id="mask-2" fill="white">
                        <use xlink:href="#path-1"></use>
                    </mask>
                    <g id="Rectangle"></g>
                    <g id="Group-7-Copy" stroke-width="1" fill-rule="evenodd" mask="url(#mask-2)">
                        <g transform="translate(1.200000, -3.600000)">
                            <mask id="mask-4" fill="white">
                                <use xlink:href="#path-3"></use>
                            </mask>
                            <g id="Rectangle" stroke="none" fill="none"></g>
                            <path d="M0,4.8 L0,7.2 L2.4,5.4 L1.6,4.8 L7.998,4.8 L9.599,6 L9.599,4.8 L10.8,4.8 L10.8,109.2 L9.599,109.199 L9.599,106.8 L7.2,108.6 L7.999,109.199 L1.599,109.199 L0,108 L0,109.199 L-1.2,109.2 L-1.2,4.8 L0,4.8 Z M0,104.4 L0,108 L2.4,106.2 L0,104.4 Z M9.599,103.2 L7.2,105 L9.599,106.8 L9.599,103.2 Z M0,100.8 L0,104.4 L2.4,102.6 L0,100.8 Z M9.599,99.6 L7.2,101.4 L9.599,103.2 L9.599,99.6 Z M0,97.2 L0,100.8 L2.4,99 L0,97.2 Z M9.599,96 L7.2,97.8 L9.599,99.6 L9.599,96 Z M0,93.6 L0,97.2 L2.4,95.4 L0,93.6 Z M9.599,92.4 L7.2,94.2 L9.599,96 L9.599,92.4 Z M0,90 L0,93.6 L2.4,91.8 L0,90 Z M9.599,88.8 L7.2,90.6 L9.599,92.4 L9.599,88.8 Z M0,86.4 L0,90 L2.4,88.2 L0,86.4 Z M9.599,85.2 L7.2,87 L9.599,88.8 L9.599,85.2 Z M0,82.8 L0,86.4 L2.4,84.6 L0,82.8 Z M9.599,81.599 L7.2,83.4 L9.599,85.2 L9.599,81.599 Z M0,79.2 L0,82.8 L2.4,81 L0,79.2 Z M9.599,77.999 L7.2,79.8 L9.599,81.599 L9.599,77.999 Z M0,75.6 L0,79.2 L2.4,77.4 L0,75.6 Z M9.599,74.4 L7.2,76.2 L9.599,77.999 L9.599,74.4 Z M0,72 L0,75.6 L2.4,73.8 L0,72 Z M9.599,70.8 L7.2,72.6 L9.599,74.4 L9.599,70.8 Z M0,68.4 L0,72 L2.4,70.2 L0,68.4 Z M9.599,67.2 L7.2,69 L9.599,70.8 L9.599,67.2 Z M0,64.8 L0,68.4 L2.4,66.6 L0,64.8 Z M9.599,63.6 L7.2,65.4 L9.599,67.2 L9.599,63.6 Z M0,61.2 L0,64.8 L2.4,63 L0,61.2 Z M9.599,60 L7.2,61.8 L9.599,63.6 L9.599,60 Z M0,57.6 L0,61.2 L2.4,59.4 L0,57.6 Z M9.599,56.4 L7.2,58.2 L9.599,60 L9.599,56.4 Z M0,54 L0,57.6 L2.4,55.8 L0,54 Z M9.599,52.8 L7.2,54.6 L9.599,56.4 L9.599,52.8 Z M0,50.4 L0,54 L2.4,52.2 L0,50.4 Z M9.599,49.2 L7.2,51 L9.599,52.8 L9.599,49.2 Z M0,46.8 L0,50.4 L2.4,48.6 L0,46.8 Z M9.599,45.6 L7.2,47.4 L9.599,49.2 L9.599,45.6 Z M0,43.2 L0,46.8 L2.4,45 L0,43.2 Z M9.599,41.999 L7.2,43.8 L9.599,45.6 L9.599,41.999 Z M0,39.6 L0,43.2 L2.4,41.4 L0,39.6 Z M9.599,38.4 L7.2,40.2 L9.599,41.999 L9.599,38.4 Z M0,36 L0,39.6 L2.4,37.8 L0,36 Z M9.599,34.8 L7.2,36.6 L9.599,38.4 L9.599,34.8 Z M0,32.4 L0,36 L2.4,34.2 L0,32.4 Z M9.599,31.2 L7.2,33 L9.599,34.8 L9.599,31.2 Z M0,28.8 L0,32.4 L2.4,30.6 L0,28.8 Z M9.599,27.6 L7.2,29.4 L9.599,31.2 L9.599,27.6 Z M0,25.2 L0,28.8 L2.4,27 L0,25.2 Z M9.599,24 L7.2,25.8 L9.599,27.6 L9.599,24 Z M0,21.6 L0,25.2 L2.4,23.4 L0,21.6 Z M9.599,20.4 L7.2,22.2 L9.599,24 L9.599,20.4 Z M0,18 L0,21.6 L2.4,19.8 L0,18 Z M9.599,16.8 L7.2,18.6 L9.599,20.4 L9.599,16.8 Z M0,14.4 L0,18 L2.4,16.2 L0,14.4 Z M9.599,13.2 L7.2,15 L9.599,16.8 L9.599,13.2 Z M0,10.8 L0,14.4 L2.4,12.6 L0,10.8 Z M9.599,9.6 L7.2,11.4 L9.599,13.2 L9.599,9.6 Z M0,7.2 L0,10.8 L2.4,9 L0,7.2 Z M9.599,6 L7.2,7.8 L9.599,9.6 L9.599,6 Z" id="Combined-Shape" stroke="none" fill="#D9D9D9" fill-rule="evenodd" mask="url(#mask-4)"></path>
                            <polygon id="Path-18-Copy-46" stroke="#979797" stroke-width="1.2" fill="none" points="9 109.8 7.2 108.6 9.6 106.8 7.2 105 9.6 103.2 7.2 101.4 9.6 99.6 7.2 97.8 9.6 96 7.2 94.2 9.6 92.4 7.2 90.6 9.6 88.8 7.2 87 9.6 85.2 7.2 83.4 9.6 81.6 7.2 79.8 9.6 78 7.2 76.2 9.6 74.4 7.2 72.6 9.6 70.8 7.2 69 9.6 67.2 7.2 65.4 9.6 63.6 7.2 61.8 9.6 60 7.2 58.2 9.6 56.4 7.2 54.6 9.6 52.8 7.2 51 9.6 49.2 7.2 47.4 9.6 45.6 7.2 43.8 9.6 42 7.2 40.2 9.6 38.4 7.2 36.6 9.6 34.8 7.2 33 9.6 31.2 7.2 29.4 9.6 27.6 7.2 25.8 9.6 24 7.2 22.2 9.6 20.4 7.2 18.6 9.6 16.8 7.2 15 9.6 13.2 7.2 11.4 9.6 9.6 7.2 7.8 9.6 6 7.2 4.2 0.6 4.2 2.4 5.4 0 7.2 2.4 9 0 10.8 2.4 12.6 0 14.4 2.4 16.2 0 18 2.4 19.8 0 21.6 2.4 23.4 0 25.2 2.4 27 0 28.8 2.4 30.6 0 32.4 2.4 34.2 0 36 2.4 37.8 0 39.6 2.4 41.4 0 43.2 2.4 45 0 46.8 2.4 48.6 0 50.4 2.4 52.2 0 54 2.4 55.8 0 57.6 2.4 59.4 0 61.2 2.4 63 0 64.8 2.4 66.6 0 68.4 2.4 70.2 0 72 2.4 73.8 0 75.6 2.4 77.4 0 79.2 2.4 81 0 82.8 2.4 84.6 0 86.4 2.4 88.2 0 90 2.4 91.8 0 93.6 2.4 95.4 0 97.2 2.4 99 0 100.8 2.4 102.6 0 104.4 2.4 106.2 0 108 2.4 109.8"></polygon>
                        </g>
                    </g>
                </g>
                <rect id="Rectangle" stroke="#999999" stroke-width="1.2" fill="#D9D9D9" x="1.00769515" y="0.6" width="22.8" height="75.6"></rect>
                <g id="Threads" transform="translate(12.000000, 19.400000) scale(1, -1) translate(-12.000000, -19.400000) translate(6.000000, 0.400000)">
                    <mask id="mask-6" fill="white">
                        <use xlink:href="#path-5"></use>
                    </mask>
                    <g id="Rectangle"></g>
                    <g id="Group-7-Copy" mask="url(#mask-6)">
                        <g transform="translate(1.200000, 6.000000)">
                            <mask id="mask-8" fill="white">
                                <use xlink:href="#path-7"></use>
                            </mask>
                            <g id="Rectangle" stroke="none" fill="none"></g>
                            <path d="M0,105.6 L2.4,103.8 L0,102 L0,105.6 Z M9.599,100.8 L7.2,102.6 L9.6,104.4 L9.599,100.8 Z M0,98.4 L0,102 L2.4,100.2 L0,98.4 Z M9.599,97.2 L7.2,99 L9.599,100.8 L9.599,97.2 Z M0,94.8 L0,98.4 L2.4,96.6 L0,94.8 Z M9.599,93.6 L7.2,95.4 L9.599,97.2 L9.599,93.6 Z M0,91.2 L0,94.8 L2.4,93 L0,91.2 Z M9.599,90 L7.2,91.8 L9.599,93.6 L9.599,90 Z M0,87.6 L0,91.2 L2.4,89.4 L0,87.6 Z M9.599,86.4 L7.2,88.2 L9.599,90 L9.599,86.4 Z M0,84 L0,87.6 L2.4,85.8 L0,84 Z M9.599,82.8 L7.2,84.6 L9.599,86.4 L9.599,82.8 Z M0,80.4 L0,84 L2.4,82.2 L0,80.4 Z M9.599,79.2 L7.2,81 L9.599,82.8 L9.599,79.2 Z M0,76.8 L0,80.4 L2.4,78.6 L0,76.8 Z M9.599,75.599 L7.2,77.4 L9.599,79.2 L9.599,75.599 Z M0,73.2 L0,76.8 L2.4,75 L0,73.2 Z M9.599,71.999 L7.2,73.8 L9.599,75.599 L9.599,71.999 Z M0,69.6 L0,73.2 L2.4,71.4 L0,69.6 Z M9.599,68.4 L7.2,70.2 L9.599,71.999 L9.599,68.4 Z M0,66 L0,69.6 L2.4,67.8 L0,66 Z M9.599,64.799 L7.2,66.6 L9.599,68.4 L9.599,64.799 Z M0,62.4 L0,66 L2.4,64.2 L0,62.4 Z M9.599,61.199 L7.2,63 L9.599,64.799 L9.599,61.199 Z M0,58.8 L0,62.4 L2.4,60.6 L0,58.8 Z M9.599,57.599 L7.2,59.4 L9.599,61.199 L9.599,57.599 Z M0,55.2 L0,58.8 L2.4,57 L0,55.2 Z M9.599,54 L7.2,55.8 L9.599,57.599 L9.599,54 Z M0,51.6 L0,55.2 L2.4,53.4 L0,51.6 Z M9.599,50.4 L7.2,52.2 L9.599,54 L9.599,50.4 Z M0,48 L0,51.6 L2.4,49.8 L0,48 Z M9.599,46.799 L7.2,48.6 L9.599,50.4 L9.599,46.799 Z M0,44.4 L0,48 L2.4,46.2 L0,44.4 Z M9.599,43.2 L7.2,45 L9.599,46.799 L9.599,43.2 Z M0,40.8 L0,44.4 L2.4,42.6 L0,40.8 Z M9.599,39.6 L7.2,41.4 L9.599,43.2 L9.599,39.6 Z M0,37.2 L0,40.8 L2.4,39 L0,37.2 Z M9.599,35.999 L7.2,37.8 L9.599,39.6 L9.599,35.999 Z M0,33.6 L0,37.2 L2.4,35.4 L0,33.6 Z M9.599,32.4 L7.2,34.2 L9.599,35.999 L9.599,32.4 Z M0,30 L0,33.6 L2.4,31.8 L0,30 Z M9.599,28.799 L7.2,30.6 L9.599,32.4 L9.599,28.799 Z M0,26.4 L0,30 L2.4,28.2 L0,26.4 Z M9.599,25.199 L7.2,27 L9.599,28.799 L9.599,25.199 Z M0,22.8 L0,26.4 L2.4,24.6 L0,22.8 Z M9.599,21.599 L7.2,23.4 L9.599,25.199 L9.599,21.599 Z M0,19.2 L0,22.8 L2.4,21 L0,19.2 Z M9.599,18 L7.2,19.8 L9.599,21.599 L9.599,18 Z M0,15.6 L0,19.2 L2.4,17.4 L0,15.6 Z M9.599,14.399 L7.2,16.2 L9.599,18 L9.599,14.399 Z M0,12 L0,15.6 L2.4,13.8 L0,12 Z M9.599,10.799 L7.2,12.6 L9.599,14.399 L9.599,10.799 Z M0,8.4 L0,12 L2.4,10.2 L0,8.4 Z M9.599,7.199 L7.2,9 L9.599,10.799 L9.599,7.199 Z M0,4.8 L0,8.4 L2.4,6.6 L0,4.8 Z M9.599,3.599 L7.2,5.4 L9.599,7.199 L9.599,3.599 Z M0,1.2 L0,4.8 L2.4,3 L0,1.2 Z M9.599,-0.001 L7.2,1.8 L9.599,3.599 L9.599,-0.001 Z M0,-2.4 L0,1.2 L2.4,-0.6 L0,-2.4 Z M0,105.6 L-1.2,105.6 L-1.2,-2.4 L0,-2.4 L7.998,-2.4 L7.2,-1.8 L9.599,-0.001 L9.599,-2.4 L10.8,-2.4 L10.8,105.6 L0,105.6 Z" id="Combined-Shape" stroke="none" fill="#F3F3F3" fill-rule="evenodd" mask="url(#mask-8)"></path>
                            <polyline id="Path-18-Copy-46" stroke="#979797" stroke-width="1.2" fill="none" transform="translate(4.800000, 54.000000) scale(1, -1) translate(-4.800000, -54.000000) " points="0 1.20670391 2.4 3.01675978 0 4.82681564 2.4 6.63687151 0 8.44692737 2.4 10.2569832 0 12.0670391 2.4 13.877095 0 15.6871508 2.4 17.4972067 0 19.3072626 2.4 21.1173184 0 22.9273743 2.4 24.7374302 0 26.547486 2.4 28.3575419 0 30.1675978 2.4 31.9776536 0 33.7877095 2.4 35.5977654 0 37.4078212 2.4 39.2178771 0 41.027933 2.4 42.8379888 0 44.6480447 2.4 46.4581006 0 48.2681564 2.4 50.0782123 0 51.8882682 2.4 53.698324 0 55.5083799 2.4 57.3184358 0 59.1284916 2.4 60.9385475 0 62.7486034 2.4 64.5586592 0 66.3687151 2.4 68.1787709 0 69.9888268 2.4 71.7988827 0 73.6089385 2.4 75.4189944 0 77.2290503 2.4 79.0391061 0 80.849162 2.4 82.6592179 0 84.4692737 2.4 86.2793296 0 88.0893855 2.4 89.8994413 0 91.7094972 2.4 93.5195531 0 95.3296089 2.4 97.1396648 0 98.9497207 2.4 100.759777 0 102.569832 2.4 104.379888 0 106.189944 2.4 108 9 108 7.2 106.793296 9.6 104.98324 7.2 103.173184 9.6 101.363128 7.2 99.5530726 9.6 97.7430168 7.2 95.9329609 9.6 94.122905 7.2 92.3128492 9.6 90.5027933 7.2 88.6927374 9.6 86.8826816 7.2 85.0726257 9.6 83.2625698 7.2 81.452514 9.6 79.6424581 7.2 77.8324022 9.6 76.0223464 7.2 74.2122905 9.6 72.4022346 7.2 70.5921788 9.6 68.7821229 7.2 66.972067 9.6 65.1620112 7.2 63.3519553 9.6 61.5418994 7.2 59.7318436 9.6 57.9217877 7.2 56.1117318 9.6 54.301676 7.2 52.4916201 9.6 50.6815642 7.2 48.8715084 9.6 47.0614525 7.2 45.2513966 9.6 43.4413408 7.2 41.6312849 9.6 39.8212291 7.2 38.0111732 9.6 36.2011173 7.2 34.3910615 9.6 32.5810056 7.2 30.7709497 9.6 28.9608939 7.2 27.150838 9.6 25.3407821 7.2 23.5307263 9.6 21.7206704 7.2 19.9106145 9.6 18.1005587 7.2 16.2905028 9.6 14.4804469 7.2 12.6703911 9.6 10.8603352 7.2 9.05027933 9.6 7.24022346 7.2 5.4301676 9.6 3.62011173 7.2 1.81005587 9.6 0"></polyline>
                        </g>
                    </g>
                </g>
            </g>
        </g>
    </g>
</svg>