<?xml version="1.0" encoding="UTF-8"?>
<svg width="290px" height="175px" viewBox="0 0 290 175" version="1.1" xmlns="http://www.w3.org/2000/svg" xmlns:xlink="http://www.w3.org/1999/xlink">
    <!-- Generator: Sketch 58 (84663) - https://sketch.com -->
    <title>Standoff-Female-Labeled</title>
    <desc>Created with Sketch.</desc>
    <defs>
        <rect id="path-1" x="0" y="0" width="12.5" height="109"></rect>
        <rect id="path-3" x="0" y="2.5" width="10" height="109.75"></rect>
        <rect id="path-5" x="0" y="0" width="12.5" height="36.25"></rect>
        <rect id="path-7" x="0" y="0" width="10" height="114.375"></rect>
    </defs>
    <g id="Standoff-Female-Labeled" stroke="none" stroke-width="1" fill="none" fill-rule="evenodd">
        <g id="Group-16" transform="translate(25.000000, 13.000000)">
            <g id="Standoff-Female" transform="translate(20.000000, 0.000000)">
                <g id="Group" transform="translate(18.000000, 19.000000)">
                    <g id="mounting-hole" transform="translate(0.000000, 24.000000)" stroke="#979797">
                        <g id="hole" transform="translate(32.000000, 32.000000) scale(-1, 1) translate(-32.000000, -32.000000) ">
                            <path d="M31.5428571,0.657142857 C14.4851482,0.657142857 0.657142857,14.4851482 0.657142857,31.5428571 C0.657142857,48.6005661 14.4851482,62.4285714 31.5428571,62.4285714 C48.6005661,62.4285714 62.4285714,48.6005661 62.4285714,31.5428571 C62.4285714,14.4851482 48.6005661,0.657142857 31.5428571,0.657142857 Z M31.5428571,19.0571429 C38.4385267,19.0571429 44.0285714,24.6471876 44.0285714,31.5428571 C44.0285714,38.4385267 38.4385267,44.0285714 31.5428571,44.0285714 C24.6471876,44.0285714 19.0571429,38.4385267 19.0571429,31.5428571 C19.0571429,24.6471876 24.6471876,19.0571429 31.5428571,19.0571429 Z" id="Combined-Shape" stroke-width="1.31428571" fill="#D9D9D9"></path>
                            <circle id="Oval" stroke-width="0.985714286" cx="31.5428571" cy="31.5428571" r="12.3214286"></circle>
                            <circle id="Oval" stroke-width="0.657142857" fill="#FFFFFF" cx="31.5428571" cy="8.87142857" r="1.97142857"></circle>
                            <circle id="Oval-Copy" stroke-width="0.657142857" fill="#FFFFFF" cx="31.5428571" cy="55.2" r="1.97142857"></circle>
                            <circle id="Oval-Copy-2" stroke-width="0.657142857" fill="#FFFFFF" cx="52.2428571" cy="43.3714286" r="1.97142857"></circle>
                            <circle id="Oval-Copy-4" stroke-width="0.657142857" fill="#FFFFFF" cx="11.8285714" cy="43.3714286" r="1.97142857"></circle>
                            <circle id="Oval-Copy-3" stroke-width="0.657142857" fill="#FFFFFF" cx="52.2428571" cy="19.7142857" r="1.97142857"></circle>
                            <circle id="Oval-Copy-5" stroke-width="0.657142857" fill="#FFFFFF" cx="11.8285714" cy="19.7142857" r="1.97142857"></circle>
                        </g>
                    </g>
                    <g id="female" transform="translate(118.000000, 0.000000)">
                        <g id="standoff-copy">
                            <rect id="Rectangle" stroke="#999999" stroke-width="1.25" fill="#D9D9D9" x="0.625" y="0.625" width="23.75" height="110.254425"></rect>
                            <g id="End-tap" transform="translate(7.500000, 74.336283)"></g>
                            <g id="Threads" transform="translate(6.250000, 1.238938)">
                                <mask id="mask-2" fill="white">
                                    <use xlink:href="#path-1"></use>
                                </mask>
                                <g id="Rectangle"></g>
                                <g id="Group-7-Copy" stroke-width="1" fill-rule="evenodd" mask="url(#mask-2)">
                                    <g transform="translate(1.250000, -2.500000)">
                                        <mask id="mask-4" fill="white">
                                            <use xlink:href="#path-3"></use>
                                        </mask>
                                        <g id="Rectangle" stroke="none" fill="none"></g>
                                        <path d="M0,113.75 L2.5,111.875 L0,110 L0,113.75 Z M10,108.75 L7.5,110.625 L10,112.5 L10,108.75 Z M0,106.25 L0,110 L2.5,108.125 L0,106.25 Z M10,105 L7.5,106.875 L10,108.75 L10,105 Z M0,102.5 L0,106.25 L2.5,104.375 L0,102.5 Z M10,101.25 L7.5,103.125 L10,105 L10,101.25 Z M0,98.75 L0,102.5 L2.5,100.625 L0,98.75 Z M10,97.5 L7.5,99.375 L10,101.25 L10,97.5 Z M0,95 L0,98.75 L2.5,96.875 L0,95 Z M10,93.75 L7.5,95.625 L10,97.5 L10,93.75 Z M0,91.25 L0,95 L2.5,93.125 L0,91.25 Z M10,90 L7.5,91.875 L10,93.75 L10,90 Z M0,87.5 L0,91.25 L2.5,89.375 L0,87.5 Z M10,86.25 L7.5,88.125 L10,90 L10,86.25 Z M0,83.75 L0,87.5 L2.5,85.625 L0,83.75 Z M10,82.5 L7.5,84.375 L10,86.25 L10,82.5 Z M0,80 L0,83.75 L2.5,81.875 L0,80 Z M10,78.75 L7.5,80.625 L10,82.5 L10,78.75 Z M0,76.25 L0,80 L2.5,78.125 L0,76.25 Z M10,75 L7.5,76.875 L10,78.75 L10,75 Z M0,72.5 L0,76.25 L2.5,74.375 L0,72.5 Z M10,71.25 L7.5,73.125 L10,75 L10,71.25 Z M0,68.75 L0,72.5 L2.5,70.625 L0,68.75 Z M10,67.5 L7.5,69.375 L10,71.25 L10,67.5 Z M0,65 L0,68.75 L2.5,66.875 L0,65 Z M10,63.75 L7.5,65.625 L10,67.5 L10,63.75 Z M0,61.25 L0,65 L2.5,63.125 L0,61.25 Z M10,60 L7.5,61.875 L10,63.75 L10,60 Z M0,57.5 L0,61.25 L2.5,59.375 L0,57.5 Z M10,56.25 L7.5,58.125 L10,60 L10,56.25 Z M0,53.75 L0,57.5 L2.5,55.625 L0,53.75 Z M10,52.5 L7.5,54.375 L10,56.25 L10,52.5 Z M0,50 L0,53.75 L2.5,51.875 L0,50 Z M10,48.75 L7.5,50.625 L10,52.5 L10,48.75 Z M0,46.25 L0,50 L2.5,48.125 L0,46.25 Z M10,45 L7.5,46.875 L10,48.75 L10,45 Z M0,42.5 L0,46.25 L2.5,44.375 L0,42.5 Z M10,41.25 L7.5,43.125 L10,45 L10,41.25 Z M0,38.75 L0,42.5 L2.5,40.625 L0,38.75 Z M10,37.5 L7.5,39.375 L10,41.25 L10,37.5 Z M0,35 L0,38.75 L2.5,36.875 L0,35 Z M10,33.75 L7.5,35.625 L10,37.5 L10,33.75 Z M0,31.25 L0,35 L2.5,33.125 L0,31.25 Z M10,30 L7.5,31.875 L10,33.75 L10,30 Z M0,27.5 L0,31.25 L2.5,29.375 L0,27.5 Z M10,26.25 L7.5,28.125 L10,30 L10,26.25 Z M0,23.75 L0,27.5 L2.5,25.625 L0,23.75 Z M10,22.5 L7.5,24.375 L10,26.25 L10,22.5 Z M0,20 L0,23.75 L2.5,21.875 L0,20 Z M10,18.75 L7.5,20.625 L10,22.5 L10,18.75 Z M0,16.25 L0,20 L2.5,18.125 L0,16.25 Z M10,15 L7.5,16.875 L10,18.75 L10,15 Z M0,12.5 L0,16.25 L2.5,14.375 L0,12.5 Z M10,11.25 L7.5,13.125 L10,15 L10,11.25 Z M0,8.75 L0,12.5 L2.5,10.625 L0,8.75 Z M10,7.5 L7.5,9.375 L10,11.25 L10,7.5 Z M0,5 L0,8.75 L2.5,6.875 L0,5 Z M10,3.75 L7.5,5.625 L10,7.5 L10,3.75 Z M0,1.25 L0,5 L2.5,3.125 L0,1.25 Z M0,113.75 L-1.25,113.75 L-1.25,1.25 L0,1.25 L8.333,1.25 L7.5,1.875 L10,3.75 L10,1.25 L11.25,1.25 L11.25,113.75 L0,113.75 Z" id="Combined-Shape" stroke="none" fill="#F3F3F3" fill-rule="evenodd" mask="url(#mask-4)"></path>
                                        <polyline id="Path-18-Copy-46" stroke="#979797" stroke-width="1.25" fill="none" points="0 1.25 2.5 3.125 0 5 2.5 6.875 0 8.75 2.5 10.625 0 12.5 2.5 14.375 0 16.25 2.5 18.125 0 20 2.5 21.875 0 23.75 2.5 25.625 0 27.5 2.5 29.375 0 31.25 2.5 33.125 0 35 2.5 36.875 0 38.75 2.5 40.625 0 42.5 2.5 44.375 0 46.25 2.5 48.125 0 50 2.5 51.875 0 53.75 2.5 55.625 0 57.5 2.5 59.375 0 61.25 2.5 63.125 0 65 2.5 66.875 0 68.75 2.5 70.625 0 72.5 2.5 74.375 0 76.25 2.5 78.125 0 80 2.5 81.875 0 83.75 2.5 85.625 0 87.5 2.5 89.375 0 91.25 2.5 93.125 0 95 2.5 96.875 0 98.75 2.5 100.625 0 102.5 2.5 104.375 0 106.25 2.5 108.125 0 110 2.5 111.875 0 113.75"></polyline>
                                        <polyline id="Path-18-Copy-47" stroke="#979797" stroke-width="1.25" fill="none" transform="translate(8.750000, 56.250000) scale(-1, 1) translate(-8.750000, -56.250000) " points="7.5 0 10 1.875 7.5 3.75 10 5.625 7.5 7.5 10 9.375 7.5 11.25 10 13.125 7.5 15 10 16.875 7.5 18.75 10 20.625 7.5 22.5 10 24.375 7.5 26.25 10 28.125 7.5 30 10 31.875 7.5 33.75 10 35.625 7.5 37.5 10 39.375 7.5 41.25 10 43.125 7.5 45 10 46.875 7.5 48.75 10 50.625 7.5 52.5 10 54.375 7.5 56.25 10 58.125 7.5 60 10 61.875 7.5 63.75 10 65.625 7.5 67.5 10 69.375 7.5 71.25 10 73.125 7.5 75 10 76.875 7.5 78.75 10 80.625 7.5 82.5 10 84.375 7.5 86.25 10 88.125 7.5 90 10 91.875 7.5 93.75 10 95.625 7.5 97.5 10 99.375 7.5 101.25 10 103.125 7.5 105 10 106.875 7.5 108.75 10 110.625 7.5 112.5"></polyline>
                                    </g>
                                </g>
                            </g>
                            <g id="Threads-Dark" transform="translate(6.250000, 37.168142)">
                                <mask id="mask-6" fill="white">
                                    <use xlink:href="#path-5"></use>
                                </mask>
                                <g id="Rectangle"></g>
                                <g id="Group-7-Copy" stroke-width="1" fill-rule="evenodd" mask="url(#mask-6)">
                                    <g transform="translate(1.250000, -3.750000)">
                                        <mask id="mask-8" fill="white">
                                            <use xlink:href="#path-7"></use>
                                        </mask>
                                        <g id="Rectangle" stroke="none" fill="none"></g>
                                        <path d="M0,116.25 L2.5,114.375 L0,112.5 L0,116.25 Z M10,111.25 L7.5,113.125 L10,115 L10,111.25 Z M0,108.75 L0,112.5 L2.5,110.625 L0,108.75 Z M10,107.5 L7.5,109.375 L10,111.25 L10,107.5 Z M0,105 L0,108.75 L2.5,106.875 L0,105 Z M10,103.75 L7.5,105.625 L10,107.5 L10,103.75 Z M0,101.25 L0,105 L2.5,103.125 L0,101.25 Z M10,100 L7.5,101.875 L10,103.75 L10,100 Z M0,97.5 L0,101.25 L2.5,99.375 L0,97.5 Z M10,96.25 L7.5,98.125 L10,100 L10,96.25 Z M0,93.75 L0,97.5 L2.5,95.625 L0,93.75 Z M10,92.5 L7.5,94.375 L10,96.25 L10,92.5 Z M0,90 L0,93.75 L2.5,91.875 L0,90 Z M10,88.75 L7.5,90.625 L10,92.5 L10,88.75 Z M0,86.25 L0,90 L2.5,88.125 L0,86.25 Z M10,85 L7.5,86.875 L10,88.75 L10,85 Z M0,82.5 L0,86.25 L2.5,84.375 L0,82.5 Z M10,81.25 L7.5,83.125 L10,85 L10,81.25 Z M0,78.75 L0,82.5 L2.5,80.625 L0,78.75 Z M10,77.5 L7.5,79.375 L10,81.25 L10,77.5 Z M0,75 L0,78.75 L2.5,76.875 L0,75 Z M10,73.75 L7.5,75.625 L10,77.5 L10,73.75 Z M0,71.25 L0,75 L2.5,73.125 L0,71.25 Z M10,70 L7.5,71.875 L10,73.75 L10,70 Z M0,67.5 L0,71.25 L2.5,69.375 L0,67.5 Z M10,66.25 L7.5,68.125 L10,70 L10,66.25 Z M0,63.75 L0,67.5 L2.5,65.625 L0,63.75 Z M10,62.5 L7.5,64.375 L10,66.25 L10,62.5 Z M0,60 L0,63.75 L2.5,61.875 L0,60 Z M10,58.75 L7.5,60.625 L10,62.5 L10,58.75 Z M0,56.25 L0,60 L2.5,58.125 L0,56.25 Z M10,55 L7.5,56.875 L10,58.75 L10,55 Z M0,52.5 L0,56.25 L2.5,54.375 L0,52.5 Z M10,51.25 L7.5,53.125 L10,55 L10,51.25 Z M0,48.75 L0,52.5 L2.5,50.625 L0,48.75 Z M10,47.5 L7.5,49.375 L10,51.25 L10,47.5 Z M0,45 L0,48.75 L2.5,46.875 L0,45 Z M10,43.75 L7.5,45.625 L10,47.5 L10,43.75 Z M0,41.25 L0,45 L2.5,43.125 L0,41.25 Z M10,40 L7.5,41.875 L10,43.75 L10,40 Z M0,37.5 L0,41.25 L2.5,39.375 L0,37.5 Z M10,36.25 L7.5,38.125 L10,40 L10,36.25 Z M0,33.75 L0,37.5 L2.5,35.625 L0,33.75 Z M10,32.5 L7.5,34.375 L10,36.25 L10,32.5 Z M0,30 L0,33.75 L2.5,31.875 L0,30 Z M10,28.75 L7.5,30.625 L10,32.5 L10,28.75 Z M0,26.25 L0,30 L2.5,28.125 L0,26.25 Z M10,25 L7.5,26.875 L10,28.75 L10,25 Z M0,22.5 L0,26.25 L2.5,24.375 L0,22.5 Z M10,21.25 L7.5,23.125 L10,25 L10,21.25 Z M0,18.75 L0,22.5 L2.5,20.625 L0,18.75 Z M10,17.5 L7.5,19.375 L10,21.25 L10,17.5 Z M0,15 L0,18.75 L2.5,16.875 L0,15 Z M10,13.75 L7.5,15.625 L10,17.5 L10,13.75 Z M0,11.25 L0,15 L2.5,13.125 L0,11.25 Z M10,10 L7.5,11.875 L10,13.75 L10,10 Z M0,7.5 L0,11.25 L2.5,9.375 L0,7.5 Z M10,6.25 L7.5,8.125 L10,10 L10,6.25 Z M0,116.25 L-1.25,116.25 L-1.25,5 L0,5 L0,7.5 L2.5,5.625 L1.667,5 L8.333,5 L10,6.25 L10,5 L11.25,5 L11.25,116.25 L0,116.25 Z" id="Combined-Shape" stroke="none" fill="#D9D9D9" fill-rule="evenodd" mask="url(#mask-8)"></path>
                                        <polygon id="Path-18-Copy-46" stroke="#979797" stroke-width="1.25" fill="none" points="9.375 114.375 7.5 113.125 10 111.25 7.5 109.375 10 107.5 7.5 105.625 10 103.75 7.5 101.875 10 100 7.5 98.125 10 96.25 7.5 94.375 10 92.5 7.5 90.625 10 88.75 7.5 86.875 10 85 7.5 83.125 10 81.25 7.5 79.375 10 77.5 7.5 75.625 10 73.75 7.5 71.875 10 70 7.5 68.125 10 66.25 7.5 64.375 10 62.5 7.5 60.625 10 58.75 7.5 56.875 10 55 7.5 53.125 10 51.25 7.5 49.375 10 47.5 7.5 45.625 10 43.75 7.5 41.875 10 40 7.5 38.125 10 36.25 7.5 34.375 10 32.5 7.5 30.625 10 28.75 7.5 26.875 10 25 7.5 23.125 10 21.25 7.5 19.375 10 17.5 7.5 15.625 10 13.75 7.5 11.875 10 10 7.5 8.125 10 6.25 7.5 4.375 0.625 4.375 2.5 5.625 0 7.5 2.5 9.375 0 11.25 2.5 13.125 0 15 2.5 16.875 0 18.75 2.5 20.625 0 22.5 2.5 24.375 0 26.25 2.5 28.125 0 30 2.5 31.875 0 33.75 2.5 35.625 0 37.5 2.5 39.375 0 41.25 2.5 43.125 0 45 2.5 46.875 0 48.75 2.5 50.625 0 52.5 2.5 54.375 0 56.25 2.5 58.125 0 60 2.5 61.875 0 63.75 2.5 65.625 0 67.5 2.5 69.375 0 71.25 2.5 73.125 0 75 2.5 76.875 0 78.75 2.5 80.625 0 82.5 2.5 84.375 0 86.25 2.5 88.125 0 90 2.5 91.875 0 93.75 2.5 95.625 0 97.5 2.5 99.375 0 101.25 2.5 103.125 0 105 2.5 106.875 0 108.75 2.5 110.625 0 112.5 2.5 114.375"></polygon>
                                    </g>
                                </g>
                            </g>
                            <path d="M9.375,73.0973451 L16.875,73.0973451" id="Path-4" stroke="#979797" stroke-width="1.25"></path>
                        </g>
                    </g>
                </g>
            </g>
            <g id="dimensions" transform="translate(0.000000, 2.000000)">
                <g id="Group-15" transform="translate(0.000000, 39.000000)">
                    <g id="Group-7" transform="translate(52.000000, 58.750000)">
                        <g id="Group-6">
                            <path d="M16,0.75 L16,22" id="Path-2-Copy" stroke="#8D9EB0" stroke-linecap="round" transform="translate(16.000000, 11.375000) scale(1, -1) translate(-16.000000, -11.375000) "></path>
                            <g id="Group" transform="translate(8.500000, 17.250000) rotate(90.000000) translate(-8.500000, -17.250000) translate(4.500000, 8.750000)" fill="#8D9EB0">
                                <g id="triangle" transform="translate(4.184082, 4.484497) rotate(-90.000000) translate(-4.184082, -4.484497) translate(0.184082, 0.984497)">
                                    <path d="M4.02723592,0.711644336 C4.12703962,0.452955657 4.29155011,0.459945469 4.38865709,0.711644336 L6.53998317,6.28782737 C6.63978687,6.54651605 6.50475454,6.75622466 6.22045725,6.75622466 L2.19543576,6.75622466 C1.91916277,6.75622466 1.77880286,6.53952624 1.87590985,6.28782737 L4.02723592,0.711644336 Z" id="Triangle-1" transform="translate(4.207947, 3.499736) rotate(90.000000) translate(-4.207947, -3.499736) "></path>
                                </g>
                                <path d="M3.68408203,4.98484439 C3.68408203,4.70851019 3.91601562,4.48449707 4.18408203,4.48449707 L4.18408203,4.48449707 C4.46022441,4.48449707 4.68408203,4.71349764 4.68408203,4.98484439 L4.68408203,15.9841498 C4.68408203,16.2604839 4.45214844,16.4844971 4.18408203,16.4844971 L4.18408203,16.4844971 C3.90793966,16.4844971 3.68408203,16.2554965 3.68408203,15.9841498 L3.68408203,4.98484439 Z" id="Rectangle-134"></path>
                            </g>
                        </g>
                        <g id="Group-4" transform="translate(19.500000, 0.000000)">
                            <path d="M1.5,0.75 L1.5,22" id="Path-2-Copy-2" stroke="#8D9EB0" stroke-linecap="round" transform="translate(1.500000, 11.375000) scale(1, -1) translate(-1.500000, -11.375000) "></path>
                            <g id="Group" transform="translate(9.000000, 17.250000) scale(-1, 1) rotate(90.000000) translate(-9.000000, -17.250000) translate(5.000000, 8.750000)" fill="#8D9EB0">
                                <g id="triangle" transform="translate(4.184082, 4.484497) rotate(-90.000000) translate(-4.184082, -4.484497) translate(0.184082, 0.984497)">
                                    <path d="M4.02723592,0.711644336 C4.12703962,0.452955657 4.29155011,0.459945469 4.38865709,0.711644336 L6.53998317,6.28782737 C6.63978687,6.54651605 6.50475454,6.75622466 6.22045725,6.75622466 L2.19543576,6.75622466 C1.91916277,6.75622466 1.77880286,6.53952624 1.87590985,6.28782737 L4.02723592,0.711644336 Z" id="Triangle-1" transform="translate(4.207947, 3.499736) rotate(90.000000) translate(-4.207947, -3.499736) "></path>
                                </g>
                                <path d="M3.68408203,4.98484439 C3.68408203,4.70851019 3.91601562,4.48449707 4.18408203,4.48449707 L4.18408203,4.48449707 C4.46022441,4.48449707 4.68408203,4.71349764 4.68408203,4.98484439 L4.68408203,15.9841498 C4.68408203,16.2604839 4.45214844,16.4844971 4.18408203,16.4844971 L4.18408203,16.4844971 C3.90793966,16.4844971 3.68408203,16.2554965 3.68408203,15.9841498 L3.68408203,4.98484439 Z" id="Rectangle-134"></path>
                            </g>
                        </g>
                        <path d="M15.668,26.966 C17.376,26.966 18.496,28.338 18.496,30.494 L18.496,31.25 C18.496,33.308 17.166,34.792 15.458,34.792 C14.66,34.792 14.016,34.498 13.498,33.966 L13.358,34.61 L12,34.61 L12,24.25 L13.736,24.25 L13.736,27.736 C14.212,27.246 14.856,26.966 15.668,26.966 Z M16.76,31.306 L16.76,30.438 C16.76,28.982 16.27,28.282 15.318,28.282 C14.646,28.282 14.114,28.604 13.736,29.08 L13.736,32.86 C14.114,33.266 14.59,33.49 15.164,33.49 C16.13,33.49 16.76,32.734 16.76,31.306 Z M21.436,33.182 L26.014,33.182 L26.014,34.61 L19.7,34.61 L19.7,33.616 C19.7,31.88 20.54,30.928 21.674,30.144 L23.018,29.22 C23.9,28.618 24.236,28.254 24.236,27.61 L24.236,27.274 C24.236,26.686 23.774,26 22.612,26 C21.772,26 21.114,26.252 20.274,26.84 L19.49,25.776 C20.4,25.062 21.422,24.628 22.724,24.628 C24.838,24.628 26,25.902 26,27.218 L26,27.652 C26,28.618 25.412,29.472 23.9,30.452 L22.822,31.152 C21.73,31.866 21.464,32.44 21.436,33.182 Z" id="b2" fill="#8D9EB0" fill-rule="nonzero"></path>
                    </g>
                    <g id="Group-2" transform="translate(0.000000, 1.000000)">
                        <g id="Group-8" transform="translate(31.000000, 55.500000) scale(1, -1) translate(-31.000000, -55.500000) translate(0.000000, 46.000000)">
                            <path d="M62,1 L0.5,1.5" id="Path-2-Copy" stroke="#8D9EB0" stroke-linecap="round"></path>
                            <g id="Group" transform="translate(11.000000, 9.500000) scale(1, -1) rotate(180.000000) translate(-11.000000, -9.500000) translate(7.000000, 0.000000)" fill="#8D9EB0">
                                <g id="triangle" transform="translate(4.184082, 4.484497) rotate(-90.000000) translate(-4.184082, -4.484497) translate(0.184082, 0.984497)">
                                    <path d="M4.02723592,0.711644336 C4.12703962,0.452955657 4.29155011,0.459945469 4.38865709,0.711644336 L6.53998317,6.28782737 C6.63978687,6.54651605 6.50475454,6.75622466 6.22045725,6.75622466 L2.19543576,6.75622466 C1.91916277,6.75622466 1.77880286,6.53952624 1.87590985,6.28782737 L4.02723592,0.711644336 Z" id="Triangle-1" transform="translate(4.207947, 3.499736) rotate(90.000000) translate(-4.207947, -3.499736) "></path>
                                </g>
                                <path d="M3.68408203,4.98276448 C3.68408203,4.70757899 3.91601562,4.48449707 4.18408203,4.48449707 L4.18408203,4.48449707 C4.46022441,4.48449707 4.68408203,4.70440364 4.68408203,4.98276448 L4.68408203,17.9862297 C4.68408203,18.2614152 4.45214844,18.4844971 4.18408203,18.4844971 L4.18408203,18.4844971 C3.90793966,18.4844971 3.68408203,18.2645905 3.68408203,17.9862297 L3.68408203,4.98276448 Z" id="Rectangle-134"></path>
                            </g>
                        </g>
                        <path d="M10.362,27.746 L5.268,27.746 L5.268,31.328 L9.966,31.328 L9.966,33.074 L5.268,33.074 L5.268,36.836 L10.362,36.836 L10.362,38.6 L3,38.6 L3,26 L10.362,26 L10.362,27.746 Z M17.436,36.89 L19.65,36.89 L19.65,38.6 L12.666,38.6 L12.666,36.89 L15.24,36.89 L15.24,28.448 L13.062,29.528 L12.234,28.052 L15.762,26 L17.436,26 L17.436,36.89 Z" id="E1" fill="#8D9EB0" fill-rule="nonzero"></path>
                        <g id="Group-8">
                            <path d="M61.5,1.5 L0.5,1.5" id="Path-2-Copy" stroke="#8D9EB0" stroke-linecap="round"></path>
                            <g id="Group" transform="translate(11.000000, 9.500000) scale(1, -1) rotate(180.000000) translate(-11.000000, -9.500000) translate(7.000000, 0.000000)" fill="#8D9EB0">
                                <g id="triangle" transform="translate(4.184082, 4.484497) rotate(-90.000000) translate(-4.184082, -4.484497) translate(0.184082, 0.984497)">
                                    <path d="M4.02723592,0.711644336 C4.12703962,0.452955657 4.29155011,0.459945469 4.38865709,0.711644336 L6.53998317,6.28782737 C6.63978687,6.54651605 6.50475454,6.75622466 6.22045725,6.75622466 L2.19543576,6.75622466 C1.91916277,6.75622466 1.77880286,6.53952624 1.87590985,6.28782737 L4.02723592,0.711644336 Z" id="Triangle-1" transform="translate(4.207947, 3.499736) rotate(90.000000) translate(-4.207947, -3.499736) "></path>
                                </g>
                                <path d="M3.68408203,4.98276448 C3.68408203,4.70757899 3.91601562,4.48449707 4.18408203,4.48449707 L4.18408203,4.48449707 C4.46022441,4.48449707 4.68408203,4.70440364 4.68408203,4.98276448 L4.68408203,17.9862297 C4.68408203,18.2614152 4.45214844,18.4844971 4.18408203,18.4844971 L4.18408203,18.4844971 C3.90793966,18.4844971 3.68408203,18.2645905 3.68408203,17.9862297 L3.68408203,4.98276448 Z" id="Rectangle-134"></path>
                            </g>
                        </g>
                    </g>
                    <g id="Group-3" transform="translate(58.000000, 0.000000)">
                        <path d="M51.716,3.492 C53.912,3.492 55.352,5.256 55.352,8.028 L55.352,9 C55.352,11.646 53.642,13.554 51.446,13.554 C50.42,13.554 49.592,13.176 48.926,12.492 L48.746,13.32 L47,13.32 L47,-1.33226763e-14 L49.232,-1.33226763e-14 L49.232,4.482 C49.844,3.852 50.672,3.492 51.716,3.492 Z M53.12,9.072 L53.12,7.956 C53.12,6.084 52.49,5.184 51.266,5.184 C50.402,5.184 49.718,5.598 49.232,6.21 L49.232,11.07 C49.718,11.592 50.33,11.88 51.068,11.88 C52.31,11.88 53.12,10.908 53.12,9.072 Z" id="b" fill="#8D9EB0" fill-rule="nonzero"></path>
                        <polyline id="Path-6" stroke="#8D9EB0" stroke-linecap="round" stroke-linejoin="round" points="23.5 23.5 40.5 7.5 45 7.5"></polyline>
                        <g id="Group-9" transform="translate(13.000000, 34.000000) rotate(45.000000) translate(-13.000000, -34.000000) translate(9.000000, 21.000000)" fill="#8D9EB0">
                            <g id="Group" transform="translate(4.000000, 8.500000) scale(1, -1) rotate(180.000000) translate(-4.000000, -8.500000) translate(0.000000, 0.000000)">
                                <g id="triangle" transform="translate(4.184082, 4.484497) rotate(-90.000000) translate(-4.184082, -4.484497) translate(0.184082, 0.984497)">
                                    <path d="M4.02723592,0.711644336 C4.12703962,0.452955657 4.29155011,0.459945469 4.38865709,0.711644336 L6.53998317,6.28782737 C6.63978687,6.54651605 6.50475454,6.75622466 6.22045725,6.75622466 L2.19543576,6.75622466 C1.91916277,6.75622466 1.77880286,6.53952624 1.87590985,6.28782737 L4.02723592,0.711644336 Z" id="Triangle-1" transform="translate(4.207947, 3.499736) rotate(90.000000) translate(-4.207947, -3.499736) "></path>
                                </g>
                                <path d="M3.68408203,4.98484439 C3.68408203,4.70851019 3.91601562,4.48449707 4.18408203,4.48449707 L4.18408203,4.48449707 C4.46022441,4.48449707 4.68408203,4.71349764 4.68408203,4.98484439 L4.68408203,15.9841498 C4.68408203,16.2604839 4.45214844,16.4844971 4.18408203,16.4844971 L4.18408203,16.4844971 C3.90793966,16.4844971 3.68408203,16.2554965 3.68408203,15.9841498 L3.68408203,4.98484439 Z" id="Rectangle-134"></path>
                            </g>
                            <g id="Group" transform="translate(4.000000, 17.500000) rotate(180.000000) translate(-4.000000, -17.500000) translate(0.000000, 9.000000)">
                                <g id="triangle" transform="translate(4.184082, 4.484497) rotate(-90.000000) translate(-4.184082, -4.484497) translate(0.184082, 0.984497)">
                                    <path d="M4.02723592,0.711644336 C4.12703962,0.452955657 4.29155011,0.459945469 4.38865709,0.711644336 L6.53998317,6.28782737 C6.63978687,6.54651605 6.50475454,6.75622466 6.22045725,6.75622466 L2.19543576,6.75622466 C1.91916277,6.75622466 1.77880286,6.53952624 1.87590985,6.28782737 L4.02723592,0.711644336 Z" id="Triangle-1" transform="translate(4.207947, 3.499736) rotate(90.000000) translate(-4.207947, -3.499736) "></path>
                                </g>
                                <path d="M3.68408203,4.98484439 C3.68408203,4.70851019 3.91601562,4.48449707 4.18408203,4.48449707 L4.18408203,4.48449707 C4.46022441,4.48449707 4.68408203,4.71349764 4.68408203,4.98484439 L4.68408203,15.9841498 C4.68408203,16.2604839 4.45214844,16.4844971 4.18408203,16.4844971 L4.18408203,16.4844971 C3.90793966,16.4844971 3.68408203,16.2554965 3.68408203,15.9841498 L3.68408203,4.98484439 Z" id="Rectangle-134"></path>
                            </g>
                        </g>
                    </g>
                    <g id="Group-5" transform="translate(24.000000, 9.000000)">
                        <path d="M5.726,28.54 L1.764,28.54 L1.764,31.326 L5.418,31.326 L5.418,32.684 L1.764,32.684 L1.764,35.61 L5.726,35.61 L5.726,36.982 L0,36.982 L0,27.182 L5.726,27.182 L5.726,28.54 Z M8.89,35.554 L13.468,35.554 L13.468,36.982 L7.154,36.982 L7.154,35.988 C7.154,34.252 7.994,33.3 9.128,32.516 L10.472,31.592 C11.354,30.99 11.69,30.626 11.69,29.982 L11.69,29.646 C11.69,29.058 11.228,28.372 10.066,28.372 C9.226,28.372 8.568,28.624 7.728,29.212 L6.944,28.148 C7.854,27.434 8.876,27 10.178,27 C12.292,27 13.454,28.274 13.454,29.59 L13.454,30.024 C13.454,30.99 12.866,31.844 11.354,32.824 L10.276,33.524 C9.184,34.238 8.918,34.812 8.89,35.554 Z" id="E2" fill="#8D9EB0" fill-rule="nonzero"></path>
                        <g id="Group-8" transform="translate(21.500000, 8.500000) scale(-1, 1) translate(-21.500000, -8.500000) ">
                            <path d="M43,1.5 L0,1.5" id="Path-2-Copy" stroke="#8D9EB0" stroke-linecap="round"></path>
                            <g id="Group" transform="translate(37.470000, 8.500000) scale(1, -1) rotate(180.000000) translate(-37.470000, -8.500000) translate(33.470000, 0.000000)" fill="#8D9EB0">
                                <g id="triangle" transform="translate(4.184082, 4.484497) rotate(-90.000000) translate(-4.184082, -4.484497) translate(0.184082, 0.984497)">
                                    <path d="M4.02723592,0.711644336 C4.12703962,0.452955657 4.29155011,0.459945469 4.38865709,0.711644336 L6.53998317,6.28782737 C6.63978687,6.54651605 6.50475454,6.75622466 6.22045725,6.75622466 L2.19543576,6.75622466 C1.91916277,6.75622466 1.77880286,6.53952624 1.87590985,6.28782737 L4.02723592,0.711644336 Z" id="Triangle-1" transform="translate(4.207947, 3.499736) rotate(90.000000) translate(-4.207947, -3.499736) "></path>
                                </g>
                                <path d="M3.68408203,4.98484439 C3.68408203,4.70851019 3.91601562,4.48449707 4.18408203,4.48449707 L4.18408203,4.48449707 C4.46022441,4.48449707 4.68408203,4.71349764 4.68408203,4.98484439 L4.68408203,15.9841498 C4.68408203,16.2604839 4.45214844,16.4844971 4.18408203,16.4844971 L4.18408203,16.4844971 C3.90793966,16.4844971 3.68408203,16.2554965 3.68408203,15.9841498 L3.68408203,4.98484439 Z" id="Rectangle-134"></path>
                            </g>
                        </g>
                        <g id="Group-8" transform="translate(6.500000, 17.500000) scale(-1, -1) translate(-6.500000, -17.500000) translate(0.000000, 9.000000)">
                            <path d="M12.97,1.5 L0.5,1.5" id="Path-2-Copy" stroke="#8D9EB0" stroke-linecap="round"></path>
                            <g id="Group" transform="translate(7.470000, 8.500000) scale(1, -1) rotate(180.000000) translate(-7.470000, -8.500000) translate(3.470000, 0.000000)" fill="#8D9EB0">
                                <g id="triangle" transform="translate(4.184082, 4.484497) rotate(-90.000000) translate(-4.184082, -4.484497) translate(0.184082, 0.984497)">
                                    <path d="M4.02723592,0.711644336 C4.12703962,0.452955657 4.29155011,0.459945469 4.38865709,0.711644336 L6.53998317,6.28782737 C6.63978687,6.54651605 6.50475454,6.75622466 6.22045725,6.75622466 L2.19543576,6.75622466 C1.91916277,6.75622466 1.77880286,6.53952624 1.87590985,6.28782737 L4.02723592,0.711644336 Z" id="Triangle-1" transform="translate(4.207947, 3.499736) rotate(90.000000) translate(-4.207947, -3.499736) "></path>
                                </g>
                                <path d="M3.68408203,4.98484439 C3.68408203,4.70851019 3.91601562,4.48449707 4.18408203,4.48449707 L4.18408203,4.48449707 C4.46022441,4.48449707 4.68408203,4.71349764 4.68408203,4.98484439 L4.68408203,15.9841498 C4.68408203,16.2604839 4.45214844,16.4844971 4.18408203,16.4844971 L4.18408203,16.4844971 C3.90793966,16.4844971 3.68408203,16.2554965 3.68408203,15.9841498 L3.68408203,4.98484439 Z" id="Rectangle-134"></path>
                            </g>
                        </g>
                    </g>
                </g>
                <g id="Group-14" transform="translate(136.000000, 0.000000)">
                    <g id="Group-12" transform="translate(46.000000, 17.000000)">
                        <g id="Group-8">
                            <path d="M15.5,0.5 L0.5,0.5" id="Path-2-Copy" stroke="#8D9EB0" stroke-linecap="round"></path>
                            <g id="Group" transform="translate(7.500000, 22.000000) scale(1, -1) rotate(180.000000) translate(-7.500000, -22.000000) translate(4.500000, 0.000000)" fill="#8D9EB0">
                                <g id="triangle" transform="translate(3.184082, 3.484497) rotate(-90.000000) translate(-3.184082, -3.484497) translate(0.184082, 0.984497)">
                                    <path d="M2.88775351,-0.425866237 C2.98755721,-0.684554916 3.15206769,-0.677565105 3.24917468,-0.425866237 L5.40050076,5.1503168 C5.50030446,5.40900548 5.36527212,5.61871408 5.08097484,5.61871408 L1.05595335,5.61871408 C0.779680363,5.61871408 0.639320451,5.40201566 0.736427439,5.1503168 L2.88775351,-0.425866237 Z" id="Triangle-1" transform="translate(3.069450, 2.500722) rotate(90.000000) translate(-3.069450, -2.500722) "></path>
                                </g>
                                <path d="M2.68408203,3.99024487 C2.68408203,3.71092807 2.91601562,3.48449707 3.18408203,3.48449707 L3.18408203,3.48449707 C3.46022441,3.48449707 3.68408203,3.69970798 3.68408203,3.99024487 L3.68408203,42.9787493 C3.68408203,43.2580661 3.45214844,43.4844971 3.18408203,43.4844971 L3.18408203,43.4844971 C2.90793966,43.4844971 2.68408203,43.2692862 2.68408203,42.9787493 L2.68408203,3.99024487 Z" id="Rectangle-134"></path>
                            </g>
                        </g>
                        <g id="Group-8" transform="translate(8.000000, 90.000000) scale(1, -1) translate(-8.000000, -90.000000) translate(0.000000, 68.000000)">
                            <path d="M15.5,0.5 L0.5,0.5" id="Path-2-Copy" stroke="#8D9EB0" stroke-linecap="round"></path>
                            <g id="Group" transform="translate(7.500000, 22.000000) scale(1, -1) rotate(180.000000) translate(-7.500000, -22.000000) translate(4.500000, 0.000000)" fill="#8D9EB0">
                                <g id="triangle" transform="translate(3.184082, 3.484497) rotate(-90.000000) translate(-3.184082, -3.484497) translate(0.184082, 0.984497)">
                                    <path d="M2.88775351,-0.425866237 C2.98755721,-0.684554916 3.15206769,-0.677565105 3.24917468,-0.425866237 L5.40050076,5.1503168 C5.50030446,5.40900548 5.36527212,5.61871408 5.08097484,5.61871408 L1.05595335,5.61871408 C0.779680363,5.61871408 0.639320451,5.40201566 0.736427439,5.1503168 L2.88775351,-0.425866237 Z" id="Triangle-1" transform="translate(3.069450, 2.500722) rotate(90.000000) translate(-3.069450, -2.500722) "></path>
                                </g>
                                <path d="M2.68408203,3.99024487 C2.68408203,3.71092807 2.91601563,3.48449707 3.18408203,3.48449707 L3.18408203,3.48449707 C3.46022441,3.48449707 3.68408203,3.69970798 3.68408203,3.99024487 L3.68408203,42.9787493 C3.68408203,43.2580661 3.45214844,43.4844971 3.18408203,43.4844971 L3.18408203,43.4844971 C2.90793966,43.4844971 2.68408203,43.2692862 2.68408203,42.9787493 L2.68408203,3.99024487 Z" id="Rectangle-134"></path>
                            </g>
                        </g>
                        <g id="Group-9" transform="translate(1.000000, 43.000000)"></g>
                    </g>
                    <g id="Group-13" transform="translate(0.500000, 17.000000)">
                        <g id="Group-10">
                            <g id="Group" transform="translate(11.000000, 12.000000) rotate(-90.000000) translate(-11.000000, -12.000000) translate(-1.000000, 5.000000)">
                                <g id="left-arrow-copy-3" transform="translate(11.500000, 7.500000) scale(-1, 1) translate(-11.500000, -7.500000) translate(0.000000, 5.000000)" fill="#8D9EB0">
                                    <g id="triangle" transform="translate(3.000000, 2.500000) scale(-1, 1) translate(-3.000000, -2.500000) translate(0.000000, 0.000000)">
                                        <path d="M2.88775351,-0.425866237 C2.98755721,-0.684554916 3.15206769,-0.677565105 3.24917468,-0.425866237 L5.40050076,5.1503168 C5.50030446,5.40900548 5.36527212,5.61871408 5.08097484,5.61871408 L1.05595335,5.61871408 C0.779680363,5.61871408 0.639320451,5.40201566 0.736427439,5.1503168 L2.88775351,-0.425866237 Z" id="Triangle-1" transform="translate(3.069450, 2.500722) rotate(90.000000) translate(-3.069450, -2.500722) "></path>
                                    </g>
                                    <path d="M2.85259834,2.39596207 C2.85259834,2.11622249 3.07720771,1.88944875 3.3469831,1.88944875 L22.3582136,1.88944875 C22.6312547,1.88944875 22.8525983,2.10428865 22.8525983,2.39596207 L22.8525983,2.3092346 C22.8525983,2.58897418 22.627989,2.81574792 22.3582136,2.81574792 L3.3469831,2.81574792 C3.07394194,2.81574792 2.85259834,2.60090803 2.85259834,2.3092346 L2.85259834,2.39596207 Z" id="Rectangle-144"></path>
                                </g>
                                <path d="M23.5,14 L23.5,7.10542736e-13" id="Path-2-Copy" stroke="#8D9EB0" stroke-linecap="round"></path>
                            </g>
                            <g id="Group-7-Copy-2" transform="translate(3.500000, 14.000000)"></g>
                            <polygon id="L1" fill="#8D9EB0" fill-rule="nonzero" points="2.53225806 21.3971429 7.11290323 21.3971429 7.11290323 23 0.5 23 0.5 12 2.53225806 12"></polygon>
                        </g>
                        <g id="Group" transform="translate(11.000000, 29.500000) scale(1, -1) rotate(-90.000000) translate(-11.000000, -29.500000) translate(2.500000, 22.500000)">
                            <g id="left-arrow-copy-3" transform="translate(8.000000, 7.500000) scale(-1, 1) translate(-8.000000, -7.500000) translate(0.000000, 5.000000)" fill="#8D9EB0">
                                <g id="triangle" transform="translate(3.000000, 2.500000) scale(-1, 1) translate(-3.000000, -2.500000) translate(0.000000, -0.000000)">
                                    <path d="M2.88775351,-0.425866237 C2.98755721,-0.684554916 3.15206769,-0.677565105 3.24917468,-0.425866237 L5.40050076,5.1503168 C5.50030446,5.40900548 5.36527212,5.61871408 5.08097484,5.61871408 L1.05595335,5.61871408 C0.779680363,5.61871408 0.639320451,5.40201566 0.736427439,5.1503168 L2.88775351,-0.425866237 Z" id="Triangle-1" transform="translate(3.069450, 2.500722) rotate(90.000000) translate(-3.069450, -2.500722) "></path>
                                </g>
                                <path d="M2.85259834,2.39596207 C2.85259834,2.11622249 3.07823768,1.88944875 3.34633937,1.88944875 L15.3588573,1.88944875 C15.6315429,1.88944875 15.8525983,2.10428865 15.8525983,2.39596207 L15.8525983,2.3092346 C15.8525983,2.58897418 15.626959,2.81574792 15.3588573,2.81574792 L3.34633937,2.81574792 C3.07365373,2.81574792 2.85259834,2.60090803 2.85259834,2.3092346 L2.85259834,2.39596207 Z" id="Rectangle-144"></path>
                            </g>
                            <path d="M16.5,14 L16.5,-3.69482223e-13" id="Path-2-Copy" stroke="#8D9EB0" stroke-linecap="round"></path>
                        </g>
                    </g>
                    <g id="Group-13-Copy" transform="translate(0.000000, 91.000000)">
                        <g id="Group-10">
                            <g id="Group" transform="translate(11.000000, 12.000000) rotate(-90.000000) translate(-11.000000, -12.000000) translate(-1.000000, 5.000000)">
                                <g id="left-arrow-copy-3" transform="translate(11.500000, 7.500000) scale(-1, 1) translate(-11.500000, -7.500000) translate(0.000000, 5.000000)" fill="#8D9EB0">
                                    <g id="triangle" transform="translate(3.000000, 2.500000) scale(-1, 1) translate(-3.000000, -2.500000) translate(0.000000, 0.000000)">
                                        <path d="M2.88775351,-0.425866237 C2.98755721,-0.684554916 3.15206769,-0.677565105 3.24917468,-0.425866237 L5.40050076,5.1503168 C5.50030446,5.40900548 5.36527212,5.61871408 5.08097484,5.61871408 L1.05595335,5.61871408 C0.779680363,5.61871408 0.639320451,5.40201566 0.736427439,5.1503168 L2.88775351,-0.425866237 Z" id="Triangle-1" transform="translate(3.069450, 2.500722) rotate(90.000000) translate(-3.069450, -2.500722) "></path>
                                    </g>
                                    <path d="M2.85259834,2.39596207 C2.85259834,2.11622249 3.07720771,1.88944875 3.3469831,1.88944875 L22.3582136,1.88944875 C22.6312547,1.88944875 22.8525983,2.10428865 22.8525983,2.39596207 L22.8525983,2.3092346 C22.8525983,2.58897418 22.627989,2.81574792 22.3582136,2.81574792 L3.3469831,2.81574792 C3.07394194,2.81574792 2.85259834,2.60090803 2.85259834,2.3092346 L2.85259834,2.39596207 Z" id="Rectangle-144"></path>
                                </g>
                                <path d="M23.5,14 L23.5,7.10542736e-13" id="Path-2-Copy" stroke="#8D9EB0" stroke-linecap="round"></path>
                            </g>
                            <g id="Group-7-Copy-2" transform="translate(3.500000, 14.000000)"></g>
                            <polygon id="L1" fill="#8D9EB0" fill-rule="nonzero" points="2.53225806 21.3971429 7.11290323 21.3971429 7.11290323 23 0.5 23 0.5 12 2.53225806 12"></polygon>
                        </g>
                        <g id="Group" transform="translate(11.000000, 29.500000) scale(1, -1) rotate(-90.000000) translate(-11.000000, -29.500000) translate(2.500000, 22.500000)">
                            <g id="left-arrow-copy-3" transform="translate(8.000000, 7.500000) scale(-1, 1) translate(-8.000000, -7.500000) translate(0.000000, 5.000000)" fill="#8D9EB0">
                                <g id="triangle" transform="translate(3.000000, 2.500000) scale(-1, 1) translate(-3.000000, -2.500000) translate(0.000000, -0.000000)">
                                    <path d="M2.88775351,-0.425866237 C2.98755721,-0.684554916 3.15206769,-0.677565105 3.24917468,-0.425866237 L5.40050076,5.1503168 C5.50030446,5.40900548 5.36527212,5.61871408 5.08097484,5.61871408 L1.05595335,5.61871408 C0.779680363,5.61871408 0.639320451,5.40201566 0.736427439,5.1503168 L2.88775351,-0.425866237 Z" id="Triangle-1" transform="translate(3.069450, 2.500722) rotate(90.000000) translate(-3.069450, -2.500722) "></path>
                                </g>
                                <path d="M2.85259834,2.39596207 C2.85259834,2.11622249 3.07823768,1.88944875 3.34633937,1.88944875 L15.3588573,1.88944875 C15.6315429,1.88944875 15.8525983,2.10428865 15.8525983,2.39596207 L15.8525983,2.3092346 C15.8525983,2.58897418 15.626959,2.81574792 15.3588573,2.81574792 L3.34633937,2.81574792 C3.07365373,2.81574792 2.85259834,2.60090803 2.85259834,2.3092346 L2.85259834,2.39596207 Z" id="Rectangle-144"></path>
                            </g>
                            <path d="M16.5,14 L16.5,-3.69482223e-13" id="Path-2-Copy" stroke="#8D9EB0" stroke-linecap="round"></path>
                        </g>
                    </g>
                    <g id="Group-3" transform="translate(7.000000, 0.000000)">
                        <g id="Group" transform="translate(0.000000, 1.000000)">
                            <g id="left-arrow-copy-3" transform="translate(5.500000, 6.500000) scale(-1, 1) translate(-5.500000, -6.500000) translate(0.000000, 5.000000)" fill="#8D9EB0">
                                <g id="triangle" transform="translate(2.000000, 1.500000) scale(-1, 1) translate(-2.000000, -1.500000) translate(-1.000000, -1.000000)">
                                    <path d="M2.88775351,-0.425866237 C2.98755721,-0.684554916 3.15206769,-0.677565105 3.24917468,-0.425866237 L5.40050076,5.1503168 C5.50030446,5.40900548 5.36527212,5.61871408 5.08097484,5.61871408 L1.05595335,5.61871408 C0.779680363,5.61871408 0.639320451,5.40201566 0.736427439,5.1503168 L2.88775351,-0.425866237 Z" id="Triangle-1" transform="translate(3.069450, 2.500722) rotate(90.000000) translate(-3.069450, -2.500722) "></path>
                                </g>
                                <path d="M1.85259834,1.39596207 C1.85259834,1.11622249 2.07856267,0.889448752 2.35576136,0.889448752 L9.79746299,0.889448752 C10.0753523,0.889448752 10.300626,1.10428865 10.300626,1.39596207 L10.300626,1.3092346 C10.300626,1.58897418 10.0746617,1.81574792 9.79746299,1.81574792 L2.35576136,1.81574792 C2.0778721,1.81574792 1.85259834,1.60090803 1.85259834,1.3092346 L1.85259834,1.39596207 Z" id="Rectangle-144"></path>
                            </g>
                            <path d="M12.5,14 L12.5,0" id="Path-2-Copy" stroke="#8D9EB0" stroke-linecap="round"></path>
                        </g>
                        <g id="Group" transform="translate(44.500000, 8.000000) scale(-1, 1) translate(-44.500000, -8.000000) translate(38.000000, 1.000000)">
                            <g id="left-arrow-copy-3" transform="translate(5.500000, 6.500000) scale(-1, 1) translate(-5.500000, -6.500000) translate(0.000000, 5.000000)" fill="#8D9EB0">
                                <g id="triangle" transform="translate(2.000000, 1.500000) scale(-1, 1) translate(-2.000000, -1.500000) translate(-1.000000, -1.000000)">
                                    <path d="M2.88775351,-0.425866237 C2.98755721,-0.684554916 3.15206769,-0.677565105 3.24917468,-0.425866237 L5.40050076,5.1503168 C5.50030446,5.40900548 5.36527212,5.61871408 5.08097484,5.61871408 L1.05595335,5.61871408 C0.779680363,5.61871408 0.639320451,5.40201566 0.736427439,5.1503168 L2.88775351,-0.425866237 Z" id="Triangle-1" transform="translate(3.069450, 2.500722) rotate(90.000000) translate(-3.069450, -2.500722) "></path>
                                </g>
                                <path d="M1.85259834,1.39596207 C1.85259834,1.11622249 2.07856267,0.889448752 2.35576136,0.889448752 L9.79746299,0.889448752 C10.0753523,0.889448752 10.300626,1.10428865 10.300626,1.39596207 L10.300626,1.3092346 C10.300626,1.58897418 10.0746617,1.81574792 9.79746299,1.81574792 L2.35576136,1.81574792 C2.0778721,1.81574792 1.85259834,1.60090803 1.85259834,1.3092346 L1.85259834,1.39596207 Z" id="Rectangle-144"></path>
                            </g>
                            <path d="M12.5,14 L12.5,0" id="Path-2-Copy" stroke="#8D9EB0" stroke-linecap="round"></path>
                        </g>
                        <polygon id="E" fill="#8D9EB0" fill-rule="nonzero" points="29.6382177 2.69290805 24.3315725 2.69290805 24.3315725 6.42443591 29.225687 6.42443591 29.225687 8.24332135 24.3315725 8.24332135 24.3315725 12.1623632 29.6382177 12.1623632 29.6382177 14 21.9688966 14 21.9688966 0.874022613 29.6382177 0.874022613"></polygon>
                    </g>
                    <path d="M57.2819412,80 L59.7196227,80 L55.5005585,66.8740226 L52.2940697,66.8740226 L48.2812709,80 L50.6626983,80 L51.6565223,76.5497431 L56.1943602,76.5497431 L57.2819412,80 Z M53.8879384,68.5241455 L55.6318183,74.6558521 L52.1815614,74.6558521 L53.8879384,68.5241455 Z" id="A" fill="#8D9EB0" fill-rule="nonzero"></path>
                    <g id="Group-6" transform="translate(38.000000, 120.000000)"></g>
                </g>
            </g>
        </g>
    </g>
</svg>