<?xml version="1.0" encoding="UTF-8"?>
<svg width="290px" height="175px" viewBox="0 0 290 175" version="1.1" xmlns="http://www.w3.org/2000/svg" xmlns:xlink="http://www.w3.org/1999/xlink">
    <!-- Generator: Sketch 58 (84663) - https://sketch.com -->
    <title>Standoff-Male-Female-Labeled</title>
    <desc>Created with Sketch.</desc>
    <defs>
        <rect id="path-1" x="0" y="0" width="12" height="106.8"></rect>
        <rect id="path-3" x="0" y="0" width="9.6" height="110.4"></rect>
        <rect id="path-5" x="0" y="0" width="12" height="37.2"></rect>
        <rect id="path-7" x="0" y="0" width="9.6" height="108"></rect>
    </defs>
    <g id="Standoff-Male-Female-Labeled" stroke="none" stroke-width="1" fill="none" fill-rule="evenodd">
        <g id="Group-12" transform="translate(25.000000, 13.000000)">
            <g id="Standoff-Male-Female" transform="translate(20.000000, 0.000000)">
                <g id="mounting-hole" transform="translate(18.000000, 43.000000)" stroke="#979797">
                    <g id="hole" transform="translate(32.000000, 32.000000) scale(-1, 1) translate(-32.000000, -32.000000) ">
                        <path d="M31.5428571,0.657142857 C14.4851482,0.657142857 0.657142857,14.4851482 0.657142857,31.5428571 C0.657142857,48.6005661 14.4851482,62.4285714 31.5428571,62.4285714 C48.6005661,62.4285714 62.4285714,48.6005661 62.4285714,31.5428571 C62.4285714,14.4851482 48.6005661,0.657142857 31.5428571,0.657142857 Z M31.5428571,19.0571429 C38.4385267,19.0571429 44.0285714,24.6471876 44.0285714,31.5428571 C44.0285714,38.4385267 38.4385267,44.0285714 31.5428571,44.0285714 C24.6471876,44.0285714 19.0571429,38.4385267 19.0571429,31.5428571 C19.0571429,24.6471876 24.6471876,19.0571429 31.5428571,19.0571429 Z" id="Combined-Shape" stroke-width="1.31428571" fill="#D9D9D9"></path>
                        <circle id="Oval" stroke-width="0.985714286" cx="31.5428571" cy="31.5428571" r="12.3214286"></circle>
                        <circle id="Oval" stroke-width="0.657142857" fill="#FFFFFF" cx="31.5428571" cy="8.87142857" r="1.97142857"></circle>
                        <circle id="Oval-Copy" stroke-width="0.657142857" fill="#FFFFFF" cx="31.5428571" cy="55.2" r="1.97142857"></circle>
                        <circle id="Oval-Copy-2" stroke-width="0.657142857" fill="#FFFFFF" cx="52.2428571" cy="43.3714286" r="1.97142857"></circle>
                        <circle id="Oval-Copy-4" stroke-width="0.657142857" fill="#FFFFFF" cx="11.8285714" cy="43.3714286" r="1.97142857"></circle>
                        <circle id="Oval-Copy-3" stroke-width="0.657142857" fill="#FFFFFF" cx="52.2428571" cy="19.7142857" r="1.97142857"></circle>
                        <circle id="Oval-Copy-5" stroke-width="0.657142857" fill="#FFFFFF" cx="11.8285714" cy="19.7142857" r="1.97142857"></circle>
                    </g>
                </g>
                <g id="male-female" transform="translate(135.000000, 21.000000)">
                    <g id="standoff-copy" transform="translate(12.700000, 54.000000) scale(-1, 1) translate(-12.700000, -54.000000) translate(0.200000, 0.000000)">
                        <g id="Threads-Dark" transform="translate(6.000000, 1.200000)">
                            <mask id="mask-2" fill="white">
                                <use xlink:href="#path-1"></use>
                            </mask>
                            <g id="Rectangle"></g>
                            <g id="Group-7-Copy" stroke-width="1" fill-rule="evenodd" mask="url(#mask-2)">
                                <g transform="translate(1.200000, -3.600000)">
                                    <mask id="mask-4" fill="white">
                                        <use xlink:href="#path-3"></use>
                                    </mask>
                                    <g id="Rectangle" stroke="none" fill="none"></g>
                                    <path d="M0,4.8 L0,7.2 L2.4,5.4 L1.6,4.8 L7.998,4.8 L9.599,6 L9.599,4.8 L10.8,4.8 L10.8,109.2 L9.599,109.199 L9.599,106.8 L7.2,108.6 L7.999,109.199 L1.599,109.199 L0,108 L0,109.199 L-1.2,109.2 L-1.2,4.8 L0,4.8 Z M0,104.4 L0,108 L2.4,106.2 L0,104.4 Z M9.599,103.2 L7.2,105 L9.599,106.8 L9.599,103.2 Z M0,100.8 L0,104.4 L2.4,102.6 L0,100.8 Z M9.599,99.6 L7.2,101.4 L9.599,103.2 L9.599,99.6 Z M0,97.2 L0,100.8 L2.4,99 L0,97.2 Z M9.599,96 L7.2,97.8 L9.599,99.6 L9.599,96 Z M0,93.6 L0,97.2 L2.4,95.4 L0,93.6 Z M9.599,92.4 L7.2,94.2 L9.599,96 L9.599,92.4 Z M0,90 L0,93.6 L2.4,91.8 L0,90 Z M9.599,88.8 L7.2,90.6 L9.599,92.4 L9.599,88.8 Z M0,86.4 L0,90 L2.4,88.2 L0,86.4 Z M9.599,85.2 L7.2,87 L9.599,88.8 L9.599,85.2 Z M0,82.8 L0,86.4 L2.4,84.6 L0,82.8 Z M9.599,81.599 L7.2,83.4 L9.599,85.2 L9.599,81.599 Z M0,79.2 L0,82.8 L2.4,81 L0,79.2 Z M9.599,77.999 L7.2,79.8 L9.599,81.599 L9.599,77.999 Z M0,75.6 L0,79.2 L2.4,77.4 L0,75.6 Z M9.599,74.4 L7.2,76.2 L9.599,77.999 L9.599,74.4 Z M0,72 L0,75.6 L2.4,73.8 L0,72 Z M9.599,70.8 L7.2,72.6 L9.599,74.4 L9.599,70.8 Z M0,68.4 L0,72 L2.4,70.2 L0,68.4 Z M9.599,67.2 L7.2,69 L9.599,70.8 L9.599,67.2 Z M0,64.8 L0,68.4 L2.4,66.6 L0,64.8 Z M9.599,63.6 L7.2,65.4 L9.599,67.2 L9.599,63.6 Z M0,61.2 L0,64.8 L2.4,63 L0,61.2 Z M9.599,60 L7.2,61.8 L9.599,63.6 L9.599,60 Z M0,57.6 L0,61.2 L2.4,59.4 L0,57.6 Z M9.599,56.4 L7.2,58.2 L9.599,60 L9.599,56.4 Z M0,54 L0,57.6 L2.4,55.8 L0,54 Z M9.599,52.8 L7.2,54.6 L9.599,56.4 L9.599,52.8 Z M0,50.4 L0,54 L2.4,52.2 L0,50.4 Z M9.599,49.2 L7.2,51 L9.599,52.8 L9.599,49.2 Z M0,46.8 L0,50.4 L2.4,48.6 L0,46.8 Z M9.599,45.6 L7.2,47.4 L9.599,49.2 L9.599,45.6 Z M0,43.2 L0,46.8 L2.4,45 L0,43.2 Z M9.599,41.999 L7.2,43.8 L9.599,45.6 L9.599,41.999 Z M0,39.6 L0,43.2 L2.4,41.4 L0,39.6 Z M9.599,38.4 L7.2,40.2 L9.599,41.999 L9.599,38.4 Z M0,36 L0,39.6 L2.4,37.8 L0,36 Z M9.599,34.8 L7.2,36.6 L9.599,38.4 L9.599,34.8 Z M0,32.4 L0,36 L2.4,34.2 L0,32.4 Z M9.599,31.2 L7.2,33 L9.599,34.8 L9.599,31.2 Z M0,28.8 L0,32.4 L2.4,30.6 L0,28.8 Z M9.599,27.6 L7.2,29.4 L9.599,31.2 L9.599,27.6 Z M0,25.2 L0,28.8 L2.4,27 L0,25.2 Z M9.599,24 L7.2,25.8 L9.599,27.6 L9.599,24 Z M0,21.6 L0,25.2 L2.4,23.4 L0,21.6 Z M9.599,20.4 L7.2,22.2 L9.599,24 L9.599,20.4 Z M0,18 L0,21.6 L2.4,19.8 L0,18 Z M9.599,16.8 L7.2,18.6 L9.599,20.4 L9.599,16.8 Z M0,14.4 L0,18 L2.4,16.2 L0,14.4 Z M9.599,13.2 L7.2,15 L9.599,16.8 L9.599,13.2 Z M0,10.8 L0,14.4 L2.4,12.6 L0,10.8 Z M9.599,9.6 L7.2,11.4 L9.599,13.2 L9.599,9.6 Z M0,7.2 L0,10.8 L2.4,9 L0,7.2 Z M9.599,6 L7.2,7.8 L9.599,9.6 L9.599,6 Z" id="Combined-Shape" stroke="none" fill="#D9D9D9" fill-rule="evenodd" mask="url(#mask-4)"></path>
                                    <polygon id="Path-18-Copy-46" stroke="#979797" stroke-width="1.2" fill="none" points="9 109.8 7.2 108.6 9.6 106.8 7.2 105 9.6 103.2 7.2 101.4 9.6 99.6 7.2 97.8 9.6 96 7.2 94.2 9.6 92.4 7.2 90.6 9.6 88.8 7.2 87 9.6 85.2 7.2 83.4 9.6 81.6 7.2 79.8 9.6 78 7.2 76.2 9.6 74.4 7.2 72.6 9.6 70.8 7.2 69 9.6 67.2 7.2 65.4 9.6 63.6 7.2 61.8 9.6 60 7.2 58.2 9.6 56.4 7.2 54.6 9.6 52.8 7.2 51 9.6 49.2 7.2 47.4 9.6 45.6 7.2 43.8 9.6 42 7.2 40.2 9.6 38.4 7.2 36.6 9.6 34.8 7.2 33 9.6 31.2 7.2 29.4 9.6 27.6 7.2 25.8 9.6 24 7.2 22.2 9.6 20.4 7.2 18.6 9.6 16.8 7.2 15 9.6 13.2 7.2 11.4 9.6 9.6 7.2 7.8 9.6 6 7.2 4.2 0.6 4.2 2.4 5.4 0 7.2 2.4 9 0 10.8 2.4 12.6 0 14.4 2.4 16.2 0 18 2.4 19.8 0 21.6 2.4 23.4 0 25.2 2.4 27 0 28.8 2.4 30.6 0 32.4 2.4 34.2 0 36 2.4 37.8 0 39.6 2.4 41.4 0 43.2 2.4 45 0 46.8 2.4 48.6 0 50.4 2.4 52.2 0 54 2.4 55.8 0 57.6 2.4 59.4 0 61.2 2.4 63 0 64.8 2.4 66.6 0 68.4 2.4 70.2 0 72 2.4 73.8 0 75.6 2.4 77.4 0 79.2 2.4 81 0 82.8 2.4 84.6 0 86.4 2.4 88.2 0 90 2.4 91.8 0 93.6 2.4 95.4 0 97.2 2.4 99 0 100.8 2.4 102.6 0 104.4 2.4 106.2 0 108 2.4 109.8"></polygon>
                                </g>
                            </g>
                        </g>
                        <rect id="Rectangle" stroke="#999999" stroke-width="1.2" fill="#D9D9D9" x="1.00769515" y="0.6" width="22.8" height="75.6"></rect>
                        <g id="Threads" transform="translate(12.000000, 19.400000) scale(1, -1) translate(-12.000000, -19.400000) translate(6.000000, 0.400000)">
                            <mask id="mask-6" fill="white">
                                <use xlink:href="#path-5"></use>
                            </mask>
                            <g id="Rectangle"></g>
                            <g id="Group-7-Copy" mask="url(#mask-6)">
                                <g transform="translate(1.200000, 6.000000)">
                                    <mask id="mask-8" fill="white">
                                        <use xlink:href="#path-7"></use>
                                    </mask>
                                    <g id="Rectangle" stroke="none" fill="none"></g>
                                    <path d="M0,105.6 L2.4,103.8 L0,102 L0,105.6 Z M9.599,100.8 L7.2,102.6 L9.6,104.4 L9.599,100.8 Z M0,98.4 L0,102 L2.4,100.2 L0,98.4 Z M9.599,97.2 L7.2,99 L9.599,100.8 L9.599,97.2 Z M0,94.8 L0,98.4 L2.4,96.6 L0,94.8 Z M9.599,93.6 L7.2,95.4 L9.599,97.2 L9.599,93.6 Z M0,91.2 L0,94.8 L2.4,93 L0,91.2 Z M9.599,90 L7.2,91.8 L9.599,93.6 L9.599,90 Z M0,87.6 L0,91.2 L2.4,89.4 L0,87.6 Z M9.599,86.4 L7.2,88.2 L9.599,90 L9.599,86.4 Z M0,84 L0,87.6 L2.4,85.8 L0,84 Z M9.599,82.8 L7.2,84.6 L9.599,86.4 L9.599,82.8 Z M0,80.4 L0,84 L2.4,82.2 L0,80.4 Z M9.599,79.2 L7.2,81 L9.599,82.8 L9.599,79.2 Z M0,76.8 L0,80.4 L2.4,78.6 L0,76.8 Z M9.599,75.599 L7.2,77.4 L9.599,79.2 L9.599,75.599 Z M0,73.2 L0,76.8 L2.4,75 L0,73.2 Z M9.599,71.999 L7.2,73.8 L9.599,75.599 L9.599,71.999 Z M0,69.6 L0,73.2 L2.4,71.4 L0,69.6 Z M9.599,68.4 L7.2,70.2 L9.599,71.999 L9.599,68.4 Z M0,66 L0,69.6 L2.4,67.8 L0,66 Z M9.599,64.799 L7.2,66.6 L9.599,68.4 L9.599,64.799 Z M0,62.4 L0,66 L2.4,64.2 L0,62.4 Z M9.599,61.199 L7.2,63 L9.599,64.799 L9.599,61.199 Z M0,58.8 L0,62.4 L2.4,60.6 L0,58.8 Z M9.599,57.599 L7.2,59.4 L9.599,61.199 L9.599,57.599 Z M0,55.2 L0,58.8 L2.4,57 L0,55.2 Z M9.599,54 L7.2,55.8 L9.599,57.599 L9.599,54 Z M0,51.6 L0,55.2 L2.4,53.4 L0,51.6 Z M9.599,50.4 L7.2,52.2 L9.599,54 L9.599,50.4 Z M0,48 L0,51.6 L2.4,49.8 L0,48 Z M9.599,46.799 L7.2,48.6 L9.599,50.4 L9.599,46.799 Z M0,44.4 L0,48 L2.4,46.2 L0,44.4 Z M9.599,43.2 L7.2,45 L9.599,46.799 L9.599,43.2 Z M0,40.8 L0,44.4 L2.4,42.6 L0,40.8 Z M9.599,39.6 L7.2,41.4 L9.599,43.2 L9.599,39.6 Z M0,37.2 L0,40.8 L2.4,39 L0,37.2 Z M9.599,35.999 L7.2,37.8 L9.599,39.6 L9.599,35.999 Z M0,33.6 L0,37.2 L2.4,35.4 L0,33.6 Z M9.599,32.4 L7.2,34.2 L9.599,35.999 L9.599,32.4 Z M0,30 L0,33.6 L2.4,31.8 L0,30 Z M9.599,28.799 L7.2,30.6 L9.599,32.4 L9.599,28.799 Z M0,26.4 L0,30 L2.4,28.2 L0,26.4 Z M9.599,25.199 L7.2,27 L9.599,28.799 L9.599,25.199 Z M0,22.8 L0,26.4 L2.4,24.6 L0,22.8 Z M9.599,21.599 L7.2,23.4 L9.599,25.199 L9.599,21.599 Z M0,19.2 L0,22.8 L2.4,21 L0,19.2 Z M9.599,18 L7.2,19.8 L9.599,21.599 L9.599,18 Z M0,15.6 L0,19.2 L2.4,17.4 L0,15.6 Z M9.599,14.399 L7.2,16.2 L9.599,18 L9.599,14.399 Z M0,12 L0,15.6 L2.4,13.8 L0,12 Z M9.599,10.799 L7.2,12.6 L9.599,14.399 L9.599,10.799 Z M0,8.4 L0,12 L2.4,10.2 L0,8.4 Z M9.599,7.199 L7.2,9 L9.599,10.799 L9.599,7.199 Z M0,4.8 L0,8.4 L2.4,6.6 L0,4.8 Z M9.599,3.599 L7.2,5.4 L9.599,7.199 L9.599,3.599 Z M0,1.2 L0,4.8 L2.4,3 L0,1.2 Z M9.599,-0.001 L7.2,1.8 L9.599,3.599 L9.599,-0.001 Z M0,-2.4 L0,1.2 L2.4,-0.6 L0,-2.4 Z M0,105.6 L-1.2,105.6 L-1.2,-2.4 L0,-2.4 L7.998,-2.4 L7.2,-1.8 L9.599,-0.001 L9.599,-2.4 L10.8,-2.4 L10.8,105.6 L0,105.6 Z" id="Combined-Shape" stroke="none" fill="#F3F3F3" fill-rule="evenodd" mask="url(#mask-8)"></path>
                                    <polyline id="Path-18-Copy-46" stroke="#979797" stroke-width="1.2" fill="none" transform="translate(4.800000, 54.000000) scale(1, -1) translate(-4.800000, -54.000000) " points="0 1.20670391 2.4 3.01675978 0 4.82681564 2.4 6.63687151 0 8.44692737 2.4 10.2569832 0 12.0670391 2.4 13.877095 0 15.6871508 2.4 17.4972067 0 19.3072626 2.4 21.1173184 0 22.9273743 2.4 24.7374302 0 26.547486 2.4 28.3575419 0 30.1675978 2.4 31.9776536 0 33.7877095 2.4 35.5977654 0 37.4078212 2.4 39.2178771 0 41.027933 2.4 42.8379888 0 44.6480447 2.4 46.4581006 0 48.2681564 2.4 50.0782123 0 51.8882682 2.4 53.698324 0 55.5083799 2.4 57.3184358 0 59.1284916 2.4 60.9385475 0 62.7486034 2.4 64.5586592 0 66.3687151 2.4 68.1787709 0 69.9888268 2.4 71.7988827 0 73.6089385 2.4 75.4189944 0 77.2290503 2.4 79.0391061 0 80.849162 2.4 82.6592179 0 84.4692737 2.4 86.2793296 0 88.0893855 2.4 89.8994413 0 91.7094972 2.4 93.5195531 0 95.3296089 2.4 97.1396648 0 98.9497207 2.4 100.759777 0 102.569832 2.4 104.379888 0 106.189944 2.4 108 9 108 7.2 106.793296 9.6 104.98324 7.2 103.173184 9.6 101.363128 7.2 99.5530726 9.6 97.7430168 7.2 95.9329609 9.6 94.122905 7.2 92.3128492 9.6 90.5027933 7.2 88.6927374 9.6 86.8826816 7.2 85.0726257 9.6 83.2625698 7.2 81.452514 9.6 79.6424581 7.2 77.8324022 9.6 76.0223464 7.2 74.2122905 9.6 72.4022346 7.2 70.5921788 9.6 68.7821229 7.2 66.972067 9.6 65.1620112 7.2 63.3519553 9.6 61.5418994 7.2 59.7318436 9.6 57.9217877 7.2 56.1117318 9.6 54.301676 7.2 52.4916201 9.6 50.6815642 7.2 48.8715084 9.6 47.0614525 7.2 45.2513966 9.6 43.4413408 7.2 41.6312849 9.6 39.8212291 7.2 38.0111732 9.6 36.2011173 7.2 34.3910615 9.6 32.5810056 7.2 30.7709497 9.6 28.9608939 7.2 27.150838 9.6 25.3407821 7.2 23.5307263 9.6 21.7206704 7.2 19.9106145 9.6 18.1005587 7.2 16.2905028 9.6 14.4804469 7.2 12.6703911 9.6 10.8603352 7.2 9.05027933 9.6 7.24022346 7.2 5.4301676 9.6 3.62011173 7.2 1.81005587 9.6 0"></polyline>
                                </g>
                            </g>
                        </g>
                    </g>
                </g>
            </g>
            <g id="Dimensions" transform="translate(0.000000, 5.000000)">
                <g id="Group-10" transform="translate(126.000000, 0.000000)">
                    <g id="Group-9" transform="translate(55.000000, 15.000000)">
                        <g id="Group-8">
                            <path d="M14.5,1.5 L0.5,1.5" id="Path-2-Copy" stroke="#8D9EB0" stroke-linecap="round"></path>
                            <g id="Group" transform="translate(7.500000, 12.500000) scale(1, -1) rotate(180.000000) translate(-7.500000, -12.500000) translate(4.500000, 0.000000)" fill="#8D9EB0">
                                <g id="triangle" transform="translate(3.184082, 4.484497) rotate(-90.000000) translate(-3.184082, -4.484497) translate(-0.815918, 1.984497)">
                                    <path d="M3.88775351,-0.425866237 C3.98755721,-0.684554916 4.15206769,-0.677565105 4.24917468,-0.425866237 L6.40050076,5.1503168 C6.50030446,5.40900548 6.36527212,5.61871408 6.08097484,5.61871408 L2.05595335,5.61871408 C1.77968036,5.61871408 1.63932045,5.40201566 1.73642744,5.1503168 L3.88775351,-0.425866237 Z" id="Triangle-1" transform="translate(4.069450, 2.500722) rotate(90.000000) translate(-4.069450, -2.500722) "></path>
                                </g>
                                <path d="M2.68408203,4.97888184 C2.68408203,4.70584067 2.91601562,4.48449707 3.18408203,4.48449707 L3.18408203,4.48449707 C3.46022441,4.48449707 3.68408203,4.70910645 3.68408203,4.97888184 L3.68408203,23.9901123 C3.68408203,24.2631535 3.45214844,24.4844971 3.18408203,24.4844971 L3.18408203,24.4844971 C2.90793966,24.4844971 2.68408203,24.2598877 2.68408203,23.9901123 L2.68408203,4.97888184 Z" id="Rectangle-134"></path>
                            </g>
                        </g>
                        <g id="Group-8" transform="translate(7.500000, 66.500000) scale(1, -1) translate(-7.500000, -66.500000) translate(0.000000, 54.000000)">
                            <path d="M14.5,1.5 L0.5,1.5" id="Path-2-Copy" stroke="#8D9EB0" stroke-linecap="round"></path>
                            <g id="Group" transform="translate(7.500000, 12.500000) scale(1, -1) rotate(180.000000) translate(-7.500000, -12.500000) translate(4.500000, 0.000000)" fill="#8D9EB0">
                                <g id="triangle" transform="translate(3.184082, 4.484497) rotate(-90.000000) translate(-3.184082, -4.484497) translate(-0.815918, 1.984497)">
                                    <path d="M3.88775351,-0.425866237 C3.98755721,-0.684554916 4.15206769,-0.677565105 4.24917468,-0.425866237 L6.40050076,5.1503168 C6.50030446,5.40900548 6.36527212,5.61871408 6.08097484,5.61871408 L2.05595335,5.61871408 C1.77968036,5.61871408 1.63932045,5.40201566 1.73642744,5.1503168 L3.88775351,-0.425866237 Z" id="Triangle-1" transform="translate(4.069450, 2.500722) rotate(90.000000) translate(-4.069450, -2.500722) "></path>
                                </g>
                                <path d="M2.68408203,4.97888184 C2.68408203,4.70584067 2.91601562,4.48449707 3.18408203,4.48449707 L3.18408203,4.48449707 C3.46022441,4.48449707 3.68408203,4.70910645 3.68408203,4.97888184 L3.68408203,23.9901123 C3.68408203,24.2631535 3.45214844,24.4844971 3.18408203,24.4844971 L3.18408203,24.4844971 C2.90793966,24.4844971 2.68408203,24.2598877 2.68408203,23.9901123 L2.68408203,4.97888184 Z" id="Rectangle-134"></path>
                            </g>
                        </g>
                        <path d="M10.2819412,46 L9.19436017,42.5497431 L4.65652227,42.5497431 L3.66269827,46 L1.28127094,46 L5.29406975,32.8740226 L8.50055851,32.8740226 L12.7196227,46 L10.2819412,46 Z M6.88793843,34.5241455 L5.18156137,40.6558521 L8.63181828,40.6558521 L6.88793843,34.5241455 Z" id="A" fill="#8D9EB0" fill-rule="nonzero"></path>
                    </g>
                    <g id="Group-3" transform="translate(17.000000, 0.000000)">
                        <g id="Group" transform="translate(0.000000, 1.000000)">
                            <g id="left-arrow-copy-3" transform="translate(5.500000, 6.500000) scale(-1, 1) translate(-5.500000, -6.500000) translate(0.000000, 5.000000)" fill="#8D9EB0">
                                <g id="triangle" transform="translate(2.000000, 1.500000) scale(-1, 1) translate(-2.000000, -1.500000) translate(-1.000000, -1.000000)">
                                    <path d="M2.88775351,-0.425866237 C2.98755721,-0.684554916 3.15206769,-0.677565105 3.24917468,-0.425866237 L5.40050076,5.1503168 C5.50030446,5.40900548 5.36527212,5.61871408 5.08097484,5.61871408 L1.05595335,5.61871408 C0.779680363,5.61871408 0.639320451,5.40201566 0.736427439,5.1503168 L2.88775351,-0.425866237 Z" id="Triangle-1" transform="translate(3.069450, 2.500722) rotate(90.000000) translate(-3.069450, -2.500722) "></path>
                                </g>
                                <path d="M1.85259834,1.39596207 C1.85259834,1.11622249 2.07856267,0.889448752 2.35576136,0.889448752 L9.79746299,0.889448752 C10.0753523,0.889448752 10.300626,1.10428865 10.300626,1.39596207 L10.300626,1.3092346 C10.300626,1.58897418 10.0746617,1.81574792 9.79746299,1.81574792 L2.35576136,1.81574792 C2.0778721,1.81574792 1.85259834,1.60090803 1.85259834,1.3092346 L1.85259834,1.39596207 Z" id="Rectangle-144"></path>
                            </g>
                            <path d="M12.5,14 L12.5,0" id="Path-2-Copy" stroke="#8D9EB0" stroke-linecap="round"></path>
                        </g>
                        <g id="Group" transform="translate(42.500000, 8.000000) scale(-1, 1) translate(-42.500000, -8.000000) translate(36.000000, 1.000000)">
                            <g id="left-arrow-copy-3" transform="translate(5.500000, 6.500000) scale(-1, 1) translate(-5.500000, -6.500000) translate(0.000000, 5.000000)" fill="#8D9EB0">
                                <g id="triangle" transform="translate(2.000000, 1.500000) scale(-1, 1) translate(-2.000000, -1.500000) translate(-1.000000, -1.000000)">
                                    <path d="M2.88775351,-0.425866237 C2.98755721,-0.684554916 3.15206769,-0.677565105 3.24917468,-0.425866237 L5.40050076,5.1503168 C5.50030446,5.40900548 5.36527212,5.61871408 5.08097484,5.61871408 L1.05595335,5.61871408 C0.779680363,5.61871408 0.639320451,5.40201566 0.736427439,5.1503168 L2.88775351,-0.425866237 Z" id="Triangle-1" transform="translate(3.069450, 2.500722) rotate(90.000000) translate(-3.069450, -2.500722) "></path>
                                </g>
                                <path d="M1.85259834,1.39596207 C1.85259834,1.11622249 2.07856267,0.889448752 2.35576136,0.889448752 L9.79746299,0.889448752 C10.0753523,0.889448752 10.300626,1.10428865 10.300626,1.39596207 L10.300626,1.3092346 C10.300626,1.58897418 10.0746617,1.81574792 9.79746299,1.81574792 L2.35576136,1.81574792 C2.0778721,1.81574792 1.85259834,1.60090803 1.85259834,1.3092346 L1.85259834,1.39596207 Z" id="Rectangle-144"></path>
                            </g>
                            <path d="M12.5,14 L12.5,0" id="Path-2-Copy" stroke="#8D9EB0" stroke-linecap="round"></path>
                        </g>
                        <polygon id="E" fill="#8D9EB0" fill-rule="nonzero" points="27.6382177 2.69290805 22.3315725 2.69290805 22.3315725 6.42443591 27.225687 6.42443591 27.225687 8.24332135 22.3315725 8.24332135 22.3315725 12.1623632 27.6382177 12.1623632 27.6382177 14 19.9688966 14 19.9688966 0.874022613 27.6382177 0.874022613"></polygon>
                    </g>
                    <g id="Group-2" transform="translate(10.000000, 15.000000)">
                        <g id="Group-5" transform="translate(11.500000, 10.500000) rotate(90.000000) translate(-11.500000, -10.500000) translate(1.500000, 3.500000)">
                            <g id="left-arrow" transform="translate(0.500000, 5.000000)" fill="#8D9EB0">
                                <g id="triangle" transform="translate(3.000000, 2.500000) scale(-1, 1) translate(-3.000000, -2.500000) translate(-0.000000, 0.000000)">
                                    <path d="M2.88775351,-0.425866237 C2.98755721,-0.684554916 3.15206769,-0.677565105 3.24917468,-0.425866237 L5.40050076,5.1503168 C5.50030446,5.40900548 5.36527212,5.61871408 5.08097484,5.61871408 L1.05595335,5.61871408 C0.779680363,5.61871408 0.639320451,5.40201566 0.736427439,5.1503168 L2.88775351,-0.425866237 Z" id="Triangle-1" transform="translate(3.069450, 2.500722) rotate(90.000000) translate(-3.069450, -2.500722) "></path>
                                </g>
                                <path d="M2.85259834,2.39596207 C2.85259834,2.11622249 3.07877937,1.88944875 3.34899154,1.88944875 L18.3562051,1.88944875 C18.6303555,1.88944875 18.8525983,2.10428865 18.8525983,2.39596207 L18.8525983,2.3092346 C18.8525983,2.58897418 18.6264173,2.81574792 18.3562051,2.81574792 L3.34899154,2.81574792 C3.07484114,2.81574792 2.85259834,2.60090803 2.85259834,2.3092346 L2.85259834,2.39596207 Z" id="Rectangle-144"></path>
                            </g>
                            <path d="M0.5,14 L0.5,-2.84217094e-14" id="Path-3" stroke="#8D9EB0" stroke-linecap="round"></path>
                        </g>
                        <g id="Group-4" transform="translate(11.500000, 26.000000) rotate(90.000000) translate(-11.500000, -26.000000) translate(4.000000, 19.000000)">
                            <g id="left-arrow-copy" transform="translate(7.000000, 7.500000) scale(-1, 1) translate(-7.000000, -7.500000) translate(-0.000000, 5.000000)" fill="#8D9EB0">
                                <g id="triangle" transform="translate(3.000000, 2.500000) scale(-1, 1) translate(-3.000000, -2.500000) translate(0.000000, 0.000000)">
                                    <path d="M2.88775351,-0.425866237 C2.98755721,-0.684554916 3.15206769,-0.677565105 3.24917468,-0.425866237 L5.40050076,5.1503168 C5.50030446,5.40900548 5.36527212,5.61871408 5.08097484,5.61871408 L1.05595335,5.61871408 C0.779680363,5.61871408 0.639320451,5.40201566 0.736427439,5.1503168 L2.88775351,-0.425866237 Z" id="Triangle-1" transform="translate(3.069450, 2.500722) rotate(90.000000) translate(-3.069450, -2.500722) "></path>
                                </g>
                                <path d="M2.85259834,2.39596207 C2.85259834,2.11622249 3.08234897,1.88944875 3.35382917,1.88944875 L13.3513675,1.88944875 C13.6281896,1.88944875 13.8525983,2.10428865 13.8525983,2.39596207 L13.8525983,2.3092346 C13.8525983,2.58897418 13.6228477,2.81574792 13.3513675,2.81574792 L3.35382917,2.81574792 C3.07700703,2.81574792 2.85259834,2.60090803 2.85259834,2.3092346 L2.85259834,2.39596207 Z" id="Rectangle-144"></path>
                            </g>
                            <path d="M14.5,14 L14.5,0" id="Path-2" stroke="#8D9EB0" stroke-linecap="round"></path>
                        </g>
                        <polygon id="L2" fill="#8D9EB0" fill-rule="nonzero" points="2.15121951 19.3971429 7 19.3971429 7 21 0 21 0 10 2.15121951 10"></polygon>
                    </g>
                    <g id="Group-2" transform="translate(0.000000, 102.000000)" fill="#8D9EB0" fill-rule="nonzero">
                        <g id="Group-7">
                            <path d="M2.03225806,9.39714286 L6.61290323,9.39714286 L6.61290323,11 L0,11 L0,0 L2.03225806,0 L2.03225806,9.39714286 Z M12.016129,9.50714286 L14,9.50714286 L14,11 L7.74193548,11 L7.74193548,9.50714286 L10.0483871,9.50714286 L10.0483871,2.13714286 L8.09677419,3.08 L7.35483871,1.79142857 L10.516129,0 L12.016129,0 L12.016129,9.50714286 Z" id="L1"></path>
                        </g>
                    </g>
                    <g id="Group-5" transform="translate(21.000000, 101.500000) rotate(90.000000) translate(-21.000000, -101.500000) translate(11.500000, 94.500000)">
                        <g id="left-arrow" transform="translate(0.500000, 5.000000)" fill="#8D9EB0">
                            <g id="triangle" transform="translate(3.000000, 2.500000) scale(-1, 1) translate(-3.000000, -2.500000) translate(-0.000000, 0.000000)">
                                <path d="M2.88775351,-0.425866237 C2.98755721,-0.684554916 3.15206769,-0.677565105 3.24917468,-0.425866237 L5.40050076,5.1503168 C5.50030446,5.40900548 5.36527212,5.61871408 5.08097484,5.61871408 L1.05595335,5.61871408 C0.779680363,5.61871408 0.639320451,5.40201566 0.736427439,5.1503168 L2.88775351,-0.425866237 Z" id="Triangle-1" transform="translate(3.069450, 2.500722) rotate(90.000000) translate(-3.069450, -2.500722) "></path>
                            </g>
                            <path d="M2.85259834,2.39596207 C2.85259834,2.11622249 3.07628093,1.88944875 3.35167518,1.88944875 L17.3535215,1.88944875 C17.629154,1.88944875 17.8525983,2.10428865 17.8525983,2.39596207 L17.8525983,2.3092346 C17.8525983,2.58897418 17.6289157,2.81574792 17.3535215,2.81574792 L3.35167518,2.81574792 C3.07604265,2.81574792 2.85259834,2.60090803 2.85259834,2.3092346 L2.85259834,2.39596207 Z" id="Rectangle-144"></path>
                        </g>
                        <path d="M0.5,14 L0.5,-2.84217094e-14" id="Path-3" stroke="#8D9EB0" stroke-linecap="round"></path>
                    </g>
                    <g id="Group-4" transform="translate(21.000000, 116.500000) rotate(90.000000) translate(-21.000000, -116.500000) translate(13.500000, 109.500000)">
                        <g id="left-arrow-copy" transform="translate(7.000000, 7.500000) scale(-1, 1) translate(-7.000000, -7.500000) translate(-0.000000, 5.000000)" fill="#8D9EB0">
                            <g id="triangle" transform="translate(3.000000, 2.500000) scale(-1, 1) translate(-3.000000, -2.500000) translate(0.000000, 0.000000)">
                                <path d="M2.88775351,-0.425866237 C2.98755721,-0.684554916 3.15206769,-0.677565105 3.24917468,-0.425866237 L5.40050076,5.1503168 C5.50030446,5.40900548 5.36527212,5.61871408 5.08097484,5.61871408 L1.05595335,5.61871408 C0.779680363,5.61871408 0.639320451,5.40201566 0.736427439,5.1503168 L2.88775351,-0.425866237 Z" id="Triangle-1" transform="translate(3.069450, 2.500722) rotate(90.000000) translate(-3.069450, -2.500722) "></path>
                            </g>
                            <path d="M2.85259834,2.39596207 C2.85259834,2.11622249 3.08234897,1.88944875 3.35382917,1.88944875 L13.3513675,1.88944875 C13.6281896,1.88944875 13.8525983,2.10428865 13.8525983,2.39596207 L13.8525983,2.3092346 C13.8525983,2.58897418 13.6228477,2.81574792 13.3513675,2.81574792 L3.35382917,2.81574792 C3.07700703,2.81574792 2.85259834,2.60090803 2.85259834,2.3092346 L2.85259834,2.39596207 Z" id="Rectangle-144"></path>
                        </g>
                        <path d="M14.5,14 L14.5,0" id="Path-2" stroke="#8D9EB0" stroke-linecap="round"></path>
                    </g>
                </g>
                <g id="Group-15" transform="translate(0.000000, 36.000000)">
                    <g id="Group-7" transform="translate(52.000000, 58.750000)">
                        <g id="Group-6">
                            <path d="M16,0.75 L16,22" id="Path-2-Copy" stroke="#8D9EB0" stroke-linecap="round" transform="translate(16.000000, 11.375000) scale(1, -1) translate(-16.000000, -11.375000) "></path>
                            <g id="Group" transform="translate(8.500000, 17.250000) rotate(90.000000) translate(-8.500000, -17.250000) translate(4.500000, 8.750000)" fill="#8D9EB0">
                                <g id="triangle" transform="translate(4.184082, 4.484497) rotate(-90.000000) translate(-4.184082, -4.484497) translate(0.184082, 0.984497)">
                                    <path d="M4.02723592,0.711644336 C4.12703962,0.452955657 4.29155011,0.459945469 4.38865709,0.711644336 L6.53998317,6.28782737 C6.63978687,6.54651605 6.50475454,6.75622466 6.22045725,6.75622466 L2.19543576,6.75622466 C1.91916277,6.75622466 1.77880286,6.53952624 1.87590985,6.28782737 L4.02723592,0.711644336 Z" id="Triangle-1" transform="translate(4.207947, 3.499736) rotate(90.000000) translate(-4.207947, -3.499736) "></path>
                                </g>
                                <path d="M3.68408203,4.98484439 C3.68408203,4.70851019 3.91601562,4.48449707 4.18408203,4.48449707 L4.18408203,4.48449707 C4.46022441,4.48449707 4.68408203,4.71349764 4.68408203,4.98484439 L4.68408203,15.9841498 C4.68408203,16.2604839 4.45214844,16.4844971 4.18408203,16.4844971 L4.18408203,16.4844971 C3.90793966,16.4844971 3.68408203,16.2554965 3.68408203,15.9841498 L3.68408203,4.98484439 Z" id="Rectangle-134"></path>
                            </g>
                        </g>
                        <g id="Group-4" transform="translate(19.500000, 0.000000)">
                            <path d="M1.5,0.75 L1.5,22" id="Path-2-Copy-2" stroke="#8D9EB0" stroke-linecap="round" transform="translate(1.500000, 11.375000) scale(1, -1) translate(-1.500000, -11.375000) "></path>
                            <g id="Group" transform="translate(9.000000, 17.250000) scale(-1, 1) rotate(90.000000) translate(-9.000000, -17.250000) translate(5.000000, 8.750000)" fill="#8D9EB0">
                                <g id="triangle" transform="translate(4.184082, 4.484497) rotate(-90.000000) translate(-4.184082, -4.484497) translate(0.184082, 0.984497)">
                                    <path d="M4.02723592,0.711644336 C4.12703962,0.452955657 4.29155011,0.459945469 4.38865709,0.711644336 L6.53998317,6.28782737 C6.63978687,6.54651605 6.50475454,6.75622466 6.22045725,6.75622466 L2.19543576,6.75622466 C1.91916277,6.75622466 1.77880286,6.53952624 1.87590985,6.28782737 L4.02723592,0.711644336 Z" id="Triangle-1" transform="translate(4.207947, 3.499736) rotate(90.000000) translate(-4.207947, -3.499736) "></path>
                                </g>
                                <path d="M3.68408203,4.98484439 C3.68408203,4.70851019 3.91601562,4.48449707 4.18408203,4.48449707 L4.18408203,4.48449707 C4.46022441,4.48449707 4.68408203,4.71349764 4.68408203,4.98484439 L4.68408203,15.9841498 C4.68408203,16.2604839 4.45214844,16.4844971 4.18408203,16.4844971 L4.18408203,16.4844971 C3.90793966,16.4844971 3.68408203,16.2554965 3.68408203,15.9841498 L3.68408203,4.98484439 Z" id="Rectangle-134"></path>
                            </g>
                        </g>
                        <path d="M15.668,26.966 C17.376,26.966 18.496,28.338 18.496,30.494 L18.496,31.25 C18.496,33.308 17.166,34.792 15.458,34.792 C14.66,34.792 14.016,34.498 13.498,33.966 L13.358,34.61 L12,34.61 L12,24.25 L13.736,24.25 L13.736,27.736 C14.212,27.246 14.856,26.966 15.668,26.966 Z M16.76,31.306 L16.76,30.438 C16.76,28.982 16.27,28.282 15.318,28.282 C14.646,28.282 14.114,28.604 13.736,29.08 L13.736,32.86 C14.114,33.266 14.59,33.49 15.164,33.49 C16.13,33.49 16.76,32.734 16.76,31.306 Z M21.436,33.182 L26.014,33.182 L26.014,34.61 L19.7,34.61 L19.7,33.616 C19.7,31.88 20.54,30.928 21.674,30.144 L23.018,29.22 C23.9,28.618 24.236,28.254 24.236,27.61 L24.236,27.274 C24.236,26.686 23.774,26 22.612,26 C21.772,26 21.114,26.252 20.274,26.84 L19.49,25.776 C20.4,25.062 21.422,24.628 22.724,24.628 C24.838,24.628 26,25.902 26,27.218 L26,27.652 C26,28.618 25.412,29.472 23.9,30.452 L22.822,31.152 C21.73,31.866 21.464,32.44 21.436,33.182 Z" id="b2" fill="#8D9EB0" fill-rule="nonzero"></path>
                    </g>
                    <g id="Group-2" transform="translate(0.000000, 1.000000)">
                        <g id="Group-8" transform="translate(31.000000, 55.500000) scale(1, -1) translate(-31.000000, -55.500000) translate(0.000000, 46.000000)">
                            <path d="M62,1 L0.5,1.5" id="Path-2-Copy" stroke="#8D9EB0" stroke-linecap="round"></path>
                            <g id="Group" transform="translate(11.000000, 9.500000) scale(1, -1) rotate(180.000000) translate(-11.000000, -9.500000) translate(7.000000, 0.000000)" fill="#8D9EB0">
                                <g id="triangle" transform="translate(4.184082, 4.484497) rotate(-90.000000) translate(-4.184082, -4.484497) translate(0.184082, 0.984497)">
                                    <path d="M4.02723592,0.711644336 C4.12703962,0.452955657 4.29155011,0.459945469 4.38865709,0.711644336 L6.53998317,6.28782737 C6.63978687,6.54651605 6.50475454,6.75622466 6.22045725,6.75622466 L2.19543576,6.75622466 C1.91916277,6.75622466 1.77880286,6.53952624 1.87590985,6.28782737 L4.02723592,0.711644336 Z" id="Triangle-1" transform="translate(4.207947, 3.499736) rotate(90.000000) translate(-4.207947, -3.499736) "></path>
                                </g>
                                <path d="M3.68408203,4.98276448 C3.68408203,4.70757899 3.91601562,4.48449707 4.18408203,4.48449707 L4.18408203,4.48449707 C4.46022441,4.48449707 4.68408203,4.70440364 4.68408203,4.98276448 L4.68408203,17.9862297 C4.68408203,18.2614152 4.45214844,18.4844971 4.18408203,18.4844971 L4.18408203,18.4844971 C3.90793966,18.4844971 3.68408203,18.2645905 3.68408203,17.9862297 L3.68408203,4.98276448 Z" id="Rectangle-134"></path>
                            </g>
                        </g>
                        <path d="M10.362,27.746 L5.268,27.746 L5.268,31.328 L9.966,31.328 L9.966,33.074 L5.268,33.074 L5.268,36.836 L10.362,36.836 L10.362,38.6 L3,38.6 L3,26 L10.362,26 L10.362,27.746 Z M17.436,36.89 L19.65,36.89 L19.65,38.6 L12.666,38.6 L12.666,36.89 L15.24,36.89 L15.24,28.448 L13.062,29.528 L12.234,28.052 L15.762,26 L17.436,26 L17.436,36.89 Z" id="E1" fill="#8D9EB0" fill-rule="nonzero"></path>
                        <g id="Group-8">
                            <path d="M61.5,1.5 L0.5,1.5" id="Path-2-Copy" stroke="#8D9EB0" stroke-linecap="round"></path>
                            <g id="Group" transform="translate(11.000000, 9.500000) scale(1, -1) rotate(180.000000) translate(-11.000000, -9.500000) translate(7.000000, 0.000000)" fill="#8D9EB0">
                                <g id="triangle" transform="translate(4.184082, 4.484497) rotate(-90.000000) translate(-4.184082, -4.484497) translate(0.184082, 0.984497)">
                                    <path d="M4.02723592,0.711644336 C4.12703962,0.452955657 4.29155011,0.459945469 4.38865709,0.711644336 L6.53998317,6.28782737 C6.63978687,6.54651605 6.50475454,6.75622466 6.22045725,6.75622466 L2.19543576,6.75622466 C1.91916277,6.75622466 1.77880286,6.53952624 1.87590985,6.28782737 L4.02723592,0.711644336 Z" id="Triangle-1" transform="translate(4.207947, 3.499736) rotate(90.000000) translate(-4.207947, -3.499736) "></path>
                                </g>
                                <path d="M3.68408203,4.98276448 C3.68408203,4.70757899 3.91601562,4.48449707 4.18408203,4.48449707 L4.18408203,4.48449707 C4.46022441,4.48449707 4.68408203,4.70440364 4.68408203,4.98276448 L4.68408203,17.9862297 C4.68408203,18.2614152 4.45214844,18.4844971 4.18408203,18.4844971 L4.18408203,18.4844971 C3.90793966,18.4844971 3.68408203,18.2645905 3.68408203,17.9862297 L3.68408203,4.98276448 Z" id="Rectangle-134"></path>
                            </g>
                        </g>
                    </g>
                    <g id="Group-3" transform="translate(58.000000, 0.000000)">
                        <path d="M51.716,3.492 C53.912,3.492 55.352,5.256 55.352,8.028 L55.352,9 C55.352,11.646 53.642,13.554 51.446,13.554 C50.42,13.554 49.592,13.176 48.926,12.492 L48.746,13.32 L47,13.32 L47,-1.33226763e-14 L49.232,-1.33226763e-14 L49.232,4.482 C49.844,3.852 50.672,3.492 51.716,3.492 Z M53.12,9.072 L53.12,7.956 C53.12,6.084 52.49,5.184 51.266,5.184 C50.402,5.184 49.718,5.598 49.232,6.21 L49.232,11.07 C49.718,11.592 50.33,11.88 51.068,11.88 C52.31,11.88 53.12,10.908 53.12,9.072 Z" id="b" fill="#8D9EB0" fill-rule="nonzero"></path>
                        <polyline id="Path-6" stroke="#8D9EB0" stroke-linecap="round" stroke-linejoin="round" points="23.5 23.5 40.5 7.5 45 7.5"></polyline>
                        <g id="Group-9" transform="translate(13.000000, 34.000000) rotate(45.000000) translate(-13.000000, -34.000000) translate(9.000000, 21.000000)" fill="#8D9EB0">
                            <g id="Group" transform="translate(4.000000, 8.500000) scale(1, -1) rotate(180.000000) translate(-4.000000, -8.500000) translate(0.000000, 0.000000)">
                                <g id="triangle" transform="translate(4.184082, 4.484497) rotate(-90.000000) translate(-4.184082, -4.484497) translate(0.184082, 0.984497)">
                                    <path d="M4.02723592,0.711644336 C4.12703962,0.452955657 4.29155011,0.459945469 4.38865709,0.711644336 L6.53998317,6.28782737 C6.63978687,6.54651605 6.50475454,6.75622466 6.22045725,6.75622466 L2.19543576,6.75622466 C1.91916277,6.75622466 1.77880286,6.53952624 1.87590985,6.28782737 L4.02723592,0.711644336 Z" id="Triangle-1" transform="translate(4.207947, 3.499736) rotate(90.000000) translate(-4.207947, -3.499736) "></path>
                                </g>
                                <path d="M3.68408203,4.98484439 C3.68408203,4.70851019 3.91601562,4.48449707 4.18408203,4.48449707 L4.18408203,4.48449707 C4.46022441,4.48449707 4.68408203,4.71349764 4.68408203,4.98484439 L4.68408203,15.9841498 C4.68408203,16.2604839 4.45214844,16.4844971 4.18408203,16.4844971 L4.18408203,16.4844971 C3.90793966,16.4844971 3.68408203,16.2554965 3.68408203,15.9841498 L3.68408203,4.98484439 Z" id="Rectangle-134"></path>
                            </g>
                            <g id="Group" transform="translate(4.000000, 17.500000) rotate(180.000000) translate(-4.000000, -17.500000) translate(0.000000, 9.000000)">
                                <g id="triangle" transform="translate(4.184082, 4.484497) rotate(-90.000000) translate(-4.184082, -4.484497) translate(0.184082, 0.984497)">
                                    <path d="M4.02723592,0.711644336 C4.12703962,0.452955657 4.29155011,0.459945469 4.38865709,0.711644336 L6.53998317,6.28782737 C6.63978687,6.54651605 6.50475454,6.75622466 6.22045725,6.75622466 L2.19543576,6.75622466 C1.91916277,6.75622466 1.77880286,6.53952624 1.87590985,6.28782737 L4.02723592,0.711644336 Z" id="Triangle-1" transform="translate(4.207947, 3.499736) rotate(90.000000) translate(-4.207947, -3.499736) "></path>
                                </g>
                                <path d="M3.68408203,4.98484439 C3.68408203,4.70851019 3.91601562,4.48449707 4.18408203,4.48449707 L4.18408203,4.48449707 C4.46022441,4.48449707 4.68408203,4.71349764 4.68408203,4.98484439 L4.68408203,15.9841498 C4.68408203,16.2604839 4.45214844,16.4844971 4.18408203,16.4844971 L4.18408203,16.4844971 C3.90793966,16.4844971 3.68408203,16.2554965 3.68408203,15.9841498 L3.68408203,4.98484439 Z" id="Rectangle-134"></path>
                            </g>
                        </g>
                    </g>
                    <g id="Group-5" transform="translate(24.000000, 9.000000)">
                        <path d="M5.726,28.54 L1.764,28.54 L1.764,31.326 L5.418,31.326 L5.418,32.684 L1.764,32.684 L1.764,35.61 L5.726,35.61 L5.726,36.982 L0,36.982 L0,27.182 L5.726,27.182 L5.726,28.54 Z M8.89,35.554 L13.468,35.554 L13.468,36.982 L7.154,36.982 L7.154,35.988 C7.154,34.252 7.994,33.3 9.128,32.516 L10.472,31.592 C11.354,30.99 11.69,30.626 11.69,29.982 L11.69,29.646 C11.69,29.058 11.228,28.372 10.066,28.372 C9.226,28.372 8.568,28.624 7.728,29.212 L6.944,28.148 C7.854,27.434 8.876,27 10.178,27 C12.292,27 13.454,28.274 13.454,29.59 L13.454,30.024 C13.454,30.99 12.866,31.844 11.354,32.824 L10.276,33.524 C9.184,34.238 8.918,34.812 8.89,35.554 Z" id="E2" fill="#8D9EB0" fill-rule="nonzero"></path>
                        <g id="Group-8" transform="translate(21.500000, 8.500000) scale(-1, 1) translate(-21.500000, -8.500000) ">
                            <path d="M43,1.5 L0,1.5" id="Path-2-Copy" stroke="#8D9EB0" stroke-linecap="round"></path>
                            <g id="Group" transform="translate(37.470000, 8.500000) scale(1, -1) rotate(180.000000) translate(-37.470000, -8.500000) translate(33.470000, 0.000000)" fill="#8D9EB0">
                                <g id="triangle" transform="translate(4.184082, 4.484497) rotate(-90.000000) translate(-4.184082, -4.484497) translate(0.184082, 0.984497)">
                                    <path d="M4.02723592,0.711644336 C4.12703962,0.452955657 4.29155011,0.459945469 4.38865709,0.711644336 L6.53998317,6.28782737 C6.63978687,6.54651605 6.50475454,6.75622466 6.22045725,6.75622466 L2.19543576,6.75622466 C1.91916277,6.75622466 1.77880286,6.53952624 1.87590985,6.28782737 L4.02723592,0.711644336 Z" id="Triangle-1" transform="translate(4.207947, 3.499736) rotate(90.000000) translate(-4.207947, -3.499736) "></path>
                                </g>
                                <path d="M3.68408203,4.98484439 C3.68408203,4.70851019 3.91601562,4.48449707 4.18408203,4.48449707 L4.18408203,4.48449707 C4.46022441,4.48449707 4.68408203,4.71349764 4.68408203,4.98484439 L4.68408203,15.9841498 C4.68408203,16.2604839 4.45214844,16.4844971 4.18408203,16.4844971 L4.18408203,16.4844971 C3.90793966,16.4844971 3.68408203,16.2554965 3.68408203,15.9841498 L3.68408203,4.98484439 Z" id="Rectangle-134"></path>
                            </g>
                        </g>
                        <g id="Group-8" transform="translate(6.500000, 17.500000) scale(-1, -1) translate(-6.500000, -17.500000) translate(0.000000, 9.000000)">
                            <path d="M12.97,1.5 L0.5,1.5" id="Path-2-Copy" stroke="#8D9EB0" stroke-linecap="round"></path>
                            <g id="Group" transform="translate(7.470000, 8.500000) scale(1, -1) rotate(180.000000) translate(-7.470000, -8.500000) translate(3.470000, 0.000000)" fill="#8D9EB0">
                                <g id="triangle" transform="translate(4.184082, 4.484497) rotate(-90.000000) translate(-4.184082, -4.484497) translate(0.184082, 0.984497)">
                                    <path d="M4.02723592,0.711644336 C4.12703962,0.452955657 4.29155011,0.459945469 4.38865709,0.711644336 L6.53998317,6.28782737 C6.63978687,6.54651605 6.50475454,6.75622466 6.22045725,6.75622466 L2.19543576,6.75622466 C1.91916277,6.75622466 1.77880286,6.53952624 1.87590985,6.28782737 L4.02723592,0.711644336 Z" id="Triangle-1" transform="translate(4.207947, 3.499736) rotate(90.000000) translate(-4.207947, -3.499736) "></path>
                                </g>
                                <path d="M3.68408203,4.98484439 C3.68408203,4.70851019 3.91601562,4.48449707 4.18408203,4.48449707 L4.18408203,4.48449707 C4.46022441,4.48449707 4.68408203,4.71349764 4.68408203,4.98484439 L4.68408203,15.9841498 C4.68408203,16.2604839 4.45214844,16.4844971 4.18408203,16.4844971 L4.18408203,16.4844971 C3.90793966,16.4844971 3.68408203,16.2554965 3.68408203,15.9841498 L3.68408203,4.98484439 Z" id="Rectangle-134"></path>
                            </g>
                        </g>
                    </g>
                </g>
            </g>
        </g>
    </g>
</svg>