<?xml version="1.0" encoding="UTF-8" standalone="no"?>
<svg width="200px" height="150px" viewBox="0 0 200 150" version="1.1" xmlns="http://www.w3.org/2000/svg" xmlns:xlink="http://www.w3.org/1999/xlink">
    <!-- Generator: Sketch 48.2 (47327) - http://www.bohemiancoding.com/sketch -->
    <title>TO-DPAK</title>
    <desc>Created with Sketch.</desc>
    <defs>
        <rect id="path-1" x="40" y="18" width="8" height="21"></rect>
        <rect id="path-2" x="41" y="27" width="6" height="1"></rect>
        <polyline id="path-3" points="131 132 115 132 115 94 131 94 131 132"></polyline>
        <rect id="path-4" x="116" y="119" width="14" height="1"></rect>
        <polyline id="path-5" points="156 132 140 132 140 94 156 94 156 132"></polyline>
        <rect id="path-6" x="141" y="119" width="14" height="1"></rect>
        <polyline id="path-7" points="181 132 165 132 165 94 181 94 181 132"></polyline>
        <rect id="path-8" x="166" y="119" width="14" height="1"></rect>
        <rect id="path-9" x="107" y="32" width="81" height="68" rx="2"></rect>
        <path d="M30.9933977,32 C30.4447593,32 29.5728075,32.1058255 29.0322418,32.2397361 L13.4577684,36.0978934 C12.6526652,36.2973361 12,37.1225346 12,37.9490269 L12,94.0509731 C12,94.8738832 12.6512635,95.7023166 13.4577684,95.9021066 L29.0322418,99.7602639 C29.5667199,99.8926665 30.4449463,100 30.9933977,100 L46.4962901,100 C47.3267661,100 48,99.3269801 48,98.500473 L48,33.499527 C48,32.6713611 47.338023,32 46.4962901,32 L30.9933977,32 Z" id="path-10"></path>
        <path d="M120.995752,81 C120.445813,81 120,80.5495514 120,79.993563 L120,28.0262124 C120,27.4703726 120.271755,26.6550182 120.596355,26.2193305 L126.123645,18.8004449 C126.453003,18.3583714 127.169172,18 127.719703,18 L168.280297,18 C168.832418,18 169.551755,18.3647572 169.876355,18.8004449 L175.403645,26.2193305 C175.733003,26.661404 176,27.470224 176,28.0262124 L176,79.993563 C176,80.5494028 175.549231,81 175.004248,81 L120.995752,81 Z" id="path-11"></path>
    </defs>
    <g stroke="none" stroke-width="1" fill="none" fill-rule="evenodd">
        <g>
            <g>
                <use fill="#D8D8D8" fill-rule="evenodd" xlink:href="#path-1"></use>
                <rect stroke="#979797" stroke-width="1" x="40.5" y="18.5" width="7" height="20"></rect>
            </g>
            <g>
                <use fill="#D8D8D8" fill-rule="evenodd" xlink:href="#path-2"></use>
                <rect stroke="#979797" stroke-width="1" x="41.5" y="27.5" width="5" height="1"></rect>
            </g>
            <g>
                <use fill="#D8D8D8" fill-rule="evenodd" xlink:href="#path-3"></use>
                <path stroke="#979797" stroke-width="1" d="M130.5,131.5 L130.5,94.5 L115.5,94.5 L115.5,131.5 L130.5,131.5 Z"></path>
            </g>
            <g>
                <use fill="#D8D8D8" fill-rule="evenodd" xlink:href="#path-4"></use>
                <rect stroke="#979797" stroke-width="1" x="116.5" y="119.5" width="13" height="1"></rect>
            </g>
            <g>
                <use fill="#D8D8D8" fill-rule="evenodd" xlink:href="#path-5"></use>
                <path stroke="#979797" stroke-width="1" d="M155.5,131.5 L155.5,94.5 L140.5,94.5 L140.5,131.5 L155.5,131.5 Z"></path>
            </g>
            <g>
                <use fill="#D8D8D8" fill-rule="evenodd" xlink:href="#path-6"></use>
                <rect stroke="#979797" stroke-width="1" x="141.5" y="119.5" width="13" height="1"></rect>
            </g>
            <g>
                <use fill="#D8D8D8" fill-rule="evenodd" xlink:href="#path-7"></use>
                <path stroke="#979797" stroke-width="1" d="M180.5,131.5 L180.5,94.5 L165.5,94.5 L165.5,131.5 L180.5,131.5 Z"></path>
            </g>
            <g>
                <use fill="#D8D8D8" fill-rule="evenodd" xlink:href="#path-8"></use>
                <rect stroke="#979797" stroke-width="1" x="166.5" y="119.5" width="13" height="1"></rect>
            </g>
            <g>
                <use fill="#585858" fill-rule="evenodd" xlink:href="#path-9"></use>
                <rect stroke="#505050" stroke-width="1" x="107.5" y="32.5" width="80" height="67" rx="2"></rect>
            </g>
            <path d="M29.4034555,107.856903 C29.4034555,108.568288 29.7787616,109.227106 30.3912391,109.590874 L43.0955248,120.471321 L43.0955248,127.57816 C43.0955248,128.692516 44.0005635,129.59588 45.1169852,129.59588 C46.2334069,129.59588 47.1384455,128.692516 47.1384455,127.57816 L47.1384455,119.285861 C47.1384455,118.574476 46.7631395,117.915658 46.1506619,117.55189 L33.4463762,106.719472 L33.4463762,87.9182496 C33.4463762,86.8038934 32.5413376,85.9005293 31.4249159,85.9005293 C30.3084942,85.9005293 29.4034555,86.8038934 29.4034555,87.9182496 L29.4034555,107.856903 Z" stroke="#979797" fill="#D8D8D8" fill-rule="nonzero"></path>
            <g>
                <use fill="#585858" fill-rule="evenodd" xlink:href="#path-10"></use>
                <path stroke="#505050" stroke-width="1" d="M30.9933977,32.5 C30.4831065,32.5 29.651592,32.601422 29.1524693,32.7250662 L13.5779959,36.5832236 C12.994025,36.7278867 12.5,37.3543811 12.5,37.9490269 L12.5,94.0509731 C12.5,94.6439583 12.9945006,95.2722311 13.5779959,95.4167764 L29.1524693,99.2749338 C29.6475859,99.3975856 30.4854398,99.5 30.9933977,99.5 L46.4962901,99.5 C47.0502757,99.5 47.5,99.0511841 47.5,98.500473 L47.5,33.499527 C47.5,32.9433382 47.057724,32.5 46.4962901,32.5 L30.9933977,32.5 Z"></path>
            </g>
            <polygon fill="#505050" points="28.8247358 33.2948836 46.7711206 33.2948836 46.7711206 99.4721775 28.8247358 99.4721775"></polygon>
            <g>
                <use fill="#D8D8D8" fill-rule="evenodd" xlink:href="#path-11"></use>
                <path stroke="#979797" stroke-width="1" d="M120.995752,80.5 L175.004248,80.5 C175.273986,80.5 175.5,80.2723438 175.5,79.993563 L175.5,28.0262124 C175.5,27.5776793 175.267628,26.87366 175.00269,26.5180535 L169.475401,19.0991679 C169.243408,18.7877805 168.671554,18.5 168.280297,18.5 L127.719703,18.5 C127.326441,18.5 126.759196,18.7842851 126.524599,19.0991679 L120.99731,26.5180535 C120.735423,26.8695652 120.5,27.5806904 120.5,28.0262124 L120.5,79.993563 C120.5,80.274534 120.723095,80.5 120.995752,80.5 Z"></path>
            </g>
        </g>
    </g>
</svg>