<?xml version="1.0" encoding="UTF-8" standalone="no"?>
<svg width="290px" height="175px" viewBox="0 0 290 175" version="1.1" xmlns="http://www.w3.org/2000/svg" xmlns:xlink="http://www.w3.org/1999/xlink">
    <!-- Generator: Sketch 48.2 (47327) - http://www.bohemiancoding.com/sketch -->
    <title>TO-DPAK-Labeled</title>
    <desc>Created with Sketch.</desc>
    <defs>
        <rect id="path-1" x="40" y="18" width="8" height="21"></rect>
        <rect id="path-2" x="41" y="27" width="6" height="1"></rect>
        <polyline id="path-3" points="131 132 115 132 115 94 131 94 131 132"></polyline>
        <rect id="path-4" x="116" y="119" width="14" height="1"></rect>
        <polyline id="path-5" points="156 132 140 132 140 94 156 94 156 132"></polyline>
        <rect id="path-6" x="141" y="119" width="14" height="1"></rect>
        <polyline id="path-7" points="181 132 165 132 165 94 181 94 181 132"></polyline>
        <rect id="path-8" x="166" y="119" width="14" height="1"></rect>
        <rect id="path-9" x="107" y="32" width="81" height="68" rx="2"></rect>
        <path d="M30.9933977,32 C30.4447593,32 29.5728075,32.1058255 29.0322418,32.2397361 L13.4577684,36.0978934 C12.6526652,36.2973361 12,37.1225346 12,37.9490269 L12,94.0509731 C12,94.8738832 12.6512635,95.7023166 13.4577684,95.9021066 L29.0322418,99.7602639 C29.5667199,99.8926665 30.4449463,100 30.9933977,100 L46.4962901,100 C47.3267661,100 48,99.3269801 48,98.500473 L48,33.499527 C48,32.6713611 47.338023,32 46.4962901,32 L30.9933977,32 Z" id="path-10"></path>
        <path d="M120.995752,81 C120.445813,81 120,80.5495514 120,79.993563 L120,28.0262124 C120,27.4703726 120.271755,26.6550182 120.596355,26.2193305 L126.123645,18.8004449 C126.453003,18.3583714 127.169172,18 127.719703,18 L168.280297,18 C168.832418,18 169.551755,18.3647572 169.876355,18.8004449 L175.403645,26.2193305 C175.733003,26.661404 176,27.470224 176,28.0262124 L176,79.993563 C176,80.5494028 175.549231,81 175.004248,81 L120.995752,81 Z" id="path-11"></path>
    </defs>
    <g stroke="none" stroke-width="1" fill="none" fill-rule="evenodd">
        <g>
            <g transform="translate(29.404297, 17.500000)">
                <g>
                    <use fill="#D8D8D8" fill-rule="evenodd" xlink:href="#path-1"></use>
                    <rect stroke="#979797" stroke-width="1" x="40.5" y="18.5" width="7" height="20"></rect>
                </g>
                <g>
                    <use fill="#D8D8D8" fill-rule="evenodd" xlink:href="#path-2"></use>
                    <rect stroke="#979797" stroke-width="1" x="41.5" y="27.5" width="5" height="1"></rect>
                </g>
                <g>
                    <use fill="#D8D8D8" fill-rule="evenodd" xlink:href="#path-3"></use>
                    <path stroke="#979797" stroke-width="1" d="M130.5,131.5 L130.5,94.5 L115.5,94.5 L115.5,131.5 L130.5,131.5 Z"></path>
                </g>
                <g>
                    <use fill="#D8D8D8" fill-rule="evenodd" xlink:href="#path-4"></use>
                    <rect stroke="#979797" stroke-width="1" x="116.5" y="119.5" width="13" height="1"></rect>
                </g>
                <g>
                    <use fill="#D8D8D8" fill-rule="evenodd" xlink:href="#path-5"></use>
                    <path stroke="#979797" stroke-width="1" d="M155.5,131.5 L155.5,94.5 L140.5,94.5 L140.5,131.5 L155.5,131.5 Z"></path>
                </g>
                <g>
                    <use fill="#D8D8D8" fill-rule="evenodd" xlink:href="#path-6"></use>
                    <rect stroke="#979797" stroke-width="1" x="141.5" y="119.5" width="13" height="1"></rect>
                </g>
                <g>
                    <use fill="#D8D8D8" fill-rule="evenodd" xlink:href="#path-7"></use>
                    <path stroke="#979797" stroke-width="1" d="M180.5,131.5 L180.5,94.5 L165.5,94.5 L165.5,131.5 L180.5,131.5 Z"></path>
                </g>
                <g>
                    <use fill="#D8D8D8" fill-rule="evenodd" xlink:href="#path-8"></use>
                    <rect stroke="#979797" stroke-width="1" x="166.5" y="119.5" width="13" height="1"></rect>
                </g>
                <g>
                    <use fill="#585858" fill-rule="evenodd" xlink:href="#path-9"></use>
                    <rect stroke="#505050" stroke-width="1" x="107.5" y="32.5" width="80" height="67" rx="2"></rect>
                </g>
                <path d="M29.4034555,107.856903 C29.4034555,108.568288 29.7787616,109.227106 30.3912391,109.590874 L43.0955248,120.471321 L43.0955248,127.57816 C43.0955248,128.692516 44.0005635,129.59588 45.1169852,129.59588 C46.2334069,129.59588 47.1384455,128.692516 47.1384455,127.57816 L47.1384455,119.285861 C47.1384455,118.574476 46.7631395,117.915658 46.1506619,117.55189 L33.4463762,106.719472 L33.4463762,87.9182496 C33.4463762,86.8038934 32.5413376,85.9005293 31.4249159,85.9005293 C30.3084942,85.9005293 29.4034555,86.8038934 29.4034555,87.9182496 L29.4034555,107.856903 Z" stroke="#979797" stroke-width="1" fill="#D8D8D8" fill-rule="nonzero"></path>
                <g>
                    <use fill="#585858" fill-rule="evenodd" xlink:href="#path-10"></use>
                    <path stroke="#505050" stroke-width="1" d="M30.9933977,32.5 C30.4831065,32.5 29.651592,32.601422 29.1524693,32.7250662 L13.5779959,36.5832236 C12.994025,36.7278867 12.5,37.3543811 12.5,37.9490269 L12.5,94.0509731 C12.5,94.6439583 12.9945006,95.2722311 13.5779959,95.4167764 L29.1524693,99.2749338 C29.6475859,99.3975856 30.4854398,99.5 30.9933977,99.5 L46.4962901,99.5 C47.0502757,99.5 47.5,99.0511841 47.5,98.500473 L47.5,33.499527 C47.5,32.9433382 47.057724,32.5 46.4962901,32.5 L30.9933977,32.5 Z"></path>
                </g>
                <polygon fill="#505050" fill-rule="evenodd" points="28.8247358 33.2948836 46.7711206 33.2948836 46.7711206 99.4721775 28.8247358 99.4721775"></polygon>
                <g>
                    <use fill="#D8D8D8" fill-rule="evenodd" xlink:href="#path-11"></use>
                    <path stroke="#979797" stroke-width="1" d="M120.995752,80.5 L175.004248,80.5 C175.273986,80.5 175.5,80.2723438 175.5,79.993563 L175.5,28.0262124 C175.5,27.5776793 175.267628,26.87366 175.00269,26.5180535 L169.475401,19.0991679 C169.243408,18.7877805 168.671554,18.5 168.280297,18.5 L127.719703,18.5 C127.326441,18.5 126.759196,18.7842851 126.524599,19.0991679 L120.99731,26.5180535 C120.735423,26.8695652 120.5,27.5806904 120.5,28.0262124 L120.5,79.993563 C120.5,80.274534 120.723095,80.5 120.995752,80.5 Z"></path>
                </g>
            </g>
            <g transform="translate(81.910400, 21.948226)" fill="#8D9EB0">
                <g transform="translate(2.968994, 9.819735) rotate(90.000000) translate(-2.968994, -9.819735) translate(-0.031006, 7.319735)">
                    <path d="M2.88775351,-0.425866237 C2.98755721,-0.684554916 3.15206769,-0.677565105 3.24917468,-0.425866237 L5.40050076,5.1503168 C5.50030446,5.40900548 5.36527212,5.61871408 5.08097484,5.61871408 L1.05595335,5.61871408 C0.779680363,5.61871408 0.639320451,5.40201566 0.736427439,5.1503168 L2.88775351,-0.425866237 Z" transform="translate(3.069450, 2.500722) rotate(90.000000) translate(-3.069450, -2.500722) "></path>
                </g>
                <rect x="2.46899414" y="0.819735308" width="1" height="8.00952148" rx="0.5"></rect>
                <rect x="2.46899414" y="0.819735308" width="6" height="1" rx="0.5"></rect>
            </g>
            <path d="M121.668491,77.3832488 L116.361846,77.3832488 L116.361846,81.1147767 L121.25596,81.1147767 L121.25596,82.9336621 L116.361846,82.9336621 L116.361846,86.8527039 L121.668491,86.8527039 L121.668491,88.6903408 L113.99917,88.6903408 L113.99917,75.5643634 L121.668491,75.5643634 L121.668491,77.3832488 Z M129.03779,86.9089581 L131.344212,86.9089581 L131.344212,88.6903408 L124.06867,88.6903408 L124.06867,86.9089581 L126.75012,86.9089581 L126.75012,78.1145533 L124.481201,79.2396371 L123.618636,77.7020226 L127.29391,75.5643634 L129.03779,75.5643634 L129.03779,86.9089581 Z" fill="#8D9EB0"></path>
            <path d="M235.638218,60.9103153 L230.331573,60.9103153 L230.331573,64.6418431 L235.225687,64.6418431 L235.225687,66.4607286 L230.331573,66.4607286 L230.331573,70.3797704 L235.638218,70.3797704 L235.638218,72.2174072 L227.968897,72.2174072 L227.968897,59.0914298 L235.638218,59.0914298 L235.638218,60.9103153 Z M239.876033,70.3047648 L246.00774,70.3047648 L246.00774,72.2174072 L237.55086,72.2174072 L237.55086,70.8860581 C237.55086,68.560885 238.675944,67.28579 240.194807,66.2357118 L241.994941,64.9981197 C243.176279,64.1918096 243.626312,63.7042733 243.626312,62.8417091 L243.626312,62.3916756 C243.626312,61.6041169 243.007516,60.6852985 241.451151,60.6852985 C240.326067,60.6852985 239.444751,61.0228237 238.319667,61.8103823 L237.269589,60.3852762 C238.48843,59.428955 239.857282,58.8476617 241.601162,58.8476617 C244.432623,58.8476617 245.988988,60.5540387 245.988988,62.31667 L245.988988,62.8979633 C245.988988,64.1918096 245.20143,65.3356448 243.176279,66.6482425 L241.732421,67.5858123 C240.269813,68.5421336 239.913536,69.3109408 239.876033,70.3047648 Z" fill="#8D9EB0"></path>
            <polygon fill="#8D9EB0" points="271.138218 85.9103153 265.831573 85.9103153 265.831573 89.6418431 270.725687 89.6418431 270.725687 91.4607286 265.831573 91.4607286 265.831573 95.3797704 271.138218 95.3797704 271.138218 97.2174072 263.468897 97.2174072 263.468897 84.0914298 271.138218 84.0914298"></polygon>
            <path d="M62.8373,25.6361084 L61.7497191,22.1858515 L57.2118812,22.1858515 L56.2180572,25.6361084 L53.8366298,25.6361084 L57.8494286,12.510131 L61.0559174,12.510131 L65.2749816,25.6361084 L62.8373,25.6361084 Z M59.4432973,14.1602539 L57.7369203,20.2919605 L61.1871772,20.2919605 L59.4432973,14.1602539 Z" fill="#8D9EB0"></path>
            <path d="M76.4445801,12.9556417 C76.4445801,12.6840421 76.6765137,12.4638672 76.9445801,12.4638672 L76.9445801,12.4638672 C77.2207225,12.4638672 77.4445801,12.6869682 77.4445801,12.9556417 L77.4445801,34.5135795 C77.4445801,34.785179 77.2126465,35.005354 76.9445801,35.005354 L76.9445801,35.005354 C76.6684377,35.005354 76.4445801,34.782253 76.4445801,34.5135795 L76.4445801,12.9556417 Z" fill="#8D9EB0"></path>
            <rect fill="#8D9EB0" x="41.4315796" y="12.4638672" width="1" height="39.75354" rx="0.5"></rect>
            <g transform="translate(42.625549, 17.474976)" fill="#8D9EB0">
                <g transform="translate(3.085449, 3.453524) scale(-1, 1) translate(-3.085449, -3.453524) translate(0.085449, 0.953524)">
                    <path d="M2.88775351,-0.425866237 C2.98755721,-0.684554916 3.15206769,-0.677565105 3.24917468,-0.425866237 L5.40050076,5.1503168 C5.50030446,5.40900548 5.36527212,5.61871408 5.08097484,5.61871408 L1.05595335,5.61871408 C0.779680363,5.61871408 0.639320451,5.40201566 0.736427439,5.1503168 L2.88775351,-0.425866237 Z" transform="translate(3.069450, 2.500722) rotate(90.000000) translate(-3.069450, -2.500722) "></path>
                </g>
                <rect x="2.93804755" y="2.84297312" width="8.23510918" height="1" rx="0.5"></rect>
            </g>
            <g transform="translate(70.948547, 20.474976) scale(-1, 1) translate(-70.948547, -20.474976) translate(65.448547, 17.474976)" fill="#8D9EB0">
                <g transform="translate(3.085449, 3.453524) scale(-1, 1) translate(-3.085449, -3.453524) translate(0.085449, 0.953524)">
                    <path d="M2.88775351,-0.425866237 C2.98755721,-0.684554916 3.15206769,-0.677565105 3.24917468,-0.425866237 L5.40050076,5.1503168 C5.50030446,5.40900548 5.36527212,5.61871408 5.08097484,5.61871408 L1.05595335,5.61871408 C0.779680363,5.61871408 0.639320451,5.40201566 0.736427439,5.1503168 L2.88775351,-0.425866237 Z" transform="translate(3.069450, 2.500722) rotate(90.000000) translate(-3.069450, -2.500722) "></path>
                </g>
                <rect x="2.93804755" y="2.84297312" width="8" height="1" rx="0.5"></rect>
            </g>
            <path d="M94.3315725,28.0586545 L99.6569691,28.0586545 L99.6569691,29.9712969 L91.9688966,29.9712969 L91.9688966,16.8453195 L94.3315725,16.8453195 L94.3315725,28.0586545 Z M105.938687,28.1899143 L108.245109,28.1899143 L108.245109,29.9712969 L100.969567,29.9712969 L100.969567,28.1899143 L103.651016,28.1899143 L103.651016,19.3955094 L101.382098,20.5205932 L100.519533,18.9829787 L104.194807,16.8453195 L105.938687,16.8453195 L105.938687,28.1899143 Z" fill="#8D9EB0"></path>
            <g transform="translate(136.000000, 5.721680)" fill="#8D9EB0">
                <g transform="translate(3.832124, 3.275391) scale(-1, 1) translate(-3.832124, -3.275391) translate(0.832124, 0.775391)">
                    <path d="M2.88775351,-0.425866237 C2.98755721,-0.684554916 3.15206769,-0.677565105 3.24917468,-0.425866237 L5.40050076,5.1503168 C5.50030446,5.40900548 5.36527212,5.61871408 5.08097484,5.61871408 L1.05595335,5.61871408 C0.779680363,5.61871408 0.639320451,5.40201566 0.736427439,5.1503168 L2.88775351,-0.425866237 Z" transform="translate(3.069450, 2.500722) rotate(90.000000) translate(-3.069450, -2.500722) "></path>
                </g>
                <rect x="3.68472202" y="2.66483938" width="30.8514718" height="1" rx="0.5"></rect>
            </g>
            <g transform="translate(200.152954, 8.721680) scale(-1, 1) translate(-200.152954, -8.721680) translate(183.652954, 5.721680)" fill="#8D9EB0">
                <g transform="translate(3.832124, 3.275391) scale(-1, 1) translate(-3.832124, -3.275391) translate(0.832124, 0.775391)">
                    <path d="M2.88775351,-0.425866237 C2.98755721,-0.684554916 3.15206769,-0.677565105 3.24917468,-0.425866237 L5.40050076,5.1503168 C5.50030446,5.40900548 5.36527212,5.61871408 5.08097484,5.61871408 L1.05595335,5.61871408 C0.779680363,5.61871408 0.639320451,5.40201566 0.736427439,5.1503168 L2.88775351,-0.425866237 Z" transform="translate(3.069450, 2.500722) rotate(90.000000) translate(-3.069450, -2.500722) "></path>
                </g>
                <rect x="3.68472202" y="2.66483938" width="28.9071969" height="1" rx="0.5"></rect>
            </g>
            <path d="M177.200466,3.3489982 C180.763232,3.3489982 182.544614,5.44915458 182.544614,8.59938915 L182.544614,10.9245623 C182.544614,14.3373164 180.519463,16.4749756 176.731681,16.4749756 L172.906397,16.4749756 L172.906397,3.3489982 L177.200466,3.3489982 Z M180.181938,10.9620651 L180.181938,8.54313496 C180.181938,6.40547579 179.169363,5.16788364 177.087958,5.16788364 L175.269073,5.16788364 L175.269073,14.6560901 L176.750433,14.6560901 C179.038103,14.6560901 180.181938,13.4560008 180.181938,10.9620651 Z" fill="#8D9EB0"></path>
            <path d="M173.962986,23.3384701 C176.250656,23.3384701 177.750768,25.176107 177.750768,28.063822 L177.750768,29.0763974 C177.750768,31.8328526 175.969385,33.8205006 173.681715,33.8205006 C172.612885,33.8205006 171.750321,33.4267213 171.056519,32.7141683 L170.869006,33.5767325 L169.05012,33.5767325 L169.05012,19.7006992 L171.375293,19.7006992 L171.375293,24.3697969 C172.012841,23.713498 172.875405,23.3384701 173.962986,23.3384701 Z M175.425595,29.151403 L175.425595,27.9888164 C175.425595,26.0386712 174.769296,25.1011014 173.494201,25.1011014 C172.594134,25.1011014 171.881581,25.5323835 171.375293,26.169931 L171.375293,31.232808 C171.881581,31.7765984 172.519128,32.0766208 173.287936,32.0766208 C174.581782,32.0766208 175.425595,31.0640454 175.425595,29.151403 Z M184.820044,31.7953498 L187.126466,31.7953498 L187.126466,33.5767325 L179.850924,33.5767325 L179.850924,31.7953498 L182.532374,31.7953498 L182.532374,23.000945 L180.263455,24.1260288 L179.400891,22.5884143 L183.076164,20.4507551 L184.820044,20.4507551 L184.820044,31.7953498 Z" fill="#8D9EB0"></path>
            <rect fill="#8D9EB0" x="136.238403" y="5.72167969" width="1" height="43" rx="0.5"></rect>
            <rect fill="#8D9EB0" x="149.345215" y="20.3449707" width="1" height="20.5349121" rx="0.5"></rect>
            <rect fill="#8D9EB0" x="204.452393" y="20.3449707" width="1" height="20.5349121" rx="0.5"></rect>
            <rect fill="#8D9EB0" x="216.19104" y="5.72167969" width="1" height="43" rx="0.5"></rect>
            <path d="M226.525486,157.761738 C228.813156,157.761738 230.313268,159.599374 230.313268,162.487089 L230.313268,163.499665 C230.313268,166.25612 228.531885,168.243768 226.244215,168.243768 C225.175385,168.243768 224.312821,167.849989 223.619019,167.137436 L223.431506,168 L221.61262,168 L221.61262,154.123967 L223.937793,154.123967 L223.937793,158.793064 C224.575341,158.136766 225.437905,157.761738 226.525486,157.761738 Z M227.988095,163.57467 L227.988095,162.412084 C227.988095,160.461939 227.331796,159.524369 226.056701,159.524369 C225.156634,159.524369 224.444081,159.955651 223.937793,160.593198 L223.937793,165.656075 C224.444081,166.199866 225.081628,166.499888 225.850436,166.499888 C227.144282,166.499888 227.988095,165.487313 227.988095,163.57467 Z" fill="#8D9EB0"></path>
            <path d="M147.647326,161.118349 C147.647326,161.53088 147.609823,161.943411 147.57232,162.243433 L141.140591,162.243433 C141.178094,164.156075 142.059409,164.999888 143.784538,164.999888 C144.872119,164.999888 145.678429,164.606109 146.447236,164.174827 L147.272298,165.56243 C146.428485,166.199978 145.078384,166.743768 143.634527,166.743768 C140.596801,166.743768 138.871672,164.737369 138.871672,162.037168 L138.871672,161.005841 C138.871672,158.30564 140.559298,156.261738 143.334504,156.261738 C146.053457,156.261738 147.647326,157.949363 147.647326,161.118349 Z M145.565921,160.72457 L145.565921,160.630813 C145.565921,158.905685 144.797113,157.968115 143.353256,157.968115 C141.92815,157.968115 141.178094,158.905685 141.140591,160.72457 L145.565921,160.72457 Z" fill="#8D9EB0"></path>
            <rect fill="#8D9EB0" x="194.181015" y="151.198719" width="1" height="15.6104736" rx="0.5"></rect>
            <rect fill="#8D9EB0" x="151.678696" y="151.450473" width="1" height="15.6104736" rx="0.5"></rect>
            <rect fill="#8D9EB0" x="209.990967" y="151.32302" width="1" height="15.6104736" rx="0.5"></rect>
            <rect fill="#8D9EB0" x="176.205688" y="151.889526" width="1" height="15.6104736" rx="0.5"></rect>
            <rect fill="#8D9EB0" x="78.7248535" y="35.5815595" width="8.89941406" height="1" rx="0.5"></rect>
            <g transform="translate(81.910400, 52.217407)" fill="#8D9EB0">
                <g transform="translate(3.170471, 3.091220) rotate(-90.000000) translate(-3.170471, -3.091220) translate(0.170471, 0.591220)">
                    <path d="M2.88775351,-0.425866237 C2.98755721,-0.684554916 3.15206769,-0.677565105 3.24917468,-0.425866237 L5.40050076,5.1503168 C5.50030446,5.40900548 5.36527212,5.61871408 5.08097484,5.61871408 L1.05595335,5.61871408 C0.779680363,5.61871408 0.639320451,5.40201566 0.736427439,5.1503168 L2.88775351,-0.425866237 Z" transform="translate(3.069450, 2.500722) rotate(90.000000) translate(-3.069450, -2.500722) "></path>
                </g>
                <rect x="2.67047119" y="3.09121968" width="1" height="4.93155171" rx="0.5"></rect>
            </g>
            <rect fill="#8D9EB0" x="78.9641113" y="50.1119716" width="8.89941406" height="1" rx="0.5"></rect>
            <g transform="translate(81.910400, 120.925432)" fill="#8D9EB0">
                <g transform="translate(2.968994, 9.819735) rotate(90.000000) translate(-2.968994, -9.819735) translate(-0.031006, 7.319735)">
                    <path d="M2.88775351,-0.425866237 C2.98755721,-0.684554916 3.15206769,-0.677565105 3.24917468,-0.425866237 L5.40050076,5.1503168 C5.50030446,5.40900548 5.36527212,5.61871408 5.08097484,5.61871408 L1.05595335,5.61871408 C0.779680363,5.61871408 0.639320451,5.40201566 0.736427439,5.1503168 L2.88775351,-0.425866237 Z" transform="translate(3.069450, 2.500722) rotate(90.000000) translate(-3.069450, -2.500722) "></path>
                </g>
                <rect x="2.46899414" y="0.819735308" width="1" height="8.00952148" rx="0.5"></rect>
                <rect x="2.46899414" y="0.819735308" width="6" height="1" rx="0.5"></rect>
            </g>
            <polygon fill="#8D9EB0" points="94.3315725 127.03586 99.6569691 127.03586 99.6569691 128.948503 91.9688966 128.948503 91.9688966 115.822526 94.3315725 115.822526"></polygon>
            <rect fill="#8D9EB0" x="78.7248535" y="134.558766" width="8.89941406" height="1" rx="0.5"></rect>
            <g transform="translate(81.910400, 149.194613)" fill="#8D9EB0">
                <g transform="translate(3.170471, 3.091220) rotate(-90.000000) translate(-3.170471, -3.091220) translate(0.170471, 0.591220)">
                    <path d="M2.88775351,-0.425866237 C2.98755721,-0.684554916 3.15206769,-0.677565105 3.24917468,-0.425866237 L5.40050076,5.1503168 C5.50030446,5.40900548 5.36527212,5.61871408 5.08097484,5.61871408 L1.05595335,5.61871408 C0.779680363,5.61871408 0.639320451,5.40201566 0.736427439,5.1503168 L2.88775351,-0.425866237 Z" transform="translate(3.069450, 2.500722) rotate(90.000000) translate(-3.069450, -2.500722) "></path>
                </g>
                <rect x="2.67047119" y="3.09121968" width="1" height="4.93155171" rx="0.5"></rect>
            </g>
            <rect fill="#8D9EB0" x="78.9641113" y="147.089178" width="8.89941406" height="1" rx="0.5"></rect>
            <g transform="translate(118.523438, 51.217407)" fill="#8D9EB0">
                <g transform="translate(2.631110, 3.427124) rotate(-90.000000) translate(-2.631110, -3.427124) translate(-0.368890, 0.927124)">
                    <path d="M2.88775351,-0.425866237 C2.98755721,-0.684554916 3.15206769,-0.677565105 3.24917468,-0.425866237 L5.40050076,5.1503168 C5.50030446,5.40900548 5.36527212,5.61871408 5.08097484,5.61871408 L1.05595335,5.61871408 C0.779680363,5.61871408 0.639320451,5.40201566 0.736427439,5.1503168 L2.88775351,-0.425866237 Z" transform="translate(3.069450, 2.500722) rotate(90.000000) translate(-3.069450, -2.500722) "></path>
                </g>
                <rect x="2.13111028" y="3.42712402" width="1" height="19.0924072" rx="0.5"></rect>
            </g>
            <g transform="translate(121.523438, 101.717407) scale(1, -1) translate(-121.523438, -101.717407) translate(118.523438, 90.217407)" fill="#8D9EB0">
                <g transform="translate(2.631110, 3.427124) rotate(-90.000000) translate(-2.631110, -3.427124) translate(-0.368890, 0.927124)">
                    <path d="M2.88775351,-0.425866237 C2.98755721,-0.684554916 3.15206769,-0.677565105 3.24917468,-0.425866237 L5.40050076,5.1503168 C5.50030446,5.40900548 5.36527212,5.61871408 5.08097484,5.61871408 L1.05595335,5.61871408 C0.779680363,5.61871408 0.639320451,5.40201566 0.736427439,5.1503168 L2.88775351,-0.425866237 Z" transform="translate(3.069450, 2.500722) rotate(90.000000) translate(-3.069450, -2.500722) "></path>
                </g>
                <rect x="2.13111028" y="3.42712402" width="1" height="19" rx="0.5"></rect>
            </g>
            <g transform="translate(234.523438, 36.217407)" fill="#8D9EB0">
                <g transform="translate(2.631110, 3.427124) rotate(-90.000000) translate(-2.631110, -3.427124) translate(-0.368890, 0.927124)">
                    <path d="M2.88775351,-0.425866237 C2.98755721,-0.684554916 3.15206769,-0.677565105 3.24917468,-0.425866237 L5.40050076,5.1503168 C5.50030446,5.40900548 5.36527212,5.61871408 5.08097484,5.61871408 L1.05595335,5.61871408 C0.779680363,5.61871408 0.639320451,5.40201566 0.736427439,5.1503168 L2.88775351,-0.425866237 Z" transform="translate(3.069450, 2.500722) rotate(90.000000) translate(-3.069450, -2.500722) "></path>
                </g>
                <rect x="2.13111028" y="3.42712402" width="1" height="19.0924072" rx="0.5"></rect>
            </g>
            <g transform="translate(237.523438, 85.717407) scale(1, -1) translate(-237.523438, -85.717407) translate(234.523438, 74.217407)" fill="#8D9EB0">
                <g transform="translate(2.631110, 3.427124) rotate(-90.000000) translate(-2.631110, -3.427124) translate(-0.368890, 0.927124)">
                    <path d="M2.88775351,-0.425866237 C2.98755721,-0.684554916 3.15206769,-0.677565105 3.24917468,-0.425866237 L5.40050076,5.1503168 C5.50030446,5.40900548 5.36527212,5.61871408 5.08097484,5.61871408 L1.05595335,5.61871408 C0.779680363,5.61871408 0.639320451,5.40201566 0.736427439,5.1503168 L2.88775351,-0.425866237 Z" transform="translate(3.069450, 2.500722) rotate(90.000000) translate(-3.069450, -2.500722) "></path>
                </g>
                <rect x="2.13111028" y="3.42712402" width="1" height="19" rx="0.5"></rect>
            </g>
            <rect fill="#8D9EB0" x="200.152954" y="35.5815595" width="75.9749756" height="1" rx="0.5"></rect>
            <rect fill="#8D9EB0" x="212.546777" y="148.58156" width="63.5811529" height="1" rx="0.5"></rect>
            <rect fill="#8D9EB0" x="114.523438" y="50.0688477" width="20" height="1" rx="0.5"></rect>
            <rect fill="#8D9EB0" x="114.523438" y="114.750244" width="20" height="1" rx="0.5"></rect>
            <rect fill="#8D9EB0" x="205.151032" y="97.3911133" width="43.2464285" height="1" rx="0.5"></rect>
            <g transform="translate(268.000000, 123.500000) scale(1, -1) translate(-268.000000, -123.500000) translate(265.000000, 100.500000)" fill="#8D9EB0">
                <g transform="translate(2.525734, 3.427124) rotate(-90.000000) translate(-2.525734, -3.427124) translate(-0.474266, 0.927124)">
                    <path d="M2.88775351,-0.425866237 C2.98755721,-0.684554916 3.15206769,-0.677565105 3.24917468,-0.425866237 L5.40050076,5.1503168 C5.50030446,5.40900548 5.36527212,5.61871408 5.08097484,5.61871408 L1.05595335,5.61871408 C0.779680363,5.61871408 0.639320451,5.40201566 0.736427439,5.1503168 L2.88775351,-0.425866237 Z" transform="translate(3.069450, 2.500722) rotate(90.000000) translate(-3.069450, -2.500722) "></path>
                </g>
                <rect x="2.0257342" y="3.42712402" width="1" height="42" rx="0.5"></rect>
            </g>
            <g transform="translate(265.000000, 36.971297)" fill="#8D9EB0">
                <g transform="translate(2.525734, 3.427124) rotate(-90.000000) translate(-2.525734, -3.427124) translate(-0.474266, 0.927124)">
                    <path d="M2.88775351,-0.425866237 C2.98755721,-0.684554916 3.15206769,-0.677565105 3.24917468,-0.425866237 L5.40050076,5.1503168 C5.50030446,5.40900548 5.36527212,5.61871408 5.08097484,5.61871408 L1.05595335,5.61871408 C0.779680363,5.61871408 0.639320451,5.40201566 0.736427439,5.1503168 L2.88775351,-0.425866237 Z" transform="translate(3.069450, 2.500722) rotate(90.000000) translate(-3.069450, -2.500722) "></path>
                </g>
                <rect x="2.0257342" y="3.42712402" width="1" height="41.5626387" rx="0.5"></rect>
            </g>
            <g transform="translate(210.652954, 160.067161)" fill="#8D9EB0">
                <g transform="translate(3.933594, 2.500000) scale(-1, 1) translate(-3.933594, -2.500000) translate(0.933594, 0.000000)">
                    <path d="M2.88775351,-0.425866237 C2.98755721,-0.684554916 3.15206769,-0.677565105 3.24917468,-0.425866237 L5.40050076,5.1503168 C5.50030446,5.40900548 5.36527212,5.61871408 5.08097484,5.61871408 L1.05595335,5.61871408 C0.779680363,5.61871408 0.639320451,5.40201566 0.736427439,5.1503168 L2.88775351,-0.425866237 Z" transform="translate(3.069450, 2.500722) rotate(90.000000) translate(-3.069450, -2.500722) "></path>
                </g>
                <rect x="3.93359375" y="2" width="4" height="1" rx="0.5"></rect>
            </g>
            <g transform="translate(147.302246, 160.194613)" fill="#8D9EB0">
                <g transform="translate(8.318604, 2.500000) scale(-1, 1) translate(-8.318604, -2.500000) translate(5.318604, 0.000000)">
                    <path d="M2.88775351,-0.425866237 C2.98755721,-0.684554916 3.15206769,-0.677565105 3.24917468,-0.425866237 L5.40050076,5.1503168 C5.50030446,5.40900548 5.36527212,5.61871408 5.08097484,5.61871408 L1.05595335,5.61871408 C0.779680363,5.61871408 0.639320451,5.40201566 0.736427439,5.1503168 L2.88775351,-0.425866237 Z" transform="translate(3.069450, 2.500722) rotate(90.000000) translate(-3.069450, -2.500722) "></path>
                </g>
                <rect x="8.93359375" y="2" width="16.3195801" height="1" rx="0.5"></rect>
                <rect x="0.93359375" y="2" width="4" height="1" rx="0.5"></rect>
            </g>
            <g transform="translate(185.189819, 159.942860)" fill="#8D9EB0">
                <g transform="translate(4.933594, 2.500000) scale(-1, 1) rotate(180.000000) translate(-4.933594, -2.500000) translate(1.933594, 0.000000)">
                    <path d="M2.88775351,-0.425866237 C2.98755721,-0.684554916 3.15206769,-0.677565105 3.24917468,-0.425866237 L5.40050076,5.1503168 C5.50030446,5.40900548 5.36527212,5.61871408 5.08097484,5.61871408 L1.05595335,5.61871408 C0.779680363,5.61871408 0.639320451,5.40201566 0.736427439,5.1503168 L2.88775351,-0.425866237 Z" transform="translate(3.069450, 2.500722) rotate(90.000000) translate(-3.069450, -2.500722) "></path>
                </g>
                <path d="M4.93359375,2.5 C4.93359375,2.77614237 4.71853638,3 4.44311523,3 L1.42407227,3 C1.15318846,3 0.93359375,2.76806641 0.93359375,2.5 L0.93359375,2.5 C0.93359375,2.22385763 1.14865112,2 1.42407227,2 L4.44311523,2 C4.71399904,2 4.93359375,2.23193359 4.93359375,2.5 L4.93359375,2.5"></path>
            </g>
            <g transform="translate(168.546875, 160.194613)" fill="#8D9EB0">
                <g transform="translate(4.665405, 2.500000) scale(-1, 1) rotate(180.000000) translate(-4.665405, -2.500000) translate(1.665405, 0.000000)">
                    <path d="M2.88775351,-0.425866237 C2.98755721,-0.684554916 3.15206769,-0.677565105 3.24917468,-0.425866237 L5.40050076,5.1503168 C5.50030446,5.40900548 5.36527212,5.61871408 5.08097484,5.61871408 L1.05595335,5.61871408 C0.779680363,5.61871408 0.639320451,5.40201566 0.736427439,5.1503168 L2.88775351,-0.425866237 Z" transform="translate(3.069450, 2.500722) rotate(90.000000) translate(-3.069450, -2.500722) "></path>
                </g>
                <path d="M4.2388916,2.5 C4.2388916,2.77614237 4.02383423,3 3.74841309,3 L0.729370117,3 C0.458486313,3 0.238891602,2.76806641 0.238891602,2.5 L0.238891602,2.5 C0.238891602,2.22385763 0.453948975,2 0.729370117,2 L3.74841309,2 C4.01929689,2 4.2388916,2.23193359 4.2388916,2.5 L4.2388916,2.5"></path>
            </g>
            <g transform="translate(150.000000, 25.000000)" fill="#8D9EB0">
                <g transform="translate(3.933594, 2.500000) scale(-1, 1) translate(-3.933594, -2.500000) translate(0.933594, 0.000000)">
                    <path d="M2.88775351,-0.425866237 C2.98755721,-0.684554916 3.15206769,-0.677565105 3.24917468,-0.425866237 L5.40050076,5.1503168 C5.50030446,5.40900548 5.36527212,5.61871408 5.08097484,5.61871408 L1.05595335,5.61871408 C0.779680363,5.61871408 0.639320451,5.40201566 0.736427439,5.1503168 L2.88775351,-0.425866237 Z" transform="translate(3.069450, 2.500722) rotate(90.000000) translate(-3.069450, -2.500722) "></path>
                </g>
                <rect x="3.93359375" y="2" width="12.3287354" height="1" rx="0.5"></rect>
            </g>
            <g transform="translate(196.256104, 27.500000) scale(-1, 1) translate(-196.256104, -27.500000) translate(187.756104, 25.000000)" fill="#8D9EB0">
                <g transform="translate(3.933594, 2.500000) scale(-1, 1) translate(-3.933594, -2.500000) translate(0.933594, 0.000000)">
                    <path d="M2.88775351,-0.425866237 C2.98755721,-0.684554916 3.15206769,-0.677565105 3.24917468,-0.425866237 L5.40050076,5.1503168 C5.50030446,5.40900548 5.36527212,5.61871408 5.08097484,5.61871408 L1.05595335,5.61871408 C0.779680363,5.61871408 0.639320451,5.40201566 0.736427439,5.1503168 L2.88775351,-0.425866237 Z" transform="translate(3.069450, 2.500722) rotate(90.000000) translate(-3.069450, -2.500722) "></path>
                </g>
                <rect x="3.93359375" y="2" width="12.3287354" height="1" rx="0.5"></rect>
            </g>
        </g>
    </g>
</svg>
